<svg width="2107" height="766" xmlns="http://www.w3.org/2000/svg" xmlns:xlink="http://www.w3.org/1999/xlink" xml:space="preserve" overflow="hidden"><defs><clipPath id="clip0"><rect x="725" y="910" width="2107" height="766"/></clipPath><clipPath id="clip1"><rect x="724" y="909" width="1134" height="657"/></clipPath><clipPath id="clip2"><rect x="724" y="909" width="1134" height="657"/></clipPath><clipPath id="clip3"><rect x="724" y="909" width="1134" height="657"/></clipPath><clipPath id="clip4"><rect x="724" y="909" width="1134" height="657"/></clipPath></defs><g clip-path="url(#clip0)" transform="translate(-725 -910)"><g clip-path="url(#clip1)"><g clip-path="url(#clip2)"><g clip-path="url(#clip3)"><g clip-path="url(#clip4)"><path d="M2670.01 1420.26 2690.99 1420.26 2690.41 1422.84C2689.07 1423.11 2688.13 1423.43 2687.55 1423.78 2686.98 1424.13 2686.46 1424.65 2686.01 1425.35 2685.55 1426.05 2685.07 1427.15 2684.58 1428.64 2684.09 1430.11 2683.48 1432.55 2682.74 1435.9L2679.18 1451.95 2707.35 1451.95 2710.92 1435.85C2711.23 1434.41 2711.51 1432.88 2711.74 1431.25 2711.96 1429.64 2712.08 1428.34 2712.08 1427.4 2712.08 1425.75 2711.66 1424.61 2710.85 1423.97 2710.02 1423.32 2708.71 1422.94 2706.94 1422.84L2707.51 1420.26 2728.49 1420.26 2727.92 1422.84C2726.59 1423.11 2725.63 1423.43 2725.06 1423.78 2724.48 1424.13 2723.96 1424.65 2723.51 1425.35 2723.05 1426.05 2722.59 1427.15 2722.1 1428.64 2721.6 1430.11 2720.99 1432.55 2720.26 1435.9L2711.29 1476.61C2710.83 1478.67 2710.54 1480.31 2710.39 1481.52 2710.25 1482.72 2710.19 1483.81 2710.19 1484.79 2710.19 1486.37 2710.57 1487.47 2711.36 1488.12 2712.15 1488.77 2713.47 1489.17 2715.32 1489.31L2714.76 1491.87 2693.76 1491.87 2694.34 1489.31C2695.68 1489.09 2696.67 1488.75 2697.33 1488.29 2697.99 1487.81 2698.56 1487.15 2699.01 1486.32 2699.47 1485.48 2699.88 1484.46 2700.27 1483.25 2700.66 1482.04 2701.23 1479.7 2702.01 1476.24L2706.3 1456.78 2678.14 1456.78 2673.77 1476.61C2673.4 1478.36 2673.11 1479.8 2672.94 1480.93 2672.76 1482.07 2672.67 1483.36 2672.67 1484.79 2672.67 1486.29 2673.02 1487.38 2673.72 1488.04 2674.42 1488.71 2675.79 1489.13 2677.81 1489.31L2677.24 1491.87 2656.26 1491.87 2656.83 1489.31C2658.16 1489.09 2659.16 1488.75 2659.82 1488.29 2660.49 1487.81 2661.05 1487.15 2661.5 1486.32 2661.95 1485.48 2662.38 1484.46 2662.76 1483.25 2663.15 1482.04 2663.73 1479.7 2664.49 1476.24L2673.41 1435.85C2673.72 1434.41 2673.99 1432.88 2674.23 1431.25 2674.45 1429.64 2674.56 1428.34 2674.56 1427.4 2674.56 1425.75 2674.15 1424.61 2673.33 1423.97 2672.5 1423.32 2671.21 1422.94 2669.42 1422.84Z" fill-rule="evenodd" transform="matrix(1.0003 0 0 1 -1908.74 -207.125)"/><path d="M2765.8 1457.67 2830.43 1457.67 2830.43 1464.65 2765.8 1464.65Z" fill-rule="evenodd" transform="matrix(1.0003 0 0 1 -1908.74 -207.125)"/><path d="M2906.45 1419.42C2909.64 1419.42 2912.59 1419.62 2915.29 1420 2918 1420.39 2921.02 1421.09 2924.34 1422.1L2921.2 1436.31 2916.16 1436.31C2915.88 1432.02 2914.95 1428.91 2913.35 1427.01 2911.76 1425.1 2909.2 1424.15 2905.66 1424.15 2900.84 1424.15 2896.36 1426.57 2892.21 1431.38 2888.07 1436.21 2884.78 1442.59 2882.38 1450.51 2879.96 1458.44 2878.75 1465.79 2878.75 1472.57 2878.75 1477.88 2879.7 1481.8 2881.59 1484.33 2883.48 1486.84 2886.38 1488.09 2890.3 1488.09 2892.91 1488.09 2895.2 1487.7 2897.17 1486.92 2899.13 1486.13 2900.96 1484.81 2902.67 1482.93 2904.4 1481.06 2906.09 1478.45 2907.76 1475.08L2912.8 1475.08 2909.6 1489.98C2903.06 1491.81 2896.2 1492.71 2889.04 1492.71 2882.47 1492.71 2877.46 1490.82 2874.03 1487.04 2870.61 1483.28 2868.89 1477.75 2868.89 1470.48 2868.89 1465.34 2869.81 1459.41 2871.64 1452.69 2873.48 1445.97 2876.09 1440.08 2879.44 1435.01 2882.79 1429.93 2886.76 1426.08 2891.35 1423.41 2895.93 1420.76 2900.96 1419.42 2906.45 1419.42Z" fill-rule="evenodd" transform="matrix(1.0003 0 0 1 -1908.74 -207.125)"/><path d="M2967.76 1468.59 3032.39 1468.59 3032.39 1475.56 2967.76 1475.56ZM2967.76 1446.81 3032.39 1446.81 3032.39 1453.79 2967.76 1453.79Z" fill-rule="evenodd" transform="matrix(1.0003 0 0 1 -1908.74 -207.125)"/><path d="M3114.34 1419.42C3117.53 1419.42 3120.48 1419.62 3123.19 1420 3125.89 1420.39 3128.91 1421.09 3132.23 1422.1L3129.09 1436.31 3124.05 1436.31C3123.77 1432.02 3122.84 1428.91 3121.24 1427.01 3119.65 1425.1 3117.09 1424.15 3113.55 1424.15 3108.73 1424.15 3104.25 1426.57 3100.11 1431.38 3095.96 1436.21 3092.68 1442.59 3090.27 1450.51 3087.85 1458.44 3086.64 1465.79 3086.64 1472.57 3086.64 1477.88 3087.59 1481.8 3089.48 1484.33 3091.37 1486.84 3094.27 1488.09 3098.19 1488.09 3100.8 1488.09 3103.1 1487.7 3105.06 1486.92 3107.02 1486.13 3108.86 1484.81 3110.56 1482.93 3112.29 1481.06 3113.98 1478.45 3115.65 1475.08L3120.69 1475.08 3117.49 1489.98C3110.95 1491.81 3104.09 1492.71 3096.93 1492.71 3090.36 1492.71 3085.35 1490.82 3081.92 1487.04 3078.5 1483.28 3076.78 1477.75 3076.78 1470.48 3076.78 1465.34 3077.7 1459.41 3079.54 1452.69 3081.37 1445.97 3083.98 1440.08 3087.33 1435.01 3090.68 1429.93 3094.66 1426.08 3099.24 1423.41 3103.82 1420.76 3108.86 1419.42 3114.34 1419.42Z" fill-rule="evenodd" transform="matrix(1.0003 0 0 1 -1908.74 -207.125)"/><path d="M3169.72 1457.67 3234.34 1457.67 3234.34 1464.65 3169.72 1464.65Z" fill-rule="evenodd" transform="matrix(1.0003 0 0 1 -1908.74 -207.125)"/><path d="M3310.37 1419.42C3313.55 1419.42 3316.5 1419.62 3319.21 1420 3321.93 1420.39 3324.94 1421.09 3328.26 1422.1L3325.11 1436.31 3320.07 1436.31C3319.8 1432.02 3318.86 1428.91 3317.27 1427.01 3315.67 1425.1 3313.11 1424.15 3309.59 1424.15 3304.76 1424.15 3300.27 1426.57 3296.13 1431.38 3291.98 1436.21 3288.71 1442.59 3286.29 1450.51 3283.88 1458.44 3282.68 1465.79 3282.68 1472.57 3282.68 1477.88 3283.61 1481.8 3285.5 1484.33 3287.39 1486.84 3290.3 1488.09 3294.21 1488.09 3296.84 1488.09 3299.13 1487.7 3301.08 1486.92 3303.04 1486.13 3304.88 1484.81 3306.6 1482.93 3308.31 1481.06 3310 1478.45 3311.69 1475.08L3316.72 1475.08 3313.52 1489.98C3306.97 1491.81 3300.13 1492.71 3292.96 1492.71 3286.38 1492.71 3281.38 1490.82 3277.95 1487.04 3274.52 1483.28 3272.81 1477.75 3272.81 1470.48 3272.81 1465.34 3273.73 1459.41 3275.56 1452.69 3277.4 1445.97 3280 1440.08 3283.35 1435.01 3286.72 1429.93 3290.68 1426.08 3295.26 1423.41 3299.84 1420.76 3304.88 1419.42 3310.37 1419.42Z" fill-rule="evenodd" transform="matrix(1.0003 0 0 1 -1908.74 -207.125)"/><path d="M3365.74 1457.67 3430.38 1457.67 3430.38 1464.65 3365.74 1464.65Z" fill-rule="evenodd" transform="matrix(1.0003 0 0 1 -1908.74 -207.125)"/><path d="M3505.66 1424.04C3501.88 1424.04 3498.36 1425.39 3495.09 1428.08 3491.82 1430.77 3488.95 1434.62 3486.49 1439.63 3484.02 1444.62 3482.1 1450.11 3480.74 1456.09 3479.38 1462.07 3478.7 1467.36 3478.7 1471.94 3478.7 1482.75 3482.63 1488.14 3490.5 1488.14 3495.29 1488.14 3499.69 1485.94 3503.69 1481.54 3507.69 1477.13 3510.98 1470.95 3513.53 1462.99 3516.08 1455.05 3517.36 1447.41 3517.36 1440.09 3517.36 1429.39 3513.45 1424.04 3505.66 1424.04ZM3506.24 1419.42C3512.99 1419.42 3518.19 1421.39 3521.84 1425.3 3525.51 1429.22 3527.33 1434.89 3527.33 1442.29 3527.33 1447.72 3526.4 1453.82 3524.55 1460.59 3522.7 1467.36 3520 1473.21 3516.5 1478.15 3512.98 1483.11 3508.96 1486.77 3504.46 1489.17 3499.94 1491.58 3495.22 1492.77 3490.3 1492.77 3483.25 1492.77 3477.92 1490.81 3474.28 1486.89 3470.65 1482.98 3468.83 1477.38 3468.83 1470.1 3468.83 1464.86 3469.71 1458.93 3471.49 1452.31 3473.25 1445.71 3475.8 1439.87 3479.14 1434.83 3482.48 1429.76 3486.47 1425.95 3491.1 1423.33 3495.73 1420.73 3500.78 1419.42 3506.24 1419.42Z" fill-rule="evenodd" transform="matrix(1.0003 0 0 1 -1908.74 -207.125)"/><path d="M3567.85 1457.67 3632.48 1457.67 3632.48 1464.65 3567.85 1464.65Z" fill-rule="evenodd" transform="matrix(1.0003 0 0 1 -1908.74 -207.125)"/><path d="M3680.6 1420.26 3701.58 1420.26 3701 1422.84C3699.68 1423.11 3698.72 1423.43 3698.14 1423.78 3697.57 1424.13 3697.05 1424.65 3696.6 1425.35 3696.14 1426.05 3695.66 1427.15 3695.17 1428.64 3694.69 1430.11 3694.07 1432.55 3693.35 1435.9L3689.77 1451.95 3717.94 1451.95 3721.51 1435.85C3721.82 1434.41 3722.1 1432.88 3722.33 1431.25 3722.55 1429.64 3722.67 1428.34 3722.67 1427.4 3722.67 1425.75 3722.25 1424.61 3721.44 1423.97 3720.61 1423.32 3719.31 1422.94 3717.53 1422.84L3718.1 1420.26 3739.09 1420.26 3738.51 1422.84C3737.18 1423.11 3736.23 1423.43 3735.65 1423.78 3735.08 1424.13 3734.56 1424.65 3734.11 1425.35 3733.64 1426.05 3733.18 1427.15 3732.69 1428.64 3732.19 1430.11 3731.59 1432.55 3730.85 1435.9L3721.88 1476.61C3721.42 1478.67 3721.13 1480.31 3720.98 1481.52 3720.85 1482.72 3720.78 1483.81 3720.78 1484.79 3720.78 1486.37 3721.18 1487.47 3721.95 1488.12 3722.74 1488.77 3724.06 1489.17 3725.92 1489.31L3725.35 1491.87 3704.36 1491.87 3704.93 1489.31C3706.27 1489.09 3707.26 1488.75 3707.92 1488.29 3708.6 1487.81 3709.15 1487.15 3709.6 1486.32 3710.06 1485.48 3710.49 1484.46 3710.86 1483.25 3711.25 1482.04 3711.83 1479.7 3712.6 1476.24L3716.89 1456.78 3688.73 1456.78 3684.38 1476.61C3683.99 1478.36 3683.7 1479.8 3683.53 1480.93 3683.35 1482.07 3683.26 1483.36 3683.26 1484.79 3683.26 1486.29 3683.62 1487.38 3684.32 1488.04 3685.02 1488.71 3686.38 1489.13 3688.41 1489.31L3687.83 1491.87 3666.85 1491.87 3667.43 1489.31C3668.75 1489.09 3669.75 1488.75 3670.42 1488.29 3671.08 1487.81 3671.64 1487.15 3672.09 1486.32 3672.54 1485.48 3672.97 1484.46 3673.36 1483.25 3673.74 1482.04 3674.32 1479.7 3675.08 1476.24L3684 1435.85C3684.32 1434.41 3684.58 1432.88 3684.82 1431.25 3685.05 1429.64 3685.15 1428.34 3685.15 1427.4 3685.15 1425.75 3684.75 1424.61 3683.92 1423.97 3683.11 1423.32 3681.8 1422.94 3680.01 1422.84Z" fill-rule="evenodd" transform="matrix(1.0003 0 0 1 -1908.74 -207.125)"/><path d="M2897.62 1540.36 2897.62 1605 2890.65 1605 2890.65 1540.36Z" fill-rule="evenodd" transform="matrix(1.0003 0 0 1 -1908.74 -207.125)"/><path d="M2878.36 1653.12 2899.36 1653.12 2898.78 1655.7C2897.44 1655.97 2896.5 1656.3 2895.92 1656.65 2895.33 1657 2894.83 1657.51 2894.38 1658.21 2893.91 1658.91 2893.44 1660.01 2892.95 1661.5 2892.46 1662.98 2891.85 1665.4 2891.11 1668.76L2887.55 1684.81 2915.72 1684.81 2919.29 1668.71C2919.6 1667.27 2919.88 1665.75 2920.1 1664.11 2920.33 1662.5 2920.45 1661.2 2920.45 1660.26 2920.45 1658.61 2920.03 1657.47 2919.2 1656.83 2918.39 1656.18 2917.08 1655.8 2915.31 1655.7L2915.88 1653.12 2936.86 1653.12 2936.29 1655.7C2934.96 1655.97 2934 1656.3 2933.43 1656.65 2932.85 1657 2932.33 1657.51 2931.88 1658.21 2931.42 1658.91 2930.96 1660.01 2930.47 1661.5 2929.97 1662.98 2929.37 1665.4 2928.63 1668.76L2919.66 1709.47C2919.2 1711.53 2918.91 1713.16 2918.76 1714.38 2918.62 1715.58 2918.56 1716.67 2918.56 1717.65 2918.56 1719.23 2918.94 1720.33 2919.73 1720.98 2920.52 1721.63 2921.84 1722.03 2923.7 1722.17L2923.11 1724.73 2902.13 1724.73 2902.71 1722.17C2904.05 1721.95 2905.04 1721.61 2905.7 1721.14 2906.36 1720.67 2906.92 1720.01 2907.39 1719.18 2907.84 1718.34 2908.25 1717.32 2908.64 1716.1 2909.03 1714.9 2909.6 1712.57 2910.38 1709.1L2914.67 1689.64 2886.51 1689.64 2882.14 1709.47C2881.77 1711.22 2881.48 1712.66 2881.3 1713.8 2881.13 1714.94 2881.04 1716.22 2881.04 1717.65 2881.04 1719.16 2881.39 1720.24 2882.09 1720.9 2882.79 1721.58 2884.16 1721.99 2886.18 1722.17L2885.61 1724.73 2864.63 1724.73 2865.2 1722.17C2866.53 1721.95 2867.53 1721.61 2868.19 1721.14 2868.86 1720.67 2869.42 1720.01 2869.87 1719.18 2870.32 1718.34 2870.74 1717.32 2871.13 1716.1 2871.52 1714.9 2872.09 1712.57 2872.86 1709.1L2881.78 1668.71C2882.09 1667.27 2882.36 1665.75 2882.6 1664.11 2882.82 1662.5 2882.93 1661.2 2882.93 1660.26 2882.93 1658.61 2882.52 1657.47 2881.7 1656.83 2880.87 1656.18 2879.58 1655.8 2877.79 1655.7Z" fill-rule="evenodd" transform="matrix(1.0003 0 0 1 -1908.74 -207.125)"/><path d="M3103.83 1540.36 3103.83 1605 3096.86 1605 3096.86 1540.36Z" fill-rule="evenodd" transform="matrix(1.0003 0 0 1 -1908.74 -207.125)"/><path d="M3084.58 1653.12 3105.57 1653.12 3104.99 1655.7C3103.65 1655.97 3102.71 1656.3 3102.12 1656.65 3101.56 1657 3101.04 1657.51 3100.58 1658.21 3100.13 1658.91 3099.65 1660.01 3099.16 1661.5 3098.67 1662.98 3098.06 1665.4 3097.32 1668.76L3093.76 1684.81 3121.93 1684.81 3125.5 1668.71C3125.81 1667.27 3126.09 1665.75 3126.32 1664.11 3126.54 1662.5 3126.65 1661.2 3126.65 1660.26 3126.65 1658.61 3126.24 1657.47 3125.43 1656.83 3124.6 1656.18 3123.29 1655.8 3121.52 1655.7L3122.09 1653.12 3143.07 1653.12 3142.5 1655.7C3141.17 1655.97 3140.22 1656.3 3139.64 1656.65 3139.06 1657 3138.54 1657.51 3138.08 1658.21 3137.63 1658.91 3137.17 1660.01 3136.67 1661.5 3136.18 1662.98 3135.57 1665.4 3134.84 1668.76L3125.87 1709.47C3125.41 1711.53 3125.11 1713.16 3124.97 1714.38 3124.83 1715.58 3124.76 1716.67 3124.76 1717.65 3124.76 1719.23 3125.15 1720.33 3125.94 1720.98 3126.73 1721.63 3128.05 1722.03 3129.9 1722.17L3129.33 1724.73 3108.34 1724.73 3108.92 1722.17C3110.25 1721.95 3111.25 1721.61 3111.91 1721.14 3112.57 1720.67 3113.14 1720.01 3113.59 1719.18 3114.05 1718.34 3114.46 1717.32 3114.85 1716.1 3115.24 1714.9 3115.81 1712.57 3116.58 1709.1L3120.88 1689.64 3092.71 1689.64 3088.35 1709.47C3087.98 1711.22 3087.69 1712.66 3087.52 1713.8 3087.34 1714.94 3087.25 1716.22 3087.25 1717.65 3087.25 1719.16 3087.6 1720.24 3088.3 1720.9 3089 1721.58 3090.37 1721.99 3092.39 1722.17L3091.82 1724.73 3070.84 1724.73 3071.41 1722.17C3072.74 1721.95 3073.74 1721.61 3074.4 1721.14 3075.07 1720.67 3075.63 1720.01 3076.08 1719.18 3076.53 1718.34 3076.96 1717.32 3077.34 1716.1 3077.72 1714.9 3078.31 1712.57 3079.07 1709.1L3087.99 1668.71C3088.3 1667.27 3088.57 1665.75 3088.8 1664.11 3089.02 1662.5 3089.14 1661.2 3089.14 1660.26 3089.14 1658.61 3088.73 1657.47 3087.91 1656.83 3087.08 1656.18 3085.79 1655.8 3084 1655.7Z" fill-rule="evenodd" transform="matrix(1.0003 0 0 1 -1908.74 -207.125)"/><path d="M3286.04 1296.6 3286.04 1361.24 3279.07 1361.24 3279.07 1296.6ZM3307.82 1296.6 3307.82 1361.24 3300.84 1361.24 3300.84 1296.6Z" fill-rule="evenodd" transform="matrix(1.0003 0 0 1 -1908.74 -207.125)"/><path d="M3306.04 1173.77C3302.26 1173.77 3298.74 1175.12 3295.47 1177.81 3292.2 1180.51 3289.33 1184.35 3286.87 1189.35 3284.4 1194.36 3282.48 1199.85 3281.12 1205.83 3279.75 1211.81 3279.08 1217.09 3279.08 1221.67 3279.08 1232.48 3283.01 1237.88 3290.88 1237.88 3295.67 1237.88 3300.06 1235.68 3304.07 1231.27 3308.07 1226.86 3311.35 1220.68 3313.91 1212.73 3316.46 1204.77 3317.74 1197.14 3317.74 1189.83 3317.74 1179.12 3313.83 1173.77 3306.04 1173.77ZM3306.61 1169.16C3313.37 1169.16 3318.57 1171.12 3322.22 1175.03 3325.87 1178.95 3327.71 1184.62 3327.71 1192.03 3327.71 1197.45 3326.78 1203.54 3324.93 1210.31 3323.08 1217.08 3320.39 1222.94 3316.88 1227.89 3313.36 1232.84 3309.34 1236.51 3304.84 1238.9 3300.32 1241.3 3295.6 1242.5 3290.66 1242.5 3283.63 1242.5 3278.3 1240.54 3274.66 1236.62 3271.03 1232.71 3269.21 1227.11 3269.21 1219.83 3269.21 1214.59 3270.09 1208.66 3271.86 1202.05 3273.63 1195.44 3276.18 1189.61 3279.52 1184.55 3282.86 1179.5 3286.84 1175.67 3291.48 1173.07 3296.11 1170.46 3301.16 1169.16 3306.61 1169.16Z" fill-rule="evenodd" transform="matrix(1.0003 0 0 1 -1908.74 -207.125)"/></g></g></g></g><path d="M2117.58 1204.54 2139.06 1204.54 2138.47 1207.17C2137.11 1207.46 2136.14 1207.78 2135.54 1208.14 2134.95 1208.49 2134.43 1209.03 2133.96 1209.75 2133.49 1210.46 2133.01 1211.58 2132.51 1213.1 2132.01 1214.63 2131.38 1217.11 2130.63 1220.54L2126.98 1236.98 2155.82 1236.98 2159.47 1220.49C2159.79 1219.02 2160.07 1217.45 2160.3 1215.79 2160.54 1214.12 2160.65 1212.81 2160.65 1211.84 2160.65 1210.16 2160.23 1208.99 2159.39 1208.32 2158.55 1207.66 2157.22 1207.28 2155.39 1207.17L2155.98 1204.54 2177.47 1204.54 2176.87 1207.17C2175.51 1207.46 2174.54 1207.78 2173.95 1208.14 2173.36 1208.49 2172.83 1209.03 2172.36 1209.75 2171.9 1210.46 2171.41 1211.58 2170.91 1213.1 2170.41 1214.63 2169.78 1217.11 2169.03 1220.54L2159.85 1262.22C2159.38 1264.34 2159.08 1266.01 2158.94 1267.24 2158.79 1268.48 2158.72 1269.6 2158.72 1270.6 2158.72 1272.21 2159.12 1273.35 2159.93 1274.01 2160.73 1274.68 2162.09 1275.08 2163.98 1275.22L2163.39 1277.85 2141.91 1277.85 2142.5 1275.22C2143.86 1275.01 2144.88 1274.66 2145.56 1274.17 2146.24 1273.69 2146.81 1273.02 2147.28 1272.16 2147.75 1271.3 2148.18 1270.25 2148.57 1269.02 2148.96 1267.78 2149.55 1265.39 2150.34 1261.85L2154.75 1241.92 2125.9 1241.92 2121.45 1262.22C2121.05 1264.01 2120.76 1265.49 2120.59 1266.65 2120.41 1267.82 2120.32 1269.13 2120.32 1270.6 2120.32 1272.14 2120.68 1273.25 2121.39 1273.93 2122.11 1274.61 2123.5 1275.04 2125.58 1275.22L2124.99 1277.85 2103.51 1277.85 2104.1 1275.22C2105.46 1275.01 2106.48 1274.66 2107.16 1274.17 2107.84 1273.69 2108.41 1273.02 2108.88 1272.16 2109.34 1271.3 2109.77 1270.25 2110.17 1269.02 2110.56 1267.78 2111.15 1265.39 2111.94 1261.85L2121.07 1220.49C2121.39 1219.02 2121.67 1217.45 2121.9 1215.79 2122.13 1214.12 2122.25 1212.81 2122.25 1211.84 2122.25 1210.16 2121.83 1208.99 2120.99 1208.32 2120.15 1207.66 2118.81 1207.28 2116.99 1207.17Z" fill-rule="evenodd"/><text fill="#000000" fill-opacity="0" font-family="Arial,Arial_MSFontService,sans-serif" font-size="73.3154" x="2103.51" y="1268.69">𝐻</text><path d="M2216.34 1242.83 2282.51 1242.83 2282.51 1249.98 2216.34 1249.98Z" fill-rule="evenodd"/><text fill="#000000" fill-opacity="0" font-family="Arial,Arial_MSFontService,sans-serif" font-size="7.14355" x="2216.34" y="1249.08">−</text><path d="M2360.42 1203.68C2363.68 1203.68 2366.7 1203.88 2369.47 1204.27 2372.25 1204.66 2375.34 1205.38 2378.74 1206.42L2375.52 1220.97 2370.36 1220.97C2370.07 1216.57 2369.11 1213.39 2367.49 1211.44 2365.86 1209.49 2363.23 1208.51 2359.62 1208.51 2354.68 1208.51 2350.08 1210.98 2345.84 1215.92 2341.6 1220.87 2338.24 1227.39 2335.77 1235.5 2333.3 1243.61 2332.06 1251.14 2332.06 1258.09 2332.06 1263.53 2333.03 1267.54 2334.96 1270.12 2336.9 1272.7 2339.87 1273.99 2343.88 1273.99 2346.57 1273.99 2348.91 1273.58 2350.92 1272.78 2352.92 1271.97 2354.8 1270.61 2356.56 1268.7 2358.31 1266.78 2360.05 1264.1 2361.77 1260.67L2366.92 1260.67 2363.65 1275.92C2356.95 1277.78 2349.93 1278.71 2342.59 1278.71 2335.86 1278.71 2330.74 1276.78 2327.23 1272.91 2323.72 1269.04 2321.97 1263.39 2321.97 1255.94 2321.97 1250.68 2322.91 1244.61 2324.79 1237.73 2326.67 1230.86 2329.32 1224.82 2332.76 1219.63 2336.2 1214.44 2340.26 1210.48 2344.95 1207.76 2349.64 1205.04 2354.8 1203.68 2360.42 1203.68Z" fill-rule="evenodd"/><text fill="#000000" fill-opacity="0" font-family="Arial,Arial_MSFontService,sans-serif" font-size="75.0342" x="2321.97" y="1269.33">𝐶</text><path d="M2423.99 1265.12 2490.16 1265.12 2490.16 1272.27 2423.99 1272.27ZM2423.99 1242.83 2490.16 1242.83 2490.16 1249.98 2423.99 1249.98ZM2423.99 1220.54 2490.16 1220.54 2490.16 1227.69 2423.99 1227.69Z" fill-rule="evenodd"/><text fill="#000000" fill-opacity="0" font-family="Arial,Arial_MSFontService,sans-serif" font-size="51.7236" x="2423.99" y="1265.8">≡</text><path d="M2574.17 1203.68C2577.43 1203.68 2580.44 1203.88 2583.22 1204.27 2585.99 1204.66 2589.08 1205.38 2592.48 1206.42L2589.26 1220.97 2584.1 1220.97C2583.82 1216.57 2582.86 1213.39 2581.23 1211.44 2579.6 1209.49 2576.98 1208.51 2573.36 1208.51 2568.42 1208.51 2563.83 1210.98 2559.58 1215.92 2555.34 1220.87 2551.98 1227.39 2549.51 1235.5 2547.04 1243.61 2545.81 1251.14 2545.81 1258.09 2545.81 1263.53 2546.77 1267.54 2548.71 1270.12 2550.64 1272.7 2553.61 1273.99 2557.62 1273.99 2560.31 1273.99 2562.65 1273.58 2564.66 1272.78 2566.67 1271.97 2568.54 1270.61 2570.3 1268.7 2572.05 1266.78 2573.79 1264.1 2575.51 1260.67L2580.67 1260.67 2577.39 1275.92C2570.69 1277.78 2563.68 1278.71 2556.33 1278.71 2549.6 1278.71 2544.48 1276.78 2540.97 1272.91 2537.46 1269.04 2535.71 1263.39 2535.71 1255.94 2535.71 1250.68 2536.65 1244.61 2538.53 1237.73 2540.41 1230.86 2543.07 1224.82 2546.51 1219.63 2549.94 1214.44 2554.01 1210.48 2558.7 1207.76 2563.39 1205.04 2568.54 1203.68 2574.17 1203.68Z" fill-rule="evenodd"/><text fill="#000000" fill-opacity="0" font-family="Arial,Arial_MSFontService,sans-serif" font-size="75.0342" x="2535.71" y="1269.33">𝐶</text><path d="M2631.63 1242.83 2697.81 1242.83 2697.81 1249.98 2631.63 1249.98Z" fill-rule="evenodd"/><text fill="#000000" fill-opacity="0" font-family="Arial,Arial_MSFontService,sans-serif" font-size="7.14355" x="2631.63" y="1249.08">−</text><path d="M2747.14 1204.54 2768.63 1204.54 2768.04 1207.17C2766.68 1207.46 2765.7 1207.78 2765.11 1208.14 2764.52 1208.49 2763.99 1209.03 2763.53 1209.75 2763.06 1210.46 2762.58 1211.58 2762.08 1213.1 2761.57 1214.63 2760.95 1217.11 2760.2 1220.54L2756.54 1236.98 2785.39 1236.98 2789.04 1220.49C2789.36 1219.02 2789.64 1217.45 2789.87 1215.79 2790.1 1214.12 2790.22 1212.81 2790.22 1211.84 2790.22 1210.16 2789.8 1208.99 2788.96 1208.32 2788.12 1207.66 2786.78 1207.28 2784.96 1207.17L2785.55 1204.54 2807.03 1204.54 2806.44 1207.17C2805.08 1207.46 2804.1 1207.78 2803.51 1208.14 2802.92 1208.49 2802.4 1209.03 2801.93 1209.75 2801.46 1210.46 2800.98 1211.58 2800.48 1213.1 2799.98 1214.63 2799.35 1217.11 2798.6 1220.54L2789.42 1262.22C2788.95 1264.34 2788.65 1266.01 2788.5 1267.24 2788.36 1268.48 2788.29 1269.6 2788.29 1270.6 2788.29 1272.21 2788.69 1273.35 2789.5 1274.01 2790.3 1274.68 2791.65 1275.08 2793.55 1275.22L2792.96 1277.85 2771.48 1277.85 2772.07 1275.22C2773.43 1275.01 2774.45 1274.66 2775.13 1274.17 2775.81 1273.69 2776.38 1273.02 2776.85 1272.16 2777.31 1271.3 2777.74 1270.25 2778.14 1269.02 2778.53 1267.78 2779.12 1265.39 2779.91 1261.85L2784.31 1241.92 2755.47 1241.92 2751.01 1262.22C2750.62 1264.01 2750.33 1265.49 2750.15 1266.65 2749.97 1267.82 2749.88 1269.13 2749.88 1270.6 2749.88 1272.14 2750.24 1273.25 2750.96 1273.93 2751.67 1274.61 2753.07 1275.04 2755.15 1275.22L2754.56 1277.85 2733.07 1277.85 2733.66 1275.22C2735.02 1275.01 2736.04 1274.66 2736.72 1274.17 2737.41 1273.69 2737.98 1273.02 2738.44 1272.16 2738.91 1271.3 2739.34 1270.25 2739.73 1269.02 2740.13 1267.78 2740.72 1265.39 2741.5 1261.85L2750.64 1220.49C2750.96 1219.02 2751.24 1217.45 2751.47 1215.79 2751.7 1214.12 2751.82 1212.81 2751.82 1211.84 2751.82 1210.16 2751.4 1208.99 2750.56 1208.32 2749.71 1207.66 2748.38 1207.28 2746.55 1207.17Z" fill-rule="evenodd"/><text fill="#000000" fill-opacity="0" font-family="Arial,Arial_MSFontService,sans-serif" font-size="73.3154" x="2733.07" y="1268.69">𝐻</text><path d="M1077.33 1617.06C1073.32 1617.18 1069.73 1618.34 1066.55 1620.55 1063.38 1622.75 1060.91 1625.7 1059.16 1629.42 1057.41 1633.13 1056.53 1637.25 1056.53 1641.77 1056.53 1644.11 1056.92 1645.99 1057.68 1647.41 1058.44 1648.83 1059.39 1649.81 1060.53 1650.35 1061.67 1650.89 1062.9 1651.16 1064.22 1651.16 1067.24 1651.16 1069.86 1650.17 1072.08 1648.2 1074.29 1646.22 1076.08 1643.21 1077.44 1639.17 1078.81 1635.12 1079.49 1631.2 1079.49 1627.4 1079.49 1623.29 1078.77 1619.85 1077.33 1617.06ZM1084.25 1611 1098.54 1611 1097.19 1616.93 1082.5 1616.93 1082.41 1617.29C1084.12 1619.33 1085.34 1621.38 1086.09 1623.44 1086.84 1625.51 1087.22 1627.77 1087.22 1630.23 1087.22 1634.69 1086.26 1638.83 1084.34 1642.65 1082.42 1646.47 1079.74 1649.42 1076.3 1651.52 1072.86 1653.62 1068.96 1654.66 1064.62 1654.66 1059.68 1654.66 1055.91 1653.34 1053.32 1650.69 1050.73 1648.04 1049.44 1644.29 1049.44 1639.44 1049.44 1636.11 1049.94 1632.96 1050.94 1629.98 1051.94 1627 1053.43 1624.26 1055.39 1621.76 1057.35 1619.26 1059.57 1617.23 1062.06 1615.67 1064.54 1614.11 1067.51 1612.95 1070.95 1612.17 1074.4 1611.39 1078.83 1611 1084.25 1611Z" fill-rule="evenodd"/><text fill="#000000" fill-opacity="0" font-family="Arial,Arial_MSFontService,sans-serif" font-size="43.6641" x="1049.44" y="1649.21">𝜎</text><path d="M1140.97 1633.33C1142.62 1633.33 1143.99 1633.9 1145.08 1635.06 1146.17 1636.21 1146.72 1637.67 1146.72 1639.44 1146.72 1641.2 1146.17 1642.66 1145.08 1643.82 1143.99 1644.97 1142.62 1645.54 1140.97 1645.54 1139.32 1645.54 1137.95 1644.97 1136.86 1643.82 1135.77 1642.66 1135.22 1641.2 1135.22 1639.44 1135.22 1637.67 1135.77 1636.21 1136.86 1635.06 1137.95 1633.9 1139.32 1633.33 1140.97 1633.33ZM1140.97 1609.74C1142.62 1609.74 1143.99 1610.32 1145.08 1611.47 1146.17 1612.62 1146.72 1614.08 1146.72 1615.85 1146.72 1617.62 1146.17 1619.08 1145.08 1620.23 1143.99 1621.38 1142.62 1621.96 1140.97 1621.96 1139.32 1621.96 1137.95 1621.38 1136.86 1620.23 1135.77 1619.08 1135.22 1617.62 1135.22 1615.85 1135.22 1614.08 1135.77 1612.62 1136.86 1611.47 1137.95 1610.32 1139.32 1609.74 1140.97 1609.74Z" fill-rule="evenodd"/><text fill="#000000" fill-opacity="0" font-family="Arial,Arial_MSFontService,sans-serif" font-size="35.8027" x="1135.22" y="1641.07">∶</text><path d="M1197.47 1611 1234.35 1611 1233.05 1616.93 1222.35 1616.93 1217.28 1639.44C1216.62 1642.37 1216.29 1644.59 1216.29 1646.08 1216.29 1647.28 1216.48 1648.15 1216.87 1648.69 1217.26 1649.23 1217.88 1649.5 1218.72 1649.5 1220.51 1649.5 1222.62 1648.06 1225.05 1645.19L1227.65 1647.61C1225.38 1650.1 1223.3 1651.89 1221.43 1653 1219.56 1654.11 1217.56 1654.66 1215.44 1654.66 1213.4 1654.66 1211.8 1653.97 1210.63 1652.58 1209.46 1651.18 1208.88 1649.35 1208.88 1647.07 1208.88 1645.07 1209.3 1642.16 1210.14 1638.36L1211.12 1633.82C1211.63 1631.42 1212.36 1628.53 1213.3 1625.15 1214.25 1621.77 1215.06 1619.16 1215.75 1617.33L1215.53 1616.93 1202.32 1616.93 1196.79 1642.49C1196.34 1644.5 1195.82 1646.66 1195.22 1648.98 1194.62 1651.3 1194.16 1652.96 1193.83 1653.95L1184.31 1653.95 1184.75 1651.74C1187.93 1648.6 1190.86 1641.23 1193.56 1629.64L1196.52 1616.93 1195.09 1616.93C1192.96 1616.93 1191.16 1617.29 1189.7 1618.01 1188.23 1618.73 1186.63 1620.16 1184.89 1622.32L1182.06 1619.94C1183.62 1618.05 1184.89 1616.62 1185.88 1615.63 1186.87 1614.64 1187.91 1613.8 1189 1613.11 1190.09 1612.42 1191.32 1611.9 1192.68 1611.54 1194.05 1611.18 1195.64 1611 1197.47 1611Z" fill-rule="evenodd"/><text fill="#000000" fill-opacity="0" font-family="Arial,Arial_MSFontService,sans-serif" font-size="43.6641" x="1182.06" y="1649.21">𝜋</text><path d="M1269.04 1634 1324.38 1634 1324.38 1639.97 1269.04 1639.97ZM1269.04 1615.36 1324.38 1615.36 1324.38 1621.33 1269.04 1621.33Z" fill-rule="evenodd"/><text fill="#000000" fill-opacity="0" font-family="Arial,Arial_MSFontService,sans-serif" font-size="24.6172" x="1269.04" y="1636.9">=</text><path d="M1382.03 1624.03C1379.81 1624.03 1377.95 1624.37 1376.43 1625.06 1374.92 1625.75 1373.69 1626.68 1372.75 1627.85 1371.81 1629.01 1371.13 1630.38 1370.73 1631.96 1370.32 1633.53 1370.12 1635.21 1370.12 1637.01 1370.12 1638.96 1370.35 1640.78 1370.8 1642.47 1371.24 1644.16 1371.96 1645.62 1372.93 1646.85 1373.9 1648.08 1375.15 1649.05 1376.68 1649.77 1378.21 1650.49 1380.06 1650.85 1382.25 1650.85 1384.71 1650.85 1386.81 1650.34 1388.56 1649.34 1390.31 1648.34 1391.65 1646.85 1392.56 1644.87 1393.47 1642.89 1393.93 1640.56 1393.93 1637.86 1393.93 1634.99 1393.44 1632.51 1392.45 1630.43 1391.46 1628.35 1390.07 1626.76 1388.27 1625.67 1386.47 1624.57 1384.39 1624.03 1382.03 1624.03ZM1382.25 1595.73C1378.48 1595.73 1375.59 1596.75 1373.6 1598.8 1371.61 1600.85 1370.62 1603.77 1370.62 1607.54 1370.62 1609.31 1370.83 1610.97 1371.24 1612.53 1371.66 1614.08 1372.34 1615.43 1373.27 1616.57 1374.19 1617.71 1375.4 1618.61 1376.88 1619.29 1378.36 1619.96 1380.18 1620.3 1382.34 1620.3 1384.83 1620.3 1386.92 1619.81 1388.61 1618.84 1390.3 1617.87 1391.56 1616.44 1392.38 1614.57 1393.2 1612.7 1393.62 1610.54 1393.62 1608.08 1393.62 1605.38 1393.13 1603.1 1392.16 1601.23 1391.18 1599.36 1389.84 1597.97 1388.14 1597.07 1386.43 1596.18 1384.47 1595.73 1382.25 1595.73ZM1382.34 1591.91C1386.65 1591.91 1390.28 1592.51 1393.21 1593.73 1396.15 1594.94 1398.36 1596.69 1399.84 1598.98 1401.32 1601.27 1402.06 1604.02 1402.06 1607.23 1402.06 1610.52 1401.25 1613.36 1399.64 1615.74 1398.02 1618.12 1395.52 1620.06 1392.13 1621.56L1392.22 1622.14C1395.61 1623.46 1398.17 1625.38 1399.91 1627.91 1401.64 1630.44 1402.51 1633.49 1402.51 1637.05 1402.51 1640.56 1401.67 1643.64 1399.99 1646.31 1398.32 1648.97 1395.88 1651.03 1392.7 1652.49 1389.51 1653.94 1385.78 1654.66 1381.53 1654.66 1377.55 1654.66 1374.05 1654 1371.04 1652.66 1368.03 1651.33 1365.7 1649.39 1364.03 1646.83 1362.37 1644.26 1361.54 1641.25 1361.54 1637.77 1361.54 1635.17 1361.99 1632.91 1362.89 1630.99 1363.79 1629.07 1364.96 1627.49 1366.42 1626.25 1367.87 1625.01 1369.7 1623.88 1371.92 1622.86L1371.83 1622.28C1365.39 1619.49 1362.17 1614.71 1362.17 1607.95 1362.17 1604.86 1363.02 1602.11 1364.71 1599.68 1366.4 1597.25 1368.81 1595.35 1371.94 1593.97 1375.07 1592.6 1378.54 1591.91 1382.34 1591.91Z" fill-rule="evenodd"/><text fill="#000000" fill-opacity="0" font-family="Arial,Arial_MSFontService,sans-serif" font-size="62.7559" x="1361.54" y="1646.82">8</text><path d="M1447.02 1633.33C1448.67 1633.33 1450.04 1633.9 1451.13 1635.06 1452.22 1636.21 1452.77 1637.67 1452.77 1639.44 1452.77 1641.2 1452.22 1642.66 1451.13 1643.82 1450.04 1644.97 1448.67 1645.54 1447.02 1645.54 1445.37 1645.54 1444 1644.97 1442.91 1643.82 1441.82 1642.66 1441.27 1641.2 1441.27 1639.44 1441.27 1637.67 1441.82 1636.21 1442.91 1635.06 1444 1633.9 1445.37 1633.33 1447.02 1633.33ZM1447.02 1609.74C1448.67 1609.74 1450.04 1610.32 1451.13 1611.47 1452.22 1612.62 1452.77 1614.08 1452.77 1615.85 1452.77 1617.62 1452.22 1619.08 1451.13 1620.23 1450.04 1621.38 1448.67 1621.96 1447.02 1621.96 1445.37 1621.96 1444 1621.38 1442.91 1620.23 1441.82 1619.08 1441.27 1617.62 1441.27 1615.85 1441.27 1614.08 1441.82 1612.62 1442.91 1611.47 1444 1610.32 1445.37 1609.74 1447.02 1609.74Z" fill-rule="evenodd"/><text fill="#000000" fill-opacity="0" font-family="Arial,Arial_MSFontService,sans-serif" font-size="35.8027" x="1441.27" y="1641.07">∶</text><path d="M1512.37 1591.91C1517.94 1591.91 1522.15 1593.13 1524.99 1595.57 1527.84 1598.01 1529.26 1601.55 1529.26 1606.19 1529.26 1607.78 1529.1 1609.24 1528.79 1610.57 1528.47 1611.91 1527.98 1613.22 1527.31 1614.53 1526.63 1615.83 1525.73 1617.23 1524.59 1618.73 1523.45 1620.22 1522.19 1621.74 1520.81 1623.29 1519.44 1624.83 1517.06 1627.4 1513.67 1630.99 1507.98 1637.01 1503.8 1642.27 1501.14 1646.76L1518.07 1646.76C1519.54 1646.76 1520.72 1646.67 1521.62 1646.49 1522.52 1646.31 1523.24 1646.01 1523.78 1645.59 1524.32 1645.17 1524.74 1644.62 1525.06 1643.95 1525.37 1643.28 1525.77 1642.24 1526.25 1640.83L1530.07 1640.83 1529.3 1653.95 1492.33 1653.95 1492.33 1651.79C1493.62 1648.64 1495.36 1645.43 1497.54 1642.13 1499.73 1638.84 1502.83 1634.96 1506.84 1630.5 1510.32 1626.66 1512.82 1623.76 1514.35 1621.78 1516.02 1619.62 1517.27 1617.76 1518.1 1616.19 1518.92 1614.62 1519.51 1613.13 1519.87 1611.74 1520.23 1610.35 1520.41 1608.95 1520.41 1607.54 1520.41 1605.29 1520.05 1603.31 1519.33 1601.59 1518.61 1599.87 1517.51 1598.51 1516.03 1597.52 1514.55 1596.54 1512.68 1596.04 1510.44 1596.04 1504.84 1596.04 1501.06 1599.16 1499.12 1605.38L1493.68 1605.38 1493.68 1596.76C1497.31 1595.05 1500.7 1593.82 1503.86 1593.05 1507.02 1592.29 1509.85 1591.91 1512.37 1591.91Z" fill-rule="evenodd"/><text fill="#000000" fill-opacity="0" font-family="Arial,Arial_MSFontService,sans-serif" font-size="62.0371" x="1492.33" y="1646.19">2</text><path d="M2242.65 1617.06C2238.64 1617.18 2235.04 1618.34 2231.87 1620.55 2228.69 1622.75 2226.23 1625.7 2224.48 1629.42 2222.73 1633.13 2221.85 1637.25 2221.85 1641.77 2221.85 1644.11 2222.23 1645.99 2223 1647.41 2223.76 1648.83 2224.71 1649.81 2225.85 1650.35 2226.99 1650.89 2228.22 1651.16 2229.53 1651.16 2232.56 1651.16 2235.18 1650.17 2237.39 1648.2 2239.61 1646.22 2241.4 1643.21 2242.76 1639.17 2244.13 1635.12 2244.81 1631.2 2244.81 1627.4 2244.81 1623.29 2244.09 1619.85 2242.65 1617.06ZM2249.57 1611 2263.85 1611 2262.51 1616.93 2247.82 1616.93 2247.73 1617.29C2249.43 1619.33 2250.66 1621.38 2251.41 1623.44 2252.16 1625.51 2252.53 1627.77 2252.53 1630.23 2252.53 1634.69 2251.58 1638.83 2249.66 1642.65 2247.74 1646.47 2245.06 1649.42 2241.62 1651.52 2238.17 1653.62 2234.28 1654.66 2229.94 1654.66 2225 1654.66 2221.23 1653.34 2218.64 1650.69 2216.05 1648.04 2214.75 1644.29 2214.75 1639.44 2214.75 1636.11 2215.26 1632.96 2216.26 1629.98 2217.26 1627 2218.74 1624.26 2220.71 1621.76 2222.67 1619.26 2224.89 1617.23 2227.38 1615.67 2229.86 1614.11 2232.83 1612.95 2236.27 1612.17 2239.72 1611.39 2244.15 1611 2249.57 1611Z" fill-rule="evenodd"/><text fill="#000000" fill-opacity="0" font-family="Arial,Arial_MSFontService,sans-serif" font-size="43.6641" x="2214.75" y="1649.21">𝜎</text><path d="M2306.29 1633.33C2307.93 1633.33 2309.3 1633.9 2310.4 1635.06 2311.49 1636.21 2312.04 1637.67 2312.04 1639.44 2312.04 1641.2 2311.49 1642.66 2310.4 1643.82 2309.3 1644.97 2307.93 1645.54 2306.29 1645.54 2304.64 1645.54 2303.27 1644.97 2302.18 1643.82 2301.08 1642.66 2300.54 1641.2 2300.54 1639.44 2300.54 1637.67 2301.08 1636.21 2302.18 1635.06 2303.27 1633.9 2304.64 1633.33 2306.29 1633.33ZM2306.29 1609.74C2307.93 1609.74 2309.3 1610.32 2310.4 1611.47 2311.49 1612.62 2312.04 1614.08 2312.04 1615.85 2312.04 1617.62 2311.49 1619.08 2310.4 1620.23 2309.3 1621.38 2307.93 1621.96 2306.29 1621.96 2304.64 1621.96 2303.27 1621.38 2302.18 1620.23 2301.08 1619.08 2300.54 1617.62 2300.54 1615.85 2300.54 1614.08 2301.08 1612.62 2302.18 1611.47 2303.27 1610.32 2304.64 1609.74 2306.29 1609.74Z" fill-rule="evenodd"/><text fill="#000000" fill-opacity="0" font-family="Arial,Arial_MSFontService,sans-serif" font-size="35.8027" x="2300.54" y="1641.07">∶</text><path d="M2362.79 1611 2399.67 1611 2398.36 1616.93 2387.67 1616.93 2382.6 1639.44C2381.94 1642.37 2381.61 1644.59 2381.61 1646.08 2381.61 1647.28 2381.8 1648.15 2382.19 1648.69 2382.58 1649.23 2383.19 1649.5 2384.03 1649.5 2385.83 1649.5 2387.94 1648.06 2390.37 1645.19L2392.97 1647.61C2390.7 1650.1 2388.62 1651.89 2386.75 1653 2384.88 1654.11 2382.88 1654.66 2380.75 1654.66 2378.72 1654.66 2377.12 1653.97 2375.95 1652.58 2374.78 1651.18 2374.2 1649.35 2374.2 1647.07 2374.2 1645.07 2374.61 1642.16 2375.45 1638.36L2376.44 1633.82C2376.95 1631.42 2377.68 1628.53 2378.62 1625.15 2379.56 1621.77 2380.38 1619.16 2381.07 1617.33L2380.84 1616.93 2367.64 1616.93 2362.11 1642.49C2361.66 1644.5 2361.14 1646.66 2360.54 1648.98 2359.94 1651.3 2359.48 1652.96 2359.15 1653.95L2349.62 1653.95 2350.07 1651.74C2353.25 1648.6 2356.18 1641.23 2358.88 1629.64L2361.84 1616.93 2360.4 1616.93C2358.28 1616.93 2356.48 1617.29 2355.01 1618.01 2353.55 1618.73 2351.94 1620.16 2350.21 1622.32L2347.38 1619.94C2348.93 1618.05 2350.21 1616.62 2351.2 1615.63 2352.18 1614.64 2353.22 1613.8 2354.32 1613.11 2355.41 1612.42 2356.64 1611.9 2358 1611.54 2359.36 1611.18 2360.96 1611 2362.79 1611Z" fill-rule="evenodd"/><text fill="#000000" fill-opacity="0" font-family="Arial,Arial_MSFontService,sans-serif" font-size="43.6641" x="2347.38" y="1649.21">𝜋</text><path d="M2434.36 1634 2489.7 1634 2489.7 1639.97 2434.36 1639.97ZM2434.36 1615.36 2489.7 1615.36 2489.7 1621.33 2434.36 1621.33Z" fill-rule="evenodd"/><text fill="#000000" fill-opacity="0" font-family="Arial,Arial_MSFontService,sans-serif" font-size="24.6172" x="2434.36" y="1636.9">=</text><path d="M2547.52 1591.91C2550.91 1591.91 2553.87 1592.43 2556.42 1593.48 2558.96 1594.53 2560.91 1596.03 2562.26 1597.99 2563.61 1599.96 2564.28 1602.3 2564.28 1605.03 2564.28 1607.57 2563.77 1609.81 2562.75 1611.74 2561.73 1613.67 2560.3 1615.36 2558.46 1616.79 2556.62 1618.23 2554.23 1619.64 2551.3 1621.02L2551.3 1621.42C2553.12 1621.75 2554.88 1622.31 2556.58 1623.11 2558.27 1623.9 2559.77 1624.93 2561.09 1626.18 2562.41 1627.44 2563.46 1628.95 2564.26 1630.7 2565.05 1632.45 2565.45 1634.45 2565.45 1636.7 2565.45 1640.17 2564.69 1643.25 2563.18 1645.95 2561.67 1648.64 2559.35 1650.77 2556.24 1652.33 2553.12 1653.89 2549.34 1654.66 2544.87 1654.66 2542.3 1654.66 2539.52 1654.37 2536.54 1653.79 2533.56 1653.2 2530.83 1652.43 2528.34 1651.47L2528.34 1641.95 2533.73 1641.95C2534.78 1645.07 2536.17 1647.33 2537.89 1648.73 2539.61 1650.14 2541.95 1650.85 2544.92 1650.85 2548.81 1650.85 2551.75 1649.78 2553.75 1647.66 2555.74 1645.53 2556.73 1642.39 2556.73 1638.22 2556.73 1633.85 2555.42 1630.51 2552.78 1628.2 2550.14 1625.9 2546.28 1624.75 2541.19 1624.75L2537.15 1624.75 2537.15 1620.79C2541.19 1620.55 2544.6 1619.77 2547.37 1618.46 2550.14 1617.14 2552.2 1615.45 2553.54 1613.38 2554.89 1611.31 2555.56 1608.99 2555.56 1606.42 2555.56 1603.09 2554.68 1600.53 2552.91 1598.74 2551.15 1596.94 2548.57 1596.04 2545.19 1596.04 2542.37 1596.04 2540.08 1596.8 2538.31 1598.33 2536.55 1599.86 2535.25 1602.2 2534.41 1605.34L2529.02 1605.34 2529.02 1596.8C2532.49 1595.16 2535.74 1593.93 2538.76 1593.12 2541.79 1592.31 2544.71 1591.91 2547.52 1591.91Z" fill-rule="evenodd"/><text fill="#000000" fill-opacity="0" font-family="Arial,Arial_MSFontService,sans-serif" font-size="62.7559" x="2528.34" y="1646.82">3</text><path d="M2612.34 1633.33C2613.99 1633.33 2615.36 1633.9 2616.45 1635.06 2617.54 1636.21 2618.09 1637.67 2618.09 1639.44 2618.09 1641.2 2617.54 1642.66 2616.45 1643.82 2615.36 1644.97 2613.99 1645.54 2612.34 1645.54 2610.69 1645.54 2609.32 1644.97 2608.23 1643.82 2607.14 1642.66 2606.59 1641.2 2606.59 1639.44 2606.59 1637.67 2607.14 1636.21 2608.23 1635.06 2609.32 1633.9 2610.69 1633.33 2612.34 1633.33ZM2612.34 1609.74C2613.99 1609.74 2615.36 1610.32 2616.45 1611.47 2617.54 1612.62 2618.09 1614.08 2618.09 1615.85 2618.09 1617.62 2617.54 1619.08 2616.45 1620.23 2615.36 1621.38 2613.99 1621.96 2612.34 1621.96 2610.69 1621.96 2609.32 1621.38 2608.23 1620.23 2607.14 1619.08 2606.59 1617.62 2606.59 1615.85 2606.59 1614.08 2607.14 1612.62 2608.23 1611.47 2609.32 1610.32 2610.69 1609.74 2612.34 1609.74Z" fill-rule="evenodd"/><text fill="#000000" fill-opacity="0" font-family="Arial,Arial_MSFontService,sans-serif" font-size="35.8027" x="2606.59" y="1641.07">∶</text><path d="M2677.69 1591.91C2683.26 1591.91 2687.47 1593.13 2690.31 1595.57 2693.16 1598.01 2694.58 1601.55 2694.58 1606.19 2694.58 1607.78 2694.42 1609.24 2694.11 1610.57 2693.79 1611.91 2693.3 1613.22 2692.62 1614.53 2691.95 1615.83 2691.04 1617.23 2689.91 1618.73 2688.77 1620.22 2687.51 1621.74 2686.13 1623.29 2684.75 1624.83 2682.37 1627.4 2678.99 1630.99 2673.3 1637.01 2669.12 1642.27 2666.46 1646.76L2683.39 1646.76C2684.86 1646.76 2686.04 1646.67 2686.94 1646.49 2687.84 1646.31 2688.56 1646.01 2689.1 1645.59 2689.64 1645.17 2690.06 1644.62 2690.38 1643.95 2690.69 1643.28 2691.09 1642.24 2691.57 1640.83L2695.39 1640.83 2694.62 1653.95 2657.65 1653.95 2657.65 1651.79C2658.94 1648.64 2660.68 1645.43 2662.86 1642.13 2665.05 1638.84 2668.15 1634.96 2672.16 1630.5 2675.64 1626.66 2678.14 1623.76 2679.66 1621.78 2681.34 1619.62 2682.59 1617.76 2683.41 1616.19 2684.24 1614.62 2684.83 1613.13 2685.19 1611.74 2685.55 1610.35 2685.73 1608.95 2685.73 1607.54 2685.73 1605.29 2685.37 1603.31 2684.65 1601.59 2683.93 1599.87 2682.83 1598.51 2681.35 1597.52 2679.87 1596.54 2678 1596.04 2675.76 1596.04 2670.16 1596.04 2666.38 1599.16 2664.44 1605.38L2659 1605.38 2659 1596.76C2662.62 1595.05 2666.01 1593.82 2669.17 1593.05 2672.33 1592.29 2675.17 1591.91 2677.69 1591.91Z" fill-rule="evenodd"/><text fill="#000000" fill-opacity="0" font-family="Arial,Arial_MSFontService,sans-serif" font-size="62.0371" x="2657.65" y="1646.19">2</text></g></svg>