<?xml version="1.0" standalone='no'?><!-- IBoard SVG File --><svg xmlns="http://www.w3.org/2000/svg" xmlns:xlink="http://www.w3.org/1999/xlink" viewBox="217.57 175.24 170.60 124.59" height="117.59" width="177.60" version="1.1"><!-- SVG File --><text xml:space="preserve" x="235.682144" y="272.892090" textLength="19.500000" lengthAdjust="spacingAndGlyphs"><tspan font-family="Arial" font-weight="normal" baseline-shift="0" font-size="13" fill="#000000">H</tspan><tspan font-family="Arial" font-weight="normal" baseline-shift="0" font-size="13" fill="#000000">O</tspan></text><polygon points="256.067200,263.526337 267.245972,257.091064 267.540131,257.602051 267.834290,258.113037 256.655518,264.548309 256.361359,264.037323 " style="fill:rgb(0,0,0);fill-opacity:1.000000"/><text xml:space="preserve" x="268.719330" y="259.692627" textLength="8.670000" lengthAdjust="spacingAndGlyphs"><tspan font-family="Arial" font-weight="normal" baseline-shift="0" font-size="13" fill="#000000">B</tspan></text><polygon points="278.863983,257.110291 290.009583,263.563904 289.714142,264.074158 289.418701,264.584412 278.273102,258.130798 278.568542,257.620544 " style="fill:rgb(0,0,0);fill-opacity:1.000000"/><text xml:space="preserve" x="290.893341" y="272.949860" textLength="10.113334" lengthAdjust="spacingAndGlyphs"><tspan font-family="Arial" font-weight="normal" baseline-shift="0" font-size="13" fill="#000000">O</tspan></text><polygon points="301.891724,263.584167 313.070313,257.149048 313.364471,257.660034 313.658630,258.171021 302.480042,264.606140 302.185883,264.095154 " style="fill:rgb(0,0,0);fill-opacity:1.000000"/><text xml:space="preserve" x="314.543671" y="259.750641" textLength="8.670000" lengthAdjust="spacingAndGlyphs"><tspan font-family="Arial" font-weight="normal" baseline-shift="0" font-size="13" fill="#000000">B</tspan></text><polygon points="335.242981,264.642334 324.097443,258.188782 324.392883,257.678528 324.688324,257.168274 335.833862,263.621826 335.538422,264.132080 " style="fill:rgb(0,0,0);fill-opacity:1.000000"/><text xml:space="preserve" x="336.717621" y="273.007751" textLength="19.500000" lengthAdjust="spacingAndGlyphs"><tspan font-family="Arial" font-weight="normal" baseline-shift="0" font-size="13" fill="#000000">O</tspan><tspan font-family="Arial" font-weight="normal" baseline-shift="0" font-size="13" fill="#000000">H</tspan></text><polygon points="318.297363,247.927948 318.314178,234.585159 318.903778,234.585907 319.493378,234.586655 319.476563,247.929443 318.886963,247.928696 " style="fill:rgb(0,0,0);fill-opacity:1.000000"/><text xml:space="preserve" x="313.855377" y="233.293869" textLength="10.113334" lengthAdjust="spacingAndGlyphs"><tspan font-family="Arial" font-weight="normal" baseline-shift="0" font-size="13" fill="#000000">O</tspan></text><polygon points="301.826294,217.454285 312.971619,223.907867 312.676178,224.418106 312.380737,224.928345 301.235413,218.474762 301.530853,217.964523 " style="fill:rgb(0,0,0);fill-opacity:1.000000"/><text xml:space="preserve" x="291.681641" y="220.036545" textLength="8.670000" lengthAdjust="spacingAndGlyphs"><tspan font-family="Arial" font-weight="normal" baseline-shift="0" font-size="13" fill="#000000">B</tspan></text><polygon points="290.796600,218.456955 279.617859,224.892227 279.323700,224.381241 279.029541,223.870255 290.208282,217.434982 290.502441,217.945969 " style="fill:rgb(0,0,0);fill-opacity:1.000000"/><text xml:space="preserve" x="268.031158" y="233.236008" textLength="10.113334" lengthAdjust="spacingAndGlyphs"><tspan font-family="Arial" font-weight="normal" baseline-shift="0" font-size="13" fill="#000000">O</tspan></text><polygon points="272.473053,247.869934 272.489929,234.527298 273.079529,234.528046 273.669128,234.528793 273.652252,247.871429 273.062653,247.870682 " style="fill:rgb(0,0,0);fill-opacity:1.000000"/><polygon points="296.631317,194.872681 296.614502,208.215347 296.024902,208.214600 295.435303,208.213852 295.452118,194.871185 296.041718,194.871933 " style="fill:rgb(0,0,0);fill-opacity:1.000000"/><text xml:space="preserve" x="290.993286" y="193.579895" textLength="19.500000" lengthAdjust="spacingAndGlyphs"><tspan font-family="Arial" font-weight="normal" baseline-shift="0" font-size="13" fill="#000000">O</tspan><tspan font-family="Arial" font-weight="normal" baseline-shift="0" font-size="13" fill="#000000">H</tspan></text><line x1="223.23529" y1="180.91333" x2="229.72095" y2="180.91333" style="stroke:rgb(0,0,0);stroke-width:1.179213;stroke-opacity:1.000000" stroke-linecap="butt"/><line x1="223.82489" y1="180.91333" x2="223.82489" y2="284.16333" style="stroke:rgb(0,0,0);stroke-width:1.179213;stroke-opacity:1.000000" stroke-linecap="butt"/><line x1="223.23529" y1="284.16333" x2="229.72095" y2="284.16333" style="stroke:rgb(0,0,0);stroke-width:1.179213;stroke-opacity:1.000000" stroke-linecap="butt"/><line x1="368.66449" y1="180.91333" x2="362.17883" y2="180.91333" style="stroke:rgb(0,0,0);stroke-width:1.179213;stroke-opacity:1.000000" stroke-linecap="butt"/><line x1="368.07489" y1="180.91333" x2="368.07489" y2="284.16333" style="stroke:rgb(0,0,0);stroke-width:1.179213;stroke-opacity:1.000000" stroke-linecap="butt"/><line x1="368.66449" y1="284.16333" x2="362.17883" y2="284.16333" style="stroke:rgb(0,0,0);stroke-width:1.179213;stroke-opacity:1.000000" stroke-linecap="butt"/><text xml:space="preserve" x="374.333771" y="187.194031" textLength="10.830000" lengthAdjust="spacingAndGlyphs"><tspan font-family="Times New Roman" font-weight="normal" baseline-shift="0" font-size="13" fill="#000000">3-</tspan></text></svg>