<?xml version="1.0" standalone='no'?><!-- IBoard SVG File --><svg xmlns="http://www.w3.org/2000/svg" xmlns:xlink="http://www.w3.org/1999/xlink" viewBox="266.02 193.32 92.73 67.16" height="60.16" width="99.73" version="1.1"><!-- SVG File --><polygon points="311.035126,244.227173 319.969299,228.752762 320.479919,229.047562 320.990540,229.342361 311.715973,245.406372 311.375549,244.816772 " style="fill:rgb(0,0,0);fill-opacity:1.000000"/><text xml:space="preserve" x="319.910583" y="227.797180" textLength="9.386666" lengthAdjust="spacingAndGlyphs"><tspan font-family="Symbol" font-weight="normal" baseline-shift="0" font-size="13" fill="#000000">N</tspan></text><polygon points="311.715973,198.402832 320.990540,214.466843 320.479919,214.761642 319.969299,215.056442 311.035126,199.582031 311.375549,198.992432 " style="fill:rgb(0,0,0);fill-opacity:1.000000"/><polygon points="284.578491,198.402832 311.715973,198.402832 311.375549,198.992432 311.035126,199.582031 285.259277,199.582031 284.918884,198.992432 " style="fill:rgb(0,0,0);fill-opacity:1.000000"/><polygon points="271.009705,221.904602 284.578491,198.402832 284.918884,198.992432 285.259277,199.582031 272.371338,221.904602 271.690521,221.904602 " style="fill:rgb(0,0,0);fill-opacity:1.000000"/><polygon points="272.371338,221.904602 285.259277,244.227173 284.918884,244.816772 284.578491,245.406372 271.009705,221.904602 271.690521,221.904602 " style="fill:rgb(0,0,0);fill-opacity:1.000000"/><polygon points="285.259277,244.227173 311.035126,244.227173 311.375549,244.816772 311.715973,245.406372 284.578491,245.406372 284.918884,244.816772 " style="fill:rgb(0,0,0);fill-opacity:1.000000"/><polygon points="330.476440,221.315002 345.188080,221.315002 345.188080,221.904602 345.188080,222.494202 330.476440,222.494202 330.476440,221.904602 " style="fill:rgb(0,0,0);fill-opacity:1.000000"/><text xml:space="preserve" x="346.367279" y="227.018799" textLength="9.386666" lengthAdjust="spacingAndGlyphs"><tspan font-family="Times New Roman" font-weight="normal" baseline-shift="0" font-size="13" fill="#000000">H</tspan></text></svg>