<svg width="71" height="105" xmlns="http://www.w3.org/2000/svg" xmlns:xlink="http://www.w3.org/1999/xlink" xml:space="preserve" overflow="hidden"><g transform="translate(-2855 -1219)"><path d="M2880.5 1245.5C2882.71 1245.5 2884.5 1247.29 2884.5 1249.5 2884.5 1251.71 2882.71 1253.5 2880.5 1253.5 2878.29 1253.5 2876.5 1251.71 2876.5 1249.5 2876.5 1247.29 2878.29 1245.5 2880.5 1245.5Z" stroke="#000000" stroke-width="4.58333" stroke-miterlimit="8" fill-rule="evenodd"/><path d="M2901.5 1245.5C2903.71 1245.5 2905.5 1247.29 2905.5 1249.5 2905.5 1251.71 2903.71 1253.5 2901.5 1253.5 2899.29 1253.5 2897.5 1251.71 2897.5 1249.5 2897.5 1247.29 2899.29 1245.5 2901.5 1245.5Z" stroke="#000000" stroke-width="4.58333" stroke-miterlimit="8" fill-rule="evenodd"/><path d="M2892.08 1321.5C2874.76 1295.68 2857.43 1269.86 2857.5 1253.19 2857.57 1236.52 2886.04 1226.37 2892.5 1221.5" stroke="#172C51" stroke-width="4.58333" stroke-miterlimit="8" fill="none" fill-rule="evenodd"/><path d="M32.6072 101C16.2708 74.9201-0.0653315 48.8403 0.000164979 32.007 0.0656615 15.1737 26.9108 4.91966 33 0" stroke="#172C51" stroke-width="4.58333" stroke-miterlimit="8" fill="none" fill-rule="evenodd" transform="matrix(-1 0 0 1 2923.5 1221.5)"/></g></svg>