<svg width="852" height="484" xmlns="http://www.w3.org/2000/svg" xmlns:xlink="http://www.w3.org/1999/xlink" xml:space="preserve" overflow="hidden"><g transform="translate(-1492 -1623)"><path d="M1584.5 1967.5 1495.5 1916.5" stroke="#000000" stroke-width="6.875" stroke-linecap="round" stroke-miterlimit="8" fill="none" fill-rule="evenodd"/><path d="M1495.5 1916.5 1495.5 1812.5" stroke="#000000" stroke-width="6.875" stroke-linecap="round" stroke-miterlimit="8" fill="none" fill-rule="evenodd"/><path d="M1508.5 1903.5 1508.5 1825.5" stroke="#000000" stroke-width="6.875" stroke-linecap="round" stroke-miterlimit="8" fill="none" fill-rule="evenodd"/><path d="M1495.5 1812.5 1559.5 1775.5" stroke="#000000" stroke-width="6.875" stroke-linecap="round" stroke-miterlimit="8" fill="none" fill-rule="evenodd"/><path d="M1609.5 1775.5 1673.5 1812.5" stroke="#000000" stroke-width="6.875" stroke-linecap="round" stroke-miterlimit="8" fill="none" fill-rule="evenodd"/><path d="M1610.5 1792.5 1658.5 1820.5" stroke="#000000" stroke-width="6.875" stroke-linecap="round" stroke-miterlimit="8" fill="none" fill-rule="evenodd"/><path d="M1673.5 1812.5 1673.5 1916.5" stroke="#000000" stroke-width="6.875" stroke-linecap="round" stroke-miterlimit="8" fill="none" fill-rule="evenodd"/><path d="M1673.5 1916.5 1584.5 1967.5" stroke="#000000" stroke-width="6.875" stroke-linecap="round" stroke-miterlimit="8" fill="none" fill-rule="evenodd"/><path d="M1655.5 1910.5 1588.5 1949.5" stroke="#000000" stroke-width="6.875" stroke-linecap="round" stroke-miterlimit="8" fill="none" fill-rule="evenodd"/><path d="M1571.92 1743.62 1578.06 1743.62 1595.35 1768.14 1595.31 1745.38 1590.5 1744.89 1590.5 1743.62 1600.88 1743.62 1600.88 1744.89 1597.03 1745.38 1596.99 1773.71 1595.72 1773.71 1577.41 1747.92 1577.49 1771.58 1582.29 1772.07 1582.29 1773.38 1571.92 1773.38 1571.92 1772.09 1575.77 1771.64 1575.86 1745.72 1575.53 1745.27 1571.92 1744.9Z" stroke="#3050F8" stroke-width="3" stroke-miterlimit="8" fill="#3050F8" fill-rule="evenodd"/><text fill="#000000" fill-opacity="0" font-family="Arial,Arial_MSFontService,sans-serif" font-size="30.0889" x="1571.92" y="1769.95">N</text><path d="M2110.5 1964.5 2020.5 1912.5" stroke="#000000" stroke-width="6.875" stroke-linecap="round" stroke-miterlimit="8" fill="none" fill-rule="evenodd"/><path d="M2020.5 1912.5 2020.5 1809.5" stroke="#000000" stroke-width="6.875" stroke-linecap="round" stroke-miterlimit="8" fill="none" fill-rule="evenodd"/><path d="M2020.5 1809.5 2085.5 1772.5" stroke="#000000" stroke-width="6.875" stroke-linecap="round" stroke-miterlimit="8" fill="none" fill-rule="evenodd"/><path d="M2135.5 1772.5 2199.5 1809.5" stroke="#000000" stroke-width="6.875" stroke-linecap="round" stroke-miterlimit="8" fill="none" fill-rule="evenodd"/><path d="M2199.5 1809.5 2199.5 1912.5" stroke="#000000" stroke-width="6.875" stroke-linecap="round" stroke-miterlimit="8" fill="none" fill-rule="evenodd"/><path d="M2199.5 1912.5 2110.5 1964.5" stroke="#000000" stroke-width="6.875" stroke-linecap="round" stroke-miterlimit="8" fill="none" fill-rule="evenodd"/><path d="M2020.5 1809.5 1956.5 1772.5" stroke="#000000" stroke-width="6.875" stroke-linecap="round" stroke-miterlimit="8" fill="none" fill-rule="evenodd"/><path d="M2020.5 1912.5 1956.5 1949.5" stroke="#000000" stroke-width="6.875" stroke-linecap="round" stroke-miterlimit="8" fill="none" fill-rule="evenodd"/><path d="M2110.5 1964.5 2110.5 2038.5" stroke="#000000" stroke-width="6.875" stroke-linecap="round" stroke-miterlimit="8" fill="none" fill-rule="evenodd"/><path d="M2199.5 1912.5 2263.5 1949.5" stroke="#000000" stroke-width="6.875" stroke-linecap="round" stroke-miterlimit="8" fill="none" fill-rule="evenodd"/><path d="M2199.5 1809.5 2263.5 1772.5" stroke="#000000" stroke-width="6.875" stroke-linecap="round" stroke-miterlimit="8" fill="none" fill-rule="evenodd"/><path d="M2097.63 1740.28 2103.78 1740.28 2121.06 1764.79 2121.02 1742.03 2116.21 1741.54 2116.21 1740.28 2126.59 1740.28 2126.59 1741.54 2122.74 1742.03 2122.7 1770.36 2121.43 1770.36 2103.12 1744.58 2103.2 1768.24 2108 1768.73 2108 1770.04 2097.63 1770.04 2097.63 1768.75 2101.49 1768.3 2101.57 1742.38 2101.24 1741.93 2097.63 1741.56Z" stroke="#3050F8" stroke-width="3" stroke-miterlimit="8" fill="#3050F8" fill-rule="evenodd"/><text fill="#000000" fill-opacity="0" font-family="Arial,Arial_MSFontService,sans-serif" font-size="30.0889" x="2097.63" y="1766.6">N</text><path d="M1907.65 1745.43 1919.54 1745.43 1919.54 1746.7 1915.15 1747.11C1915.13 1749.06 1915.12 1751.02 1915.11 1752.99 1915.11 1754.96 1915.11 1756.95 1915.11 1758.96L1930.81 1758.96C1930.82 1756.97 1930.81 1754.99 1930.8 1753 1930.8 1751.02 1930.77 1749.06 1930.73 1747.11L1926.39 1746.7 1926.39 1745.43 1938.27 1745.43 1938.27 1746.7 1933.88 1747.11C1933.85 1751.05 1933.84 1755.07 1933.84 1759.17L1933.84 1761.46C1933.84 1763.45 1933.84 1765.45 1933.85 1767.45 1933.85 1769.46 1933.86 1771.47 1933.88 1773.48L1938.27 1773.89 1938.27 1775.19 1926.39 1775.19 1926.39 1773.89 1930.73 1773.48C1930.77 1771.54 1930.8 1769.51 1930.8 1767.39 1930.81 1765.27 1930.82 1762.96 1930.81 1760.47L1915.11 1760.47C1915.11 1762.94 1915.11 1765.24 1915.11 1767.36 1915.12 1769.48 1915.13 1771.52 1915.15 1773.48L1919.54 1773.89 1919.54 1775.19 1907.65 1775.19 1907.65 1773.89 1912.04 1773.48C1912.06 1771.5 1912.07 1769.51 1912.07 1767.5 1912.08 1765.49 1912.08 1763.47 1912.08 1761.46L1912.08 1759.17C1912.08 1755.11 1912.07 1751.09 1912.04 1747.11L1907.65 1746.7Z" stroke="#909090" stroke-width="3" stroke-miterlimit="8" fill="#909090" fill-rule="evenodd"/><text fill="#000000" fill-opacity="0" font-family="Arial,Arial_MSFontService,sans-serif" font-size="29.7609" x="1907.65" y="1771.47">H</text><path d="M1915.51 1940.17 1927.4 1940.17 1927.4 1941.44 1923.01 1941.85C1922.99 1943.8 1922.98 1945.76 1922.97 1947.73 1922.97 1949.7 1922.97 1951.69 1922.97 1953.7L1938.68 1953.7C1938.68 1951.71 1938.68 1949.72 1938.67 1947.74 1938.66 1945.76 1938.63 1943.8 1938.59 1941.85L1934.25 1941.44 1934.25 1940.17 1946.13 1940.17 1946.13 1941.44 1941.75 1941.85C1941.71 1945.79 1941.7 1949.8 1941.71 1953.91L1941.71 1956.2C1941.7 1958.19 1941.71 1960.19 1941.71 1962.19 1941.72 1964.2 1941.73 1966.21 1941.75 1968.22L1946.13 1968.62 1946.13 1969.93 1934.25 1969.93 1934.25 1968.62 1938.59 1968.22C1938.63 1966.28 1938.66 1964.25 1938.67 1962.13 1938.68 1960.01 1938.68 1957.7 1938.68 1955.21L1922.97 1955.21C1922.97 1957.68 1922.97 1959.98 1922.97 1962.1 1922.98 1964.22 1922.99 1966.26 1923.01 1968.22L1927.4 1968.62 1927.4 1969.93 1915.51 1969.93 1915.51 1968.62 1919.9 1968.22C1919.92 1966.24 1919.93 1964.25 1919.93 1962.24 1919.94 1960.22 1919.94 1958.21 1919.94 1956.2L1919.94 1953.91C1919.95 1949.85 1919.93 1945.83 1919.9 1941.85L1915.51 1941.44Z" stroke="#909090" stroke-width="3" stroke-miterlimit="8" fill="#909090" fill-rule="evenodd"/><text fill="#000000" fill-opacity="0" font-family="Arial,Arial_MSFontService,sans-serif" font-size="29.7609" x="1915.51" y="1966.21">H</text><path d="M2092.52 2050.76 2104.41 2050.76 2104.41 2052.03 2100.02 2052.44C2100 2054.39 2099.99 2056.35 2099.98 2058.32 2099.98 2060.29 2099.98 2062.28 2099.98 2064.29L2115.69 2064.29C2115.69 2062.3 2115.68 2060.31 2115.68 2058.33 2115.67 2056.35 2115.64 2054.39 2115.6 2052.44L2111.26 2052.03 2111.26 2050.76 2123.14 2050.76 2123.14 2052.03 2118.76 2052.44C2118.72 2056.38 2118.71 2060.4 2118.71 2064.5L2118.71 2066.79C2118.71 2068.78 2118.72 2070.78 2118.72 2072.78 2118.72 2074.79 2118.74 2076.79 2118.76 2078.81L2123.14 2079.22 2123.14 2080.52 2111.26 2080.52 2111.26 2079.22 2115.6 2078.81C2115.64 2076.87 2115.67 2074.84 2115.68 2072.72 2115.68 2070.6 2115.69 2068.29 2115.69 2065.8L2099.98 2065.8C2099.98 2068.27 2099.98 2070.57 2099.98 2072.69 2099.99 2074.81 2100 2076.85 2100.02 2078.81L2104.41 2079.22 2104.41 2080.52 2092.52 2080.52 2092.52 2079.22 2096.91 2078.81C2096.93 2076.83 2096.94 2074.84 2096.94 2072.83 2096.95 2070.81 2096.95 2068.8 2096.95 2066.79L2096.95 2064.5C2096.96 2060.44 2096.94 2056.42 2096.91 2052.44L2092.52 2052.03Z" stroke="#909090" stroke-width="3" stroke-miterlimit="8" fill="#909090" fill-rule="evenodd"/><text fill="#000000" fill-opacity="0" font-family="Arial,Arial_MSFontService,sans-serif" font-size="29.761" x="2092.52" y="2076.8">H</text><path d="M2276.62 1946.53 2288.5 1946.53 2288.5 1947.79 2284.12 1948.2C2284.1 1950.15 2284.08 1952.11 2284.08 1954.08 2284.08 1956.06 2284.07 1958.05 2284.08 1960.06L2299.78 1960.06C2299.79 1958.06 2299.78 1956.08 2299.77 1954.1 2299.76 1952.12 2299.74 1950.15 2299.7 1948.2L2295.35 1947.79 2295.35 1946.53 2307.24 1946.53 2307.24 1947.79 2302.85 1948.2C2302.82 1952.14 2302.81 1956.16 2302.81 1960.26L2302.81 1962.55C2302.81 1964.54 2302.81 1966.54 2302.82 1968.55 2302.82 1970.55 2302.83 1972.56 2302.85 1974.57L2307.24 1974.98 2307.24 1976.29 2295.35 1976.29 2295.35 1974.98 2299.7 1974.57C2299.74 1972.64 2299.76 1970.61 2299.77 1968.48 2299.78 1966.36 2299.79 1964.05 2299.78 1961.57L2284.08 1961.57C2284.07 1964.03 2284.08 1966.33 2284.08 1968.45 2284.08 1970.58 2284.1 1972.62 2284.12 1974.57L2288.5 1974.98 2288.5 1976.29 2276.62 1976.29 2276.62 1974.98 2281.01 1974.57C2281.03 1972.6 2281.04 1970.6 2281.04 1968.59 2281.05 1966.58 2281.05 1964.57 2281.05 1962.55L2281.05 1960.26C2281.05 1956.2 2281.04 1952.18 2281.01 1948.2L2276.62 1947.79Z" stroke="#909090" stroke-width="3" stroke-miterlimit="8" fill="#909090" fill-rule="evenodd"/><text fill="#000000" fill-opacity="0" font-family="Arial,Arial_MSFontService,sans-serif" font-size="29.7609" x="2276.62" y="1972.57">H</text><path d="M2276.62 1745.43 2288.5 1745.43 2288.5 1746.7 2284.12 1747.11C2284.1 1749.06 2284.08 1751.02 2284.08 1752.99 2284.08 1754.96 2284.07 1756.95 2284.08 1758.96L2299.78 1758.96C2299.79 1756.97 2299.78 1754.99 2299.77 1753 2299.76 1751.02 2299.74 1749.06 2299.7 1747.11L2295.35 1746.7 2295.35 1745.43 2307.24 1745.43 2307.24 1746.7 2302.85 1747.11C2302.82 1751.05 2302.81 1755.07 2302.81 1759.17L2302.81 1761.46C2302.81 1763.45 2302.81 1765.45 2302.82 1767.45 2302.82 1769.46 2302.83 1771.47 2302.85 1773.48L2307.24 1773.89 2307.24 1775.19 2295.35 1775.19 2295.35 1773.89 2299.7 1773.48C2299.74 1771.54 2299.76 1769.51 2299.77 1767.39 2299.78 1765.27 2299.79 1762.96 2299.78 1760.47L2284.08 1760.47C2284.07 1762.94 2284.08 1765.24 2284.08 1767.36 2284.08 1769.48 2284.1 1771.52 2284.12 1773.48L2288.5 1773.89 2288.5 1775.19 2276.62 1775.19 2276.62 1773.89 2281.01 1773.48C2281.03 1771.5 2281.04 1769.51 2281.04 1767.5 2281.05 1765.49 2281.05 1763.47 2281.05 1761.46L2281.05 1759.17C2281.05 1755.11 2281.04 1751.09 2281.01 1747.11L2276.62 1746.7Z" stroke="#909090" stroke-width="3" stroke-miterlimit="8" fill="#909090" fill-rule="evenodd"/><text fill="#000000" fill-opacity="0" font-family="Arial,Arial_MSFontService,sans-serif" font-size="29.7609" x="2276.62" y="1771.47">H</text><path d="M2099.5 1650.5C2101.71 1650.5 2103.5 1652.29 2103.5 1654.5 2103.5 1656.71 2101.71 1658.5 2099.5 1658.5 2097.29 1658.5 2095.5 1656.71 2095.5 1654.5 2095.5 1652.29 2097.29 1650.5 2099.5 1650.5Z" stroke="#000000" stroke-width="4.58333" stroke-miterlimit="8" fill-rule="evenodd"/><path d="M2121 1649.5C2122.93 1649.5 2124.5 1651.29 2124.5 1653.5 2124.5 1655.71 2122.93 1657.5 2121 1657.5 2119.07 1657.5 2117.5 1655.71 2117.5 1653.5 2117.5 1651.29 2119.07 1649.5 2121 1649.5Z" stroke="#000000" stroke-width="4.58333" stroke-miterlimit="8" fill-rule="evenodd"/><path d="M2111.08 1725.5C2093.76 1699.68 2076.43 1673.86 2076.5 1657.19 2076.57 1640.52 2105.04 1630.37 2111.5 1625.5" stroke="#172C51" stroke-width="4.58333" stroke-miterlimit="8" fill="none" fill-rule="evenodd"/><path d="M31.6191 101C15.7778 74.9201-0.0633517 48.8403 0.000159979 32.007 0.0636717 15.1737 26.0953 4.91966 32 0" stroke="#172C51" stroke-width="4.58333" stroke-miterlimit="8" fill="none" fill-rule="evenodd" transform="matrix(-1 0 0 1 2142.5 1625.5)"/><path d="M2106.5 1786.5C2106.5 1784.29 2108.07 1782.5 2110 1782.5 2111.93 1782.5 2113.5 1784.29 2113.5 1786.5 2113.5 1788.71 2111.93 1790.5 2110 1790.5 2108.07 1790.5 2106.5 1788.71 2106.5 1786.5Z" stroke="#000000" stroke-width="4.58333" stroke-miterlimit="8" fill-rule="evenodd"/><path d="M2106.5 1945.5C2106.5 1943.29 2108.07 1941.5 2110 1941.5 2111.93 1941.5 2113.5 1943.29 2113.5 1945.5 2113.5 1947.71 2111.93 1949.5 2110 1949.5 2108.07 1949.5 2106.5 1947.71 2106.5 1945.5Z" stroke="#000000" stroke-width="4.58333" stroke-miterlimit="8" fill-rule="evenodd"/><path d="M2180.5 1903.5C2180.5 1901.29 2182.07 1899.5 2184 1899.5 2185.93 1899.5 2187.5 1901.29 2187.5 1903.5 2187.5 1905.71 2185.93 1907.5 2184 1907.5 2182.07 1907.5 2180.5 1905.71 2180.5 1903.5Z" stroke="#000000" stroke-width="4.58333" stroke-miterlimit="8" fill-rule="evenodd"/><path d="M2181.5 1818C2181.5 1816.07 2183.29 1814.5 2185.5 1814.5 2187.71 1814.5 2189.5 1816.07 2189.5 1818 2189.5 1819.93 2187.71 1821.5 2185.5 1821.5 2183.29 1821.5 2181.5 1819.93 2181.5 1818Z" stroke="#000000" stroke-width="4.58333" stroke-miterlimit="8" fill-rule="evenodd"/><path d="M2029.5 1818.5C2029.5 1816.29 2031.29 1814.5 2033.5 1814.5 2035.71 1814.5 2037.5 1816.29 2037.5 1818.5 2037.5 1820.71 2035.71 1822.5 2033.5 1822.5 2031.29 1822.5 2029.5 1820.71 2029.5 1818.5Z" stroke="#000000" stroke-width="4.58333" stroke-miterlimit="8" fill-rule="evenodd"/><path d="M2029.5 1900.5C2029.5 1898.29 2031.29 1896.5 2033.5 1896.5 2035.71 1896.5 2037.5 1898.29 2037.5 1900.5 2037.5 1902.71 2035.71 1904.5 2033.5 1904.5 2031.29 1904.5 2029.5 1902.71 2029.5 1900.5Z" stroke="#000000" stroke-width="4.58333" stroke-miterlimit="8" fill-rule="evenodd"/></g></svg>