<svg width="919" height="455" xmlns="http://www.w3.org/2000/svg" xmlns:xlink="http://www.w3.org/1999/xlink" xml:space="preserve" overflow="hidden"><g transform="translate(-1381 -1031)"><path d="M2000.5 1309.5 2098.5 1341.5" stroke="#000000" stroke-width="6.875" stroke-linecap="round" stroke-miterlimit="8" fill="none" fill-rule="evenodd"/><path d="M2098.5 1341.5 2142.5 1281.5" stroke="#000000" stroke-width="6.875" stroke-linecap="round" stroke-miterlimit="8" fill="none" fill-rule="evenodd"/><path d="M2142.5 1234.5 2098.5 1174.5" stroke="#000000" stroke-width="6.875" stroke-linecap="round" stroke-miterlimit="8" fill="none" fill-rule="evenodd"/><path d="M2098.5 1174.5 2028.5 1197.5" stroke="#000000" stroke-width="6.875" stroke-linecap="round" stroke-miterlimit="8" fill="none" fill-rule="evenodd"/><path d="M2000.5 1235.5 2000.5 1309.5" stroke="#000000" stroke-width="6.875" stroke-linecap="round" stroke-miterlimit="8" fill="none" fill-rule="evenodd"/><path d="M1977.5 1189.5 1940.5 1162.5" stroke="#000000" stroke-width="6.875" stroke-linecap="round" stroke-miterlimit="8" fill="none" fill-rule="evenodd"/><path d="M2098.5 1174.5 2121.5 1103.5" stroke="#000000" stroke-width="6.875" stroke-linecap="round" stroke-miterlimit="8" fill="none" fill-rule="evenodd"/><path d="M2000.5 1309.5 1940.5 1352.5" stroke="#000000" stroke-width="6.875" stroke-linecap="round" stroke-miterlimit="8" fill="none" fill-rule="evenodd"/><path d="M2098.5 1341.5 2121.5 1411.5" stroke="#000000" stroke-width="6.875" stroke-linecap="round" stroke-miterlimit="8" fill="none" fill-rule="evenodd"/><path d="M2150.68 1242.67 2156.83 1242.67 2174.11 1267.19 2174.07 1244.43 2169.26 1243.94 2169.26 1242.67 2179.64 1242.67 2179.64 1243.94 2175.79 1244.43 2175.75 1272.76 2174.48 1272.76 2156.17 1246.97 2156.25 1270.64 2161.05 1271.13 2161.05 1272.43 2150.68 1272.43 2150.68 1271.14 2154.54 1270.7 2154.62 1244.78 2154.29 1244.33 2150.68 1243.96Z" stroke="#3050F8" stroke-width="3" stroke-miterlimit="8" fill="#0D0D0D" fill-rule="evenodd"/><text fill="#000000" fill-opacity="0" font-family="Arial,Arial_MSFontService,sans-serif" font-size="30.0889" x="2150.68" y="1269">N</text><path d="M1987.93 1190.23 1994.08 1190.23 2011.36 1214.75 2011.32 1191.99 2006.51 1191.5 2006.51 1190.23 2016.89 1190.23 2016.89 1191.5 2013.04 1191.99 2013 1220.32 2011.73 1220.32 1993.42 1194.53 1993.5 1218.19 1998.3 1218.68 1998.3 1219.99 1987.93 1219.99 1987.93 1218.7 1991.79 1218.25 1991.87 1192.33 1991.54 1191.88 1987.93 1191.51Z" stroke="#3050F8" stroke-width="3" stroke-miterlimit="8" fill="#0D0D0D" fill-rule="evenodd"/><text fill="#000000" fill-opacity="0" font-family="Arial,Arial_MSFontService,sans-serif" font-size="30.0889" x="1987.93" y="1216.56">N</text><path d="M1898.28 1125.8 1910.17 1125.8 1910.17 1127.07 1905.78 1127.48C1905.76 1129.42 1905.75 1131.38 1905.74 1133.36 1905.74 1135.33 1905.74 1137.32 1905.74 1139.33L1921.45 1139.33C1921.45 1137.34 1921.45 1135.35 1921.44 1133.37 1921.43 1131.39 1921.4 1129.43 1921.37 1127.48L1917.02 1127.07 1917.02 1125.8 1928.9 1125.8 1928.9 1127.07 1924.52 1127.48C1924.48 1131.41 1924.47 1135.43 1924.48 1139.54L1924.48 1141.83C1924.48 1143.82 1924.48 1145.82 1924.48 1147.82 1924.49 1149.83 1924.5 1151.83 1924.52 1153.85L1928.9 1154.25 1928.9 1155.56 1917.02 1155.56 1917.02 1154.25 1921.37 1153.85C1921.4 1151.91 1921.43 1149.88 1921.44 1147.76 1921.45 1145.64 1921.45 1143.33 1921.45 1140.84L1905.74 1140.84C1905.74 1143.31 1905.74 1145.61 1905.74 1147.73 1905.75 1149.85 1905.76 1151.89 1905.78 1153.85L1910.17 1154.25 1910.17 1155.56 1898.28 1155.56 1898.28 1154.25 1902.67 1153.85C1902.69 1151.87 1902.7 1149.88 1902.71 1147.87 1902.71 1145.85 1902.71 1143.84 1902.71 1141.83L1902.71 1139.54C1902.72 1135.48 1902.7 1131.46 1902.67 1127.48L1898.28 1127.07Z" stroke="#909090" stroke-width="3" stroke-miterlimit="8" fill="#909090" fill-rule="evenodd"/><text fill="#000000" fill-opacity="0" font-family="Arial,Arial_MSFontService,sans-serif" font-size="29.7609" x="1898.28" y="1151.84">H</text><path d="M2122.14 1057.93 2134.03 1057.93 2134.03 1059.19 2129.64 1059.6C2129.62 1061.55 2129.61 1063.51 2129.6 1065.48 2129.6 1067.46 2129.6 1069.45 2129.6 1071.46L2145.3 1071.46C2145.31 1069.47 2145.3 1067.48 2145.29 1065.5 2145.29 1063.52 2145.26 1061.55 2145.22 1059.6L2140.88 1059.19 2140.88 1057.93 2152.76 1057.93 2152.76 1059.19 2148.37 1059.6C2148.34 1063.54 2148.33 1067.56 2148.33 1071.66L2148.33 1073.95C2148.33 1075.94 2148.33 1077.94 2148.34 1079.95 2148.34 1081.95 2148.36 1083.96 2148.37 1085.97L2152.76 1086.38 2152.76 1087.69 2140.88 1087.69 2140.88 1086.38 2145.22 1085.97C2145.26 1084.04 2145.29 1082.01 2145.29 1079.88 2145.3 1077.76 2145.31 1075.46 2145.3 1072.97L2129.6 1072.97C2129.6 1075.44 2129.6 1077.73 2129.6 1079.85 2129.61 1081.98 2129.62 1084.02 2129.64 1085.97L2134.03 1086.38 2134.03 1087.69 2122.14 1087.69 2122.14 1086.38 2126.53 1085.97C2126.55 1084 2126.56 1082.01 2126.56 1079.99 2126.57 1077.98 2126.57 1075.97 2126.57 1073.95L2126.57 1071.66C2126.57 1067.6 2126.56 1063.58 2126.53 1059.6L2122.14 1059.19Z" stroke="#909090" stroke-width="3" stroke-miterlimit="8" fill="#909090" fill-rule="evenodd"/><text fill="#000000" fill-opacity="0" font-family="Arial,Arial_MSFontService,sans-serif" font-size="29.7609" x="2122.14" y="1083.97">H</text><path d="M1899.26 1345.71 1911.15 1345.71 1911.15 1346.98 1906.76 1347.39C1906.74 1349.33 1906.73 1351.3 1906.72 1353.27 1906.72 1355.24 1906.72 1357.23 1906.72 1359.24L1922.43 1359.24C1922.43 1357.25 1922.43 1355.26 1922.42 1353.28 1922.41 1351.3 1922.38 1349.34 1922.35 1347.39L1918 1346.98 1918 1345.71 1929.88 1345.71 1929.88 1346.98 1925.5 1347.39C1925.46 1351.33 1925.45 1355.34 1925.46 1359.45L1925.46 1361.74C1925.46 1363.73 1925.46 1365.73 1925.46 1367.73 1925.47 1369.74 1925.48 1371.74 1925.5 1373.76L1929.88 1374.16 1929.88 1375.47 1918 1375.47 1918 1374.16 1922.35 1373.76C1922.38 1371.82 1922.41 1369.79 1922.42 1367.67 1922.43 1365.55 1922.43 1363.24 1922.43 1360.75L1906.72 1360.75C1906.72 1363.22 1906.72 1365.52 1906.72 1367.64 1906.73 1369.76 1906.74 1371.8 1906.76 1373.76L1911.15 1374.16 1911.15 1375.47 1899.26 1375.47 1899.26 1374.16 1903.65 1373.76C1903.67 1371.78 1903.68 1369.79 1903.69 1367.78 1903.69 1365.76 1903.69 1363.75 1903.69 1361.74L1903.69 1359.45C1903.7 1355.39 1903.68 1351.37 1903.65 1347.39L1899.26 1346.98Z" stroke="#909090" stroke-width="3" stroke-miterlimit="8" fill="#909090" fill-rule="evenodd"/><text fill="#000000" fill-opacity="0" font-family="Arial,Arial_MSFontService,sans-serif" font-size="29.7609" x="1899.26" y="1371.75">H</text><path d="M2122.14 1429.79 2134.03 1429.79 2134.03 1431.06 2129.64 1431.47C2129.62 1433.41 2129.61 1435.37 2129.6 1437.35 2129.6 1439.32 2129.6 1441.31 2129.6 1443.32L2145.3 1443.32C2145.31 1441.33 2145.3 1439.34 2145.29 1437.36 2145.29 1435.38 2145.26 1433.42 2145.22 1431.47L2140.88 1431.06 2140.88 1429.79 2152.76 1429.79 2152.76 1431.06 2148.37 1431.47C2148.34 1435.4 2148.33 1439.42 2148.33 1443.52L2148.33 1445.82C2148.33 1447.81 2148.33 1449.8 2148.34 1451.81 2148.34 1453.81 2148.36 1455.82 2148.37 1457.83L2152.76 1458.24 2152.76 1459.55 2140.88 1459.55 2140.88 1458.24 2145.22 1457.83C2145.26 1455.9 2145.29 1453.87 2145.29 1451.75 2145.3 1449.62 2145.31 1447.32 2145.3 1444.83L2129.6 1444.83C2129.6 1447.3 2129.6 1449.59 2129.6 1451.72 2129.61 1453.84 2129.62 1455.88 2129.64 1457.83L2134.03 1458.24 2134.03 1459.55 2122.14 1459.55 2122.14 1458.24 2126.53 1457.83C2126.55 1455.86 2126.56 1453.87 2126.56 1451.86 2126.57 1449.84 2126.57 1447.83 2126.57 1445.82L2126.57 1443.52C2126.57 1439.46 2126.56 1435.44 2126.53 1431.47L2122.14 1431.06Z" stroke="#909090" stroke-width="3" stroke-miterlimit="8" fill="#909090" fill-rule="evenodd"/><text fill="#000000" fill-opacity="0" font-family="Arial,Arial_MSFontService,sans-serif" font-size="29.7609" x="2122.14" y="1455.83">H</text><path d="M1518.5 1309.5 1616.5 1341.5" stroke="#000000" stroke-width="6.875" stroke-linecap="round" stroke-miterlimit="8" fill="none" fill-rule="evenodd"/><path d="M1534.5 1300.5 1608.5 1324.5" stroke="#000000" stroke-width="6.875" stroke-linecap="round" stroke-miterlimit="8" fill="none" fill-rule="evenodd"/><path d="M1616.5 1341.5 1659.5 1281.5" stroke="#000000" stroke-width="6.875" stroke-linecap="round" stroke-miterlimit="8" fill="none" fill-rule="evenodd"/><path d="M1659.5 1234.5 1616.5 1174.5" stroke="#000000" stroke-width="6.875" stroke-linecap="round" stroke-miterlimit="8" fill="none" fill-rule="evenodd"/><path d="M1643.5 1234.5 1610.5 1189.5" stroke="#000000" stroke-width="6.875" stroke-linecap="round" stroke-miterlimit="8" fill="none" fill-rule="evenodd"/><path d="M1616.5 1174.5 1545.5 1197.5" stroke="#000000" stroke-width="6.875" stroke-linecap="round" stroke-miterlimit="8" fill="none" fill-rule="evenodd"/><path d="M1518.5 1235.5 1518.5 1309.5" stroke="#000000" stroke-width="6.875" stroke-linecap="round" stroke-miterlimit="8" fill="none" fill-rule="evenodd"/><path d="M1494.5 1189.5 1457.5 1162.5" stroke="#000000" stroke-width="6.875" stroke-linecap="round" stroke-miterlimit="8" fill="none" fill-rule="evenodd"/><path d="M1669.35 1244.83 1675.5 1244.83 1692.78 1269.34 1692.74 1246.58 1687.93 1246.09 1687.93 1244.83 1698.31 1244.83 1698.31 1246.09 1694.46 1246.58 1694.42 1274.92 1693.15 1274.92 1674.84 1249.13 1674.92 1272.79 1679.72 1273.28 1679.72 1274.59 1669.35 1274.59 1669.35 1273.3 1673.21 1272.85 1673.29 1246.93 1672.96 1246.48 1669.35 1246.11Z" stroke="#3050F8" stroke-width="3" stroke-miterlimit="8" fill="#3050F8" fill-rule="evenodd"/><text fill="#000000" fill-opacity="0" font-family="Arial,Arial_MSFontService,sans-serif" font-size="30.0889" x="1669.35" y="1271.15">N</text><path d="M1506.36 1190.29 1512.51 1190.29 1529.8 1214.81 1529.76 1192.05 1524.94 1191.55 1524.94 1190.29 1535.33 1190.29 1535.33 1191.55 1531.47 1192.05 1531.43 1220.38 1530.16 1220.38 1511.85 1194.59 1511.94 1218.25 1516.73 1218.74 1516.73 1220.05 1506.36 1220.05 1506.36 1218.76 1510.22 1218.31 1510.3 1192.39 1509.97 1191.94 1506.36 1191.57Z" stroke="#3050F8" stroke-width="3" stroke-miterlimit="8" fill="#3050F8" fill-rule="evenodd"/><text fill="#000000" fill-opacity="0" font-family="Arial,Arial_MSFontService,sans-serif" font-size="30.0889" x="1506.36" y="1216.62">N</text><path d="M1415.73 1121.86 1427.62 1121.86 1427.62 1123.13 1423.23 1123.54C1423.21 1125.48 1423.2 1127.44 1423.2 1129.42 1423.19 1131.39 1423.19 1133.38 1423.19 1135.39L1438.9 1135.39C1438.9 1133.4 1438.9 1131.41 1438.89 1129.43 1438.88 1127.45 1438.86 1125.49 1438.82 1123.54L1434.47 1123.13 1434.47 1121.86 1446.35 1121.86 1446.35 1123.13 1441.97 1123.54C1441.93 1127.47 1441.92 1131.49 1441.93 1135.59L1441.93 1137.89C1441.93 1139.88 1441.93 1141.87 1441.93 1143.88 1441.94 1145.88 1441.95 1147.89 1441.97 1149.9L1446.35 1150.31 1446.35 1151.62 1434.47 1151.62 1434.47 1150.31 1438.82 1149.9C1438.86 1147.97 1438.88 1145.94 1438.89 1143.82 1438.9 1141.69 1438.9 1139.39 1438.9 1136.9L1423.19 1136.9C1423.19 1139.37 1423.19 1141.66 1423.2 1143.79 1423.2 1145.91 1423.21 1147.95 1423.23 1149.9L1427.62 1150.31 1427.62 1151.62 1415.73 1151.62 1415.73 1150.31 1420.12 1149.9C1420.14 1147.93 1420.15 1145.94 1420.16 1143.93 1420.16 1141.91 1420.16 1139.9 1420.16 1137.89L1420.16 1135.59C1420.17 1131.53 1420.15 1127.51 1420.12 1123.54L1415.73 1123.13Z" stroke="#909090" stroke-width="3" stroke-miterlimit="8" fill="#909090" fill-rule="evenodd"/><text fill="#000000" fill-opacity="0" font-family="Arial,Arial_MSFontService,sans-serif" font-size="29.7609" x="1415.73" y="1147.9">H</text><path d="M2089.5 1197.5C2089.5 1195.29 2091.29 1193.5 2093.5 1193.5 2095.71 1193.5 2097.5 1195.29 2097.5 1197.5 2097.5 1199.71 2095.71 1201.5 2093.5 1201.5 2091.29 1201.5 2089.5 1199.71 2089.5 1197.5Z" stroke="#000000" stroke-width="4.58333" stroke-miterlimit="8" fill-rule="evenodd"/><path d="M2087.5 1316C2087.5 1314.07 2089.29 1312.5 2091.5 1312.5 2093.71 1312.5 2095.5 1314.07 2095.5 1316 2095.5 1317.93 2093.71 1319.5 2091.5 1319.5 2089.29 1319.5 2087.5 1317.93 2087.5 1316Z" stroke="#000000" stroke-width="4.58333" stroke-miterlimit="8" fill-rule="evenodd"/><path d="M2013.5 1296.5C2013.5 1294.29 2015.29 1292.5 2017.5 1292.5 2019.71 1292.5 2021.5 1294.29 2021.5 1296.5 2021.5 1298.71 2019.71 1300.5 2017.5 1300.5 2015.29 1300.5 2013.5 1298.71 2013.5 1296.5Z" stroke="#000000" stroke-width="4.58333" stroke-miterlimit="8" fill-rule="evenodd"/><path d="M2030.5 1214.5C2030.5 1212.29 2032.29 1210.5 2034.5 1210.5 2036.71 1210.5 2038.5 1212.29 2038.5 1214.5 2038.5 1216.71 2036.71 1218.5 2034.5 1218.5 2032.29 1218.5 2030.5 1216.71 2030.5 1214.5Z" stroke="#000000" stroke-width="4.58333" stroke-miterlimit="8" fill-rule="evenodd"/><path d="M2020.5 1233.5C2020.5 1231.29 2022.29 1229.5 2024.5 1229.5 2026.71 1229.5 2028.5 1231.29 2028.5 1233.5 2028.5 1235.71 2026.71 1237.5 2024.5 1237.5 2022.29 1237.5 2020.5 1235.71 2020.5 1233.5Z" stroke="#000000" stroke-width="4.58333" stroke-miterlimit="8" fill-rule="evenodd"/><path d="M2130.5 1260.5C2130.5 1258.29 2132.29 1256.5 2134.5 1256.5 2136.71 1256.5 2138.5 1258.29 2138.5 1260.5 2138.5 1262.71 2136.71 1264.5 2134.5 1264.5 2132.29 1264.5 2130.5 1262.71 2130.5 1260.5Z" stroke="#000000" stroke-width="4.58333" stroke-miterlimit="8" fill-rule="evenodd"/><text fill="#3050F8" font-family="Times New Roman,Times New Roman_MSFontService,sans-serif" font-weight="400" font-size="28" transform="matrix(1 0 0 1 1536.36 1184)">1</text><text fill="#3050F8" font-family="Times New Roman,Times New Roman_MSFontService,sans-serif" font-weight="400" font-size="28" transform="matrix(1 0 0 1 1702.37 1243)">3</text><text fill="#3050F8" font-family="Times New Roman,Times New Roman_MSFontService,sans-serif" font-weight="400" font-size="28" transform="matrix(1 0 0 1 2179.6 1234)">3</text><text fill="#3050F8" font-family="Times New Roman,Times New Roman_MSFontService,sans-serif" font-weight="400" font-size="28" transform="matrix(1 0 0 1 2019.33 1185)">1</text><path d="M2271.5 1244.5C2271.5 1246.71 2269.71 1248.5 2267.5 1248.5 2265.29 1248.5 2263.5 1246.71 2263.5 1244.5 2263.5 1242.29 2265.29 1240.5 2267.5 1240.5 2269.71 1240.5 2271.5 1242.29 2271.5 1244.5Z" stroke="#000000" stroke-width="4.58333" stroke-miterlimit="8" fill-rule="evenodd"/><path d="M2272.5 1265.5C2272.5 1267.71 2270.71 1269.5 2268.5 1269.5 2266.29 1269.5 2264.5 1267.71 2264.5 1265.5 2264.5 1263.29 2266.29 1261.5 2268.5 1261.5 2270.71 1261.5 2272.5 1263.29 2272.5 1265.5Z" stroke="#000000" stroke-width="4.58333" stroke-miterlimit="8" fill-rule="evenodd"/><path d="M2196.5 1256.08C2222.58 1238.76 2248.66 1221.43 2265.49 1221.5 2282.33 1221.57 2292.58 1250.04 2297.5 1256.5" stroke="#172C51" stroke-width="4.58333" stroke-miterlimit="8" fill="none" fill-rule="evenodd"/><path d="M32.6072 100C16.2708 74.1783-0.0653315 48.3567 0.000164979 31.6901 0.0656615 15.0235 26.9108 4.87095 33 0" stroke="#172C51" stroke-width="4.58333" stroke-miterlimit="8" fill="none" fill-rule="evenodd" transform="matrix(-6.12323e-17 -1 -1 6.12323e-17 2296.5 1287.5)"/></g></svg>