<svg width="1782" height="999" xmlns="http://www.w3.org/2000/svg" xmlns:xlink="http://www.w3.org/1999/xlink" xml:space="preserve" overflow="hidden"><g transform="translate(-1150 -262)"><path d="M1152.71 264.305 1448.33 264.305 1448.33 512.188 1152.71 512.188Z" fill="#CCD2D8" fill-rule="evenodd"/><path d="M1448.33 264.305 1743.96 264.305 1743.96 512.188 1448.33 512.188Z" fill="#CCD2D8" fill-rule="evenodd"/><path d="M1743.96 264.305 2039.58 264.305 2039.58 512.188 1743.96 512.188Z" fill="#CCD2D8" fill-rule="evenodd"/><path d="M2039.58 264.305 2335.21 264.305 2335.21 512.188 2039.58 512.188Z" fill="#CCD2D8" fill-rule="evenodd"/><path d="M2335.21 264.305 2630.83 264.305 2630.83 512.188 2335.21 512.188Z" fill="#CCD2D8" fill-rule="evenodd"/><path d="M2630.83 264.305 2926.46 264.305 2926.46 512.188 2630.83 512.188Z" fill="#CCD2D8" fill-rule="evenodd"/><path d="M1152.71 512.188 1448.33 512.188 1448.33 760.07 1152.71 760.07Z" fill="#E7EAED" fill-rule="evenodd"/><path d="M1448.33 512.188 1743.96 512.188 1743.96 760.07 1448.33 760.07Z" fill="#E7EAED" fill-rule="evenodd"/><path d="M1743.96 512.188 2039.58 512.188 2039.58 760.07 1743.96 760.07Z" fill="#E7EAED" fill-rule="evenodd"/><path d="M2039.58 512.188 2335.21 512.188 2335.21 760.07 2039.58 760.07Z" fill="#E7EAED" fill-rule="evenodd"/><path d="M2335.21 512.188 2630.83 512.188 2630.83 760.07 2335.21 760.07Z" fill="#E7EAED" fill-rule="evenodd"/><path d="M2630.83 512.188 2926.46 512.188 2926.46 760.07 2630.83 760.07Z" fill="#E7EAED" fill-rule="evenodd"/><path d="M1152.71 760.07 2335.21 760.07 2335.21 1007.95 1152.71 1007.95Z" fill="#CCD2D8" fill-rule="evenodd"/><path d="M2335.21 760.07 2630.83 760.07 2630.83 1007.95 2335.21 1007.95Z" fill="#CCD2D8" fill-rule="evenodd"/><path d="M2630.83 760.07 2926.46 760.07 2926.46 1007.95 2630.83 1007.95Z" fill="#CCD2D8" fill-rule="evenodd"/><path d="M1152.71 1007.95 2335.21 1007.95 2335.21 1255.83 1152.71 1255.83Z" fill="#E7EAED" fill-rule="evenodd"/><path d="M2335.21 1007.95 2630.83 1007.95 2630.83 1255.83 2335.21 1255.83Z" fill="#E7EAED" fill-rule="evenodd"/><path d="M2630.83 1007.95 2926.46 1007.95 2926.46 1255.83 2630.83 1255.83Z" fill="#E7EAED" fill-rule="evenodd"/><path d="M1448.33 262.014 1448.33 762.361" stroke="#FFFFFF" stroke-width="4.58333" stroke-linejoin="round" stroke-miterlimit="10" fill="none" fill-rule="evenodd"/><path d="M1743.96 262.014 1743.96 762.361" stroke="#FFFFFF" stroke-width="4.58333" stroke-linejoin="round" stroke-miterlimit="10" fill="none" fill-rule="evenodd"/><path d="M2039.58 262.014 2039.58 762.361" stroke="#FFFFFF" stroke-width="4.58333" stroke-linejoin="round" stroke-miterlimit="10" fill="none" fill-rule="evenodd"/><path d="M2335.21 262.014 2335.21 1258.13" stroke="#FFFFFF" stroke-width="4.58333" stroke-linejoin="round" stroke-miterlimit="10" fill="none" fill-rule="evenodd"/><path d="M2630.83 262.014 2630.83 1258.13" stroke="#FFFFFF" stroke-width="4.58333" stroke-linejoin="round" stroke-miterlimit="10" fill="none" fill-rule="evenodd"/><path d="M1150.42 512.188 2928.75 512.188" stroke="#FFFFFF" stroke-width="4.58333" stroke-linejoin="round" stroke-miterlimit="10" fill="none" fill-rule="evenodd"/><path d="M1150.42 760.07 2928.75 760.07" stroke="#FFFFFF" stroke-width="4.58333" stroke-linejoin="round" stroke-miterlimit="10" fill="none" fill-rule="evenodd"/><path d="M1150.42 1007.95 2928.75 1007.95" stroke="#FFFFFF" stroke-width="4.58333" stroke-linejoin="round" stroke-miterlimit="10" fill="none" fill-rule="evenodd"/><path d="M1152.71 262.014 1152.71 1258.13" stroke="#FFFFFF" stroke-width="4.58333" stroke-linejoin="round" stroke-miterlimit="10" fill="none" fill-rule="evenodd"/><path d="M2926.46 262.014 2926.46 1258.13" stroke="#FFFFFF" stroke-width="4.58333" stroke-linejoin="round" stroke-miterlimit="10" fill="none" fill-rule="evenodd"/><path d="M1150.42 264.305 2928.75 264.305" stroke="#FFFFFF" stroke-width="4.58333" stroke-linejoin="round" stroke-miterlimit="10" fill="none" fill-rule="evenodd"/><path d="M1150.42 1255.83 2928.75 1255.83" stroke="#FFFFFF" stroke-width="4.58333" stroke-linejoin="round" stroke-miterlimit="10" fill="none" fill-rule="evenodd"/><text font-family="Times New Roman,Times New Roman_MSFontService,sans-serif" font-weight="400" font-size="83" transform="matrix(1 0 0 1 2737.4 419)">…</text><text font-family="Times New Roman,Times New Roman_MSFontService,sans-serif" font-weight="400" font-size="83" transform="matrix(1 0 0 1 2460.1 419)">F</text><text font-family="Times New Roman,Times New Roman_MSFontService,sans-serif" font-weight="400" font-size="83" transform="matrix(1 0 0 1 2157.6 419)">O</text><text font-family="Times New Roman,Times New Roman_MSFontService,sans-serif" font-weight="400" font-size="83" transform="matrix(1 0 0 1 1861.98 419)">N</text><text font-family="Times New Roman,Times New Roman_MSFontService,sans-serif" font-weight="400" font-size="83" transform="matrix(1 0 0 1 1568.65 419)">C</text><text font-family="Times New Roman,Times New Roman_MSFontService,sans-serif" font-weight="400" font-size="83" transform="matrix(1 0 0 1 1273.02 419)">B</text><text font-family="Times New Roman,Times New Roman_MSFontService,sans-serif" font-weight="400" font-size="83" transform="matrix(1 0 0 1 2737.4 667)">…</text><text font-family="Times New Roman,Times New Roman_MSFontService,sans-serif" font-weight="400" font-size="83" transform="matrix(1 0 0 1 2444.06 667)">Cl</text><text font-family="Times New Roman,Times New Roman_MSFontService,sans-serif" font-weight="400" font-size="83" transform="matrix(1 0 0 1 2164.48 667)">S</text><text font-family="Times New Roman,Times New Roman_MSFontService,sans-serif" font-weight="400" font-size="83" transform="matrix(1 0 0 1 1868.85 667)">P</text><text font-family="Times New Roman,Times New Roman_MSFontService,sans-serif" font-weight="400" font-size="83" transform="matrix(1 0 0 1 1561.77 667)">Si</text><text font-family="Times New Roman,Times New Roman_MSFontService,sans-serif" font-weight="400" font-size="83" transform="matrix(1 0 0 1 1259.27 667)">…</text><text font-family="Times New Roman,Times New Roman_MSFontService,sans-serif" font-weight="400" font-size="83" transform="matrix(1 0 0 1 2737.4 915)">…</text><text font-family="Times New Roman,Times New Roman_MSFontService,sans-serif" font-weight="400" font-size="83" transform="matrix(1 0 0 1 2441.77 915)">Br</text><text font-family="Times New Roman,Times New Roman_MSFontService,sans-serif" font-weight="400" font-size="83" transform="matrix(1 0 0 1 1702.71 915)">…</text><text font-family="Times New Roman,Times New Roman_MSFontService,sans-serif" font-weight="400" font-size="83" transform="matrix(1 0 0 1 2737.4 1162)">…</text><text font-family="Times New Roman,Times New Roman_MSFontService,sans-serif" font-weight="400" font-size="83" transform="matrix(1 0 0 1 2469.27 1162)">I</text><text font-family="Times New Roman,Times New Roman_MSFontService,sans-serif" font-weight="400" font-size="83" transform="matrix(1 0 0 1 1702.71 1162)">…</text><text font-family="Source Han Serif SC Medium,Source Han Serif SC Medium_MSFontService,sans-serif" font-weight="500" font-size="50" transform="matrix(1 0 0 1 2503.42 333)">最大</text><text font-family="Source Han Serif SC Medium,Source Han Serif SC Medium_MSFontService,sans-serif" font-weight="500" font-size="50" transform="matrix(1 0 0 1 2212.42 331)">次大</text><path d="M1968.74 425.297 1981.75 429.75 1980.63 433.002 1967.63 428.549ZM1991.5 433.09 2004.51 437.544 2003.4 440.796 1990.39 436.342ZM2014.27 440.884 2027.28 445.337 2026.17 448.589 2013.16 444.136ZM2037.04 448.677 2050.04 453.131 2048.93 456.383 2035.92 451.929ZM2059.8 456.471 2072.81 460.924 2071.7 464.176 2058.69 459.723ZM2082.57 464.264 2095.57 468.718 2094.46 471.97 2081.45 467.517ZM2105.33 472.058 2118.34 476.511 2117.23 479.764 2104.22 475.31ZM2128.1 479.852 2141.11 484.305 2139.99 487.557 2126.98 483.104ZM2150.86 487.645 2163.87 492.099 2162.76 495.351 2149.75 490.897ZM2173.63 495.439 2186.64 499.892 2185.52 503.144 2172.51 498.691ZM2196.39 503.232 2209.4 507.686 2208.29 510.938 2195.28 506.484ZM2219.16 511.026 2232.17 515.479 2231.05 518.731 2218.05 514.278ZM2241.92 518.819 2254.93 523.273 2253.82 526.525 2240.81 522.072ZM2264.69 526.613 2277.7 531.066 2276.58 534.319 2263.58 529.865ZM2287.46 534.406 2300.46 538.86 2299.35 542.112 2286.34 537.659ZM2310.22 542.2 2323.23 546.654 2322.12 549.906 2309.11 545.452ZM2332.99 549.994 2345.99 554.447 2344.88 557.699 2331.87 553.246ZM2355.75 557.787 2368.76 562.241 2367.65 565.493 2354.64 561.039ZM2378.52 565.581 2391.53 570.034 2390.41 573.286 2377.4 568.833ZM2401.28 573.374 2414.29 577.828 2413.18 581.08 2400.17 576.627ZM2424.05 581.168 2434.12 584.618 2433.01 587.87 2422.93 584.42ZM1968.06 441.416 1946.5 419.5 1976.97 415.398ZM2433.69 571.751 2455.25 593.667 2424.78 597.768Z"/><text font-family="Source Han Serif SC Medium,Source Han Serif SC Medium_MSFontService,sans-serif" font-weight="500" font-size="50" transform="matrix(0.950589 0.31045 -0.31045 0.950589 2261.24 514)">相等</text><path d="M1683.74 425.297 1696.75 429.75 1695.63 433.002 1682.63 428.549ZM1706.5 433.09 1719.51 437.544 1718.4 440.796 1705.39 436.342ZM1729.27 440.884 1742.28 445.337 1741.17 448.589 1728.16 444.136ZM1752.04 448.677 1765.04 453.131 1763.93 456.383 1750.92 451.929ZM1774.8 456.471 1787.81 460.924 1786.7 464.176 1773.69 459.723ZM1797.57 464.264 1810.57 468.718 1809.46 471.97 1796.45 467.517ZM1820.33 472.058 1833.34 476.511 1832.23 479.764 1819.22 475.31ZM1843.1 479.852 1856.11 484.305 1854.99 487.557 1841.98 483.104ZM1865.86 487.645 1878.87 492.099 1877.76 495.351 1864.75 490.897ZM1888.63 495.439 1901.64 499.892 1900.52 503.144 1887.51 498.691ZM1911.39 503.232 1924.4 507.686 1923.29 510.938 1910.28 506.484ZM1934.16 511.026 1947.17 515.479 1946.05 518.731 1933.05 514.278ZM1956.92 518.819 1969.93 523.273 1968.82 526.525 1955.81 522.072ZM1979.69 526.613 1992.7 531.066 1991.58 534.319 1978.58 529.865ZM2002.45 534.406 2015.46 538.86 2014.35 542.112 2001.34 537.659ZM2025.22 542.2 2038.23 546.654 2037.12 549.906 2024.11 545.452ZM2047.99 549.994 2060.99 554.447 2059.88 557.699 2046.87 553.246ZM2070.75 557.787 2083.76 562.241 2082.65 565.493 2069.64 561.039ZM2093.52 565.581 2106.53 570.034 2105.41 573.286 2092.4 568.833ZM2116.28 573.374 2129.29 577.828 2128.18 581.08 2115.17 576.627ZM2139.05 581.168 2149.12 584.618 2148.01 587.87 2137.93 584.42ZM1683.06 441.416 1661.5 419.5 1691.97 415.398ZM2148.69 571.751 2170.25 593.667 2139.78 597.768Z"/><text font-family="Source Han Serif SC Medium,Source Han Serif SC Medium_MSFontService,sans-serif" font-weight="500" font-size="50" transform="matrix(0.950589 0.31045 -0.31045 0.950589 1976.24 514)">相等</text><path d="M2227.84 709.214 2234.96 720.977 2232.02 722.757 2224.9 710.994ZM2240.3 729.798 2247.42 741.561 2244.48 743.341 2237.36 731.579ZM2252.76 750.383 2259.88 762.145 2256.94 763.925 2249.82 752.163ZM2265.22 770.967 2272.34 782.729 2269.4 784.51 2262.28 772.747ZM2277.69 791.551 2284.81 803.314 2281.87 805.094 2274.74 793.331ZM2290.15 812.135 2297.27 823.898 2294.33 825.678 2287.21 813.916ZM2302.61 832.72 2309.73 844.482 2306.79 846.262 2299.67 834.5ZM2315.07 853.304 2322.19 865.066 2319.25 866.847 2312.13 855.084ZM2327.53 873.888 2334.65 885.651 2331.71 887.431 2324.59 875.668ZM2339.99 894.473 2347.11 906.235 2344.17 908.015 2337.05 896.253ZM2352.45 915.057 2359.58 926.819 2356.64 928.599 2349.51 916.837ZM2364.92 935.641 2372.04 947.403 2369.1 949.184 2361.98 937.421ZM2377.38 956.225 2384.5 967.988 2381.56 969.768 2374.44 958.005ZM2389.84 976.81 2396.96 988.572 2394.02 990.352 2386.9 978.59ZM2402.3 997.394 2409.42 1009.16 2406.48 1010.94 2399.36 999.174ZM2414.76 1017.98 2421.88 1029.74 2418.94 1031.52 2411.82 1019.76ZM2427.22 1038.56 2434.35 1050.32 2431.4 1052.1 2424.28 1040.34ZM2439.69 1059.15 2444.89 1067.75 2441.95 1069.53 2436.75 1060.93ZM2216.98 721.146 2214.5 690.5 2240.5 706.904ZM2452.81 1057.6 2455.29 1088.24 2429.29 1071.84Z"/><text font-family="Source Han Serif SC Medium,Source Han Serif SC Medium_MSFontService,sans-serif" font-weight="500" font-size="50" transform="matrix(0.576784 0.816897 -0.816897 0.576784 2248.34 875)">相等</text></g></svg>