<?xml version="1.0" standalone='no'?><!-- IBoard SVG File --><svg xmlns="http://www.w3.org/2000/svg" xmlns:xlink="http://www.w3.org/1999/xlink" viewBox="212.45 137.35 193.81 104.98" height="97.98" width="200.81" version="1.1"><!-- SVG File --><text xml:space="preserve" x="273.463287" y="204.715698" textLength="9.386666" lengthAdjust="spacingAndGlyphs"><tspan font-family="Times New Roman" font-weight="normal" baseline-shift="0" font-size="13" fill="#000000">Y</tspan></text><polygon points="278.764496,179.596680 278.752106,193.150574 278.162506,193.150040 277.572906,193.149506 277.585297,179.595612 278.174896,179.596146 " style="fill:rgb(0,0,0);fill-opacity:1.000000"/><polygon points="297.979126,206.682159 283.846436,202.076050 284.029144,201.515472 284.211853,200.954895 298.344543,205.561005 298.161835,206.121582 " style="fill:rgb(0,0,0);fill-opacity:1.000000"/><polygon points="260.609894,209.636536 271.006073,202.097641 271.352203,202.574951 271.698334,203.052261 261.302155,210.591156 260.956024,210.113846 " style="fill:rgb(0,0,0);fill-opacity:1.000000"/><polygon points="262.473663,212.206696 272.869843,204.667801 273.215973,205.145111 273.562103,205.622421 263.165924,213.161316 262.819794,212.684006 " style="fill:rgb(0,0,0);fill-opacity:1.000000"/><text xml:space="preserve" x="273.487457" y="178.258881" textLength="9.386666" lengthAdjust="spacingAndGlyphs"><tspan font-family="Times New Roman" font-weight="normal" baseline-shift="0" font-size="13" fill="#000000">Y</tspan></text><polygon points="283.871613,170.681595 298.019135,166.099045 298.200836,166.659958 298.382538,167.220871 284.235016,171.803421 284.053314,171.242508 " style="fill:rgb(0,0,0);fill-opacity:1.000000"/><text xml:space="preserve" x="299.380035" y="170.106277" textLength="7.940000" lengthAdjust="spacingAndGlyphs"><tspan font-family="Times New Roman" font-weight="normal" baseline-shift="0" font-size="13" fill="#000000">Z</tspan></text><polygon points="308.505615,171.097412 314.680389,179.612564 314.203064,179.958694 313.725739,180.304825 307.550964,171.789673 308.028290,171.443542 " style="fill:rgb(0,0,0);fill-opacity:1.000000"/><text xml:space="preserve" x="314.187988" y="191.524353" textLength="9.386666" lengthAdjust="spacingAndGlyphs"><tspan font-family="Times New Roman" font-weight="normal" baseline-shift="0" font-size="13" fill="#000000">X</tspan></text><polygon points="314.661743,193.208618 308.483978,201.695343 308.007294,201.348343 307.530609,201.001343 313.708374,192.514618 314.185059,192.861618 " style="fill:rgb(0,0,0);fill-opacity:1.000000"/><polygon points="323.100891,179.611694 329.278717,171.124969 329.755402,171.471970 330.232086,171.818970 324.054260,180.305695 323.577576,179.958694 " style="fill:rgb(0,0,0);fill-opacity:1.000000"/><polygon points="329.257019,201.722931 323.082245,193.207748 323.559570,192.861618 324.036896,192.515488 330.211670,201.030670 329.734344,201.376801 " style="fill:rgb(0,0,0);fill-opacity:1.000000"/><text xml:space="preserve" x="299.341034" y="212.914001" textLength="7.940000" lengthAdjust="spacingAndGlyphs"><tspan font-family="Times New Roman" font-weight="normal" baseline-shift="0" font-size="13" fill="#000000">Z</tspan></text><text xml:space="preserve" x="330.481659" y="170.134705" textLength="7.940000" lengthAdjust="spacingAndGlyphs"><tspan font-family="Times New Roman" font-weight="normal" baseline-shift="0" font-size="13" fill="#000000">Z</tspan></text><polygon points="339.783569,166.138153 353.916260,170.744263 353.733551,171.304840 353.550842,171.865417 339.418152,167.259308 339.600861,166.698730 " style="fill:rgb(0,0,0);fill-opacity:1.000000"/><text xml:space="preserve" x="354.912750" y="178.333008" textLength="9.386666" lengthAdjust="spacingAndGlyphs"><tspan font-family="Times New Roman" font-weight="normal" baseline-shift="0" font-size="13" fill="#000000">Y</tspan></text><polygon points="358.998199,193.223633 359.010590,179.669739 359.600189,179.670273 360.189789,179.670807 360.177399,193.224701 359.587799,193.224167 " style="fill:rgb(0,0,0);fill-opacity:1.000000"/><polygon points="377.152771,163.183807 366.756622,170.722672 366.410492,170.245361 366.064362,169.768051 376.460510,162.229187 376.806641,162.706497 " style="fill:rgb(0,0,0);fill-opacity:1.000000"/><polygon points="375.289001,160.613647 364.892853,168.152512 364.546722,167.675201 364.200592,167.197891 374.596741,159.659027 374.942871,160.136337 " style="fill:rgb(0,0,0);fill-opacity:1.000000"/><text xml:space="preserve" x="354.888580" y="204.789825" textLength="9.386666" lengthAdjust="spacingAndGlyphs"><tspan font-family="Times New Roman" font-weight="normal" baseline-shift="0" font-size="13" fill="#000000">Y</tspan></text><polygon points="339.380127,205.599457 353.527710,201.016891 353.709381,201.577805 353.891052,202.138718 339.743469,206.721283 339.561798,206.160370 " style="fill:rgb(0,0,0);fill-opacity:1.000000"/><polygon points="374.541656,213.257690 364.173248,205.710403 364.520233,205.233719 364.867218,204.757034 375.235626,212.304321 374.888641,212.781006 " style="fill:rgb(0,0,0);fill-opacity:1.000000"/><polygon points="376.410065,210.690887 366.041656,203.143600 366.388641,202.666916 366.735626,202.190231 377.104034,209.737518 376.757050,210.214203 " style="fill:rgb(0,0,0);fill-opacity:1.000000"/><text xml:space="preserve" x="330.442596" y="212.942459" textLength="7.940000" lengthAdjust="spacingAndGlyphs"><tspan font-family="Times New Roman" font-weight="normal" baseline-shift="0" font-size="13" fill="#000000">Z</tspan></text><text xml:space="preserve" x="377.002045" y="220.359970" textLength="7.940000" lengthAdjust="spacingAndGlyphs"><tspan font-family="Times New Roman" font-weight="normal" baseline-shift="0" font-size="13" fill="#000000">Z</tspan></text><text xml:space="preserve" x="377.053955" y="162.801620" textLength="7.940000" lengthAdjust="spacingAndGlyphs"><tspan font-family="Times New Roman" font-weight="normal" baseline-shift="0" font-size="13" fill="#000000">Z</tspan></text><text xml:space="preserve" x="252.768707" y="220.247116" textLength="7.940000" lengthAdjust="spacingAndGlyphs"><tspan font-family="Times New Roman" font-weight="normal" baseline-shift="0" font-size="13" fill="#000000">Z</tspan></text><text xml:space="preserve" x="252.820709" y="162.688766" textLength="7.940000" lengthAdjust="spacingAndGlyphs"><tspan font-family="Times New Roman" font-weight="normal" baseline-shift="0" font-size="13" fill="#000000">Z</tspan></text><polygon points="271.027069,170.630081 260.658722,163.082825 261.005707,162.606140 261.352692,162.129456 271.721039,169.676712 271.374054,170.153397 " style="fill:rgb(0,0,0);fill-opacity:1.000000"/><polygon points="272.895477,168.063278 262.527130,160.516022 262.874115,160.039337 263.221100,159.562653 273.589447,167.109909 273.242462,167.586594 " style="fill:rgb(0,0,0);fill-opacity:1.000000"/><line x1="243.16675" y1="146.16017" x2="249.6524" y2="146.16017" style="stroke:rgb(0,0,0);stroke-width:1.179213;stroke-opacity:1.000000" stroke-linecap="butt"/><line x1="243.75635" y1="146.16017" x2="243.75635" y2="226.66017" style="stroke:rgb(0,0,0);stroke-width:1.179213;stroke-opacity:1.000000" stroke-linecap="butt"/><line x1="243.16675" y1="226.66017" x2="249.6524" y2="226.66017" style="stroke:rgb(0,0,0);stroke-width:1.179213;stroke-opacity:1.000000" stroke-linecap="butt"/><line x1="394.59595" y1="146.16017" x2="388.11029" y2="146.16017" style="stroke:rgb(0,0,0);stroke-width:1.179213;stroke-opacity:1.000000" stroke-linecap="butt"/><line x1="394.00635" y1="146.16017" x2="394.00635" y2="226.66017" style="stroke:rgb(0,0,0);stroke-width:1.179213;stroke-opacity:1.000000" stroke-linecap="butt"/><line x1="394.59595" y1="226.66017" x2="388.11029" y2="226.66017" style="stroke:rgb(0,0,0);stroke-width:1.179213;stroke-opacity:1.000000" stroke-linecap="butt"/><text xml:space="preserve" x="212.450928" y="192.679184" textLength="16.670000" lengthAdjust="spacingAndGlyphs"><tspan font-family="Times New Roman" font-weight="normal" baseline-shift="0" font-size="13" fill="#000000">W</tspan><tspan font-family="Times New Roman" font-weight="normal" baseline-shift="6" font-size="8" fill="#000000">+</tspan></text><text xml:space="preserve" x="398.935211" y="149.302322" textLength="4.330000" lengthAdjust="spacingAndGlyphs"><tspan font-family="Times New Roman" font-weight="normal" baseline-shift="0" font-size="13" fill="#000000">-</tspan></text></svg>