<?xml version="1.0" standalone='no'?><!-- IBoard SVG File --><svg xmlns="http://www.w3.org/2000/svg" xmlns:xlink="http://www.w3.org/1999/xlink" viewBox="190.84 151.00 121.60 93.34" height="86.34" width="128.60" version="1.1"><!-- SVG File --><text xml:space="preserve" x="229.980560" y="172.094986" textLength="7.940000" lengthAdjust="spacingAndGlyphs"><tspan font-family="Times New Roman" font-weight="normal" baseline-shift="0" font-size="13" fill="#000000">Z</tspan></text><text xml:space="preserve" x="254.272263" y="198.551682" textLength="12.270000" lengthAdjust="spacingAndGlyphs"><tspan font-family="Times New Roman" font-weight="normal" baseline-shift="0" font-size="13" fill="#000000">W</tspan></text><text xml:space="preserve" x="203.523865" y="198.551682" textLength="7.940000" lengthAdjust="spacingAndGlyphs"><tspan font-family="Times New Roman" font-weight="normal" baseline-shift="0" font-size="13" fill="#000000">Z</tspan></text><text xml:space="preserve" x="229.257217" y="198.551682" textLength="9.386666" lengthAdjust="spacingAndGlyphs"><tspan font-family="Times New Roman" font-weight="normal" baseline-shift="0" font-size="13" fill="#000000">Y</tspan></text><polygon points="234.540161,199.888947 234.540161,213.442719 233.950562,213.442719 233.360962,213.442719 233.360962,199.888947 233.950562,199.888947 " style="fill:rgb(0,0,0);fill-opacity:1.000000"/><text xml:space="preserve" x="229.980560" y="225.008377" textLength="7.940000" lengthAdjust="spacingAndGlyphs"><tspan font-family="Times New Roman" font-weight="normal" baseline-shift="0" font-size="13" fill="#000000">Z</tspan></text><polygon points="228.078003,194.027084 212.643082,194.027084 212.643082,193.437485 212.643082,192.847885 228.078003,192.847885 228.078003,193.437485 " style="fill:rgb(0,0,0);fill-opacity:1.000000"/><polygon points="239.823105,192.847885 253.093048,192.847885 253.093048,193.437485 253.093048,194.027084 239.823105,194.027084 239.823105,193.437485 " style="fill:rgb(0,0,0);fill-opacity:1.000000"/><polygon points="233.360962,186.986023 233.360962,173.432251 233.950562,173.432251 234.540161,173.432251 234.540161,186.986023 233.950562,186.986023 " style="fill:rgb(0,0,0);fill-opacity:1.000000"/><polygon points="267.721466,192.847885 280.991425,192.847885 280.991425,193.437485 280.991425,194.027084 267.721466,194.027084 267.721466,193.437485 " style="fill:rgb(0,0,0);fill-opacity:1.000000"/><text xml:space="preserve" x="282.170624" y="198.551682" textLength="9.386666" lengthAdjust="spacingAndGlyphs"><tspan font-family="Times New Roman" font-weight="normal" baseline-shift="0" font-size="13" fill="#000000">X</tspan></text><polygon points="258.230255,186.986023 258.230255,173.432251 258.819855,173.432251 259.409454,173.432251 259.409454,186.986023 258.819855,186.986023 " style="fill:rgb(0,0,0);fill-opacity:1.000000"/><polygon points="261.405060,186.986023 261.405060,173.432251 261.994659,173.432251 262.584259,173.432251 262.584259,186.986023 261.994659,186.986023 " style="fill:rgb(0,0,0);fill-opacity:1.000000"/><text xml:space="preserve" x="255.713928" y="172.094986" textLength="9.386666" lengthAdjust="spacingAndGlyphs"><tspan font-family="Times New Roman" font-weight="normal" baseline-shift="0" font-size="13" fill="#000000">X</tspan></text><polygon points="262.584259,199.888947 262.584259,213.442719 261.994659,213.442719 261.405060,213.442719 261.405060,199.888947 261.994659,199.888947 " style="fill:rgb(0,0,0);fill-opacity:1.000000"/><polygon points="259.409454,199.888947 259.409454,213.442719 258.819855,213.442719 258.230255,213.442719 258.230255,199.888947 258.819855,199.888947 " style="fill:rgb(0,0,0);fill-opacity:1.000000"/><text xml:space="preserve" x="255.713928" y="225.008377" textLength="9.386666" lengthAdjust="spacingAndGlyphs"><tspan font-family="Times New Roman" font-weight="normal" baseline-shift="0" font-size="13" fill="#000000">X</tspan></text><line x1="196.513" y1="158.66583" x2="202.99866" y2="158.66583" style="stroke:rgb(0,0,0);stroke-width:1.179213;stroke-opacity:1.000000" stroke-linecap="butt"/><line x1="197.1026" y1="158.66583" x2="197.1026" y2="228.66583" style="stroke:rgb(0,0,0);stroke-width:1.179213;stroke-opacity:1.000000" stroke-linecap="butt"/><line x1="196.513" y1="228.66583" x2="202.99866" y2="228.66583" style="stroke:rgb(0,0,0);stroke-width:1.179213;stroke-opacity:1.000000" stroke-linecap="butt"/><line x1="300.4422" y1="158.66583" x2="293.95654" y2="158.66583" style="stroke:rgb(0,0,0);stroke-width:1.179213;stroke-opacity:1.000000" stroke-linecap="butt"/><line x1="299.8526" y1="158.66583" x2="299.8526" y2="228.66583" style="stroke:rgb(0,0,0);stroke-width:1.179213;stroke-opacity:1.000000" stroke-linecap="butt"/><line x1="300.4422" y1="228.66583" x2="293.95654" y2="228.66583" style="stroke:rgb(0,0,0);stroke-width:1.179213;stroke-opacity:1.000000" stroke-linecap="butt"/><text xml:space="preserve" x="305.111481" y="162.946533" textLength="4.330000" lengthAdjust="spacingAndGlyphs"><tspan font-family="Times New Roman" font-weight="normal" baseline-shift="0" font-size="13" fill="#000000">-</tspan></text></svg>