<?xml version="1.0" encoding="UTF-8" standalone="no"?>
<!-- Generator: Adobe Illustrator 12.0.1, SVG Export Plug-In . SVG Version: 6.00 Build 51448)  -->
<svg
   xmlns:dc="http://purl.org/dc/elements/1.1/"
   xmlns:cc="http://creativecommons.org/ns#"
   xmlns:rdf="http://www.w3.org/1999/02/22-rdf-syntax-ns#"
   xmlns:svg="http://www.w3.org/2000/svg"
   xmlns="http://www.w3.org/2000/svg"
   xmlns:sodipodi="http://sodipodi.sourceforge.net/DTD/sodipodi-0.dtd"
   xmlns:inkscape="http://www.inkscape.org/namespaces/inkscape"
   version="1.1"
   id="Layer_1"
   width="297.86"
   height="148.4"
   viewBox="0 0 297.86 148.4"
   style="overflow:visible;enable-background:new 0 0 297.86 148.4;"
   xml:space="preserve"
   sodipodi:version="0.32"
   inkscape:version="0.46"
   sodipodi:docname="Milchsäure Enantiomerenpaar.svg"
   inkscape:output_extension="org.inkscape.output.svg.inkscape"><metadata
   id="metadata106"><rdf:RDF><cc:Work
       rdf:about=""><dc:format>image/svg+xml</dc:format><dc:type
         rdf:resource="http://purl.org/dc/dcmitype/StillImage" /></cc:Work></rdf:RDF></metadata><defs
   id="defs104"><inkscape:perspective
   sodipodi:type="inkscape:persp3d"
   inkscape:vp_x="0 : 74.199997 : 1"
   inkscape:vp_y="0 : 1000 : 0"
   inkscape:vp_z="297.85999 : 74.199997 : 1"
   inkscape:persp3d-origin="148.92999 : 49.466665 : 1"
   id="perspective108" />
	
	
	
	

	

	

	

	

	

	
	

	
	
	
	

	

	

	
	

	

	
	
</defs><sodipodi:namedview
   inkscape:window-height="675"
   inkscape:window-width="661"
   inkscape:pageshadow="2"
   inkscape:pageopacity="0.0"
   guidetolerance="10.0"
   gridtolerance="10.0"
   objecttolerance="10.0"
   borderopacity="1.0"
   bordercolor="#666666"
   pagecolor="#ffffff"
   id="base"
   showgrid="false"
   inkscape:zoom="1.8263615"
   inkscape:cx="148.92999"
   inkscape:cy="74.199997"
   inkscape:window-x="154"
   inkscape:window-y="154"
   inkscape:current-layer="Layer_1" />
<path
   id="path5"
   d="M 77.585975,41.8734 L 79.752925,42.4187 C 79.300725,44.1952 78.486575,45.5499 77.312375,46.48185 C 76.137225,47.4138 74.699875,47.8812 73.002225,47.8812 C 71.244725,47.8812 69.815925,47.52305 68.714875,46.8058 C 67.613825,46.0895 66.775925,45.0502 66.201175,43.6917 C 65.626425,42.33225 65.339525,40.8721 65.339525,39.31315 C 65.339525,37.61265 65.663475,36.1278 66.312325,34.86145 C 66.961175,33.5951 67.883625,32.6318 69.081575,31.97535 C 70.278575,31.3189 71.595275,30.98925 73.033575,30.98925 C 74.664725,30.98925 76.035575,31.40535 77.147075,32.23755 C 78.259525,33.0707 79.033775,34.24015 79.470775,35.7497 L 77.348475,36.25035 C 76.970375,35.06285 76.422225,34.19835 75.704025,33.65685 C 74.984875,33.11535 74.080475,32.8446 72.991775,32.8446 C 71.739675,32.8446 70.692775,33.1448 69.851075,33.74615 C 69.010325,34.3475 68.419425,35.15405 68.078375,36.1677 C 67.737325,37.18135 67.567275,38.2254 67.567275,39.30175 C 67.567275,40.6897 67.768675,41.90095 68.172425,42.93645 C 68.576175,43.97195 69.203175,44.74525 70.055325,45.2573 C 70.907475,45.76935 71.828975,46.02585 72.821725,46.02585 C 74.029175,46.02585 75.050425,45.6772 75.887375,44.97895 C 76.724325,44.2807 77.289575,43.2471 77.585975,41.8734 z"
   style="fill:#231f20" /><path
   id="path7"
   d="M 81.761225,39.6523 C 81.761225,36.94195 82.488925,34.82155 83.944325,33.2892 C 85.399725,31.7559 87.278825,30.98925 89.580675,30.98925 C 91.088325,30.98925 92.446825,31.3493 93.657125,32.0694 C 94.867425,32.79045 95.789875,33.79365 96.425425,35.08185 C 97.060975,36.37005 97.377325,37.83115 97.377325,39.46325 C 97.377325,41.1191 97.042925,42.60015 96.375075,43.9064 C 95.707225,45.21265 94.760075,46.20255 93.534575,46.8742 C 92.309075,47.54585 90.987625,47.88215 89.569275,47.88215 C 88.032175,47.88215 86.658475,47.5107 85.448175,46.76875 C 84.237875,46.0268 83.321125,45.0122 82.696975,43.72875 C 82.072825,42.4453 81.761225,41.08585 81.761225,39.6523 z M 83.987075,39.6808 C 83.987075,41.6473 84.516225,43.19675 85.574525,44.32915 C 86.632825,45.46155 87.960925,46.0268 89.556925,46.0268 C 91.183325,46.0268 92.521875,45.4549 93.573525,44.31205 C 94.624225,43.1692 95.149575,41.54755 95.149575,39.4471 C 95.149575,38.119 94.925375,36.95905 94.476025,35.9682 C 94.026675,34.97735 93.369275,34.2088 92.503825,33.6635 C 91.638375,33.1182 90.667475,32.84555 89.591125,32.84555 C 88.061625,32.84555 86.744925,33.3709 85.641975,34.42065 C 84.539025,35.4704 83.987075,37.2241 83.987075,39.6808 z"
   style="fill:#231f20" /><path
   id="path9"
   d="M 99.495825,39.6523 C 99.495825,36.94195 100.22352,34.82155 101.67892,33.2892 C 103.13433,31.7559 105.01342,30.98925 107.31527,30.98925 C 108.82292,30.98925 110.18142,31.3493 111.39172,32.0694 C 112.60202,32.79045 113.52447,33.79365 114.16002,35.08185 C 114.79557,36.37005 115.11192,37.83115 115.11192,39.46325 C 115.11192,41.1191 114.77752,42.60015 114.10967,43.9064 C 113.44182,45.21265 112.49468,46.20255 111.26918,46.8742 C 110.04367,47.54585 108.72222,47.88215 107.30387,47.88215 C 105.76677,47.88215 104.39307,47.5107 103.18278,46.76875 C 101.97248,46.0268 101.05572,45.0122 100.43157,43.72875 C 99.807425,42.4453 99.495825,41.08585 99.495825,39.6523 z M 101.72167,39.6808 C 101.72167,41.6473 102.25082,43.19675 103.30912,44.32915 C 104.36742,45.46155 105.69553,46.0268 107.29152,46.0268 C 108.91792,46.0268 110.25647,45.4549 111.30813,44.31205 C 112.35882,43.1692 112.88417,41.54755 112.88417,39.4471 C 112.88417,38.119 112.65998,36.95905 112.21063,35.9682 C 111.76127,34.97735 111.10388,34.2088 110.23842,33.6635 C 109.37297,33.1182 108.40207,32.84555 107.32572,32.84555 C 105.79622,32.84555 104.47952,33.3709 103.37658,34.42065 C 102.27362,35.4704 101.72167,37.2241 101.72167,39.6808 z"
   style="fill:#231f20" /><path
   id="path11"
   d="M 117.97237,47.6 L 117.97237,31.2714 L 120.13932,31.2714 L 120.13932,37.98125 L 128.58577,37.98125 L 128.58577,31.2714 L 130.75272,31.2714 L 130.75272,47.6 L 128.58577,47.6 L 128.58577,39.9107 L 120.13932,39.9107 L 120.13932,47.6 L 117.97237,47.6 z"
   style="fill:#231f20" />
<path
   id="path15"
   d="M 77.585975,79.58935 L 79.752925,80.13465 C 79.300725,81.91115 78.486575,83.26585 77.312375,84.1978 C 76.137225,85.12975 74.699875,85.59715 73.002225,85.59715 C 71.244725,85.59715 69.815925,85.239 68.714875,84.52175 C 67.613825,83.80545 66.775925,82.76615 66.201175,81.40765 C 65.626425,80.0482 65.339525,78.58805 65.339525,77.0291 C 65.339525,75.3286 65.663475,73.84375 66.312325,72.5774 C 66.961175,71.31105 67.883625,70.34775 69.081575,69.6913 C 70.278575,69.03485 71.595275,68.7052 73.033575,68.7052 C 74.664725,68.7052 76.035575,69.1213 77.147075,69.9535 C 78.259525,70.78665 79.033775,71.9561 79.470775,73.46565 L 77.348475,73.9663 C 76.970375,72.7788 76.422225,71.9143 75.704025,71.3728 C 74.984875,70.8313 74.080475,70.56055 72.991775,70.56055 C 71.739675,70.56055 70.692775,70.86075 69.851075,71.4621 C 69.010325,72.06345 68.419425,72.87 68.078375,73.88365 C 67.737325,74.8973 67.567275,75.94135 67.567275,77.0177 C 67.567275,78.40565 67.768675,79.6169 68.172425,80.6524 C 68.576175,81.6879 69.203175,82.4612 70.055325,82.97325 C 70.907475,83.4853 71.828975,83.7418 72.821725,83.7418 C 74.029175,83.7418 75.050425,83.39315 75.887375,82.6949 C 76.724325,81.99665 77.289575,80.9621 77.585975,79.58935 z"
   style="fill:#231f20" />
<path
   style="fill:#231f20"
   d="M 71.560124,49.975001 L 73.175124,49.975001 L 73.175124,66.505 L 71.560124,66.505 L 71.560124,49.975001 z"
   id="rect17" />
<path
   id="path21"
   d="M 102.47028,95.0525 L 102.47028,78.7239 L 104.63723,78.7239 L 104.63723,85.43375 L 113.08367,85.43375 L 113.08367,78.7239 L 115.25062,78.7239 L 115.25062,95.0525 L 113.08367,95.0525 L 113.08367,87.3632 L 104.63723,87.3632 L 104.63723,95.0525 L 102.47028,95.0525 z"
   style="fill:#231f20" />
<path
   style="fill:#231f20"
   d="M 99.870125,79.9475 L 97.970125,86.93 L 96.497625,86.265 L 98.207625,79.7575 L 99.870125,79.9475 z"
   id="polygon23" />
<path
   style="fill:#231f20"
   d="M 94.597625,79.425 L 93.172625,84.7925 L 91.700125,84.08 L 92.982625,79.235 L 94.597625,79.425 z"
   id="polygon25" />
<path
   style="fill:#231f20"
   d="M 89.372625,78.9025 L 88.375125,82.6075 L 86.855125,81.9425 L 87.757625,78.7125 L 89.372625,78.9025 z"
   id="polygon27" />
<path
   style="fill:#231f20"
   d="M 84.100125,78.38 L 83.577625,80.4225 L 82.057625,79.7575 L 82.485125,78.19 L 84.100125,78.38 z"
   id="polygon29" />
<path
   id="path33"
   d="M 7.446525,104.125 L 7.446525,87.7964 L 9.613475,87.7964 L 9.613475,94.50625 L 18.059925,94.50625 L 18.059925,87.7964 L 20.226875,87.7964 L 20.226875,104.125 L 18.059925,104.125 L 18.059925,96.4357 L 9.613475,96.4357 L 9.613475,104.125 L 7.446525,104.125 z"
   style="fill:#231f20" />
<path
   id="path37"
   d="M 22.135425,105.16335 L 23.634525,104.9553 C 23.808375,105.8065 24.101925,106.4202 24.516125,106.7964 C 24.931275,107.17165 25.439525,107.35975 26.042775,107.35975 C 26.758125,107.35975 27.359475,107.11465 27.846825,106.62635 C 28.334175,106.13615 28.577375,105.53005 28.577375,104.80615 C 28.577375,104.11645 28.351275,103.54835 27.897175,103.09995 C 27.444025,102.65155 26.868325,102.4283 26.169125,102.4283 C 25.883175,102.4283 25.527875,102.48435 25.103225,102.5955 L 25.271375,101.27405 C 25.372075,101.28545 25.452825,101.29115 25.514575,101.29115 C 26.154875,101.29115 26.731525,101.1249 27.244525,100.79145 C 27.757525,100.458 28.014025,99.94405 28.014025,99.2496 C 28.014025,98.69955 27.826875,98.24355 27.452575,97.8835 C 27.078275,97.5225 26.595675,97.342 26.003825,97.342 C 25.417675,97.342 24.928425,97.5263 24.537975,97.8949 C 24.147525,98.2635 23.895775,98.8164 23.784625,99.5536 L 22.285525,99.28665 C 22.468875,98.27775 22.887825,97.4959 23.539525,96.94205 C 24.191225,96.38725 25.002525,96.10985 25.972475,96.10985 C 26.641275,96.10985 27.257825,96.25235 27.820225,96.53925 C 28.382625,96.8252 28.812975,97.21565 29.112225,97.70965 C 29.409575,98.2046 29.559675,98.729 29.559675,99.28475 C 29.559675,99.81295 29.418125,100.29365 29.134075,100.72685 C 28.850025,101.16005 28.430125,101.50395 27.873425,101.76045 C 28.597325,101.92765 29.159725,102.2744 29.563475,102.79975 C 29.966275,103.327 30.168625,103.9844 30.168625,104.7748 C 30.168625,105.8445 29.778175,106.74985 28.997275,107.49275 C 28.216375,108.23565 27.229325,108.60805 26.036125,108.60805 C 24.959775,108.60805 24.065825,108.2879 23.355225,107.6495 C 22.640825,107.0092 22.235175,106.18175 22.135425,105.16335 z"
   style="fill:#231f20" />
<path
   id="path41"
   d="M 43.583575,98.3984 L 45.750525,98.9437 C 45.298325,100.7202 44.484175,102.0749 43.309975,103.00685 C 42.134825,103.9388 40.697475,104.4062 38.999825,104.4062 C 37.242325,104.4062 35.813525,104.04805 34.712475,103.3308 C 33.611425,102.6145 32.773525,101.5752 32.198775,100.2167 C 31.624025,98.85725 31.337125,97.3971 31.337125,95.83815 C 31.337125,94.13765 31.661075,92.6528 32.309925,91.38645 C 32.958775,90.1201 33.881225,89.1568 35.079175,88.50035 C 36.276175,87.8439 37.592875,87.51425 39.031175,87.51425 C 40.662325,87.51425 42.033175,87.93035 43.144675,88.76255 C 44.257125,89.5957 45.031375,90.76515 45.468375,92.2747 L 43.346075,92.77535 C 42.967975,91.58785 42.419825,90.72335 41.701625,90.18185 C 40.982475,89.64035 40.078075,89.3696 38.989375,89.3696 C 37.737275,89.3696 36.690375,89.6698 35.848675,90.27115 C 35.007925,90.8725 34.417025,91.67905 34.075975,92.6927 C 33.734925,93.70635 33.564875,94.7504 33.564875,95.82675 C 33.564875,97.2147 33.766275,98.42595 34.170025,99.46145 C 34.573775,100.49695 35.200775,101.27025 36.052925,101.7823 C 36.905075,102.29435 37.826575,102.55085 38.819325,102.55085 C 40.026775,102.55085 41.048025,102.2022 41.884975,101.50395 C 42.721925,100.8057 43.287175,99.7721 43.583575,98.3984 z"
   style="fill:#231f20" />
<path
   style="fill:#231f20"
   d="M 48.760125,90.8725 L 47.952625,89.495 L 63.200125,80.7075 L 64.007625,82.085 L 48.760125,90.8725 z"
   id="polygon43" />
<path
   id="path47"
   d="M 74.320825,113.7523 C 74.320825,111.04195 75.048525,108.92155 76.503925,107.3892 C 77.959325,105.8559 79.838425,105.08925 82.140275,105.08925 C 83.647925,105.08925 85.006425,105.4493 86.216725,106.1694 C 87.427025,106.89045 88.349475,107.89365 88.985025,109.18185 C 89.620575,110.47005 89.936925,111.93115 89.936925,113.56325 C 89.936925,115.2191 89.602525,116.70015 88.934675,118.0064 C 88.266825,119.31265 87.319675,120.30255 86.094175,120.9742 C 84.868675,121.64585 83.547225,121.98215 82.128875,121.98215 C 80.591775,121.98215 79.218075,121.6107 78.007775,120.86875 C 76.797475,120.1268 75.880725,119.1122 75.256575,117.82875 C 74.632425,116.5453 74.320825,115.18585 74.320825,113.7523 z M 76.546675,113.7808 C 76.546675,115.7473 77.075825,117.29675 78.134125,118.42915 C 79.192425,119.56155 80.520525,120.1268 82.116525,120.1268 C 83.742925,120.1268 85.081475,119.5549 86.133125,118.41205 C 87.183825,117.2692 87.709175,115.64755 87.709175,113.5471 C 87.709175,112.219 87.484975,111.05905 87.035625,110.0682 C 86.586275,109.07735 85.928875,108.3088 85.063425,107.7635 C 84.197975,107.2182 83.227075,106.94555 82.150725,106.94555 C 80.621225,106.94555 79.304525,107.4709 78.201575,108.52065 C 77.098625,109.5704 76.546675,111.3241 76.546675,113.7808 z"
   style="fill:#231f20" /><path
   id="path49"
   d="M 92.797375,121.7 L 92.797375,105.3714 L 94.964325,105.3714 L 94.964325,112.08125 L 103.41078,112.08125 L 103.41078,105.3714 L 105.57773,105.3714 L 105.57773,121.7 L 103.41078,121.7 L 103.41078,114.0107 L 94.964325,114.0107 L 94.964325,121.7 L 92.797375,121.7 z"
   style="fill:#231f20" />
<path
   style="fill:#231f20"
   d="M 83.102625,102.225 L 76.072625,104.125 L 74.600125,87.6425 L 76.167625,87.215 L 83.102625,102.225 z"
   id="polygon51" />
<path
   style="fill:none;stroke:#231f20;stroke-width:1.35000002;stroke-dasharray:4.25"
   d="M 148.17763,144.68999 L 148.17763,3.7099998"
   id="line53" />
<path
   id="path57"
   d="M 167.11777,47.6 L 167.11777,31.2714 L 169.28472,31.2714 L 169.28472,37.98125 L 177.73118,37.98125 L 177.73118,31.2714 L 179.89812,31.2714 L 179.89812,47.6 L 177.73118,47.6 L 177.73118,39.9107 L 169.28472,39.9107 L 169.28472,47.6 L 167.11777,47.6 z"
   style="fill:#231f20" /><path
   id="path59"
   d="M 182.84122,39.6523 C 182.84122,36.94195 183.56892,34.82155 185.02432,33.2892 C 186.47972,31.7559 188.35882,30.98925 190.66067,30.98925 C 192.16832,30.98925 193.52777,31.3493 194.73712,32.0694 C 195.94647,32.79045 196.86987,33.79365 197.50543,35.08185 C 198.14002,36.3691 198.45732,37.83115 198.45732,39.46325 C 198.45732,41.1191 198.12292,42.60015 197.45507,43.9064 C 196.78627,45.21265 195.83912,46.20255 194.61457,46.8742 C 193.38907,47.54585 192.06667,47.88215 190.64927,47.88215 C 189.11217,47.88215 187.73847,47.5107 186.52817,46.76875 C 185.31787,46.0268 184.40112,45.0122 183.77697,43.72875 C 183.15282,42.44435 182.84122,41.08585 182.84122,39.6523 z M 185.06802,39.6808 C 185.06802,41.6473 185.59717,43.19675 186.65547,44.32915 C 187.71377,45.46155 189.04187,46.0268 190.63787,46.0268 C 192.26427,46.0268 193.60282,45.4549 194.65447,44.31205 C 195.70612,43.1692 196.23052,41.54755 196.23052,39.4471 C 196.23052,38.119 196.00633,36.95905 195.55697,35.9682 C 195.10667,34.97735 194.44927,34.2088 193.58477,33.6635 C 192.72027,33.1182 191.74842,32.84555 190.67207,32.84555 C 189.14257,32.84555 187.82587,33.3709 186.72292,34.42065 C 185.61997,35.4704 185.06802,37.2241 185.06802,39.6808 z"
   style="fill:#231f20" /><path
   id="path61"
   d="M 200.57582,39.6523 C 200.57582,36.94195 201.30352,34.82155 202.75893,33.2892 C 204.21432,31.7559 206.09342,30.98925 208.39527,30.98925 C 209.90292,30.98925 211.26237,31.3493 212.47172,32.0694 C 213.68107,32.79045 214.60447,33.79365 215.24002,35.08185 C 215.87462,36.3691 216.19192,37.83115 216.19192,39.46325 C 216.19192,41.1191 215.85752,42.60015 215.18967,43.9064 C 214.52087,45.21265 213.57372,46.20255 212.34918,46.8742 C 211.12367,47.54585 209.80127,47.88215 208.38387,47.88215 C 206.84677,47.88215 205.47307,47.5107 204.26278,46.76875 C 203.05247,46.0268 202.13572,45.0122 201.51157,43.72875 C 200.88743,42.44435 200.57582,41.08585 200.57582,39.6523 z M 202.80262,39.6808 C 202.80262,41.6473 203.33177,43.19675 204.39007,44.32915 C 205.44837,45.46155 206.77647,46.0268 208.37247,46.0268 C 209.99887,46.0268 211.33742,45.4549 212.38907,44.31205 C 213.44072,43.1692 213.96512,41.54755 213.96512,39.4471 C 213.96512,38.119 213.74092,36.95905 213.29157,35.9682 C 212.84127,34.97735 212.18387,34.2088 211.31937,33.6635 C 210.45487,33.1182 209.48302,32.84555 208.40667,32.84555 C 206.87717,32.84555 205.56047,33.3709 204.45752,34.42065 C 203.35457,35.4704 202.80262,37.2241 202.80262,39.6808 z"
   style="fill:#231f20" /><path
   id="path63"
   d="M 230.60057,41.8734 L 232.76752,42.4187 C 232.31437,44.1952 231.50117,45.5499 230.32697,46.48185 C 229.15182,47.4138 227.71542,47.8812 226.01777,47.8812 C 224.26027,47.8812 222.83147,47.52305 221.72947,46.8058 C 220.62842,46.0895 219.79052,45.0502 219.21577,43.6917 C 218.64102,42.3332 218.35412,40.8721 218.35412,39.31315 C 218.35412,37.61265 218.67902,36.1278 219.32597,34.86145 C 219.97577,33.5951 220.89727,32.6318 222.09522,31.97535 C 223.29222,31.3189 224.60892,30.98925 226.04722,30.98925 C 227.67837,30.98925 229.04922,31.40535 230.16072,32.23755 C 231.27317,33.0707 232.04647,34.24015 232.48442,35.7497 L 230.36212,36.25035 C 229.98402,35.06285 229.43587,34.19835 228.71767,33.65685 C 227.99947,33.11535 227.09412,32.8446 226.00542,32.8446 C 224.75332,32.8446 223.70642,33.1448 222.86472,33.74615 C 222.02397,34.3475 221.43212,35.15405 221.09202,36.1677 C 220.75192,37.18135 220.58092,38.2254 220.58092,39.30175 C 220.58092,40.6897 220.78327,41.90095 221.18607,42.93645 C 221.59077,43.97195 222.21777,44.74525 223.06897,45.2573 C 223.92017,45.76935 224.84262,46.02585 225.83537,46.02585 C 227.04187,46.02585 228.06408,45.6772 228.90102,44.97895 C 229.73797,44.2807 230.30417,43.2471 230.60057,41.8734 z"
   style="fill:#231f20" />
<path
   id="path67"
   d="M 230.58442,79.58935 L 232.75137,80.13465 C 232.29822,81.91115 231.48407,83.26585 230.30987,84.1978 C 229.13567,85.12975 227.69832,85.59715 226.00067,85.59715 C 224.24317,85.59715 222.81437,85.239 221.71332,84.52175 C 220.61132,83.80545 219.77437,82.76615 219.19962,81.40765 C 218.62582,80.0482 218.33892,78.58805 218.33892,77.0291 C 218.33892,75.3286 218.66287,73.84375 219.31077,72.5774 C 219.95867,71.31105 220.88207,70.34775 222.07907,69.6913 C 223.27607,69.03485 224.59277,68.7052 226.03107,68.7052 C 227.66222,68.7052 229.03307,69.1213 230.14457,69.9535 C 231.25797,70.78665 232.03127,71.9561 232.46922,73.46565 L 230.34692,73.9663 C 229.96882,72.7788 229.41972,71.9143 228.70152,71.3728 C 227.98332,70.8313 227.07797,70.56055 225.98927,70.56055 C 224.73717,70.56055 223.69027,70.86075 222.84952,71.4621 C 222.00782,72.06345 221.41692,72.87 221.07587,73.88365 C 220.73577,74.89635 220.56572,75.94135 220.56572,77.0177 C 220.56572,78.40565 220.76712,79.6169 221.17087,80.6524 C 221.57462,81.6879 222.20257,82.4612 223.05378,82.97325 C 223.90497,83.4853 224.82742,83.7418 225.81922,83.7418 C 227.02667,83.7418 228.04887,83.39315 228.88582,82.6949 C 229.72277,81.99665 230.28707,80.9621 230.58442,79.58935 z"
   style="fill:#231f20" />
<path
   style="fill:#231f20"
   d="M 224.55762,49.975001 L 226.17167,49.975001 L 226.17167,66.505 L 224.55762,66.505 L 224.55762,49.975001 z"
   id="rect69" />
<path
   id="path73"
   d="M 182.60277,95.0525 L 182.60277,78.7239 L 184.76972,78.7239 L 184.76972,85.43375 L 193.21617,85.43375 L 193.21617,78.7239 L 195.38312,78.7239 L 195.38312,95.0525 L 193.21617,95.0525 L 193.21617,87.3632 L 184.76972,87.3632 L 184.76972,95.0525 L 182.60277,95.0525 z"
   style="fill:#231f20" />
<path
   style="fill:#231f20"
   d="M 199.85762,86.93 L 198.00512,79.9 L 199.62013,79.71 L 201.37762,86.265 L 199.85762,86.93 z"
   id="polygon75" />
<path
   style="fill:#231f20"
   d="M 204.84512,84.6975 L 203.42012,79.33 L 205.03417,79.1875 L 206.36512,84.0325 L 204.84512,84.6975 z"
   id="polygon77" />
<path
   style="fill:#231f20"
   d="M 209.83262,82.465 L 208.83417,78.76 L 210.45012,78.6175 L 211.30512,81.8 L 209.83262,82.465 z"
   id="polygon79" />
<path
   style="fill:#231f20"
   d="M 214.82012,80.28 L 214.25012,78.19 L 215.86512,78.0475 L 216.29262,79.615 L 214.82012,80.28 z"
   id="polygon81" />
<path
   id="path85"
   d="M 263.16942,98.3984 L 265.33637,98.9437 C 264.88417,100.7202 264.07002,102.0749 262.89583,103.00685 C 261.72067,103.9388 260.28332,104.4062 258.58567,104.4062 C 256.82817,104.4062 255.39937,104.04805 254.29832,103.3308 C 253.19727,102.6145 252.35937,101.5752 251.78462,100.2167 C 251.20987,98.85725 250.92297,97.3971 250.92297,95.83815 C 250.92297,94.13765 251.24692,92.6528 251.89577,91.38645 C 252.54367,90.1201 253.46612,89.1568 254.66407,88.50035 C 255.86107,87.8439 257.17777,87.51425 258.61607,87.51425 C 260.24722,87.51425 261.61807,87.93035 262.72957,88.76255 C 263.84202,89.5957 264.61627,90.76515 265.05327,92.2747 L 262.93097,92.77535 C 262.55382,91.58785 262.00377,90.72335 261.28652,90.18185 C 260.56737,89.64035 259.66297,89.3696 258.57428,89.3696 C 257.32217,89.3696 256.27527,89.6698 255.43357,90.27115 C 254.59187,90.8725 254.00192,91.67905 253.66087,92.6927 C 253.31982,93.70635 253.14977,94.7504 253.14977,95.82675 C 253.14977,97.2147 253.35117,98.42595 253.75588,99.46145 C 254.15867,100.49695 254.78662,101.27025 255.63782,101.7823 C 256.48902,102.29435 257.41147,102.55085 258.40328,102.55085 C 259.61072,102.55085 260.63292,102.2022 261.46987,101.50395 C 262.30682,100.8057 262.87302,99.7721 263.16942,98.3984 z"
   style="fill:#231f20" /><path
   id="path87"
   d="M 268.08567,104.125 L 268.08567,87.7964 L 270.25262,87.7964 L 270.25262,94.50625 L 278.69907,94.50625 L 278.69907,87.7964 L 280.86602,87.7964 L 280.86602,104.125 L 278.69907,104.125 L 278.69907,96.4357 L 270.25262,96.4357 L 270.25262,104.125 L 268.08567,104.125 z"
   style="fill:#231f20" />
<path
   id="path91"
   d="M 282.38317,105.16335 L 283.88227,104.9553 C 284.05707,105.8065 284.34967,106.4202 284.76387,106.7964 C 285.17997,107.17165 285.68822,107.35975 286.29052,107.35975 C 287.00682,107.35975 287.60817,107.11465 288.09457,106.62635 C 288.58192,106.13615 288.82512,105.53005 288.82512,104.80615 C 288.82512,104.11645 288.59902,103.54835 288.14587,103.09995 C 287.69272,102.65155 287.11607,102.4283 286.41688,102.4283 C 286.13092,102.4283 285.77657,102.48435 285.35192,102.5955 L 285.51912,101.27405 C 285.61982,101.28545 285.70057,101.29115 285.76232,101.29115 C 286.40357,101.29115 286.97927,101.1249 287.49322,100.79145 C 288.00527,100.458 288.26178,99.94405 288.26178,99.2496 C 288.26178,98.69955 288.07462,98.24355 287.70127,97.8835 C 287.32602,97.5225 286.84437,97.342 286.25252,97.342 C 285.66637,97.342 285.17617,97.5263 284.78572,97.8949 C 284.39527,98.2635 284.14257,98.8164 284.03142,99.5536 L 282.53233,99.28665 C 282.71567,98.27775 283.13557,97.4959 283.78632,96.94205 C 284.43897,96.38725 285.24932,96.10985 286.21927,96.10985 C 286.88902,96.10985 287.50557,96.25235 288.06702,96.53925 C 288.62942,96.8252 289.05977,97.21565 289.35807,97.70965 C 289.65637,98.20365 289.80552,98.729 289.80552,99.28475 C 289.80552,99.81295 289.66492,100.29365 289.38088,100.72685 C 289.09682,101.16005 288.67597,101.50395 288.11927,101.76045 C 288.84317,101.92765 289.40652,102.2744 289.80932,102.79975 C 290.21307,103.327 290.41447,103.9844 290.41447,104.7748 C 290.41447,105.8445 290.02497,106.74985 289.24408,107.49275 C 288.46317,108.23565 287.47612,108.60805 286.28292,108.60805 C 285.20657,108.60805 284.31262,108.2879 283.60202,107.6495 C 282.88952,107.0092 282.48387,106.18175 282.38317,105.16335 z"
   style="fill:#231f20" />
<path
   style="fill:#231f20"
   d="M 250.30262,89.78 L 249.49512,91.1575 L 234.34262,82.465 L 235.15012,81.04 L 250.30262,89.78 z"
   id="polygon93" />
<path
   id="path97"
   d="M 192.19872,121.7 L 192.19872,105.3714 L 194.36567,105.3714 L 194.36567,112.08125 L 202.81212,112.08125 L 202.81212,105.3714 L 204.97907,105.3714 L 204.97907,121.7 L 202.81212,121.7 L 202.81212,114.0107 L 194.36567,114.0107 L 194.36567,121.7 L 192.19872,121.7 z"
   style="fill:#231f20" /><path
   id="path99"
   d="M 207.92122,113.7523 C 207.92122,111.04195 208.64892,108.92155 210.10337,107.3892 C 211.55972,105.8559 213.43787,105.08925 215.74067,105.08925 C 217.24737,105.08925 218.60682,105.4493 219.81712,106.1694 C 221.02647,106.89045 221.94892,107.89365 222.58447,109.18185 C 223.22002,110.47005 223.53732,111.93115 223.53732,113.56325 C 223.53732,115.2191 223.20292,116.70015 222.53412,118.0064 C 221.86532,119.31265 220.91912,120.30255 219.69457,120.9742 C 218.46812,121.64585 217.14667,121.98215 215.72927,121.98215 C 214.19122,121.98215 212.81847,121.6107 211.60817,120.86875 C 210.39692,120.1268 209.48017,119.1122 208.85697,117.82875 C 208.23377,116.5453 207.92122,115.18585 207.92122,113.7523 z M 210.14802,113.7808 C 210.14802,115.7473 210.67717,117.29675 211.73452,118.42915 C 212.79377,119.5606 214.12092,120.1268 215.71787,120.1268 C 217.34332,120.1268 218.68282,119.5549 219.73352,118.41205 C 220.78422,117.2692 221.31052,115.64755 221.31052,113.5471 C 221.31052,112.219 221.08632,111.05905 220.63602,110.0682 C 220.18572,109.07735 219.52927,108.3088 218.66477,107.7635 C 217.79932,107.2182 216.82747,106.94555 215.75207,106.94555 C 214.22162,106.94555 212.90587,107.4709 211.80197,108.52065 C 210.69902,109.5704 210.14802,111.3241 210.14802,113.7808 z"
   style="fill:#231f20" />
<path
   style="fill:#231f20"
   d="M 221.70762,104.125 L 214.67762,102.225 L 221.65917,87.0725 L 223.22762,87.5 L 221.70762,104.125 z"
   id="polygon101" />
</svg>