<?xml version="1.0" standalone='no'?><!-- IBoard SVG File --><svg xmlns="http://www.w3.org/2000/svg" xmlns:xlink="http://www.w3.org/1999/xlink" viewBox="113.55 -172.67 125.33 102.59" height="95.59" width="132.33" version="1.1"><!-- SVG File --><text xml:space="preserve" x="135.521957" y="-140.456924" textLength="8.670000" lengthAdjust="spacingAndGlyphs"><tspan font-family="Times New Roman" font-weight="normal" baseline-shift="0" font-size="13" fill="#000000">C</tspan></text><polygon points="145.341400,-149.738022 163.792633,-149.871078 163.796890,-149.281494 163.801147,-148.691910 145.349915,-148.558853 145.345657,-149.148438 " style="fill:rgb(0,0,0);fill-opacity:1.000000"/><polygon points="145.366913,-146.200470 163.818146,-146.333527 163.822403,-145.743942 163.826660,-145.154358 145.375427,-145.021301 145.371170,-145.610886 " style="fill:rgb(0,0,0);fill-opacity:1.000000"/><text xml:space="preserve" x="165.001617" y="-140.669510" textLength="8.670000" lengthAdjust="spacingAndGlyphs"><tspan font-family="Times New Roman" font-weight="normal" baseline-shift="0" font-size="13" fill="#000000">C</tspan></text><polygon points="174.418579,-152.128830 183.081223,-161.466873 183.513474,-161.065887 183.945724,-160.664902 175.283081,-151.326859 174.850830,-151.727844 " style="fill:rgb(0,0,0);fill-opacity:1.000000"/><text xml:space="preserve" x="184.692688" y="-162.282120" textLength="9.386666" lengthAdjust="spacingAndGlyphs"><tspan font-family="Times New Roman" font-weight="normal" baseline-shift="0" font-size="13" fill="#000000">H</tspan></text><polygon points="134.774994,-139.225998 126.112328,-129.887924 125.680077,-130.288910 125.247826,-130.689896 133.910492,-140.027969 134.342743,-139.626984 " style="fill:rgb(0,0,0);fill-opacity:1.000000"/><text xml:space="preserve" x="115.114197" y="-118.844299" textLength="9.386666" lengthAdjust="spacingAndGlyphs"><tspan font-family="Times New Roman" font-weight="normal" baseline-shift="0" font-size="13" fill="#000000">H</tspan></text><polygon points="133.941757,-150.254303 123.715904,-159.740616 124.116898,-160.172867 124.517891,-160.605118 134.743729,-151.118805 134.342743,-150.686554 " style="fill:rgb(0,0,0);fill-opacity:1.000000"/><text xml:space="preserve" x="113.551018" y="-160.506516" textLength="9.386666" lengthAdjust="spacingAndGlyphs"><tspan font-family="Times New Roman" font-weight="normal" baseline-shift="0" font-size="13" fill="#000000">H</tspan></text><polygon points="175.259659,-140.902374 185.325836,-131.215927 184.917007,-130.791077 184.508179,-130.366226 174.442001,-140.052673 174.850830,-140.477524 " style="fill:rgb(0,0,0);fill-opacity:1.000000"/><text xml:space="preserve" x="186.096222" y="-120.370697" textLength="8.670000" lengthAdjust="spacingAndGlyphs"><tspan font-family="Times New Roman" font-weight="normal" baseline-shift="0" font-size="13" fill="#000000">C</tspan></text><polygon points="198.933517,-122.544434 207.046021,-114.029938 206.619156,-113.623222 206.192291,-113.216507 198.079788,-121.731003 198.506653,-122.137718 " style="fill:rgb(0,0,0);fill-opacity:1.000000"/><polygon points="196.372299,-120.104141 204.484802,-111.589645 204.057938,-111.182930 203.631073,-110.776215 195.518570,-119.290710 195.945435,-119.697426 " style="fill:rgb(0,0,0);fill-opacity:1.000000"/><polygon points="193.811081,-117.663849 201.923584,-109.149353 201.496719,-108.742638 201.069855,-108.335922 192.957352,-116.850418 193.384216,-117.257133 " style="fill:rgb(0,0,0);fill-opacity:1.000000"/><text xml:space="preserve" x="205.237152" y="-100.281273" textLength="8.670000" lengthAdjust="spacingAndGlyphs"><tspan font-family="Times New Roman" font-weight="normal" baseline-shift="0" font-size="13" fill="#000000">C</tspan></text><polygon points="215.487350,-100.712357 225.713318,-91.226036 225.312332,-90.793785 224.911346,-90.361534 214.685379,-99.847855 215.086365,-100.280106 " style="fill:rgb(0,0,0);fill-opacity:1.000000"/><text xml:space="preserve" x="226.491547" y="-80.231789" textLength="9.386666" lengthAdjust="spacingAndGlyphs"><tspan font-family="Times New Roman" font-weight="normal" baseline-shift="0" font-size="13" fill="#000000">H</tspan></text></svg>