<svg width="1341" height="437" xmlns="http://www.w3.org/2000/svg" xmlns:xlink="http://www.w3.org/1999/xlink" xml:space="preserve" overflow="hidden"><g transform="translate(-1533 -1030)"><path d="M1533 1185.87 1622.95 1134 1622.97 1136.24 1623 1138.49 1537.14 1188 1535.07 1186.93Z" fill-rule="evenodd"/><path d="M1623 1134 1712 1182.71 1712 1184.92 1709.94 1186 1623.05 1138.44 1623.02 1136.22Z" fill-rule="evenodd"/><path d="M1624.11 1148 1701 1190.67 1699.94 1192.33 1698.89 1194 1622 1151.33 1623.06 1149.67Z" fill-rule="evenodd"/><path d="M1712 1182.71 1802 1134 1801.83 1136.3 1801.65 1138.6 1714.07 1186 1712 1184.92Z" fill-rule="evenodd"/><path d="M1801.35 1134 1884 1194.98 1882.71 1196.49 1881.41 1198 1801 1138.67 1801.17 1136.33Z" fill-rule="evenodd"/><path d="M1801.57 1149 1876 1204 1874.71 1205.5 1873.43 1207 1799 1152 1800.29 1150.5Z" fill-rule="evenodd"/><path d="M1710 1284.86 1710 1186.09 1712 1185 1714 1186.09 1714 1287 1712 1285.93Z" fill-rule="evenodd"/><path d="M1622 1321.72 1698.85 1278 1699.93 1279.64 1701 1281.28 1624.15 1325 1623.08 1323.36Z" fill-rule="evenodd"/><path d="M1623.02 1334.49 1709.89 1285 1711.95 1286.08 1714 1287.15 1623 1339 1623.01 1336.75Z" fill-rule="evenodd"/><path d="M1537.14 1285 1623 1334.49 1622.99 1336.75 1622.98 1339 1533 1287.13 1535.07 1286.07Z" fill-rule="evenodd"/><path d="M1533 1287 1533 1186 1535 1187.05 1537 1188.11 1537 1284.89 1535 1285.95Z" fill-rule="evenodd"/><path d="M1546 1280 1546 1193 1548 1193 1550 1193 1550 1280 1548 1280Z" fill-rule="evenodd"/><path d="M1922 1237 2152 1237" stroke="#000000" stroke-width="4.12825" stroke-miterlimit="8" stroke-dasharray="7.30213 7.30213" fill="none" fill-rule="evenodd"/><path d="M2187 1236.5 2145 1227 2151.3 1236.5 2145 1246Z" fill-rule="evenodd"/><path d="M2698.51 1299 2674 1258.91 2675.74 1257.95 2677.49 1257 2702 1297.1 2700.25 1298.05Z" fill-rule="evenodd"/><path d="M2709.39 1293 2684 1252.9 2685.81 1251.95 2687.62 1251 2713 1291.09 2711.19 1292.05Z" fill-rule="evenodd"/><text font-family="Source Han Serif SC Heavy,Source Han Serif SC Heavy_MSFontService,sans-serif" font-weight="900" font-size="45" transform="matrix(1 0 0 1 2697.42 1337)">C</text><text font-family="Source Han Serif SC Heavy,Source Han Serif SC Heavy_MSFontService,sans-serif" font-weight="900" font-size="45" transform="matrix(1 0 0 1 2651.27 1428)">H</text><text font-family="Source Han Serif SC Heavy,Source Han Serif SC Heavy_MSFontService,sans-serif" font-weight="900" font-size="45" transform="matrix(1 0 0 1 2645.82 1255)">C</text><path d="M2425 1317 2487 1317 2487 1319 2487 1321 2425 1321 2425 1319Z" fill-rule="evenodd"/><text font-family="Source Han Serif SC Heavy,Source Han Serif SC Heavy_MSFontService,sans-serif" font-weight="900" font-size="45" transform="matrix(1 0 0 1 2491.01 1337)">C</text><path d="M2558 1264.91 2533.49 1305 2531.74 1304.05 2530 1303.1 2554.51 1263 2556.25 1263.95Z" fill-rule="evenodd"/><path d="M2548 1258.91 2522.62 1299 2520.81 1298.05 2519 1297.1 2544.39 1257 2546.19 1257.95Z" fill-rule="evenodd"/><text font-family="Source Han Serif SC Heavy,Source Han Serif SC Heavy_MSFontService,sans-serif" font-weight="900" font-size="45" transform="matrix(1 0 0 1 2542.62 1255)">C</text><path d="M2580 1235 2642 1235 2642 1237 2642 1239 2580 1239 2580 1237Z" fill-rule="evenodd"/><path d="M2522.62 1174 2548 1214.09 2546.19 1215.05 2544.39 1216 2519 1175.9 2520.81 1174.95Z" fill-rule="evenodd"/><text font-family="Source Han Serif SC Heavy,Source Han Serif SC Heavy_MSFontService,sans-serif" font-weight="900" font-size="45" transform="matrix(1 0 0 1 2491.01 1172)">C</text><path d="M2487 1156 2425 1156 2425 1154 2425 1152 2487 1152 2487 1154Z" fill-rule="evenodd"/><path d="M2487 1144 2425 1144 2425 1142 2425 1140 2487 1140 2487 1142Z" fill-rule="evenodd"/><text font-family="Source Han Serif SC Heavy,Source Han Serif SC Heavy_MSFontService,sans-serif" font-weight="900" font-size="45" transform="matrix(1 0 0 1 2387.81 1172)">C</text><path d="M2364 1214.09 2389.38 1174 2391.19 1174.95 2393 1175.9 2367.62 1216 2365.81 1215.05Z" fill-rule="evenodd"/><text font-family="Source Han Serif SC Heavy,Source Han Serif SC Heavy_MSFontService,sans-serif" font-weight="900" font-size="45" transform="matrix(1 0 0 1 2387.81 1337)">C</text><text font-family="Source Han Serif SC Heavy,Source Han Serif SC Heavy_MSFontService,sans-serif" font-weight="900" font-size="45" transform="matrix(1 0 0 1 2336.2 1255)">C</text><path d="M2367.62 1257 2393 1297.1 2391.19 1298.05 2389.38 1299 2364 1258.91 2365.81 1257.95Z" fill-rule="evenodd"/><path d="M2356.62 1263 2382 1303.1 2380.19 1304.05 2378.39 1305 2353 1264.91 2354.81 1263.95Z" fill-rule="evenodd"/><path d="M2393 1341.91 2367.62 1382 2365.81 1381.05 2364 1380.1 2389.38 1340 2391.19 1340.95Z" fill-rule="evenodd"/><text font-family="Source Han Serif SC Heavy,Source Han Serif SC Heavy_MSFontService,sans-serif" font-weight="900" font-size="45" transform="matrix(1 0 0 1 2336.2 1420)">H</text><path d="M2332 1239 2270 1239 2270 1237 2270 1235 2332 1235 2332 1237Z" fill-rule="evenodd"/><text font-family="Source Han Serif SC Heavy,Source Han Serif SC Heavy_MSFontService,sans-serif" font-weight="900" font-size="45" transform="matrix(1 0 0 1 2233 1255)">H</text><path d="M2389.38 1134 2364 1092.95 2365.81 1091.98 2367.62 1091 2393 1132.05 2391.19 1133.03Z" fill-rule="evenodd"/><text font-family="Source Han Serif SC Heavy,Source Han Serif SC Heavy_MSFontService,sans-serif" font-weight="900" font-size="45" transform="matrix(1 0 0 1 2336.2 1089)">H</text><path d="M2519 1132.05 2544.39 1091 2546.19 1091.98 2548 1092.95 2522.62 1134 2520.81 1133.03Z" fill-rule="evenodd"/><text font-family="Source Han Serif SC Heavy,Source Han Serif SC Heavy_MSFontService,sans-serif" font-weight="900" font-size="45" transform="matrix(1 0 0 1 2542.62 1089)">H</text><path d="M2522.62 1340 2548 1380.1 2546.19 1381.05 2544.39 1382 2519 1341.91 2520.81 1340.95Z" fill-rule="evenodd"/><text font-family="Source Han Serif SC Heavy,Source Han Serif SC Heavy_MSFontService,sans-serif" font-weight="900" font-size="45" transform="matrix(1 0 0 1 2542.62 1420)">H</text><path d="M2674 1214.09 2698.51 1174 2700.25 1174.95 2702 1175.9 2677.49 1216 2675.74 1215.05Z" fill-rule="evenodd"/><text font-family="Source Han Serif SC Heavy,Source Han Serif SC Heavy_MSFontService,sans-serif" font-weight="900" font-size="45" transform="matrix(1 0 0 1 2697.42 1172)">H</text><path d="M2734 1317 2796 1317 2796 1319 2796 1321 2734 1321 2734 1319Z" fill-rule="evenodd"/><text font-family="Source Han Serif SC Heavy,Source Han Serif SC Heavy_MSFontService,sans-serif" font-weight="900" font-size="45" transform="matrix(1 0 0 1 2800.63 1337)">H</text><path d="M2676 1384.1 2701.38 1344 2703.19 1344.95 2705 1345.9 2679.62 1386 2677.81 1385.05Z" fill-rule="evenodd"/></g></svg>