<?xml version="1.0" standalone='no'?><!-- IBoard SVG File --><svg xmlns="http://www.w3.org/2000/svg" xmlns:xlink="http://www.w3.org/1999/xlink" viewBox="153.96 46.77 282.04 151.57" height="144.57" width="289.04" version="1.1"><!-- SVG File --><polygon points="159.067490,168.280136 167.378357,142.804367 167.833344,143.310791 168.288284,143.817307 160.188568,168.645905 159.628021,168.462967 " style="fill:rgb(0,0,0);fill-opacity:1.000000"/><polygon points="193.507126,138.487900 168.288284,143.817307 167.833344,143.310791 167.378357,142.804367 193.263321,137.334198 193.718262,137.840668 " style="fill:rgb(0,0,0);fill-opacity:1.000000"/><polygon points="194.384354,137.699905 211.609207,156.875519 211.398056,157.522736 210.731949,157.663498 193.507126,138.487900 193.718262,137.840668 " style="fill:rgb(0,0,0);fill-opacity:1.000000"/><polygon points="211.852997,158.029205 203.753403,182.857605 203.192932,182.674683 202.632385,182.491821 210.731949,157.663498 211.398056,157.522736 " style="fill:rgb(0,0,0);fill-opacity:1.000000"/><polygon points="211.609207,156.875519 237.161316,151.475693 237.283173,152.052567 237.405075,152.629410 211.852997,158.029205 211.398056,157.522736 " style="fill:rgb(0,0,0);fill-opacity:1.000000"/><polygon points="202.378525,113.194992 194.384354,137.699905 193.718262,137.840668 193.263321,137.334198 201.468582,112.181992 201.923538,112.688545 " style="fill:rgb(0,0,0);fill-opacity:1.000000"/><polygon points="228.263626,107.724739 202.378525,113.194992 201.923538,112.688545 201.468582,112.181992 227.353699,106.711792 227.808670,107.218269 " style="fill:rgb(0,0,0);fill-opacity:1.000000"/><polygon points="225.480804,105.067940 201.389038,110.159142 201.267105,109.582291 201.145264,109.005417 225.237000,103.914223 225.358887,104.491096 " style="fill:rgb(0,0,0);fill-opacity:1.000000"/><polygon points="236.468750,82.572685 228.263641,107.724739 227.808670,107.218269 227.353714,106.711792 235.347687,82.206963 236.013794,82.066200 " style="fill:rgb(0,0,0);fill-opacity:1.000000"/><polygon points="218.772675,61.990105 236.224945,81.418953 236.013794,82.066200 235.347687,82.206963 217.895416,62.778114 218.334045,62.384109 " style="fill:rgb(0,0,0);fill-opacity:1.000000"/><polygon points="261.726685,77.235062 236.468750,82.572685 236.013794,82.066200 236.224945,81.418953 261.482910,76.081322 261.898621,76.596100 " style="fill:rgb(0,0,0);fill-opacity:1.000000"/><polygon points="280.469879,94.151611 261.726685,77.235054 261.898621,76.596100 262.611786,76.445389 281.615906,93.597511 281.539001,94.322250 " style="fill:rgb(0,0,0);fill-opacity:1.000000"/><polygon points="280.948395,95.229462 257.596100,105.593613 257.356964,105.054695 257.117828,104.515755 280.469879,94.151611 281.539001,94.322250 " style="fill:rgb(0,0,0);fill-opacity:1.000000"/><polygon points="280.917725,121.118576 280.948395,95.229469 281.539001,94.322250 282.128174,94.663345 282.097870,120.439178 281.507751,120.778839 " style="fill:rgb(0,0,0);fill-opacity:1.000000"/><polygon points="304.403717,134.715164 280.917725,121.118561 281.507751,120.778839 282.097870,120.439209 304.405396,133.353531 304.404602,134.034378 " style="fill:rgb(0,0,0);fill-opacity:1.000000"/><polygon points="327.331543,121.513763 304.403717,134.715164 304.404602,134.034378 304.405396,133.353531 326.743073,120.491844 327.332306,120.832947 " style="fill:rgb(0,0,0);fill-opacity:1.000000"/><polygon points="349.049408,134.086960 327.331512,121.513779 327.332306,120.832947 327.922241,120.493210 350.229431,133.407516 350.228668,134.088348 " style="fill:rgb(0,0,0);fill-opacity:1.000000"/><polygon points="349.637817,135.108871 327.595276,147.800613 327.301086,147.289627 327.006866,146.778641 349.049408,134.086960 350.228668,134.088348 " style="fill:rgb(0,0,0);fill-opacity:1.000000"/><polygon points="349.607513,160.884598 349.637817,135.108856 350.228668,134.088348 350.817810,134.429443 350.787537,160.205215 350.197540,160.544846 " style="fill:rgb(0,0,0);fill-opacity:1.000000"/><polygon points="373.093170,174.481216 349.607483,160.884583 350.197540,160.544846 350.787445,160.205170 373.094818,173.119583 373.094086,173.800415 " style="fill:rgb(0,0,0);fill-opacity:1.000000"/><polygon points="373.094879,173.119614 395.432587,160.257965 396.021790,160.599060 396.020966,161.279877 373.093231,174.481247 373.094086,173.800415 " style="fill:rgb(0,0,0);fill-opacity:1.000000"/><polygon points="395.432587,160.257965 395.463074,134.482101 396.053070,134.142365 396.643066,133.802612 396.611786,160.259338 396.021790,160.599060 " style="fill:rgb(0,0,0);fill-opacity:1.000000"/><polygon points="395.463013,134.482071 373.155762,121.567780 373.156586,120.886963 373.746582,120.547241 396.643097,133.802628 396.053070,134.142365 " style="fill:rgb(0,0,0);fill-opacity:1.000000"/><polygon points="350.229431,133.407516 372.567383,120.545868 373.156586,120.886963 373.155762,121.567780 350.817810,134.429443 350.228668,134.088348 " style="fill:rgb(0,0,0);fill-opacity:1.000000"/><polygon points="369.394318,119.049538 369.421173,96.258736 370.010773,96.259422 370.600372,96.260117 370.573517,119.050934 369.983917,119.050240 " style="fill:rgb(0,0,0);fill-opacity:1.000000"/><polygon points="372.567383,120.545868 372.597748,94.769913 373.187744,94.430183 373.777771,94.090485 373.746582,120.547241 373.156586,120.886963 " style="fill:rgb(0,0,0);fill-opacity:1.000000"/><polygon points="372.597748,94.769913 350.290314,81.855789 350.291077,81.174934 350.291931,80.494148 373.777771,94.090485 373.187744,94.430183 " style="fill:rgb(0,0,0);fill-opacity:1.000000"/><polygon points="327.364197,93.695442 350.291962,80.494125 350.291077,81.174934 350.290344,81.855759 327.952637,94.717377 327.363373,94.376259 " style="fill:rgb(0,0,0);fill-opacity:1.000000"/><polygon points="326.773407,94.715981 304.466034,81.801735 304.466827,81.120918 304.989380,80.742165 327.364197,93.695442 327.363373,94.376259 " style="fill:rgb(0,0,0);fill-opacity:1.000000"/><polygon points="281.615906,93.597519 303.801300,80.823677 304.466827,81.120918 304.466034,81.801727 282.128174,94.663345 281.539001,94.322250 " style="fill:rgb(0,0,0);fill-opacity:1.000000"/><polygon points="303.801300,80.823677 298.508179,55.776852 298.996521,55.235844 299.484741,54.694801 304.989380,80.742188 304.466827,81.120918 " style="fill:rgb(0,0,0);fill-opacity:1.000000"/><polygon points="298.508179,55.776852 273.051910,53.070972 272.688171,52.439392 272.324585,51.807808 299.484741,54.694801 298.996521,55.235844 " style="fill:rgb(0,0,0);fill-opacity:1.000000"/><polygon points="261.482910,76.081322 272.324585,51.807808 272.688171,52.439392 273.051910,53.070972 262.611786,76.445389 261.898621,76.596100 " style="fill:rgb(0,0,0);fill-opacity:1.000000"/><polygon points="326.743073,120.491844 326.773407,94.715973 327.363373,94.376259 327.952637,94.717384 327.922241,120.493240 327.332306,120.832947 " style="fill:rgb(0,0,0);fill-opacity:1.000000"/><polygon points="396.611786,160.259338 413.341064,169.944229 413.045654,170.454498 412.750244,170.964767 396.020966,161.279877 396.021790,160.599060 " style="fill:rgb(0,0,0);fill-opacity:1.000000"/><text xml:space="preserve" x="414.224854" y="178.968414" textLength="18.773333" lengthAdjust="spacingAndGlyphs"><tspan font-family="Times New Roman" font-weight="normal" baseline-shift="0" font-size="13" fill="#000000">O</tspan><tspan font-family="Times New Roman" font-weight="normal" baseline-shift="0" font-size="13" fill="#000000">H</tspan></text></svg>