<?xml version="1.0" standalone='no'?><!-- IBoard SVG File --><svg xmlns="http://www.w3.org/2000/svg" xmlns:xlink="http://www.w3.org/1999/xlink" viewBox="192.31 94.94 313.99 201.60" height="194.60" width="320.99" version="1.1"><!-- SVG File --><polygon points="443.244537,100.133652 460.998657,113.449257 460.409058,113.744064 459.819458,114.038872 442.537018,101.077026 442.890778,100.605339 " style="fill:rgb(0,0,0);fill-opacity:1.000000"/><polygon points="459.819458,143.027924 459.819458,114.038872 460.409058,113.744064 460.998657,113.449257 460.998657,143.027924 460.409058,143.306183 " style="fill:rgb(0,0,0);fill-opacity:1.000000"/><polygon points="441.793365,157.872940 459.819458,143.027924 460.409058,143.306183 460.409058,144.069992 441.798431,159.396408 441.795898,158.634674 " style="fill:rgb(0,0,0);fill-opacity:1.000000"/><polygon points="424.298676,143.658524 441.793365,157.872940 441.795898,158.634674 441.798431,159.396408 424.256500,145.143600 424.277588,144.401062 " style="fill:rgb(0,0,0);fill-opacity:1.000000"/><polygon points="424.522766,148.398712 439.936890,160.922684 439.565094,161.380280 439.193298,161.837875 423.779175,149.313904 424.150970,148.856308 " style="fill:rgb(0,0,0);fill-opacity:1.000000"/><polygon points="404.590607,157.892136 424.298676,143.658524 424.277588,144.401062 424.256500,145.143600 405.159119,158.936157 404.569519,158.634674 " style="fill:rgb(0,0,0);fill-opacity:1.000000"/><polygon points="387.423035,143.943466 404.590607,157.892136 404.569519,158.634674 403.979919,158.915298 386.679443,144.858658 387.051239,144.401062 " style="fill:rgb(0,0,0);fill-opacity:1.000000"/><polygon points="403.979919,179.007263 403.979919,158.915298 404.569519,158.634674 405.159119,158.936157 405.159119,179.236374 404.569519,179.437653 " style="fill:rgb(0,0,0);fill-opacity:1.000000"/><polygon points="377.786804,187.389069 403.979919,179.007263 404.569519,179.437653 404.355621,180.125153 377.802979,188.622009 377.197205,188.196793 " style="fill:rgb(0,0,0);fill-opacity:1.000000"/><polygon points="376.607605,187.163528 376.607605,165.204041 377.197205,165.204041 377.786804,165.204041 377.786804,187.389069 377.197205,188.196793 " style="fill:rgb(0,0,0);fill-opacity:1.000000"/><polygon points="353.122162,173.285782 376.607605,187.163528 377.197205,188.196793 376.619934,188.540527 353.096893,174.640579 353.109528,173.963181 " style="fill:rgb(0,0,0);fill-opacity:1.000000"/><polygon points="326.242493,187.845612 353.122162,173.285782 353.109528,173.963181 353.096893,174.640579 327.421692,188.547974 326.832092,188.196793 " style="fill:rgb(0,0,0);fill-opacity:1.000000"/><polygon points="326.242493,218.489426 326.242493,187.845612 326.832092,188.196793 327.421692,188.547974 327.421692,218.509796 326.832092,218.853821 " style="fill:rgb(0,0,0);fill-opacity:1.000000"/><polygon points="301.199707,231.010803 326.242493,218.489426 326.832092,218.853821 326.815125,219.521500 301.144257,232.356918 300.554657,231.992523 " style="fill:rgb(0,0,0);fill-opacity:1.000000"/><polygon points="300.016693,231.046814 301.060852,212.251755 301.649536,212.284454 302.238220,212.317154 301.199707,231.010803 300.554657,231.992523 " style="fill:rgb(0,0,0);fill-opacity:1.000000"/><polygon points="275.360870,218.182907 300.016693,231.046814 300.554657,231.992523 299.965057,232.349945 275.383392,219.524734 275.372131,218.853821 " style="fill:rgb(0,0,0);fill-opacity:1.000000"/><polygon points="249.599960,232.743408 275.360870,218.182907 275.372131,218.853821 275.383392,219.524734 250.779160,233.431442 250.189560,233.087418 " style="fill:rgb(0,0,0);fill-opacity:1.000000"/><polygon points="249.599960,262.259460 249.599960,232.743408 250.189560,233.087418 250.779160,233.431442 250.779160,262.318176 250.189560,262.649536 " style="fill:rgb(0,0,0);fill-opacity:1.000000"/><polygon points="250.779160,262.318176 275.372131,277.287811 275.372131,277.978027 275.372131,278.668243 250.141586,263.310577 250.189560,262.649536 " style="fill:rgb(0,0,0);fill-opacity:1.000000"/><polygon points="275.372131,277.287811 299.965057,262.318207 300.554657,262.649536 300.554657,263.339752 275.372131,278.668243 275.372131,277.978027 " style="fill:rgb(0,0,0);fill-opacity:1.000000"/><polygon points="301.144257,232.356918 301.144257,262.318207 300.554657,262.649536 299.965057,262.318207 299.965057,232.349945 300.554657,231.992523 " style="fill:rgb(0,0,0);fill-opacity:1.000000"/><polygon points="304.398834,260.157776 326.082306,273.356384 325.775757,273.860016 325.469208,274.363647 303.785736,261.165039 304.092285,260.661407 " style="fill:rgb(0,0,0);fill-opacity:1.000000"/><polygon points="301.144257,262.318207 325.743622,277.291718 325.737213,277.978027 325.730804,278.664337 300.554657,263.339752 300.554657,262.649536 " style="fill:rgb(0,0,0);fill-opacity:1.000000"/><polygon points="325.743622,277.291718 351.425049,262.310883 352.014648,262.649536 352.604248,262.988190 325.730804,278.664337 325.737213,277.978027 " style="fill:rgb(0,0,0);fill-opacity:1.000000"/><polygon points="351.425049,262.310883 351.425049,233.431442 352.014648,233.087418 352.604248,233.426071 352.604248,262.988190 352.014648,262.649536 " style="fill:rgb(0,0,0);fill-opacity:1.000000"/><polygon points="327.421692,218.509796 352.010010,232.407516 352.014648,233.087418 351.425049,233.431442 326.815125,219.521500 326.832092,218.853821 " style="fill:rgb(0,0,0);fill-opacity:1.000000"/><polygon points="352.010010,232.407516 377.689789,217.427643 378.292084,217.758911 378.351410,218.406906 352.604248,233.426071 352.014648,233.087418 " style="fill:rgb(0,0,0);fill-opacity:1.000000"/><polygon points="377.802979,188.622009 378.866547,217.339081 378.292084,217.758911 377.689789,217.427628 376.619934,188.540527 377.197205,188.196793 " style="fill:rgb(0,0,0);fill-opacity:1.000000"/><polygon points="378.866547,217.339081 405.447815,226.908340 405.664398,227.612961 405.880981,228.317581 378.351410,218.406906 378.292084,217.758911 " style="fill:rgb(0,0,0);fill-opacity:1.000000"/><polygon points="405.447815,226.908340 422.445862,203.536041 423.182709,203.525314 423.919556,203.514587 405.880981,228.317581 405.664398,227.612961 " style="fill:rgb(0,0,0);fill-opacity:1.000000"/><polygon points="405.159119,179.236374 423.919556,203.514587 423.182709,203.525314 422.445862,203.536041 404.355621,180.125153 404.569519,179.437653 " style="fill:rgb(0,0,0);fill-opacity:1.000000"/><polygon points="250.141586,263.310577 212.496994,279.309509 212.266373,278.766876 212.035751,278.224243 249.599960,262.259460 250.189560,262.649536 " style="fill:rgb(0,0,0);fill-opacity:1.000000"/><text xml:space="preserve" x="192.313828" y="286.376892" textLength="18.773333" lengthAdjust="spacingAndGlyphs"><tspan font-family="Times New Roman" font-weight="normal" baseline-shift="0" font-size="13" fill="#000000">H</tspan><tspan font-family="Times New Roman" font-weight="normal" baseline-shift="0" font-size="13" fill="#000000">O</tspan></text><polygon points="460.998657,143.027924 479.035828,157.882050 479.022247,158.634674 478.432648,158.912933 460.409058,144.069992 460.409058,143.306183 " style="fill:rgb(0,0,0);fill-opacity:1.000000"/><polygon points="479.035828,157.882050 497.277283,143.932709 497.635437,144.401062 497.993591,144.869415 479.611847,158.926041 479.022247,158.634674 " style="fill:rgb(0,0,0);fill-opacity:1.000000"/><polygon points="479.611847,158.926041 479.611847,187.101913 479.022247,187.101913 478.432648,187.101913 478.432648,158.912933 479.022247,158.634674 " style="fill:rgb(0,0,0);fill-opacity:1.000000"/></svg>