<svg width="446" height="773" xmlns="http://www.w3.org/2000/svg" xmlns:xlink="http://www.w3.org/1999/xlink" xml:space="preserve" overflow="hidden"><g transform="translate(-2954 -1066)"><path d="M3153 1446.96 3100.01 1530 3097.51 1530 3095 1530 3149.24 1445 3151.75 1445Z" fill-rule="evenodd"/><path d="M3113.8 1529 3161 1602.04 3159.1 1603.02 3157.21 1604 3110 1530.96 3111.9 1529.98Z" fill-rule="evenodd"/><path d="M3100.01 1530 3153 1613.07 3151.75 1615.04 3150.49 1617 3095 1530 3097.51 1530Z" fill-rule="evenodd"/><path d="M3257.76 1617 3150 1617 3151.25 1615 3152.49 1613 3257.76 1613 3259 1615Z" fill-rule="evenodd"/><path d="M3261.72 1615 3301 1677.04 3299.14 1678.02 3297.28 1679 3258 1616.96 3259.24 1615Z" fill-rule="evenodd"/><text font-family="Source Han Serif SC Medium,Source Han Serif SC Medium_MSFontService,sans-serif" font-weight="500" font-size="45" transform="matrix(1 0 0 1 3296.26 1721)">CH</text><path d="M3260 1757.01 3286.26 1715 3288.13 1716 3290 1717 3263.74 1759 3261.87 1758.01Z" fill-rule="evenodd"/><path d="M3271 1762.05 3297.26 1721 3299.13 1721.98 3301 1722.95 3274.74 1764 3272.87 1763.03Z" fill-rule="evenodd"/><text font-family="Source Han Serif SC Medium,Source Han Serif SC Medium_MSFontService,sans-serif" font-weight="500" font-size="45" transform="matrix(1 0 0 1 3191.95 1800)">H</text><text font-family="Source Han Serif SC Medium,Source Han Serif SC Medium_MSFontService,sans-serif" font-weight="500" font-size="28" transform="matrix(1 0 0 1 3230.34 1806)">2</text><text font-family="Source Han Serif SC Medium,Source Han Serif SC Medium_MSFontService,sans-serif" font-weight="500" font-size="45" transform="matrix(1 0 0 1 3245.81 1800)">C</text><path d="M3316 1530 3261.76 1615 3259.25 1615 3258 1613.04 3310.99 1530 3313.49 1530Z" fill-rule="evenodd"/><path d="M3300 1530.96 3253.72 1604 3251.86 1603.02 3250 1602.04 3296.28 1529 3298.14 1529.98Z" fill-rule="evenodd"/><path d="M3260.5 1443 3316 1530 3313.49 1530 3310.99 1530 3258 1446.93 3259.25 1444.97Z" fill-rule="evenodd"/><path d="M3252 1459 3159 1459 3159 1457 3159 1455 3252 1455 3252 1457Z" fill-rule="evenodd"/><path d="M3258.49 1447 3152.25 1447 3151 1445 3152.25 1443 3261 1443 3259.75 1445Z" fill-rule="evenodd"/><path d="M3149.19 1445 3109 1382.96 3110.9 1381.98 3112.81 1381 3153 1443.04 3151.73 1445Z" fill-rule="evenodd"/><text font-family="Source Han Serif SC Medium,Source Han Serif SC Medium_MSFontService,sans-serif" font-weight="500" font-size="45" transform="matrix(1 0 0 1 3078.86 1381)">O</text><path d="M3139 1297.95 3112.74 1339 3110.87 1338.02 3109 1337.05 3135.26 1296 3137.13 1296.98Z" fill-rule="evenodd"/><text font-family="Source Han Serif SC Medium,Source Han Serif SC Medium_MSFontService,sans-serif" font-weight="500" font-size="45" transform="matrix(1 0 0 1 3134.21 1296)">C</text><path d="M3112.74 1211 3139 1252.05 3137.13 1253.03 3135.26 1254 3109 1212.95 3110.87 1211.97Z" fill-rule="evenodd"/><text font-family="Source Han Serif SC Medium,Source Han Serif SC Medium_MSFontService,sans-serif" font-weight="500" font-size="45" transform="matrix(1 0 0 1 3080.2 1210)">C</text><path d="M3077 1203.34 3046.19 1219 3045.09 1217.33 3044 1215.66 3074.81 1200 3075.91 1201.67Z" fill-rule="evenodd"/><text font-family="Source Han Serif SC Medium,Source Han Serif SC Medium_MSFontService,sans-serif" font-weight="500" font-size="45" transform="matrix(1 0 0 1 2986.64 1254)">CH</text><text font-family="Source Han Serif SC Medium,Source Han Serif SC Medium_MSFontService,sans-serif" font-weight="500" font-size="28" transform="matrix(1 0 0 1 3055.96 1260)">3</text><path d="M3058.74 1126 3085 1167.05 3083.13 1168.03 3081.26 1169 3055 1127.95 3056.87 1126.97Z" fill-rule="evenodd"/><text font-family="Source Han Serif SC Medium,Source Han Serif SC Medium_MSFontService,sans-serif" font-weight="500" font-size="45" transform="matrix(1 0 0 1 3020.89 1125)">Cl</text><path d="M3171 1153.41 3120.17 1180 3119.09 1178.3 3118 1176.59 3168.83 1150 3169.91 1151.7Z" fill-rule="evenodd"/><path d="M3237 1283 3173 1283 3173 1281 3173 1279 3237 1279 3237 1281Z" fill-rule="evenodd"/><path d="M3237 1271 3173 1271 3173 1269 3173 1267 3237 1267 3237 1269Z" fill-rule="evenodd"/><text font-family="Source Han Serif SC Medium,Source Han Serif SC Medium_MSFontService,sans-serif" font-weight="500" font-size="45" transform="matrix(1 0 0 1 3240.91 1296)">O</text><text font-family="Source Han Serif SC Medium,Source Han Serif SC Medium_MSFontService,sans-serif" font-weight="500" font-size="45" transform="matrix(0.999966 -0.00824281 0.00824281 0.999966 3169.09 1155)">CH</text><text font-family="Source Han Serif SC Medium,Source Han Serif SC Medium_MSFontService,sans-serif" font-weight="500" font-size="28" transform="matrix(0.999966 -0.00824281 0.00824281 0.999966 3238.46 1161)">2</text><text font-family="Source Han Serif SC Medium,Source Han Serif SC Medium_MSFontService,sans-serif" font-weight="500" font-size="45" transform="matrix(0.999966 -0.00824281 0.00824281 0.999966 3253.88 1155)">OH</text></g></svg>