<?xml version="1.0" standalone='no'?><!-- IBoard SVG File --><svg xmlns="http://www.w3.org/2000/svg" xmlns:xlink="http://www.w3.org/1999/xlink" viewBox="175.86 267.25 230.83 107.79" height="100.79" width="237.83" version="1.1"><!-- SVG File --><polygon points="316.830933,336.087555 294.085754,322.574097 294.094238,321.893341 294.688049,321.560333 316.848236,334.726196 316.839539,335.406860 " style="fill:rgb(0,0,0);fill-opacity:1.000000"/><polygon points="316.597076,331.227051 336.475067,320.078461 336.763458,320.592896 337.051971,321.107208 317.173828,332.255310 316.885468,331.741211 " style="fill:rgb(0,0,0);fill-opacity:1.000000"/><polygon points="316.848297,334.726166 339.329956,322.117401 339.915344,322.465027 340.500366,322.813171 316.831329,336.087341 316.839539,335.406860 " style="fill:rgb(0,0,0);fill-opacity:1.000000"/><polygon points="339.330017,322.117371 339.651581,296.343689 340.245392,296.010681 340.830719,296.358429 340.500671,322.813019 339.915344,322.465027 " style="fill:rgb(0,0,0);fill-opacity:1.000000"/><polygon points="340.253876,295.329926 357.517975,285.647583 357.806396,286.161835 358.094818,286.676086 340.830719,296.358429 340.245392,296.010681 " style="fill:rgb(0,0,0);fill-opacity:1.000000"/><text xml:space="preserve" x="358.985596" y="277.638977" textLength="9.386666" lengthAdjust="spacingAndGlyphs"><tspan font-family="Times New Roman" font-weight="normal" baseline-shift="0" font-size="13" fill="#000000">H</tspan></text><text xml:space="preserve"/><text xml:space="preserve" x="358.985596" y="289.341522" textLength="8.670000" lengthAdjust="spacingAndGlyphs"><tspan font-family="Times New Roman" font-weight="normal" baseline-shift="0" font-size="13" fill="#000000">C</tspan></text><polygon points="378.629089,296.542664 366.912109,289.581635 367.213257,289.074738 367.514404,288.567841 379.231384,295.528870 378.930237,296.035767 " style="fill:rgb(0,0,0);fill-opacity:1.000000"/><polygon points="380.250641,293.813202 368.533661,286.852173 368.834808,286.345276 369.135956,285.838379 380.852936,292.799408 380.551788,293.306305 " style="fill:rgb(0,0,0);fill-opacity:1.000000"/><text xml:space="preserve" x="381.730988" y="300.006958" textLength="21.956667" lengthAdjust="spacingAndGlyphs"><tspan font-family="Times New Roman" font-weight="normal" baseline-shift="0" font-size="13" fill="#000000">C</tspan><tspan font-family="Times New Roman" font-weight="normal" baseline-shift="0" font-size="13" fill="#000000">H</tspan><tspan font-family="Times New Roman" font-weight="normal" baseline-shift="-2" font-size="8" fill="#000000">2</tspan></text><polygon points="336.746796,298.310822 317.153107,286.670197 317.454254,286.163300 317.755402,285.656403 337.349091,297.297028 337.047943,297.803925 " style="fill:rgb(0,0,0);fill-opacity:1.000000"/><polygon points="339.651581,296.343719 317.491119,283.178162 317.499969,282.497620 317.507935,281.816559 340.253876,295.329926 340.245392,296.010681 " style="fill:rgb(0,0,0);fill-opacity:1.000000"/><polygon points="293.839264,295.091248 317.508209,281.816406 317.499969,282.497620 317.491302,283.178070 295.009796,295.786774 294.424805,295.439117 " style="fill:rgb(0,0,0);fill-opacity:1.000000"/><polygon points="293.508911,321.545593 293.839478,295.091125 294.424805,295.439117 295.010132,295.786591 294.688049,321.560333 294.094238,321.893341 " style="fill:rgb(0,0,0);fill-opacity:1.000000"/><polygon points="296.702118,320.092804 296.986908,297.304230 297.576477,297.311584 298.166046,297.318939 297.881256,320.107513 297.291687,320.100159 " style="fill:rgb(0,0,0);fill-opacity:1.000000"/><polygon points="294.085754,322.574097 277.179810,332.055542 276.891388,331.541290 276.602966,331.027039 293.508911,321.545593 294.094238,321.893341 " style="fill:rgb(0,0,0);fill-opacity:1.000000"/><text xml:space="preserve" x="266.325531" y="339.949005" textLength="9.386666" lengthAdjust="spacingAndGlyphs"><tspan font-family="Times New Roman" font-weight="normal" baseline-shift="0" font-size="13" fill="#000000">O</tspan></text><polygon points="254.088943,324.090912 265.447479,330.839050 265.146332,331.345947 264.845184,331.852844 253.486649,325.104706 253.787796,324.597809 " style="fill:rgb(0,0,0);fill-opacity:1.000000"/><text xml:space="preserve" x="243.938583" y="326.436005" textLength="8.670000" lengthAdjust="spacingAndGlyphs"><tspan font-family="Times New Roman" font-weight="normal" baseline-shift="0" font-size="13" fill="#000000">C</tspan></text><polygon points="243.047775,324.928619 231.000793,331.684998 230.712387,331.170746 230.423981,330.656494 242.470963,323.900116 242.759369,324.414368 " style="fill:rgb(0,0,0);fill-opacity:1.000000"/><text xml:space="preserve" x="220.863174" y="339.377502" textLength="8.670000" lengthAdjust="spacingAndGlyphs"><tspan font-family="Times New Roman" font-weight="normal" baseline-shift="0" font-size="13" fill="#000000">C</tspan></text><polygon points="209.155182,342.584747 219.395554,336.841614 219.683960,337.355865 219.972366,337.870117 209.731995,343.613251 209.443588,343.098999 " style="fill:rgb(0,0,0);fill-opacity:1.000000"/><text xml:space="preserve" x="195.981033" y="352.318970" textLength="12.283334" lengthAdjust="spacingAndGlyphs"><tspan font-family="Times New Roman" font-weight="normal" baseline-shift="0" font-size="13" fill="#000000">Cl</tspan></text><polygon points="216.389191,317.350952 222.094254,327.523438 221.580002,327.811859 221.065750,328.100281 215.360687,317.927795 215.874939,317.639374 " style="fill:rgb(0,0,0);fill-opacity:1.000000"/><text xml:space="preserve" x="175.861771" y="314.612610" textLength="40.730000" lengthAdjust="spacingAndGlyphs"><tspan font-family="Times New Roman" font-weight="normal" baseline-shift="0" font-size="13" fill="#000000">H</tspan><tspan font-family="Times New Roman" font-weight="normal" baseline-shift="0" font-size="13" fill="#000000">O</tspan><tspan font-family="Times New Roman" font-weight="normal" baseline-shift="0" font-size="13" fill="#000000">H</tspan><tspan font-family="Times New Roman" font-weight="normal" baseline-shift="-2" font-size="8" fill="#000000">2</tspan><tspan font-family="Times New Roman" font-weight="normal" baseline-shift="0" font-size="13" fill="#000000">C</tspan></text><polygon points="234.007126,351.175812 228.302063,341.003143 228.816315,340.714752 229.330566,340.426361 235.035629,350.598969 234.521378,350.887390 " style="fill:rgb(0,0,0);fill-opacity:1.000000"/><text xml:space="preserve" x="233.804504" y="360.763519" textLength="21.956667" lengthAdjust="spacingAndGlyphs"><tspan font-family="Times New Roman" font-weight="normal" baseline-shift="0" font-size="13" fill="#000000">C</tspan><tspan font-family="Times New Roman" font-weight="normal" baseline-shift="0" font-size="13" fill="#000000">H</tspan><tspan font-family="Times New Roman" font-weight="normal" baseline-shift="-2" font-size="8" fill="#000000">3</tspan></text><polygon points="250.700027,301.345673 250.530914,314.897522 249.941360,314.890167 249.351807,314.882813 249.520920,301.330963 250.110474,301.338318 " style="fill:rgb(0,0,0);fill-opacity:1.000000"/><polygon points="247.525467,301.306061 247.356354,314.857910 246.766800,314.850555 246.177246,314.843201 246.346359,301.291351 246.935913,301.298706 " style="fill:rgb(0,0,0);fill-opacity:1.000000"/><text xml:space="preserve" x="243.910355" y="299.981262" textLength="9.386666" lengthAdjust="spacingAndGlyphs"><tspan font-family="Times New Roman" font-weight="normal" baseline-shift="0" font-size="13" fill="#000000">O</tspan></text></svg>