<?xml version="1.0" encoding="utf-8"?>
<!-- Generator: Adobe Illustrator 15.0.2, SVG Export Plug-In . SVG Version: 6.00 Build 0)  -->
<!DOCTYPE svg PUBLIC "-//W3C//DTD SVG 1.1//EN" "http://www.w3.org/Graphics/SVG/1.1/DTD/svg11.dtd">
<svg version="1.1" id="Layer_2" xmlns="http://www.w3.org/2000/svg" xmlns:xlink="http://www.w3.org/1999/xlink" x="0px" y="0px"
	 width="214px" height="186px" viewBox="0 0 214 186" enable-background="new 0 0 214 186" xml:space="preserve">
<text transform="matrix(1 0 0 1 98 134.333)" font-family="'Verdana'" font-size="19">C</text>
<text transform="matrix(1 0 0 1 98 83.6665)" font-family="'Verdana'" font-size="19">C</text>
<text transform="matrix(1 0 0 1 50.3335 67.6665)" font-family="'Verdana'" font-size="19">C</text>
<text transform="matrix(1 0 0 1 146.334 67.6665)" font-family="'Verdana'" font-size="19">C</text>
<text transform="matrix(1 0 0 1 2.3335 52.667)" font-family="'Verdana'" font-size="19">H</text>
<text transform="matrix(1 0 0 1 50.3335 17.0005)" font-family="'Verdana'" font-size="19">H</text>
<text transform="matrix(1 0 0 1 98.6665 32.334)" font-family="'Verdana'" font-size="19">H</text>
<text transform="matrix(1 0 0 1 21.3335 109)" font-family="'Verdana'" font-size="19">H</text>
<text transform="matrix(-1 0 0 1 208.333 52.667)" font-family="'Verdana'" font-size="19">H</text>
<text transform="matrix(-1 0 0 1 160.333 17.0005)" font-family="'Verdana'" font-size="19">H</text>
<text transform="matrix(-1 0 0 1 189.333 109)" font-family="'Verdana'" font-size="19">H</text>
<text transform="matrix(1 0 0 1 50.667 149.667)" font-family="'Verdana'" font-size="19">H</text>
<text transform="matrix(1 0 0 1 98.6665 184.334)" font-family="'Verdana'" font-size="19">H</text>
<text transform="matrix(1 0 0 1 146.334 149)" font-family="'Verdana'" font-size="19">H</text>
<line fill="none" stroke="#000000" stroke-width="2" stroke-miterlimit="10" x1="58" y1="21.333" x2="58" y2="48.667"/>
<line fill="none" stroke="#000000" stroke-width="2" stroke-miterlimit="10" x1="19.333" y1="50.667" x2="45.667" y2="59"/>
<line fill="none" stroke="#000000" stroke-width="2" stroke-miterlimit="10" x1="52.333" y1="72.667" x2="37.333" y2="93"/>
<line fill="none" stroke="#000000" stroke-width="2" stroke-miterlimit="10" x1="67" y1="66.333" x2="93.333" y2="74.667"/>
<line fill="none" stroke="#000000" stroke-width="2" stroke-miterlimit="10" x1="152.798" y1="21.333" x2="152.798" y2="48.667"/>
<line fill="none" stroke="#000000" stroke-width="2" stroke-miterlimit="10" x1="191.465" y1="50.667" x2="165.131" y2="59"/>
<line fill="none" stroke="#000000" stroke-width="2" stroke-miterlimit="10" x1="158.465" y1="72.667" x2="173.465" y2="93"/>
<line fill="none" stroke="#000000" stroke-width="2" stroke-miterlimit="10" x1="143.798" y1="66.333" x2="117.465" y2="74.667"/>
<line fill="none" stroke="#000000" stroke-width="2" stroke-miterlimit="10" x1="106.333" y1="35.667" x2="106.333" y2="64.667"/>
<line fill="none" stroke="#000000" stroke-width="2" stroke-miterlimit="10" x1="106.333" y1="87.333" x2="106.333" y2="116.333"/>
<line fill="none" stroke="#000000" stroke-width="2" stroke-miterlimit="10" x1="106.333" y1="136.333" x2="106.333" y2="165.333"/>
<line fill="none" stroke="#000000" stroke-width="2" stroke-miterlimit="10" x1="95.667" y1="132.667" x2="69" y2="141"/>
<line fill="none" stroke="#000000" stroke-width="2" stroke-miterlimit="10" x1="116" y1="132.333" x2="141.333" y2="140"/>
</svg>
