<svg width="475" height="291" xmlns="http://www.w3.org/2000/svg" xmlns:xlink="http://www.w3.org/1999/xlink" xml:space="preserve" overflow="hidden"><g transform="translate(-1968 -1080)"><g><g><g><path d="M2000.29 1245.76 2078.22 1200.76 2078.22 1203.08 2078.22 1205.4 2002.3 1249.23 2000.29 1248.07Z" transform="matrix(1 0 0 1.00165 194.615 -74.7544)"/><path d="M2078.22 1200.76 2158.16 1246.92 2156.16 1248.07 2154.15 1249.23 2078.22 1205.4 2078.22 1203.08Z" transform="matrix(1 0 0 1.00165 194.615 -74.7544)"/><path d="M2079.23 1213.81 2146.36 1252.57 2145.36 1254.31 2144.36 1256.05 2077.22 1217.29 2078.22 1215.55Z" transform="matrix(1 0 0 1.00165 194.615 -74.7544)"/><path d="M2158.16 1246.92 2158.16 1339.22 2156.16 1338.06 2154.15 1336.9 2154.15 1249.23 2156.16 1248.07Z" transform="matrix(1 0 0 1.00165 194.615 -74.7544)"/><path d="M2158.16 1339.22 2078.22 1385.37 2078.22 1383.06 2078.22 1380.74 2154.15 1336.9 2156.16 1338.06Z" transform="matrix(1 0 0 1.00165 194.615 -74.7544)"/><path d="M2146.36 1333.57 2079.23 1372.32 2078.22 1370.59 2077.22 1368.85 2144.36 1330.09 2145.36 1331.83Z" transform="matrix(1 0 0 1.00165 194.615 -74.7544)"/><path d="M2078.22 1385.37 2000.29 1340.38 2000.29 1338.06 2002.3 1336.9 2078.22 1380.74 2078.22 1383.06Z" transform="matrix(1 0 0 1.00165 194.615 -74.7544)"/><path d="M1998.29 1336.91 1998.29 1249.23 2000.29 1248.07 2002.3 1249.23 2002.3 1336.9 2000.29 1338.06Z" transform="matrix(1 0 0 1.00165 194.615 -74.7544)"/><path d="M2009.09 1331.83 2009.09 1254.31 2011.09 1254.31 2013.1 1254.31 2013.1 1331.83 2011.09 1331.83Z" transform="matrix(1 0 0 1.00165 194.615 -74.7544)"/><path d="M1998.29 1249.23 1922.34 1205.43 1922.34 1203.11 1922.34 1200.8 2000.29 1245.76 2000.29 1248.07Z" transform="matrix(1 0 0 1.00165 194.615 -74.7544)"/><path d="M1923.35 1217.32 1856.23 1256.1 1855.23 1254.37 1854.22 1252.63 1921.34 1213.84 1922.35 1215.58Z" transform="matrix(1 0 0 1.00165 194.615 -74.7544)"/><path d="M1922.34 1205.43 1846.43 1249.29 1844.43 1248.14 1842.42 1246.98 1922.34 1200.8 1922.34 1203.11Z" transform="matrix(1 0 0 1.00165 194.615 -74.7544)"/><path d="M2000.29 1340.38 1922.38 1385.4 1922.38 1383.09 1922.38 1380.77 1998.29 1336.91 2000.29 1338.06Z" transform="matrix(1 0 0 1.00165 194.615 -74.7544)"/><path d="M1922.38 1385.4 1842.42 1339.28 1844.43 1338.12 1846.43 1336.97 1922.38 1380.77 1922.38 1383.09Z" transform="matrix(1 0 0 1.00165 194.615 -74.7544)"/><path d="M1921.37 1372.36 1854.22 1333.62 1855.23 1331.89 1856.23 1330.15 1923.37 1368.88 1922.37 1370.62Z" transform="matrix(1 0 0 1.00165 194.615 -74.7544)"/><path d="M1842.42 1339.28 1842.42 1246.98 1844.43 1248.14 1846.43 1249.29 1846.43 1336.97 1844.43 1338.12Z" transform="matrix(1 0 0 1.00165 194.615 -74.7544)"/></g></g></g><text font-family="Source Han Serif SC Medium,Source Han Serif SC Medium_MSFontService,sans-serif" font-weight="500" font-size="23" transform="matrix(1 0 0 1 2112.69 1118)">1</text><text font-family="Source Han Serif SC Medium,Source Han Serif SC Medium_MSFontService,sans-serif" font-weight="500" font-size="23" transform="matrix(1 0 0 1 2283.14 1118)">1</text><text font-family="Source Han Serif SC Medium,Source Han Serif SC Medium_MSFontService,sans-serif" font-weight="500" font-size="23" transform="matrix(1 0 0 1 2112.69 1347)">1</text><text font-family="Source Han Serif SC Medium,Source Han Serif SC Medium_MSFontService,sans-serif" font-weight="500" font-size="23" transform="matrix(1 0 0 1 2283.14 1347)">1</text><text font-family="Source Han Serif SC Medium,Source Han Serif SC Medium_MSFontService,sans-serif" font-weight="500" font-size="23" transform="matrix(1 0 0 1 2000.97 1179)">2</text><text font-family="Source Han Serif SC Medium,Source Han Serif SC Medium_MSFontService,sans-serif" font-weight="500" font-size="23" transform="matrix(1 0 0 1 2000.97 1289)">2</text><text font-family="Source Han Serif SC Medium,Source Han Serif SC Medium_MSFontService,sans-serif" font-weight="500" font-size="23" transform="matrix(1 0 0 1 2385.08 1292)">2</text><text font-family="Source Han Serif SC Medium,Source Han Serif SC Medium_MSFontService,sans-serif" font-weight="500" font-size="23" transform="matrix(1 0 0 1 2385.08 1179)">2</text><path d="M1968 1218 2441.09 1218" stroke="#4472C4" stroke-width="2.29167" stroke-miterlimit="8" stroke-dasharray="9.16667 6.875 2.29167 6.875" fill="none" fill-rule="evenodd"/><path d="M2194 1093 2194 1369.33" stroke="#4472C4" stroke-width="2.29167" stroke-miterlimit="8" stroke-dasharray="9.16667 6.875 2.29167 6.875" fill="none" fill-rule="evenodd"/></g></svg>