<svg width="976" height="330" xmlns="http://www.w3.org/2000/svg" xmlns:xlink="http://www.w3.org/1999/xlink" xml:space="preserve" overflow="hidden"><defs><clipPath id="clip0"><rect x="1743" y="1824" width="976" height="330"/></clipPath><clipPath id="clip1"><rect x="1774" y="1823" width="388" height="321"/></clipPath><clipPath id="clip2"><rect x="1774" y="1823" width="388" height="321"/></clipPath><clipPath id="clip3"><rect x="1774" y="1823" width="388" height="321"/></clipPath><clipPath id="clip4"><rect x="2216" y="1895" width="484" height="238"/></clipPath><clipPath id="clip5"><rect x="2216" y="1895" width="484" height="238"/></clipPath><clipPath id="clip6"><rect x="2216" y="1895" width="484" height="238"/></clipPath></defs><g clip-path="url(#clip0)" transform="translate(-1743 -1824)"><g clip-path="url(#clip1)"><g clip-path="url(#clip2)"><g clip-path="url(#clip3)"><path d="M1872.12 1165.94 1945.06 1123.82 1945.06 1125.99 1945.06 1128.16 1874 1169.19 1872.12 1168.1Z" transform="matrix(1 0 0 1.00211 91.1129 796.816)"/><path d="M1945.06 1123.82 2019.88 1167.02 2018 1168.1 2016.12 1169.19 1945.06 1128.16 1945.06 1125.99Z" transform="matrix(1 0 0 1.00211 91.1129 796.816)"/><path d="M1946 1136.04 2008.83 1172.31 2007.89 1173.94 2006.95 1175.56 1944.12 1139.29 1945.06 1137.66Z" transform="matrix(1 0 0 1.00211 91.1129 796.816)"/><path d="M2019.88 1167.02 2019.88 1253.41 2018 1252.32 2016.12 1251.24 2016.12 1169.19 2018 1168.1Z" transform="matrix(1 0 0 1.00211 91.1129 796.816)"/><path d="M2019.88 1253.41 1945.06 1296.6 1945.06 1294.44 1945.06 1292.27 2016.12 1251.24 2018 1252.32Z" transform="matrix(1 0 0 1.00211 91.1129 796.816)"/><path d="M2008.83 1248.12 1946 1284.39 1945.06 1282.77 1944.12 1281.14 2006.95 1244.86 2007.89 1246.49Z" transform="matrix(1 0 0 1.00211 91.1129 796.816)"/><path d="M1945.06 1296.6 1872.12 1254.49 1872.12 1252.32 1874 1251.24 1945.06 1292.27 1945.06 1294.44Z" transform="matrix(1 0 0 1.00211 91.1129 796.816)"/><path d="M1870.24 1251.24 1870.24 1169.19 1872.12 1168.1 1874 1169.19 1874 1251.24 1872.12 1252.32Z" transform="matrix(1 0 0 1.00211 91.1129 796.816)"/><path d="M1880.35 1246.49 1880.35 1173.94 1882.23 1173.94 1884.1 1173.94 1884.1 1246.49 1882.23 1246.49Z" transform="matrix(1 0 0 1.00211 91.1129 796.816)"/><path d="M1870.24 1169.19 1799.17 1128.19 1799.17 1126.02 1801.04 1124.94 1872.12 1165.94 1872.12 1168.1Z" transform="matrix(1 0 0 1.00211 91.1129 796.816)"/><path d="M1800.11 1139.32 1737.29 1175.62 1736.35 1173.99 1735.41 1172.37 1798.23 1136.06 1799.17 1137.69Z" transform="matrix(1 0 0 1.00211 91.1129 796.816)"/><path d="M1799.17 1128.19 1728.12 1169.24 1726.24 1168.16 1724.37 1167.08 1797.29 1124.94 1799.17 1126.02Z" transform="matrix(1 0 0 1.00211 91.1129 796.816)"/><path d="M1872.12 1254.49 1799.2 1296.63 1799.2 1294.46 1799.2 1292.3 1870.24 1251.24 1872.12 1252.32Z" transform="matrix(1 0 0 1.00211 91.1129 796.816)"/><path d="M1799.2 1296.63 1724.37 1253.47 1726.24 1252.38 1728.12 1251.3 1799.2 1292.3 1799.2 1294.46Z" transform="matrix(1 0 0 1.00211 91.1129 796.816)"/><path d="M1798.26 1284.42 1735.41 1248.17 1736.35 1246.54 1737.29 1244.92 1800.13 1281.17 1799.19 1282.79Z" transform="matrix(1 0 0 1.00211 91.1129 796.816)"/><path d="M1724.37 1253.47 1724.37 1167.08 1726.24 1168.16 1728.12 1169.24 1728.12 1251.3 1726.24 1252.38Z" transform="matrix(1 0 0 1.00211 91.1129 796.816)"/><path d="M1797.29 1124.94 1797.24 1062.34 1799.12 1062.33 1800.99 1062.33 1801.04 1124.94 1799.17 1126.02Z" transform="matrix(1 0 0 1.00211 91.1129 796.816)"/><text font-family="Times New Roman,Times New Roman_MSFontService,sans-serif" font-weight="400" font-size="13" transform="matrix(3.1834 0 0 3.19011 1870.66 1857)">Cl</text></g></g></g><text font-family="Source Han Serif SC Medium,Source Han Serif SC Medium_MSFontService,sans-serif" font-weight="500" font-size="23" transform="matrix(1 0 0 1 2039.72 1903)">7</text><text font-family="Source Han Serif SC Medium,Source Han Serif SC Medium_MSFontService,sans-serif" font-weight="500" font-size="23" transform="matrix(1 0 0 1 1869.27 2132)">3</text><text font-family="Source Han Serif SC Medium,Source Han Serif SC Medium_MSFontService,sans-serif" font-weight="500" font-size="23" transform="matrix(1 0 0 1 2039.72 2132)">4</text><text font-family="Source Han Serif SC Medium,Source Han Serif SC Medium_MSFontService,sans-serif" font-weight="500" font-size="23" transform="matrix(1 0 0 1 1777.61 1967)">1</text><text font-family="Source Han Serif SC Medium,Source Han Serif SC Medium_MSFontService,sans-serif" font-weight="500" font-size="23" transform="matrix(1 0 0 1 1776.46 2067)">2</text><text font-family="Source Han Serif SC Medium,Source Han Serif SC Medium_MSFontService,sans-serif" font-weight="500" font-size="23" transform="matrix(1 0 0 1 2141.66 2076)">5</text><text font-family="Source Han Serif SC Medium,Source Han Serif SC Medium_MSFontService,sans-serif" font-weight="500" font-size="23" transform="matrix(1 0 0 1 2141.66 1964)">6</text><g clip-path="url(#clip4)"><g clip-path="url(#clip5)"><g clip-path="url(#clip6)"><path d="M1880.49 1171.15 1953.75 1128.85 1953.75 1131.02 1953.75 1133.2 1882.37 1174.41 1880.49 1173.32Z" transform="matrix(1 0 0 1.00229 610.121 779.548)"/><path d="M1953.75 1128.85 2028.9 1172.23 2027.02 1173.32 2025.13 1174.41 1953.75 1133.2 1953.75 1131.02Z" transform="matrix(1 0 0 1.00229 610.121 779.548)"/><path d="M1954.69 1141.11 2017.81 1177.55 2016.86 1179.18 2015.92 1180.82 1952.81 1144.38 1953.75 1142.75Z" transform="matrix(1 0 0 1.00229 610.121 779.548)"/><path d="M2028.9 1172.23 2028.9 1259.01 2027.02 1257.92 2025.13 1256.83 2025.13 1174.41 2027.02 1173.32Z" transform="matrix(1 0 0 1.00229 610.121 779.548)"/><path d="M2028.9 1259.01 1953.75 1302.4 1953.75 1300.22 1953.75 1298.04 2025.13 1256.83 2027.02 1257.92Z" transform="matrix(1 0 0 1.00229 610.121 779.548)"/><path d="M2017.81 1253.69 1954.69 1290.13 1953.75 1288.5 1952.81 1286.87 2015.92 1250.43 2016.86 1252.06Z" transform="matrix(1 0 0 1.00229 610.121 779.548)"/><path d="M1953.75 1302.4 1880.49 1260.1 1880.49 1257.92 1882.37 1256.83 1953.75 1298.04 1953.75 1300.22Z" transform="matrix(1 0 0 1.00229 610.121 779.548)"/><path d="M1878.6 1256.83 1878.6 1174.41 1880.49 1173.32 1882.37 1174.41 1882.37 1256.83 1880.49 1257.92Z" transform="matrix(1 0 0 1.00229 610.121 779.548)"/><path d="M1888.75 1252.06 1888.75 1179.18 1890.64 1179.18 1892.52 1179.18 1892.52 1252.06 1890.64 1252.06Z" transform="matrix(1 0 0 1.00229 610.121 779.548)"/><path d="M1878.6 1174.41 1807.21 1133.23 1807.21 1131.05 1807.21 1128.88 1880.49 1171.15 1880.49 1173.32Z" transform="matrix(1 0 0 1.00229 610.121 779.548)"/><path d="M1808.15 1144.41 1745.05 1180.87 1744.11 1179.24 1743.17 1177.61 1806.27 1141.14 1807.21 1142.77Z" transform="matrix(1 0 0 1.00229 610.121 779.548)"/><path d="M1807.21 1133.23 1735.84 1174.47 1733.96 1173.38 1733.96 1171.2 1807.21 1128.88 1807.21 1131.05Z" transform="matrix(1 0 0 1.00229 610.121 779.548)"/><path d="M1880.49 1260.1 1807.24 1302.43 1807.24 1300.25 1807.24 1298.07 1878.6 1256.83 1880.49 1257.92Z" transform="matrix(1 0 0 1.00229 610.121 779.548)"/><path d="M1807.24 1302.43 1732.07 1259.07 1733.96 1257.98 1735.84 1256.89 1807.24 1298.07 1807.24 1300.25Z" transform="matrix(1 0 0 1.00229 610.121 779.548)"/><path d="M1806.29 1290.16 1743.17 1253.75 1744.11 1252.11 1745.05 1250.48 1808.18 1286.89 1807.23 1288.53Z" transform="matrix(1 0 0 1.00229 610.121 779.548)"/><path d="M1732.07 1259.07 1732.07 1174.47 1733.96 1173.38 1735.84 1174.47 1735.84 1256.89 1733.96 1257.98Z" transform="matrix(1 0 0 1.00229 610.121 779.548)"/><path d="M1732.07 1174.47 1683.14 1146.25 1684.09 1144.61 1685.03 1142.98 1733.96 1171.2 1733.96 1173.38Z" transform="matrix(1 0 0 1.00229 610.121 779.548)"/><text font-family="Times New Roman,Times New Roman_MSFontService,sans-serif" font-weight="400" font-size="13" transform="matrix(3.19763 0 0 3.20495 2251.16 1930)">Cl</text></g></g></g><text font-family="Source Han Serif SC Medium,Source Han Serif SC Medium_MSFontService,sans-serif" font-weight="500" font-size="23" transform="matrix(1 0 0 1 2551.84 1897)">×</text><text font-family="Source Han Serif SC Medium,Source Han Serif SC Medium_MSFontService,sans-serif" font-weight="500" font-size="23" transform="matrix(1 0 0 1 2400.95 2119)">×</text><text font-family="Source Han Serif SC Medium,Source Han Serif SC Medium_MSFontService,sans-serif" font-weight="500" font-size="23" transform="matrix(1 0 0 1 2551.84 2119)">×</text><text font-family="Source Han Serif SC Medium,Source Han Serif SC Medium_MSFontService,sans-serif" font-weight="500" font-size="23" transform="matrix(1 0 0 1 2405.46 1897)">×</text><text font-family="Source Han Serif SC Medium,Source Han Serif SC Medium_MSFontService,sans-serif" font-weight="500" font-size="23" transform="matrix(1 0 0 1 2295.45 2062)">8</text><text font-family="Source Han Serif SC Medium,Source Han Serif SC Medium_MSFontService,sans-serif" font-weight="500" font-size="23" transform="matrix(1 0 0 1 2660.66 2064)">10</text><text font-family="Source Han Serif SC Medium,Source Han Serif SC Medium_MSFontService,sans-serif" font-weight="500" font-size="23" transform="matrix(1 0 0 1 2660.66 1952)">9</text></g></svg>