<?xml version="1.0" encoding="UTF-8"?>
<svg width="1034px" height="397px" xmlns="http://www.w3.org/2000/svg" xmlns:xlink="http://www.w3.org/1999/xlink" clip-rule="evenodd" stroke-miterlimit="10" viewBox="0 0 1034.43 396.73">
    <desc>SVG generated by Lineform</desc>
    <defs/>
    <g>
        <g>
            <path d="M 392.36 52.27 L 392.36 70.87 L 57.50 264.73 L 48.69 250.04 L 392.36 52.27 " fill="rgb(0, 0, 0)"/>
            <path d="M 647.06 260.64 C 647.06 231.55 654.86 208.77 670.48 192.31 C 686.09 175.85 706.24 167.62 730.93 167.62 C 747.10 167.62 761.67 171.49 774.65 179.22 C 787.64 186.95 797.53 197.73 804.34 211.56 C 811.15 225.39 814.56 241.07 814.56 258.61 C 814.56 276.38 810.97 292.29 803.80 306.31 C 796.64 320.34 786.48 330.96 773.34 338.17 C 760.20 345.39 746.02 348.99 730.81 348.99 C 714.32 348.99 699.59 345.01 686.60 337.04 C 673.62 329.07 663.79 318.19 657.09 304.40 C 650.40 290.61 647.06 276.02 647.06 260.64 Z M 670.93 261.00 C 670.93 282.11 676.61 298.75 687.96 310.90 C 699.32 323.05 713.56 329.12 730.69 329.12 C 748.14 329.12 762.50 322.99 773.77 310.72 C 785.04 298.45 790.68 281.04 790.68 258.49 C 790.68 244.23 788.27 231.78 783.45 221.14 C 778.63 210.51 771.58 202.26 762.30 196.41 C 753.02 190.55 742.60 187.62 731.05 187.62 C 714.63 187.62 700.51 193.26 688.68 204.53 C 676.85 215.81 670.93 234.63 670.93 261.00 Z M 670.93 261.00 " fill="rgb(0, 0, 0)"/>
            <path d="M 845.86 345.99 L 845.86 170.75 L 868.99 170.75 L 868.99 242.75 L 959.99 242.75 L 959.99 170.75 L 983.11 170.75 L 983.11 345.99 L 959.99 345.99 L 959.99 263.37 L 868.99 263.37 L 868.99 345.99 L 845.86 345.99 Z M 845.86 345.99 " fill="rgb(0, 0, 0)"/>
            <path d="M 638.12 194.24 L 629.31 208.92 L 392.36 70.87 L 392.36 52.27 L 638.12 194.24 " fill="rgb(0, 0, 0)"/>
        </g>
    </g>
</svg>