<?xml version="1.0" standalone='no'?><!-- IBoard SVG File --><svg xmlns="http://www.w3.org/2000/svg" xmlns:xlink="http://www.w3.org/1999/xlink" viewBox="19.36 66.55 58.90 76.57" height="69.57" width="65.90" version="1.1"><!-- SVG File --><text xml:space="preserve" x="40.354473" y="105.569580" textLength="9.386666" lengthAdjust="spacingAndGlyphs"><tspan font-family="Arial" font-weight="normal" baseline-shift="0" font-size="13" fill="#000000">C</tspan></text><polygon points="45.620029,106.863182 45.588940,118.591072 44.999336,118.589508 44.409733,118.587944 44.440823,106.860054 45.030426,106.861618 " style="fill:rgb(0,0,0);fill-opacity:1.000000"/><text xml:space="preserve" x="43.171848" y="132.451630" textLength="3.613333" lengthAdjust="spacingAndGlyphs"><tspan font-family="Arial" font-weight="normal" baseline-shift="0" font-size="13" fill="#000000"> </tspan></text><polygon points="50.924904,99.760414 65.418457,99.872421 65.413902,100.462013 65.409348,101.051605 50.915794,100.939598 50.920349,100.350006 " style="fill:rgb(0,0,0);fill-opacity:1.000000"/><text xml:space="preserve" x="66.593117" y="105.769577" textLength="8.670000" lengthAdjust="spacingAndGlyphs"><tspan font-family="Arial" font-weight="normal" baseline-shift="0" font-size="13" fill="#000000">X</tspan></text><polygon points="44.503822,93.743530 44.591934,81.075500 45.181526,81.079605 45.771118,81.083710 45.683006,93.751740 45.093414,93.747635 " style="fill:rgb(0,0,0);fill-opacity:1.000000"/><text xml:space="preserve" x="43.429497" y="79.231155" textLength="3.613333" lengthAdjust="spacingAndGlyphs"><tspan font-family="Arial" font-weight="normal" baseline-shift="0" font-size="13" fill="#000000"> </tspan></text><polygon points="39.165386,100.795784 24.143496,100.544159 24.153370,99.954636 24.163244,99.365112 39.185139,99.616737 39.175262,100.206261 " style="fill:rgb(0,0,0);fill-opacity:1.000000"/><text xml:space="preserve" x="19.360825" y="105.911453" textLength="3.613333" lengthAdjust="spacingAndGlyphs"><tspan font-family="Arial" font-weight="normal" baseline-shift="0" font-size="13" fill="#000000"> </tspan></text></svg>