<?xml version="1.0" standalone='no'?><!-- IBoard SVG File --><svg xmlns="http://www.w3.org/2000/svg" xmlns:xlink="http://www.w3.org/1999/xlink" viewBox="-0.44 36.10 116.63 65.47" height="58.47" width="123.63" version="1.1"><!-- SVG File --><text xml:space="preserve" x="77.212860" y="68.887260" textLength="9.386666" lengthAdjust="spacingAndGlyphs"><tspan font-family="Arial" font-weight="normal" baseline-shift="0" font-size="13" fill="#000000">C</tspan></text><polygon points="76.037834,64.253616 63.783318,64.340683 63.779129,63.751091 63.774940,63.161499 76.029457,63.074436 76.033646,63.664028 " style="fill:rgb(0,0,0);fill-opacity:1.000000"/><text xml:space="preserve" x="52.486580" y="69.060349" textLength="10.113334" lengthAdjust="spacingAndGlyphs"><tspan font-family="Arial" font-weight="normal" baseline-shift="0" font-size="13" fill="#000000">O</tspan></text><polygon points="51.312920,64.443718 36.726120,64.581123 36.720566,63.991543 36.715012,63.401962 51.301811,63.264557 51.307365,63.854137 " style="fill:rgb(0,0,0);fill-opacity:1.000000"/><text xml:space="preserve" x="26.154684" y="69.311813" textLength="9.386666" lengthAdjust="spacingAndGlyphs"><tspan font-family="Arial" font-weight="normal" baseline-shift="0" font-size="13" fill="#000000">C</tspan></text><polygon points="88.195656,69.077934 100.182968,81.065247 99.766052,81.482162 99.349136,81.899078 87.361824,69.911766 87.778740,69.494850 " style="fill:rgb(0,0,0);fill-opacity:1.000000"/><text xml:space="preserve" x="100.945267" y="90.474876" textLength="3.613333" lengthAdjust="spacingAndGlyphs"><tspan font-family="Arial" font-weight="normal" baseline-shift="0" font-size="13" fill="#000000"> </tspan></text><polygon points="87.361824,57.332848 99.349136,45.345539 99.766052,45.762455 100.182968,46.179371 88.195656,58.166679 87.778740,57.749763 " style="fill:rgb(0,0,0);fill-opacity:1.000000"/><text xml:space="preserve" x="100.945267" y="48.783413" textLength="3.613333" lengthAdjust="spacingAndGlyphs"><tspan font-family="Arial" font-weight="normal" baseline-shift="0" font-size="13" fill="#000000"> </tspan></text><polygon points="87.778740,63.032700 108.400635,63.032700 108.400635,63.622307 108.400635,64.211914 87.778740,64.211914 87.778740,63.622307 " style="fill:rgb(0,0,0);fill-opacity:1.000000"/><text xml:space="preserve" x="109.579849" y="69.629143" textLength="3.613333" lengthAdjust="spacingAndGlyphs"><tspan font-family="Arial" font-weight="normal" baseline-shift="0" font-size="13" fill="#000000"> </tspan></text><polygon points="24.558558,58.591228 12.571252,46.603920 12.988167,46.187004 13.405082,45.770088 25.392385,57.757397 24.975471,58.174313 " style="fill:rgb(0,0,0);fill-opacity:1.000000"/><text xml:space="preserve" x="8.195621" y="49.207962" textLength="3.613333" lengthAdjust="spacingAndGlyphs"><tspan font-family="Arial" font-weight="normal" baseline-shift="0" font-size="13" fill="#000000"> </tspan></text><polygon points="24.975471,64.636467 4.353581,64.636467 4.353581,64.046860 4.353581,63.457253 24.975471,63.457253 24.975471,64.046860 " style="fill:rgb(0,0,0);fill-opacity:1.000000"/><text xml:space="preserve" x="-0.438964" y="70.053696" textLength="3.613333" lengthAdjust="spacingAndGlyphs"><tspan font-family="Arial" font-weight="normal" baseline-shift="0" font-size="13" fill="#000000"> </tspan></text><polygon points="25.392385,70.336327 13.405084,82.323631 12.988169,81.906715 12.571254,81.489799 24.558558,69.502495 24.975471,69.919411 " style="fill:rgb(0,0,0);fill-opacity:1.000000"/><text xml:space="preserve" x="8.195623" y="90.899429" textLength="3.613333" lengthAdjust="spacingAndGlyphs"><tspan font-family="Arial" font-weight="normal" baseline-shift="0" font-size="13" fill="#000000"> </tspan></text></svg>