<?xml version="1.0" standalone='no'?><!-- IBoard SVG File --><svg xmlns="http://www.w3.org/2000/svg" xmlns:xlink="http://www.w3.org/1999/xlink" viewBox="44.58 171.37 308.92 50.77" height="43.77" width="315.92" version="1.1"><!-- SVG File --><text xml:space="preserve" x="44.584217" y="181.226486" textLength="23.110001" lengthAdjust="spacingAndGlyphs"><tspan font-family="Arial" font-weight="normal" baseline-shift="0" font-size="13" fill="#000000">C</tspan><tspan font-family="Arial" font-weight="normal" baseline-shift="0" font-size="13" fill="#000000">H</tspan><tspan font-family="Arial" font-weight="normal" baseline-shift="-2" font-size="8" fill="#000000">3</tspan></text><polygon points="68.873428,177.046371 72.885315,177.046371 72.885315,177.635971 72.885315,178.225571 68.873428,178.225571 68.873428,177.635971 " style="fill:rgb(0,0,0);fill-opacity:1.000000"/><text xml:space="preserve" x="74.064529" y="182.900925" textLength="18.773333" lengthAdjust="spacingAndGlyphs"><tspan font-family="Arial" font-weight="normal" baseline-shift="0" font-size="13" fill="#000000">C</tspan><tspan font-family="Arial" font-weight="normal" baseline-shift="0" font-size="13" fill="#000000">H</tspan></text><polygon points="94.017075,177.046371 102.365631,177.046371 102.365631,177.635971 102.365631,178.225571 94.017075,178.225571 94.017075,177.635971 " style="fill:rgb(0,0,0);fill-opacity:1.000000"/><polygon points="94.017075,180.584015 102.365631,180.584015 102.365631,181.173615 102.365631,181.763214 94.017075,181.763214 94.017075,181.173615 " style="fill:rgb(0,0,0);fill-opacity:1.000000"/><text xml:space="preserve" x="103.544846" y="182.900925" textLength="18.773333" lengthAdjust="spacingAndGlyphs"><tspan font-family="Arial" font-weight="normal" baseline-shift="0" font-size="13" fill="#000000">C</tspan><tspan font-family="Arial" font-weight="normal" baseline-shift="0" font-size="13" fill="#000000">H</tspan></text><polygon points="123.497391,177.046371 131.845932,177.046371 131.845932,177.635971 131.845932,178.225571 123.497391,178.225571 123.497391,177.635971 " style="fill:rgb(0,0,0);fill-opacity:1.000000"/><text xml:space="preserve" x="133.025146" y="182.900925" textLength="9.386666" lengthAdjust="spacingAndGlyphs"><tspan font-family="Arial" font-weight="normal" baseline-shift="0" font-size="13" fill="#000000">C</tspan></text><polygon points="143.591034,173.508728 161.326263,173.508728 161.326263,174.098328 161.326263,174.687927 143.591034,174.687927 143.591034,174.098328 " style="fill:rgb(0,0,0);fill-opacity:1.000000"/><polygon points="143.591034,177.046371 161.326263,177.046371 161.326263,177.635971 161.326263,178.225571 143.591034,178.225571 143.591034,177.635971 " style="fill:rgb(0,0,0);fill-opacity:1.000000"/><polygon points="143.591034,180.584015 161.326263,180.584015 161.326263,181.173615 161.326263,181.763214 143.591034,181.763214 143.591034,181.173615 " style="fill:rgb(0,0,0);fill-opacity:1.000000"/><text xml:space="preserve" x="162.505478" y="182.900925" textLength="18.773333" lengthAdjust="spacingAndGlyphs"><tspan font-family="Arial" font-weight="normal" baseline-shift="0" font-size="13" fill="#000000">C</tspan><tspan font-family="Arial" font-weight="normal" baseline-shift="0" font-size="13" fill="#000000">H</tspan></text><text xml:space="preserve" x="209.473114" y="182.900925" textLength="18.773333" lengthAdjust="spacingAndGlyphs"><tspan font-family="Arial" font-weight="normal" baseline-shift="0" font-size="13" fill="#000000">C</tspan><tspan font-family="Arial" font-weight="normal" baseline-shift="0" font-size="13" fill="#000000">H</tspan></text><polygon points="229.425659,173.508728 237.774200,173.508728 237.774200,174.098328 237.774200,174.687927 229.425659,174.687927 229.425659,174.098328 " style="fill:rgb(0,0,0);fill-opacity:1.000000"/><polygon points="229.425659,177.046371 237.774200,177.046371 237.774200,177.635971 237.774200,178.225571 229.425659,178.225571 229.425659,177.635971 " style="fill:rgb(0,0,0);fill-opacity:1.000000"/><polygon points="229.425659,180.584015 237.774200,180.584015 237.774200,181.173615 237.774200,181.763214 229.425659,181.763214 229.425659,181.173615 " style="fill:rgb(0,0,0);fill-opacity:1.000000"/><text xml:space="preserve" x="238.953415" y="182.900925" textLength="9.386666" lengthAdjust="spacingAndGlyphs"><tspan font-family="Arial" font-weight="normal" baseline-shift="0" font-size="13" fill="#000000">C</tspan></text><polygon points="249.519287,177.046371 267.254547,177.046371 267.254547,177.635971 267.254547,178.225571 249.519287,178.225571 249.519287,177.635971 " style="fill:rgb(0,0,0);fill-opacity:1.000000"/><text xml:space="preserve" x="268.433746" y="181.226486" textLength="23.110001" lengthAdjust="spacingAndGlyphs"><tspan font-family="Arial" font-weight="normal" baseline-shift="0" font-size="13" fill="#000000">C</tspan><tspan font-family="Arial" font-weight="normal" baseline-shift="0" font-size="13" fill="#000000">H</tspan><tspan font-family="Arial" font-weight="normal" baseline-shift="-2" font-size="8" fill="#000000">2</tspan></text><polygon points="292.722961,177.046371 296.734863,177.046371 296.734863,177.635971 296.734863,178.225571 292.722961,178.225571 292.722961,177.635971 " style="fill:rgb(0,0,0);fill-opacity:1.000000"/><text xml:space="preserve" x="297.914063" y="182.900925" textLength="18.773333" lengthAdjust="spacingAndGlyphs"><tspan font-family="Arial" font-weight="normal" baseline-shift="0" font-size="13" fill="#000000">C</tspan><tspan font-family="Arial" font-weight="normal" baseline-shift="0" font-size="13" fill="#000000">H</tspan></text><polygon points="317.866608,175.277557 326.215179,175.277557 326.215179,175.867157 326.215179,176.456757 317.866608,176.456757 317.866608,175.867157 " style="fill:rgb(0,0,0);fill-opacity:1.000000"/><polygon points="317.866608,178.815186 326.215179,178.815186 326.215179,179.404785 326.215179,179.994385 317.866608,179.994385 317.866608,179.404785 " style="fill:rgb(0,0,0);fill-opacity:1.000000"/><text xml:space="preserve" x="327.394379" y="181.226486" textLength="23.110001" lengthAdjust="spacingAndGlyphs"><tspan font-family="Arial" font-weight="normal" baseline-shift="0" font-size="13" fill="#000000">C</tspan><tspan font-family="Arial" font-weight="normal" baseline-shift="0" font-size="13" fill="#000000">H</tspan><tspan font-family="Arial" font-weight="normal" baseline-shift="-2" font-size="8" fill="#000000">2</tspan></text><text xml:space="preserve" x="79.706551" y="209.141525" textLength="66.449997" lengthAdjust="spacingAndGlyphs"><tspan font-family="Arial" font-weight="normal" baseline-shift="0" font-size="13" fill="#000000">3-戊烯-1-炔</tspan></text><text xml:space="preserve" x="246.763763" y="209.141525" textLength="66.449997" lengthAdjust="spacingAndGlyphs"><tspan font-family="Arial" font-weight="normal" baseline-shift="0" font-size="13" fill="#000000">1-戊烯-4-炔</tspan></text></svg>