<?xml version="1.0" standalone='no'?><!-- IBoard SVG File --><svg xmlns="http://www.w3.org/2000/svg" xmlns:xlink="http://www.w3.org/1999/xlink" viewBox="-93.69 139.20 179.40 102.69" height="95.69" width="186.40" version="1.1"><!-- SVG File --><polygon points="-53.719505,158.925552 -28.188801,144.185410 -28.188797,144.866241 -28.188793,145.547073 -53.719498,160.287216 -53.719501,159.606384 " style="fill:rgb(0,0,0);fill-opacity:1.000000"/><polygon points="-28.188803,144.185410 -2.658123,158.925568 -2.658126,159.606400 -3.247733,159.946808 -28.188791,145.547073 -28.188797,144.866241 " style="fill:rgb(0,0,0);fill-opacity:1.000000"/><polygon points="-2.068520,159.946808 -2.068530,182.529724 -2.658137,182.529724 -3.247743,182.529724 -3.247733,159.946808 -2.658126,159.606400 " style="fill:rgb(0,0,0);fill-opacity:1.000000"/><text xml:space="preserve" x="-8.794806" y="194.351669" textLength="12.273334" lengthAdjust="spacingAndGlyphs"><tspan font-family="Arial" font-weight="normal" baseline-shift="0" font-size="13" fill="#000000">Cl</tspan></text><polygon points="-2.658121,158.925568 22.872580,144.185410 22.872581,144.866241 22.872585,145.547073 -2.068520,159.946808 -2.658126,159.606400 " style="fill:rgb(0,0,0);fill-opacity:1.000000"/><polygon points="22.872576,144.185410 42.825550,155.705261 42.530746,156.215881 42.235943,156.726501 22.872587,145.547073 22.872581,144.866241 " style="fill:rgb(0,0,0);fill-opacity:1.000000"/><text xml:space="preserve" x="43.709957" y="164.871353" textLength="39.000000" lengthAdjust="spacingAndGlyphs"><tspan font-family="Arial" font-weight="normal" baseline-shift="0" font-size="13" fill="#000000">C</tspan><tspan font-family="Arial" font-weight="normal" baseline-shift="0" font-size="13" fill="#000000">O</tspan><tspan font-family="Arial" font-weight="normal" baseline-shift="0" font-size="13" fill="#000000">O</tspan><tspan font-family="Arial" font-weight="normal" baseline-shift="0" font-size="13" fill="#000000">H</tspan></text><polygon points="-53.719494,160.287216 -73.309151,148.977142 -73.014351,148.466522 -72.719551,147.955902 -53.719509,158.925552 -53.719501,159.606384 " style="fill:rgb(0,0,0);fill-opacity:1.000000"/><text xml:space="preserve" x="-93.693565" y="150.131195" textLength="19.500000" lengthAdjust="spacingAndGlyphs"><tspan font-family="Arial" font-weight="normal" baseline-shift="0" font-size="13" fill="#000000">H</tspan><tspan font-family="Arial" font-weight="normal" baseline-shift="0" font-size="13" fill="#000000">O</tspan></text><text xml:space="preserve" x="-46.333565" y="228.890945" textLength="92.449997" lengthAdjust="spacingAndGlyphs"><tspan font-family="Arial" font-weight="normal" baseline-shift="0" font-size="13" fill="#000000">5-羟基-3-氯戊酸</tspan></text></svg>