<?xml version="1.0" standalone='no'?><!-- IBoard SVG File --><svg xmlns="http://www.w3.org/2000/svg" xmlns:xlink="http://www.w3.org/1999/xlink" viewBox="729.06 366.04 101.80 50.42" height="43.42" width="108.80" version="1.1"><!-- SVG File --><text xml:space="preserve" x="758.896484" y="405.907440" textLength="8.670000" lengthAdjust="spacingAndGlyphs"><tspan font-family="Times New Roman" font-weight="normal" baseline-shift="0" font-size="13" fill="#000000">C</tspan></text><polygon points="768.745667,400.203644 786.839233,400.203644 786.839233,400.793243 786.839233,401.382843 768.745667,401.382843 768.745667,400.793243 " style="fill:rgb(0,0,0);fill-opacity:1.000000"/><text xml:space="preserve" x="788.018433" y="405.907440" textLength="9.386666" lengthAdjust="spacingAndGlyphs"><tspan font-family="Times New Roman" font-weight="normal" baseline-shift="0" font-size="13" fill="#000000">O</tspan></text><polygon points="757.717285,401.382843 739.623779,401.382843 739.623779,400.793243 739.623779,400.203644 757.717285,400.203644 757.717285,400.793243 " style="fill:rgb(0,0,0);fill-opacity:1.000000"/><text xml:space="preserve" x="729.057922" y="405.907440" textLength="9.386666" lengthAdjust="spacingAndGlyphs"><tspan font-family="Times New Roman" font-weight="normal" baseline-shift="0" font-size="13" fill="#000000">H</tspan></text><polygon points="760.873108,394.341797 760.873108,377.764374 761.462708,377.764374 762.052307,377.764374 762.052307,394.341797 761.462708,394.341797 " style="fill:rgb(0,0,0);fill-opacity:1.000000"/><polygon points="764.410706,394.341797 764.410706,377.764374 765.000305,377.764374 765.589905,377.764374 765.589905,394.341797 765.000305,394.341797 " style="fill:rgb(0,0,0);fill-opacity:1.000000"/><text xml:space="preserve" x="758.538208" y="376.427124" textLength="9.386666" lengthAdjust="spacingAndGlyphs"><tspan font-family="Times New Roman" font-weight="normal" baseline-shift="0" font-size="13" fill="#000000">O</tspan></text><polygon points="798.584290,400.203644 822.192078,400.203644 822.192078,400.793243 822.192078,401.382843 798.584290,401.382843 798.584290,400.793243 " style="fill:rgb(0,0,0);fill-opacity:1.000000"/></svg>