<?xml version="1.0" standalone='no'?><!-- IBoard SVG File --><svg xmlns="http://www.w3.org/2000/svg" xmlns:xlink="http://www.w3.org/1999/xlink" viewBox="79.97 79.22 58.82 74.59" height="67.59" width="65.82" version="1.1"><!-- SVG File --><text xml:space="preserve" x="91.912781" y="116.742615" textLength="9.386666" lengthAdjust="spacingAndGlyphs"><tspan font-family="Arial" font-weight="normal" baseline-shift="0" font-size="13" fill="#000000">C</tspan></text><polygon points="102.493225,107.371170 113.295540,107.409294 113.293457,107.998894 113.291374,108.588493 102.489059,108.550369 102.491142,107.960770 " style="fill:rgb(0,0,0);fill-opacity:1.000000"/><polygon points="102.480743,110.908783 113.283058,110.946907 113.280975,111.536507 113.278893,112.126106 102.476578,112.087982 102.478661,111.498383 " style="fill:rgb(0,0,0);fill-opacity:1.000000"/><text xml:space="preserve" x="114.460190" y="116.822182" textLength="9.386666" lengthAdjust="spacingAndGlyphs"><tspan font-family="Arial" font-weight="normal" baseline-shift="0" font-size="13" fill="#000000">C</tspan></text><polygon points="93.299088,118.331253 85.271400,132.122986 84.761833,131.826385 84.252266,131.529785 92.279953,117.738052 92.789520,118.034653 " style="fill:rgb(0,0,0);fill-opacity:1.000000"/><text xml:space="preserve" x="79.969284" y="142.963028" textLength="3.613333" lengthAdjust="spacingAndGlyphs"><tspan font-family="Arial" font-weight="normal" baseline-shift="0" font-size="13" fill="#000000"> </tspan></text><polygon points="92.336250,105.213875 84.420380,91.403427 84.931915,91.110222 85.443451,90.817017 93.359322,104.627464 92.847786,104.920670 " style="fill:rgb(0,0,0);fill-opacity:1.000000"/><text xml:space="preserve" x="80.139366" y="91.907730" textLength="3.613333" lengthAdjust="spacingAndGlyphs"><tspan font-family="Arial" font-weight="normal" baseline-shift="0" font-size="13" fill="#000000"> </tspan></text><polygon points="122.460548,104.703636 130.488220,90.911919 130.997787,91.208519 131.507355,91.505119 123.479683,105.296837 122.970116,105.000237 " style="fill:rgb(0,0,0);fill-opacity:1.000000"/><text xml:space="preserve" x="132.177002" y="92.085541" textLength="3.613333" lengthAdjust="spacingAndGlyphs"><tspan font-family="Arial" font-weight="normal" baseline-shift="0" font-size="13" fill="#000000"> </tspan></text><polygon points="123.423386,117.821014 131.339249,131.631470 130.827713,131.924667 130.316177,132.217865 122.400314,118.407425 122.911850,118.114220 " style="fill:rgb(0,0,0);fill-opacity:1.000000"/><text xml:space="preserve" x="132.006927" y="143.140839" textLength="3.613333" lengthAdjust="spacingAndGlyphs"><tspan font-family="Arial" font-weight="normal" baseline-shift="0" font-size="13" fill="#000000"> </tspan></text></svg>