<?xml version="1.0" standalone='no'?><!-- IBoard SVG File --><svg xmlns="http://www.w3.org/2000/svg" xmlns:xlink="http://www.w3.org/1999/xlink" viewBox="525.62 302.04 78.21 58.75" height="51.75" width="85.21" version="1.1"><!-- SVG File --><text xml:space="preserve" x="545.665039" y="331.527527" textLength="8.670000" lengthAdjust="spacingAndGlyphs"><tspan font-family="Times New Roman" font-weight="normal" baseline-shift="0" font-size="13" fill="#000000">C</tspan></text><text xml:space="preserve" x="572.121704" y="331.527527" textLength="8.670000" lengthAdjust="spacingAndGlyphs"><tspan font-family="Times New Roman" font-weight="normal" baseline-shift="0" font-size="13" fill="#000000">C</tspan></text><polygon points="581.553955,320.482269 594.747498,307.288696 595.164429,307.705597 595.581360,308.122498 582.387817,321.316071 581.970886,320.899170 " style="fill:rgb(0,0,0);fill-opacity:1.000000"/><polygon points="582.387817,331.510620 595.581299,344.704193 595.164368,345.121094 594.747437,345.537994 581.553955,332.344421 581.970886,331.927521 " style="fill:rgb(0,0,0);fill-opacity:1.000000"/><polygon points="544.902771,332.344482 531.709351,345.537994 531.292419,345.121094 530.875488,344.704193 544.068909,331.510681 544.485840,331.927582 " style="fill:rgb(0,0,0);fill-opacity:1.000000"/><polygon points="544.068909,321.315979 530.875488,308.122467 531.292419,307.705566 531.709351,307.288666 544.902771,320.482178 544.485840,320.899078 " style="fill:rgb(0,0,0);fill-opacity:1.000000"/><polygon points="555.514221,325.823730 570.942505,325.823730 570.942505,326.413330 570.942505,327.002930 555.514221,327.002930 555.514221,326.413330 " style="fill:rgb(0,0,0);fill-opacity:1.000000"/><polygon points="555.514221,328.998535 570.942505,328.998535 570.942505,329.588135 570.942505,330.177734 555.514221,330.177734 555.514221,329.588135 " style="fill:rgb(0,0,0);fill-opacity:1.000000"/></svg>