<?xml version="1.0" standalone='no'?><!-- IBoard SVG File --><svg xmlns="http://www.w3.org/2000/svg" xmlns:xlink="http://www.w3.org/1999/xlink" viewBox="15.39 101.19 95.05 23.77" height="16.77" width="102.05" version="1.1"><!-- SVG File --><text xml:space="preserve" x="41.979832" y="113.269539" textLength="9.386666" lengthAdjust="spacingAndGlyphs"><tspan font-family="Arial" font-weight="normal" baseline-shift="0" font-size="13" fill="#000000">C</tspan></text><polygon points="52.565342,103.905327 70.300232,103.989693 70.297424,104.579292 70.294617,105.168892 52.559734,105.084526 52.562538,104.494926 " style="fill:rgb(0,0,0);fill-opacity:1.000000"/><polygon points="52.548512,107.442924 70.283401,107.527290 70.280594,108.116890 70.277786,108.706490 52.542904,108.622124 52.545708,108.032524 " style="fill:rgb(0,0,0);fill-opacity:1.000000"/><polygon points="52.531681,110.980522 70.266571,111.064888 70.263763,111.654488 70.260956,112.244087 52.526073,112.159721 52.528877,111.570122 " style="fill:rgb(0,0,0);fill-opacity:1.000000"/><text xml:space="preserve" x="71.459808" y="113.409782" textLength="9.386666" lengthAdjust="spacingAndGlyphs"><tspan font-family="Arial" font-weight="normal" baseline-shift="0" font-size="13" fill="#000000">C</tspan></text><polygon points="40.797817,108.566246 20.176258,108.468147 20.179064,107.878548 20.181870,107.288948 40.803425,107.387047 40.800621,107.976646 " style="fill:rgb(0,0,0);fill-opacity:1.000000"/><text xml:space="preserve" x="15.386518" y="113.871178" textLength="3.613333" lengthAdjust="spacingAndGlyphs"><tspan font-family="Arial" font-weight="normal" baseline-shift="0" font-size="13" fill="#000000"> </tspan></text><polygon points="82.028496,107.583168 102.650055,107.681267 102.647247,108.270866 102.644440,108.860466 82.022881,108.762367 82.025688,108.172768 " style="fill:rgb(0,0,0);fill-opacity:1.000000"/><text xml:space="preserve" x="103.826462" y="114.291908" textLength="3.613333" lengthAdjust="spacingAndGlyphs"><tspan font-family="Arial" font-weight="normal" baseline-shift="0" font-size="13" fill="#000000"> </tspan></text></svg>