<svg width="2713" height="609" xmlns="http://www.w3.org/2000/svg" xmlns:xlink="http://www.w3.org/1999/xlink" xml:space="preserve" overflow="hidden"><defs><clipPath id="clip0"><rect x="741" y="940" width="2713" height="609"/></clipPath><clipPath id="clip1"><rect x="741" y="999" width="1387" height="535"/></clipPath><clipPath id="clip2"><rect x="741" y="999" width="1387" height="535"/></clipPath><clipPath id="clip3"><rect x="741" y="999" width="1387" height="535"/></clipPath></defs><g clip-path="url(#clip0)" transform="translate(-741 -940)"><g clip-path="url(#clip1)"><g clip-path="url(#clip2)"><g clip-path="url(#clip3)"><path d="M2314.57 1795.87 2420.58 1612.25 2425.59 1612.25 2428.1 1616.59 2319.59 1804.55 2317.08 1800.21Z" transform="matrix(1.00014 0 0 1 -785.927 -382.561)"/><path d="M2428.1 1607.91 2640.12 1607.91 2642.63 1612.25 2640.12 1616.59 2428.1 1616.59 2425.59 1612.25Z" transform="matrix(1.00014 0 0 1 -785.927 -382.561)"/><path d="M2640.12 1607.91 2747.38 1422.13 2751.14 1424.3 2754.9 1426.47 2647.64 1612.25 2642.63 1612.25Z" transform="matrix(1.00014 0 0 1 -785.927 -382.561)"/><path d="M2647.64 1612.25 2754.9 1798.04 2751.14 1800.21 2747.38 1802.38 2640.12 1616.59 2642.63 1612.25Z" transform="matrix(1.00014 0 0 1 -785.927 -382.561)"/><path d="M2319.59 1419.96 2428.1 1607.91 2425.59 1612.25 2420.58 1612.25 2314.57 1428.64 2317.08 1424.3Z" transform="matrix(1.00014 0 0 1 -785.927 -382.561)"/><path d="M2097.54 1419.96 2319.59 1419.96 2317.08 1424.3 2314.57 1428.64 2102.55 1428.64 2100.05 1424.3Z" transform="matrix(1.00014 0 0 1 -785.927 -382.561)"/><path d="M1989.03 1607.91 2097.54 1419.96 2100.05 1424.3 2102.55 1428.64 1996.55 1612.25 1991.53 1612.25Z" transform="matrix(1.00014 0 0 1 -785.927 -382.561)"/><path d="M2017.85 1610.08 2111.33 1448.17 2115.09 1450.34 2118.84 1452.51 2025.37 1614.42 2021.61 1612.25Z" transform="matrix(1.00014 0 0 1 -785.927 -382.561)"/><path d="M1996.55 1612.25 2102.55 1795.87 2100.05 1800.21 2097.54 1804.55 1989.03 1616.59 1991.53 1612.25Z" transform="matrix(1.00014 0 0 1 -785.927 -382.561)"/><path d="M2115.09 1769.82 2302.04 1769.82 2302.04 1774.16 2302.04 1778.5 2115.09 1778.5 2115.09 1774.16Z" transform="matrix(1.00014 0 0 1 -785.927 -382.561)"/><path d="M2102.55 1795.87 2314.57 1795.87 2317.08 1800.21 2319.59 1804.55 2097.54 1804.55 2100.05 1800.21Z" transform="matrix(1.00014 0 0 1 -785.927 -382.561)"/><path d="M1777.01 1607.91 1989.03 1607.91 1991.53 1612.25 1989.03 1616.59 1772 1616.59 1774.5 1612.25Z" transform="matrix(1.00014 0 0 1 -785.927 -382.561)"/><path d="M1692.3 1409.11 1793.3 1584.04 1789.54 1586.21 1785.78 1588.38 1684.78 1413.45 1688.54 1411.28Z" transform="matrix(1.00014 0 0 1 -785.927 -382.561)"/><path d="M1669.75 1422.13 1777.01 1607.91 1774.5 1612.25 1772 1616.59 1662.23 1426.47 1665.99 1424.3Z" transform="matrix(1.00014 0 0 1 -785.927 -382.561)"/></g></g></g><text font-family="Source Han Serif SC Medium,Source Han Serif SC Medium_MSFontService,sans-serif" font-weight="500" font-size="55" transform="matrix(1 0 0 1 853.31 1020)">1</text><text font-family="Source Han Serif SC Medium,Source Han Serif SC Medium_MSFontService,sans-serif" font-weight="500" font-size="55" transform="matrix(1 0 0 1 1155.53 1317)">3</text><text font-family="Source Han Serif SC Medium,Source Han Serif SC Medium_MSFontService,sans-serif" font-weight="500" font-size="55" transform="matrix(1 0 0 1 1281.79 1503)">4</text><text font-family="Source Han Serif SC Medium,Source Han Serif SC Medium_MSFontService,sans-serif" font-weight="500" font-size="55" transform="matrix(1 0 0 1 1281.79 1010)">5</text><text font-family="Source Han Serif SC Medium,Source Han Serif SC Medium_MSFontService,sans-serif" font-weight="500" font-size="55" transform="matrix(1 0 0 1 1559.8 1010)">6</text><path d="M2584.1 988.706 2586.06 988.706C2585.92 990.988 2585.85 994.148 2585.85 998.188L2585.85 1028.63C2585.85 1030.01 2585.93 1031.05 2586.08 1031.75 2586.24 1032.45 2586.51 1033.02 2586.9 1033.46 2587.29 1033.9 2587.86 1034.24 2588.59 1034.49 2589.33 1034.74 2590.26 1034.93 2591.37 1035.06 2592.49 1035.19 2593.96 1035.28 2595.79 1035.33L2595.79 1037.93 2569.45 1037.93 2569.45 1035.33C2572.09 1035.21 2573.97 1035.05 2575.1 1034.85 2576.23 1034.65 2577.09 1034.34 2577.69 1033.94 2578.28 1033.54 2578.72 1032.97 2578.99 1032.23 2579.26 1031.49 2579.4 1030.29 2579.4 1028.63L2579.4 999.721C2579.4 998.77 2579.23 998.075 2578.9 997.635 2578.57 997.196 2578.08 996.976 2577.44 996.976 2576.68 996.976 2575.6 997.368 2574.19 998.152 2572.79 998.936 2571.06 1000.02 2568.99 1001.4L2567.42 998.651Z" fill-rule="evenodd"/><text fill="#000000" fill-opacity="0" font-family="Arial,Arial_MSFontService,sans-serif" font-size="49.2251" x="2567.42" y="1031.78">1</text><path d="M2606.53 1029.66 2612.77 1029.66C2613.1 1031.33 2613.27 1032.97 2613.27 1034.58 2613.27 1036.24 2612.98 1037.77 2612.41 1039.14 2611.84 1040.52 2610.93 1041.89 2609.69 1043.26 2608.44 1044.63 2606.72 1046.13 2604.53 1047.77L2602.61 1045.6C2603.82 1044.45 2604.7 1043.43 2605.25 1042.51 2605.79 1041.6 2606.19 1040.56 2606.42 1039.39 2606.66 1038.23 2606.78 1036.77 2606.78 1035.01 2606.78 1033.2 2606.7 1031.42 2606.53 1029.66Z" fill-rule="evenodd"/><text fill="#000000" fill-opacity="0" font-family="Arial,Arial_MSFontService,sans-serif" font-size="18.1074" x="2602.61" y="1045.51">,</text><path d="M2637.15 988.706C2641.57 988.706 2644.9 989.675 2647.16 991.611 2649.42 993.548 2650.55 996.358 2650.55 1000.04 2650.55 1001.3 2650.42 1002.46 2650.17 1003.52 2649.92 1004.57 2649.53 1005.62 2649 1006.65 2648.46 1007.69 2647.74 1008.8 2646.84 1009.99 2645.94 1011.17 2644.94 1012.38 2643.85 1013.6 2642.75 1014.83 2640.86 1016.87 2638.18 1019.72 2633.66 1024.49 2630.35 1028.66 2628.23 1032.23L2641.67 1032.23C2642.84 1032.23 2643.78 1032.16 2644.49 1032.01 2645.2 1031.87 2645.77 1031.63 2646.2 1031.3 2646.63 1030.97 2646.97 1030.54 2647.22 1030 2647.46 1029.47 2647.78 1028.64 2648.16 1027.52L2651.19 1027.52 2650.58 1037.93 2621.25 1037.93 2621.25 1036.22C2622.27 1033.73 2623.65 1031.17 2625.38 1028.56 2627.12 1025.94 2629.58 1022.87 2632.76 1019.33 2635.52 1016.28 2637.5 1013.98 2638.71 1012.41 2640.04 1010.7 2641.04 1009.22 2641.69 1007.97 2642.34 1006.72 2642.81 1005.55 2643.1 1004.44 2643.38 1003.34 2643.53 1002.23 2643.53 1001.11 2643.53 999.328 2643.24 997.754 2642.67 996.388 2642.1 995.021 2641.23 993.946 2640.05 993.162 2638.87 992.378 2637.4 991.986 2635.61 991.986 2631.17 991.986 2628.18 994.457 2626.63 999.4L2622.32 999.4 2622.32 992.556C2625.19 991.202 2627.88 990.221 2630.39 989.615 2632.9 989.009 2635.15 988.706 2637.15 988.706Z" fill-rule="evenodd"/><text fill="#000000" fill-opacity="0" font-family="Arial,Arial_MSFontService,sans-serif" font-size="49.2251" x="2621.25" y="1031.78">2</text><path d="M2678.93 1014.69 2722.85 1014.69 2722.85 1019.43 2678.93 1019.43Z" fill-rule="evenodd"/><text fill="#000000" fill-opacity="0" font-family="Arial,Arial_MSFontService,sans-serif" font-size="4.74072" x="2678.93" y="1018.84">−</text><path d="M2793.31 991.066 2793.31 1032.46 2805.43 1032.46 2805.43 991.066ZM2807.84 985.299 2814.7 990.701C2814.44 991.034 2814.02 991.335 2813.43 991.604 2812.85 991.873 2812.16 992.083 2811.34 992.234L2811.34 1038.95C2811.24 1039.3 2810.67 1039.72 2809.63 1040.23 2808.59 1040.74 2807.51 1041.02 2806.38 1041.07L2805.43 1041.07 2805.43 1034.57 2793.31 1034.57 2793.31 1040.05C2793.28 1040.46 2792.8 1040.9 2791.9 1041.38 2790.99 1041.86 2789.88 1042.12 2788.57 1042.17L2787.55 1042.17 2787.55 988.949 2787.55 986.174 2793.61 988.949 2804.7 988.949ZM2867.12 978.291C2871.15 978.498 2874.13 979.164 2876.06 980.288 2878 981.411 2879.13 982.622 2879.45 983.921 2879.78 985.219 2879.54 986.234 2878.74 986.965 2877.94 987.696 2876.81 987.773 2875.37 987.197 2874.53 985.656 2873.28 984.138 2871.61 982.643 2869.93 981.148 2868.24 979.941 2866.53 979.021ZM2759.88 976.831 2768.49 977.707C2768.41 978.221 2768.18 978.652 2767.82 979.002 2767.46 979.352 2766.83 979.602 2765.94 979.751L2765.65 992.453 2774.33 992.453 2777.62 988.876 2783.82 994.132C2783.57 994.46 2783.2 994.734 2782.71 994.953 2782.22 995.172 2781.59 995.336 2780.83 995.445 2780.57 1008.55 2780.03 1018.64 2779.22 1025.71 2778.42 1032.79 2777.15 1037.27 2775.43 1039.17 2774.36 1040.34 2773.09 1041.2 2771.61 1041.76 2770.14 1042.33 2768.54 1042.61 2766.81 1042.6 2766.83 1041.62 2766.75 1040.76 2766.59 1040.04 2766.42 1039.32 2766.11 1038.74 2765.65 1038.3 2765.07 1037.78 2764.2 1037.33 2763.02 1036.94 2761.84 1036.54 2760.53 1036.22 2759.08 1035.96L2759.15 1034.72C2760.67 1034.88 2762.33 1035.04 2764.13 1035.19 2765.93 1035.35 2767.26 1035.44 2768.13 1035.45 2768.83 1035.46 2769.38 1035.39 2769.76 1035.25 2770.15 1035.11 2770.53 1034.86 2770.9 1034.5 2772.16 1033.22 2773.1 1029.18 2773.72 1022.39 2774.35 1015.6 2774.79 1006.33 2775.06 994.57L2765.57 994.57C2765.39 1000.35 2764.79 1006.13 2763.78 1011.93 2762.77 1017.73 2761.01 1023.34 2758.51 1028.74 2756.01 1034.15 2752.43 1039.16 2747.76 1043.77L2746.59 1042.68C2749.99 1037.96 2752.61 1032.96 2754.46 1027.69 2756.31 1022.42 2757.62 1016.99 2758.39 1011.41 2759.15 1005.82 2759.6 1000.21 2759.73 994.57L2749.08 994.57 2748.42 992.453 2759.81 992.453C2759.87 987.136 2759.89 981.928 2759.88 976.831ZM2856.02 976.685 2864.56 977.561C2864.54 978.047 2864.33 978.479 2863.94 978.856 2863.55 979.233 2862.91 979.483 2862.01 979.604 2861.92 983.534 2862.02 987.428 2862.3 991.285L2876.97 991.285 2880.84 986.467C2880.88 986.493 2881.3 986.813 2882.09 987.426 2882.89 988.04 2883.83 988.787 2884.92 989.668 2886.01 990.549 2887.01 991.404 2887.92 992.234 2887.84 992.633 2887.62 992.929 2887.26 993.119 2886.91 993.309 2886.47 993.403 2885.95 993.402L2862.37 993.402C2862.72 998.02 2863.33 1002.47 2864.21 1006.75 2865.08 1011.03 2866.29 1015.03 2867.85 1018.73 2869.56 1015.73 2871.01 1012.65 2872.21 1009.5 2873.41 1006.35 2874.39 1003.2 2875.15 1000.04L2883.83 1002.75C2883.71 1003.19 2883.43 1003.51 2883 1003.72 2882.58 1003.93 2881.88 1004.02 2880.91 1003.99 2879.79 1007.4 2878.37 1010.79 2876.66 1014.17 2874.95 1017.55 2872.91 1020.79 2870.55 1023.92 2871.82 1026 2873.27 1027.91 2874.89 1029.63 2876.51 1031.35 2878.33 1032.85 2880.33 1034.14 2880.97 1034.62 2881.46 1034.84 2881.83 1034.79 2882.19 1034.75 2882.54 1034.38 2882.88 1033.7 2883.38 1032.77 2883.96 1031.51 2884.61 1029.93 2885.26 1028.35 2885.85 1026.78 2886.39 1025.23L2887.34 1025.38 2885.95 1036.69C2887.13 1038.2 2887.84 1039.36 2888.07 1040.19 2888.3 1041.01 2888.2 1041.64 2887.78 1042.09 2886.63 1043.24 2885.04 1043.48 2883.01 1042.8 2880.99 1042.13 2879.07 1041.09 2877.26 1039.68 2875.12 1038.18 2873.17 1036.49 2871.42 1034.62 2869.68 1032.74 2868.1 1030.71 2866.68 1028.51 2863.87 1031.56 2860.63 1034.35 2856.95 1036.89 2853.27 1039.43 2849.12 1041.6 2844.49 1043.41L2843.9 1042.46C2848.2 1040.14 2852.05 1037.44 2855.44 1034.36 2858.82 1031.29 2861.79 1027.95 2864.34 1024.35 2862.17 1019.99 2860.47 1015.21 2859.25 1010 2858.03 1004.79 2857.17 999.258 2856.68 993.402L2833.76 993.402 2833.76 1005.37 2845.22 1005.37 2848.28 1002.16 2854.27 1007.05C2854.02 1007.34 2853.66 1007.58 2853.2 1007.76 2852.74 1007.95 2852.15 1008.07 2851.42 1008.15 2851.23 1015.5 2850.81 1021.03 2850.18 1024.73 2849.55 1028.42 2848.55 1030.83 2847.19 1031.95 2846.34 1032.71 2845.33 1033.26 2844.17 1033.62 2843 1033.97 2841.72 1034.14 2840.33 1034.14 2840.34 1033.35 2840.28 1032.62 2840.14 1031.93 2840.01 1031.24 2839.73 1030.68 2839.3 1030.27 2838.91 1029.86 2838.29 1029.5 2837.43 1029.19 2836.58 1028.88 2835.64 1028.63 2834.63 1028.44L2834.7 1027.27C2835.73 1027.39 2836.91 1027.49 2838.24 1027.57 2839.56 1027.66 2840.58 1027.71 2841.27 1027.71 2841.81 1027.72 2842.24 1027.67 2842.55 1027.57 2842.87 1027.48 2843.15 1027.31 2843.39 1027.05 2844.08 1026.42 2844.62 1024.51 2845.02 1021.31 2845.41 1018.12 2845.7 1013.49 2845.87 1007.42L2833.76 1007.42C2833.82 1011.27 2833.58 1015.38 2833.05 1019.75 2832.52 1024.12 2831.34 1028.42 2829.49 1032.66 2827.65 1036.9 2824.79 1040.75 2820.91 1044.21L2819.96 1043.41C2823.45 1037.96 2825.68 1032.1 2826.65 1025.8 2827.61 1019.51 2828.04 1013.26 2827.92 1007.05L2827.92 991.285 2827.92 988.51 2834.78 991.285 2856.53 991.285C2856.35 988.915 2856.22 986.518 2856.14 984.094 2856.06 981.67 2856.02 979.2 2856.02 976.685Z" fill-rule="evenodd"/><text fill="#000000" fill-opacity="0" font-family="Arial,Arial_MSFontService,sans-serif" font-size="67.525" x="2746.59" y="1035.77">加成</text><path d="M2584.1 1078.69 2586.06 1078.69C2585.92 1080.97 2585.85 1084.13 2585.85 1088.17L2585.85 1118.61C2585.85 1119.99 2585.93 1121.03 2586.08 1121.73 2586.24 1122.43 2586.51 1123 2586.9 1123.44 2587.29 1123.88 2587.86 1124.23 2588.59 1124.48 2589.33 1124.73 2590.26 1124.92 2591.37 1125.05 2592.49 1125.18 2593.96 1125.27 2595.79 1125.31L2595.79 1127.92 2569.45 1127.92 2569.45 1125.31C2572.09 1125.2 2573.97 1125.04 2575.1 1124.83 2576.23 1124.63 2577.09 1124.33 2577.69 1123.92 2578.28 1123.52 2578.72 1122.95 2578.99 1122.21 2579.26 1121.48 2579.4 1120.28 2579.4 1118.61L2579.4 1089.71C2579.4 1088.76 2579.23 1088.06 2578.9 1087.62 2578.57 1087.18 2578.08 1086.96 2577.44 1086.96 2576.68 1086.96 2575.6 1087.35 2574.19 1088.14 2572.79 1088.92 2571.06 1090 2568.99 1091.38L2567.42 1088.64Z" fill-rule="evenodd"/><text fill="#000000" fill-opacity="0" font-family="Arial,Arial_MSFontService,sans-serif" font-size="49.2251" x="2567.42" y="1121.76">1</text><path d="M2606.53 1119.65 2612.77 1119.65C2613.1 1121.31 2613.27 1122.95 2613.27 1124.57 2613.27 1126.23 2612.98 1127.75 2612.41 1129.13 2611.84 1130.51 2610.93 1131.88 2609.69 1133.25 2608.44 1134.61 2606.72 1136.12 2604.53 1137.75L2602.61 1135.58C2603.82 1134.44 2604.7 1133.41 2605.25 1132.5 2605.79 1131.58 2606.19 1130.54 2606.42 1129.38 2606.66 1128.21 2606.78 1126.75 2606.78 1124.99 2606.78 1123.19 2606.7 1121.41 2606.53 1119.65Z" fill-rule="evenodd"/><text fill="#000000" fill-opacity="0" font-family="Arial,Arial_MSFontService,sans-serif" font-size="18.1074" x="2602.61" y="1135.49">,</text><path d="M2639.21 1087.07 2625.28 1109.2 2625.28 1109.7 2639.21 1109.7 2639.21 1100.83C2639.21 1098.59 2639.25 1096.09 2639.32 1093.32 2639.39 1090.56 2639.47 1088.47 2639.57 1087.07ZM2640.25 1079.01 2645.34 1079.01 2645.34 1109.7 2646.09 1109.7C2647.47 1109.7 2648.46 1109.6 2649.05 1109.4 2649.64 1109.2 2650.14 1108.84 2650.53 1108.33 2650.92 1107.82 2651.28 1106.98 2651.62 1105.82L2654.33 1105.82 2653.9 1113.16 2645.34 1113.16 2645.34 1119.01C2645.34 1120.6 2645.4 1121.76 2645.5 1122.5 2645.61 1123.24 2645.79 1123.82 2646.04 1124.25 2646.29 1124.67 2646.66 1125.03 2647.14 1125.31 2647.63 1125.6 2648.42 1125.89 2649.51 1126.17L2649.51 1127.92 2635.04 1127.92 2635.04 1126.17C2636.52 1125.79 2637.5 1125.37 2638 1124.9 2638.5 1124.44 2638.83 1123.78 2638.98 1122.93 2639.14 1122.07 2639.21 1120.76 2639.21 1119.01L2639.21 1113.16 2619.39 1113.16 2619.39 1110.49Z" fill-rule="evenodd"/><text fill="#000000" fill-opacity="0" font-family="Arial,Arial_MSFontService,sans-serif" font-size="48.9043" x="2619.39" y="1121.8">4</text><path d="M2678.93 1104.68 2722.85 1104.68 2722.85 1109.42 2678.93 1109.42Z" fill-rule="evenodd"/><text fill="#000000" fill-opacity="0" font-family="Arial,Arial_MSFontService,sans-serif" font-size="4.74072" x="2678.93" y="1108.82">−</text><path d="M2793.31 1081.05 2793.31 1122.44 2805.43 1122.44 2805.43 1081.05ZM2807.84 1075.28 2814.7 1080.69C2814.44 1081.02 2814.02 1081.32 2813.43 1081.59 2812.85 1081.86 2812.16 1082.07 2811.34 1082.22L2811.34 1128.94C2811.24 1129.28 2810.67 1129.71 2809.63 1130.22 2808.59 1130.72 2807.51 1131 2806.38 1131.06L2805.43 1131.06 2805.43 1124.56 2793.31 1124.56 2793.31 1130.03C2793.28 1130.44 2792.8 1130.89 2791.9 1131.37 2790.99 1131.85 2789.88 1132.11 2788.57 1132.15L2787.55 1132.15 2787.55 1078.93 2787.55 1076.16 2793.61 1078.93 2804.7 1078.93ZM2867.12 1068.28C2871.15 1068.48 2874.13 1069.15 2876.06 1070.27 2878 1071.4 2879.13 1072.61 2879.45 1073.91 2879.78 1075.2 2879.54 1076.22 2878.74 1076.95 2877.94 1077.68 2876.81 1077.76 2875.37 1077.18 2874.53 1075.64 2873.28 1074.12 2871.61 1072.63 2869.93 1071.13 2868.24 1069.93 2866.53 1069.01ZM2759.88 1066.82 2768.49 1067.69C2768.41 1068.21 2768.18 1068.64 2767.82 1068.99 2767.46 1069.34 2766.83 1069.59 2765.94 1069.74L2765.65 1082.44 2774.33 1082.44 2777.62 1078.86 2783.82 1084.12C2783.57 1084.45 2783.2 1084.72 2782.71 1084.94 2782.22 1085.16 2781.59 1085.32 2780.83 1085.43 2780.57 1098.54 2780.03 1108.63 2779.22 1115.7 2778.42 1122.77 2777.15 1127.26 2775.43 1129.16 2774.36 1130.32 2773.09 1131.19 2771.61 1131.75 2770.14 1132.31 2768.54 1132.59 2766.81 1132.59 2766.83 1131.6 2766.75 1130.75 2766.59 1130.02 2766.42 1129.3 2766.11 1128.72 2765.65 1128.28 2765.07 1127.77 2764.2 1127.32 2763.02 1126.92 2761.84 1126.53 2760.53 1126.2 2759.08 1125.95L2759.15 1124.7C2760.67 1124.86 2762.33 1125.02 2764.13 1125.18 2765.93 1125.34 2767.26 1125.42 2768.13 1125.43 2768.83 1125.44 2769.38 1125.37 2769.76 1125.23 2770.15 1125.09 2770.53 1124.84 2770.9 1124.49 2772.16 1123.2 2773.1 1119.16 2773.72 1112.38 2774.35 1105.59 2774.79 1096.32 2775.06 1084.55L2765.57 1084.55C2765.39 1090.33 2764.79 1096.12 2763.78 1101.92 2762.77 1107.72 2761.01 1113.32 2758.51 1118.73 2756.01 1124.14 2752.43 1129.15 2747.76 1133.76L2746.59 1132.66C2749.99 1127.94 2752.61 1122.95 2754.46 1117.68 2756.31 1112.4 2757.62 1106.97 2758.39 1101.39 2759.15 1095.81 2759.6 1090.2 2759.73 1084.55L2749.08 1084.55 2748.42 1082.44 2759.81 1082.44C2759.87 1077.12 2759.89 1071.91 2759.88 1066.82ZM2856.02 1066.67 2864.56 1067.55C2864.54 1068.03 2864.33 1068.46 2863.94 1068.84 2863.55 1069.22 2862.91 1069.47 2862.01 1069.59 2861.92 1073.52 2862.02 1077.41 2862.3 1081.27L2876.97 1081.27 2880.84 1076.45C2880.88 1076.48 2881.3 1076.8 2882.09 1077.41 2882.89 1078.03 2883.83 1078.77 2884.92 1079.65 2886.01 1080.53 2887.01 1081.39 2887.92 1082.22 2887.84 1082.62 2887.62 1082.91 2887.26 1083.1 2886.91 1083.29 2886.47 1083.39 2885.95 1083.39L2862.37 1083.39C2862.72 1088.01 2863.33 1092.46 2864.21 1096.74 2865.08 1101.02 2866.29 1105.01 2867.85 1108.72 2869.56 1105.71 2871.01 1102.63 2872.21 1099.48 2873.41 1096.33 2874.39 1093.18 2875.15 1090.03L2883.83 1092.73C2883.71 1093.17 2883.43 1093.5 2883 1093.71 2882.58 1093.92 2881.88 1094.01 2880.91 1093.97 2879.79 1097.38 2878.37 1100.78 2876.66 1104.16 2874.95 1107.53 2872.91 1110.78 2870.55 1113.9 2871.82 1115.99 2873.27 1117.89 2874.89 1119.61 2876.51 1121.33 2878.33 1122.84 2880.33 1124.12 2880.97 1124.6 2881.46 1124.82 2881.83 1124.78 2882.19 1124.73 2882.54 1124.37 2882.88 1123.68 2883.38 1122.75 2883.96 1121.49 2884.61 1119.91 2885.26 1118.33 2885.85 1116.77 2886.39 1115.21L2887.34 1115.36 2885.95 1126.68C2887.13 1128.18 2887.84 1129.35 2888.07 1130.17 2888.3 1130.99 2888.2 1131.63 2887.78 1132.08 2886.63 1133.23 2885.04 1133.46 2883.01 1132.79 2880.99 1132.11 2879.07 1131.07 2877.26 1129.67 2875.12 1128.17 2873.17 1126.48 2871.42 1124.6 2869.68 1122.73 2868.1 1120.69 2866.68 1118.5 2863.87 1121.55 2860.63 1124.34 2856.95 1126.88 2853.27 1129.41 2849.12 1131.59 2844.49 1133.39L2843.9 1132.44C2848.2 1130.12 2852.05 1127.43 2855.44 1124.35 2858.82 1121.27 2861.79 1117.94 2864.34 1114.34 2862.17 1109.98 2860.47 1105.19 2859.25 1099.99 2858.03 1094.78 2857.17 1089.24 2856.68 1083.39L2833.76 1083.39 2833.76 1095.36 2845.22 1095.36 2848.28 1092.15 2854.27 1097.04C2854.02 1097.33 2853.66 1097.57 2853.2 1097.75 2852.74 1097.93 2852.15 1098.06 2851.42 1098.13 2851.23 1105.49 2850.81 1111.02 2850.18 1114.71 2849.55 1118.41 2848.55 1120.82 2847.19 1121.93 2846.34 1122.69 2845.33 1123.25 2844.17 1123.6 2843 1123.95 2841.72 1124.13 2840.33 1124.12 2840.34 1123.34 2840.28 1122.6 2840.14 1121.91 2840.01 1121.22 2839.73 1120.67 2839.3 1120.25 2838.91 1119.85 2838.29 1119.49 2837.43 1119.18 2836.58 1118.86 2835.64 1118.61 2834.63 1118.43L2834.7 1117.26C2835.73 1117.37 2836.91 1117.47 2838.24 1117.56 2839.56 1117.65 2840.58 1117.69 2841.27 1117.7 2841.81 1117.7 2842.24 1117.66 2842.55 1117.56 2842.87 1117.46 2843.15 1117.29 2843.39 1117.04 2844.08 1116.41 2844.62 1114.5 2845.02 1111.3 2845.41 1108.1 2845.7 1103.47 2845.87 1097.4L2833.76 1097.4C2833.82 1101.25 2833.58 1105.36 2833.05 1109.73 2832.52 1114.1 2831.34 1118.41 2829.49 1122.64 2827.65 1126.88 2824.79 1130.73 2820.91 1134.19L2819.96 1133.39C2823.45 1127.95 2825.68 1122.08 2826.65 1115.79 2827.61 1109.5 2828.04 1103.25 2827.92 1097.04L2827.92 1081.27 2827.92 1078.5 2834.78 1081.27 2856.53 1081.27C2856.35 1078.9 2856.22 1076.5 2856.14 1074.08 2856.06 1071.66 2856.02 1069.19 2856.02 1066.67Z" fill-rule="evenodd"/><text fill="#000000" fill-opacity="0" font-family="Arial,Arial_MSFontService,sans-serif" font-size="67.5249" x="2746.59" y="1125.75">加成</text><path d="M2958.89 1065.94 2960.13 1067.33C2957.27 1069.63 2954.65 1072.35 2952.28 1075.49 2949.9 1078.62 2948 1082.24 2946.57 1086.32 2945.13 1090.41 2944.4 1095.03 2944.36 1100.18 2944.4 1105.33 2945.13 1109.94 2946.57 1114.03 2948 1118.12 2949.9 1121.73 2952.28 1124.87 2954.65 1128 2957.27 1130.72 2960.13 1133.03L2958.89 1134.41C2955.47 1132.34 2952.26 1129.75 2949.24 1126.66 2946.23 1123.56 2943.78 1119.83 2941.89 1115.48 2939.99 1111.12 2939.02 1106.02 2938.96 1100.18 2939.02 1094.33 2939.99 1089.23 2941.89 1084.88 2943.78 1080.52 2946.23 1076.79 2949.24 1073.7 2952.26 1070.6 2955.47 1068.01 2958.89 1065.94Z" fill-rule="evenodd"/><text fill="#000000" fill-opacity="0" font-family="Arial,Arial_MSFontService,sans-serif" font-size="68.474" x="2938.96" y="1125.85">（</text><text font-family="Source Han Serif SC Medium,Source Han Serif SC Medium_MSFontService,sans-serif" font-weight="500" font-size="73" transform="matrix(1 0 0 1 2964.91 1128)">2</text><text font-family="Source Han Serif SC Medium,Source Han Serif SC Medium_MSFontService,sans-serif" font-weight="500" font-size="73" transform="matrix(1 0 0 1 3006.74 1128)">-</text><text font-family="Source Han Serif SC Medium,Source Han Serif SC Medium_MSFontService,sans-serif" font-weight="500" font-size="73" transform="matrix(1 0 0 1 3032.52 1128)">3 </text><text font-family="Source Han Serif SC Medium,Source Han Serif SC Medium_MSFontService,sans-serif" font-weight="500" font-size="73" transform="matrix(1 0 0 1 3093.25 1128)">有双键）</text><path d="M2581.43 1166.71C2584.12 1166.71 2586.47 1167.12 2588.49 1167.95 2590.51 1168.79 2592.05 1169.98 2593.12 1171.54 2594.19 1173.09 2594.73 1174.95 2594.73 1177.11 2594.73 1179.13 2594.32 1180.91 2593.51 1182.44 2592.71 1183.98 2591.57 1185.31 2590.11 1186.45 2588.65 1187.59 2586.75 1188.71 2584.42 1189.8L2584.42 1190.12C2585.87 1190.39 2587.27 1190.83 2588.61 1191.46 2589.95 1192.09 2591.15 1192.91 2592.19 1193.9 2593.24 1194.9 2594.08 1196.1 2594.71 1197.49 2595.34 1198.88 2595.65 1200.46 2595.65 1202.24 2595.65 1205 2595.05 1207.45 2593.85 1209.59 2592.65 1211.73 2590.82 1213.41 2588.34 1214.65 2585.87 1215.88 2582.87 1216.5 2579.33 1216.5 2577.28 1216.5 2575.08 1216.27 2572.71 1215.81 2570.35 1215.34 2568.18 1214.73 2566.21 1213.97L2566.21 1206.41 2570.49 1206.41C2571.32 1208.89 2572.42 1210.68 2573.78 1211.8 2575.15 1212.91 2577.01 1213.47 2579.36 1213.47 2582.45 1213.47 2584.79 1212.63 2586.37 1210.94 2587.95 1209.25 2588.74 1206.76 2588.74 1203.46 2588.74 1199.99 2587.69 1197.34 2585.6 1195.51 2583.51 1193.68 2580.44 1192.76 2576.4 1192.76L2573.2 1192.76 2573.2 1189.63C2576.4 1189.44 2579.11 1188.82 2581.31 1187.77 2583.5 1186.73 2585.14 1185.38 2586.21 1183.74 2587.28 1182.1 2587.81 1180.26 2587.81 1178.22 2587.81 1175.58 2587.11 1173.55 2585.71 1172.12 2584.31 1170.7 2582.26 1169.99 2579.58 1169.99 2577.34 1169.99 2575.52 1170.59 2574.12 1171.8 2572.72 1173.02 2571.69 1174.87 2571.02 1177.36L2566.74 1177.36 2566.74 1170.59C2569.5 1169.28 2572.08 1168.31 2574.48 1167.67 2576.88 1167.03 2579.2 1166.71 2581.43 1166.71Z" fill-rule="evenodd"/><text fill="#000000" fill-opacity="0" font-family="Arial,Arial_MSFontService,sans-serif" font-size="49.7954" x="2566.21" y="1210.28">3</text><path d="M2606.53 1207.66 2612.77 1207.66C2613.1 1209.33 2613.27 1210.97 2613.27 1212.58 2613.27 1214.24 2612.98 1215.77 2612.41 1217.14 2611.84 1218.52 2610.93 1219.89 2609.69 1221.26 2608.44 1222.63 2606.72 1224.13 2604.53 1225.77L2602.61 1223.6C2603.82 1222.45 2604.7 1221.43 2605.25 1220.51 2605.79 1219.6 2606.19 1218.56 2606.42 1217.39 2606.66 1216.23 2606.78 1214.77 2606.78 1213.01 2606.78 1211.2 2606.7 1209.42 2606.53 1207.66Z" fill-rule="evenodd"/><text fill="#000000" fill-opacity="0" font-family="Arial,Arial_MSFontService,sans-serif" font-size="18.1074" x="2602.61" y="1223.51">,</text><path d="M2639.21 1175.08 2625.28 1197.22 2625.28 1197.72 2639.21 1197.72 2639.21 1188.84C2639.21 1186.61 2639.25 1184.11 2639.32 1181.34 2639.39 1178.57 2639.47 1176.48 2639.57 1175.08ZM2640.25 1167.03 2645.34 1167.03 2645.34 1197.72 2646.09 1197.72C2647.47 1197.72 2648.46 1197.62 2649.05 1197.41 2649.64 1197.21 2650.14 1196.86 2650.53 1196.34 2650.92 1195.83 2651.28 1195 2651.62 1193.83L2654.33 1193.83 2653.9 1201.17 2645.34 1201.17 2645.34 1207.02C2645.34 1208.61 2645.4 1209.78 2645.5 1210.51 2645.61 1211.25 2645.79 1211.83 2646.04 1212.26 2646.29 1212.69 2646.66 1213.04 2647.14 1213.33 2647.63 1213.61 2648.42 1213.9 2649.51 1214.18L2649.51 1215.93 2635.04 1215.93 2635.04 1214.18C2636.52 1213.8 2637.5 1213.38 2638 1212.92 2638.5 1212.46 2638.83 1211.8 2638.98 1210.94 2639.14 1210.09 2639.21 1208.78 2639.21 1207.02L2639.21 1201.17 2619.39 1201.17 2619.39 1198.5Z" fill-rule="evenodd"/><text fill="#000000" fill-opacity="0" font-family="Arial,Arial_MSFontService,sans-serif" font-size="48.9043" x="2619.39" y="1209.82">4</text><path d="M2678.93 1192.69 2722.85 1192.69 2722.85 1197.43 2678.93 1197.43Z" fill-rule="evenodd"/><text fill="#000000" fill-opacity="0" font-family="Arial,Arial_MSFontService,sans-serif" font-size="4.74072" x="2678.93" y="1196.84">−</text><path d="M2793.31 1169.07 2793.31 1210.46 2805.43 1210.46 2805.43 1169.07ZM2807.84 1163.3 2814.7 1168.7C2814.44 1169.03 2814.02 1169.33 2813.43 1169.6 2812.85 1169.87 2812.16 1170.08 2811.34 1170.23L2811.34 1216.95C2811.24 1217.3 2810.67 1217.72 2809.63 1218.23 2808.59 1218.74 2807.51 1219.02 2806.38 1219.07L2805.43 1219.07 2805.43 1212.57 2793.31 1212.57 2793.31 1218.05C2793.28 1218.46 2792.8 1218.9 2791.9 1219.38 2790.99 1219.86 2789.88 1220.12 2788.57 1220.17L2787.55 1220.17 2787.55 1166.95 2787.55 1164.17 2793.61 1166.95 2804.7 1166.95ZM2867.12 1156.29C2871.15 1156.5 2874.13 1157.16 2876.06 1158.29 2878 1159.41 2879.13 1160.62 2879.45 1161.92 2879.78 1163.22 2879.54 1164.23 2878.74 1164.96 2877.94 1165.7 2876.81 1165.77 2875.37 1165.2 2874.53 1163.66 2873.28 1162.14 2871.61 1160.64 2869.93 1159.15 2868.24 1157.94 2866.53 1157.02ZM2759.88 1154.83 2768.49 1155.71C2768.41 1156.22 2768.18 1156.65 2767.82 1157 2767.46 1157.35 2766.83 1157.6 2765.94 1157.75L2765.65 1170.45 2774.33 1170.45 2777.62 1166.88 2783.82 1172.13C2783.57 1172.46 2783.2 1172.73 2782.71 1172.95 2782.22 1173.17 2781.59 1173.34 2780.83 1173.45 2780.57 1186.55 2780.03 1196.64 2779.22 1203.71 2778.42 1210.79 2777.15 1215.27 2775.43 1217.17 2774.36 1218.34 2773.09 1219.2 2771.61 1219.76 2770.14 1220.33 2768.54 1220.61 2766.81 1220.6 2766.83 1219.62 2766.75 1218.76 2766.59 1218.04 2766.42 1217.32 2766.11 1216.74 2765.65 1216.3 2765.07 1215.78 2764.2 1215.33 2763.02 1214.94 2761.84 1214.54 2760.53 1214.22 2759.08 1213.96L2759.15 1212.72C2760.67 1212.88 2762.33 1213.04 2764.13 1213.19 2765.93 1213.35 2767.26 1213.44 2768.13 1213.45 2768.83 1213.46 2769.38 1213.39 2769.76 1213.25 2770.15 1213.11 2770.53 1212.86 2770.9 1212.5 2772.16 1211.22 2773.1 1207.18 2773.72 1200.39 2774.35 1193.6 2774.79 1184.33 2775.06 1172.57L2765.57 1172.57C2765.39 1178.35 2764.79 1184.13 2763.78 1189.93 2762.77 1195.73 2761.01 1201.34 2758.51 1206.74 2756.01 1212.15 2752.43 1217.16 2747.76 1221.77L2746.59 1220.68C2749.99 1215.96 2752.61 1210.96 2754.46 1205.69 2756.31 1200.42 2757.62 1194.99 2758.39 1189.41 2759.15 1183.82 2759.6 1178.21 2759.73 1172.57L2749.08 1172.57 2748.42 1170.45 2759.81 1170.45C2759.87 1165.14 2759.89 1159.93 2759.88 1154.83ZM2856.02 1154.68 2864.56 1155.56C2864.54 1156.05 2864.33 1156.48 2863.94 1156.86 2863.55 1157.23 2862.91 1157.48 2862.01 1157.6 2861.92 1161.53 2862.02 1165.43 2862.3 1169.28L2876.97 1169.28 2880.84 1164.47C2880.88 1164.49 2881.3 1164.81 2882.09 1165.43 2882.89 1166.04 2883.83 1166.79 2884.92 1167.67 2886.01 1168.55 2887.01 1169.4 2887.92 1170.23 2887.84 1170.63 2887.62 1170.93 2887.26 1171.12 2886.91 1171.31 2886.47 1171.4 2885.95 1171.4L2862.37 1171.4C2862.72 1176.02 2863.33 1180.47 2864.21 1184.75 2865.08 1189.03 2866.29 1193.03 2867.85 1196.73 2869.56 1193.73 2871.01 1190.65 2872.21 1187.5 2873.41 1184.35 2874.39 1181.2 2875.15 1178.04L2883.83 1180.75C2883.71 1181.19 2883.43 1181.51 2883 1181.72 2882.58 1181.93 2881.88 1182.02 2880.91 1181.99 2879.79 1185.4 2878.37 1188.79 2876.66 1192.17 2874.95 1195.55 2872.91 1198.79 2870.55 1201.92 2871.82 1204 2873.27 1205.91 2874.89 1207.63 2876.51 1209.35 2878.33 1210.85 2880.33 1212.14 2880.97 1212.62 2881.46 1212.84 2881.83 1212.79 2882.19 1212.75 2882.54 1212.38 2882.88 1211.7 2883.38 1210.77 2883.96 1209.51 2884.61 1207.93 2885.26 1206.35 2885.85 1204.78 2886.39 1203.23L2887.34 1203.38 2885.95 1214.69C2887.13 1216.2 2887.84 1217.36 2888.07 1218.19 2888.3 1219.01 2888.2 1219.64 2887.78 1220.09 2886.63 1221.24 2885.04 1221.48 2883.01 1220.8 2880.99 1220.13 2879.07 1219.09 2877.26 1217.68 2875.12 1216.18 2873.17 1214.49 2871.42 1212.62 2869.68 1210.74 2868.1 1208.71 2866.68 1206.51 2863.87 1209.56 2860.63 1212.35 2856.95 1214.89 2853.27 1217.43 2849.12 1219.6 2844.49 1221.41L2843.9 1220.46C2848.2 1218.14 2852.05 1215.44 2855.44 1212.36 2858.82 1209.29 2861.79 1205.95 2864.34 1202.35 2862.17 1197.99 2860.47 1193.21 2859.25 1188 2858.03 1182.79 2857.17 1177.26 2856.68 1171.4L2833.76 1171.4 2833.76 1183.37 2845.22 1183.37 2848.28 1180.16 2854.27 1185.05C2854.02 1185.34 2853.66 1185.58 2853.2 1185.76 2852.74 1185.95 2852.15 1186.07 2851.42 1186.15 2851.23 1193.5 2850.81 1199.03 2850.18 1202.73 2849.55 1206.42 2848.55 1208.83 2847.19 1209.95 2846.34 1210.71 2845.33 1211.26 2844.17 1211.62 2843 1211.97 2841.72 1212.14 2840.33 1212.14 2840.34 1211.35 2840.28 1210.62 2840.14 1209.93 2840.01 1209.24 2839.73 1208.68 2839.3 1208.27 2838.91 1207.86 2838.29 1207.5 2837.43 1207.19 2836.58 1206.88 2835.64 1206.63 2834.63 1206.44L2834.7 1205.27C2835.73 1205.39 2836.91 1205.49 2838.24 1205.57 2839.56 1205.66 2840.58 1205.71 2841.27 1205.71 2841.81 1205.72 2842.24 1205.67 2842.55 1205.57 2842.87 1205.48 2843.15 1205.31 2843.39 1205.05 2844.08 1204.42 2844.62 1202.51 2845.02 1199.31 2845.41 1196.12 2845.7 1191.49 2845.87 1185.42L2833.76 1185.42C2833.82 1189.27 2833.58 1193.38 2833.05 1197.75 2832.52 1202.12 2831.34 1206.42 2829.49 1210.66 2827.65 1214.9 2824.79 1218.75 2820.91 1222.21L2819.96 1221.41C2823.45 1215.96 2825.68 1210.1 2826.65 1203.8 2827.61 1197.51 2828.04 1191.26 2827.92 1185.05L2827.92 1169.28 2827.92 1166.51 2834.78 1169.28 2856.53 1169.28C2856.35 1166.92 2856.22 1164.52 2856.14 1162.09 2856.06 1159.67 2856.02 1157.2 2856.02 1154.68Z" fill-rule="evenodd"/><text fill="#000000" fill-opacity="0" font-family="Arial,Arial_MSFontService,sans-serif" font-size="67.5249" x="2746.59" y="1213.77">加成</text><path d="M2591.55 1253.93 2594.33 1253.93 2593.8 1262.2 2573.3 1262.2 2573.3 1277.85C2574.54 1277.33 2575.88 1276.94 2577.33 1276.67 2578.78 1276.41 2580.23 1276.28 2581.68 1276.28 2584.51 1276.28 2587.01 1276.86 2589.2 1278.01 2591.39 1279.16 2593.07 1280.8 2594.26 1282.93 2595.45 1285.06 2596.04 1287.52 2596.04 1290.33 2596.04 1293.51 2595.38 1296.24 2594.05 1298.52 2592.72 1300.81 2590.79 1302.54 2588.27 1303.73 2585.75 1304.92 2582.77 1305.51 2579.33 1305.51 2575.22 1305.51 2570.91 1304.67 2566.42 1302.98L2566.42 1295.42 2570.74 1295.42C2571.45 1297.85 2572.52 1299.63 2573.96 1300.77 2575.4 1301.91 2577.26 1302.48 2579.54 1302.48 2582.7 1302.48 2585.09 1301.53 2586.71 1299.63 2588.32 1297.73 2589.13 1294.89 2589.13 1291.11 2589.13 1288.59 2588.7 1286.51 2587.85 1284.85 2586.99 1283.2 2585.84 1282.01 2584.39 1281.27 2582.94 1280.54 2581.25 1280.17 2579.33 1280.17 2577.71 1280.17 2576.32 1280.27 2575.16 1280.47 2573.99 1280.67 2572.74 1280.99 2571.41 1281.41L2568.56 1279.74 2568.56 1256.29 2588.2 1256.29C2589.01 1256.29 2589.59 1256.22 2589.95 1256.09 2590.31 1255.96 2590.59 1255.76 2590.8 1255.48 2591.02 1255.21 2591.27 1254.69 2591.55 1253.93Z" fill-rule="evenodd"/><text fill="#000000" fill-opacity="0" font-family="Arial,Arial_MSFontService,sans-serif" font-size="51.5776" x="2566.42" y="1299.06">5</text><path d="M2606.53 1296.67 2612.77 1296.67C2613.1 1298.33 2613.27 1299.97 2613.27 1301.59 2613.27 1303.25 2612.98 1304.77 2612.41 1306.15 2611.84 1307.53 2610.93 1308.9 2609.69 1310.27 2608.44 1311.64 2606.72 1313.14 2604.53 1314.78L2602.61 1312.6C2603.82 1311.46 2604.7 1310.44 2605.25 1309.52 2605.79 1308.61 2606.19 1307.57 2606.42 1306.4 2606.66 1305.24 2606.78 1303.78 2606.78 1302.02 2606.78 1300.21 2606.7 1298.43 2606.53 1296.67Z" fill-rule="evenodd"/><text fill="#000000" fill-opacity="0" font-family="Arial,Arial_MSFontService,sans-serif" font-size="18.1074" x="2602.61" y="1312.51">,</text><path d="M2638.5 1279.28C2637.34 1279.28 2636.21 1279.41 2635.13 1279.67 2634.05 1279.93 2633.03 1280.31 2632.08 1280.81 2631.13 1281.31 2630.21 1281.94 2629.3 1282.7 2629.02 1282.96 2628.8 1283.23 2628.66 1283.52 2628.42 1283.97 2628.27 1284.53 2628.2 1285.19 2628.13 1285.86 2628.09 1286.97 2628.09 1288.54 2628.09 1293.08 2628.85 1296.54 2630.37 1298.92 2631.89 1301.29 2634.2 1302.48 2637.29 1302.48 2639.07 1302.48 2640.57 1302.17 2641.78 1301.55 2642.99 1300.94 2643.97 1300.09 2644.72 1299.01 2645.47 1297.92 2646 1296.65 2646.32 1295.19 2646.64 1293.73 2646.81 1292.14 2646.81 1290.43 2646.81 1286.92 2646.08 1284.18 2644.63 1282.22 2643.18 1280.26 2641.14 1279.28 2638.5 1279.28ZM2647.66 1255.71 2649.12 1257.68 2649.12 1259.42C2645.46 1259.42 2642.22 1260.21 2639.39 1261.77 2636.56 1263.34 2634.22 1265.65 2632.35 1268.69 2630.49 1271.73 2629.17 1275.34 2628.41 1279.53L2628.77 1279.67C2630.77 1278.24 2632.73 1277.2 2634.67 1276.53 2636.6 1275.87 2638.7 1275.53 2640.96 1275.53 2643.64 1275.53 2645.93 1276.12 2647.82 1277.3 2649.71 1278.47 2651.13 1280.13 2652.08 1282.25 2653.03 1284.38 2653.51 1286.87 2653.51 1289.72 2653.51 1292.81 2652.91 1295.54 2651.72 1297.9 2650.54 1300.26 2648.7 1302.12 2646.22 1303.48 2643.73 1304.83 2640.67 1305.51 2637.04 1305.51 2631.83 1305.51 2627.91 1303.89 2625.26 1300.66 2622.61 1297.43 2621.28 1292.67 2621.28 1286.37 2621.28 1282.14 2621.95 1278.18 2623.28 1274.5 2624.61 1270.82 2626.5 1267.6 2628.95 1264.86 2631.39 1262.11 2634.23 1259.95 2637.47 1258.37 2640.7 1256.79 2644.1 1255.9 2647.66 1255.71Z" fill-rule="evenodd"/><text fill="#000000" fill-opacity="0" font-family="Arial,Arial_MSFontService,sans-serif" font-size="49.7954" x="2621.28" y="1299.29">6</text><path d="M2678.93 1281.7 2722.85 1281.7 2722.85 1286.44 2678.93 1286.44Z" fill-rule="evenodd"/><text fill="#000000" fill-opacity="0" font-family="Arial,Arial_MSFontService,sans-serif" font-size="4.74072" x="2678.93" y="1285.85">−</text><path d="M2793.31 1258.07 2793.31 1299.46 2805.43 1299.46 2805.43 1258.07ZM2807.84 1252.31 2814.7 1257.71C2814.44 1258.04 2814.02 1258.34 2813.43 1258.61 2812.85 1258.88 2812.16 1259.09 2811.34 1259.24L2811.34 1305.96C2811.24 1306.31 2810.67 1306.73 2809.63 1307.24 2808.59 1307.75 2807.51 1308.03 2806.38 1308.08L2805.43 1308.08 2805.43 1301.58 2793.31 1301.58 2793.31 1307.06C2793.28 1307.46 2792.8 1307.91 2791.9 1308.39 2790.99 1308.87 2789.88 1309.13 2788.57 1309.17L2787.55 1309.17 2787.55 1255.96 2787.55 1253.18 2793.61 1255.96 2804.7 1255.96ZM2867.12 1245.3C2871.15 1245.51 2874.13 1246.17 2876.06 1247.3 2878 1248.42 2879.13 1249.63 2879.45 1250.93 2879.78 1252.23 2879.54 1253.24 2878.74 1253.97 2877.94 1254.7 2876.81 1254.78 2875.37 1254.2 2874.53 1252.66 2873.28 1251.15 2871.61 1249.65 2869.93 1248.16 2868.24 1246.95 2866.53 1246.03ZM2759.88 1243.84 2768.49 1244.71C2768.41 1245.23 2768.18 1245.66 2767.82 1246.01 2767.46 1246.36 2766.83 1246.61 2765.94 1246.76L2765.65 1259.46 2774.33 1259.46 2777.62 1255.88 2783.82 1261.14C2783.57 1261.47 2783.2 1261.74 2782.71 1261.96 2782.22 1262.18 2781.59 1262.34 2780.83 1262.45 2780.57 1275.56 2780.03 1285.65 2779.22 1292.72 2778.42 1299.79 2777.15 1304.28 2775.43 1306.18 2774.36 1307.35 2773.09 1308.21 2771.61 1308.77 2770.14 1309.34 2768.54 1309.61 2766.81 1309.61 2766.83 1308.62 2766.75 1307.77 2766.59 1307.05 2766.42 1306.33 2766.11 1305.74 2765.65 1305.3 2765.07 1304.79 2764.2 1304.34 2763.02 1303.95 2761.84 1303.55 2760.53 1303.23 2759.08 1302.97L2759.15 1301.73C2760.67 1301.89 2762.33 1302.04 2764.13 1302.2 2765.93 1302.36 2767.26 1302.45 2768.13 1302.46 2768.83 1302.46 2769.38 1302.4 2769.76 1302.26 2770.15 1302.12 2770.53 1301.87 2770.9 1301.51 2772.16 1300.22 2773.1 1296.19 2773.72 1289.4 2774.35 1282.61 2774.79 1273.34 2775.06 1261.58L2765.57 1261.58C2765.39 1267.35 2764.79 1273.14 2763.78 1278.94 2762.77 1284.74 2761.01 1290.34 2758.51 1295.75 2756.01 1301.16 2752.43 1306.17 2747.76 1310.78L2746.59 1309.68C2749.99 1304.97 2752.61 1299.97 2754.46 1294.7 2756.31 1289.42 2757.62 1284 2758.39 1278.41 2759.15 1272.83 2759.6 1267.22 2759.73 1261.58L2749.08 1261.58 2748.42 1259.46 2759.81 1259.46C2759.87 1254.14 2759.89 1248.94 2759.88 1243.84ZM2856.02 1243.69 2864.56 1244.57C2864.54 1245.06 2864.33 1245.49 2863.94 1245.86 2863.55 1246.24 2862.91 1246.49 2862.01 1246.61 2861.92 1250.54 2862.02 1254.44 2862.3 1258.29L2876.97 1258.29 2880.84 1253.47C2880.88 1253.5 2881.3 1253.82 2882.09 1254.43 2882.89 1255.05 2883.83 1255.8 2884.92 1256.68 2886.01 1257.56 2887.01 1258.41 2887.92 1259.24 2887.84 1259.64 2887.62 1259.94 2887.26 1260.13 2886.91 1260.32 2886.47 1260.41 2885.95 1260.41L2862.37 1260.41C2862.72 1265.03 2863.33 1269.48 2864.21 1273.76 2865.08 1278.04 2866.29 1282.03 2867.85 1285.74 2869.56 1282.74 2871.01 1279.66 2872.21 1276.51 2873.41 1273.36 2874.39 1270.2 2875.15 1267.05L2883.83 1269.75C2883.71 1270.19 2883.43 1270.52 2883 1270.73 2882.58 1270.94 2881.88 1271.03 2880.91 1270.99 2879.79 1274.41 2878.37 1277.8 2876.66 1281.18 2874.95 1284.55 2872.91 1287.8 2870.55 1290.92 2871.82 1293.01 2873.27 1294.91 2874.89 1296.64 2876.51 1298.36 2878.33 1299.86 2880.33 1301.14 2880.97 1301.63 2881.46 1301.85 2881.83 1301.8 2882.19 1301.76 2882.54 1301.39 2882.88 1300.71 2883.38 1299.77 2883.96 1298.52 2884.61 1296.94 2885.26 1295.36 2885.85 1293.79 2886.39 1292.24L2887.34 1292.38 2885.95 1303.7C2887.13 1305.21 2887.84 1306.37 2888.07 1307.19 2888.3 1308.02 2888.2 1308.65 2887.78 1309.1 2886.63 1310.25 2885.04 1310.49 2883.01 1309.81 2880.99 1309.14 2879.07 1308.1 2877.26 1306.69 2875.12 1305.19 2873.17 1303.5 2871.42 1301.63 2869.68 1299.75 2868.1 1297.72 2866.68 1295.52 2863.87 1298.57 2860.63 1301.36 2856.95 1303.9 2853.27 1306.44 2849.12 1308.61 2844.49 1310.41L2843.9 1309.47C2848.2 1307.15 2852.05 1304.45 2855.44 1301.37 2858.82 1298.3 2861.79 1294.96 2864.34 1291.36 2862.17 1287 2860.47 1282.22 2859.25 1277.01 2858.03 1271.8 2857.17 1266.27 2856.68 1260.41L2833.76 1260.41 2833.76 1272.38 2845.22 1272.38 2848.28 1269.17 2854.27 1274.06C2854.02 1274.35 2853.66 1274.59 2853.2 1274.77 2852.74 1274.96 2852.15 1275.08 2851.42 1275.16 2851.23 1282.51 2850.81 1288.04 2850.18 1291.74 2849.55 1295.43 2848.55 1297.84 2847.19 1298.95 2846.34 1299.72 2845.33 1300.27 2844.17 1300.62 2843 1300.97 2841.72 1301.15 2840.33 1301.14 2840.34 1300.36 2840.28 1299.63 2840.14 1298.94 2840.01 1298.25 2839.73 1297.69 2839.3 1297.27 2838.91 1296.87 2838.29 1296.51 2837.43 1296.2 2836.58 1295.88 2835.64 1295.64 2834.63 1295.45L2834.7 1294.28C2835.73 1294.4 2836.91 1294.5 2838.24 1294.58 2839.56 1294.67 2840.58 1294.72 2841.27 1294.72 2841.81 1294.72 2842.24 1294.68 2842.55 1294.58 2842.87 1294.49 2843.15 1294.31 2843.39 1294.06 2844.08 1293.43 2844.62 1291.52 2845.02 1288.32 2845.41 1285.13 2845.7 1280.5 2845.87 1274.43L2833.76 1274.43C2833.82 1278.28 2833.58 1282.39 2833.05 1286.75 2832.52 1291.12 2831.34 1295.43 2829.49 1299.67 2827.65 1303.91 2824.79 1307.76 2820.91 1311.22L2819.96 1310.41C2823.45 1304.97 2825.68 1299.1 2826.65 1292.81 2827.61 1286.52 2828.04 1280.27 2827.92 1274.06L2827.92 1258.29 2827.92 1255.52 2834.78 1258.29 2856.53 1258.29C2856.35 1255.92 2856.22 1253.53 2856.14 1251.1 2856.06 1248.68 2856.02 1246.21 2856.02 1243.69Z" fill-rule="evenodd"/><text fill="#000000" fill-opacity="0" font-family="Arial,Arial_MSFontService,sans-serif" font-size="67.5249" x="2746.59" y="1302.78">加成</text><path d="M2583.64 1353.09 2569.7 1375.23 2569.7 1375.73 2583.64 1375.73 2583.64 1366.85C2583.64 1364.62 2583.68 1362.12 2583.75 1359.35 2583.82 1356.58 2583.9 1354.49 2584 1353.09ZM2584.67 1345.04 2589.77 1345.04 2589.77 1375.73 2590.52 1375.73C2591.9 1375.73 2592.88 1375.62 2593.48 1375.42 2594.07 1375.22 2594.56 1374.86 2594.96 1374.35 2595.35 1373.84 2595.71 1373 2596.04 1371.84L2598.75 1371.84 2598.33 1379.18 2589.77 1379.18 2589.77 1385.03C2589.77 1386.62 2589.82 1387.79 2589.93 1388.52 2590.04 1389.26 2590.22 1389.84 2590.47 1390.27 2590.72 1390.7 2591.08 1391.05 2591.57 1391.34 2592.06 1391.62 2592.85 1391.91 2593.94 1392.19L2593.94 1393.94 2579.47 1393.94 2579.47 1392.19C2580.94 1391.81 2581.93 1391.39 2582.43 1390.93 2582.93 1390.46 2583.25 1389.81 2583.41 1388.95 2583.56 1388.09 2583.64 1386.79 2583.64 1385.03L2583.64 1379.18 2563.82 1379.18 2563.82 1376.51Z" fill-rule="evenodd"/><text fill="#000000" fill-opacity="0" font-family="Arial,Arial_MSFontService,sans-serif" font-size="48.9043" x="2563.82" y="1387.83">4</text><path d="M2606.53 1385.67 2612.77 1385.67C2613.1 1387.33 2613.27 1388.97 2613.27 1390.59 2613.27 1392.25 2612.98 1393.77 2612.41 1395.15 2611.84 1396.53 2610.93 1397.9 2609.69 1399.27 2608.44 1400.64 2606.72 1402.14 2604.53 1403.78L2602.61 1401.6C2603.82 1400.46 2604.7 1399.44 2605.25 1398.52 2605.79 1397.61 2606.19 1396.57 2606.42 1395.4 2606.66 1394.24 2606.78 1392.78 2606.78 1391.02 2606.78 1389.21 2606.7 1387.43 2606.53 1385.67Z" fill-rule="evenodd"/><text fill="#000000" fill-opacity="0" font-family="Arial,Arial_MSFontService,sans-serif" font-size="18.1074" x="2602.61" y="1401.51">,</text><path d="M2638.5 1368.28C2637.34 1368.28 2636.21 1368.41 2635.13 1368.67 2634.05 1368.93 2633.03 1369.31 2632.08 1369.81 2631.13 1370.31 2630.21 1370.94 2629.3 1371.7 2629.02 1371.96 2628.8 1372.23 2628.66 1372.52 2628.42 1372.97 2628.27 1373.53 2628.2 1374.19 2628.13 1374.86 2628.09 1375.97 2628.09 1377.54 2628.09 1382.08 2628.85 1385.54 2630.37 1387.92 2631.89 1390.29 2634.2 1391.48 2637.29 1391.48 2639.07 1391.48 2640.57 1391.17 2641.78 1390.55 2642.99 1389.94 2643.97 1389.09 2644.72 1388.01 2645.47 1386.92 2646 1385.65 2646.32 1384.19 2646.64 1382.73 2646.81 1381.14 2646.81 1379.43 2646.81 1375.92 2646.08 1373.18 2644.63 1371.22 2643.18 1369.26 2641.14 1368.28 2638.5 1368.28ZM2647.66 1344.71 2649.12 1346.68 2649.12 1348.42C2645.46 1348.42 2642.22 1349.21 2639.39 1350.77 2636.56 1352.34 2634.22 1354.65 2632.35 1357.69 2630.49 1360.73 2629.17 1364.34 2628.41 1368.53L2628.77 1368.67C2630.77 1367.24 2632.73 1366.2 2634.67 1365.53 2636.6 1364.87 2638.7 1364.53 2640.96 1364.53 2643.64 1364.53 2645.93 1365.12 2647.82 1366.3 2649.71 1367.47 2651.13 1369.13 2652.08 1371.25 2653.03 1373.38 2653.51 1375.87 2653.51 1378.72 2653.51 1381.81 2652.91 1384.54 2651.72 1386.9 2650.54 1389.26 2648.7 1391.12 2646.22 1392.48 2643.73 1393.83 2640.67 1394.51 2637.04 1394.51 2631.83 1394.51 2627.91 1392.89 2625.26 1389.66 2622.61 1386.43 2621.28 1381.67 2621.28 1375.37 2621.28 1371.14 2621.95 1367.18 2623.28 1363.5 2624.61 1359.82 2626.5 1356.6 2628.95 1353.86 2631.39 1351.11 2634.23 1348.95 2637.47 1347.37 2640.7 1345.79 2644.1 1344.9 2647.66 1344.71Z" fill-rule="evenodd"/><text fill="#000000" fill-opacity="0" font-family="Arial,Arial_MSFontService,sans-serif" font-size="49.7954" x="2621.28" y="1388.29">6</text><path d="M2678.93 1370.7 2722.85 1370.7 2722.85 1375.44 2678.93 1375.44Z" fill-rule="evenodd"/><text fill="#000000" fill-opacity="0" font-family="Arial,Arial_MSFontService,sans-serif" font-size="4.74072" x="2678.93" y="1374.85">−</text><path d="M2793.31 1347.07 2793.31 1388.46 2805.43 1388.46 2805.43 1347.07ZM2807.84 1341.31 2814.7 1346.71C2814.44 1347.04 2814.02 1347.34 2813.43 1347.61 2812.85 1347.88 2812.16 1348.09 2811.34 1348.24L2811.34 1394.96C2811.24 1395.31 2810.67 1395.73 2809.63 1396.24 2808.59 1396.75 2807.51 1397.03 2806.38 1397.08L2805.43 1397.08 2805.43 1390.58 2793.31 1390.58 2793.31 1396.06C2793.28 1396.46 2792.8 1396.91 2791.9 1397.39 2790.99 1397.87 2789.88 1398.13 2788.57 1398.17L2787.55 1398.17 2787.55 1344.96 2787.55 1342.18 2793.61 1344.96 2804.7 1344.96ZM2867.12 1334.3C2871.15 1334.51 2874.13 1335.17 2876.06 1336.3 2878 1337.42 2879.13 1338.63 2879.45 1339.93 2879.78 1341.23 2879.54 1342.24 2878.74 1342.97 2877.94 1343.7 2876.81 1343.78 2875.37 1343.2 2874.53 1341.66 2873.28 1340.15 2871.61 1338.65 2869.93 1337.16 2868.24 1335.95 2866.53 1335.03ZM2759.88 1332.84 2768.49 1333.71C2768.41 1334.23 2768.18 1334.66 2767.82 1335.01 2767.46 1335.36 2766.83 1335.61 2765.94 1335.76L2765.65 1348.46 2774.33 1348.46 2777.62 1344.88 2783.82 1350.14C2783.57 1350.47 2783.2 1350.74 2782.71 1350.96 2782.22 1351.18 2781.59 1351.34 2780.83 1351.45 2780.57 1364.56 2780.03 1374.65 2779.22 1381.72 2778.42 1388.79 2777.15 1393.28 2775.43 1395.18 2774.36 1396.35 2773.09 1397.21 2771.61 1397.77 2770.14 1398.34 2768.54 1398.61 2766.81 1398.61 2766.83 1397.62 2766.75 1396.77 2766.59 1396.05 2766.42 1395.33 2766.11 1394.74 2765.65 1394.3 2765.07 1393.79 2764.2 1393.34 2763.02 1392.95 2761.84 1392.55 2760.53 1392.23 2759.08 1391.97L2759.15 1390.73C2760.67 1390.89 2762.33 1391.04 2764.13 1391.2 2765.93 1391.36 2767.26 1391.45 2768.13 1391.46 2768.83 1391.46 2769.38 1391.4 2769.76 1391.26 2770.15 1391.12 2770.53 1390.87 2770.9 1390.51 2772.16 1389.22 2773.1 1385.19 2773.72 1378.4 2774.35 1371.61 2774.79 1362.34 2775.06 1350.58L2765.57 1350.58C2765.39 1356.35 2764.79 1362.14 2763.78 1367.94 2762.77 1373.74 2761.01 1379.34 2758.51 1384.75 2756.01 1390.16 2752.43 1395.17 2747.76 1399.78L2746.59 1398.68C2749.99 1393.97 2752.61 1388.97 2754.46 1383.7 2756.31 1378.42 2757.62 1373 2758.39 1367.41 2759.15 1361.83 2759.6 1356.22 2759.73 1350.58L2749.08 1350.58 2748.42 1348.46 2759.81 1348.46C2759.87 1343.14 2759.89 1337.94 2759.88 1332.84ZM2856.02 1332.69 2864.56 1333.57C2864.54 1334.06 2864.33 1334.49 2863.94 1334.86 2863.55 1335.24 2862.91 1335.49 2862.01 1335.61 2861.92 1339.54 2862.02 1343.44 2862.3 1347.29L2876.97 1347.29 2880.84 1342.47C2880.88 1342.5 2881.3 1342.82 2882.09 1343.43 2882.89 1344.05 2883.83 1344.8 2884.92 1345.68 2886.01 1346.56 2887.01 1347.41 2887.92 1348.24 2887.84 1348.64 2887.62 1348.94 2887.26 1349.13 2886.91 1349.32 2886.47 1349.41 2885.95 1349.41L2862.37 1349.41C2862.72 1354.03 2863.33 1358.48 2864.21 1362.76 2865.08 1367.04 2866.29 1371.03 2867.85 1374.74 2869.56 1371.74 2871.01 1368.66 2872.21 1365.51 2873.41 1362.36 2874.39 1359.2 2875.15 1356.05L2883.83 1358.75C2883.71 1359.19 2883.43 1359.52 2883 1359.73 2882.58 1359.94 2881.88 1360.03 2880.91 1359.99 2879.79 1363.41 2878.37 1366.8 2876.66 1370.18 2874.95 1373.55 2872.91 1376.8 2870.55 1379.92 2871.82 1382.01 2873.27 1383.91 2874.89 1385.64 2876.51 1387.36 2878.33 1388.86 2880.33 1390.14 2880.97 1390.63 2881.46 1390.85 2881.83 1390.8 2882.19 1390.76 2882.54 1390.39 2882.88 1389.71 2883.38 1388.77 2883.96 1387.52 2884.61 1385.94 2885.26 1384.36 2885.85 1382.79 2886.39 1381.24L2887.34 1381.38 2885.95 1392.7C2887.13 1394.21 2887.84 1395.37 2888.07 1396.19 2888.3 1397.02 2888.2 1397.65 2887.78 1398.1 2886.63 1399.25 2885.04 1399.49 2883.01 1398.81 2880.99 1398.14 2879.07 1397.1 2877.26 1395.69 2875.12 1394.19 2873.17 1392.5 2871.42 1390.63 2869.68 1388.75 2868.1 1386.72 2866.68 1384.52 2863.87 1387.57 2860.63 1390.36 2856.95 1392.9 2853.27 1395.44 2849.12 1397.61 2844.49 1399.41L2843.9 1398.47C2848.2 1396.15 2852.05 1393.45 2855.44 1390.37 2858.82 1387.3 2861.79 1383.96 2864.34 1380.36 2862.17 1376 2860.47 1371.22 2859.25 1366.01 2858.03 1360.8 2857.17 1355.27 2856.68 1349.41L2833.76 1349.41 2833.76 1361.38 2845.22 1361.38 2848.28 1358.17 2854.27 1363.06C2854.02 1363.35 2853.66 1363.59 2853.2 1363.77 2852.74 1363.96 2852.15 1364.08 2851.42 1364.16 2851.23 1371.51 2850.81 1377.04 2850.18 1380.74 2849.55 1384.43 2848.55 1386.84 2847.19 1387.95 2846.34 1388.72 2845.33 1389.27 2844.17 1389.62 2843 1389.97 2841.72 1390.15 2840.33 1390.14 2840.34 1389.36 2840.28 1388.63 2840.14 1387.94 2840.01 1387.25 2839.73 1386.69 2839.3 1386.27 2838.91 1385.87 2838.29 1385.51 2837.43 1385.2 2836.58 1384.88 2835.64 1384.64 2834.63 1384.45L2834.7 1383.28C2835.73 1383.4 2836.91 1383.5 2838.24 1383.58 2839.56 1383.67 2840.58 1383.72 2841.27 1383.72 2841.81 1383.72 2842.24 1383.68 2842.55 1383.58 2842.87 1383.49 2843.15 1383.31 2843.39 1383.06 2844.08 1382.43 2844.62 1380.52 2845.02 1377.32 2845.41 1374.13 2845.7 1369.5 2845.87 1363.43L2833.76 1363.43C2833.82 1367.28 2833.58 1371.39 2833.05 1375.75 2832.52 1380.12 2831.34 1384.43 2829.49 1388.67 2827.65 1392.91 2824.79 1396.76 2820.91 1400.22L2819.96 1399.41C2823.45 1393.97 2825.68 1388.1 2826.65 1381.81 2827.61 1375.52 2828.04 1369.27 2827.92 1363.06L2827.92 1347.29 2827.92 1344.52 2834.78 1347.29 2856.53 1347.29C2856.35 1344.92 2856.22 1342.53 2856.14 1340.1 2856.06 1337.68 2856.02 1335.21 2856.02 1332.69Z" fill-rule="evenodd"/><text fill="#000000" fill-opacity="0" font-family="Arial,Arial_MSFontService,sans-serif" font-size="67.5249" x="2746.59" y="1391.78">加成</text><path d="M2958.89 1331.96 2960.13 1333.35C2957.27 1335.65 2954.65 1338.37 2952.28 1341.51 2949.9 1344.65 2948 1348.26 2946.57 1352.35 2945.13 1356.43 2944.4 1361.05 2944.36 1366.2 2944.4 1371.35 2945.13 1375.97 2946.57 1380.05 2948 1384.14 2949.9 1387.75 2952.28 1390.89 2954.65 1394.03 2957.27 1396.75 2960.13 1399.05L2958.89 1400.44C2955.47 1398.36 2952.26 1395.78 2949.24 1392.68 2946.23 1389.58 2943.78 1385.86 2941.89 1381.5 2939.99 1377.14 2939.02 1372.04 2938.96 1366.2 2939.02 1360.35 2939.99 1355.25 2941.89 1350.9 2943.78 1346.54 2946.23 1342.82 2949.24 1339.72 2952.26 1336.62 2955.47 1334.04 2958.89 1331.96Z" fill-rule="evenodd"/><text fill="#000000" fill-opacity="0" font-family="Arial,Arial_MSFontService,sans-serif" font-size="68.474" x="2938.96" y="1391.88">（</text><path d="M2985.27 1344.71C2987.95 1344.71 2990.31 1345.13 2992.33 1345.96 2994.34 1346.79 2995.89 1347.99 2996.96 1349.54 2998.03 1351.1 2998.56 1352.96 2998.56 1355.12 2998.56 1357.14 2998.16 1358.92 2997.35 1360.45 2996.54 1361.98 2995.41 1363.32 2993.95 1364.46 2992.49 1365.6 2990.59 1366.72 2988.26 1367.81L2988.26 1368.13C2989.71 1368.39 2991.11 1368.84 2992.45 1369.47 2993.79 1370.1 2994.99 1370.91 2996.03 1371.91 2997.08 1372.91 2997.92 1374.1 2998.55 1375.49 2999.17 1376.88 2999.49 1378.47 2999.49 1380.25 2999.49 1383.01 2998.89 1385.46 2997.69 1387.6 2996.49 1389.73 2994.65 1391.42 2992.18 1392.66 2989.71 1393.89 2986.71 1394.51 2983.16 1394.51 2981.12 1394.51 2978.92 1394.28 2976.55 1393.82 2974.19 1393.35 2972.02 1392.74 2970.05 1391.98L2970.05 1384.42 2974.32 1384.42C2975.16 1386.89 2976.26 1388.69 2977.62 1389.81 2978.99 1390.92 2980.85 1391.48 2983.2 1391.48 2986.29 1391.48 2988.62 1390.64 2990.2 1388.95 2991.78 1387.26 2992.57 1384.77 2992.57 1381.46 2992.57 1377.99 2991.53 1375.35 2989.44 1373.52 2987.35 1371.69 2984.28 1370.77 2980.24 1370.77L2977.03 1370.77 2977.03 1367.63C2980.24 1367.44 2982.94 1366.83 2985.14 1365.78 2987.34 1364.74 2988.97 1363.39 2990.04 1361.75 2991.11 1360.11 2991.65 1358.27 2991.65 1356.23 2991.65 1353.59 2990.95 1351.56 2989.54 1350.13 2988.14 1348.71 2986.1 1347.99 2983.41 1347.99 2981.18 1347.99 2979.36 1348.6 2977.96 1349.81 2976.56 1351.02 2975.52 1352.88 2974.86 1355.37L2970.58 1355.37 2970.58 1348.6C2973.34 1347.29 2975.92 1346.32 2978.32 1345.68 2980.72 1345.04 2983.03 1344.71 2985.27 1344.71Z" fill-rule="evenodd"/><text fill="#000000" fill-opacity="0" font-family="Arial,Arial_MSFontService,sans-serif" font-size="49.7954" x="2970.05" y="1388.29">3</text><text font-family="Source Han Serif SC Medium,Source Han Serif SC Medium_MSFontService,sans-serif" font-weight="500" font-size="73" transform="matrix(1 0 0 1 3005.59 1394)">-</text><text font-family="Source Han Serif SC Medium,Source Han Serif SC Medium_MSFontService,sans-serif" font-weight="500" font-size="73" transform="matrix(1 0 0 1 3031.37 1394)">5</text><text font-family="Source Han Serif SC Medium,Source Han Serif SC Medium_MSFontService,sans-serif" font-weight="500" font-size="73" transform="matrix(1 0 0 1 3092.1 1394)">有双键</text><text font-family="Source Han Serif SC Medium,Source Han Serif SC Medium_MSFontService,sans-serif" font-weight="500" font-size="73" transform="matrix(1 0 0 1 3312.1 1394)">）</text></g></svg>