<?xml version="1.0" standalone='no'?><!-- IBoard SVG File --><svg xmlns="http://www.w3.org/2000/svg" xmlns:xlink="http://www.w3.org/1999/xlink" viewBox="202.42 -33.36 356.63 74.65" height="67.65" width="363.63" version="1.1"><!-- SVG File --><polygon points="207.498230,-14.405457 231.000000,-27.974197 231.000000,-27.293381 231.000000,-26.612564 208.677429,-13.724609 208.087830,-14.065002 " style="fill:rgb(0,0,0);fill-opacity:1.000000"/><polygon points="231.000000,-27.974197 254.501770,-14.405457 253.912170,-14.065002 253.322571,-13.724609 231.000000,-26.612564 231.000000,-27.293381 " style="fill:rgb(0,0,0);fill-opacity:1.000000"/><polygon points="231.294800,-24.138046 251.032166,-12.742676 250.737366,-12.232056 250.442566,-11.721436 230.705200,-23.116806 231.000000,-23.627426 " style="fill:rgb(0,0,0);fill-opacity:1.000000"/><polygon points="254.501770,-14.405457 254.501770,12.732117 253.912170,12.391663 253.322571,12.051270 253.322571,-13.724609 253.912170,-14.065002 " style="fill:rgb(0,0,0);fill-opacity:1.000000"/><polygon points="254.501770,12.732117 231.000000,26.300842 231.000000,25.619995 231.000000,24.939209 253.322571,12.051270 253.912170,12.391663 " style="fill:rgb(0,0,0);fill-opacity:1.000000"/><polygon points="251.032166,11.069336 231.294800,22.464722 231.000000,21.954102 230.705200,21.443481 250.442566,10.048096 250.737366,10.558716 " style="fill:rgb(0,0,0);fill-opacity:1.000000"/><polygon points="231.000000,26.300842 207.498230,12.732056 208.087830,12.391663 208.677429,12.051208 231.000000,24.939209 231.000000,25.619995 " style="fill:rgb(0,0,0);fill-opacity:1.000000"/><polygon points="207.498230,12.732056 207.498230,-14.405457 208.087830,-14.065002 208.677429,-13.724609 208.677429,12.051208 208.087830,12.391663 " style="fill:rgb(0,0,0);fill-opacity:1.000000"/><polygon points="210.673035,10.558655 210.673035,-12.232056 211.262634,-12.232056 211.852234,-12.232056 211.852234,10.558655 211.262634,10.558655 " style="fill:rgb(0,0,0);fill-opacity:1.000000"/><polygon points="428.248352,-14.801959 451.750122,-28.370712 451.750122,-27.689896 451.750122,-27.009079 429.427551,-14.121137 428.837952,-14.461548 " style="fill:rgb(0,0,0);fill-opacity:1.000000"/><polygon points="451.750122,-28.370712 474.662201,-15.142449 474.662354,-14.461548 474.072754,-14.121136 451.750122,-27.009079 451.750122,-27.689896 " style="fill:rgb(0,0,0);fill-opacity:1.000000"/><polygon points="452.044922,-24.534561 471.782349,-13.139185 471.487549,-12.628571 471.192749,-12.117956 451.455322,-23.513332 451.750122,-24.023947 " style="fill:rgb(0,0,0);fill-opacity:1.000000"/><polygon points="475.251953,-14.121285 475.251953,12.335575 474.662354,11.995163 474.072754,11.654751 474.072754,-14.121136 474.662354,-14.461548 " style="fill:rgb(0,0,0);fill-opacity:1.000000"/><polygon points="475.251953,12.335575 451.750092,25.904312 451.750092,25.223495 451.750092,24.542679 474.072754,11.654751 474.662354,11.995163 " style="fill:rgb(0,0,0);fill-opacity:1.000000"/><polygon points="471.782349,10.672796 452.044891,22.068161 451.750092,21.557547 451.455292,21.046932 471.192749,9.651567 471.487549,10.162182 " style="fill:rgb(0,0,0);fill-opacity:1.000000"/><polygon points="451.750092,25.904312 428.248322,12.335526 428.837921,11.995102 429.427521,11.654678 451.750092,24.542679 451.750092,25.223495 " style="fill:rgb(0,0,0);fill-opacity:1.000000"/><polygon points="428.248322,12.335526 428.248352,-14.801960 428.837952,-14.461548 429.427551,-14.121136 429.427521,11.654678 428.837921,11.995102 " style="fill:rgb(0,0,0);fill-opacity:1.000000"/><polygon points="431.423126,10.162131 431.423157,-12.628575 432.012756,-12.628574 432.602356,-12.628573 432.602325,10.162133 432.012726,10.162132 " style="fill:rgb(0,0,0);fill-opacity:1.000000"/><polygon points="474.662201,-15.142446 489.595062,-23.771820 489.890076,-23.261322 490.185089,-22.750824 475.251953,-14.121285 474.662354,-14.461548 " style="fill:rgb(0,0,0);fill-opacity:1.000000"/><text xml:space="preserve" x="491.069275" y="-22.584770" textLength="13.000000" lengthAdjust="spacingAndGlyphs"><tspan font-family="Times New Roman" font-weight="normal" baseline-shift="0" font-size="13" fill="#000000">Br</tspan></text><text xml:space="preserve" x="533.664734" y="6.480263" textLength="22.386667" lengthAdjust="spacingAndGlyphs"><tspan font-family="Times New Roman" font-weight="normal" baseline-shift="0" font-size="13" fill="#000000">H</tspan><tspan font-family="Times New Roman" font-weight="normal" baseline-shift="0" font-size="13" fill="#000000">Br</tspan></text><text xml:space="preserve" x="300.165131" y="2.311704" textLength="16.900000" lengthAdjust="spacingAndGlyphs"><tspan font-family="Times New Roman" font-weight="normal" baseline-shift="0" font-size="13" fill="#000000">Br</tspan><tspan font-family="Times New Roman" font-weight="normal" baseline-shift="-2" font-size="8" fill="#000000">2</tspan></text><text xml:space="preserve" x="279.500122" y="3.638316" textLength="7.330000" lengthAdjust="spacingAndGlyphs"><tspan font-family="Times New Roman" font-weight="normal" baseline-shift="0" font-size="13" fill="#000000">+</tspan></text><line x1="330.50012" y1="-0.36032867" x2="396.06738" y2="-0.36032867" style="stroke:rgb(0,0,0);stroke-width:1.179213;stroke-opacity:1.000000" stroke-linecap="butt"/><polygon points="406.090698,-0.360329 394.298584,-3.308357 396.067383,-0.360329 394.298584,2.587700 " style="fill:rgb(0,0,0);fill-opacity:1.000000"/><text xml:space="preserve" x="353.345398" y="-11.591006" textLength="29.900000" lengthAdjust="spacingAndGlyphs"><tspan font-family="Times New Roman" font-weight="normal" baseline-shift="0" font-size="13" fill="#000000">F</tspan><tspan font-family="Times New Roman" font-weight="normal" baseline-shift="0" font-size="13" fill="#000000">e</tspan><tspan font-family="Times New Roman" font-weight="normal" baseline-shift="0" font-size="13" fill="#000000">B</tspan><tspan font-family="Times New Roman" font-weight="normal" baseline-shift="0" font-size="13" fill="#000000">r</tspan><tspan font-family="Times New Roman" font-weight="normal" baseline-shift="-2" font-size="8" fill="#000000">3</tspan></text><text xml:space="preserve" x="511.500183" y="5.793780" textLength="7.330000" lengthAdjust="spacingAndGlyphs"><tspan font-family="Times New Roman" font-weight="normal" baseline-shift="0" font-size="13" fill="#000000">+</tspan></text></svg>