<?xml version="1.0" standalone='no'?><!-- IBoard SVG File --><svg xmlns="http://www.w3.org/2000/svg" xmlns:xlink="http://www.w3.org/1999/xlink" viewBox="18.65 275.99 382.28 100.31" height="93.31" width="389.28" version="1.1"><!-- SVG File --><polygon points="23.732159,307.572998 47.233932,294.004242 47.233932,294.685059 47.233932,295.365875 24.911369,308.253815 24.321764,307.913391 " style="fill:rgb(0,0,0);fill-opacity:1.000000"/><polygon points="47.233932,294.004242 70.735710,307.572998 70.146103,307.913391 69.556496,308.253815 47.233932,295.365875 47.233932,294.685059 " style="fill:rgb(0,0,0);fill-opacity:1.000000"/><polygon points="47.528736,297.840393 67.266106,309.235748 66.971306,309.746368 66.676498,310.256989 46.939129,298.861603 47.233932,298.350983 " style="fill:rgb(0,0,0);fill-opacity:1.000000"/><polygon points="70.735710,307.572998 70.735703,334.710541 70.146095,334.370087 69.556488,334.029694 69.556496,308.253815 70.146103,307.913391 " style="fill:rgb(0,0,0);fill-opacity:1.000000"/><polygon points="70.735703,334.710541 47.233917,348.279327 47.233917,347.598480 47.233917,346.917633 69.556488,334.029694 70.146095,334.370087 " style="fill:rgb(0,0,0);fill-opacity:1.000000"/><polygon points="67.266090,333.047760 47.528721,344.443146 47.233917,343.932526 46.939114,343.421906 66.676483,332.026520 66.971291,332.537140 " style="fill:rgb(0,0,0);fill-opacity:1.000000"/><polygon points="47.233921,348.279327 23.732149,334.710480 24.321754,334.370087 24.911360,334.029633 47.233913,346.917633 47.233917,347.598480 " style="fill:rgb(0,0,0);fill-opacity:1.000000"/><polygon points="23.732149,334.710480 23.732159,307.572998 24.321764,307.913391 24.911369,308.253815 24.911360,334.029633 24.321754,334.370087 " style="fill:rgb(0,0,0);fill-opacity:1.000000"/><polygon points="26.906952,332.537079 26.906961,309.746368 27.496567,309.746368 28.086172,309.746368 28.086163,332.537079 27.496557,332.537079 " style="fill:rgb(0,0,0);fill-opacity:1.000000"/><polygon points="262.482910,320.602844 285.394958,307.374573 285.984680,307.714905 285.984680,308.395752 263.662109,321.283691 263.072510,320.943298 " style="fill:rgb(0,0,0);fill-opacity:1.000000"/><polygon points="286.574158,307.374451 309.486450,320.602844 308.896851,320.943298 308.307251,321.283691 285.984680,308.395752 285.984680,307.714905 " style="fill:rgb(0,0,0);fill-opacity:1.000000"/><polygon points="286.279480,310.870239 306.016846,322.265625 305.722046,322.776245 305.427246,323.286865 285.689880,311.891479 285.984680,311.380859 " style="fill:rgb(0,0,0);fill-opacity:1.000000"/><polygon points="309.486450,320.602844 309.486450,347.740417 308.896851,347.399963 308.307251,347.059570 308.307251,321.283691 308.896851,320.943298 " style="fill:rgb(0,0,0);fill-opacity:1.000000"/><polygon points="309.486450,347.740417 285.984619,361.309143 285.984619,360.628296 285.984619,359.947510 308.307251,347.059570 308.896851,347.399963 " style="fill:rgb(0,0,0);fill-opacity:1.000000"/><polygon points="306.016846,346.077637 286.279419,357.472961 285.984619,356.962341 285.689819,356.451721 305.427246,345.056396 305.722046,345.567017 " style="fill:rgb(0,0,0);fill-opacity:1.000000"/><polygon points="285.984619,361.309143 262.482910,347.740356 263.072510,347.399963 263.662109,347.059509 285.984619,359.947510 285.984619,360.628296 " style="fill:rgb(0,0,0);fill-opacity:1.000000"/><polygon points="262.482910,347.740356 262.482910,320.602844 263.072510,320.943298 263.662109,321.283691 263.662109,347.059509 263.072510,347.399963 " style="fill:rgb(0,0,0);fill-opacity:1.000000"/><polygon points="265.657715,345.566956 265.657715,322.776245 266.247314,322.776245 266.836914,322.776245 266.836914,345.566956 266.247314,345.566956 " style="fill:rgb(0,0,0);fill-opacity:1.000000"/><polygon points="285.394958,307.374573 285.387207,287.709900 285.976807,287.709717 286.566406,287.709473 286.574158,307.374451 285.984680,307.714905 " style="fill:rgb(0,0,0);fill-opacity:1.000000"/><text xml:space="preserve" x="279.474243" y="286.372406" textLength="13.000000" lengthAdjust="spacingAndGlyphs"><tspan font-family="Times New Roman" font-weight="normal" baseline-shift="0" font-size="13" fill="#000000">Br</tspan></text><text xml:space="preserve" x="365.791351" y="327.221008" textLength="32.136665" lengthAdjust="spacingAndGlyphs"><tspan font-family="Times New Roman" font-weight="normal" baseline-shift="0" font-size="13" fill="#000000">H</tspan><tspan font-family="Times New Roman" font-weight="normal" baseline-shift="0" font-size="13" fill="#000000">B</tspan><tspan font-family="Times New Roman" font-weight="normal" baseline-shift="0" font-size="13" fill="#000000">r</tspan><tspan font-family="Times New Roman" font-weight="normal" baseline-shift="0" font-size="13" fill="#000000"> </tspan><tspan font-family="Times New Roman" font-weight="normal" baseline-shift="0" font-size="13" fill="#000000">↑</tspan></text><text xml:space="preserve" x="92.984680" y="325.616791" textLength="7.330000" lengthAdjust="spacingAndGlyphs"><tspan font-family="Times New Roman" font-weight="normal" baseline-shift="0" font-size="13" fill="#000000">+</tspan></text><line x1="157.98468" y1="322.42383" x2="223.55194" y2="322.42383" style="stroke:rgb(0,0,0);stroke-width:1.179213;stroke-opacity:1.000000" stroke-linecap="butt"/><polygon points="233.575195,322.423828 221.783081,319.475800 223.551941,322.423828 221.783081,325.371887 " style="fill:rgb(0,0,0);fill-opacity:1.000000"/><text xml:space="preserve" x="120.149689" y="323.813812" textLength="16.900000" lengthAdjust="spacingAndGlyphs"><tspan font-family="Times New Roman" font-weight="normal" baseline-shift="0" font-size="13" fill="#000000">B</tspan><tspan font-family="Times New Roman" font-weight="normal" baseline-shift="0" font-size="13" fill="#000000">r</tspan><tspan font-family="Times New Roman" font-weight="normal" baseline-shift="-2" font-size="8" fill="#000000">2</tspan></text><text xml:space="preserve" x="327.984680" y="325.616791" textLength="7.330000" lengthAdjust="spacingAndGlyphs"><tspan font-family="Times New Roman" font-weight="normal" baseline-shift="0" font-size="13" fill="#000000">+</tspan></text><text xml:space="preserve" x="181.188278" y="310.432129" textLength="29.183332" lengthAdjust="spacingAndGlyphs"><tspan font-family="Times New Roman" font-weight="normal" baseline-shift="0" font-size="13" fill="#000000">F</tspan><tspan font-family="Times New Roman" font-weight="normal" baseline-shift="0" font-size="13" fill="#000000">e</tspan><tspan font-family="Times New Roman" font-weight="normal" baseline-shift="0" font-size="13" fill="#000000">C</tspan><tspan font-family="Times New Roman" font-weight="normal" baseline-shift="0" font-size="13" fill="#000000">l</tspan><tspan font-family="Times New Roman" font-weight="normal" baseline-shift="-2" font-size="8" fill="#000000">3</tspan></text></svg>