<svg width="2132" height="1046" xmlns="http://www.w3.org/2000/svg" xmlns:xlink="http://www.w3.org/1999/xlink" xml:space="preserve" overflow="hidden"><g transform="translate(-1517 -769)"><path d="M1517 964.71 1608 914 1608 916.29 1608 918.58 1521.11 967 1519.05 965.853Z" fill-rule="evenodd"/><path d="M1608 914 1696 963.564 1696 965.853 1693.97 967 1608 918.58 1608 916.29Z" fill-rule="evenodd"/><path d="M1609.04 928 1685 970.577 1683.98 972.29 1682.96 974 1607 931.427 1608.02 929.713Z" fill-rule="evenodd"/><path d="M1698 967.14 1698 1066 1696 1064.86 1694 1063.72 1694 967.143 1696 966Z" fill-rule="evenodd"/><path d="M1698 1065.29 1608 1116 1608 1113.71 1608 1111.42 1693.94 1063 1695.97 1064.15Z" fill-rule="evenodd"/><path d="M1685 1059.43 1609.04 1102 1608.02 1100.29 1607 1098.58 1682.96 1056 1683.98 1057.71Z" fill-rule="evenodd"/><path d="M1608 1116 1517 1065.29 1519.05 1064.14 1521.11 1063 1608 1111.42 1608 1113.71Z" fill-rule="evenodd"/><path d="M1517 1066 1517 964 1519 965.15 1521 966.303 1521 1063.7 1519 1064.85Z" fill-rule="evenodd"/><path d="M1529 1058 1529 972 1531 972 1533 972 1533 1058 1531 1058Z" fill-rule="evenodd"/><path d="M1696 963.571 1763.93 926 1764.96 927.716 1766 929.429 1698.07 967 1696 965.858Z" fill-rule="evenodd"/><text font-family="Source Han Serif SC Medium,Source Han Serif SC Medium_MSFontService,sans-serif" font-weight="500" font-size="45" transform="matrix(1 0 0 1 1768.86 931)">CH</text><text font-family="Source Han Serif SC Medium,Source Han Serif SC Medium_MSFontService,sans-serif" font-weight="500" font-size="28" transform="matrix(1 0 0 1 1838.18 937)">3</text><text font-family="Source Han Serif SC Medium,Source Han Serif SC Medium_MSFontService,sans-serif" font-weight="500" font-size="65" transform="matrix(1 0 0 1 1874.08 1051)">+</text><text font-family="Source Han Serif SC Medium,Source Han Serif SC Medium_MSFontService,sans-serif" font-weight="500" font-size="45" transform="matrix(1 0 0 1 1981.92 1043)">HNO</text><text font-family="Source Han Serif SC Medium,Source Han Serif SC Medium_MSFontService,sans-serif" font-weight="500" font-size="28" transform="matrix(1 0 0 1 2090.2 1049)">3</text><path d="M2170 1014 2398 1014" stroke="#000000" stroke-width="4.1001" stroke-miterlimit="8" fill="none" fill-rule="evenodd"/><path d="M2433 1014 2392 1004 2398.15 1014 2392 1024Z" fill-rule="evenodd"/><text font-family="Source Han Serif SC Medium,Source Han Serif SC Medium_MSFontService,sans-serif" font-weight="500" font-size="45" transform="matrix(1 0 0 1 2231.29 984)">浓硫酸</text><text font-family="Source Han Serif SC Medium,Source Han Serif SC Medium_MSFontService,sans-serif" font-weight="500" font-size="45" transform="matrix(1 0 0 1 2254.28 1072)">30</text><text font-family="Source Han Serif SC Medium,Source Han Serif SC Medium_MSFontService,sans-serif" font-weight="500" font-size="45" transform="matrix(1 0 0 1 2304.7 1072)">℃</text><path d="M2582 960.704 2670.94 911 2673 912.147 2673 914.443 2586.11 963 2584.05 961.85Z" fill-rule="evenodd"/><path d="M2675.05 911 2764 960.704 2761.95 961.85 2759.89 963 2673 914.443 2673 912.147Z" fill-rule="evenodd"/><path d="M2674.04 925 2750 967.577 2748.98 969.29 2747.96 971 2672 928.427 2673.02 926.713Z" fill-rule="evenodd"/><path d="M2764 961 2764 1062 2762 1060.86 2760 1059.72 2760 963.281 2762 962.139Z" fill-rule="evenodd"/><path d="M2764 1062.3 2675.06 1112 2673 1110.85 2673 1108.56 2759.89 1060 2761.95 1061.15Z" fill-rule="evenodd"/><path d="M2750 1055.43 2674.04 1098 2673.02 1096.29 2672 1094.58 2747.96 1052 2748.98 1053.71Z" fill-rule="evenodd"/><path d="M2670.94 1112 2582 1062.3 2584.05 1061.15 2586.11 1060 2673 1108.56 2673 1110.85Z" fill-rule="evenodd"/><path d="M2582 1062 2582 961 2584 962.139 2586 963.281 2586 1059.72 2584 1060.86Z" fill-rule="evenodd"/><path d="M2594 1054 2594 969 2596 969 2598 969 2598 1054 2596 1054Z" fill-rule="evenodd"/><path d="M2671.03 911.858 2671 836.003 2672.99 836.003 2674.97 836 2675 911.858 2673.02 913Z" fill-rule="evenodd"/><text font-family="Source Han Serif SC Medium,Source Han Serif SC Medium_MSFontService,sans-serif" font-weight="500" font-size="45" transform="matrix(1 0 0 1 2656.55 828)">CH</text><text font-family="Source Han Serif SC Medium,Source Han Serif SC Medium_MSFontService,sans-serif" font-weight="500" font-size="28" transform="matrix(1 0 0 1 2725.88 834)">3</text><path d="M2674.97 1111.14 2675 1187 2673.02 1187 2671.03 1187 2671 1111.14 2672.98 1110Z" fill-rule="evenodd"/><text font-family="Source Han Serif SC Medium,Source Han Serif SC Medium_MSFontService,sans-serif" font-weight="500" font-size="45" transform="matrix(1 0 0 1 2656.63 1224)">NO</text><text font-family="Source Han Serif SC Medium,Source Han Serif SC Medium_MSFontService,sans-serif" font-weight="500" font-size="28" transform="matrix(1 0 0 1 2726.53 1230)">2</text><text font-family="Source Han Serif SC Medium,Source Han Serif SC Medium_MSFontService,sans-serif" font-weight="500" font-size="45" transform="matrix(1 0 0 1 3052.06 828)">CH</text><text font-family="Source Han Serif SC Medium,Source Han Serif SC Medium_MSFontService,sans-serif" font-weight="500" font-size="28" transform="matrix(1 0 0 1 3121.38 834)">3</text><path d="M2978 960.704 3065.97 911 3068 912.147 3068 914.443 2982.06 963 2980.03 961.85Z" fill-rule="evenodd"/><path d="M3070.06 911 3157 959.554 3157 961.85 3154.94 963 3068 914.443 3068 912.147Z" fill-rule="evenodd"/><path d="M3069.06 925 3146 967.577 3144.97 969.29 3143.94 971 3067 928.427 3068.03 926.713Z" fill-rule="evenodd"/><path d="M3159 963.14 3159 1062 3157 1060.86 3155 1059.72 3155 963.144 3157 962Z" fill-rule="evenodd"/><path d="M3159 1062.29 3068 1113 3068 1110.71 3068 1108.42 3154.89 1060 3156.95 1061.15Z" fill-rule="evenodd"/><path d="M3146 1055.43 3069.06 1098 3068.03 1096.29 3067 1094.58 3143.94 1052 3144.97 1053.71Z" fill-rule="evenodd"/><path d="M3068 1113 2978 1062.29 2980.03 1061.14 2982.06 1060 3068 1108.42 3068 1110.71Z" fill-rule="evenodd"/><path d="M2978 1062 2978 961 2980 962.139 2982 963.281 2982 1059.72 2980 1060.86Z" fill-rule="evenodd"/><path d="M2990 1054 2990 969 2992 969 2994 969 2994 1054 2992 1054Z" fill-rule="evenodd"/><path d="M3066.03 911.858 3066 836.003 3067.98 836.003 3069.97 836 3070 911.858 3068.02 913Z" fill-rule="evenodd"/><path d="M3157 959.571 3224.93 922 3225.96 923.716 3227 925.429 3159.07 963 3157 961.858Z" fill-rule="evenodd"/><text font-family="Source Han Serif SC Medium,Source Han Serif SC Medium_MSFontService,sans-serif" font-weight="500" font-size="45" transform="matrix(1 0 0 1 3229.61 927)">NO</text><text font-family="Source Han Serif SC Medium,Source Han Serif SC Medium_MSFontService,sans-serif" font-weight="500" font-size="28" transform="matrix(1 0 0 1 3299.51 933)">2</text><text font-family="Source Han Serif SC Medium,Source Han Serif SC Medium_MSFontService,sans-serif" font-weight="500" font-size="45" transform="matrix(1 0 0 1 2858.93 1012)">或</text><text font-family="Source Han Serif SC Medium,Source Han Serif SC Medium_MSFontService,sans-serif" font-weight="500" font-size="45" transform="matrix(1 0 0 1 3526.2 1036)">H</text><text font-family="Source Han Serif SC Medium,Source Han Serif SC Medium_MSFontService,sans-serif" font-weight="500" font-size="28" transform="matrix(1 0 0 1 3564.59 1042)">2</text><text font-family="Source Han Serif SC Medium,Source Han Serif SC Medium_MSFontService,sans-serif" font-weight="500" font-size="45" transform="matrix(1 0 0 1 3580.06 1036)">O</text><text font-family="Source Han Serif SC Medium,Source Han Serif SC Medium_MSFontService,sans-serif" font-weight="500" font-size="65" transform="matrix(1 0 0 1 3384.38 1051)">+</text><text font-family="Source Han Serif SC Medium,Source Han Serif SC Medium_MSFontService,sans-serif" font-weight="500" font-size="45" transform="matrix(1 0 0 1 1768.86 1458)">CH</text><text font-family="Source Han Serif SC Medium,Source Han Serif SC Medium_MSFontService,sans-serif" font-weight="500" font-size="28" transform="matrix(1 0 0 1 1838.18 1464)">3</text><path d="M1517 1491.71 1608 1441 1608 1443.29 1608 1445.58 1521.11 1494 1519.05 1492.86Z" fill-rule="evenodd"/><path d="M1608 1441 1696 1490.57 1696 1492.86 1693.97 1494 1608 1445.58 1608 1443.29Z" fill-rule="evenodd"/><path d="M1609.04 1455 1685 1497.58 1683.98 1499.29 1682.96 1501 1607 1458.42 1608.02 1456.71Z" fill-rule="evenodd"/><path d="M1698 1494.14 1698 1593 1696 1591.86 1694 1590.72 1694 1494.14 1696 1493Z" fill-rule="evenodd"/><path d="M1698 1592.29 1608 1643 1608 1640.71 1608 1638.42 1693.94 1590 1695.97 1591.14Z" fill-rule="evenodd"/><path d="M1685 1586.42 1609.04 1629 1608.02 1627.29 1607 1625.58 1682.96 1583 1683.98 1584.71Z" fill-rule="evenodd"/><path d="M1608 1643 1517 1592.29 1519.05 1591.14 1521.11 1590 1608 1638.42 1608 1640.71Z" fill-rule="evenodd"/><path d="M1517 1593 1517 1491 1519 1492.15 1521 1493.3 1521 1590.7 1519 1591.85Z" fill-rule="evenodd"/><path d="M1529 1585 1529 1499 1531 1499 1533 1499 1533 1585 1531 1585Z" fill-rule="evenodd"/><path d="M1696 1490.57 1763.93 1453 1764.96 1454.71 1766 1456.43 1698.07 1494 1696 1492.86Z" fill-rule="evenodd"/><text font-family="Source Han Serif SC Medium,Source Han Serif SC Medium_MSFontService,sans-serif" font-weight="500" font-size="65" transform="matrix(1 0 0 1 1874.08 1578)">+</text><text font-family="Source Han Serif SC Medium,Source Han Serif SC Medium_MSFontService,sans-serif" font-weight="500" font-size="45" transform="matrix(1 0 0 1 1961.67 1570)">3 HNO</text><text font-family="Source Han Serif SC Medium,Source Han Serif SC Medium_MSFontService,sans-serif" font-weight="500" font-size="28" transform="matrix(1 0 0 1 2106.61 1576)">3</text><path d="M2170 1541 2398 1541" stroke="#000000" stroke-width="4.1001" stroke-miterlimit="8" fill="none" fill-rule="evenodd"/><path d="M2433 1541 2392 1531 2398.15 1541 2392 1551Z" fill-rule="evenodd"/><text font-family="Source Han Serif SC Medium,Source Han Serif SC Medium_MSFontService,sans-serif" font-weight="500" font-size="45" transform="matrix(1 0 0 1 2233.79 1511)">浓硫酸</text><text font-family="Source Han Serif SC Medium,Source Han Serif SC Medium_MSFontService,sans-serif" font-weight="500" font-size="45" transform="matrix(1 0 0 1 2240.45 1604)">10</text><text font-family="Source Han Serif SC Medium,Source Han Serif SC Medium_MSFontService,sans-serif" font-weight="500" font-size="45" transform="matrix(1 0 0 1 2286.85 1604)">0</text><text font-family="Source Han Serif SC Medium,Source Han Serif SC Medium_MSFontService,sans-serif" font-weight="500" font-size="45" transform="matrix(1 0 0 1 2312.06 1604)">℃</text><text font-family="Source Han Serif SC Medium,Source Han Serif SC Medium_MSFontService,sans-serif" font-weight="500" font-size="45" transform="matrix(1 0 0 1 2707.45 1381)">CH</text><text font-family="Source Han Serif SC Medium,Source Han Serif SC Medium_MSFontService,sans-serif" font-weight="500" font-size="28" transform="matrix(1 0 0 1 2776.77 1387)">3</text><text font-family="Source Han Serif SC Medium,Source Han Serif SC Medium_MSFontService,sans-serif" font-weight="500" font-size="45" transform="matrix(1 0 0 1 2707.53 1776)">NO</text><text font-family="Source Han Serif SC Medium,Source Han Serif SC Medium_MSFontService,sans-serif" font-weight="500" font-size="28" transform="matrix(1 0 0 1 2777.43 1782)">2</text><path d="M2635 1511.62 2721.94 1464 2724 1465.13 2724 1467.38 2637.06 1515 2635 1513.88Z" fill-rule="evenodd"/><path d="M2726.05 1464 2813 1511.62 2813 1513.88 2810.94 1515 2724 1467.38 2724 1465.13Z" fill-rule="evenodd"/><path d="M2725.04 1477 2801 1519.58 2799.98 1521.29 2798.96 1523 2723 1480.42 2724.02 1478.71Z" fill-rule="evenodd"/><path d="M2815 1515.14 2815 1614 2813 1612.86 2811 1611.72 2811 1515.14 2813 1514Z" fill-rule="evenodd"/><path d="M2815 1614.3 2726.06 1664 2724 1662.85 2724 1660.55 2810.89 1612 2812.95 1613.15Z" fill-rule="evenodd"/><path d="M2801 1608.42 2725.04 1651 2724.02 1649.29 2723 1647.58 2798.96 1605 2799.98 1606.71Z" fill-rule="evenodd"/><path d="M2721.95 1664 2633 1614.29 2635.05 1613.15 2637.11 1612 2724 1660.55 2724 1662.85Z" fill-rule="evenodd"/><path d="M2633 1614 2633 1515.14 2635 1514 2637 1515.14 2637 1611.72 2635 1612.86Z" fill-rule="evenodd"/><path d="M2645 1606 2645 1521 2647 1521 2649 1521 2649 1606 2647 1606Z" fill-rule="evenodd"/><path d="M2722.03 1463.85 2722 1388 2723.99 1388 2725.97 1388 2726 1463.85 2724.02 1465Z" fill-rule="evenodd"/><path d="M2725.97 1664.14 2726 1740 2724.01 1740 2722.03 1740 2722 1664.15 2723.98 1663Z" fill-rule="evenodd"/><path d="M2813 1511.57 2879.96 1474 2880.98 1475.71 2882 1477.43 2815.04 1515 2813 1513.86Z" fill-rule="evenodd"/><text font-family="Source Han Serif SC Medium,Source Han Serif SC Medium_MSFontService,sans-serif" font-weight="500" font-size="45" transform="matrix(1 0 0 1 2885.01 1479)">NO</text><text font-family="Source Han Serif SC Medium,Source Han Serif SC Medium_MSFontService,sans-serif" font-weight="500" font-size="28" transform="matrix(1 0 0 1 2954.9 1485)">2</text><path d="M2632.96 1515 2566 1477.44 2567.02 1475.72 2568.04 1474 2635 1511.57 2635 1513.86Z" fill-rule="evenodd"/><text font-family="Source Han Serif SC Medium,Source Han Serif SC Medium_MSFontService,sans-serif" font-weight="500" font-size="45" transform="matrix(1 0 0 1 2479.69 1480)">O</text><text font-family="Source Han Serif SC Medium,Source Han Serif SC Medium_MSFontService,sans-serif" font-weight="500" font-size="28" transform="matrix(1 0 0 1 2514.07 1486)">2</text><text font-family="Source Han Serif SC Medium,Source Han Serif SC Medium_MSFontService,sans-serif" font-weight="500" font-size="45" transform="matrix(1 0 0 1 2529.54 1480)">N</text><text font-family="Source Han Serif SC Medium,Source Han Serif SC Medium_MSFontService,sans-serif" font-weight="500" font-size="45" transform="matrix(1 0 0 1 3259.54 1573)">3 H</text><text font-family="Source Han Serif SC Medium,Source Han Serif SC Medium_MSFontService,sans-serif" font-weight="500" font-size="28" transform="matrix(1 0 0 1 3334.59 1579)">2</text><text font-family="Source Han Serif SC Medium,Source Han Serif SC Medium_MSFontService,sans-serif" font-weight="500" font-size="45" transform="matrix(1 0 0 1 3350.06 1573)">O</text><text font-family="Source Han Serif SC Medium,Source Han Serif SC Medium_MSFontService,sans-serif" font-weight="500" font-size="65" transform="matrix(1 0 0 1 3113.18 1578)">+</text></g></svg>