<svg width="1732" height="859" xmlns="http://www.w3.org/2000/svg" xmlns:xlink="http://www.w3.org/1999/xlink" xml:space="preserve" overflow="hidden"><defs><clipPath id="clip0"><rect x="1334" y="808" width="1732" height="859"/></clipPath></defs><g clip-path="url(#clip0)" transform="translate(-1334 -808)"><path d="M528.077 1120.24 604.748 1075.97 606.722 1077.11 606.722 1079.39 532.023 1122.52 530.05 1121.38Z" transform="matrix(1.00015 0 0 1 857.125 63.5115)"/><path d="M608.694 1075.97 685.366 1120.24 683.393 1121.38 681.42 1122.52 606.722 1079.39 606.722 1077.11Z" transform="matrix(1.00015 0 0 1 857.125 63.5115)"/><path d="M607.708 1087.67 673.756 1125.8 672.769 1127.51 671.783 1129.22 605.735 1091.09 606.722 1089.38Z" transform="matrix(1.00015 0 0 1 857.125 63.5115)"/><path d="M685.366 1120.24 685.366 1211.05 683.393 1209.91 681.42 1208.77 681.42 1122.52 683.393 1121.38Z" transform="matrix(1.00015 0 0 1 857.125 63.5115)"/><path d="M685.366 1211.05 606.722 1256.46 606.722 1254.18 606.722 1251.9 681.42 1208.77 683.393 1209.91Z" transform="matrix(1.00015 0 0 1 857.125 63.5115)"/><path d="M673.756 1205.49 607.708 1243.62 606.722 1241.91 605.735 1240.2 671.783 1202.07 672.769 1203.78Z" transform="matrix(1.00015 0 0 1 857.125 63.5115)"/><path d="M606.722 1256.46 528.077 1211.05 530.05 1209.91 532.023 1208.77 606.722 1251.9 606.722 1254.18Z" transform="matrix(1.00015 0 0 1 857.125 63.5115)"/><path d="M528.077 1211.05 528.077 1120.24 530.05 1121.38 532.023 1122.52 532.023 1208.77 530.05 1209.91Z" transform="matrix(1.00015 0 0 1 857.125 63.5115)"/><path d="M538.701 1203.78 538.701 1127.51 540.674 1127.51 542.647 1127.51 542.647 1203.78 540.674 1203.78Z" transform="matrix(1.00015 0 0 1 857.125 63.5115)"/><path d="M604.748 1075.97 604.722 1010.17 606.695 1010.17 608.668 1010.17 608.694 1075.97 606.722 1077.11Z" transform="matrix(1.00015 0 0 1 857.125 63.5115)"/><text font-family="Times New Roman,Times New Roman_MSFontService,sans-serif" font-weight="400" font-size="13" transform="matrix(3.34681 0 0 3.34632 1449.39 1064)">C</text><text font-family="Times New Roman,Times New Roman_MSFontService,sans-serif" font-weight="400" font-size="13" transform="matrix(3.34681 0 0 3.34632 1476.17 1064)">H</text><text font-family="Times New Roman,Times New Roman_MSFontService,sans-serif" font-weight="400" font-size="8" transform="matrix(3.34681 0 0 3.34632 1506.29 1064)">3</text><text font-family="Times New Roman,Times New Roman_MSFontService,sans-serif" font-weight="400" font-size="13" transform="matrix(3.34681 0 0 3.34632 1617.89 1237)">+</text><text font-family="Times New Roman,Times New Roman_MSFontService,sans-serif" font-weight="400" font-size="13" transform="matrix(3.34681 0 0 3.34632 1712.15 1229)">Cl</text><text font-family="Times New Roman,Times New Roman_MSFontService,sans-serif" font-weight="400" font-size="8" transform="matrix(3.34681 0 0 3.34632 1748.97 1229)">2</text><text font-family="Times New Roman,Times New Roman_MSFontService,sans-serif" font-weight="400" font-size="13" transform="matrix(3.34681 0 0 3.34632 2483.56 840)">C</text><text font-family="Times New Roman,Times New Roman_MSFontService,sans-serif" font-weight="400" font-size="13" transform="matrix(3.34681 0 0 3.34632 2510.33 840)">H</text><text font-family="Times New Roman,Times New Roman_MSFontService,sans-serif" font-weight="400" font-size="8" transform="matrix(3.34681 0 0 3.34632 2540.45 840)">2</text><text font-family="Times New Roman,Times New Roman_MSFontService,sans-serif" font-weight="400" font-size="13" transform="matrix(3.34681 0 0 3.34632 2553.84 840)">C</text><text font-family="Times New Roman,Times New Roman_MSFontService,sans-serif" font-weight="400" font-size="13" transform="matrix(3.34681 0 0 3.34632 2580.62 840)">l</text><path d="M1562.09 896.891 1638.76 852.625 1640.73 853.763 1640.73 856.042 1566.04 899.169 1564.06 898.03Z" transform="matrix(1.00015 0 0 1 857.125 63.5115)"/><path d="M1642.71 852.624 1719.38 896.891 1717.41 898.03 1715.43 899.169 1640.73 856.042 1640.73 853.763Z" transform="matrix(1.00015 0 0 1 857.125 63.5115)"/><path d="M1641.72 864.322 1707.77 902.455 1706.78 904.164 1705.79 905.872 1639.75 867.739 1640.73 866.031Z" transform="matrix(1.00015 0 0 1 857.125 63.5115)"/><path d="M1719.38 896.891 1719.38 987.701 1717.41 986.562 1715.43 985.423 1715.43 899.169 1717.41 898.03Z" transform="matrix(1.00015 0 0 1 857.125 63.5115)"/><path d="M1719.38 987.701 1640.73 1033.11 1640.73 1030.83 1640.73 1028.55 1715.43 985.423 1717.41 986.562Z" transform="matrix(1.00015 0 0 1 857.125 63.5115)"/><path d="M1707.77 982.137 1641.72 1020.27 1640.73 1018.56 1639.75 1016.85 1705.79 978.72 1706.78 980.429Z" transform="matrix(1.00015 0 0 1 857.125 63.5115)"/><path d="M1640.73 1033.11 1562.09 987.701 1564.06 986.562 1566.04 985.423 1640.73 1028.55 1640.73 1030.83Z" transform="matrix(1.00015 0 0 1 857.125 63.5115)"/><path d="M1562.09 987.701 1562.09 896.891 1564.06 898.03 1566.04 899.169 1566.04 985.423 1564.06 986.562Z" transform="matrix(1.00015 0 0 1 857.125 63.5115)"/><path d="M1572.71 980.429 1572.71 904.164 1574.69 904.164 1576.66 904.164 1576.66 980.429 1574.69 980.429Z" transform="matrix(1.00015 0 0 1 857.125 63.5115)"/><path d="M1638.76 852.625 1638.73 786.82 1640.71 786.82 1642.68 786.819 1642.71 852.624 1640.73 853.763Z" transform="matrix(1.00015 0 0 1 857.125 63.5115)"/><text font-family="Times New Roman,Times New Roman_MSFontService,sans-serif" font-weight="400" font-size="13" transform="matrix(3.34681 0 0 3.34632 2483.56 1273)">C</text><text font-family="Times New Roman,Times New Roman_MSFontService,sans-serif" font-weight="400" font-size="13" transform="matrix(3.34681 0 0 3.34632 2510.33 1273)">H</text><text font-family="Times New Roman,Times New Roman_MSFontService,sans-serif" font-weight="400" font-size="8" transform="matrix(3.34681 0 0 3.34632 2540.45 1273)">3</text><path d="M1562.09 1329.9 1638.76 1285.63 1640.73 1286.77 1640.73 1289.05 1566.04 1332.17 1564.06 1331.03Z" transform="matrix(1.00015 0 0 1 857.125 63.5115)"/><path d="M1642.71 1285.63 1717.4 1328.76 1717.41 1331.03 1715.43 1332.17 1640.73 1289.05 1640.73 1286.77Z" transform="matrix(1.00015 0 0 1 857.125 63.5115)"/><path d="M1641.72 1297.33 1707.77 1335.46 1706.78 1337.17 1705.79 1338.88 1639.75 1300.74 1640.73 1299.04Z" transform="matrix(1.00015 0 0 1 857.125 63.5115)"/><path d="M1719.38 1332.17 1719.38 1420.71 1717.41 1419.57 1715.43 1418.43 1715.43 1332.17 1717.41 1331.03Z" transform="matrix(1.00015 0 0 1 857.125 63.5115)"/><path d="M1719.38 1420.71 1640.73 1466.11 1640.73 1463.83 1640.73 1461.55 1715.43 1418.43 1717.41 1419.57Z" transform="matrix(1.00015 0 0 1 857.125 63.5115)"/><path d="M1707.77 1415.14 1641.72 1453.27 1640.73 1451.57 1639.75 1449.86 1705.79 1411.72 1706.78 1413.43Z" transform="matrix(1.00015 0 0 1 857.125 63.5115)"/><path d="M1640.73 1466.11 1562.09 1420.71 1564.06 1419.57 1566.04 1418.43 1640.73 1461.55 1640.73 1463.83Z" transform="matrix(1.00015 0 0 1 857.125 63.5115)"/><path d="M1562.09 1420.71 1562.09 1329.9 1564.06 1331.03 1566.04 1332.17 1566.04 1418.43 1564.06 1419.57Z" transform="matrix(1.00015 0 0 1 857.125 63.5115)"/><path d="M1572.71 1413.43 1572.71 1337.17 1574.69 1337.17 1576.66 1337.17 1576.66 1413.43 1574.69 1413.43Z" transform="matrix(1.00015 0 0 1 857.125 63.5115)"/><path d="M1638.76 1285.63 1638.73 1219.82 1640.71 1219.82 1642.68 1219.82 1642.71 1285.63 1640.73 1286.77Z" transform="matrix(1.00015 0 0 1 857.125 63.5115)"/><path d="M1717.4 1328.76 1768.57 1299.19 1769.56 1300.89 1770.55 1302.6 1719.38 1332.17 1717.41 1331.03Z" transform="matrix(1.00015 0 0 1 857.125 63.5115)"/><text font-family="Times New Roman,Times New Roman_MSFontService,sans-serif" font-weight="400" font-size="13" transform="matrix(3.34681 0 0 3.34632 2630.89 1367)">Cl</text><text font-family="Times New Roman,Times New Roman_MSFontService,sans-serif" font-weight="400" font-size="13" transform="matrix(3.34681 0 0 3.34632 2293.3 1029)">+</text><text font-family="Times New Roman,Times New Roman_MSFontService,sans-serif" font-weight="400" font-size="13" transform="matrix(3.34681 0 0 3.34632 2911.48 1273)">C</text><text font-family="Times New Roman,Times New Roman_MSFontService,sans-serif" font-weight="400" font-size="13" transform="matrix(3.34681 0 0 3.34632 2938.26 1273)">H</text><text font-family="Times New Roman,Times New Roman_MSFontService,sans-serif" font-weight="400" font-size="8" transform="matrix(3.34681 0 0 3.34632 2968.38 1273)">3</text><path d="M1989.95 1329.9 2066.62 1285.63 2068.6 1286.77 2068.6 1289.05 1993.9 1332.17 1991.92 1331.03Z" transform="matrix(1.00015 0 0 1 857.125 63.5115)"/><path d="M2070.57 1285.63 2147.24 1329.9 2145.27 1331.03 2143.29 1332.17 2068.6 1289.05 2068.6 1286.77Z" transform="matrix(1.00015 0 0 1 857.125 63.5115)"/><path d="M2069.58 1297.33 2135.63 1335.46 2134.64 1337.17 2133.66 1338.88 2067.61 1300.74 2068.6 1299.04Z" transform="matrix(1.00015 0 0 1 857.125 63.5115)"/><path d="M2147.24 1329.9 2147.24 1420.71 2145.27 1419.57 2143.29 1418.43 2143.29 1332.17 2145.27 1331.03Z" transform="matrix(1.00015 0 0 1 857.125 63.5115)"/><path d="M2147.24 1420.71 2070.57 1464.97 2068.6 1463.83 2068.6 1461.55 2143.29 1418.43 2145.27 1419.57Z" transform="matrix(1.00015 0 0 1 857.125 63.5115)"/><path d="M2135.63 1415.14 2069.58 1453.27 2068.6 1451.57 2067.61 1449.86 2133.66 1411.72 2134.64 1413.43Z" transform="matrix(1.00015 0 0 1 857.125 63.5115)"/><path d="M2066.62 1464.97 1989.95 1420.71 1991.92 1419.57 1993.9 1418.43 2068.6 1461.55 2068.6 1463.83Z" transform="matrix(1.00015 0 0 1 857.125 63.5115)"/><path d="M1989.95 1420.71 1989.95 1329.9 1991.92 1331.03 1993.9 1332.17 1993.9 1418.43 1991.92 1419.57Z" transform="matrix(1.00015 0 0 1 857.125 63.5115)"/><path d="M2000.57 1413.43 2000.57 1337.17 2002.55 1337.17 2004.52 1337.17 2004.52 1413.43 2002.55 1413.43Z" transform="matrix(1.00015 0 0 1 857.125 63.5115)"/><path d="M2066.62 1285.63 2066.6 1219.82 2068.57 1219.82 2070.54 1219.82 2070.57 1285.63 2068.6 1286.77Z" transform="matrix(1.00015 0 0 1 857.125 63.5115)"/><path d="M2070.57 1464.97 2070.6 1530.78 2068.62 1530.78 2066.65 1530.78 2066.62 1464.97 2068.6 1463.83Z" transform="matrix(1.00015 0 0 1 857.125 63.5115)"/><text font-family="Times New Roman,Times New Roman_MSFontService,sans-serif" font-weight="400" font-size="13" transform="matrix(3.34681 0 0 3.34632 2905.51 1633)">Cl</text><text font-family="Times New Roman,Times New Roman_MSFontService,sans-serif" font-weight="400" font-size="13" transform="matrix(3.34681 0 0 3.34632 2152.8 1031)">H</text><text font-family="Times New Roman,Times New Roman_MSFontService,sans-serif" font-weight="400" font-size="13" transform="matrix(3.34681 0 0 3.34632 2182.93 1031)">Cl</text><text font-family="Times New Roman,Times New Roman_MSFontService,sans-serif" font-weight="400" font-size="13" transform="matrix(3.34681 0 0 3.34632 2293.3 1452)">+</text><text font-family="Times New Roman,Times New Roman_MSFontService,sans-serif" font-weight="400" font-size="13" transform="matrix(3.34681 0 0 3.34632 2152.8 1454)">H</text><text font-family="Times New Roman,Times New Roman_MSFontService,sans-serif" font-weight="400" font-size="13" transform="matrix(3.34681 0 0 3.34632 2182.93 1454)">Cl</text><path d="M0 0 86.695 178.109" stroke="#000000" stroke-width="4.58333" stroke-miterlimit="8" fill="none" fill-rule="evenodd" transform="matrix(1 0 0 -1 1793.5 1194.61)"/><path d="M1879.5 1016.5 2133.15 1016.5" stroke="#000000" stroke-width="4.58333" stroke-miterlimit="8" fill="none" fill-rule="evenodd"/><path d="M1793.5 1238.5 1880.19 1439.86" stroke="#000000" stroke-width="4.58333" stroke-miterlimit="8" fill="none" fill-rule="evenodd"/><path d="M1879.5 1439.5 2133.15 1439.5" stroke="#000000" stroke-width="4.58333" stroke-miterlimit="8" fill="none" fill-rule="evenodd"/><text font-family="Source Han Serif SC SemiBold,Source Han Serif SC SemiBold_MSFontService,sans-serif" font-weight="600" font-size="28" transform="matrix(1 0 0 1 2738.31 1442)">或</text><text font-family="Source Han Serif SC SemiBold,Source Han Serif SC SemiBold_MSFontService,sans-serif" font-weight="600" font-size="50" transform="matrix(1 0 0 1 1954.91 986)">光照</text><text font-family="Source Han Serif SC SemiBold,Source Han Serif SC SemiBold_MSFontService,sans-serif" font-weight="600" font-size="50" transform="matrix(1 0 0 1 1954.42 1416)">FeCl</text><text font-family="Source Han Serif SC SemiBold,Source Han Serif SC SemiBold_MSFontService,sans-serif" font-weight="600" font-size="28" transform="matrix(1 0 0 1 2066.71 1416)">3</text></g></svg>