<?xml version="1.0" standalone='no'?><!-- IBoard SVG File --><svg xmlns="http://www.w3.org/2000/svg" xmlns:xlink="http://www.w3.org/1999/xlink" viewBox="513.50 419.90 116.59 80.52" height="73.52" width="123.59" version="1.1"><!-- SVG File --><polygon points="519.759094,469.338837 544.637451,483.846680 544.634766,484.527588 544.631653,485.208344 518.576965,470.014404 519.168213,469.676697 " style="fill:rgb(0,0,0);fill-opacity:1.000000"/><polygon points="544.359924,479.930908 566.407654,467.328491 566.700134,467.840485 566.992859,468.352386 544.945007,480.954712 544.652344,480.442719 " style="fill:rgb(0,0,0);fill-opacity:1.000000"/><polygon points="544.637451,483.846680 569.641113,469.555206 570.228943,469.898254 570.225952,470.579132 544.631653,485.208344 544.634766,484.527588 " style="fill:rgb(0,0,0);fill-opacity:1.000000"/><polygon points="569.641113,469.555298 569.766052,440.755981 570.357239,440.418304 570.945068,440.761292 570.820190,469.560577 570.228943,469.898254 " style="fill:rgb(0,0,0);fill-opacity:1.000000"/><polygon points="566.513611,442.954681 544.576172,430.161438 544.873352,429.651886 545.170288,429.142548 567.107483,441.935974 566.810364,442.445404 " style="fill:rgb(0,0,0);fill-opacity:1.000000"/><polygon points="569.766052,440.755981 544.888123,426.247894 544.890625,425.567505 544.893799,424.886597 570.360107,439.737396 570.357239,440.418304 " style="fill:rgb(0,0,0);fill-opacity:1.000000"/><polygon points="544.888245,426.247925 519.884155,440.539551 519.296143,440.196594 518.707947,439.853668 544.893860,424.886566 544.890625,425.567505 " style="fill:rgb(0,0,0);fill-opacity:1.000000"/><polygon points="523.414368,442.256958 523.304199,467.652283 522.714539,467.649689 522.125000,467.647156 522.235352,442.251862 522.824951,442.254364 " style="fill:rgb(0,0,0);fill-opacity:1.000000"/><polygon points="519.884155,440.539551 519.759094,469.338806 519.168213,469.676697 518.576965,470.014465 518.707947,439.853668 519.296143,440.196594 " style="fill:rgb(0,0,0);fill-opacity:1.000000"/><polygon points="570.820190,469.560577 595.698120,484.068634 595.695496,484.749084 595.692444,485.429993 570.226074,470.579224 570.228943,469.898254 " style="fill:rgb(0,0,0);fill-opacity:1.000000"/><polygon points="570.360107,439.737396 595.954529,425.108124 595.951416,425.789063 595.948853,426.469849 570.945068,440.761292 570.357239,440.418304 " style="fill:rgb(0,0,0);fill-opacity:1.000000"/><polygon points="595.420227,480.152588 617.468689,467.550110 617.760986,468.062347 618.053955,468.574005 596.005737,481.176147 595.712952,480.664642 " style="fill:rgb(0,0,0);fill-opacity:1.000000"/><polygon points="595.698120,484.068634 620.702026,469.777161 621.289978,470.119995 621.878296,470.462799 595.692444,485.429993 595.695496,484.749084 " style="fill:rgb(0,0,0);fill-opacity:1.000000"/><polygon points="620.702026,469.777161 620.826965,440.977722 621.418030,440.639893 622.008972,440.302216 621.878296,470.462799 621.289978,470.119995 " style="fill:rgb(0,0,0);fill-opacity:1.000000"/><polygon points="595.954529,425.108124 622.008972,440.302216 621.418030,440.639893 620.826965,440.977722 595.948853,426.469849 595.951416,425.789063 " style="fill:rgb(0,0,0);fill-opacity:1.000000"/><polygon points="596.230835,429.364349 618.168640,442.157745 617.871643,442.666870 617.574341,443.176147 595.636841,430.383331 595.933899,429.873993 " style="fill:rgb(0,0,0);fill-opacity:1.000000"/></svg>