<svg width="3123" height="630" xmlns="http://www.w3.org/2000/svg" xmlns:xlink="http://www.w3.org/1999/xlink" xml:space="preserve" overflow="hidden"><defs><clipPath id="clip0"><rect x="1142" y="712" width="3123" height="630"/></clipPath></defs><g clip-path="url(#clip0)" transform="translate(-1142 -712)"><path d="M1279 1240 1530.11 1241.2 1533.05 1246.1 1536 1251 1273 1249.74 1276 1244.87Z" fill-rule="evenodd"/><path d="M1511 1211.8 1623.09 1020 1627.55 1022.61 1632 1025.2 1519.92 1217 1515.45 1214.4Z" fill-rule="evenodd"/><path d="M1530 1240.65 1657.09 1023 1663.05 1023.03 1666 1028.2 1535.91 1251 1532.95 1245.82Z" fill-rule="evenodd"/><path d="M1657.03 1022.97 1532 804.281 1535.01 799.15 1538.02 794 1666 1017.86 1663 1023Z" fill-rule="evenodd"/><path d="M1516.95 835 1295 833.834 1295.03 828.417 1295.05 823 1517 824.175 1516.97 829.592Z" fill-rule="evenodd"/><path d="M1532.01 804 1280.89 802.689 1277.95 797.345 1275 792 1538 793.365 1535.01 798.692Z" fill-rule="evenodd"/><path d="M1281 802.345 1153.92 1020 1147.96 1019.97 1142 1019.94 1275.09 792 1278.05 797.173Z" fill-rule="evenodd"/><path d="M1187.95 1018 1298 1210.88 1293.52 1213.45 1289.04 1216 1179 1023.11 1183.48 1020.55Z" fill-rule="evenodd"/><path d="M1153.93 1020.06 1279 1239.67 1275.99 1244.84 1272.97 1250 1142 1020 1147.97 1020.04Z" fill-rule="evenodd"/><path d="M1663.01 1022 1867 1022.9 1866.97 1027.46 1866.95 1032 1662.95 1031.1 1660 1026.54Z" fill-rule="evenodd"/><path d="M1923 1077.05 1922.28 1202 1917.14 1201.98 1912 1201.95 1912.72 1077 1917.86 1077.02Z" fill-rule="evenodd"/><text font-family="Source Han Serif SC Medium,Source Han Serif SC Medium_MSFontService,sans-serif" font-weight="500" font-size="85" transform="matrix(1 0 0 1 1875.48 1270)">CH</text><text font-family="Source Han Serif SC Medium,Source Han Serif SC Medium_MSFontService,sans-serif" font-weight="500" font-size="52" transform="matrix(1 0 0 1 2007.25 1276)">3</text><path d="M1969.05 1023 2124 1023.7 2123.97 1028.35 2123.95 1033 1969 1032.3 1969.03 1027.65Z" fill-rule="evenodd"/><text font-family="Source Han Serif SC Medium,Source Han Serif SC Medium_MSFontService,sans-serif" font-weight="500" font-size="85" transform="matrix(1 0 0 1 2134.36 1046)">CH</text><text font-family="Source Han Serif SC Medium,Source Han Serif SC Medium_MSFontService,sans-serif" font-weight="500" font-size="52" transform="matrix(1 0 0 1 2266.14 1052)">3</text><text font-family="Source Han Serif SC Medium,Source Han Serif SC Medium_MSFontService,sans-serif" font-weight="500" font-size="85" transform="matrix(1 0 0 1 1885.86 1057)">C</text><path d="M1913 976.954 1913.72 852 1918.86 852.023 1924 852.046 1923.29 977 1918.14 976.977Z" fill-rule="evenodd"/><text font-family="Source Han Serif SC Medium,Source Han Serif SC Medium_MSFontService,sans-serif" font-weight="500" font-size="85" transform="matrix(1 0 0 1 1878.07 820)">CH</text><text font-family="Source Han Serif SC Medium,Source Han Serif SC Medium_MSFontService,sans-serif" font-weight="500" font-size="52" transform="matrix(1 0 0 1 2009.84 826)">3</text><text font-family="Source Han Serif SC Medium,Source Han Serif SC Medium_MSFontService,sans-serif" font-weight="500" font-size="83" transform="matrix(1 0 0 1 2541.57 957)">烷基上与苯环直接相连的碳原子上没有氢原子</text><text font-family="Source Han Serif SC Medium,Source Han Serif SC Medium_MSFontService,sans-serif" font-weight="500" font-size="83" transform="matrix(1 0 0 1 2541.57 1056)">不能被酸性高锰酸钾氧化</text></g></svg>