<?xml version="1.0" standalone='no'?><!-- IBoard SVG File --><svg xmlns="http://www.w3.org/2000/svg" xmlns:xlink="http://www.w3.org/1999/xlink" viewBox="668.83 310.18 349.57 80.31" height="73.31" width="356.57" version="1.1"><!-- SVG File --><polygon points="673.910889,330.254547 700.031189,315.173981 700.031189,315.854797 700.031189,316.535614 675.090088,330.935394 674.500488,330.594971 " style="fill:rgb(0,0,0);fill-opacity:1.000000"/><polygon points="700.031189,315.173981 725.561768,329.914093 725.561890,330.594971 724.972290,330.935394 700.031189,316.535614 700.031189,315.854797 " style="fill:rgb(0,0,0);fill-opacity:1.000000"/><polygon points="700.325989,319.429077 722.319031,332.126801 722.024231,332.637421 721.729431,333.148041 699.736389,320.450317 700.031189,319.939697 " style="fill:rgb(0,0,0);fill-opacity:1.000000"/><polygon points="726.151489,330.935211 726.151489,360.415741 725.561890,360.075317 724.972290,359.734894 724.972290,330.935394 725.561890,330.594971 " style="fill:rgb(0,0,0);fill-opacity:1.000000"/><polygon points="726.151489,360.415741 700.031128,375.496246 700.031128,374.815430 700.031128,374.134613 724.972290,359.734894 725.561890,360.075317 " style="fill:rgb(0,0,0);fill-opacity:1.000000"/><polygon points="722.319031,358.543488 700.325928,371.241150 700.031128,370.730530 699.736328,370.219910 721.729431,357.522247 722.024231,358.032867 " style="fill:rgb(0,0,0);fill-opacity:1.000000"/><polygon points="700.031128,375.496246 673.910828,360.415649 674.500427,360.075226 675.090027,359.734802 700.031128,374.134613 700.031128,374.815430 " style="fill:rgb(0,0,0);fill-opacity:1.000000"/><polygon points="673.910828,360.415649 673.910889,330.254547 674.500488,330.594971 675.090088,330.935394 675.090027,359.734802 674.500427,360.075226 " style="fill:rgb(0,0,0);fill-opacity:1.000000"/><polygon points="677.448486,358.032776 677.448547,332.637451 678.038147,332.637451 678.627747,332.637451 678.627686,358.032776 678.038086,358.032776 " style="fill:rgb(0,0,0);fill-opacity:1.000000"/><polygon points="725.561768,329.914093 751.086548,315.163910 751.086792,315.844727 751.087036,316.525543 726.151489,330.935211 725.561890,330.594971 " style="fill:rgb(0,0,0);fill-opacity:1.000000"/><polygon points="751.086548,315.163910 776.917908,330.064056 776.623291,330.574799 776.328674,331.085541 751.087036,316.525543 751.086792,315.844727 " style="fill:rgb(0,0,0);fill-opacity:1.000000"/><line x1="797.71191" y1="342.58008" x2="876.10535" y2="342.58008" style="stroke:rgb(0,0,0);stroke-width:1.179213;stroke-opacity:1.000000" stroke-linecap="butt"/><polygon points="886.128662,342.580078 874.336548,339.632050 876.105347,342.580078 874.336548,345.528107 " style="fill:rgb(0,0,0);fill-opacity:1.000000"/><text xml:space="preserve" x="810.330322" y="334.004822" textLength="63.180000" lengthAdjust="spacingAndGlyphs"><tspan font-family="Times New Roman" font-weight="normal" baseline-shift="0" font-size="13" fill="#000000">KMnO</tspan><tspan font-family="Times New Roman" font-weight="normal" baseline-shift="-2" font-size="8" fill="#000000">4</tspan><tspan font-family="Times New Roman" font-weight="normal" baseline-shift="0" font-size="13" fill="#000000">(</tspan><tspan font-family="Times New Roman" font-weight="normal" baseline-shift="0" font-size="13" fill="#000000">H</tspan><tspan font-family="Times New Roman" font-weight="normal" baseline-shift="6" font-size="8" fill="#000000">+</tspan><tspan font-family="Times New Roman" font-weight="normal" baseline-shift="0" font-size="13" fill="#000000">)</tspan></text><text xml:space="preserve" x="978.566223" y="320.953888" textLength="36.830002" lengthAdjust="spacingAndGlyphs"><tspan font-family="Times New Roman" font-weight="normal" baseline-shift="0" font-size="13" fill="#000000">C</tspan><tspan font-family="Times New Roman" font-weight="normal" baseline-shift="0" font-size="13" fill="#000000">O</tspan><tspan font-family="Times New Roman" font-weight="normal" baseline-shift="0" font-size="13" fill="#000000">O</tspan><tspan font-family="Times New Roman" font-weight="normal" baseline-shift="0" font-size="13" fill="#000000">H</tspan></text><polygon points="905.725342,330.249512 931.845642,315.168945 931.845642,315.849762 931.845642,316.530579 906.904541,330.930359 906.314941,330.589935 " style="fill:rgb(0,0,0);fill-opacity:1.000000"/><polygon points="931.845642,315.168945 957.376221,329.909058 957.376343,330.589935 956.786743,330.930359 931.845642,316.530579 931.845642,315.849762 " style="fill:rgb(0,0,0);fill-opacity:1.000000"/><polygon points="932.140442,319.424042 954.133484,332.121765 953.838684,332.632385 953.543884,333.143005 931.550842,320.445282 931.845642,319.934662 " style="fill:rgb(0,0,0);fill-opacity:1.000000"/><polygon points="957.965942,330.930176 957.965942,360.410706 957.376343,360.070282 956.786743,359.729858 956.786743,330.930359 957.376343,330.589935 " style="fill:rgb(0,0,0);fill-opacity:1.000000"/><polygon points="957.965942,360.410706 931.845581,375.491211 931.845581,374.810394 931.845581,374.129578 956.786743,359.729858 957.376343,360.070282 " style="fill:rgb(0,0,0);fill-opacity:1.000000"/><polygon points="954.133484,358.538452 932.140381,371.236115 931.845581,370.725494 931.550781,370.214874 953.543884,357.517212 953.838684,358.027832 " style="fill:rgb(0,0,0);fill-opacity:1.000000"/><polygon points="931.845581,375.491211 905.725281,360.410614 906.314880,360.070190 906.904480,359.729767 931.845581,374.129578 931.845581,374.810394 " style="fill:rgb(0,0,0);fill-opacity:1.000000"/><polygon points="905.725281,360.410614 905.725342,330.249512 906.314941,330.589935 906.904541,330.930359 906.904480,359.729767 906.314880,360.070190 " style="fill:rgb(0,0,0);fill-opacity:1.000000"/><polygon points="909.262939,358.027740 909.263000,332.632416 909.852600,332.632416 910.442200,332.632416 910.442139,358.027740 909.852539,358.027740 " style="fill:rgb(0,0,0);fill-opacity:1.000000"/><polygon points="957.376221,329.909058 977.092041,318.515747 977.387024,319.026245 977.682007,319.536743 957.965942,330.930176 957.376343,330.589935 " style="fill:rgb(0,0,0);fill-opacity:1.000000"/></svg>