<?xml version="1.0" standalone='no'?><!-- IBoard SVG File --><svg xmlns="http://www.w3.org/2000/svg" xmlns:xlink="http://www.w3.org/1999/xlink" viewBox="423.30 361.09 167.90 81.65" height="74.65" width="174.90" version="1.1"><!-- SVG File --><polygon points="429.563110,410.302734 454.310883,425.032532 454.301849,425.713287 454.292816,426.394043 428.374939,410.967773 428.969025,410.635254 " style="fill:rgb(0,0,0);fill-opacity:1.000000"/><polygon points="454.068085,421.114258 476.227844,408.709351 476.515839,409.223816 476.803833,409.738281 454.644073,422.143188 454.356079,421.628723 " style="fill:rgb(0,0,0);fill-opacity:1.000000"/><polygon points="454.310883,425.032532 479.441040,410.964844 480.026093,411.313019 480.017029,411.993774 454.292816,426.394043 454.301849,425.713287 " style="fill:rgb(0,0,0);fill-opacity:1.000000"/><polygon points="479.441040,410.964844 479.822998,382.168213 480.417084,381.835663 481.002136,382.183868 480.620178,410.980469 480.026093,411.313019 " style="fill:rgb(0,0,0);fill-opacity:1.000000"/><polygon points="476.551117,384.337585 454.729156,371.348785 455.030731,370.842133 455.332306,370.335480 477.154266,383.324280 476.852692,383.830933 " style="fill:rgb(0,0,0);fill-opacity:1.000000"/><polygon points="479.822998,382.168213 455.075958,367.438354 455.084991,366.757568 455.094025,366.076782 480.426117,381.154877 480.417084,381.835663 " style="fill:rgb(0,0,0);fill-opacity:1.000000"/><polygon points="455.075928,367.438354 429.945557,381.505859 429.360504,381.157654 428.775452,380.809448 455.094055,366.076782 455.084991,366.757568 " style="fill:rgb(0,0,0);fill-opacity:1.000000"/><polygon points="433.460266,383.254730 433.123047,408.647797 432.533478,408.639954 431.943909,408.632111 432.281128,383.239044 432.870697,383.246887 " style="fill:rgb(0,0,0);fill-opacity:1.000000"/><polygon points="429.945557,381.505859 429.563110,410.302734 428.969025,410.635254 428.374939,410.967773 428.775452,380.809448 429.360504,381.157654 " style="fill:rgb(0,0,0);fill-opacity:1.000000"/><polygon points="480.620178,410.980469 505.367523,425.710297 505.358490,426.391083 505.349457,427.071838 480.017029,411.993774 480.026093,411.313019 " style="fill:rgb(0,0,0);fill-opacity:1.000000"/><polygon points="480.426147,381.154877 506.150848,366.754669 506.141815,367.435455 506.132782,368.116241 481.002136,382.183868 480.417084,381.835663 " style="fill:rgb(0,0,0);fill-opacity:1.000000"/><polygon points="505.124756,421.791992 527.284973,409.387146 527.572998,409.901642 527.861023,410.416138 505.700745,422.820984 505.412750,422.306488 " style="fill:rgb(0,0,0);fill-opacity:1.000000"/><polygon points="505.367554,425.710297 530.498230,411.642639 531.083252,411.990875 531.074219,412.671661 505.349457,427.071838 505.358490,426.391083 " style="fill:rgb(0,0,0);fill-opacity:1.000000"/><polygon points="530.498230,411.642639 530.880066,382.846100 531.474121,382.513519 532.059143,382.861755 531.677307,411.658325 531.083252,411.990875 " style="fill:rgb(0,0,0);fill-opacity:1.000000"/><polygon points="506.150848,366.754669 531.483154,381.832733 531.474121,382.513519 530.880066,382.846100 506.132782,368.116241 506.141815,367.435455 " style="fill:rgb(0,0,0);fill-opacity:1.000000"/><polygon points="506.389130,371.013397 528.211304,384.002167 527.909729,384.508820 527.608154,385.015472 505.785980,372.026703 506.087555,371.520050 " style="fill:rgb(0,0,0);fill-opacity:1.000000"/><polygon points="556.181641,422.470032 578.341675,410.065216 578.629639,410.579712 578.917725,411.094208 556.757690,423.499023 556.469604,422.984528 " style="fill:rgb(0,0,0);fill-opacity:1.000000"/><polygon points="556.424377,426.388306 581.554810,412.320709 582.139893,412.668945 582.724854,413.017181 556.406372,427.749847 556.415405,427.069092 " style="fill:rgb(0,0,0);fill-opacity:1.000000"/><polygon points="581.554810,412.320709 581.937134,383.523865 582.531250,383.191284 583.125244,382.858704 582.724854,413.017181 582.139893,412.668945 " style="fill:rgb(0,0,0);fill-opacity:1.000000"/><polygon points="557.207520,367.432495 583.125244,382.858704 582.531250,383.191284 581.937134,383.523865 557.189453,368.794006 557.198486,368.113251 " style="fill:rgb(0,0,0);fill-opacity:1.000000"/><polygon points="557.445801,371.691193 579.268311,384.679932 578.966797,385.186584 578.665161,385.693237 556.842651,372.704498 557.144287,372.197845 " style="fill:rgb(0,0,0);fill-opacity:1.000000"/><polygon points="556.406372,427.749847 531.074219,412.671661 531.083252,411.990875 531.677307,411.658325 556.424377,426.388306 556.415405,427.069092 " style="fill:rgb(0,0,0);fill-opacity:1.000000"/><polygon points="557.189453,368.794037 532.059143,382.861755 531.474121,382.513519 531.483154,381.832733 557.207520,367.432465 557.198486,368.113251 " style="fill:rgb(0,0,0);fill-opacity:1.000000"/></svg>