<svg width="1221" height="224" xmlns="http://www.w3.org/2000/svg" xmlns:xlink="http://www.w3.org/1999/xlink" xml:space="preserve" overflow="hidden"><defs><clipPath id="clip0"><rect x="1675" y="1119" width="1221" height="224"/></clipPath><clipPath id="clip1"><rect x="2546" y="1141" width="83" height="53"/></clipPath><clipPath id="clip2"><rect x="2546" y="1141" width="83" height="53"/></clipPath><clipPath id="clip3"><rect x="2546" y="1141" width="83" height="53"/></clipPath><clipPath id="clip4"><rect x="2796" y="1181" width="41" height="87"/></clipPath><clipPath id="clip5"><rect x="2796" y="1181" width="41" height="87"/></clipPath><clipPath id="clip6"><rect x="2796" y="1181" width="41" height="87"/></clipPath></defs><g clip-path="url(#clip0)" transform="translate(-1675 -1119)"><text fill="#231815" font-family="Arial,Arial_MSFontService,sans-serif" font-weight="400" font-size="41" transform="matrix(1 0 0 1 1708.44 1179)">C</text><text fill="#231815" font-family="Arial,Arial_MSFontService,sans-serif" font-weight="400" font-size="41" transform="matrix(1 0 0 1 1736.69 1179)">H</text><text fill="#231815" font-family="Arial,Arial_MSFontService,sans-serif" font-weight="400" font-size="24" transform="matrix(1 0 0 1 1767.22 1187)">2</text><path d="M1780 1159 1821 1159 1821 1161 1780 1161Z" fill="#231815" fill-rule="evenodd"/><path d="M1780 1167 1821 1167 1821 1169 1780 1169Z" fill="#231815" fill-rule="evenodd"/><text fill="#231815" font-family="Arial,Arial_MSFontService,sans-serif" font-weight="400" font-size="41" transform="matrix(1 0 0 1 1821.46 1179)">C</text><text fill="#231815" font-family="Arial,Arial_MSFontService,sans-serif" font-weight="400" font-size="41" transform="matrix(1 0 0 1 1849.72 1179)">H</text><text fill="#231815" font-family="Arial,Arial_MSFontService,sans-serif" font-weight="400" font-size="41" transform="matrix(1 0 0 1 1880.24 1179)">—</text><text fill="#231815" font-family="Arial,Arial_MSFontService,sans-serif" font-weight="400" font-size="41" transform="matrix(1 0 0 1 1922.22 1179)">C</text><text fill="#231815" font-family="Arial,Arial_MSFontService,sans-serif" font-weight="400" font-size="41" transform="matrix(1 0 0 1 1950.47 1179)">H</text><text fill="#231815" font-family="Arial,Arial_MSFontService,sans-serif" font-weight="400" font-size="24" transform="matrix(1 0 0 1 1981 1187)">3</text><text fill="#231815" font-family="Arial,Arial_MSFontService,sans-serif" font-weight="400" font-size="41" transform="matrix(1 0 0 1 2004.54 1179)">+</text><text fill="#231815" font-family="Arial,Arial_MSFontService,sans-serif" font-weight="400" font-size="41" transform="matrix(1 0 0 1 2039.67 1179)">H</text><text fill="#231815" font-family="Arial,Arial_MSFontService,sans-serif" font-weight="400" font-size="41" transform="matrix(1 0 0 1 2070.17 1179)">B</text><text fill="#231815" font-family="Arial,Arial_MSFontService,sans-serif" font-weight="400" font-size="41" transform="matrix(1 0 0 1 2098.42 1179)">r</text><path d="M2124 1164 2198 1164 2198 1162 2124 1162" fill="#231815" fill-rule="evenodd"/><path d="M2223 1162.5 2197 1156 2197 1169 2223 1162.5Z" fill="#231815" fill-rule="evenodd"/><text fill="#231815" font-family="Arial,Arial_MSFontService,sans-serif" font-weight="400" font-size="41" transform="matrix(1 0 0 1 2234.72 1179)">C</text><text fill="#231815" font-family="Arial,Arial_MSFontService,sans-serif" font-weight="400" font-size="41" transform="matrix(1 0 0 1 2262.97 1179)">H</text><text fill="#231815" font-family="Arial,Arial_MSFontService,sans-serif" font-weight="400" font-size="24" transform="matrix(1 0 0 1 2293.43 1187)">3</text><text fill="#231815" font-family="Arial,Arial_MSFontService,sans-serif" font-weight="400" font-size="41" transform="matrix(1 0 0 1 2305.87 1179)">—</text><text fill="#231815" font-family="Arial,Arial_MSFontService,sans-serif" font-weight="400" font-size="41" transform="matrix(1 0 0 1 2347.88 1179)">C</text><text fill="#231815" font-family="Arial,Arial_MSFontService,sans-serif" font-weight="400" font-size="41" transform="matrix(1 0 0 1 2376.14 1179)">H</text><text fill="#231815" font-family="Arial,Arial_MSFontService,sans-serif" font-weight="400" font-size="41" transform="matrix(1 0 0 1 2406.66 1179)">—</text><text fill="#231815" font-family="Arial,Arial_MSFontService,sans-serif" font-weight="400" font-size="41" transform="matrix(1 0 0 1 2448.6 1179)">C</text><text fill="#231815" font-family="Arial,Arial_MSFontService,sans-serif" font-weight="400" font-size="41" transform="matrix(1 0 0 1 2476.86 1179)">H</text><text fill="#231815" font-family="Arial,Arial_MSFontService,sans-serif" font-weight="400" font-size="24" transform="matrix(1 0 0 1 2507.38 1187)">3</text><text fill="#231815" font-family="Arial,Arial_MSFontService,sans-serif" font-weight="400" font-size="41" transform="matrix(1 0 0 1 2349.36 1254)">B</text><text fill="#231815" font-family="Arial,Arial_MSFontService,sans-serif" font-weight="400" font-size="41" transform="matrix(1 0 0 1 2377.68 1254)">r</text><path d="M2361 1180 2363 1180 2363 1221 2361 1221Z" fill="#231815" fill-rule="evenodd"/><text fill="#231815" font-family="Arial,Arial_MSFontService,sans-serif" font-weight="400" font-size="41" transform="matrix(1 0 0 1 2630.68 1175)">—</text><text fill="#231815" font-family="Arial,Arial_MSFontService,sans-serif" font-weight="400" font-size="41" transform="matrix(1 0 0 1 2672.69 1175)">C</text><text fill="#231815" font-family="Arial,Arial_MSFontService,sans-serif" font-weight="400" font-size="41" transform="matrix(1 0 0 1 2700.95 1175)">H</text><text fill="#231815" font-family="Arial,Arial_MSFontService,sans-serif" font-weight="400" font-size="41" transform="matrix(1 0 0 1 2748.66 1175)">—</text><text fill="#231815" font-family="Arial,Arial_MSFontService,sans-serif" font-weight="400" font-size="41" transform="matrix(1 0 0 1 2790.6 1175)">C</text><text fill="#231815" font-family="Arial,Arial_MSFontService,sans-serif" font-weight="400" font-size="41" transform="matrix(1 0 0 1 2818.85 1175)">H</text><text fill="#231815" font-family="Arial,Arial_MSFontService,sans-serif" font-weight="400" font-size="24" transform="matrix(1 0 0 1 2849.38 1183)">2</text><text font-family="Source Han Serif SC Medium,Source Han Serif SC Medium_MSFontService,sans-serif" font-weight="500" font-size="28" transform="matrix(1 0 0 1 2331.66 1317)">（主）</text><text font-family="Source Han Serif SC Medium,Source Han Serif SC Medium_MSFontService,sans-serif" font-weight="500" font-size="28" transform="matrix(1 0 0 1 2678.51 1319)">（</text><text font-family="Source Han Serif SC Medium,Source Han Serif SC Medium_MSFontService,sans-serif" font-weight="500" font-size="28" transform="matrix(1 0 0 1 2706.01 1319)">次</text><text font-family="Source Han Serif SC Medium,Source Han Serif SC Medium_MSFontService,sans-serif" font-weight="500" font-size="28" transform="matrix(1 0 0 1 2733.51 1319)">）</text><text fill="#231815" font-family="Arial,Arial_MSFontService,sans-serif" font-weight="400" font-size="24" transform="matrix(1 0 0 1 2732.82 1185)">2</text><g clip-path="url(#clip1)"><g clip-path="url(#clip2)"><g clip-path="url(#clip3)"><text fill="#231815" font-family="Arial,Arial_MSFontService,sans-serif" font-weight="400" font-size="12" transform="matrix(3.38844 0 0 3.37192 2557.94 1177)">C</text><text fill="#231815" font-family="Arial,Arial_MSFontService,sans-serif" font-weight="400" font-size="12" transform="matrix(3.38844 0 0 3.37192 2585.8 1177)">H</text><text fill="#231815" font-family="Arial,Arial_MSFontService,sans-serif" font-weight="400" font-size="7" transform="matrix(3.38844 0 0 3.37192 2615.82 1185)">3</text></g></g></g><g clip-path="url(#clip4)"><g clip-path="url(#clip5)"><g clip-path="url(#clip6)"><text fill="#231815" font-family="Arial,Arial_MSFontService,sans-serif" font-weight="400" font-size="12" transform="matrix(3.30378 0 0 3.32635 2796 1252)">B</text><text fill="#231815" font-family="Arial,Arial_MSFontService,sans-serif" font-weight="400" font-size="12" transform="matrix(3.30378 0 0 3.32635 2823.22 1252)">r</text><path d="M11.1337 0 11.1337 39.4802 12.8517 39.4802 12.8517 0" fill="#231815" transform="matrix(1 0 0 1.00683 2796 1182.95)"/></g></g></g></g></svg>