<?xml version="1.0" standalone='no'?><!-- IBoard SVG File --><svg xmlns="http://www.w3.org/2000/svg" xmlns:xlink="http://www.w3.org/1999/xlink" viewBox="220.63 187.80 161.74 72.40" height="65.40" width="168.74" version="1.1"><!-- SVG File --><polygon points="314.399719,243.941101 328.799469,219.000000 329.480286,219.000000 329.820709,219.589600 315.080505,245.120300 314.740112,244.530701 " style="fill:rgb(0,0,0);fill-opacity:1.000000"/><polygon points="329.820709,218.410400 358.620178,218.410400 358.960602,219.000000 358.620178,219.589600 329.820709,219.589600 329.480286,219.000000 " style="fill:rgb(0,0,0);fill-opacity:1.000000"/><polygon points="358.620178,218.410400 373.190155,193.174484 373.700775,193.469284 374.211395,193.764084 359.641418,219.000000 358.960602,219.000000 " style="fill:rgb(0,0,0);fill-opacity:1.000000"/><polygon points="359.641418,219.000000 374.211365,244.235916 373.700745,244.530716 373.190125,244.825516 358.620178,219.589600 358.960602,219.000000 " style="fill:rgb(0,0,0);fill-opacity:1.000000"/><polygon points="315.080505,192.879700 329.820709,218.410400 329.480286,219.000000 328.799469,219.000000 314.399719,194.058899 314.740112,193.469299 " style="fill:rgb(0,0,0);fill-opacity:1.000000"/><polygon points="284.919434,192.879700 315.080505,192.879700 314.740112,193.469299 314.399719,194.058899 285.600220,194.058899 285.259827,193.469299 " style="fill:rgb(0,0,0);fill-opacity:1.000000"/><polygon points="270.179230,218.410400 284.919434,192.879700 285.259827,193.469299 285.600220,194.058899 271.200470,219.000000 270.519653,219.000000 " style="fill:rgb(0,0,0);fill-opacity:1.000000"/><polygon points="274.093964,218.705200 286.791656,196.712128 287.302277,197.006943 287.812897,197.301743 275.115173,219.294800 274.604553,219.000000 " style="fill:rgb(0,0,0);fill-opacity:1.000000"/><polygon points="271.200470,219.000000 285.600220,243.941101 285.259827,244.530701 284.919434,245.120300 270.179230,219.589600 270.519653,219.000000 " style="fill:rgb(0,0,0);fill-opacity:1.000000"/><polygon points="287.302277,240.403458 312.697662,240.403458 312.697662,240.993057 312.697662,241.582672 287.302277,241.582672 287.302277,240.993057 " style="fill:rgb(0,0,0);fill-opacity:1.000000"/><polygon points="285.600220,243.941101 314.399719,243.941101 314.740112,244.530701 315.080505,245.120300 284.919434,245.120300 285.259827,244.530701 " style="fill:rgb(0,0,0);fill-opacity:1.000000"/><polygon points="241.379745,218.410400 270.179230,218.410400 270.519653,219.000000 270.179230,219.589600 240.698929,219.589600 241.039337,219.000000 " style="fill:rgb(0,0,0);fill-opacity:1.000000"/><polygon points="229.873489,191.405670 243.592407,215.167557 243.081787,215.462357 242.571182,215.757172 228.852264,191.995270 229.362885,191.700470 " style="fill:rgb(0,0,0);fill-opacity:1.000000"/><polygon points="226.809814,193.174484 241.379745,218.410400 241.039337,219.000000 240.698929,219.589600 225.788574,193.764084 226.299194,193.469284 " style="fill:rgb(0,0,0);fill-opacity:1.000000"/></svg>