<svg width="1779" height="238" xmlns="http://www.w3.org/2000/svg" xmlns:xlink="http://www.w3.org/1999/xlink" xml:space="preserve" overflow="hidden"><g transform="translate(-1269 -1145)"><text font-family="Source Han Serif SC Medium,Source Han Serif SC Medium_MSFontService,sans-serif" font-weight="500" font-size="45" transform="matrix(1 0 0 1 1302.3 1304)">H</text><text font-family="Source Han Serif SC Medium,Source Han Serif SC Medium_MSFontService,sans-serif" font-weight="500" font-size="28" transform="matrix(1 0 0 1 1340.69 1310)">3</text><text font-family="Source Han Serif SC Medium,Source Han Serif SC Medium_MSFontService,sans-serif" font-weight="500" font-size="45" transform="matrix(1 0 0 1 1356.16 1304)">C</text><path d="M1390 1284 1452 1284 1452 1286 1452 1288 1390 1288 1390 1286Z" fill-rule="evenodd"/><text font-family="Source Han Serif SC Medium,Source Han Serif SC Medium_MSFontService,sans-serif" font-weight="500" font-size="45" transform="matrix(1 0 0 1 1455.92 1302)">C</text><path d="M1464 1260 1464 1209 1466 1209 1468 1209 1468 1260 1466 1260Z" fill-rule="evenodd"/><path d="M1476 1260 1476 1209 1478.5 1209 1481 1209 1481 1260 1478.5 1260Z" fill-rule="evenodd"/><text font-family="Source Han Serif SC Medium,Source Han Serif SC Medium_MSFontService,sans-serif" font-weight="500" font-size="45" transform="matrix(1 0 0 1 1454.66 1205)">O</text><path d="M1493 1283 1553 1283 1553 1285 1553 1287 1493 1287 1493 1285Z" fill-rule="evenodd"/><text font-family="Source Han Serif SC Medium,Source Han Serif SC Medium_MSFontService,sans-serif" font-weight="500" font-size="45" transform="matrix(1 0 0 1 1557.44 1302)">OH</text><text font-family="Source Han Serif SC Medium,Source Han Serif SC Medium_MSFontService,sans-serif" font-weight="500" font-size="45" transform="matrix(1 0 0 1 1735.87 1302)">H</text><path d="M1773 1282 1833 1282 1833 1284 1833 1286 1773 1286 1773 1284Z" fill-rule="evenodd"/><text font-family="Source Han Serif SC Medium,Source Han Serif SC Medium_MSFontService,sans-serif" font-weight="500" font-size="45" transform="matrix(1 0 0 1 1835.76 1301)">O</text><text font-family="Source Han Serif SC Medium,Source Han Serif SC Medium_MSFontService,sans-serif" font-weight="500" font-size="30" transform="matrix(1 0 0 1 1870.14 1288)">18</text><text font-family="Source Han Serif SC Medium,Source Han Serif SC Medium_MSFontService,sans-serif" font-weight="500" font-size="45" transform="matrix(1 0 0 1 1901.07 1301)">C</text><text font-family="Source Han Serif SC Medium,Source Han Serif SC Medium_MSFontService,sans-serif" font-weight="500" font-size="28" transform="matrix(1 0 0 1 1932.01 1307)">2</text><text font-family="Source Han Serif SC Medium,Source Han Serif SC Medium_MSFontService,sans-serif" font-weight="500" font-size="45" transform="matrix(1 0 0 1 1947.48 1301)">H</text><text font-family="Source Han Serif SC Medium,Source Han Serif SC Medium_MSFontService,sans-serif" font-weight="500" font-size="28" transform="matrix(1 0 0 1 1985.87 1307)">5</text><path d="M2064 1279 2293 1279" stroke="#000000" stroke-width="4.11129" stroke-miterlimit="8" fill="none" fill-rule="evenodd"/><path d="M2099 1289 2328 1289" stroke="#000000" stroke-width="4.11129" stroke-miterlimit="8" fill="none" fill-rule="evenodd"/><path d="M2064 1288 2105 1299 2098.85 1288Z" fill-rule="evenodd"/><path d="M2328 1280 2287 1270 2293.15 1280Z" fill-rule="evenodd"/><text font-family="Source Han Serif SC Medium,Source Han Serif SC Medium_MSFontService,sans-serif" font-weight="500" font-size="45" transform="matrix(1 0 0 1 2102.49 1250)">浓</text><text font-family="Source Han Serif SC Medium,Source Han Serif SC Medium_MSFontService,sans-serif" font-weight="500" font-size="45" transform="matrix(1 0 0 1 2147.18 1250)">H</text><text font-family="Source Han Serif SC Medium,Source Han Serif SC Medium_MSFontService,sans-serif" font-weight="500" font-size="28" transform="matrix(1 0 0 1 2185.56 1256)">2</text><text font-family="Source Han Serif SC Medium,Source Han Serif SC Medium_MSFontService,sans-serif" font-weight="500" font-size="45" transform="matrix(1 0 0 1 2201.03 1250)">SO</text><text font-family="Source Han Serif SC Medium,Source Han Serif SC Medium_MSFontService,sans-serif" font-weight="500" font-size="28" transform="matrix(1 0 0 1 2261.19 1256)">4</text><text font-family="Source Han Serif SC Medium,Source Han Serif SC Medium_MSFontService,sans-serif" font-weight="500" font-size="45" transform="matrix(1 0 0 1 2182.55 1344)">△</text><text font-family="Source Han Serif SC Medium,Source Han Serif SC Medium_MSFontService,sans-serif" font-weight="500" font-size="45" transform="matrix(1 0 0 1 2647.47 1310)">O</text><text font-family="Source Han Serif SC Medium,Source Han Serif SC Medium_MSFontService,sans-serif" font-weight="500" font-size="30" transform="matrix(1 0 0 1 2681.85 1297)">18 </text><text font-family="Source Han Serif SC Medium,Source Han Serif SC Medium_MSFontService,sans-serif" font-weight="500" font-size="45" transform="matrix(1 0 0 1 2720.23 1310)">C</text><text font-family="Source Han Serif SC Medium,Source Han Serif SC Medium_MSFontService,sans-serif" font-weight="500" font-size="28" transform="matrix(1 0 0 1 2751.17 1316)">2</text><text font-family="Source Han Serif SC Medium,Source Han Serif SC Medium_MSFontService,sans-serif" font-weight="500" font-size="45" transform="matrix(1 0 0 1 2766.64 1310)">H</text><text font-family="Source Han Serif SC Medium,Source Han Serif SC Medium_MSFontService,sans-serif" font-weight="500" font-size="28" transform="matrix(1 0 0 1 2805.02 1316)">5</text><text font-family="Source Han Serif SC Medium,Source Han Serif SC Medium_MSFontService,sans-serif" font-weight="500" font-size="45" transform="matrix(1 0 0 1 2545.96 1315)">C</text><text font-family="Source Han Serif SC Medium,Source Han Serif SC Medium_MSFontService,sans-serif" font-weight="500" font-size="45" transform="matrix(1 0 0 1 2544.69 1219)">O</text><text font-family="Source Han Serif SC Medium,Source Han Serif SC Medium_MSFontService,sans-serif" font-weight="500" font-size="45" transform="matrix(1 0 0 1 2391.9 1312)">H</text><text font-family="Source Han Serif SC Medium,Source Han Serif SC Medium_MSFontService,sans-serif" font-weight="500" font-size="28" transform="matrix(1 0 0 1 2430.28 1318)">3</text><text font-family="Source Han Serif SC Medium,Source Han Serif SC Medium_MSFontService,sans-serif" font-weight="500" font-size="45" transform="matrix(1 0 0 1 2445.75 1312)">C</text><path d="M2480 1291 2542 1291 2542 1293 2542 1295 2480 1295 2480 1293Z" fill-rule="evenodd"/><path d="M2554 1273 2554 1222 2556 1222 2558 1222 2558 1273 2556 1273Z" fill-rule="evenodd"/><path d="M2566 1273 2566 1222 2568.5 1222 2571 1222 2571 1273 2568.5 1273Z" fill-rule="evenodd"/><path d="M2583 1291 2643 1291 2643 1293 2643 1295 2583 1295 2583 1293Z" fill-rule="evenodd"/><text font-family="Source Han Serif SC Medium,Source Han Serif SC Medium_MSFontService,sans-serif" font-weight="500" font-size="45" transform="matrix(1 0 0 1 1668.68 1304)">+</text><text font-family="Source Han Serif SC Medium,Source Han Serif SC Medium_MSFontService,sans-serif" font-weight="500" font-size="45" transform="matrix(1 0 0 1 2925.42 1312)">H</text><text font-family="Source Han Serif SC Medium,Source Han Serif SC Medium_MSFontService,sans-serif" font-weight="500" font-size="28" transform="matrix(1 0 0 1 2963.81 1318)">2</text><text font-family="Source Han Serif SC Medium,Source Han Serif SC Medium_MSFontService,sans-serif" font-weight="500" font-size="45" transform="matrix(1 0 0 1 2979.27 1312)">O</text><text font-family="Source Han Serif SC Medium,Source Han Serif SC Medium_MSFontService,sans-serif" font-weight="500" font-size="45" transform="matrix(1 0 0 1 2835.19 1311)">+</text><text font-family="Times New Roman,Times New Roman_MSFontService,sans-serif" font-weight="400" font-size="50" transform="matrix(1 0 0 1 1518.11 1300)">⁞</text><text font-family="Times New Roman,Times New Roman_MSFontService,sans-serif" font-weight="400" font-size="50" transform="matrix(1 0 0 1 1798 1302)">⁞</text></g></svg>