<?xml version="1.0" encoding="utf-8"?>
<!-- Generator: Adobe Illustrator 27.5.0, SVG Export Plug-In . SVG Version: 6.00 Build 0)  -->
<svg version="1.1" id="图层_1" xmlns="http://www.w3.org/2000/svg" xmlns:xlink="http://www.w3.org/1999/xlink" x="0px" y="0px"
	 viewBox="0 0 506.2 76.8" style="enable-background:new 0 0 506.2 76.8;" xml:space="preserve">
<style type="text/css">
	.st0{font-family:'SourceHanSerifSC-Light-GBpc-EUC-H';}
	.st1{font-size:16.4962px;}
	.st2{font-size:10.081px;}
	.st3{fill:none;stroke:#000000;stroke-width:0.7924;stroke-miterlimit:2.6879;}
</style>
<polygon points="29,19.8 52.9,6 52.9,6.6 52.9,7.2 30.1,20.4 29.5,20.1 "/>
<polygon points="52.9,6 76.3,19.5 76.3,20.1 75.8,20.4 52.9,7.2 52.9,6.6 "/>
<polygon points="53.2,9.9 73.4,21.5 73.1,22 72.8,22.4 52.7,10.8 52.9,10.3 "/>
<polygon points="76.9,20.4 76.9,47.4 76.3,47.1 75.8,46.8 75.8,20.4 76.3,20.1 "/>
<polygon points="76.9,47.4 52.9,61.2 52.9,60.6 52.9,60 75.8,46.8 76.3,47.1 "/>
<polygon points="73.4,45.7 53.2,57.3 52.9,56.9 52.7,56.4 72.8,44.8 73.1,45.2 "/>
<polygon points="52.9,61.2 29,47.4 29.5,47.1 30.1,46.8 52.9,60 52.9,60.6 "/>
<polygon points="29,47.4 29,19.8 29.5,20.1 30.1,20.4 30.1,46.8 29.5,47.1 "/>
<polygon points="32.3,45.2 32.3,22 32.8,22 33.3,22 33.3,45.2 32.8,45.2 "/>
<polygon points="76.3,19.5 92.4,10.2 92.6,10.7 92.9,11.2 76.9,20.4 76.3,20.1 "/>
<text transform="matrix(1 0 0 1 93.7147 12.5913)" class="st0 st1">O</text>
<text transform="matrix(1 0 0 1 105.6278 12.5913)" class="st0 st1">H</text>
<polygon points="324.5,21.6 348.4,7.8 348.4,8.4 348.4,9 325.6,22.2 325,21.9 "/>
<polygon points="348.4,7.8 371.8,21.3 371.8,21.9 371.3,22.2 348.4,9 348.4,8.4 "/>
<polygon points="348.7,11.7 368.8,23.3 368.6,23.8 368.3,24.2 348.1,12.6 348.4,12.1 "/>
<polygon points="372.4,22.2 372.4,49.2 371.8,48.9 371.3,48.6 371.3,22.2 371.8,21.9 "/>
<polygon points="372.4,49.2 348.4,63.1 348.4,62.4 348.4,61.8 371.3,48.6 371.8,48.9 "/>
<polygon points="368.8,47.5 348.7,59.2 348.4,58.7 348.1,58.2 368.3,46.6 368.6,47 "/>
<polygon points="348.4,63.1 324.5,49.2 325,48.9 325.6,48.6 348.4,61.8 348.4,62.4 "/>
<polygon points="324.5,49.2 324.5,21.6 325,21.9 325.6,22.2 325.6,48.6 325,48.9 "/>
<polygon points="327.7,47 327.7,23.8 328.3,23.8 328.8,23.8 328.8,47 328.3,47 "/>
<polygon points="371.8,21.3 387.8,12 388.1,12.5 388.4,13 372.4,22.2 371.8,21.9 "/>
<text transform="matrix(1 0 0 1 389.1805 14.395)" class="st0 st1">O</text>
<text transform="matrix(1 0 0 1 401.0936 14.395)" class="st0 st1">N</text>
<text transform="matrix(1 0 0 1 413.0067 14.395)" class="st0 st1">a</text>
<text transform="matrix(1 0 0 1 449.9794 38.8164)" class="st0 st1">H</text>
<text transform="matrix(1 0 0 1 461.8925 41.5659)" class="st0 st2">2</text>
<text transform="matrix(1 0 0 1 466.9335 38.8164)" class="st0 st1">O</text>
<text transform="matrix(1 0 0 1 425.3954 39.7485)" class="st0 st1">+</text>
<text transform="matrix(1 0 0 1 157.9872 40.3062)" class="st0 st1">N</text>
<text transform="matrix(1 0 0 1 169.9003 40.3062)" class="st0 st1">a</text>
<text transform="matrix(1 0 0 1 177.222 40.3062)" class="st0 st1">O</text>
<text transform="matrix(1 0 0 1 189.1351 40.3062)" class="st0 st1">H</text>
<text transform="matrix(1 0 0 1 126.7528 40.0664)" class="st0 st1">+</text>
<line class="st3" x1="234.4" y1="34.8" x2="278.5" y2="34.8"/>
<polygon points="285.2,34.8 277.3,32.8 278.5,34.8 277.3,36.7 "/>
</svg>
