<?xml version="1.0" encoding="utf-8"?>
<!-- Generator: Adobe Illustrator 27.5.0, SVG Export Plug-In . SVG Version: 6.00 Build 0)  -->
<svg version="1.1" id="图层_1" xmlns="http://www.w3.org/2000/svg" xmlns:xlink="http://www.w3.org/1999/xlink" x="0px" y="0px"
	 viewBox="0 0 529.8 74.8" style="enable-background:new 0 0 529.8 74.8;" xml:space="preserve">
<style type="text/css">
	.st0{font-family:'SourceHanSerifSC-Light-GBpc-EUC-H';}
	.st1{font-size:16.46px;}
	.st2{fill:none;stroke:#000000;stroke-width:0.7924;stroke-miterlimit:2.6879;}
</style>
<text transform="matrix(1 0 0 1 388.3471 12.5622)" class="st0 st1">O</text>
<text transform="matrix(1 0 0 1 400.2338 12.5622)" class="st0 st1">H</text>
<polygon points="323.8,19.7 347.7,6 347.7,6.6 347.7,7.2 324.9,20.4 324.3,20.1 "/>
<polygon points="347.7,6 371,19.4 371,20.1 370.5,20.4 347.7,7.2 347.7,6.6 "/>
<polygon points="347.9,9.8 368,21.5 367.8,21.9 367.5,22.4 347.4,10.8 347.7,10.3 "/>
<polygon points="371.6,20.4 371.6,47.3 371,47 370.5,46.7 370.5,20.4 371,20.1 "/>
<polygon points="371.6,47.3 347.7,61.1 347.7,60.5 347.7,59.9 370.5,46.7 371,47 "/>
<polygon points="368,45.6 347.9,57.2 347.7,56.8 347.4,56.3 367.5,44.7 367.8,45.1 "/>
<polygon points="347.7,61.1 323.8,47.3 324.3,47 324.9,46.7 347.7,59.9 347.7,60.5 "/>
<polygon points="323.8,47.3 323.8,19.7 324.3,20.1 324.9,20.4 324.9,46.7 324.3,47 "/>
<polygon points="327,45.1 327,21.9 327.6,21.9 328.1,21.9 328.1,45.1 327.6,45.1 "/>
<polygon points="371,19.4 387,10.2 387.3,10.7 387.5,11.1 371.6,20.4 371,20.1 "/>
<text transform="matrix(1 0 0 1 466.0238 37.3151)" class="st0 st1">Na</text>
<text transform="matrix(1 0 0 1 485.2172 37.3151)" class="st0 st1">Cl</text>
<text transform="matrix(1 0 0 1 424.4818 37.8605)" class="st0 st1">+</text>
<text transform="matrix(1 0 0 1 168.2953 37.426)" class="st0 st1">H</text>
<text transform="matrix(1 0 0 1 180.182 37.426)" class="st0 st1">Cl</text>
<text transform="matrix(1 0 0 1 133.81 38.2522)" class="st0 st1">+</text>
<text transform="matrix(1 0 0 1 95.0707 12.5622)" class="st0 st1">O</text>
<text transform="matrix(1 0 0 1 106.9584 12.5622)" class="st0 st1">N</text>
<text transform="matrix(1 0 0 1 118.8451 12.5622)" class="st0 st1">a</text>
<polygon points="30.5,19.7 54.4,6 54.4,6.6 54.4,7.2 31.6,20.4 31,20.1 "/>
<polygon points="54.4,6 77.7,19.4 77.7,20.1 77.2,20.4 54.4,7.2 54.4,6.6 "/>
<polygon points="54.7,9.8 74.8,21.5 74.5,21.9 74.2,22.4 54.1,10.8 54.4,10.3 "/>
<polygon points="78.3,20.4 78.3,47.3 77.7,47 77.2,46.7 77.2,20.4 77.7,20.1 "/>
<polygon points="78.3,47.3 54.4,61.1 54.4,60.5 54.4,59.9 77.2,46.7 77.7,47 "/>
<polygon points="74.8,45.6 54.7,57.2 54.4,56.8 54.1,56.3 74.2,44.7 74.5,45.1 "/>
<polygon points="54.4,61.1 30.5,47.3 31,47 31.6,46.7 54.4,59.9 54.4,60.5 "/>
<polygon points="30.5,47.3 30.5,19.7 31,20.1 31.6,20.4 31.6,46.7 31,47 "/>
<polygon points="77.7,19.4 93.7,10.2 94,10.7 94.3,11.1 78.3,20.4 77.7,20.1 "/>
<line class="st2" x1="234.4" y1="30.9" x2="278.4" y2="30.9"/>
<polygon points="285.2,30.9 277.2,28.9 278.4,30.9 277.2,32.9 "/>
</svg>
