<?xml version="1.0" standalone='no'?><!-- IBoard SVG File --><svg xmlns="http://www.w3.org/2000/svg" xmlns:xlink="http://www.w3.org/1999/xlink" viewBox="165.93 158.84 684.92 81.82" height="74.82" width="691.92" version="1.1"><!-- SVG File --><text xml:space="preserve" x="697.798096" y="172.577850" textLength="26.286667" lengthAdjust="spacingAndGlyphs"><tspan font-family="Times New Roman" font-weight="normal" baseline-shift="0" font-size="18" fill="#000000">O</tspan><tspan font-family="Times New Roman" font-weight="normal" baseline-shift="0" font-size="18" fill="#000000">H</tspan></text><polygon points="627.193848,180.427811 653.314148,165.347244 653.314148,166.028061 653.314148,166.708878 628.373047,181.108658 627.783447,180.768234 " style="fill:rgb(0,0,0);fill-opacity:1.000000"/><polygon points="653.314148,165.347244 678.844727,180.087341 678.844849,180.768234 678.255249,181.108658 653.314148,166.708878 653.314148,166.028061 " style="fill:rgb(0,0,0);fill-opacity:1.000000"/><polygon points="653.608948,169.602356 675.601990,182.300064 675.307190,182.810684 675.012390,183.321304 653.019348,170.623596 653.314148,170.112976 " style="fill:rgb(0,0,0);fill-opacity:1.000000"/><polygon points="679.434448,181.108475 679.434448,210.588974 678.844849,210.248550 678.255249,209.908127 678.255249,181.108658 678.844849,180.768234 " style="fill:rgb(0,0,0);fill-opacity:1.000000"/><polygon points="679.434448,210.588974 653.314148,225.669525 653.314148,224.988708 653.314148,224.307892 678.255249,209.908127 678.844849,210.248550 " style="fill:rgb(0,0,0);fill-opacity:1.000000"/><polygon points="675.601990,208.716721 653.608948,221.414429 653.314148,220.903809 653.019348,220.393188 675.012390,207.695480 675.307190,208.206100 " style="fill:rgb(0,0,0);fill-opacity:1.000000"/><polygon points="653.314148,225.669525 627.193848,210.588974 627.783447,210.248550 628.373047,209.908127 653.314148,224.307892 653.314148,224.988708 " style="fill:rgb(0,0,0);fill-opacity:1.000000"/><polygon points="627.193848,210.588974 627.193848,180.427811 627.783447,180.768234 628.373047,181.108658 628.373047,209.908127 627.783447,210.248550 " style="fill:rgb(0,0,0);fill-opacity:1.000000"/><polygon points="630.731506,208.206085 630.731506,182.810699 631.321106,182.810699 631.910706,182.810699 631.910706,208.206085 631.321106,208.206085 " style="fill:rgb(0,0,0);fill-opacity:1.000000"/><polygon points="678.844727,180.087341 696.323914,169.986526 696.618896,170.497025 696.913879,171.007523 679.434448,181.108475 678.844849,180.768234 " style="fill:rgb(0,0,0);fill-opacity:1.000000"/><text xml:space="preserve" x="782.742493" y="199.225525" textLength="65.106667" lengthAdjust="spacingAndGlyphs"><tspan font-family="Times New Roman" font-weight="normal" baseline-shift="0" font-size="18" fill="#000000">Na</tspan><tspan font-family="Times New Roman" font-weight="normal" baseline-shift="0" font-size="18" fill="#000000">H</tspan><tspan font-family="Times New Roman" font-weight="normal" baseline-shift="0" font-size="18" fill="#000000">C</tspan><tspan font-family="Times New Roman" font-weight="normal" baseline-shift="0" font-size="18" fill="#000000">O</tspan><tspan font-family="Times New Roman" font-weight="normal" baseline-shift="-3" font-size="11" fill="#000000">3</tspan></text><text xml:space="preserve" x="737.314148" y="200.242599" textLength="10.263333" lengthAdjust="spacingAndGlyphs"><tspan font-family="Times New Roman" font-weight="normal" baseline-shift="0" font-size="18" fill="#000000">+</tspan></text><text xml:space="preserve" x="453.725769" y="199.346741" textLength="31.746666" lengthAdjust="spacingAndGlyphs"><tspan font-family="Times New Roman" font-weight="normal" baseline-shift="0" font-size="18" fill="#000000">H</tspan><tspan font-family="Times New Roman" font-weight="normal" baseline-shift="-3" font-size="11" fill="#000000">2</tspan><tspan font-family="Times New Roman" font-weight="normal" baseline-shift="0" font-size="18" fill="#000000">O</tspan></text><text xml:space="preserve" x="419.447449" y="200.671051" textLength="10.263333" lengthAdjust="spacingAndGlyphs"><tspan font-family="Times New Roman" font-weight="normal" baseline-shift="0" font-size="18" fill="#000000">+</tspan></text><text xml:space="preserve" x="241.617447" y="172.577805" textLength="34.363335" lengthAdjust="spacingAndGlyphs"><tspan font-family="Times New Roman" font-weight="normal" baseline-shift="0" font-size="18" fill="#000000">O</tspan><tspan font-family="Times New Roman" font-weight="normal" baseline-shift="0" font-size="18" fill="#000000">N</tspan><tspan font-family="Times New Roman" font-weight="normal" baseline-shift="0" font-size="18" fill="#000000">a</tspan></text><polygon points="171.013214,180.427750 197.133514,165.347198 197.133514,166.028015 197.133514,166.708832 172.192413,181.108597 171.602814,180.768173 " style="fill:rgb(0,0,0);fill-opacity:1.000000"/><polygon points="197.133514,165.347198 222.664093,180.087280 222.664215,180.768173 222.074615,181.108597 197.133514,166.708832 197.133514,166.028015 " style="fill:rgb(0,0,0);fill-opacity:1.000000"/><polygon points="197.428314,169.602310 219.421371,182.300018 219.126572,182.810638 218.831772,183.321259 196.838715,170.623550 197.133514,170.112930 " style="fill:rgb(0,0,0);fill-opacity:1.000000"/><polygon points="223.253815,181.108429 223.253815,210.589005 222.664215,210.248581 222.074615,209.908157 222.074615,181.108597 222.664215,180.768173 " style="fill:rgb(0,0,0);fill-opacity:1.000000"/><polygon points="223.253815,210.589005 197.133514,225.669556 197.133514,224.988739 197.133514,224.307922 222.074615,209.908157 222.664215,210.248581 " style="fill:rgb(0,0,0);fill-opacity:1.000000"/><polygon points="219.421371,208.716736 197.428314,221.414444 197.133514,220.903824 196.838715,220.393204 218.831772,207.695496 219.126572,208.206116 " style="fill:rgb(0,0,0);fill-opacity:1.000000"/><polygon points="197.133514,225.669556 171.013214,210.589005 171.602814,210.248581 172.192413,209.908157 197.133514,224.307922 197.133514,224.988739 " style="fill:rgb(0,0,0);fill-opacity:1.000000"/><polygon points="222.664093,180.087280 240.143234,169.986481 240.438232,170.496979 240.733231,171.007477 223.253815,181.108429 222.664215,180.768173 " style="fill:rgb(0,0,0);fill-opacity:1.000000"/><polygon points="171.013214,210.589005 171.013214,180.427750 171.602814,180.768173 172.192413,181.108597 172.192413,209.908157 171.602814,210.248581 " style="fill:rgb(0,0,0);fill-opacity:1.000000"/><polygon points="174.550858,208.206116 174.550858,182.810638 175.140457,182.810638 175.730057,182.810638 175.730057,208.206116 175.140457,208.206116 " style="fill:rgb(0,0,0);fill-opacity:1.000000"/><text xml:space="preserve" x="294.800049" y="200.549835" textLength="10.263333" lengthAdjust="spacingAndGlyphs"><tspan font-family="Times New Roman" font-weight="normal" baseline-shift="0" font-size="18" fill="#000000">+</tspan></text><text xml:space="preserve" x="348.463379" y="199.346741" textLength="30.743334" lengthAdjust="spacingAndGlyphs"><tspan font-family="Times New Roman" font-weight="normal" baseline-shift="0" font-size="18" fill="#000000">C</tspan><tspan font-family="Times New Roman" font-weight="normal" baseline-shift="0" font-size="18" fill="#000000">O</tspan><tspan font-family="Times New Roman" font-weight="normal" baseline-shift="-3" font-size="11" fill="#000000">2</tspan></text><line x1="518.89136" y1="193.0865" x2="584.45862" y2="193.0865" style="stroke:rgb(0,0,0);stroke-width:1.179213;stroke-opacity:1.000000" stroke-linecap="butt"/><polygon points="594.481934,193.086502 582.689819,190.138474 584.458618,193.086502 582.689819,196.034531 " style="fill:rgb(0,0,0);fill-opacity:1.000000"/></svg>