<?xml version="1.0" standalone='no'?><!-- IBoard SVG File --><svg xmlns="http://www.w3.org/2000/svg" xmlns:xlink="http://www.w3.org/1999/xlink" viewBox="190.24 125.05 561.97 144.18" height="137.18" width="568.97" version="1.1"><!-- SVG File --><text xml:space="preserve" x="524.501099" y="140.686920" textLength="26.286667" lengthAdjust="spacingAndGlyphs"><tspan font-family="Times New Roman" font-weight="normal" baseline-shift="0" font-size="18" fill="#000000">O</tspan><tspan font-family="Times New Roman" font-weight="normal" baseline-shift="0" font-size="18" fill="#000000">H</tspan></text><polygon points="555.528809,207.650528 555.719238,178.851776 556.311096,178.515274 556.896851,179.104874 556.703491,208.339142 556.116150,207.994843 " style="fill:rgb(0,0,0);fill-opacity:1.000000"/><polygon points="555.719238,178.851761 530.873413,164.287643 530.877869,163.606842 531.469727,163.270340 556.471130,177.925674 556.311096,178.515274 " style="fill:rgb(0,0,0);fill-opacity:1.000000"/><polygon points="556.973389,175.486282 534.130798,162.096436 534.428955,161.587769 534.727112,161.079117 557.569702,174.468979 557.271545,174.977631 " style="fill:rgb(0,0,0);fill-opacity:1.000000"/><polygon points="530.873413,164.287643 505.837738,178.522324 505.250397,178.178040 505.094513,177.588440 530.290527,163.262527 530.877869,163.606842 " style="fill:rgb(0,0,0);fill-opacity:1.000000"/><polygon points="509.364075,180.247711 509.196381,205.642380 508.606781,205.638474 508.017181,205.634583 508.184875,180.239914 508.774475,180.243820 " style="fill:rgb(0,0,0);fill-opacity:1.000000"/><polygon points="505.837738,178.522324 505.647583,207.321030 505.055725,207.657532 504.463867,207.994034 504.656891,178.767654 505.250397,178.178040 " style="fill:rgb(0,0,0);fill-opacity:1.000000"/><polygon points="505.647583,207.321030 530.492859,221.885269 530.488403,222.566071 529.896545,222.902573 504.463867,207.994019 505.055725,207.657532 " style="fill:rgb(0,0,0);fill-opacity:1.000000"/><polygon points="530.223938,217.968704 552.300659,205.416489 552.592102,205.929047 552.883545,206.441605 530.806824,218.993805 530.515381,218.481247 " style="fill:rgb(0,0,0);fill-opacity:1.000000"/><polygon points="530.492859,221.885269 555.528809,207.650528 556.116150,207.994843 556.703491,208.339157 531.075745,222.910385 530.488403,222.566071 " style="fill:rgb(0,0,0);fill-opacity:1.000000"/><polygon points="530.290527,163.262543 530.427856,142.483505 531.017456,142.487396 531.607056,142.491287 531.469727,163.270340 530.877869,163.606842 " style="fill:rgb(0,0,0);fill-opacity:1.000000"/><polygon points="504.656891,178.767654 486.049286,178.767654 486.049286,178.178040 486.049286,177.588440 505.094513,177.588440 505.250397,178.178040 " style="fill:rgb(0,0,0);fill-opacity:1.000000"/><text xml:space="preserve" x="466.670074" y="184.737915" textLength="18.200001" lengthAdjust="spacingAndGlyphs"><tspan font-family="Times New Roman" font-weight="normal" baseline-shift="0" font-size="18" fill="#000000">Br</tspan></text><polygon points="556.471130,177.925674 575.512146,177.925674 575.512146,178.515274 575.512146,179.104874 556.896851,179.104874 556.311096,178.515274 " style="fill:rgb(0,0,0);fill-opacity:1.000000"/><text xml:space="preserve" x="576.691345" y="185.075150" textLength="18.200001" lengthAdjust="spacingAndGlyphs"><tspan font-family="Times New Roman" font-weight="normal" baseline-shift="0" font-size="18" fill="#000000">Br</tspan></text><polygon points="531.075745,222.910385 530.938416,243.689438 530.348816,243.685532 529.759216,243.681656 529.896545,222.902573 530.488403,222.566071 " style="fill:rgb(0,0,0);fill-opacity:1.000000"/><text xml:space="preserve" x="521.193481" y="258.605774" textLength="18.200001" lengthAdjust="spacingAndGlyphs"><tspan font-family="Times New Roman" font-weight="normal" baseline-shift="0" font-size="18" fill="#000000">Br</tspan></text><text xml:space="preserve" x="708.764160" y="199.646393" textLength="40.443333" lengthAdjust="spacingAndGlyphs"><tspan font-family="Times New Roman" font-weight="normal" baseline-shift="0" font-size="18" fill="#000000">3</tspan><tspan font-family="Times New Roman" font-weight="normal" baseline-shift="0" font-size="18" fill="#000000">H</tspan><tspan font-family="Times New Roman" font-weight="normal" baseline-shift="0" font-size="18" fill="#000000">B</tspan><tspan font-family="Times New Roman" font-weight="normal" baseline-shift="0" font-size="18" fill="#000000">r</tspan></text><text xml:space="preserve" x="657.314148" y="200.549850" textLength="10.263333" lengthAdjust="spacingAndGlyphs"><tspan font-family="Times New Roman" font-weight="normal" baseline-shift="0" font-size="18" fill="#000000">+</tspan></text><text xml:space="preserve" x="215.420746" y="138.791824" textLength="26.286667" lengthAdjust="spacingAndGlyphs"><tspan font-family="Times New Roman" font-weight="normal" baseline-shift="0" font-size="18" fill="#000000">O</tspan><tspan font-family="Times New Roman" font-weight="normal" baseline-shift="0" font-size="18" fill="#000000">H</tspan></text><polygon points="195.315292,206.070221 195.547134,175.910019 196.134109,176.254944 196.721069,176.599869 196.499680,205.398499 195.907486,205.734360 " style="fill:rgb(0,0,0);fill-opacity:1.000000"/><polygon points="195.547134,175.910019 221.190323,161.366653 221.777420,161.711502 221.772186,162.392303 196.721069,176.599884 196.134109,176.254944 " style="fill:rgb(0,0,0);fill-opacity:1.000000"/><polygon points="199.365082,177.811676 221.455139,165.283432 221.746002,165.796295 222.036865,166.309158 199.946808,178.837402 199.655945,178.324539 " style="fill:rgb(0,0,0);fill-opacity:1.000000"/><polygon points="222.369492,161.375549 247.786346,176.311752 247.194122,176.647614 246.601913,176.983475 221.772186,162.392303 221.777420,161.711502 " style="fill:rgb(0,0,0);fill-opacity:1.000000"/><polygon points="247.786331,176.311737 247.554367,206.471924 246.967407,206.126999 246.380447,205.782074 246.601913,176.983475 247.194122,176.647614 " style="fill:rgb(0,0,0);fill-opacity:1.000000"/><polygon points="244.230469,178.667343 244.035156,204.061935 243.445572,204.057404 242.855988,204.052872 243.051300,178.658279 243.640884,178.662811 " style="fill:rgb(0,0,0);fill-opacity:1.000000"/><polygon points="247.554367,206.471939 221.318954,221.351273 221.324188,220.670471 221.329422,219.989670 246.380447,205.782059 246.967407,206.126999 " style="fill:rgb(0,0,0);fill-opacity:1.000000"/><polygon points="221.190323,161.366653 221.341858,140.587997 221.931442,140.592300 222.521027,140.596603 222.369492,161.375549 221.777420,161.711502 " style="fill:rgb(0,0,0);fill-opacity:1.000000"/><polygon points="221.318954,221.351273 195.315292,206.070236 195.907486,205.734360 196.499680,205.398483 221.329422,219.989670 221.324188,220.670471 " style="fill:rgb(0,0,0);fill-opacity:1.000000"/><polygon points="221.056870,217.094009 199.162003,204.227493 199.460724,203.719162 199.759445,203.210831 221.654312,216.077347 221.355591,216.585678 " style="fill:rgb(0,0,0);fill-opacity:1.000000"/><text xml:space="preserve" x="288.800049" y="200.549835" textLength="10.263333" lengthAdjust="spacingAndGlyphs"><tspan font-family="Times New Roman" font-weight="normal" baseline-shift="0" font-size="18" fill="#000000">+</tspan></text><text xml:space="preserve" x="323.463379" y="199.346741" textLength="23.660000" lengthAdjust="spacingAndGlyphs"><tspan font-family="Times New Roman" font-weight="normal" baseline-shift="0" font-size="18" fill="#000000">B</tspan><tspan font-family="Times New Roman" font-weight="normal" baseline-shift="0" font-size="18" fill="#000000">r</tspan><tspan font-family="Times New Roman" font-weight="normal" baseline-shift="-3" font-size="11" fill="#000000">2</tspan></text><text xml:space="preserve" x="618.891357" y="195.795456" textLength="9.100000" lengthAdjust="spacingAndGlyphs"><tspan font-family="Times New Roman" font-weight="normal" baseline-shift="0" font-size="18" fill="#000000">↓</tspan></text><line x1="374.89136" y1="190.41074" x2="440.45859" y2="190.41074" style="stroke:rgb(0,0,0);stroke-width:1.179213;stroke-opacity:1.000000" stroke-linecap="butt"/><polygon points="450.481903,190.410736 438.689789,187.462708 440.458588,190.410736 438.689789,193.358765 " style="fill:rgb(0,0,0);fill-opacity:1.000000"/></svg>