<?xml version="1.0" standalone='no'?><!-- IBoard SVG File --><svg xmlns="http://www.w3.org/2000/svg" xmlns:xlink="http://www.w3.org/1999/xlink" viewBox="58.30 103.69 527.31 142.28" height="135.28" width="534.31" version="1.1"><!-- SVG File --><polygon points="63.380066,154.749512 88.910629,140.009430 89.500366,140.349762 89.500366,141.030579 64.559265,155.430328 63.969666,155.089920 " style="fill:rgb(0,0,0);fill-opacity:1.000000"/><polygon points="90.089828,140.009277 115.620667,154.749512 115.031067,155.089920 114.441467,155.430328 89.500366,141.030579 89.500366,140.349762 " style="fill:rgb(0,0,0);fill-opacity:1.000000"/><polygon points="89.795166,143.924057 111.788239,156.621765 111.493439,157.132385 111.198639,157.642990 89.205566,144.945282 89.500366,144.434677 " style="fill:rgb(0,0,0);fill-opacity:1.000000"/><polygon points="115.620667,154.749512 115.620667,184.910645 115.031067,184.570221 114.441467,184.229828 114.441467,155.430328 115.031067,155.089920 " style="fill:rgb(0,0,0);fill-opacity:1.000000"/><polygon points="115.620667,184.910645 89.500366,199.991211 89.500366,199.310394 89.500366,198.629578 114.441467,184.229828 115.031067,184.570221 " style="fill:rgb(0,0,0);fill-opacity:1.000000"/><polygon points="111.788239,183.038391 89.795166,195.736084 89.500366,195.225494 89.205566,194.714874 111.198639,182.017181 111.493439,182.527771 " style="fill:rgb(0,0,0);fill-opacity:1.000000"/><polygon points="89.500366,199.991211 63.380066,184.910645 63.969666,184.570221 64.559265,184.229828 89.500366,198.629578 89.500366,199.310394 " style="fill:rgb(0,0,0);fill-opacity:1.000000"/><polygon points="63.380066,184.910645 63.380066,154.749512 63.969666,155.089920 64.559265,155.430328 64.559265,184.229828 63.969666,184.570221 " style="fill:rgb(0,0,0);fill-opacity:1.000000"/><polygon points="66.917709,182.527771 66.917709,157.132385 67.507309,157.132385 68.096909,157.132385 68.096909,182.527771 67.507309,182.527771 " style="fill:rgb(0,0,0);fill-opacity:1.000000"/><polygon points="88.910629,140.009430 88.902420,119.230057 89.492020,119.229813 90.081619,119.229584 90.089828,140.009277 89.500366,140.349762 " style="fill:rgb(0,0,0);fill-opacity:1.000000"/><text xml:space="preserve" x="82.917053" y="117.429337" textLength="26.286667" lengthAdjust="spacingAndGlyphs"><tspan font-family="Times New Roman" font-weight="normal" baseline-shift="0" font-size="18" fill="#000000">O</tspan><tspan font-family="Times New Roman" font-weight="normal" baseline-shift="0" font-size="18" fill="#000000">H</tspan></text><text xml:space="preserve" x="142.167236" y="161.797318" textLength="10.263333" lengthAdjust="spacingAndGlyphs"><tspan font-family="Times New Roman" font-weight="normal" baseline-shift="0" font-size="18" fill="#000000">+</tspan></text><text xml:space="preserve" x="392.583923" y="117.429337" textLength="26.286667" lengthAdjust="spacingAndGlyphs"><tspan font-family="Times New Roman" font-weight="normal" baseline-shift="0" font-size="18" fill="#000000">O</tspan><tspan font-family="Times New Roman" font-weight="normal" baseline-shift="0" font-size="18" fill="#000000">H</tspan></text><polygon points="373.636383,154.409195 398.577515,140.009415 399.167236,140.349762 399.167236,141.030579 374.226135,155.430328 373.636536,155.089920 " style="fill:rgb(0,0,0);fill-opacity:1.000000"/><polygon points="399.756714,140.009293 424.697784,154.409012 424.697937,155.089920 424.108337,155.430328 399.167236,141.030579 399.167236,140.349762 " style="fill:rgb(0,0,0);fill-opacity:1.000000"/><polygon points="399.462036,143.924057 421.455109,156.621765 421.160309,157.132370 420.865509,157.642990 398.872437,144.945297 399.167236,144.434677 " style="fill:rgb(0,0,0);fill-opacity:1.000000"/><polygon points="425.287537,155.430191 425.287537,184.910645 424.697937,184.570236 424.108337,184.229828 424.108337,155.430328 424.697937,155.089920 " style="fill:rgb(0,0,0);fill-opacity:1.000000"/><polygon points="425.287537,184.910645 399.756958,199.650726 399.167236,199.310394 399.167236,198.629578 424.108337,184.229828 424.697937,184.570236 " style="fill:rgb(0,0,0);fill-opacity:1.000000"/><polygon points="421.455078,183.038391 399.462036,195.736084 399.167236,195.225479 398.872437,194.714859 420.865479,182.017166 421.160278,182.527771 " style="fill:rgb(0,0,0);fill-opacity:1.000000"/><polygon points="398.577759,199.650879 373.046936,184.910645 373.636536,184.570236 374.226135,184.229828 399.167236,198.629578 399.167236,199.310394 " style="fill:rgb(0,0,0);fill-opacity:1.000000"/><polygon points="373.046936,184.910645 373.046936,155.430466 373.636536,155.089920 374.226135,155.430328 374.226135,184.229828 373.636536,184.570236 " style="fill:rgb(0,0,0);fill-opacity:1.000000"/><polygon points="376.584564,182.527786 376.584564,157.132370 377.174164,157.132370 377.763763,157.132370 377.763763,182.527786 377.174164,182.527786 " style="fill:rgb(0,0,0);fill-opacity:1.000000"/><polygon points="398.577515,140.009445 398.569275,119.230049 399.158875,119.229813 399.748474,119.229576 399.756714,140.009262 399.167236,140.349762 " style="fill:rgb(0,0,0);fill-opacity:1.000000"/><polygon points="424.697784,154.409012 439.648590,145.769318 439.943604,146.279816 440.238586,146.790314 425.287537,155.430191 424.697937,155.089920 " style="fill:rgb(0,0,0);fill-opacity:1.000000"/><text xml:space="preserve" x="441.122803" y="146.899582" textLength="18.200001" lengthAdjust="spacingAndGlyphs"><tspan font-family="Times New Roman" font-weight="normal" baseline-shift="0" font-size="18" fill="#000000">Br</tspan></text><polygon points="373.046936,155.430466 358.084625,146.799866 358.379211,146.289139 358.673798,145.778412 373.636383,154.409195 373.636536,155.089920 " style="fill:rgb(0,0,0);fill-opacity:1.000000"/><text xml:space="preserve" x="339.000000" y="146.919724" textLength="18.200001" lengthAdjust="spacingAndGlyphs"><tspan font-family="Times New Roman" font-weight="normal" baseline-shift="0" font-size="18" fill="#000000">Br</tspan></text><polygon points="399.756958,199.650726 399.765167,220.430115 399.175568,220.430344 398.585968,220.430588 398.577759,199.650879 399.167236,199.310394 " style="fill:rgb(0,0,0);fill-opacity:1.000000"/><text xml:space="preserve" x="390.078857" y="235.350586" textLength="18.200001" lengthAdjust="spacingAndGlyphs"><tspan font-family="Times New Roman" font-weight="normal" baseline-shift="0" font-size="18" fill="#000000">Br</tspan></text><text xml:space="preserve" x="484.167236" y="160.121994" textLength="9.100000" lengthAdjust="spacingAndGlyphs"><tspan font-family="Times New Roman" font-weight="normal" baseline-shift="0" font-size="18" fill="#000000">↓</tspan></text><text xml:space="preserve" x="519.167236" y="160.959656" textLength="10.263333" lengthAdjust="spacingAndGlyphs"><tspan font-family="Times New Roman" font-weight="normal" baseline-shift="0" font-size="18" fill="#000000">+</tspan></text><text xml:space="preserve" x="542.167236" y="160.959671" textLength="40.443333" lengthAdjust="spacingAndGlyphs"><tspan font-family="Times New Roman" font-weight="normal" baseline-shift="0" font-size="18" fill="#000000">3HBr</tspan></text><line x1="234.16724" y1="153.49634" x2="299.73447" y2="153.49634" style="stroke:rgb(0,0,0);stroke-width:1.179213;stroke-opacity:1.000000" stroke-linecap="butt"/><polygon points="309.757782,153.496338 297.965668,150.548309 299.734467,153.496338 297.965668,156.444366 " style="fill:rgb(0,0,0);fill-opacity:1.000000"/><text xml:space="preserve" x="176.167236" y="158.297333" textLength="32.759998" lengthAdjust="spacingAndGlyphs"><tspan font-family="Times New Roman" font-weight="normal" baseline-shift="0" font-size="18" fill="#000000">3Br</tspan><tspan font-family="Times New Roman" font-weight="normal" baseline-shift="-3" font-size="11" fill="#000000">2</tspan></text></svg>