<?xml version="1.0" standalone='no'?><!-- IBoard SVG File --><svg xmlns="http://www.w3.org/2000/svg" xmlns:xlink="http://www.w3.org/1999/xlink" viewBox="165.93 158.84 416.15 81.82" height="74.82" width="423.15" version="1.1"><!-- SVG File --><text xml:space="preserve" x="552.798096" y="172.577850" textLength="26.286667" lengthAdjust="spacingAndGlyphs"><tspan font-family="Times New Roman" font-weight="normal" baseline-shift="0" font-size="18" fill="#000000">O</tspan><tspan font-family="Times New Roman" font-weight="normal" baseline-shift="0" font-size="18" fill="#000000">H</tspan></text><polygon points="482.193848,180.427811 508.314148,165.347244 508.314148,166.028061 508.314148,166.708878 483.373047,181.108658 482.783447,180.768234 " style="fill:rgb(0,0,0);fill-opacity:1.000000"/><polygon points="534.434448,181.108475 534.434448,210.588974 533.844849,210.248550 533.255249,209.908127 533.255249,181.108658 533.844849,180.768234 " style="fill:rgb(0,0,0);fill-opacity:1.000000"/><polygon points="508.314148,225.669525 482.193848,210.588974 482.783447,210.248550 483.373047,209.908127 508.314148,224.307892 508.314148,224.988708 " style="fill:rgb(0,0,0);fill-opacity:1.000000"/><polygon points="533.844727,180.087341 551.323914,169.986526 551.618896,170.497025 551.913879,171.007523 534.434448,181.108475 533.844849,180.768234 " style="fill:rgb(0,0,0);fill-opacity:1.000000"/><polygon points="508.314148,165.347244 533.844727,180.087341 533.844849,180.768234 533.255249,181.108658 508.314148,166.708878 508.314148,166.028061 " style="fill:rgb(0,0,0);fill-opacity:1.000000"/><polygon points="534.434448,210.588974 508.314148,225.669525 508.314148,224.988708 508.314148,224.307892 533.255249,209.908127 533.844849,210.248550 " style="fill:rgb(0,0,0);fill-opacity:1.000000"/><polygon points="482.193848,210.588974 482.193848,180.427811 482.783447,180.768234 483.373047,181.108658 483.373047,209.908127 482.783447,210.248550 " style="fill:rgb(0,0,0);fill-opacity:1.000000"/><text xml:space="preserve" x="241.617447" y="172.577805" textLength="26.286667" lengthAdjust="spacingAndGlyphs"><tspan font-family="Times New Roman" font-weight="normal" baseline-shift="0" font-size="18" fill="#000000">O</tspan><tspan font-family="Times New Roman" font-weight="normal" baseline-shift="0" font-size="18" fill="#000000">H</tspan></text><polygon points="171.013214,180.427750 197.133514,165.347198 197.133514,166.028015 197.133514,166.708832 172.192413,181.108597 171.602814,180.768173 " style="fill:rgb(0,0,0);fill-opacity:1.000000"/><polygon points="197.133514,165.347198 222.664093,180.087280 222.664215,180.768173 222.074615,181.108597 197.133514,166.708832 197.133514,166.028015 " style="fill:rgb(0,0,0);fill-opacity:1.000000"/><polygon points="197.428314,169.602310 219.421371,182.300018 219.126572,182.810638 218.831772,183.321259 196.838715,170.623550 197.133514,170.112930 " style="fill:rgb(0,0,0);fill-opacity:1.000000"/><polygon points="223.253815,181.108429 223.253815,210.589005 222.664215,210.248581 222.074615,209.908157 222.074615,181.108597 222.664215,180.768173 " style="fill:rgb(0,0,0);fill-opacity:1.000000"/><polygon points="223.253815,210.589005 197.133514,225.669556 197.133514,224.988739 197.133514,224.307922 222.074615,209.908157 222.664215,210.248581 " style="fill:rgb(0,0,0);fill-opacity:1.000000"/><polygon points="219.421371,208.716736 197.428314,221.414444 197.133514,220.903824 196.838715,220.393204 218.831772,207.695496 219.126572,208.206116 " style="fill:rgb(0,0,0);fill-opacity:1.000000"/><polygon points="197.133514,225.669556 171.013214,210.589005 171.602814,210.248581 172.192413,209.908157 197.133514,224.307922 197.133514,224.988739 " style="fill:rgb(0,0,0);fill-opacity:1.000000"/><polygon points="222.664093,180.087280 240.143234,169.986481 240.438232,170.496979 240.733231,171.007477 223.253815,181.108429 222.664215,180.768173 " style="fill:rgb(0,0,0);fill-opacity:1.000000"/><polygon points="171.013214,210.589005 171.013214,180.427750 171.602814,180.768173 172.192413,181.108597 172.192413,209.908157 171.602814,210.248581 " style="fill:rgb(0,0,0);fill-opacity:1.000000"/><polygon points="174.550858,208.206116 174.550858,182.810638 175.140457,182.810638 175.730057,182.810638 175.730057,208.206116 175.140457,208.206116 " style="fill:rgb(0,0,0);fill-opacity:1.000000"/><text xml:space="preserve" x="294.800049" y="200.549835" textLength="10.263333" lengthAdjust="spacingAndGlyphs"><tspan font-family="Times New Roman" font-weight="normal" baseline-shift="0" font-size="18" fill="#000000">+</tspan></text><text xml:space="preserve" x="323.983398" y="199.104309" textLength="27.703333" lengthAdjust="spacingAndGlyphs"><tspan font-family="Times New Roman" font-weight="normal" baseline-shift="0" font-size="18" fill="#000000">2H</tspan><tspan font-family="Times New Roman" font-weight="normal" baseline-shift="-3" font-size="11" fill="#000000">2</tspan></text><line x1="372.89136" y1="193.20772" x2="438.45862" y2="193.20772" style="stroke:rgb(0,0,0);stroke-width:1.179213;stroke-opacity:1.000000" stroke-linecap="butt"/><polygon points="448.481934,193.207718 436.689819,190.259689 438.458618,193.207718 436.689819,196.155746 " style="fill:rgb(0,0,0);fill-opacity:1.000000"/><text xml:space="preserve" x="391.186646" y="181.729553" textLength="39.000000" lengthAdjust="spacingAndGlyphs"><tspan font-family="Times New Roman" font-weight="normal" baseline-shift="0" font-size="13" fill="#000000">催化剂</tspan></text><text xml:space="preserve" x="405.224976" y="216.803680" textLength="10.923333" lengthAdjust="spacingAndGlyphs"><tspan font-family="Times New Roman" font-weight="normal" baseline-shift="0" font-size="18" fill="#000000">△</tspan></text></svg>