<?xml version="1.0" standalone='no'?><!-- IBoard SVG File --><svg xmlns="http://www.w3.org/2000/svg" xmlns:xlink="http://www.w3.org/1999/xlink" viewBox="178.92 -32.95 342.73 74.25" height="67.25" width="349.73" version="1.1"><!-- SVG File --><polygon points="183.998230,-14.396341 207.500000,-27.965126 207.500000,-27.284309 207.500000,-26.603493 185.177429,-13.715521 184.587830,-14.055931 " style="fill:rgb(0,0,0);fill-opacity:1.000000"/><polygon points="207.500000,-27.965126 230.412033,-14.736826 230.412170,-14.055931 229.822571,-13.715521 207.500000,-26.603493 207.500000,-27.284309 " style="fill:rgb(0,0,0);fill-opacity:1.000000"/><polygon points="207.794800,-24.128977 227.532166,-12.733574 227.237366,-12.222960 226.942566,-11.712347 207.205200,-23.107748 207.500000,-23.618362 " style="fill:rgb(0,0,0);fill-opacity:1.000000"/><polygon points="231.001770,-13.715676 231.001770,12.741146 230.412170,12.400734 229.822571,12.060322 229.822571,-13.715521 230.412170,-14.055931 " style="fill:rgb(0,0,0);fill-opacity:1.000000"/><polygon points="231.001770,12.741146 207.499969,26.309898 207.500000,25.629066 207.499969,24.948265 229.822571,12.060322 230.412170,12.400734 " style="fill:rgb(0,0,0);fill-opacity:1.000000"/><polygon points="227.532166,11.078373 207.794800,22.473734 207.500000,21.963120 207.205200,21.452505 226.942566,10.057144 227.237366,10.567759 " style="fill:rgb(0,0,0);fill-opacity:1.000000"/><polygon points="207.500000,26.309914 183.998230,12.741127 184.587830,12.400734 185.177429,12.060280 207.500000,24.948280 207.500000,25.629066 " style="fill:rgb(0,0,0);fill-opacity:1.000000"/><polygon points="183.998230,12.741127 183.998230,-14.396385 184.587830,-14.055931 185.177429,-13.715538 185.177429,12.060280 184.587830,12.400734 " style="fill:rgb(0,0,0);fill-opacity:1.000000"/><polygon points="187.173035,10.567726 187.173035,-12.222984 187.762634,-12.222984 188.352234,-12.222984 188.352234,10.567726 187.762634,10.567726 " style="fill:rgb(0,0,0);fill-opacity:1.000000"/><polygon points="230.412033,-14.736825 247.151581,-24.410215 247.446594,-23.899717 247.741608,-23.389219 231.001770,-13.715676 230.412170,-14.055931 " style="fill:rgb(0,0,0);fill-opacity:1.000000"/><text xml:space="preserve" x="248.625793" y="-22.179115" textLength="18.773333" lengthAdjust="spacingAndGlyphs"><tspan font-family="Times New Roman" font-weight="normal" baseline-shift="0" font-size="13" fill="#000000">O</tspan><tspan font-family="Times New Roman" font-weight="normal" baseline-shift="0" font-size="13" fill="#000000">H</tspan></text><polygon points="458.750122,-27.965130 481.662201,-14.736867 481.662354,-14.055965 481.072754,-13.715553 458.750122,-26.603497 458.750122,-27.284313 " style="fill:rgb(0,0,0);fill-opacity:1.000000"/><polygon points="482.251953,-13.715703 482.251953,12.741158 481.662354,12.400745 481.072754,12.060333 481.072754,-13.715553 481.662354,-14.055965 " style="fill:rgb(0,0,0);fill-opacity:1.000000"/><polygon points="482.251953,12.741158 458.750092,26.309895 458.750092,25.629078 458.750092,24.948261 481.072754,12.060333 481.662354,12.400745 " style="fill:rgb(0,0,0);fill-opacity:1.000000"/><polygon points="458.750092,26.309895 435.248322,12.741095 435.837921,12.400684 436.427521,12.060274 458.750092,24.948261 458.750092,25.629078 " style="fill:rgb(0,0,0);fill-opacity:1.000000"/><polygon points="435.248322,12.741095 435.248352,-14.396378 435.837952,-14.055965 436.427551,-13.715553 436.427521,12.060274 435.837921,12.400684 " style="fill:rgb(0,0,0);fill-opacity:1.000000"/><polygon points="435.248352,-14.396377 458.750122,-27.965130 458.750122,-27.284313 458.750122,-26.603497 436.427551,-13.715554 435.837952,-14.055965 " style="fill:rgb(0,0,0);fill-opacity:1.000000"/><polygon points="481.662201,-14.736863 498.401733,-24.410275 498.696747,-23.899776 498.991760,-23.389278 482.251953,-13.715703 481.662354,-14.055965 " style="fill:rgb(0,0,0);fill-opacity:1.000000"/><text xml:space="preserve" x="499.875946" y="-22.179188" textLength="18.773333" lengthAdjust="spacingAndGlyphs"><tspan font-family="Times New Roman" font-weight="normal" baseline-shift="0" font-size="13" fill="#000000">O</tspan><tspan font-family="Times New Roman" font-weight="normal" baseline-shift="0" font-size="13" fill="#000000">H</tspan></text><text xml:space="preserve" x="296.750122" y="2.311698" textLength="23.036667" lengthAdjust="spacingAndGlyphs"><tspan font-family="Times New Roman" font-weight="normal" baseline-shift="0" font-size="13" fill="#000000">3 H</tspan><tspan font-family="Times New Roman" font-weight="normal" baseline-shift="-2" font-size="8" fill="#000000">2</tspan></text><text xml:space="preserve" x="273.920135" y="3.647388" textLength="7.330000" lengthAdjust="spacingAndGlyphs"><tspan font-family="Times New Roman" font-weight="normal" baseline-shift="0" font-size="13" fill="#000000">+</tspan></text><line x1="330.50012" y1="-0.36032867" x2="396.06738" y2="-0.36032867" style="stroke:rgb(0,0,0);stroke-width:1.179213;stroke-opacity:1.000000" stroke-linecap="butt"/><polygon points="406.090698,-0.360329 394.298584,-3.308357 396.067383,-0.360329 394.298584,2.587700 " style="fill:rgb(0,0,0);fill-opacity:1.000000"/><text xml:space="preserve" x="348.795410" y="-9.039688" textLength="39.000000" lengthAdjust="spacingAndGlyphs"><tspan font-family="Times New Roman" font-weight="normal" baseline-shift="0" font-size="13" fill="#000000">催</tspan><tspan font-family="Times New Roman" font-weight="normal" baseline-shift="0" font-size="13" fill="#000000">化</tspan><tspan font-family="Times New Roman" font-weight="normal" baseline-shift="0" font-size="13" fill="#000000">剂</tspan></text><text xml:space="preserve" x="366.060394" y="17.258953" textLength="7.800000" lengthAdjust="spacingAndGlyphs"><tspan font-family="Times New Roman" font-weight="normal" baseline-shift="0" font-size="13" fill="#000000">△</tspan></text></svg>