<svg width="1478" height="311" xmlns="http://www.w3.org/2000/svg" xmlns:xlink="http://www.w3.org/1999/xlink" xml:space="preserve" overflow="hidden"><defs><clipPath id="clip0"><rect x="1460" y="1145" width="1480" height="185"/></clipPath><clipPath id="clip1"><rect x="1460" y="1145" width="1480" height="185"/></clipPath><clipPath id="clip2"><rect x="1460" y="1145" width="1480" height="185"/></clipPath></defs><g transform="translate(-1461 -1118)"><g clip-path="url(#clip0)"><g clip-path="url(#clip1)"><g clip-path="url(#clip2)"><text font-family="Times New Roman,Times New Roman_MSFontService,sans-serif" font-weight="400" font-size="18" transform="matrix(3.03135 0 0 3.02139 1704.8 1276)">C</text><path d="M2206.37 1087.05 2250.12 1087.05 2250.12 1088.83 2250.12 1090.61 2206.37 1090.61 2206.37 1088.83Z" transform="matrix(1.00329 0 0 1 -468.464 166.945)"/><text font-family="Times New Roman,Times New Roman_MSFontService,sans-serif" font-weight="400" font-size="18" transform="matrix(3.03135 0 0 3.02139 1792.64 1276)">H</text><path d="M2162.57 1090.61 2117.3 1090.61 2117.3 1088.83 2117.3 1087.05 2162.57 1087.05 2162.57 1088.83Z" transform="matrix(1.00329 0 0 1 -468.464 166.945)"/><text font-family="Times New Roman,Times New Roman_MSFontService,sans-serif" font-weight="400" font-size="18" transform="matrix(3.03135 0 0 3.02139 1559.04 1274)">H</text><text font-family="Times New Roman,Times New Roman_MSFontService,sans-serif" font-weight="400" font-size="11" transform="matrix(3.03135 0 0 3.02139 1598.45 1274)">3</text><text font-family="Times New Roman,Times New Roman_MSFontService,sans-serif" font-weight="400" font-size="18" transform="matrix(3.03135 0 0 3.02139 1616.64 1274)">C</text><path d="M2177.33 1063.57 2177.32 1025.02 2179.1 1025.02 2180.88 1025.02 2180.9 1063.57 2179.11 1063.57Z" transform="matrix(1.00329 0 0 1 -468.464 166.945)"/><path d="M2188.02 1063.56 2188.01 1025.01 2189.79 1025.01 2191.57 1025.01 2191.58 1063.56 2189.8 1063.56Z" transform="matrix(1.00329 0 0 1 -468.464 166.945)"/><text font-family="Times New Roman,Times New Roman_MSFontService,sans-serif" font-weight="400" font-size="18" transform="matrix(3.03135 0 0 3.02139 1703.24 1187)">O</text><text font-family="Times New Roman,Times New Roman_MSFontService,sans-serif" font-weight="400" font-size="18" transform="matrix(3.03135 0 0 3.02139 2031.48 1259)">H</text><text font-family="Times New Roman,Times New Roman_MSFontService,sans-serif" font-weight="400" font-size="11" transform="matrix(3.03135 0 0 3.02139 2070.89 1259)">2</text><text font-family="Times New Roman,Times New Roman_MSFontService,sans-serif" font-weight="400" font-size="18" transform="matrix(3.03135 0 0 3.02139 1914.17 1266)">+</text><text font-family="Times New Roman,Times New Roman_MSFontService,sans-serif" font-weight="400" font-size="18" transform="matrix(3.03135 0 0 3.02139 2518.56 1259)">H</text><text font-family="Times New Roman,Times New Roman_MSFontService,sans-serif" font-weight="400" font-size="11" transform="matrix(3.03135 0 0 3.02139 2557.96 1259)">3</text><text font-family="Times New Roman,Times New Roman_MSFontService,sans-serif" font-weight="400" font-size="18" transform="matrix(3.03135 0 0 3.02139 2576.15 1259)">C</text><path d="M3073.66 1071.31 3118.92 1071.31 3118.92 1073.09 3118.92 1074.87 3073.66 1074.87 3073.66 1073.09Z" transform="matrix(1.00329 0 0 1 -468.464 166.945)"/><text font-family="Times New Roman,Times New Roman_MSFontService,sans-serif" font-weight="400" font-size="18" transform="matrix(3.03135 0 0 3.02139 2664.31 1201)">H</text><text font-family="Times New Roman,Times New Roman_MSFontService,sans-serif" font-weight="400" font-size="11" transform="matrix(3.03135 0 0 3.02139 2703.72 1201)">2</text><text font-family="Times New Roman,Times New Roman_MSFontService,sans-serif" font-weight="400" font-size="18" transform="matrix(3.03135 0 0 3.02139 2664.31 1260)">C</text><path d="M3162.73 1071.31 3206.48 1071.31 3206.48 1073.09 3206.48 1074.87 3162.73 1074.87 3162.73 1073.09Z" transform="matrix(1.00329 0 0 1 -468.464 166.945)"/><text font-family="Times New Roman,Times New Roman_MSFontService,sans-serif" font-weight="400" font-size="18" transform="matrix(3.03135 0 0 3.02139 2752.16 1260)">O</text><text font-family="Times New Roman,Times New Roman_MSFontService,sans-serif" font-weight="400" font-size="18" transform="matrix(3.03135 0 0 3.02139 2791.57 1260)">H</text><text font-family="Times New Roman,Times New Roman_MSFontService,sans-serif" font-weight="400" font-size="18" transform="matrix(3.03135 0 0 3.02139 2264.89 1210)">Ni</text><text font-family="SimSun,SimSun_MSFontService,sans-serif" font-weight="400" font-size="13" transform="matrix(3.03135 0 0 3.02139 2193.95 1291)">加热</text><text font-family="SimSun,SimSun_MSFontService,sans-serif" font-weight="400" font-size="13" transform="matrix(3.03135 0 0 3.02139 2272.77 1291)">、</text><text font-family="SimSun,SimSun_MSFontService,sans-serif" font-weight="400" font-size="13" transform="matrix(3.03135 0 0 3.02139 2312.18 1291)">加压</text><path d="M2637.68 1070.53 2835.78 1070.53" stroke="#000000" stroke-width="3.56286" fill="none" transform="matrix(1.00329 0 0 1 -468.464 166.945)"/><path d="M2866.07 1070.53 2830.44 1061.62 2835.78 1070.53 2830.44 1079.44Z" transform="matrix(1.00329 0 0 1 -468.464 166.945)"/></g></g></g><path d="M1722 1282 1722 1343.87" stroke="#7F7F7F" stroke-width="2.29167" stroke-miterlimit="8" stroke-dasharray="18.3333 6.875" fill="none" fill-rule="evenodd"/><text fill="#BFBFBF" font-family="Source Han Serif SC Medium,Source Han Serif SC Medium_MSFontService,sans-serif" font-weight="500" font-size="48" transform="matrix(1 0 0 1 1701.17 1388)">H</text><path d="M1750 1165 1810.16 1165" stroke="#7F7F7F" stroke-width="2.29167" stroke-miterlimit="8" stroke-dasharray="18.3333 6.875" fill="none" fill-rule="evenodd"/><text fill="#BFBFBF" font-family="Source Han Serif SC Medium,Source Han Serif SC Medium_MSFontService,sans-serif" font-weight="500" font-size="48" transform="matrix(1 0 0 1 1821.81 1181)">H</text><path d="M2050.65 1191.09 2041.92 1188.28 2042.63 1186.1 2051.35 1188.91ZM2035.38 1186.17 2031.36 1184.87 2031.38 1184.88 2026.65 1183.46 2027.31 1181.27 2032.05 1182.69 2036.08 1183.99ZM2020.06 1181.49 2011.95 1179.06 2012 1179.07 2011.32 1178.9 2011.89 1176.68 2012.59 1176.86 2020.72 1179.29ZM2004.66 1177.2 1995.78 1174.93 1996.34 1172.71 2005.22 1174.98ZM1989.13 1173.38 1982.34 1171.95 1982.38 1171.96 1980.18 1171.58 1980.58 1169.32 1982.79 1169.71 1989.6 1171.14ZM1973.41 1170.41 1972.26 1170.21 1972.32 1170.22 1964.38 1169.23 1964.66 1166.96 1972.62 1167.95 1973.8 1168.15ZM1957.58 1168.56 1949.92 1167.95 1949.96 1167.95 1948.48 1167.87 1948.6 1165.59 1950.09 1165.66 1957.77 1166.28ZM1941.61 1167.52 1937.89 1167.33 1937.92 1167.33 1932.47 1167.15 1932.55 1164.86 1938 1165.04 1941.73 1165.23ZM1925.62 1166.94 1916.45 1166.75 1916.5 1164.46 1925.66 1164.65ZM1909.58 1166.64 1904.01 1166.56 1900.42 1166.5 1900.45 1164.21 1904.04 1164.26 1909.62 1164.35ZM1893.53 1166.35 1891.21 1166.29 1890.1 1166.24 1890.2 1163.95 1891.3 1164 1891.28 1163.99 1893.6 1164.06ZM1907.33 1178.28 1887.99 1165 1908.4 1153.44C1908.95 1153.13 1909.65 1153.32 1909.96 1153.87 1910.27 1154.42 1910.08 1155.12 1909.53 1155.43L1890.72 1166.09 1890.8 1164.15 1908.62 1176.39C1909.14 1176.74 1909.28 1177.46 1908.92 1177.98 1908.56 1178.5 1907.85 1178.63 1907.33 1178.28Z" fill="#172C51"/><path d="M2041.72 1285.89 2034.57 1291.63 2033.13 1289.84 2040.28 1284.11ZM2029.17 1295.91 2021.94 1301.55 2020.53 1299.74 2027.76 1294.11ZM2016.41 1305.68 2009.29 1310.92 2008.98 1311.13 2007.7 1309.23 2007.99 1309.04 2007.95 1309.06 2015.05 1303.84ZM2003.28 1314.98 1997.57 1318.84 1995.57 1320.04 1994.39 1318.08 1996.36 1316.89 1996.31 1316.92 2002 1313.08ZM1989.69 1323.6 1985.09 1326.38 1981.67 1328.17 1980.6 1326.14 1983.99 1324.36 1983.93 1324.4 1988.5 1321.64ZM1975.59 1331.37 1971.65 1333.44 1967.27 1335.39 1966.34 1333.3 1970.68 1331.37 1970.61 1331.4 1974.52 1329.34ZM1960.99 1338.19 1957.07 1339.94 1952.47 1341.71 1951.64 1339.58 1956.22 1337.81 1956.17 1337.83 1960.06 1336.1ZM1945.98 1344.09 1941.15 1345.77 1937.24 1346.98 1936.56 1344.79 1940.46 1343.58 1940.42 1343.6 1945.23 1341.93ZM1930.62 1348.97 1923.79 1350.86 1921.73 1351.35 1921.2 1349.12 1923.24 1348.64 1923.2 1348.65 1930.01 1346.76ZM1915.04 1352.94 1906.12 1355.05 1905.59 1352.82 1914.51 1350.71ZM1899.33 1356.41 1890.33 1358.16 1889.9 1355.91 1898.89 1354.16ZM1883.54 1359.43 1874.49 1360.9 1874.12 1358.64 1883.17 1357.16ZM1867.71 1362 1864.63 1362.51 1858.61 1363.34 1858.3 1361.07 1864.3 1360.24 1864.27 1360.24 1867.34 1359.74ZM1851.8 1364.29 1843.15 1365.5 1842.71 1365.55 1842.43 1363.28 1842.86 1363.22 1842.84 1363.23 1851.49 1362.02ZM1835.88 1366.39 1826.78 1367.51 1826.5 1365.23 1835.6 1364.12ZM1819.95 1368.33 1810.84 1369.36 1810.58 1367.08 1819.69 1366.06ZM1804.01 1370.12 1798.71 1370.72 1794.89 1371.13 1794.64 1368.85 1798.46 1368.44 1798.46 1368.44 1803.75 1367.85ZM1788.05 1371.86 1778.94 1372.84 1778.69 1370.56 1787.81 1369.58ZM1797.09 1382.24 1775.99 1372 1794.44 1357.52C1794.94 1357.13 1795.66 1357.22 1796.05 1357.72 1796.44 1358.21 1796.36 1358.93 1795.86 1359.33L1778.85 1372.67 1778.64 1370.74 1798.09 1380.18C1798.66 1380.46 1798.9 1381.14 1798.62 1381.71 1798.35 1382.28 1797.66 1382.52 1797.09 1382.24Z" fill="#172C51"/></g></svg>