<svg width="278" height="227" xmlns="http://www.w3.org/2000/svg" xmlns:xlink="http://www.w3.org/1999/xlink" xml:space="preserve" overflow="hidden"><defs><clipPath id="clip0"><rect x="2061" y="1157" width="278" height="161"/></clipPath><clipPath id="clip1"><rect x="2061" y="1157" width="278" height="161"/></clipPath><clipPath id="clip2"><rect x="2061" y="1157" width="278" height="161"/></clipPath></defs><g transform="translate(-2061 -1116)"><g clip-path="url(#clip0)"><g clip-path="url(#clip1)"><g clip-path="url(#clip2)"><text font-family="Times New Roman,Times New Roman_MSFontService,sans-serif" font-weight="400" font-size="18" transform="matrix(2.99607 0 0 2.99034 2175.97 1286)">C</text><path d="M2189.67 1060.3 2232.97 1060.3 2232.97 1062.06 2232.97 1063.82 2189.67 1063.82 2189.67 1062.06Z" transform="matrix(1.00192 0 0 1 22.0058 204.577)"/><text font-family="Times New Roman,Times New Roman_MSFontService,sans-serif" font-weight="400" font-size="18" transform="matrix(2.99607 0 0 2.99034 2262.79 1286)">H</text><path d="M2146.32 1063.82 2079.84 1063.82 2079.84 1062.06 2079.84 1060.3 2146.32 1060.3 2146.32 1062.06Z" transform="matrix(1.00192 0 0 1 22.0058 204.577)"/><path d="M2160.93 1037.06 2160.92 998.906 2162.68 998.905 2164.44 998.904 2164.46 1037.06 2162.7 1037.06Z" transform="matrix(1.00192 0 0 1 22.0058 204.577)"/><path d="M2171.51 1037.06 2171.5 998.902 2173.26 998.901 2175.02 998.9 2175.04 1037.06 2173.28 1037.06Z" transform="matrix(1.00192 0 0 1 22.0058 204.577)"/><text font-family="Times New Roman,Times New Roman_MSFontService,sans-serif" font-weight="400" font-size="18" transform="matrix(2.99607 0 0 2.99034 2174.43 1198)">O</text></g></g></g><text font-family="Cambria Math,Cambria Math_MSFontService,sans-serif" font-weight="400" font-size="28" transform="matrix(1 0 0 1 2193.88 1319)">𝛿</text><text font-family="Cambria Math,Cambria Math_MSFontService,sans-serif" font-weight="400" font-size="20" transform="matrix(1 0 0 1 2210.38 1309)">+</text><text font-family="Cambria Math,Cambria Math_MSFontService,sans-serif" font-weight="400" font-size="28" transform="matrix(1 0 0 1 2202.47 1159)">𝛿</text><text font-family="Cambria Math,Cambria Math_MSFontService,sans-serif" font-weight="400" font-size="20" transform="matrix(1 0 0 1 2218.97 1149)">−</text></g></svg>