<svg width="1390" height="222" xmlns="http://www.w3.org/2000/svg" xmlns:xlink="http://www.w3.org/1999/xlink" xml:space="preserve" overflow="hidden"><defs><clipPath id="clip0"><rect x="1505" y="1111" width="1390" height="222"/></clipPath><clipPath id="clip1"><rect x="1504" y="1145" width="1392" height="185"/></clipPath><clipPath id="clip2"><rect x="1504" y="1145" width="1392" height="185"/></clipPath><clipPath id="clip3"><rect x="1504" y="1145" width="1392" height="185"/></clipPath></defs><g clip-path="url(#clip0)" transform="translate(-1505 -1111)"><g clip-path="url(#clip1)"><g clip-path="url(#clip2)"><g clip-path="url(#clip3)"><text font-family="Times New Roman,Times New Roman_MSFontService,sans-serif" font-weight="400" font-size="18" transform="matrix(2.72047 0 0 2.71261 1718.18 1276)">C</text><path d="M1904.93 975.949 1944.21 975.949 1944.21 977.549 1944.21 979.148 1904.93 979.148 1904.93 977.549Z" transform="matrix(1.0029 0 0 1 -156.037 281.034)"/><text font-family="Times New Roman,Times New Roman_MSFontService,sans-serif" font-weight="400" font-size="18" transform="matrix(2.72047 0 0 2.71261 1797.01 1276)">H</text><path d="M1865.6 979.148 1824.96 979.148 1824.96 977.549 1824.96 975.949 1865.6 975.949 1865.6 977.549Z" transform="matrix(1.0029 0 0 1 -156.037 281.034)"/><text font-family="Times New Roman,Times New Roman_MSFontService,sans-serif" font-weight="400" font-size="18" transform="matrix(2.72047 0 0 2.71261 1587.37 1275)">H</text><text font-family="Times New Roman,Times New Roman_MSFontService,sans-serif" font-weight="400" font-size="11" transform="matrix(2.72047 0 0 2.71261 1622.73 1275)">3</text><text font-family="Times New Roman,Times New Roman_MSFontService,sans-serif" font-weight="400" font-size="18" transform="matrix(2.72047 0 0 2.71261 1639.06 1275)">C</text><path d="M1878.86 954.873 1878.84 920.261 1880.44 920.26 1882.04 920.26 1882.06 954.872 1880.46 954.872Z" transform="matrix(1.0029 0 0 1 -156.037 281.034)"/><path d="M1888.45 954.869 1888.44 920.257 1890.04 920.257 1891.64 920.256 1891.65 954.868 1890.05 954.868Z" transform="matrix(1.0029 0 0 1 -156.037 281.034)"/><text font-family="Times New Roman,Times New Roman_MSFontService,sans-serif" font-weight="400" font-size="18" transform="matrix(2.72047 0 0 2.71261 1716.78 1196)">O</text><text font-family="Times New Roman,Times New Roman_MSFontService,sans-serif" font-weight="400" font-size="18" transform="matrix(2.72047 0 0 2.71261 1998.66 1264)">H</text><path d="M2187.32 963.626 2226.6 963.626 2226.6 965.225 2226.6 966.825 2187.32 966.825 2187.32 965.225Z" transform="matrix(1.0029 0 0 1 -156.037 281.034)"/><text font-family="Times New Roman,Times New Roman_MSFontService,sans-serif" font-weight="400" font-size="18" transform="matrix(2.72047 0 0 2.71261 2080.22 1264)">C</text><text font-family="Times New Roman,Times New Roman_MSFontService,sans-serif" font-weight="400" font-size="18" transform="matrix(2.72047 0 0 2.71261 2112.87 1264)">N</text><text font-family="Times New Roman,Times New Roman_MSFontService,sans-serif" font-weight="400" font-size="18" transform="matrix(2.72047 0 0 2.71261 1889.76 1267)">+</text><text font-family="Times New Roman,Times New Roman_MSFontService,sans-serif" font-weight="400" font-size="18" transform="matrix(2.72047 0 0 2.71261 2524.65 1261)">H</text><text font-family="Times New Roman,Times New Roman_MSFontService,sans-serif" font-weight="400" font-size="11" transform="matrix(2.72047 0 0 2.71261 2560.02 1261)">3</text><text font-family="Times New Roman,Times New Roman_MSFontService,sans-serif" font-weight="400" font-size="18" transform="matrix(2.72047 0 0 2.71261 2576.34 1261)">C</text><path d="M2759.54 961.82 2800.18 961.82 2800.18 963.419 2800.18 965.019 2759.54 965.019 2759.54 963.419Z" transform="matrix(1.0029 0 0 1 -156.037 281.034)"/><text font-family="Times New Roman,Times New Roman_MSFontService,sans-serif" font-weight="400" font-size="18" transform="matrix(2.72047 0 0 2.71261 2655.46 1262)">C</text><text font-family="Times New Roman,Times New Roman_MSFontService,sans-serif" font-weight="400" font-size="18" transform="matrix(2.72047 0 0 2.71261 2655.46 1306)">H</text><path d="M2839.5 961.82 2880.15 961.82 2880.15 963.419 2880.15 965.019 2839.5 965.019 2839.5 963.419Z" transform="matrix(1.0029 0 0 1 -156.037 281.034)"/><text font-family="Times New Roman,Times New Roman_MSFontService,sans-serif" font-weight="400" font-size="18" transform="matrix(2.72047 0 0 2.71261 2735.66 1262)">C</text><text font-family="Times New Roman,Times New Roman_MSFontService,sans-serif" font-weight="400" font-size="18" transform="matrix(2.72047 0 0 2.71261 2768.31 1262)">N</text><path d="M2818.23 940.741 2818.22 906.13 2819.82 906.129 2821.42 906.129 2821.43 940.74 2819.83 940.741Z" transform="matrix(1.0029 0 0 1 -156.037 281.034)"/><text font-family="Times New Roman,Times New Roman_MSFontService,sans-serif" font-weight="400" font-size="18" transform="matrix(2.72047 0 0 2.71261 2654.07 1182)">O</text><text font-family="Times New Roman,Times New Roman_MSFontService,sans-serif" font-weight="400" font-size="18" transform="matrix(2.72047 0 0 2.71261 2689.44 1182)">H</text><text font-family="Times New Roman,Times New Roman_MSFontService,sans-serif" font-weight="400" font-size="18" transform="matrix(2.72047 0 0 2.71261 2297 1217)">Ni</text><text font-family="SimSun,SimSun_MSFontService,sans-serif" font-weight="400" font-size="13" transform="matrix(2.72047 0 0 2.71261 2233.34 1290)">тіауЃГ</text><text font-family="SimSun,SimSun_MSFontService,sans-serif" font-weight="400" font-size="13" transform="matrix(2.72047 0 0 2.71261 2304.07 1290)">сђЂ</text><text font-family="SimSun,SimSun_MSFontService,sans-serif" font-weight="400" font-size="13" transform="matrix(2.72047 0 0 2.71261 2339.44 1290)">тіатјІ</text><path d="M2368.11 961.124 2545.97 961.124" stroke="#000000" stroke-width="3.19874" fill="none" transform="matrix(1.0029 0 0 1 -156.037 281.034)"/><path d="M2573.16 961.124 2541.17 953.128 2545.97 961.124 2541.17 969.121Z" transform="matrix(1.0029 0 0 1 -156.037 281.034)"/></g></g></g><path d="M2108.1 1280.32 2105.5 1289.12 2103.3 1288.47 2105.9 1279.68ZM2103.13 1295.65 2101.87 1299.02 2099.71 1303.5 2099.3 1304.19 2097.33 1303.02 2097.71 1302.37 2097.67 1302.46 2099.79 1298.07 2099.74 1298.17 2100.98 1294.85ZM2095.49 1310.04 2094.11 1311.9 2090.52 1315.75 2089.1 1316.94 2087.62 1315.19 2088.99 1314.04 2088.89 1314.13 2092.39 1310.38 2092.31 1310.48 2093.65 1308.68ZM2083.5 1321.15 2081.39 1322.54 2075.7 1325.41 2075.22 1325.59 2074.41 1323.45 2074.83 1323.29 2074.72 1323.34 2080.29 1320.53 2080.18 1320.59 2082.25 1319.23ZM2068.67 1328.02 2061.75 1329.92 2059.7 1330.3 2059.28 1328.05 2061.28 1327.67 2061.19 1327.69 2068.07 1325.81ZM2052.86 1331.54 2043.85 1332.56 2043.68 1332.57 2043.56 1330.28 2043.69 1330.28 2043.62 1330.28 2052.6 1329.26ZM2036.81 1332.93 2033.23 1333.11 2027.59 1333.11 2027.59 1330.82 2033.2 1330.82 2033.14 1330.82 2036.7 1330.64ZM2020.68 1332.88 2020.15 1332.86 2012.37 1332.37 2011.48 1332.3 2011.67 1330.01 2012.55 1330.09 2012.52 1330.09 2020.28 1330.57 2020.25 1330.57 2020.76 1330.59ZM2004.63 1331.73 2003.84 1331.66 1995.49 1330.83 1995.71 1328.55 2004.06 1329.38 2004.04 1329.38 2004.82 1329.44ZM1988.64 1330.07 1984.83 1329.64 1979.52 1328.99 1979.8 1326.72 1985.11 1327.37 1985.1 1327.37 1988.89 1327.79ZM1972.69 1328.13 1963.69 1326.94 1963.6 1326.93 1963.91 1324.66 1964 1324.67 1964 1324.67 1972.99 1325.86ZM1956.79 1325.98 1952.5 1325.38 1947.71 1324.68 1948.04 1322.41 1952.82 1323.11 1952.82 1323.11 1957.1 1323.71ZM1940.89 1323.68 1931.83 1322.28 1932.18 1320.02 1941.24 1321.42ZM1925.04 1321.23 1917.26 1320.03 1915.97 1319.82 1916.34 1317.56 1917.63 1317.77 1917.62 1317.77 1925.39 1318.97ZM1909.19 1318.71 1900.14 1317.23 1900.51 1314.97 1909.56 1316.45ZM1893.36 1316.12 1893.11 1316.08 1884.31 1314.58 1884.7 1312.32 1893.49 1313.82 1893.49 1313.82 1893.73 1313.86ZM1877.54 1313.42 1869.09 1311.98 1868.49 1311.88 1868.89 1309.62 1869.49 1309.73 1869.48 1309.73 1877.92 1311.17ZM1861.72 1310.68 1852.7 1309.09 1853.09 1306.83 1862.12 1308.43ZM1845.93 1307.9 1845.77 1307.87 1836.9 1306.27 1837.31 1304.02 1846.17 1305.61 1846.17 1305.61 1846.32 1305.64ZM1830.13 1305.04 1823.71 1303.87 1821.11 1303.39 1821.53 1301.14 1824.12 1301.62 1830.54 1302.79ZM1814.35 1302.14 1813.34 1301.96 1805.34 1300.47 1805.76 1298.21 1813.75 1299.7 1814.77 1299.89ZM1798.58 1299.2 1794.24 1298.38 1789.57 1297.5 1790 1295.24 1794.67 1296.13 1799 1296.95ZM1782.82 1296.21 1777.84 1295.26 1773.81 1294.48 1774.25 1292.23 1778.27 1293.01 1783.25 1293.96ZM1767.06 1293.18 1764.69 1292.72 1759.51 1291.71 1758.06 1291.42 1758.5 1289.17 1759.95 1289.46 1765.12 1290.47 1767.5 1290.93ZM1777.03 1306.79 1750 1288.66 1781.9 1282.23C1782.52 1282.11 1783.13 1282.51 1783.25 1283.13 1783.38 1283.75 1782.97 1284.36 1782.35 1284.48L1753.15 1290.36 1753.56 1288.29 1778.3 1304.88C1778.83 1305.24 1778.97 1305.95 1778.62 1306.47 1778.26 1307 1777.55 1307.14 1777.03 1306.79Z" fill="#172C51"/><path d="M253.427 0.150732 252.221 9.23774 249.949 8.93627 251.155-0.150732ZM251.275 16.0855 249.766 25.1271 247.506 24.7499 249.015 15.7083ZM248.439 31.9526 246.284 40.8623 244.056 40.3234 246.212 31.4138ZM244.262 47.5285 243.634 49.4145 241.122 55.4071 240.712 56.178 238.689 55.1017 239.074 54.3774 239.029 54.4727 241.503 48.5686 241.473 48.6493 242.088 46.8043ZM237.276 62.2697 234.688 66.0589 231.546 69.5882 229.834 68.0643 232.927 64.59 232.837 64.7057 235.384 60.9773ZM226.297 74.2622 225.984 74.526 220.651 77.7779 218.008 78.8762 217.128 76.76 219.69 75.6955 219.533 75.7753 224.716 72.6149 224.575 72.7169 224.821 72.5096ZM211.349 81.1129 207.801 82.009 202.178 82.6539 201.917 80.3772 207.464 79.7409 207.314 79.7684 210.788 78.891ZM195.095 82.8271 190.832 82.4836 185.923 81.7954 186.241 79.5259 191.117 80.2094 191.05 80.202 195.279 80.5428ZM179.071 80.5469 172.709 79.1389 170.107 78.4881 170.663 76.2649 173.25 76.912 173.219 76.9048 179.566 78.3094ZM163.427 76.7612 158.439 75.3947 154.586 74.2619 155.232 72.0633 159.075 73.1931 159.055 73.1873 164.032 74.551ZM147.984 72.2529 139.25 69.472 139.945 67.2883 148.68 70.0692ZM132.689 67.3312 124.021 64.3497 124.766 62.1826 133.435 65.1641ZM117.503 62.0991 108.889 58.965 109.673 56.8114 118.287 59.9455ZM102.428 56.6145 100.871 56.0478 93.8358 53.3766 94.6492 51.2342 101.677 53.9026 101.662 53.897 103.212 54.4609ZM87.4085 50.9362 83.8865 49.5989 78.8487 47.6208 79.6863 45.4877 84.718 47.4635 84.706 47.4588 88.2219 48.7938ZM72.4493 45.108 67.3971 43.1242 63.9198 41.7213 64.7773 39.5961 68.2496 40.997 68.2397 40.9931 73.2869 42.9749ZM57.5442 39.149 51.8049 36.8335 49.0437 35.6999 49.914 33.5799 52.672 34.7122 52.6656 34.7095 58.4016 37.0238ZM42.6826 33.081 37.508 30.9348 34.2163 29.5568 35.1013 27.4429 38.3912 28.8202 38.3877 28.8187 43.5606 30.9641ZM27.8754 26.891 24.9122 25.6397 19.4344 23.3081 20.3319 21.1995 25.8037 23.5285 28.7669 24.7798ZM13.1117 20.5932 10.0786 19.2835 6.41811 17.6929 4.69833 16.9412 5.61623 14.8413 7.33142 15.5911 10.987 17.1796 14.0201 18.4892ZM22.4261 37.2025-1.76217e-07 13.6222 32.5346 14.3022C33.1673 14.3154 33.6694 14.839 33.6562 15.4717 33.643 16.1044 33.1194 16.6066 32.4867 16.5934L2.70151 15.9708 3.55575 14.0356 24.0867 35.6232C24.5228 36.0817 24.5046 36.807 24.046 37.2431 23.5875 37.6792 22.8622 37.661 22.4261 37.2025Z" fill="#172C51" transform="matrix(0.987806 0.155691 0.155691 -0.987806 1765.16 1179.06)"/><text font-family="Cambria Math,Cambria Math_MSFontService,sans-serif" font-weight="400" font-size="28" transform="matrix(1 0 0 1 1695.77 1307)">­ЮЏ┐</text><text font-family="Cambria Math,Cambria Math_MSFontService,sans-serif" font-weight="400" font-size="20" transform="matrix(1 0 0 1 1712.27 1297)">+</text><text font-family="Cambria Math,Cambria Math_MSFontService,sans-serif" font-weight="400" font-size="28" transform="matrix(1 0 0 1 1695.77 1154)">­ЮЏ┐</text><text font-family="Cambria Math,Cambria Math_MSFontService,sans-serif" font-weight="400" font-size="20" transform="matrix(1 0 0 1 1712.27 1144)">Рѕњ</text><text font-family="Cambria Math,Cambria Math_MSFontService,sans-serif" font-weight="400" font-size="28" transform="matrix(1 0 0 1 2064.16 1234)">­ЮЏ┐</text><text font-family="Cambria Math,Cambria Math_MSFontService,sans-serif" font-weight="400" font-size="20" transform="matrix(1 0 0 1 2080.66 1224)">Рѕњ</text><text font-family="Cambria Math,Cambria Math_MSFontService,sans-serif" font-weight="400" font-size="28" transform="matrix(1 0 0 1 1980.75 1230)">­ЮЏ┐</text><text font-family="Cambria Math,Cambria Math_MSFontService,sans-serif" font-weight="400" font-size="20" transform="matrix(1 0 0 1 1997.25 1220)">+</text></g></svg>