<svg width="2988" height="282" xmlns="http://www.w3.org/2000/svg" xmlns:xlink="http://www.w3.org/1999/xlink" xml:space="preserve" overflow="hidden"><defs><clipPath id="clip0"><rect x="706" y="1100" width="2988" height="282"/></clipPath><clipPath id="clip1"><rect x="706" y="1106" width="2988" height="263"/></clipPath><clipPath id="clip2"><rect x="706" y="1106" width="2988" height="263"/></clipPath><clipPath id="clip3"><rect x="706" y="1106" width="2988" height="263"/></clipPath></defs><g clip-path="url(#clip0)" transform="translate(-706 -1100)"><g clip-path="url(#clip1)"><g clip-path="url(#clip2)"><g clip-path="url(#clip3)"><text font-family="Times New Roman,Times New Roman_MSFontService,sans-serif" font-weight="400" font-size="18" transform="matrix(3.13635 0 0 3.1325 1090.57 1268)">H</text><text font-family="Times New Roman,Times New Roman_MSFontService,sans-serif" font-weight="400" font-size="18" transform="matrix(3.13635 0 0 3.1325 848.873 1267)">H</text><text font-family="Times New Roman,Times New Roman_MSFontService,sans-serif" font-weight="400" font-size="11" transform="matrix(3.13635 0 0 3.1325 889.646 1267)">3</text><text font-family="Times New Roman,Times New Roman_MSFontService,sans-serif" font-weight="400" font-size="18" transform="matrix(3.13635 0 0 3.1325 908.464 1267)">C</text><text font-family="Times New Roman,Times New Roman_MSFontService,sans-serif" font-weight="400" font-size="18" transform="matrix(3.13635 0 0 3.1325 998.071 1176)">O</text><text font-family="Times New Roman,Times New Roman_MSFontService,sans-serif" font-weight="400" font-size="18" transform="matrix(3.13635 0 0 3.1325 999.681 1268)">C</text><path d="M84.9929 227.125 130.352 227.125 130.352 228.972 130.352 230.819 84.9929 230.819 84.9929 228.972Z" transform="matrix(1.00123 0 0 1 956.357 1018.76)"/><path d="M39.5765 230.819-7.35422 230.819-7.35422 228.972-7.35422 227.125 39.5765 227.125 39.5765 228.972Z" transform="matrix(1.00123 0 0 1 956.357 1018.76)"/><path d="M54.8866 202.786 54.8708 162.817 56.7177 162.816 58.5647 162.815 58.5805 202.785 56.7335 202.786Z" transform="matrix(1.00123 0 0 1 956.357 1018.76)"/><path d="M65.9682 202.782 65.9524 162.812 67.7994 162.812 69.6463 162.811 69.6621 202.781 67.8152 202.781Z" transform="matrix(1.00123 0 0 1 956.357 1018.76)"/><text font-family="Times New Roman,Times New Roman_MSFontService,sans-serif" font-weight="400" font-size="18" transform="matrix(3.13635 0 0 3.1325 1280.64 1242)">H</text><text font-family="Times New Roman,Times New Roman_MSFontService,sans-serif" font-weight="400" font-size="18" transform="matrix(3.13635 0 0 3.1325 1374.68 1241)">C</text><text font-family="Times New Roman,Times New Roman_MSFontService,sans-serif" font-weight="400" font-size="18" transform="matrix(3.13635 0 0 3.1325 1412.31 1241)">H</text><text font-family="Times New Roman,Times New Roman_MSFontService,sans-serif" font-weight="400" font-size="11" transform="matrix(3.13635 0 0 3.1325 1453.08 1241)">2</text><text font-family="Times New Roman,Times New Roman_MSFontService,sans-serif" font-weight="400" font-size="18" transform="matrix(3.13635 0 0 3.1325 1471.9 1241)">C</text><text font-family="Times New Roman,Times New Roman_MSFontService,sans-serif" font-weight="400" font-size="18" transform="matrix(3.13635 0 0 3.1325 1509.54 1241)">H</text><text font-family="Times New Roman,Times New Roman_MSFontService,sans-serif" font-weight="400" font-size="18" transform="matrix(3.13635 0 0 3.1325 1550.31 1241)">O</text><path d="M368.752 201.228 414.111 201.228 414.111 203.075 414.111 204.922 368.752 204.922 368.752 203.075Z" transform="matrix(1.00123 0 0 1 956.357 1018.76)"/><text font-family="Times New Roman,Times New Roman_MSFontService,sans-serif" font-weight="400" font-size="18" transform="matrix(3.13635 0 0 3.1325 1189.13 1248)">+</text><text font-family="Times New Roman,Times New Roman_MSFontService,sans-serif" font-weight="400" font-size="18" transform="matrix(3.13635 0 0 3.1325 2104.3 1242)">C</text><text font-family="Times New Roman,Times New Roman_MSFontService,sans-serif" font-weight="400" font-size="18" transform="matrix(3.13635 0 0 3.1325 2196.76 1241)">C</text><text font-family="Times New Roman,Times New Roman_MSFontService,sans-serif" font-weight="400" font-size="18" transform="matrix(3.13635 0 0 3.1325 2234.39 1241)">H</text><text font-family="Times New Roman,Times New Roman_MSFontService,sans-serif" font-weight="400" font-size="11" transform="matrix(3.13635 0 0 3.1325 2275.17 1241)">2</text><text font-family="Times New Roman,Times New Roman_MSFontService,sans-serif" font-weight="400" font-size="18" transform="matrix(3.13635 0 0 3.1325 2293.98 1241)">C</text><text font-family="Times New Roman,Times New Roman_MSFontService,sans-serif" font-weight="400" font-size="18" transform="matrix(3.13635 0 0 3.1325 2331.62 1241)">H</text><text font-family="Times New Roman,Times New Roman_MSFontService,sans-serif" font-weight="400" font-size="18" transform="matrix(3.13635 0 0 3.1325 2372.39 1241)">O</text><text font-family="Times New Roman,Times New Roman_MSFontService,sans-serif" font-weight="400" font-size="18" transform="matrix(3.13635 0 0 3.1325 2102.7 1150)">O</text><text font-family="Times New Roman,Times New Roman_MSFontService,sans-serif" font-weight="400" font-size="18" transform="matrix(3.13635 0 0 3.1325 2143.47 1150)">H</text><text font-family="Times New Roman,Times New Roman_MSFontService,sans-serif" font-weight="400" font-size="18" transform="matrix(3.13635 0 0 3.1325 1953.49 1241)">H</text><text font-family="Times New Roman,Times New Roman_MSFontService,sans-serif" font-weight="400" font-size="11" transform="matrix(3.13635 0 0 3.1325 1994.26 1241)">3</text><text font-family="Times New Roman,Times New Roman_MSFontService,sans-serif" font-weight="400" font-size="18" transform="matrix(3.13635 0 0 3.1325 2013.08 1241)">C</text><path d="M1095.91 201.228 1142.84 201.228 1142.84 203.075 1142.84 204.922 1095.91 204.922 1095.91 203.075Z" transform="matrix(1.00123 0 0 1 956.357 1018.76)"/><path d="M1188.25 201.228 1235.18 201.228 1235.18 203.075 1235.18 204.922 1188.25 204.922 1188.25 203.075Z" transform="matrix(1.00123 0 0 1 956.357 1018.76)"/><path d="M1163.69 176.887 1163.68 136.917 1165.53 136.916 1167.37 136.916 1167.38 176.885 1165.54 176.886Z" transform="matrix(1.00123 0 0 1 956.357 1018.76)"/><path d="M1167.4 229.263 1167.41 269.233 1165.56 269.233 1163.72 269.234 1163.71 229.264 1165.55 229.264Z" transform="matrix(1.00123 0 0 1 956.357 1018.76)"/><text font-family="Times New Roman,Times New Roman_MSFontService,sans-serif" font-weight="400" font-size="18" transform="matrix(3.13635 0 0 3.1325 2102.75 1335)">H</text><path d="M700.272 203.075 905.661 203.075" stroke="#000000" stroke-width="3.69389" fill="none" transform="matrix(1.00123 0 0 1 956.357 1018.76)"/><path d="M937.059 203.075 900.12 193.84 905.661 203.075 900.12 212.31Z" transform="matrix(1.00123 0 0 1 956.357 1018.76)"/><path d="M1518.09 203.075 1723.48 203.075" stroke="#000000" stroke-width="3.69389" fill="none" transform="matrix(1.00123 0 0 1 956.357 1018.76)"/><path d="M1754.87 203.075 1717.93 193.84 1723.48 203.075 1717.93 212.31Z" transform="matrix(1.00123 0 0 1 956.357 1018.76)"/><text font-family="Times New Roman,Times New Roman_MSFontService,sans-serif" font-weight="400" font-size="18" transform="matrix(3.13635 0 0 3.1325 2812.52 1243)">H</text><text font-family="Times New Roman,Times New Roman_MSFontService,sans-serif" font-weight="400" font-size="11" transform="matrix(3.13635 0 0 3.1325 2853.29 1243)">3</text><text font-family="Times New Roman,Times New Roman_MSFontService,sans-serif" font-weight="400" font-size="18" transform="matrix(3.13635 0 0 3.1325 2872.11 1243)">C</text><path d="M1953.88 203.659 2000.81 203.659 2000.81 205.506 2000.81 207.353 1953.88 207.353 1953.88 205.506Z" transform="matrix(1.00123 0 0 1 956.357 1018.76)"/><text font-family="Times New Roman,Times New Roman_MSFontService,sans-serif" font-weight="400" font-size="18" transform="matrix(3.13635 0 0 3.1325 2963.32 1200)">H</text><text font-family="Times New Roman,Times New Roman_MSFontService,sans-serif" font-weight="400" font-size="18" transform="matrix(3.13635 0 0 3.1325 2963.32 1250)">C</text><path d="M2046.23 192.577 2093.16 192.577 2093.16 194.424 2093.16 196.271 2046.23 196.271 2046.23 194.424Z" transform="matrix(1.00123 0 0 1 956.357 1018.76)"/><path d="M2046.23 203.659 2093.16 203.659 2093.16 205.506 2093.16 207.353 2046.23 207.353 2046.23 205.506Z" transform="matrix(1.00123 0 0 1 956.357 1018.76)"/><text font-family="Times New Roman,Times New Roman_MSFontService,sans-serif" font-weight="400" font-size="18" transform="matrix(3.13635 0 0 3.1325 3055.79 1200)">H</text><text font-family="Times New Roman,Times New Roman_MSFontService,sans-serif" font-weight="400" font-size="18" transform="matrix(3.13635 0 0 3.1325 3055.79 1250)">C</text><path d="M2138.57 203.659 2185.5 203.659 2185.5 205.506 2185.5 207.353 2138.57 207.353 2138.57 205.506Z" transform="matrix(1.00123 0 0 1 956.357 1018.76)"/><text font-family="Times New Roman,Times New Roman_MSFontService,sans-serif" font-weight="400" font-size="18" transform="matrix(3.13635 0 0 3.1325 3148.25 1245)">C</text><text font-family="Times New Roman,Times New Roman_MSFontService,sans-serif" font-weight="400" font-size="18" transform="matrix(3.13635 0 0 3.1325 3185.88 1245)">H</text><text font-family="Times New Roman,Times New Roman_MSFontService,sans-serif" font-weight="400" font-size="18" transform="matrix(3.13635 0 0 3.1325 3226.66 1245)">O</text><text font-family="Times New Roman,Times New Roman_MSFontService,sans-serif" font-weight="400" font-size="18" transform="matrix(3.13635 0 0 3.1325 3442.16 1226)">H</text><text font-family="Times New Roman,Times New Roman_MSFontService,sans-serif" font-weight="400" font-size="11" transform="matrix(3.13635 0 0 3.1325 3482.93 1226)">2</text><text font-family="Times New Roman,Times New Roman_MSFontService,sans-serif" font-weight="400" font-size="18" transform="matrix(3.13635 0 0 3.1325 3501.75 1226)">O</text><text font-family="Times New Roman,Times New Roman_MSFontService,sans-serif" font-weight="400" font-size="18" transform="matrix(3.13635 0 0 3.1325 3339.21 1230)">+</text></g></g></g><text font-family="Cambria Math,Cambria Math_MSFontService,sans-serif" font-weight="400" font-size="32" transform="matrix(1 0 0 1 1384.32 1295)">𝛼</text><text font-family="Cambria Math,Cambria Math_MSFontService,sans-serif" font-weight="400" font-size="32" transform="matrix(1 0 0 1 1254.78 1295)">𝛼</text><text font-family="Cambria Math,Cambria Math_MSFontService,sans-serif" font-weight="400" font-size="32" transform="matrix(1 0 0 1 1282.35 1295)">−</text><text font-family="Cambria Math,Cambria Math_MSFontService,sans-serif" font-weight="400" font-size="32" transform="matrix(1 0 0 1 1313.54 1295)">𝐻</text><text font-family="Cambria Math,Cambria Math_MSFontService,sans-serif" font-weight="400" font-size="28" transform="matrix(1 0 0 1 977.328 1302)">𝛿</text><text font-family="Cambria Math,Cambria Math_MSFontService,sans-serif" font-weight="400" font-size="20" transform="matrix(1 0 0 1 993.828 1292)">+</text><text font-family="Cambria Math,Cambria Math_MSFontService,sans-serif" font-weight="400" font-size="28" transform="matrix(1 0 0 1 977.329 1149)">𝛿</text><text font-family="Cambria Math,Cambria Math_MSFontService,sans-serif" font-weight="400" font-size="20" transform="matrix(1 0 0 1 993.829 1139)">−</text><path d="M253.427 0.150732 252.221 9.23774 249.949 8.93627 251.155-0.150732ZM251.275 16.0855 249.766 25.1271 247.506 24.7499 249.015 15.7083ZM248.439 31.9526 246.284 40.8623 244.056 40.3234 246.212 31.4138ZM244.262 47.5285 243.634 49.4145 241.122 55.4071 240.712 56.178 238.689 55.1017 239.074 54.3774 239.029 54.4727 241.503 48.5686 241.473 48.6493 242.088 46.8043ZM237.276 62.2697 234.688 66.0589 231.546 69.5882 229.834 68.0643 232.927 64.59 232.837 64.7057 235.384 60.9773ZM226.297 74.2622 225.984 74.526 220.651 77.7779 218.008 78.8762 217.128 76.76 219.69 75.6955 219.533 75.7753 224.716 72.6149 224.575 72.7169 224.821 72.5096ZM211.349 81.1129 207.801 82.009 202.178 82.6539 201.917 80.3772 207.464 79.7409 207.314 79.7684 210.788 78.891ZM195.095 82.8271 190.832 82.4836 185.923 81.7954 186.241 79.5259 191.117 80.2094 191.05 80.202 195.279 80.5428ZM179.071 80.5469 172.709 79.1389 170.107 78.4881 170.663 76.2649 173.25 76.912 173.219 76.9048 179.566 78.3094ZM163.427 76.7612 158.439 75.3947 154.586 74.2619 155.232 72.0633 159.075 73.1931 159.055 73.1873 164.032 74.551ZM147.984 72.2529 139.25 69.472 139.945 67.2883 148.68 70.0692ZM132.689 67.3312 124.021 64.3497 124.766 62.1826 133.435 65.1641ZM117.503 62.0991 108.889 58.965 109.673 56.8114 118.287 59.9455ZM102.428 56.6145 100.871 56.0478 93.8358 53.3766 94.6492 51.2342 101.677 53.9026 101.662 53.897 103.212 54.4609ZM87.4085 50.9362 83.8865 49.5989 78.8487 47.6208 79.6863 45.4877 84.718 47.4635 84.706 47.4588 88.2219 48.7938ZM72.4493 45.108 67.3971 43.1242 63.9198 41.7213 64.7773 39.5961 68.2496 40.997 68.2397 40.9931 73.2869 42.9749ZM57.5442 39.149 51.8049 36.8335 49.0437 35.6999 49.914 33.5799 52.672 34.7122 52.6656 34.7095 58.4016 37.0238ZM42.6826 33.081 37.508 30.9348 34.2163 29.5568 35.1013 27.4429 38.3912 28.8202 38.3877 28.8187 43.5606 30.9641ZM27.8754 26.891 24.9122 25.6397 19.4344 23.3081 20.3319 21.1995 25.8037 23.5285 28.7669 24.7798ZM13.1117 20.5932 10.0786 19.2835 6.41811 17.6929 4.69833 16.9412 5.61623 14.8413 7.33142 15.5911 10.987 17.1796 14.0201 18.4892ZM13.1563 33.0294-0.00712216 13.6191 23.2086 10.2925C23.8351 10.2027 24.4156 10.6378 24.5054 11.2642 24.5952 11.8906 24.1601 12.4712 23.5337 12.561L2.13273 15.6275 2.91853 13.8501 15.0529 31.7432C15.4081 32.2669 15.2715 32.9795 14.7477 33.3346 14.224 33.6898 13.5114 33.5532 13.1563 33.0294Z" fill="#172C51" transform="matrix(0.987806 0.155691 0.155691 -0.987806 1062.19 1152.23)"/><text font-family="Cambria Math,Cambria Math_MSFontService,sans-serif" font-weight="400" font-size="28" transform="matrix(1 0 0 1 1361.19 1207)">𝛿</text><text font-family="Cambria Math,Cambria Math_MSFontService,sans-serif" font-weight="400" font-size="20" transform="matrix(1 0 0 1 1377.69 1197)">−</text><text font-family="Cambria Math,Cambria Math_MSFontService,sans-serif" font-weight="400" font-size="28" transform="matrix(1 0 0 1 1264.42 1202)">𝛿</text><text font-family="Cambria Math,Cambria Math_MSFontService,sans-serif" font-weight="400" font-size="20" transform="matrix(1 0 0 1 1280.92 1192)">+</text><path d="M1388.97 1252.6 1384.15 1260.4 1382.2 1259.19 1387.03 1251.4ZM1380.53 1266.24 1375.71 1274.04 1373.76 1272.83 1378.58 1265.04ZM1372 1279.85 1367.02 1287.55 1365.09 1286.3 1370.07 1278.61ZM1363.28 1293.32 1359.99 1298.41 1358.21 1300.99 1356.32 1299.69 1358.09 1297.12 1358.08 1297.15 1361.36 1292.08ZM1354.31 1306.66 1352.53 1309.24 1348.96 1314.13 1347.1 1312.78 1350.67 1307.9 1350.65 1307.93 1352.42 1305.36ZM1344.88 1319.72 1339.22 1326.93 1337.42 1325.52 1343.07 1318.3ZM1334.83 1332.28 1329.18 1338.88 1328.81 1339.28 1327.15 1337.7 1327.5 1337.33 1327.46 1337.37 1333.09 1330.79ZM1324.08 1344.27 1320.99 1347.53 1317.53 1350.76 1315.96 1349.09 1319.4 1345.88 1319.35 1345.93 1322.42 1342.69ZM1312.43 1355.51 1305.3 1361.26 1303.86 1359.48 1311 1353.72ZM1299.62 1365.29 1294.73 1368.6 1291.76 1370.21 1290.67 1368.19 1293.59 1366.61 1293.5 1366.67 1298.34 1363.4ZM1285.72 1373.49 1285.33 1373.7 1277.14 1377.04 1276.27 1374.92 1284.41 1371.6 1284.29 1371.65 1284.63 1371.47ZM1270.44 1379.09 1265.39 1380.48 1261.36 1381.05 1261.03 1378.79 1264.99 1378.22 1264.85 1378.25 1269.83 1376.88ZM1254.42 1382 1249.19 1382.13 1245.16 1381.88 1245.3 1379.6 1249.28 1379.84 1249.18 1379.84 1254.35 1379.7ZM1238.25 1381.08 1237.04 1380.92 1230.56 1379.61 1229.14 1379.25 1229.7 1377.03 1231.1 1377.39 1231.04 1377.37 1237.46 1378.66 1237.39 1378.65 1238.56 1378.81ZM1222.44 1377.47 1216.88 1375.77 1213.67 1374.6 1214.46 1372.44 1217.64 1373.61 1217.58 1373.59 1223.11 1375.27ZM1207.22 1372.23 1202.46 1370.49 1198.64 1368.83 1199.55 1366.73 1203.34 1368.37 1203.28 1368.35 1208.01 1370.08ZM1192.33 1366.1 1187.47 1363.99 1183.95 1362.27 1184.95 1360.21 1188.45 1361.92 1188.41 1361.9 1193.24 1363.99ZM1177.77 1359.26 1172.13 1356.51 1169.54 1355.13 1170.61 1353.11 1173.19 1354.48 1173.16 1354.46 1178.77 1357.2ZM1163.47 1351.91 1156.66 1348.29 1155.36 1347.56 1156.49 1345.56 1157.77 1346.29 1157.75 1346.27 1164.54 1349.88ZM1149.38 1344.17 1141.41 1339.64 1142.54 1337.65 1150.51 1342.17ZM1135.48 1336.11 1127.61 1331.42 1128.78 1329.45 1136.66 1334.14ZM1121.73 1327.81 1113.94 1322.98 1115.15 1321.03 1122.94 1325.86ZM1108.11 1319.3 1100.39 1314.37 1101.62 1312.44 1109.35 1317.37ZM1094.6 1310.64 1086.92 1305.63 1088.18 1303.71 1095.85 1308.72ZM1081.17 1301.85 1073.52 1296.81 1074.78 1294.89 1082.43 1299.94ZM1067.78 1293.01 1067.42 1292.77 1062.37 1289.44 1060.13 1287.97 1061.39 1286.06 1063.63 1287.53 1068.68 1290.86 1069.05 1291.1ZM1054.38 1284.23 1053.49 1283.65 1053.49 1283.66 1049.7 1281.25 1049.72 1281.26 1048.24 1280.35 1049.44 1278.4 1050.92 1279.31 1054.73 1281.72 1055.62 1282.3ZM1057.43 1299.24 1046.99 1278.24 1070.45 1278.06C1071.08 1278.06 1071.6 1278.57 1071.6 1279.2 1071.6 1279.83 1071.1 1280.35 1070.46 1280.35L1048.84 1280.52 1049.86 1278.86 1059.48 1298.22C1059.76 1298.79 1059.53 1299.48 1058.97 1299.76 1058.4 1300.04 1057.71 1299.81 1057.43 1299.24Z" fill="#172C51"/><text font-family="Source Han Serif SC Medium,Source Han Serif SC Medium_MSFontService,sans-serif" font-weight="500" font-size="28" transform="matrix(1 0 0 1 1707.73 1202)">一定条件</text><text font-family="Cambria Math,Cambria Math_MSFontService,sans-serif" font-weight="400" font-size="48" transform="matrix(1 0 0 1 2569.58 1206)">Δ</text><text font-family="Cambria Math,Cambria Math_MSFontService,sans-serif" font-weight="400" font-size="32" transform="matrix(1 0 0 1 2085.54 1262)">𝛽</text><text font-family="Cambria Math,Cambria Math_MSFontService,sans-serif" font-weight="400" font-size="32" transform="matrix(1 0 0 1 2189.41 1267)">𝛼</text></g></svg>