<svg width="1590" height="183" xmlns="http://www.w3.org/2000/svg" xmlns:xlink="http://www.w3.org/1999/xlink" xml:space="preserve" overflow="hidden"><g transform="translate(-1418 -1192)"><text font-family="Source Han Serif SC Medium,Source Han Serif SC Medium_MSFontService,sans-serif" font-weight="500" font-size="45" transform="matrix(1 0 0 1 1451.27 1297)">H</text><text font-family="Source Han Serif SC Medium,Source Han Serif SC Medium_MSFontService,sans-serif" font-weight="500" font-size="28" transform="matrix(1 0 0 1 1489.65 1303)">5</text><text font-family="Source Han Serif SC Medium,Source Han Serif SC Medium_MSFontService,sans-serif" font-weight="500" font-size="45" transform="matrix(1 0 0 1 1505.12 1297)">C</text><text font-family="Source Han Serif SC Medium,Source Han Serif SC Medium_MSFontService,sans-serif" font-weight="500" font-size="28" transform="matrix(1 0 0 1 1536.06 1303)">2</text><path d="M1551 1277 1612 1277 1612 1279 1612 1281 1551 1281 1551 1279Z" fill-rule="evenodd"/><text font-family="Source Han Serif SC Medium,Source Han Serif SC Medium_MSFontService,sans-serif" font-weight="500" font-size="45" transform="matrix(1 0 0 1 1616.04 1302)">OH</text><text font-family="Source Han Serif SC Medium,Source Han Serif SC Medium_MSFontService,sans-serif" font-weight="500" font-size="45" transform="matrix(1 0 0 1 1766.09 1302)">H</text><path d="M1803 1277 1864 1277 1864 1279 1864 1281 1803 1281 1803 1279Z" fill-rule="evenodd"/><text font-family="Source Han Serif SC Medium,Source Han Serif SC Medium_MSFontService,sans-serif" font-weight="500" font-size="45" transform="matrix(1 0 0 1 1867.78 1299)">O</text><path d="M1907 1277 1968 1277 1968 1279 1968 1281 1907 1281 1907 1279Z" fill-rule="evenodd"/><text font-family="Source Han Serif SC Medium,Source Han Serif SC Medium_MSFontService,sans-serif" font-weight="500" font-size="45" transform="matrix(1 0 0 1 1972.01 1297)">C</text><text font-family="Source Han Serif SC Medium,Source Han Serif SC Medium_MSFontService,sans-serif" font-weight="500" font-size="28" transform="matrix(1 0 0 1 2002.95 1303)">2</text><text font-family="Source Han Serif SC Medium,Source Han Serif SC Medium_MSFontService,sans-serif" font-weight="500" font-size="45" transform="matrix(1 0 0 1 2018.42 1297)">H</text><text font-family="Source Han Serif SC Medium,Source Han Serif SC Medium_MSFontService,sans-serif" font-weight="500" font-size="28" transform="matrix(1 0 0 1 2056.8 1303)">5</text><path d="M2124 1283 2353 1283" stroke="#000000" stroke-width="4.1185" stroke-miterlimit="8" fill="none" fill-rule="evenodd"/><path d="M2388 1283 2347 1274 2353.15 1283 2347 1292Z" fill-rule="evenodd"/><text font-family="Source Han Serif SC Medium,Source Han Serif SC Medium_MSFontService,sans-serif" font-weight="500" font-size="45" transform="matrix(1 0 0 1 2169.43 1251)">浓</text><text font-family="Source Han Serif SC Medium,Source Han Serif SC Medium_MSFontService,sans-serif" font-weight="500" font-size="45" transform="matrix(1 0 0 1 2214.12 1251)">H</text><text font-family="Source Han Serif SC Medium,Source Han Serif SC Medium_MSFontService,sans-serif" font-weight="500" font-size="28" transform="matrix(1 0 0 1 2252.51 1257)">2</text><text font-family="Source Han Serif SC Medium,Source Han Serif SC Medium_MSFontService,sans-serif" font-weight="500" font-size="45" transform="matrix(1 0 0 1 2267.98 1251)">SO</text><text font-family="Source Han Serif SC Medium,Source Han Serif SC Medium_MSFontService,sans-serif" font-weight="500" font-size="28" transform="matrix(1 0 0 1 2328.13 1257)">4</text><text font-family="Source Han Serif SC Medium,Source Han Serif SC Medium_MSFontService,sans-serif" font-weight="500" font-size="45" transform="matrix(1 0 0 1 2195.9 1337)">140</text><text font-family="Source Han Serif SC Medium,Source Han Serif SC Medium_MSFontService,sans-serif" font-weight="500" font-size="45" transform="matrix(1 0 0 1 2267.51 1337)">℃</text><text font-family="Source Han Serif SC Medium,Source Han Serif SC Medium_MSFontService,sans-serif" font-weight="500" font-size="45" transform="matrix(1 0 0 1 2424.75 1299)">H</text><text font-family="Source Han Serif SC Medium,Source Han Serif SC Medium_MSFontService,sans-serif" font-weight="500" font-size="28" transform="matrix(1 0 0 1 2463.14 1305)">5</text><text font-family="Source Han Serif SC Medium,Source Han Serif SC Medium_MSFontService,sans-serif" font-weight="500" font-size="45" transform="matrix(1 0 0 1 2478.61 1299)">C</text><text font-family="Source Han Serif SC Medium,Source Han Serif SC Medium_MSFontService,sans-serif" font-weight="500" font-size="28" transform="matrix(1 0 0 1 2509.55 1305)">2</text><text font-family="Source Han Serif SC Medium,Source Han Serif SC Medium_MSFontService,sans-serif" font-weight="500" font-size="45" transform="matrix(1 0 0 1 2589.52 1299)">O</text><text font-family="Source Han Serif SC Medium,Source Han Serif SC Medium_MSFontService,sans-serif" font-weight="500" font-size="45" transform="matrix(1 0 0 1 2693.75 1299)">C</text><text font-family="Source Han Serif SC Medium,Source Han Serif SC Medium_MSFontService,sans-serif" font-weight="500" font-size="28" transform="matrix(1 0 0 1 2724.69 1305)">2</text><text font-family="Source Han Serif SC Medium,Source Han Serif SC Medium_MSFontService,sans-serif" font-weight="500" font-size="45" transform="matrix(1 0 0 1 2740.16 1299)">H</text><text font-family="Source Han Serif SC Medium,Source Han Serif SC Medium_MSFontService,sans-serif" font-weight="500" font-size="28" transform="matrix(1 0 0 1 2778.54 1305)">5</text><path d="M2690 1283 2629 1283 2629 1281 2629 1279 2690 1279 2690 1281Z" fill-rule="evenodd"/><path d="M2585 1283 2525 1283 2525 1281 2525 1279 2585 1279 2585 1281Z" fill-rule="evenodd"/><text font-family="Source Han Serif SC Medium,Source Han Serif SC Medium_MSFontService,sans-serif" font-weight="500" font-size="45" transform="matrix(1 0 0 1 2884.88 1297)">H</text><text font-family="Source Han Serif SC Medium,Source Han Serif SC Medium_MSFontService,sans-serif" font-weight="500" font-size="28" transform="matrix(1 0 0 1 2923.26 1303)">2</text><text font-family="Source Han Serif SC Medium,Source Han Serif SC Medium_MSFontService,sans-serif" font-weight="500" font-size="45" transform="matrix(1 0 0 1 2938.73 1297)">O</text><text font-family="Source Han Serif SC Medium,Source Han Serif SC Medium_MSFontService,sans-serif" font-weight="500" font-size="45" transform="matrix(1 0 0 1 1710.61 1302)">+</text><text font-family="Source Han Serif SC Medium,Source Han Serif SC Medium_MSFontService,sans-serif" font-weight="500" font-size="45" transform="matrix(1 0 0 1 2826.48 1302)">+</text><path d="M1583.5 1251.33C1583.5 1243.14 1590.14 1236.5 1598.33 1236.5L1819.67 1236.5C1827.86 1236.5 1834.5 1243.14 1834.5 1251.33L1834.5 1310.67C1834.5 1318.86 1827.86 1325.5 1819.67 1325.5L1598.33 1325.5C1590.14 1325.5 1583.5 1318.86 1583.5 1310.67Z" stroke="#000000" stroke-width="4.58333" stroke-miterlimit="8" stroke-dasharray="18.3333 13.75 4.58333 13.75" fill="none" fill-rule="evenodd"/></g></svg>