<svg width="1378" height="213" xmlns="http://www.w3.org/2000/svg" xmlns:xlink="http://www.w3.org/1999/xlink" xml:space="preserve" overflow="hidden"><defs><clipPath id="clip0"><rect x="1528" y="1131" width="1378" height="213"/></clipPath></defs><g clip-path="url(#clip0)" transform="translate(-1528 -1131)"><text font-family="Times New Roman,Times New Roman_MSFontService,sans-serif" font-weight="400" font-size="18" transform="matrix(3.1067 0 0 3.10586 1686.56 1265)">C</text><path d="M2196.2 771.972 2196.2 732.342 2198.03 732.342 2199.86 732.342 2199.86 771.972 2198.03 771.972Z" transform="matrix(1.00027 0 0 1 -498.705 446.933)"/><path d="M2207.19 771.972 2207.19 732.342 2209.02 732.342 2210.85 732.342 2210.85 771.972 2209.02 771.972Z" transform="matrix(1.00027 0 0 1 -498.705 446.933)"/><text font-family="Times New Roman,Times New Roman_MSFontService,sans-serif" font-weight="400" font-size="18" transform="matrix(3.1067 0 0 3.10586 1685 1174)">O</text><path d="M2226.96 809.351 2259.66 828.234 2258.75 829.82 2257.83 831.406 2225.12 812.523 2226.04 810.937Z" transform="matrix(1.00027 0 0 1 -498.705 446.933)"/><text font-family="Times New Roman,Times New Roman_MSFontService,sans-serif" font-weight="400" font-size="18" transform="matrix(3.1067 0 0 3.10586 1764.31 1311)">H</text><path d="M2181.93 812.523 2149.22 831.406 2148.3 829.82 2147.39 828.234 2180.09 809.351 2181.01 810.937Z" transform="matrix(1.00027 0 0 1 -498.705 446.933)"/><text font-family="Times New Roman,Times New Roman_MSFontService,sans-serif" font-weight="400" font-size="18" transform="matrix(3.1067 0 0 3.10586 1605.68 1311)">H</text><path d="M2348.03 775.047 2551.68 775.047" stroke="#000000" stroke-width="3.66247" fill="none" transform="matrix(1.00027 0 0 1 -498.705 446.933)"/><path d="M2582.81 775.047 2546.18 765.891 2551.68 775.047 2546.18 784.203Z" transform="matrix(1.00027 0 0 1 -498.705 446.933)"/><text font-family="Times New Roman,Times New Roman_MSFontService,sans-serif" font-weight="400" font-size="18" transform="matrix(3.1067 0 0 3.10586 2222.56 1174)">O</text><text font-family="Times New Roman,Times New Roman_MSFontService,sans-serif" font-weight="400" font-size="18" transform="matrix(3.1067 0 0 3.10586 2301.87 1311)">O</text><text font-family="Times New Roman,Times New Roman_MSFontService,sans-serif" font-weight="400" font-size="18" transform="matrix(3.1067 0 0 3.10586 2342.26 1311)">H</text><text font-family="Times New Roman,Times New Roman_MSFontService,sans-serif" font-weight="400" font-size="18" transform="matrix(3.1067 0 0 3.10586 2102.41 1311)">H</text><text font-family="Times New Roman,Times New Roman_MSFontService,sans-serif" font-weight="400" font-size="18" transform="matrix(3.1067 0 0 3.10586 2142.8 1311)">O</text><text font-family="Times New Roman,Times New Roman_MSFontService,sans-serif" font-weight="400" font-size="18" transform="matrix(3.1067 0 0 3.10586 2224.12 1265)">C</text><path d="M2733.62 771.972 2733.62 732.342 2735.45 732.342 2737.28 732.342 2737.28 771.972 2735.45 771.972Z" transform="matrix(1.00027 0 0 1 -498.705 446.933)"/><path d="M2744.6 771.972 2744.6 732.342 2746.44 732.342 2748.27 732.342 2748.27 771.972 2746.44 771.972Z" transform="matrix(1.00027 0 0 1 -498.705 446.933)"/><path d="M2764.37 809.351 2797.08 828.234 2796.16 829.82 2795.25 831.406 2762.54 812.523 2763.46 810.937Z" transform="matrix(1.00027 0 0 1 -498.705 446.933)"/><path d="M2719.34 812.523 2686.64 831.406 2685.72 829.82 2684.8 828.234 2717.51 809.351 2718.43 810.937Z" transform="matrix(1.00027 0 0 1 -498.705 446.933)"/><path d="M2925.72 775.047 3129.37 775.047" stroke="#000000" stroke-width="3.66247" fill="none" transform="matrix(1.00027 0 0 1 -498.705 446.933)"/><path d="M3160.5 775.047 3123.87 765.891 3129.37 775.047 3123.87 784.203Z" transform="matrix(1.00027 0 0 1 -498.705 446.933)"/><text font-family="Times New Roman,Times New Roman_MSFontService,sans-serif" font-weight="400" font-size="18" transform="matrix(3.1067 0 0 3.10586 2723.5 1238)">C</text><text font-family="Times New Roman,Times New Roman_MSFontService,sans-serif" font-weight="400" font-size="18" transform="matrix(3.1067 0 0 3.10586 2760.78 1238)">O</text><text font-family="Times New Roman,Times New Roman_MSFontService,sans-serif" font-weight="400" font-size="11" transform="matrix(3.1067 0 0 3.10586 2801.17 1238)">2</text><text font-family="Source Han Serif SC Medium,Source Han Serif SC Medium_MSFontService,sans-serif" font-weight="500" font-size="37" transform="matrix(1 0 0 1 1920.19 1198)">氧化</text></g></svg>