<svg width="1716" height="277" xmlns="http://www.w3.org/2000/svg" xmlns:xlink="http://www.w3.org/1999/xlink" xml:space="preserve" overflow="hidden"><defs><clipPath id="clip0"><rect x="1342" y="1151" width="1716" height="173"/></clipPath><clipPath id="clip1"><rect x="1342" y="1151" width="1716" height="173"/></clipPath><clipPath id="clip2"><rect x="1342" y="1151" width="1716" height="173"/></clipPath></defs><g transform="translate(-1342 -1112)"><g clip-path="url(#clip0)"><g clip-path="url(#clip1)"><g clip-path="url(#clip2)"><text font-family="Times New Roman,Times New Roman_MSFontService,sans-serif" font-weight="400" font-size="18" transform="matrix(2.99502 0 0 2.97858 1551.95 1281)">C</text><path d="M446.92 943.623 446.92 905.617 448.676 905.617 450.432 905.617 450.432 943.623 448.676 943.623Z" transform="matrix(1.00552 0 0 1 1113.68 292.68)"/><path d="M457.457 943.623 457.457 905.617 459.213 905.617 460.969 905.617 460.969 943.623 459.213 943.623Z" transform="matrix(1.00552 0 0 1 1113.68 292.68)"/><text font-family="Times New Roman,Times New Roman_MSFontService,sans-serif" font-weight="400" font-size="18" transform="matrix(2.99502 0 0 2.97858 1550.45 1193)">O</text><path d="M432.352 970.281 387.728 970.281 387.728 968.525 387.728 966.768 432.352 966.768 432.352 968.525Z" transform="matrix(1.00552 0 0 1 1113.68 292.68)"/><text font-family="Times New Roman,Times New Roman_MSFontService,sans-serif" font-weight="400" font-size="18" transform="matrix(2.99502 0 0 2.97858 1463.65 1281)">R</text><path d="M475.537 966.768 518.667 966.768 518.667 968.525 518.667 970.281 475.537 970.281 475.537 968.525Z" transform="matrix(1.00552 0 0 1 1113.68 292.68)"/><text font-family="Times New Roman,Times New Roman_MSFontService,sans-serif" font-weight="400" font-size="18" transform="matrix(2.99502 0 0 2.97858 1638.74 1281)">O</text><text font-family="Times New Roman,Times New Roman_MSFontService,sans-serif" font-weight="400" font-size="18" transform="matrix(2.99502 0 0 2.97858 1677.67 1281)">H</text><text font-family="Times New Roman,Times New Roman_MSFontService,sans-serif" font-weight="400" font-size="18" transform="matrix(2.99502 0 0 2.97858 1867.31 1238)">N</text><text font-family="Times New Roman,Times New Roman_MSFontService,sans-serif" font-weight="400" font-size="18" transform="matrix(2.99502 0 0 2.97858 1906.24 1238)">H</text><text font-family="Times New Roman,Times New Roman_MSFontService,sans-serif" font-weight="400" font-size="11" transform="matrix(2.99502 0 0 2.97858 1945.18 1238)">3</text><text font-family="Times New Roman,Times New Roman_MSFontService,sans-serif" font-weight="400" font-size="18" transform="matrix(2.99502 0 0 2.97858 2465.85 1193)">O</text><text font-family="Times New Roman,Times New Roman_MSFontService,sans-serif" font-weight="400" font-size="18" transform="matrix(2.99502 0 0 2.97858 2554.15 1280)">N</text><text font-family="Times New Roman,Times New Roman_MSFontService,sans-serif" font-weight="400" font-size="18" transform="matrix(2.99502 0 0 2.97858 2593.08 1280)">H</text><text font-family="Times New Roman,Times New Roman_MSFontService,sans-serif" font-weight="400" font-size="11" transform="matrix(2.99502 0 0 2.97858 2632.02 1280)">2</text><text font-family="Times New Roman,Times New Roman_MSFontService,sans-serif" font-weight="400" font-size="18" transform="matrix(2.99502 0 0 2.97858 2467.36 1281)">C</text><path d="M1357.3 944.106 1357.3 906.101 1359.06 906.101 1360.82 906.101 1360.82 944.106 1359.06 944.106Z" transform="matrix(1.00552 0 0 1 1113.68 292.68)"/><path d="M1367.84 944.106 1367.84 906.101 1369.6 906.101 1371.35 906.101 1371.35 944.106 1369.6 944.106Z" transform="matrix(1.00552 0 0 1 1113.68 292.68)"/><path d="M1342.74 970.764 1298.11 970.764 1298.11 969.008 1298.11 967.252 1342.74 967.252 1342.74 969.008Z" transform="matrix(1.00552 0 0 1 1113.68 292.68)"/><text font-family="Times New Roman,Times New Roman_MSFontService,sans-serif" font-weight="400" font-size="18" transform="matrix(2.99502 0 0 2.97858 2379.06 1281)">R</text><path d="M1385.92 967.252 1429.05 967.252 1429.05 969.008 1429.05 970.764 1385.92 970.764 1385.92 969.008Z" transform="matrix(1.00552 0 0 1 1113.68 292.68)"/><text font-family="Times New Roman,Times New Roman_MSFontService,sans-serif" font-weight="400" font-size="18" transform="matrix(2.99502 0 0 2.97858 2832.29 1238)">H</text><text font-family="Times New Roman,Times New Roman_MSFontService,sans-serif" font-weight="400" font-size="11" transform="matrix(2.99502 0 0 2.97858 2871.23 1238)">2</text><text font-family="Times New Roman,Times New Roman_MSFontService,sans-serif" font-weight="400" font-size="18" transform="matrix(2.99502 0 0 2.97858 2889.2 1238)">O</text><text font-family="Times New Roman,Times New Roman_MSFontService,sans-serif" font-weight="400" font-size="18" transform="matrix(2.99502 0 0 2.97858 1769.59 1245)">+</text><path d="M935.869 930.172 1131.17 930.172" stroke="#000000" stroke-width="3.51238" fill="none" transform="matrix(1.00552 0 0 1 1113.68 292.68)"/><path d="M1161.02 930.172 1125.9 921.391 1131.17 930.172 1125.9 938.953Z" transform="matrix(1.00552 0 0 1 1113.68 292.68)"/><text font-family="Times New Roman,Times New Roman_MSFontService,sans-serif" font-weight="400" font-size="18" transform="matrix(2.99502 0 0 2.97858 2713.62 1242)">+</text><text font-family="Cambria Math,Cambria Math_MSFontService,sans-serif" font-weight="400" font-size="18" transform="matrix(2.99502 0 0 2.97858 2151.55 1206)">△</text></g></g></g><path d="M2357 1143.5C2357 1128.31 2369.31 1116 2384.5 1116L2494.5 1116C2509.69 1116 2522 1128.31 2522 1143.5L2522 1280.5C2522 1295.69 2509.69 1308 2494.5 1308L2384.5 1308C2369.31 1308 2357 1295.69 2357 1280.5Z" stroke="#172C51" stroke-width="2.29167" stroke-linecap="round" stroke-linejoin="round" stroke-miterlimit="10" stroke-dasharray="6.875 9.16667 0 9.16667" stroke-opacity="0.768627" fill="none" fill-rule="evenodd"/><path d="M2534 1223C2534 1213.61 2541.61 1206 2551 1206L2639 1206C2648.39 1206 2656 1213.61 2656 1223L2656 1291C2656 1300.39 2648.39 1308 2639 1308L2551 1308C2541.61 1308 2534 1300.39 2534 1291Z" stroke="#172C51" stroke-width="2.29167" stroke-linecap="round" stroke-linejoin="round" stroke-miterlimit="10" stroke-dasharray="6.875 9.16667 0 9.16667" stroke-opacity="0.768627" fill="none" fill-rule="evenodd"/><text font-family="Source Han Serif SC SemiBold,Source Han Serif SC SemiBold_MSFontService,sans-serif" font-weight="600" font-size="14" transform="matrix(1 0 0 1 2378.18 1142)">酰基</text><text font-family="Source Han Serif SC SemiBold,Source Han Serif SC SemiBold_MSFontService,sans-serif" font-weight="600" font-size="14" transform="matrix(1 0 0 1 2543.94 1229)">胺基</text><text font-family="Source Han Serif SC SemiBold,Source Han Serif SC SemiBold_MSFontService,sans-serif" font-weight="600" font-size="28" transform="matrix(1 0 0 1 2493.66 1365)">酰胺</text></g></svg>