<svg width="289" height="306" xmlns="http://www.w3.org/2000/svg" xmlns:xlink="http://www.w3.org/1999/xlink" xml:space="preserve" overflow="hidden"><g transform="translate(-1994 -816)"><text font-family="Times New Roman,Times New Roman_MSFontService,sans-serif" font-weight="400" font-size="45" transform="matrix(1 0 0 1 2027 877)">H</text><text font-family="Times New Roman,Times New Roman_MSFontService,sans-serif" font-weight="400" font-size="28" transform="matrix(1 0 0 1 2059.08 883)">2</text><text font-family="Times New Roman,Times New Roman_MSFontService,sans-serif" font-weight="400" font-size="45" transform="matrix(1 0 0 1 2072.83 877)">C</text><path d="M2089 888 2089 941 2087 941 2085 941 2085 888 2087 888Z" fill-rule="evenodd"/><text font-family="Times New Roman,Times New Roman_MSFontService,sans-serif" font-weight="400" font-size="45" transform="matrix(1 0 0 1 2034.63 981)">HC</text><path d="M2108 859 2177 859 2177 860.5 2177 862 2108 862 2108 860.5Z" fill-rule="evenodd"/><text font-family="Times New Roman,Times New Roman_MSFontService,sans-serif" font-weight="400" font-size="45" transform="matrix(1 0 0 1 2181.48 876)">OH</text><path d="M2108 964 2177 964 2177 965.5 2177 967 2108 967 2108 965.5Z" fill-rule="evenodd"/><text font-family="Times New Roman,Times New Roman_MSFontService,sans-serif" font-weight="400" font-size="45" transform="matrix(1 0 0 1 2181.48 981)">OH</text><path d="M2089 991 2089 1044 2087 1044 2085 1044 2085 991 2087 991Z" fill-rule="evenodd"/><path d="M2108 1066 2177 1066 2177 1068 2177 1070 2108 1070 2108 1068Z" fill-rule="evenodd"/><text font-family="Times New Roman,Times New Roman_MSFontService,sans-serif" font-weight="400" font-size="45" transform="matrix(1 0 0 1 2181.48 1085)">OH</text><text font-family="Times New Roman,Times New Roman_MSFontService,sans-serif" font-weight="400" font-size="45" transform="matrix(1 0 0 1 2027 1084)">H</text><text font-family="Times New Roman,Times New Roman_MSFontService,sans-serif" font-weight="400" font-size="28" transform="matrix(1 0 0 1 2059.08 1090)">2</text><text font-family="Times New Roman,Times New Roman_MSFontService,sans-serif" font-weight="400" font-size="45" transform="matrix(1 0 0 1 2072.83 1084)">C</text></g></svg>