<?xml version="1.0" standalone='no'?><!-- IBoard SVG File --><svg xmlns="http://www.w3.org/2000/svg" xmlns:xlink="http://www.w3.org/1999/xlink" viewBox="-230.25 54.27 115.06 100.83" height="93.83" width="122.06" version="1.1"><!-- SVG File --><text xml:space="preserve" x="-230.250732" y="81.861450" textLength="21.956667" lengthAdjust="spacingAndGlyphs"><tspan font-family="Times New Roman" font-weight="normal" baseline-shift="0" font-size="13" fill="#000000">H</tspan><tspan font-family="Times New Roman" font-weight="normal" baseline-shift="-2" font-size="8" fill="#000000">2</tspan><tspan font-family="Times New Roman" font-weight="normal" baseline-shift="0" font-size="13" fill="#000000">C</tspan></text><polygon points="-212.039474,84.888222 -212.039474,101.465622 -212.629074,101.465622 -213.218674,101.465622 -213.218674,84.888222 -212.629074,84.888222 " style="fill:rgb(0,0,0);fill-opacity:1.000000"/><text xml:space="preserve" x="-226.350739" y="113.031281" textLength="18.056667" lengthAdjust="spacingAndGlyphs"><tspan font-family="Times New Roman" font-weight="normal" baseline-shift="0" font-size="13" fill="#000000">H</tspan><tspan font-family="Times New Roman" font-weight="normal" baseline-shift="0" font-size="13" fill="#000000">C</tspan></text><polygon points="-207.114853,77.847153 -189.021301,77.847153 -189.021301,78.436760 -189.021301,79.026367 -207.114853,79.026367 -207.114853,78.436760 " style="fill:rgb(0,0,0);fill-opacity:1.000000"/><text xml:space="preserve" x="-187.842087" y="83.550957" textLength="9.386666" lengthAdjust="spacingAndGlyphs"><tspan font-family="Times New Roman" font-weight="normal" baseline-shift="0" font-size="13" fill="#000000">O</tspan></text><polygon points="-207.114853,107.327477 -189.021301,107.327477 -189.021301,107.917084 -189.021301,108.506691 -207.114853,108.506691 -207.114853,107.917084 " style="fill:rgb(0,0,0);fill-opacity:1.000000"/><text xml:space="preserve" x="-187.842087" y="113.031281" textLength="9.386666" lengthAdjust="spacingAndGlyphs"><tspan font-family="Times New Roman" font-weight="normal" baseline-shift="0" font-size="13" fill="#000000">O</tspan></text><polygon points="-212.039474,114.368546 -212.039474,130.945938 -212.629074,130.945938 -213.218674,130.945938 -213.218674,114.368546 -212.629074,114.368546 " style="fill:rgb(0,0,0);fill-opacity:1.000000"/><text xml:space="preserve" x="-230.250732" y="140.822083" textLength="21.956667" lengthAdjust="spacingAndGlyphs"><tspan font-family="Times New Roman" font-weight="normal" baseline-shift="0" font-size="13" fill="#000000">H</tspan><tspan font-family="Times New Roman" font-weight="normal" baseline-shift="-2" font-size="8" fill="#000000">2</tspan><tspan font-family="Times New Roman" font-weight="normal" baseline-shift="0" font-size="13" fill="#000000">C</tspan></text><polygon points="-207.114853,136.807800 -189.021301,136.807800 -189.021301,137.397400 -189.021301,137.987000 -207.114853,137.987000 -207.114853,137.397400 " style="fill:rgb(0,0,0);fill-opacity:1.000000"/><text xml:space="preserve" x="-187.842087" y="142.511597" textLength="9.386666" lengthAdjust="spacingAndGlyphs"><tspan font-family="Times New Roman" font-weight="normal" baseline-shift="0" font-size="13" fill="#000000">O</tspan></text><polygon points="-177.276199,77.847153 -159.182663,77.847153 -159.182663,78.436760 -159.182663,79.026367 -177.276199,79.026367 -177.276199,78.436760 " style="fill:rgb(0,0,0);fill-opacity:1.000000"/><text xml:space="preserve" x="-158.003448" y="83.550957" textLength="8.670000" lengthAdjust="spacingAndGlyphs"><tspan font-family="Times New Roman" font-weight="normal" baseline-shift="0" font-size="13" fill="#000000">C</tspan></text><polygon points="-177.276199,107.327477 -159.182663,107.327477 -159.182663,107.917084 -159.182663,108.506691 -177.276199,108.506691 -177.276199,107.917084 " style="fill:rgb(0,0,0);fill-opacity:1.000000"/><text xml:space="preserve" x="-158.003448" y="113.031281" textLength="8.670000" lengthAdjust="spacingAndGlyphs"><tspan font-family="Times New Roman" font-weight="normal" baseline-shift="0" font-size="13" fill="#000000">C</tspan></text><polygon points="-177.276199,136.807800 -159.182663,136.807800 -159.182663,137.397400 -159.182663,137.987000 -177.276199,137.987000 -177.276199,137.397400 " style="fill:rgb(0,0,0);fill-opacity:1.000000"/><text xml:space="preserve" x="-158.003448" y="142.511597" textLength="8.670000" lengthAdjust="spacingAndGlyphs"><tspan font-family="Times New Roman" font-weight="normal" baseline-shift="0" font-size="13" fill="#000000">C</tspan></text><polygon points="-155.391907,71.985298 -155.391907,65.990585 -154.802307,65.990585 -154.212708,65.990585 -154.212708,71.985298 -154.802307,71.985298 " style="fill:rgb(0,0,0);fill-opacity:1.000000"/><polygon points="-153.124176,71.985298 -153.124176,65.990585 -152.534576,65.990585 -151.944977,65.990585 -151.944977,71.985298 -152.534576,71.985298 " style="fill:rgb(0,0,0);fill-opacity:1.000000"/><text xml:space="preserve" x="-158.361786" y="64.653320" textLength="9.386666" lengthAdjust="spacingAndGlyphs"><tspan font-family="Times New Roman" font-weight="normal" baseline-shift="0" font-size="13" fill="#000000">O</tspan></text><polygon points="-155.391907,101.465622 -155.391907,95.470909 -154.802307,95.470909 -154.212708,95.470909 -154.212708,101.465622 -154.802307,101.465622 " style="fill:rgb(0,0,0);fill-opacity:1.000000"/><polygon points="-153.124176,101.465622 -153.124176,95.470909 -152.534576,95.470909 -151.944977,95.470909 -151.944977,101.465622 -152.534576,101.465622 " style="fill:rgb(0,0,0);fill-opacity:1.000000"/><text xml:space="preserve" x="-158.361786" y="94.133644" textLength="9.386666" lengthAdjust="spacingAndGlyphs"><tspan font-family="Times New Roman" font-weight="normal" baseline-shift="0" font-size="13" fill="#000000">O</tspan></text><polygon points="-155.391907,130.945938 -155.391907,124.951225 -154.802307,124.951225 -154.212708,124.951225 -154.212708,130.945938 -154.802307,130.945938 " style="fill:rgb(0,0,0);fill-opacity:1.000000"/><polygon points="-153.124176,130.945938 -153.124176,124.951225 -152.534576,124.951225 -151.944977,124.951225 -151.944977,130.945938 -152.534576,130.945938 " style="fill:rgb(0,0,0);fill-opacity:1.000000"/><text xml:space="preserve" x="-158.361786" y="123.613960" textLength="9.386666" lengthAdjust="spacingAndGlyphs"><tspan font-family="Times New Roman" font-weight="normal" baseline-shift="0" font-size="13" fill="#000000">O</tspan></text><polygon points="-148.154236,77.847153 -132.725967,77.847153 -132.725967,78.436760 -132.725967,79.026367 -148.154236,79.026367 -148.154236,78.436760 " style="fill:rgb(0,0,0);fill-opacity:1.000000"/><text xml:space="preserve" x="-131.546753" y="83.550957" textLength="8.670000" lengthAdjust="spacingAndGlyphs"><tspan font-family="Times New Roman" font-weight="normal" baseline-shift="0" font-size="13" fill="#000000">R</tspan></text><polygon points="-148.154236,107.327477 -132.725967,107.327477 -132.725967,107.917084 -132.725967,108.506691 -148.154236,108.506691 -148.154236,107.917084 " style="fill:rgb(0,0,0);fill-opacity:1.000000"/><text xml:space="preserve" x="-131.546753" y="113.996323" textLength="11.013333" lengthAdjust="spacingAndGlyphs"><tspan font-family="Times New Roman" font-weight="normal" baseline-shift="0" font-size="13" fill="#000000">R</tspan><tspan font-family="Times New Roman" font-weight="normal" baseline-shift="0" font-size="13" fill="#000000">'</tspan></text><polygon points="-148.154236,136.807800 -132.725967,136.807800 -132.725967,137.397400 -132.725967,137.987000 -148.154236,137.987000 -148.154236,137.397400 " style="fill:rgb(0,0,0);fill-opacity:1.000000"/><text xml:space="preserve" x="-131.546753" y="143.476639" textLength="13.356667" lengthAdjust="spacingAndGlyphs"><tspan font-family="Times New Roman" font-weight="normal" baseline-shift="0" font-size="13" fill="#000000">R</tspan><tspan font-family="Times New Roman" font-weight="normal" baseline-shift="0" font-size="13" fill="#000000">'</tspan><tspan font-family="Times New Roman" font-weight="normal" baseline-shift="0" font-size="13" fill="#000000">'</tspan></text></svg>