<svg width="1253" height="286" xmlns="http://www.w3.org/2000/svg" xmlns:xlink="http://www.w3.org/1999/xlink" xml:space="preserve" overflow="hidden"><g transform="translate(-1476 -969)"><path d="M1936 1103 2166 1103" stroke="#000000" stroke-width="4.13691" stroke-miterlimit="8" fill="none" fill-rule="evenodd"/><path d="M2201 1103 2159 1094 2165.3 1103 2159 1112Z" fill-rule="evenodd"/><text font-family="Source Han Serif SC Medium,Source Han Serif SC Medium_MSFontService,sans-serif" font-weight="500" font-size="45" transform="matrix(1 0 0 1 1980.79 1067)">浓</text><text font-family="Source Han Serif SC Medium,Source Han Serif SC Medium_MSFontService,sans-serif" font-weight="500" font-size="45" transform="matrix(1 0 0 1 2025.48 1067)">H</text><text font-family="Source Han Serif SC Medium,Source Han Serif SC Medium_MSFontService,sans-serif" font-weight="500" font-size="28" transform="matrix(1 0 0 1 2063.87 1073)">2</text><text font-family="Source Han Serif SC Medium,Source Han Serif SC Medium_MSFontService,sans-serif" font-weight="500" font-size="45" transform="matrix(1 0 0 1 2079.33 1067)">SO</text><text font-family="Source Han Serif SC Medium,Source Han Serif SC Medium_MSFontService,sans-serif" font-weight="500" font-size="28" transform="matrix(1 0 0 1 2139.49 1073)">4</text><text font-family="Source Han Serif SC Medium,Source Han Serif SC Medium_MSFontService,sans-serif" font-weight="500" font-size="45" transform="matrix(1 0 0 1 2007.38 1157)">170</text><text font-family="Source Han Serif SC Medium,Source Han Serif SC Medium_MSFontService,sans-serif" font-weight="500" font-size="45" transform="matrix(1 0 0 1 2078.99 1157)">℃</text><text font-family="Source Han Serif SC Medium,Source Han Serif SC Medium_MSFontService,sans-serif" font-weight="500" font-size="45" transform="matrix(1 0 0 1 2606.48 1117)">H</text><text font-family="Source Han Serif SC Medium,Source Han Serif SC Medium_MSFontService,sans-serif" font-weight="500" font-size="28" transform="matrix(1 0 0 1 2644.87 1123)">2</text><text font-family="Source Han Serif SC Medium,Source Han Serif SC Medium_MSFontService,sans-serif" font-weight="500" font-size="45" transform="matrix(1 0 0 1 2660.34 1117)">O</text><text font-family="Source Han Serif SC Medium,Source Han Serif SC Medium_MSFontService,sans-serif" font-weight="500" font-size="45" transform="matrix(1 0 0 1 2547.82 1122)">+</text><text font-family="Source Han Serif SC Medium,Source Han Serif SC Medium_MSFontService,sans-serif" font-weight="500" font-size="45" transform="matrix(1 0 0 1 1612.91 1118)">C</text><path d="M1650 1098.07 1711.99 1098 1712 1099.46 1712 1100.93 1650.01 1101 1650 1099.54Z" fill-rule="evenodd"/><text font-family="Source Han Serif SC Medium,Source Han Serif SC Medium_MSFontService,sans-serif" font-weight="500" font-size="45" transform="matrix(1 0 0 1 1716.34 1118)">C</text><path d="M1630.88 1123 1631 1173.99 1628.56 1174 1626.12 1174 1626 1123.01 1628.44 1123Z" fill-rule="evenodd"/><text font-family="Source Han Serif SC Medium,Source Han Serif SC Medium_MSFontService,sans-serif" font-weight="500" font-size="45" transform="matrix(1 0 0 1 1613.09 1214)">H</text><path d="M1627.09 1079 1627 1028.01 1628.95 1028 1630.91 1028 1631 1078.99 1629.04 1079Z" fill-rule="evenodd"/><text font-family="Source Han Serif SC Medium,Source Han Serif SC Medium_MSFontService,sans-serif" font-weight="500" font-size="45" transform="matrix(1 0 0 1 1612.74 1029)">H</text><path d="M1609 1101.9 1547.01 1102 1547 1100.05 1547 1098.1 1608.99 1098 1609 1099.95Z" fill-rule="evenodd"/><text font-family="Source Han Serif SC Medium,Source Han Serif SC Medium_MSFontService,sans-serif" font-weight="500" font-size="45" transform="matrix(1 0 0 1 1509.49 1122)">H</text><path d="M1731.09 1079 1731 1027.01 1732.96 1027 1734.91 1027 1735 1078.99 1733.04 1079Z" fill-rule="evenodd"/><text font-family="Source Han Serif SC Medium,Source Han Serif SC Medium_MSFontService,sans-serif" font-weight="500" font-size="45" transform="matrix(1 0 0 1 1716.16 1029)">H</text><text font-family="Source Han Serif SC Medium,Source Han Serif SC Medium_MSFontService,sans-serif" font-weight="500" font-size="45" transform="matrix(1 0 0 1 1714.99 1216)">O</text><path d="M1753 1098 1816 1098 1816 1099.5 1816 1101 1753 1101 1753 1099.5Z" fill-rule="evenodd"/><text font-family="Source Han Serif SC Medium,Source Han Serif SC Medium_MSFontService,sans-serif" font-weight="500" font-size="45" transform="matrix(1 0 0 1 1819.76 1121)">H</text><path d="M1755 1199 1816 1199 1816 1201 1816 1203 1755 1203 1755 1201Z" fill-rule="evenodd"/><text font-family="Source Han Serif SC Medium,Source Han Serif SC Medium_MSFontService,sans-serif" font-weight="500" font-size="45" transform="matrix(1 0 0 1 1819.69 1217)">H</text><text font-family="Source Han Serif SC Medium,Source Han Serif SC Medium_MSFontService,sans-serif" font-weight="500" font-size="45" transform="matrix(1 0 0 1 2390.96 1115)">CH</text><text font-family="Source Han Serif SC Medium,Source Han Serif SC Medium_MSFontService,sans-serif" font-weight="500" font-size="28" transform="matrix(1 0 0 1 2460.28 1121)">2</text><path d="M2387 1106 2325 1106 2325 1104 2325 1102 2387 1102 2387 1104Z" fill-rule="evenodd"/><path d="M2387 1095 2325 1095 2325 1093 2325 1091 2387 1091 2387 1093Z" fill-rule="evenodd"/><text font-family="Source Han Serif SC Medium,Source Han Serif SC Medium_MSFontService,sans-serif" font-weight="500" font-size="45" transform="matrix(1 0 0 1 2239.39 1115)">H</text><text font-family="Source Han Serif SC Medium,Source Han Serif SC Medium_MSFontService,sans-serif" font-weight="500" font-size="28" transform="matrix(1 0 0 1 2277.77 1121)">2</text><text font-family="Source Han Serif SC Medium,Source Han Serif SC Medium_MSFontService,sans-serif" font-weight="500" font-size="45" transform="matrix(1 0 0 1 2293.24 1115)">C</text><text font-family="Source Han Serif SC Medium,Source Han Serif SC Medium_MSFontService,sans-serif" font-weight="500" font-size="45" transform="matrix(1 0 0 1 2486.43 1120)">↑</text><path d="M1732.91 1123 1733 1173.99 1731.04 1174 1729.09 1174 1729 1123.01 1730.95 1123Z" fill-rule="evenodd"/><path d="M1596 1178C1596 1171.93 1600.93 1167 1607 1167L1856 1167C1862.07 1167 1867 1171.93 1867 1178L1867 1222C1867 1228.07 1862.07 1233 1856 1233L1607 1233C1600.93 1233 1596 1228.07 1596 1222Z" stroke="#000000" stroke-width="2.29167" stroke-miterlimit="8" stroke-dasharray="9.16667 6.875 2.29167 6.875" fill="none" fill-rule="evenodd"/></g></svg>