<svg width="488" height="237" xmlns="http://www.w3.org/2000/svg" xmlns:xlink="http://www.w3.org/1999/xlink" xml:space="preserve" overflow="hidden"><defs><clipPath id="clip0"><rect x="1956" y="1119" width="488" height="237"/></clipPath></defs><g clip-path="url(#clip0)" transform="translate(-1956 -1119)"><text font-family="Times New Roman,Times New Roman_MSFontService,sans-serif" font-weight="400" font-size="13" transform="matrix(3.12461 0 0 3.12294 1988.99 1229)">H</text><text font-family="Times New Roman,Times New Roman_MSFontService,sans-serif" font-weight="400" font-size="8" transform="matrix(3.12461 0 0 3.12294 2017.11 1229)">2</text><text font-family="Times New Roman,Times New Roman_MSFontService,sans-serif" font-weight="400" font-size="13" transform="matrix(3.12461 0 0 3.12294 2029.61 1229)">C</text><text font-family="Times New Roman,Times New Roman_MSFontService,sans-serif" font-weight="400" font-size="13" transform="matrix(3.12461 0 0 3.12294 2054.61 1229)">H</text><text font-family="Times New Roman,Times New Roman_MSFontService,sans-serif" font-weight="400" font-size="8" transform="matrix(3.12461 0 0 3.12294 2082.73 1229)">2</text><text font-family="Times New Roman,Times New Roman_MSFontService,sans-serif" font-weight="400" font-size="13" transform="matrix(3.12461 0 0 3.12294 2095.23 1229)">C</text><text font-family="Times New Roman,Times New Roman_MSFontService,sans-serif" font-weight="400" font-size="13" transform="matrix(3.12461 0 0 3.12294 2120.22 1229)">H</text><text font-family="Times New Roman,Times New Roman_MSFontService,sans-serif" font-weight="400" font-size="8" transform="matrix(3.12461 0 0 3.12294 2148.34 1229)">3</text><text font-family="Times New Roman,Times New Roman_MSFontService,sans-serif" font-weight="400" font-size="13" transform="matrix(3.12461 0 0 3.12294 2160.84 1229)">C</text><path d="M1184.91 822.749 1233.1 822.749 1233.1 824.59 1233.1 826.432 1184.91 826.432 1184.91 824.59Z" transform="matrix(1.00053 0 0 1 1012.94 393.509)"/><text font-family="Times New Roman,Times New Roman_MSFontService,sans-serif" font-weight="400" font-size="13" transform="matrix(3.12461 0 0 3.12294 2250.38 1234)">C</text><path d="M1248.48 804.443 1248.48 762.115 1250.32 762.115 1252.16 762.115 1252.16 804.443 1250.32 804.443Z" transform="matrix(1.00053 0 0 1 1012.94 393.509)"/><text font-family="Times New Roman,Times New Roman_MSFontService,sans-serif" font-weight="400" font-size="13" transform="matrix(3.12461 0 0 3.12294 2243.62 1151)">Br</text><path d="M1252.16 844.738 1252.16 887.066 1250.32 887.066 1248.48 887.066 1248.48 844.738 1250.32 844.738Z" transform="matrix(1.00053 0 0 1 1012.94 393.509)"/><text font-family="Times New Roman,Times New Roman_MSFontService,sans-serif" font-weight="400" font-size="13" transform="matrix(3.12461 0 0 3.12294 2250.38 1311)">C</text><text font-family="Times New Roman,Times New Roman_MSFontService,sans-serif" font-weight="400" font-size="13" transform="matrix(3.12461 0 0 3.12294 2275.38 1311)">H</text><text font-family="Times New Roman,Times New Roman_MSFontService,sans-serif" font-weight="400" font-size="8" transform="matrix(3.12461 0 0 3.12294 2303.5 1311)">2</text><text font-family="Times New Roman,Times New Roman_MSFontService,sans-serif" font-weight="400" font-size="13" transform="matrix(3.12461 0 0 3.12294 2316 1311)">C</text><text font-family="Times New Roman,Times New Roman_MSFontService,sans-serif" font-weight="400" font-size="13" transform="matrix(3.12461 0 0 3.12294 2341 1311)">H</text><text font-family="Times New Roman,Times New Roman_MSFontService,sans-serif" font-weight="400" font-size="8" transform="matrix(3.12461 0 0 3.12294 2369.12 1311)">3</text><path d="M1267.54 822.749 1315.72 822.749 1315.72 824.59 1315.72 826.432 1267.54 826.432 1267.54 824.59Z" transform="matrix(1.00053 0 0 1 1012.94 393.509)"/><text font-family="Times New Roman,Times New Roman_MSFontService,sans-serif" font-weight="400" font-size="13" transform="matrix(3.12461 0 0 3.12294 2333.05 1229)">C</text><text font-family="Times New Roman,Times New Roman_MSFontService,sans-serif" font-weight="400" font-size="13" transform="matrix(3.12461 0 0 3.12294 2358.05 1229)">H</text><text font-family="Times New Roman,Times New Roman_MSFontService,sans-serif" font-weight="400" font-size="8" transform="matrix(3.12461 0 0 3.12294 2386.17 1229)">3</text><text font-family="Cambria Math,Cambria Math_MSFontService,sans-serif" font-weight="400" font-size="18" transform="matrix(1 0 0 1 2241.25 1203)">𝛼</text><text font-family="Cambria Math,Cambria Math_MSFontService,sans-serif" font-weight="400" font-size="18" transform="matrix(1 0 0 1 2327.19 1204)">𝛽</text><text font-family="Cambria Math,Cambria Math_MSFontService,sans-serif" font-weight="400" font-size="18" transform="matrix(1 0 0 1 2244.69 1285)">𝛽</text><text font-family="Cambria Math,Cambria Math_MSFontService,sans-serif" font-weight="400" font-size="18" transform="matrix(1 0 0 1 2155.31 1204)">𝛽</text></g></svg>