<?xml version="1.0" standalone='no'?><!-- IBoard SVG File --><svg xmlns="http://www.w3.org/2000/svg" xmlns:xlink="http://www.w3.org/1999/xlink" viewBox="699.25 386.64 579.25 208.59" height="201.59" width="586.25" version="1.1"><!-- SVG File --><polygon points="723.498230,431.594574 746.410278,418.366302 747.000000,418.706635 747.000000,419.387451 724.677429,432.275421 724.087830,431.934998 " style="fill:rgb(0,0,0);fill-opacity:1.000000"/><polygon points="747.589478,418.366150 770.501770,431.594574 769.912170,431.934998 769.322571,432.275421 747.000000,419.387451 747.000000,418.706635 " style="fill:rgb(0,0,0);fill-opacity:1.000000"/><polygon points="747.294800,421.861938 767.032166,433.257355 766.737366,433.767975 766.442566,434.278595 746.705200,422.883179 747.000000,422.372559 " style="fill:rgb(0,0,0);fill-opacity:1.000000"/><polygon points="770.501770,431.594574 770.501770,458.732147 769.912170,458.391724 769.322571,458.051300 769.322571,432.275421 769.912170,431.934998 " style="fill:rgb(0,0,0);fill-opacity:1.000000"/><polygon points="770.501770,458.732147 746.999939,472.300842 746.999939,471.620026 746.999939,470.939209 769.322571,458.051300 769.912170,458.391724 " style="fill:rgb(0,0,0);fill-opacity:1.000000"/><polygon points="767.032166,457.069366 747.294739,468.464722 746.999939,467.954102 746.705139,467.443481 766.442566,456.048126 766.737366,456.558746 " style="fill:rgb(0,0,0);fill-opacity:1.000000"/><polygon points="746.999939,472.300842 723.498169,458.732056 724.087769,458.391632 724.677368,458.051208 746.999939,470.939209 746.999939,471.620026 " style="fill:rgb(0,0,0);fill-opacity:1.000000"/><polygon points="723.498169,458.732056 723.498230,431.594574 724.087830,431.934998 724.677429,432.275421 724.677368,458.051208 724.087769,458.391632 " style="fill:rgb(0,0,0);fill-opacity:1.000000"/><polygon points="726.672974,456.558655 726.673035,433.767975 727.262634,433.767975 727.852234,433.767975 727.852173,456.558655 727.262573,456.558655 " style="fill:rgb(0,0,0);fill-opacity:1.000000"/><polygon points="746.410278,418.366302 746.402466,398.701630 746.992065,398.701385 747.581665,398.701141 747.589478,418.366150 747.000000,418.706635 " style="fill:rgb(0,0,0);fill-opacity:1.000000"/><text xml:space="preserve" x="742.296143" y="397.364136" textLength="18.773333" lengthAdjust="spacingAndGlyphs"><tspan font-family="Times New Roman" font-weight="normal" baseline-shift="0" font-size="13" fill="#000000">O</tspan><tspan font-family="Times New Roman" font-weight="normal" baseline-shift="0" font-size="13" fill="#000000">H</tspan></text><text xml:space="preserve" x="879.331726" y="450.141693" textLength="8.670000" lengthAdjust="spacingAndGlyphs"><tspan font-family="Times New Roman" font-weight="normal" baseline-shift="0" font-size="13" fill="#000000">C</tspan></text><polygon points="881.489746,438.576050 881.489746,425.022247 882.079346,425.022247 882.668945,425.022247 882.668945,438.576050 882.079346,438.576050 " style="fill:rgb(0,0,0);fill-opacity:1.000000"/><polygon points="884.664551,438.576050 884.664551,425.022247 885.254150,425.022247 885.843750,425.022247 885.843750,438.576050 885.254150,438.576050 " style="fill:rgb(0,0,0);fill-opacity:1.000000"/><text xml:space="preserve" x="878.973450" y="423.684998" textLength="9.386666" lengthAdjust="spacingAndGlyphs"><tspan font-family="Times New Roman" font-weight="normal" baseline-shift="0" font-size="13" fill="#000000">O</tspan></text><polygon points="878.152527,445.617096 863.082642,445.617096 863.082642,445.027496 863.082642,444.437897 878.152527,444.437897 878.152527,445.027496 " style="fill:rgb(0,0,0);fill-opacity:1.000000"/><text xml:space="preserve" x="852.516785" y="450.141693" textLength="9.386666" lengthAdjust="spacingAndGlyphs"><tspan font-family="Times New Roman" font-weight="normal" baseline-shift="0" font-size="13" fill="#000000">H</tspan></text><polygon points="889.180908,444.437897 904.250916,444.437897 904.250916,445.027496 904.250916,445.617096 889.180908,445.617096 889.180908,445.027496 " style="fill:rgb(0,0,0);fill-opacity:1.000000"/><text xml:space="preserve" x="905.430115" y="450.141693" textLength="9.386666" lengthAdjust="spacingAndGlyphs"><tspan font-family="Times New Roman" font-weight="normal" baseline-shift="0" font-size="13" fill="#000000">H</tspan></text><polygon points="1051.581665,431.260132 1074.493652,418.031891 1075.083374,418.372223 1075.083374,419.053040 1052.760864,431.940979 1052.171265,431.600555 " style="fill:rgb(0,0,0);fill-opacity:1.000000"/><polygon points="1075.672852,418.031738 1098.153442,431.010956 1097.995483,431.600555 1097.405884,431.940979 1075.083374,419.053040 1075.083374,418.372223 " style="fill:rgb(0,0,0);fill-opacity:1.000000"/><polygon points="1075.378174,421.527527 1095.115479,432.922913 1094.820679,433.433533 1094.525879,433.944153 1074.788574,422.548767 1075.083374,422.038147 " style="fill:rgb(0,0,0);fill-opacity:1.000000"/><polygon points="1098.585083,432.190155 1098.585083,458.397705 1097.995483,458.057281 1097.405884,457.716858 1097.405884,431.940979 1097.995483,431.600555 " style="fill:rgb(0,0,0);fill-opacity:1.000000"/><polygon points="1098.585083,458.397705 1075.083252,471.966431 1075.083252,471.285614 1075.083374,470.604736 1097.405884,457.716858 1097.995483,458.057281 " style="fill:rgb(0,0,0);fill-opacity:1.000000"/><polygon points="1095.115479,456.734924 1075.378052,468.130249 1075.083252,467.619629 1074.788452,467.109009 1094.525879,455.713684 1094.820679,456.224304 " style="fill:rgb(0,0,0);fill-opacity:1.000000"/><polygon points="1075.083252,471.966400 1051.581543,458.397552 1052.171143,458.057159 1052.760742,457.716766 1075.083252,470.604706 1075.083252,471.285614 " style="fill:rgb(0,0,0);fill-opacity:1.000000"/><polygon points="1051.581543,458.397552 1051.581665,431.260162 1052.171265,431.600555 1052.760864,431.940948 1052.760742,457.716766 1052.171143,458.057159 " style="fill:rgb(0,0,0);fill-opacity:1.000000"/><polygon points="1054.756348,456.224213 1054.756470,433.433502 1055.346069,433.433502 1055.935669,433.433502 1055.935547,456.224213 1055.345947,456.224213 " style="fill:rgb(0,0,0);fill-opacity:1.000000"/><polygon points="1074.493652,418.031891 1074.485962,398.367218 1075.075562,398.366974 1075.665161,398.366730 1075.672852,418.031738 1075.083374,418.372223 " style="fill:rgb(0,0,0);fill-opacity:1.000000"/><text xml:space="preserve" x="1070.379639" y="397.029724" textLength="18.773333" lengthAdjust="spacingAndGlyphs"><tspan font-family="Times New Roman" font-weight="normal" baseline-shift="0" font-size="13" fill="#000000">O</tspan><tspan font-family="Times New Roman" font-weight="normal" baseline-shift="0" font-size="13" fill="#000000">H</tspan></text><polygon points="1098.153442,431.010956 1118.937988,431.010956 1118.937988,431.600555 1118.937988,432.190155 1098.585083,432.190155 1097.995483,431.600555 " style="fill:rgb(0,0,0);fill-opacity:1.000000"/><text xml:space="preserve" x="1120.117188" y="435.025238" textLength="40.730000" lengthAdjust="spacingAndGlyphs"><tspan font-family="Times New Roman" font-weight="normal" baseline-shift="0" font-size="13" fill="#000000">C</tspan><tspan font-family="Times New Roman" font-weight="normal" baseline-shift="0" font-size="13" fill="#000000">H</tspan><tspan font-family="Times New Roman" font-weight="normal" baseline-shift="-2" font-size="8" fill="#000000">2</tspan><tspan font-family="Times New Roman" font-weight="normal" baseline-shift="0" font-size="13" fill="#000000">O</tspan><tspan font-family="Times New Roman" font-weight="normal" baseline-shift="0" font-size="13" fill="#000000">H</tspan></text><text xml:space="preserve" x="813.666748" y="436.274170" textLength="7.330000" lengthAdjust="spacingAndGlyphs"><tspan font-family="Times New Roman" font-weight="normal" baseline-shift="0" font-size="13" fill="#000000">+</tspan></text><text xml:space="preserve" x="971.651917" y="423.118164" textLength="13.786667" lengthAdjust="spacingAndGlyphs"><tspan font-family="Times New Roman" font-weight="normal" baseline-shift="0" font-size="13" fill="#000000">H</tspan><tspan font-family="Times New Roman" font-weight="normal" baseline-shift="6" font-size="8" fill="#000000">+</tspan></text><text xml:space="preserve" x="971.651917" y="451.224182" textLength="7.800000" lengthAdjust="spacingAndGlyphs"><tspan font-family="Times New Roman" font-weight="normal" baseline-shift="0" font-size="13" fill="#000000">△</tspan></text><line x1="940.75" y1="431.79913" x2="1006.3173" y2="431.79913" style="stroke:rgb(0,0,0);stroke-width:1.179213;stroke-opacity:1.000000" stroke-linecap="butt"/><polygon points="1016.340576,431.799133 1004.548462,428.851105 1006.317261,431.799133 1004.548462,434.747162 " style="fill:rgb(0,0,0);fill-opacity:1.000000"/><text xml:space="preserve" x="742.296265" y="505.310760" textLength="18.773333" lengthAdjust="spacingAndGlyphs"><tspan font-family="Times New Roman" font-weight="normal" baseline-shift="0" font-size="13" fill="#000000">O</tspan><tspan font-family="Times New Roman" font-weight="normal" baseline-shift="0" font-size="13" fill="#000000">H</tspan></text><text xml:space="preserve" x="792.033752" y="543.306213" textLength="40.730000" lengthAdjust="spacingAndGlyphs"><tspan font-family="Times New Roman" font-weight="normal" baseline-shift="0" font-size="13" fill="#000000">C</tspan><tspan font-family="Times New Roman" font-weight="normal" baseline-shift="0" font-size="13" fill="#000000">H</tspan><tspan font-family="Times New Roman" font-weight="normal" baseline-shift="-2" font-size="8" fill="#000000">2</tspan><tspan font-family="Times New Roman" font-weight="normal" baseline-shift="0" font-size="13" fill="#000000">O</tspan><tspan font-family="Times New Roman" font-weight="normal" baseline-shift="0" font-size="13" fill="#000000">H</tspan></text><polygon points="723.498291,539.541138 746.410278,526.312866 747.000000,526.653198 747.000000,527.334045 724.677490,540.221924 724.087891,539.881531 " style="fill:rgb(0,0,0);fill-opacity:1.000000"/><polygon points="747.589478,526.312683 770.070129,539.291931 769.912109,539.881531 769.322510,540.221924 747.000000,527.334045 747.000000,526.653198 " style="fill:rgb(0,0,0);fill-opacity:1.000000"/><polygon points="747.294800,529.808533 767.032104,541.203857 766.737305,541.714478 766.442505,542.225098 746.705200,530.829773 747.000000,530.319153 " style="fill:rgb(0,0,0);fill-opacity:1.000000"/><polygon points="770.501709,540.471130 770.501709,566.678650 769.912109,566.338257 769.322510,565.997864 769.322510,540.221924 769.912109,539.881531 " style="fill:rgb(0,0,0);fill-opacity:1.000000"/><polygon points="770.501709,566.678650 746.999878,580.247498 746.999878,579.566650 746.999878,578.885803 769.322510,565.997864 769.912109,566.338257 " style="fill:rgb(0,0,0);fill-opacity:1.000000"/><polygon points="767.032104,565.015930 747.294678,576.411316 746.999878,575.900696 746.705078,575.390076 766.442505,563.994690 766.737305,564.505310 " style="fill:rgb(0,0,0);fill-opacity:1.000000"/><polygon points="746.999878,580.247498 723.498169,566.678528 724.087769,566.338135 724.677368,565.997742 746.999878,578.885803 746.999878,579.566650 " style="fill:rgb(0,0,0);fill-opacity:1.000000"/><polygon points="723.498169,566.678528 723.498291,539.541138 724.087891,539.881531 724.677490,540.221924 724.677368,565.997742 724.087769,566.338135 " style="fill:rgb(0,0,0);fill-opacity:1.000000"/><polygon points="726.672974,564.505188 726.673096,541.714478 727.262695,541.714478 727.852295,541.714478 727.852173,564.505188 727.262573,564.505188 " style="fill:rgb(0,0,0);fill-opacity:1.000000"/><polygon points="746.410278,526.312866 746.402527,506.648254 746.992126,506.648010 747.581726,506.647766 747.589478,526.312683 747.000000,526.653198 " style="fill:rgb(0,0,0);fill-opacity:1.000000"/><polygon points="770.070129,539.291931 790.854553,539.291931 790.854553,539.881531 790.854553,540.471130 770.501709,540.471130 769.912109,539.881531 " style="fill:rgb(0,0,0);fill-opacity:1.000000"/><text xml:space="preserve" x="699.251709" y="544.555054" textLength="6.500000" lengthAdjust="spacingAndGlyphs"><tspan font-family="Times New Roman" font-weight="normal" baseline-shift="0" font-size="13" fill="#000000">n</tspan></text><text xml:space="preserve" x="889.088013" y="531.399170" textLength="13.786667" lengthAdjust="spacingAndGlyphs"><tspan font-family="Times New Roman" font-weight="normal" baseline-shift="0" font-size="13" fill="#000000">H</tspan><tspan font-family="Times New Roman" font-weight="normal" baseline-shift="6" font-size="8" fill="#000000">+</tspan></text><text xml:space="preserve" x="889.088013" y="559.505127" textLength="7.800000" lengthAdjust="spacingAndGlyphs"><tspan font-family="Times New Roman" font-weight="normal" baseline-shift="0" font-size="13" fill="#000000">△</tspan></text><line x1="858.1861" y1="540.08014" x2="923.75323" y2="540.08014" style="stroke:rgb(0,0,0);stroke-width:1.179213;stroke-opacity:1.000000" stroke-linecap="butt"/><polygon points="933.776672,540.080139 921.984436,537.132080 923.753235,540.080139 921.984436,543.028137 " style="fill:rgb(0,0,0);fill-opacity:1.000000"/><text xml:space="preserve" x="1077.890137" y="561.647034" textLength="6.500000" lengthAdjust="spacingAndGlyphs"><tspan font-family="Times New Roman" font-weight="normal" baseline-shift="0" font-size="13" fill="#000000">n</tspan></text><line x1="967.57727" y1="521.1825" x2="971.94641" y2="521.1825" style="stroke:rgb(0,0,0);stroke-width:1.179213;stroke-opacity:1.000000" stroke-linecap="butt"/><line x1="968.16687" y1="521.1825" x2="968.16687" y2="558.97778" style="stroke:rgb(0,0,0);stroke-width:1.179213;stroke-opacity:1.000000" stroke-linecap="butt"/><line x1="967.57727" y1="558.97778" x2="971.94641" y2="558.97778" style="stroke:rgb(0,0,0);stroke-width:1.179213;stroke-opacity:1.000000" stroke-linecap="butt"/><line x1="1066.5516" y1="521.18243" x2="1062.1825" y2="521.18243" style="stroke:rgb(0,0,0);stroke-width:1.179213;stroke-opacity:1.000000" stroke-linecap="butt"/><line x1="1065.962" y1="521.18243" x2="1065.962" y2="558.97772" style="stroke:rgb(0,0,0);stroke-width:1.179213;stroke-opacity:1.000000" stroke-linecap="butt"/><line x1="1066.5516" y1="558.97772" x2="1062.1825" y2="558.97772" style="stroke:rgb(0,0,0);stroke-width:1.179213;stroke-opacity:1.000000" stroke-linecap="butt"/><text xml:space="preserve" x="998.887695" y="505.310760" textLength="18.773333" lengthAdjust="spacingAndGlyphs"><tspan font-family="Times New Roman" font-weight="normal" baseline-shift="0" font-size="13" fill="#000000">O</tspan><tspan font-family="Times New Roman" font-weight="normal" baseline-shift="0" font-size="13" fill="#000000">H</tspan></text><text xml:space="preserve" x="1048.625244" y="529.403442" textLength="13.286667" lengthAdjust="spacingAndGlyphs"><tspan font-family="Times New Roman" font-weight="normal" baseline-shift="0" font-size="13" fill="#000000">H</tspan><tspan font-family="Times New Roman" font-weight="normal" baseline-shift="-2" font-size="8" fill="#000000">2</tspan></text><text xml:space="preserve"/><text xml:space="preserve" x="1048.625244" y="543.605957" textLength="8.670000" lengthAdjust="spacingAndGlyphs"><tspan font-family="Times New Roman" font-weight="normal" baseline-shift="0" font-size="13" fill="#000000">C</tspan></text><polygon points="980.521362,539.291870 1003.001709,526.312866 1003.591431,526.653198 1003.591431,527.334045 981.268921,540.221863 980.679321,539.881470 " style="fill:rgb(0,0,0);fill-opacity:1.000000"/><polygon points="1004.180908,526.312683 1026.661499,539.291870 1026.503540,539.881470 1025.913940,540.221863 1003.591431,527.334045 1003.591431,526.653198 " style="fill:rgb(0,0,0);fill-opacity:1.000000"/><polygon points="1003.886230,529.808533 1023.623535,541.203796 1023.328735,541.714417 1023.033936,542.225037 1003.296631,530.829773 1003.591431,530.319153 " style="fill:rgb(0,0,0);fill-opacity:1.000000"/><polygon points="1027.093140,540.471069 1027.093140,566.678711 1026.503540,566.338257 1025.913940,565.997803 1025.913940,540.221863 1026.503540,539.881470 " style="fill:rgb(0,0,0);fill-opacity:1.000000"/><polygon points="1027.093140,566.678711 1003.591309,580.247437 1003.591309,579.566528 1003.591309,578.885742 1025.913940,565.997803 1026.503540,566.338257 " style="fill:rgb(0,0,0);fill-opacity:1.000000"/><polygon points="1023.623535,565.015869 1003.886108,576.411255 1003.591309,575.900635 1003.296509,575.390015 1023.033936,563.994629 1023.328735,564.505249 " style="fill:rgb(0,0,0);fill-opacity:1.000000"/><polygon points="1003.591431,580.247375 980.089600,566.678528 980.679199,566.338135 981.268799,565.997742 1003.591309,578.885742 1003.591309,579.566528 " style="fill:rgb(0,0,0);fill-opacity:1.000000"/><polygon points="980.089600,566.678528 980.089722,540.471069 980.679321,539.881470 981.268921,540.221863 981.268799,565.997742 980.679199,566.338135 " style="fill:rgb(0,0,0);fill-opacity:1.000000"/><polygon points="983.264404,564.505188 983.264526,541.714478 983.854126,541.714478 984.443726,541.714478 984.443604,564.505188 983.854004,564.505188 " style="fill:rgb(0,0,0);fill-opacity:1.000000"/><polygon points="1003.001709,526.312866 1002.994019,506.648193 1003.583618,506.647949 1004.173218,506.647705 1004.180908,526.312683 1003.591431,526.653198 " style="fill:rgb(0,0,0);fill-opacity:1.000000"/><polygon points="1026.661499,539.291870 1047.446045,539.291870 1047.446045,539.881470 1047.446045,540.471069 1027.093140,540.471069 1026.503540,539.881470 " style="fill:rgb(0,0,0);fill-opacity:1.000000"/><polygon points="980.089722,540.471069 960.095215,540.471069 960.095215,539.881470 960.095215,539.291870 980.521362,539.291870 980.679321,539.881470 " style="fill:rgb(0,0,0);fill-opacity:1.000000"/><text xml:space="preserve" x="949.529358" y="544.995728" textLength="9.386666" lengthAdjust="spacingAndGlyphs"><tspan font-family="Times New Roman" font-weight="normal" baseline-shift="0" font-size="13" fill="#000000">H</tspan></text><polygon points="1058.474487,539.291870 1073.544312,539.291870 1073.544312,539.881470 1073.544312,540.471069 1058.474487,540.471069 1058.474487,539.881470 " style="fill:rgb(0,0,0);fill-opacity:1.000000"/><text xml:space="preserve" x="1074.723511" y="544.995728" textLength="18.773333" lengthAdjust="spacingAndGlyphs"><tspan font-family="Times New Roman" font-weight="normal" baseline-shift="0" font-size="13" fill="#000000">O</tspan><tspan font-family="Times New Roman" font-weight="normal" baseline-shift="0" font-size="13" fill="#000000">H</tspan></text><text xml:space="preserve" x="1143.833496" y="542.653137" textLength="51.913334" lengthAdjust="spacingAndGlyphs"><tspan font-family="Times New Roman" font-weight="normal" baseline-shift="0" font-size="13" fill="#000000">(n-1) H</tspan><tspan font-family="Times New Roman" font-weight="normal" baseline-shift="-2" font-size="8" fill="#000000">2</tspan><tspan font-family="Times New Roman" font-weight="normal" baseline-shift="0" font-size="13" fill="#000000">O</tspan></text><text xml:space="preserve" x="1118.500122" y="544.555115" textLength="7.330000" lengthAdjust="spacingAndGlyphs"><tspan font-family="Times New Roman" font-weight="normal" baseline-shift="0" font-size="13" fill="#000000">+</tspan></text><text xml:space="preserve" x="1262.500244" y="434.468414" textLength="13.000000" lengthAdjust="spacingAndGlyphs"><tspan font-family="Times New Roman" font-weight="normal" baseline-shift="0" font-size="13" fill="#000000">①</tspan></text><text xml:space="preserve" x="1262.500244" y="542.749390" textLength="13.000000" lengthAdjust="spacingAndGlyphs"><tspan font-family="Times New Roman" font-weight="normal" baseline-shift="0" font-size="13" fill="#000000">②</tspan></text></svg>