<svg width="2103" height="319" xmlns="http://www.w3.org/2000/svg" xmlns:xlink="http://www.w3.org/1999/xlink" xml:space="preserve" overflow="hidden"><defs><clipPath id="clip0"><rect x="1039" y="1078" width="2103" height="319"/></clipPath><clipPath id="clip1"><rect x="1258" y="1078" width="1884" height="319"/></clipPath><clipPath id="clip2"><rect x="1258" y="1078" width="1884" height="319"/></clipPath><clipPath id="clip3"><rect x="1258" y="1078" width="1884" height="319"/></clipPath></defs><g clip-path="url(#clip0)" transform="translate(-1039 -1078)"><g clip-path="url(#clip1)"><g clip-path="url(#clip2)"><g clip-path="url(#clip3)"><path d="M2367.61 1372.53 2440.47 1330.46 2442.35 1331.55 2442.35 1333.71 2371.36 1374.7 2369.48 1373.61Z" transform="matrix(1.00229 0 0 1 -1019.56 -152.651)"/><path d="M2444.22 1330.46 2517.09 1372.53 2515.21 1373.61 2513.34 1374.7 2442.35 1333.71 2442.35 1331.55Z" transform="matrix(1.00229 0 0 1 -1019.56 -152.651)"/><path d="M2443.29 1341.58 2506.05 1377.82 2505.12 1379.44 2504.18 1381.07 2441.41 1344.83 2442.35 1343.2Z" transform="matrix(1.00229 0 0 1 -1019.56 -152.651)"/><path d="M2517.09 1372.53 2517.09 1458.83 2515.21 1457.75 2513.34 1456.67 2513.34 1374.7 2515.21 1373.61Z" transform="matrix(1.00229 0 0 1 -1019.56 -152.651)"/><path d="M2517.09 1458.83 2442.35 1501.98 2442.35 1499.82 2442.35 1497.65 2513.34 1456.67 2515.21 1457.75Z" transform="matrix(1.00229 0 0 1 -1019.56 -152.651)"/><path d="M2506.05 1453.55 2443.29 1489.78 2442.35 1488.16 2441.41 1486.54 2504.18 1450.3 2505.12 1451.92Z" transform="matrix(1.00229 0 0 1 -1019.56 -152.651)"/><path d="M2442.35 1501.98 2367.61 1458.83 2369.48 1457.75 2371.36 1456.67 2442.35 1497.65 2442.35 1499.82Z" transform="matrix(1.00229 0 0 1 -1019.56 -152.651)"/><path d="M2367.61 1458.83 2367.61 1372.53 2369.48 1373.61 2371.36 1374.7 2371.36 1456.67 2369.48 1457.75Z" transform="matrix(1.00229 0 0 1 -1019.56 -152.651)"/><path d="M2377.71 1451.92 2377.71 1379.44 2379.58 1379.44 2381.46 1379.44 2381.46 1451.92 2379.58 1451.92Z" transform="matrix(1.00229 0 0 1 -1019.56 -152.651)"/><path d="M2440.47 1330.46 2440.45 1267.93 2442.32 1267.93 2444.2 1267.93 2444.22 1330.46 2442.35 1331.55Z" transform="matrix(1.00229 0 0 1 -1019.56 -152.651)"/><text font-family="Times New Roman,Times New Roman_MSFontService,sans-serif" font-weight="400" font-size="13" transform="matrix(3.18742 0 0 3.18014 1413.38 1111)">O</text><text font-family="Times New Roman,Times New Roman_MSFontService,sans-serif" font-weight="400" font-size="13" transform="matrix(3.18742 0 0 3.18014 1442.07 1111)">H</text><text font-family="Times New Roman,Times New Roman_MSFontService,sans-serif" font-weight="400" font-size="13" transform="matrix(3.18742 0 0 3.18014 1783.23 1279)">C</text><path d="M2803.26 1394.73 2803.26 1351.63 2805.14 1351.63 2807.01 1351.63 2807.01 1394.73 2805.14 1394.73Z" transform="matrix(1.00229 0 0 1 -1019.56 -152.651)"/><path d="M2813.36 1394.73 2813.36 1351.63 2815.23 1351.63 2817.11 1351.63 2817.11 1394.73 2815.23 1394.73Z" transform="matrix(1.00229 0 0 1 -1019.56 -152.651)"/><text font-family="Times New Roman,Times New Roman_MSFontService,sans-serif" font-weight="400" font-size="13" transform="matrix(3.18742 0 0 3.18014 1782.09 1195)">O</text><path d="M2792.65 1417.13 2744.72 1417.13 2744.72 1415.25 2744.72 1413.38 2792.65 1413.38 2792.65 1415.25Z" transform="matrix(1.00229 0 0 1 -1019.56 -152.651)"/><text font-family="Times New Roman,Times New Roman_MSFontService,sans-serif" font-weight="400" font-size="13" transform="matrix(3.18742 0 0 3.18014 1697.76 1279)">H</text><path d="M2827.72 1413.38 2875.65 1413.38 2875.65 1415.25 2875.65 1417.13 2827.72 1417.13 2827.72 1415.25Z" transform="matrix(1.00229 0 0 1 -1019.56 -152.651)"/><text font-family="Times New Roman,Times New Roman_MSFontService,sans-serif" font-weight="400" font-size="13" transform="matrix(3.18742 0 0 3.18014 1866.42 1279)">H</text><text font-family="Times New Roman,Times New Roman_MSFontService,sans-serif" font-weight="400" font-size="13" transform="matrix(3.18742 0 0 3.18014 1596.24 1235)">+</text><text font-family="Times New Roman,Times New Roman_MSFontService,sans-serif" font-weight="400" font-size="13" transform="matrix(3.18742 0 0 3.18014 2077.5 1193)">H</text><text font-family="Times New Roman,Times New Roman_MSFontService,sans-serif" font-weight="400" font-size="8" transform="matrix(3.18742 0 0 3.18014 2106.18 1193)">+</text><text font-family="Cambria Math,Cambria Math_MSFontService,sans-serif" font-weight="400" font-size="13" transform="matrix(3.18742 0 0 3.18014 2077.5 1282)">△</text><path d="M2991.72 1373.18 3200.23 1373.18" stroke="#000000" stroke-width="3.75006" fill="none" transform="matrix(1.00229 0 0 1 -1019.56 -152.651)"/><path d="M3232.11 1373.18 3194.61 1363.81 3200.23 1373.18 3194.61 1382.56Z" transform="matrix(1.00229 0 0 1 -1019.56 -152.651)"/><text font-family="Times New Roman,Times New Roman_MSFontService,sans-serif" font-weight="400" font-size="13" transform="matrix(3.18742 0 0 3.18014 2677.49 1290)">n</text><path d="M3337.8 1314.15 3351.7 1314.15" stroke="#000000" stroke-width="3.75006" fill="none" transform="matrix(1.00229 0 0 1 -1019.56 -152.651)"/><path d="M3339.68 1314.15 3339.68 1434.34" stroke="#000000" stroke-width="3.75006" fill="none" transform="matrix(1.00229 0 0 1 -1019.56 -152.651)"/><path d="M3337.8 1434.34 3351.7 1434.34" stroke="#000000" stroke-width="3.75006" fill="none" transform="matrix(1.00229 0 0 1 -1019.56 -152.651)"/><path d="M3652.56 1314.15 3638.66 1314.15" stroke="#000000" stroke-width="3.75006" fill="none" transform="matrix(1.00229 0 0 1 -1019.56 -152.651)"/><path d="M3650.68 1314.15 3650.68 1434.34" stroke="#000000" stroke-width="3.75006" fill="none" transform="matrix(1.00229 0 0 1 -1019.56 -152.651)"/><path d="M3652.56 1434.34 3638.66 1434.34" stroke="#000000" stroke-width="3.75006" fill="none" transform="matrix(1.00229 0 0 1 -1019.56 -152.651)"/><text font-family="Times New Roman,Times New Roman_MSFontService,sans-serif" font-weight="400" font-size="13" transform="matrix(3.18742 0 0 3.18014 2425.68 1111)">O</text><text font-family="Times New Roman,Times New Roman_MSFontService,sans-serif" font-weight="400" font-size="13" transform="matrix(3.18742 0 0 3.18014 2454.36 1111)">H</text><text font-family="Times New Roman,Times New Roman_MSFontService,sans-serif" font-weight="400" font-size="13" transform="matrix(3.18742 0 0 3.18014 2584.21 1188)">H</text><text font-family="Times New Roman,Times New Roman_MSFontService,sans-serif" font-weight="400" font-size="8" transform="matrix(3.18742 0 0 3.18014 2612.9 1188)">2</text><text font-family="Times New Roman,Times New Roman_MSFontService,sans-serif" font-weight="400" font-size="13" transform="matrix(3.18742 0 0 3.18014 2584.21 1233)">C</text><path d="M3378.97 1371.74 3450.46 1330.46 3452.33 1331.55 3452.33 1333.71 3381.35 1374.7 3379.47 1373.61Z" transform="matrix(1.00229 0 0 1 -1019.56 -152.651)"/><path d="M3454.21 1330.46 3525.7 1371.74 3525.2 1373.61 3523.32 1374.7 3452.33 1333.71 3452.33 1331.55Z" transform="matrix(1.00229 0 0 1 -1019.56 -152.651)"/><path d="M3453.27 1341.58 3516.04 1377.82 3515.1 1379.44 3514.16 1381.07 3451.4 1344.83 3452.33 1343.2Z" transform="matrix(1.00229 0 0 1 -1019.56 -152.651)"/><path d="M3527.07 1375.49 3527.07 1458.83 3525.2 1457.75 3523.32 1456.67 3523.32 1374.7 3525.2 1373.61Z" transform="matrix(1.00229 0 0 1 -1019.56 -152.651)"/><path d="M3527.07 1458.83 3452.33 1501.98 3452.33 1499.82 3452.33 1497.65 3523.32 1456.67 3525.2 1457.75Z" transform="matrix(1.00229 0 0 1 -1019.56 -152.651)"/><path d="M3516.04 1453.55 3453.27 1489.78 3452.33 1488.16 3451.4 1486.54 3514.16 1450.3 3515.1 1451.92Z" transform="matrix(1.00229 0 0 1 -1019.56 -152.651)"/><path d="M3452.33 1501.98 3377.6 1458.83 3379.47 1457.75 3381.35 1456.67 3452.33 1497.65 3452.33 1499.82Z" transform="matrix(1.00229 0 0 1 -1019.56 -152.651)"/><path d="M3377.6 1458.83 3377.6 1375.49 3379.47 1373.61 3381.35 1374.7 3381.35 1456.67 3379.47 1457.75Z" transform="matrix(1.00229 0 0 1 -1019.56 -152.651)"/><path d="M3387.69 1451.92 3387.69 1379.44 3389.57 1379.44 3391.44 1379.44 3391.44 1451.92 3389.57 1451.92Z" transform="matrix(1.00229 0 0 1 -1019.56 -152.651)"/><path d="M3450.46 1330.46 3450.43 1267.93 3452.31 1267.93 3454.18 1267.93 3454.21 1330.46 3452.33 1331.55Z" transform="matrix(1.00229 0 0 1 -1019.56 -152.651)"/><path d="M3525.7 1371.74 3591.8 1371.74 3591.8 1373.61 3591.8 1375.49 3527.07 1375.49 3525.2 1373.61Z" transform="matrix(1.00229 0 0 1 -1019.56 -152.651)"/><path d="M3377.6 1375.49 3314.01 1375.49 3314.01 1373.61 3314.01 1371.74 3378.97 1371.74 3379.47 1373.61Z" transform="matrix(1.00229 0 0 1 -1019.56 -152.651)"/><text font-family="Times New Roman,Times New Roman_MSFontService,sans-serif" font-weight="400" font-size="13" transform="matrix(3.18742 0 0 3.18014 2268.35 1237)">H</text><path d="M3626.87 1371.74 3674.79 1371.74 3674.79 1373.61 3674.79 1375.49 3626.87 1375.49 3626.87 1373.61Z" transform="matrix(1.00229 0 0 1 -1019.56 -152.651)"/><text font-family="Times New Roman,Times New Roman_MSFontService,sans-serif" font-weight="400" font-size="13" transform="matrix(3.18742 0 0 3.18014 2667.4 1237)">O</text><text font-family="Times New Roman,Times New Roman_MSFontService,sans-serif" font-weight="400" font-size="13" transform="matrix(3.18742 0 0 3.18014 2696.08 1237)">H</text><text font-family="Times New Roman,Times New Roman_MSFontService,sans-serif" font-weight="400" font-size="13" transform="matrix(3.18742 0 0 3.18014 2887.68 1230)">(</text><text font-family="Times New Roman,Times New Roman_MSFontService,sans-serif" font-weight="400" font-size="13" transform="matrix(3.18742 0 0 3.18014 2900.43 1230)">n</text><text font-family="Times New Roman,Times New Roman_MSFontService,sans-serif" font-weight="400" font-size="13" transform="matrix(3.18742 0 0 3.18014 2922.74 1230)">-</text><text font-family="Times New Roman,Times New Roman_MSFontService,sans-serif" font-weight="400" font-size="13" transform="matrix(3.18742 0 0 3.18014 2935.49 1230)">1</text><text font-family="Times New Roman,Times New Roman_MSFontService,sans-serif" font-weight="400" font-size="13" transform="matrix(3.18742 0 0 3.18014 2954.62 1230)">) </text><text font-family="Times New Roman,Times New Roman_MSFontService,sans-serif" font-weight="400" font-size="13" transform="matrix(3.18742 0 0 3.18014 2976.93 1230)">H</text><text font-family="Times New Roman,Times New Roman_MSFontService,sans-serif" font-weight="400" font-size="8" transform="matrix(3.18742 0 0 3.18014 3005.61 1230)">2</text><text font-family="Times New Roman,Times New Roman_MSFontService,sans-serif" font-weight="400" font-size="13" transform="matrix(3.18742 0 0 3.18014 3018.36 1230)">O</text><text font-family="Times New Roman,Times New Roman_MSFontService,sans-serif" font-weight="400" font-size="13" transform="matrix(3.18742 0 0 3.18014 2806.93 1236)">+</text></g></g></g><text font-family="Source Han Serif SC SemiBold,Source Han Serif SC SemiBold_MSFontService,sans-serif" font-weight="600" font-size="50" transform="matrix(1 0 0 1 1071.75 1255)">总反应</text></g></svg>