<svg width="2103" height="313" xmlns="http://www.w3.org/2000/svg" xmlns:xlink="http://www.w3.org/1999/xlink" xml:space="preserve" overflow="hidden"><defs><clipPath id="clip0"><rect x="1039" y="1081" width="2103" height="313"/></clipPath><clipPath id="clip1"><rect x="1258" y="1081" width="1884" height="313"/></clipPath><clipPath id="clip2"><rect x="1258" y="1081" width="1884" height="313"/></clipPath><clipPath id="clip3"><rect x="1258" y="1081" width="1884" height="313"/></clipPath></defs><g clip-path="url(#clip0)" transform="translate(-1039 -1081)"><g clip-path="url(#clip1)"><g clip-path="url(#clip2)"><g clip-path="url(#clip3)"><path d="M2318.04 1343.79 2389.38 1302.61 2391.21 1303.67 2391.21 1305.79 2321.71 1345.91 2319.87 1344.85Z" transform="matrix(1 0 0 1.00217 -924.874 -126.503)"/><path d="M2393.05 1302.61 2464.39 1343.79 2462.55 1344.85 2460.71 1345.91 2391.21 1305.79 2391.21 1303.67Z" transform="matrix(1 0 0 1.00217 -924.874 -126.503)"/><path d="M2392.13 1313.49 2453.58 1348.97 2452.66 1350.56 2451.75 1352.15 2390.29 1316.67 2391.21 1315.08Z" transform="matrix(1 0 0 1.00217 -924.874 -126.503)"/><path d="M2464.39 1343.79 2464.39 1428.29 2462.55 1427.23 2460.71 1426.17 2460.71 1345.91 2462.55 1344.85Z" transform="matrix(1 0 0 1.00217 -924.874 -126.503)"/><path d="M2464.39 1428.29 2391.21 1470.54 2391.21 1468.42 2391.21 1466.3 2460.71 1426.17 2462.55 1427.23Z" transform="matrix(1 0 0 1.00217 -924.874 -126.503)"/><path d="M2453.58 1423.11 2392.13 1458.59 2391.21 1457 2390.29 1455.41 2451.75 1419.93 2452.66 1421.52Z" transform="matrix(1 0 0 1.00217 -924.874 -126.503)"/><path d="M2391.21 1470.54 2318.04 1428.29 2319.87 1427.23 2321.71 1426.17 2391.21 1466.3 2391.21 1468.42Z" transform="matrix(1 0 0 1.00217 -924.874 -126.503)"/><path d="M2318.04 1428.29 2318.04 1343.79 2319.87 1344.85 2321.71 1345.91 2321.71 1426.17 2319.87 1427.23Z" transform="matrix(1 0 0 1.00217 -924.874 -126.503)"/><path d="M2327.92 1421.52 2327.92 1350.56 2329.76 1350.56 2331.59 1350.56 2331.59 1421.52 2329.76 1421.52Z" transform="matrix(1 0 0 1.00217 -924.874 -126.503)"/><path d="M2389.38 1302.61 2389.35 1241.38 2391.19 1241.38 2393.02 1241.38 2393.05 1302.61 2391.21 1303.67Z" transform="matrix(1 0 0 1.00217 -924.874 -126.503)"/><text font-family="Times New Roman,Times New Roman_MSFontService,sans-serif" font-weight="400" font-size="13" transform="matrix(3.11356 0 0 3.12033 1451.69 1113)">O</text><text font-family="Times New Roman,Times New Roman_MSFontService,sans-serif" font-weight="400" font-size="13" transform="matrix(3.11356 0 0 3.12033 1479.71 1113)">H</text><text font-family="Times New Roman,Times New Roman_MSFontService,sans-serif" font-weight="400" font-size="13" transform="matrix(3.11356 0 0 3.12033 1812.97 1278)">C</text><path d="M2744.57 1365.53 2744.57 1323.33 2746.4 1323.33 2748.24 1323.33 2748.24 1365.53 2746.4 1365.53Z" transform="matrix(1 0 0 1.00217 -924.874 -126.503)"/><path d="M2754.45 1365.53 2754.45 1323.33 2756.29 1323.33 2758.12 1323.33 2758.12 1365.53 2756.29 1365.53Z" transform="matrix(1 0 0 1.00217 -924.874 -126.503)"/><text font-family="Times New Roman,Times New Roman_MSFontService,sans-serif" font-weight="400" font-size="13" transform="matrix(3.11356 0 0 3.12033 1811.86 1196)">O</text><path d="M2734.18 1387.45 2687.26 1387.45 2687.26 1385.62 2687.26 1383.78 2734.18 1383.78 2734.18 1385.62Z" transform="matrix(1 0 0 1.00217 -924.874 -126.503)"/><text font-family="Times New Roman,Times New Roman_MSFontService,sans-serif" font-weight="400" font-size="13" transform="matrix(3.11356 0 0 3.12033 1729.48 1278)">H</text><path d="M2768.51 1383.78 2815.44 1383.78 2815.44 1385.62 2815.44 1387.45 2768.51 1387.45 2768.51 1385.62Z" transform="matrix(1 0 0 1.00217 -924.874 -126.503)"/><text font-family="Times New Roman,Times New Roman_MSFontService,sans-serif" font-weight="400" font-size="13" transform="matrix(3.11356 0 0 3.12033 1894.23 1278)">H</text><text font-family="Times New Roman,Times New Roman_MSFontService,sans-serif" font-weight="400" font-size="13" transform="matrix(3.11356 0 0 3.12033 1607.9 1236)">+</text><text font-family="Times New Roman,Times New Roman_MSFontService,sans-serif" font-weight="400" font-size="13" transform="matrix(3.11356 0 0 3.12033 2100.42 1194)">H</text><text font-family="Times New Roman,Times New Roman_MSFontService,sans-serif" font-weight="400" font-size="8" transform="matrix(3.11356 0 0 3.12033 2128.44 1194)">+</text><text font-family="Cambria Math,Cambria Math_MSFontService,sans-serif" font-weight="400" font-size="13" transform="matrix(3.11356 0 0 3.12033 2100.42 1281)">△</text><path d="M2929.08 1344.43 3133.23 1344.43" stroke="#000000" stroke-width="3.67155" fill="none" transform="matrix(1 0 0 1.00217 -924.874 -126.503)"/><path d="M3164.43 1344.43 3127.72 1335.25 3133.23 1344.43 3127.72 1353.61Z" transform="matrix(1 0 0 1.00217 -924.874 -126.503)"/><text font-family="Times New Roman,Times New Roman_MSFontService,sans-serif" font-weight="400" font-size="13" transform="matrix(3.11356 0 0 3.12033 2686.51 1289)">n</text><path d="M3267.92 1286.63 3281.52 1286.63" stroke="#000000" stroke-width="3.67155" fill="none" transform="matrix(1 0 0 1.00217 -924.874 -126.503)"/><path d="M3269.75 1286.63 3269.75 1404.31" stroke="#000000" stroke-width="3.67155" fill="none" transform="matrix(1 0 0 1.00217 -924.874 -126.503)"/><path d="M3267.92 1404.31 3281.52 1404.31" stroke="#000000" stroke-width="3.67155" fill="none" transform="matrix(1 0 0 1.00217 -924.874 -126.503)"/><path d="M3576.08 1286.63 3562.48 1286.63" stroke="#000000" stroke-width="3.67155" fill="none" transform="matrix(1 0 0 1.00217 -924.874 -126.503)"/><path d="M3574.24 1286.63 3574.24 1404.31" stroke="#000000" stroke-width="3.67155" fill="none" transform="matrix(1 0 0 1.00217 -924.874 -126.503)"/><path d="M3576.08 1404.31 3562.48 1404.31" stroke="#000000" stroke-width="3.67155" fill="none" transform="matrix(1 0 0 1.00217 -924.874 -126.503)"/><text font-family="Times New Roman,Times New Roman_MSFontService,sans-serif" font-weight="400" font-size="13" transform="matrix(3.11356 0 0 3.12033 2440.53 1113)">O</text><text font-family="Times New Roman,Times New Roman_MSFontService,sans-serif" font-weight="400" font-size="13" transform="matrix(3.11356 0 0 3.12033 2468.55 1113)">H</text><text font-family="Times New Roman,Times New Roman_MSFontService,sans-serif" font-weight="400" font-size="13" transform="matrix(3.11356 0 0 3.12033 2595.39 1189)">H</text><text font-family="Times New Roman,Times New Roman_MSFontService,sans-serif" font-weight="400" font-size="8" transform="matrix(3.11356 0 0 3.12033 2623.41 1189)">2</text><text font-family="Times New Roman,Times New Roman_MSFontService,sans-serif" font-weight="400" font-size="13" transform="matrix(3.11356 0 0 3.12033 2595.39 1233)">C</text><path d="M3308.22 1343.02 3378.21 1302.61 3380.05 1303.67 3380.05 1305.79 3310.55 1345.91 3308.71 1344.85Z" transform="matrix(1 0 0 1.00217 -924.874 -126.503)"/><path d="M3381.88 1302.61 3451.88 1343.02 3451.39 1344.85 3449.55 1345.91 3380.05 1305.79 3380.05 1303.67Z" transform="matrix(1 0 0 1.00217 -924.874 -126.503)"/><path d="M3380.97 1313.49 3442.42 1348.97 3441.5 1350.56 3440.58 1352.15 3379.13 1316.67 3380.05 1315.08Z" transform="matrix(1 0 0 1.00217 -924.874 -126.503)"/><path d="M3453.22 1346.69 3453.22 1428.29 3451.39 1427.23 3449.55 1426.17 3449.55 1345.91 3451.39 1344.85Z" transform="matrix(1 0 0 1.00217 -924.874 -126.503)"/><path d="M3453.22 1428.29 3380.05 1470.54 3380.05 1468.42 3380.05 1466.3 3449.55 1426.17 3451.39 1427.23Z" transform="matrix(1 0 0 1.00217 -924.874 -126.503)"/><path d="M3442.42 1423.11 3380.97 1458.59 3380.05 1457 3379.13 1455.41 3440.58 1419.93 3441.5 1421.52Z" transform="matrix(1 0 0 1.00217 -924.874 -126.503)"/><path d="M3380.05 1470.54 3306.88 1428.29 3308.71 1427.23 3310.55 1426.17 3380.05 1466.3 3380.05 1468.42Z" transform="matrix(1 0 0 1.00217 -924.874 -126.503)"/><path d="M3306.88 1428.29 3306.88 1346.69 3308.71 1344.85 3310.55 1345.91 3310.55 1426.17 3308.71 1427.23Z" transform="matrix(1 0 0 1.00217 -924.874 -126.503)"/><path d="M3316.76 1421.52 3316.76 1350.56 3318.6 1350.56 3320.43 1350.56 3320.43 1421.52 3318.6 1421.52Z" transform="matrix(1 0 0 1.00217 -924.874 -126.503)"/><path d="M3378.21 1302.61 3378.19 1241.38 3380.03 1241.38 3381.86 1241.38 3381.88 1302.61 3380.05 1303.67Z" transform="matrix(1 0 0 1.00217 -924.874 -126.503)"/><path d="M3451.88 1343.02 3516.59 1343.02 3516.59 1344.85 3516.59 1346.69 3453.22 1346.69 3451.39 1344.85Z" transform="matrix(1 0 0 1.00217 -924.874 -126.503)"/><path d="M3306.88 1346.69 3244.62 1346.69 3244.62 1344.85 3244.62 1343.02 3308.22 1343.02 3308.71 1344.85Z" transform="matrix(1 0 0 1.00217 -924.874 -126.503)"/><text font-family="Times New Roman,Times New Roman_MSFontService,sans-serif" font-weight="400" font-size="13" transform="matrix(3.11356 0 0 3.12033 2286.85 1237)">H</text><path d="M3550.93 1343.02 3597.85 1343.02 3597.85 1344.85 3597.85 1346.69 3550.93 1346.69 3550.93 1344.85Z" transform="matrix(1 0 0 1.00217 -924.874 -126.503)"/><text font-family="Times New Roman,Times New Roman_MSFontService,sans-serif" font-weight="400" font-size="13" transform="matrix(3.11356 0 0 3.12033 2676.65 1237)">O</text><text font-family="Times New Roman,Times New Roman_MSFontService,sans-serif" font-weight="400" font-size="13" transform="matrix(3.11356 0 0 3.12033 2704.67 1237)">H</text><text font-family="Times New Roman,Times New Roman_MSFontService,sans-serif" font-weight="400" font-size="13" transform="matrix(3.11356 0 0 3.12033 2891.83 1230)">(</text><text font-family="Times New Roman,Times New Roman_MSFontService,sans-serif" font-weight="400" font-size="13" transform="matrix(3.11356 0 0 3.12033 2904.28 1230)">n</text><text font-family="Times New Roman,Times New Roman_MSFontService,sans-serif" font-weight="400" font-size="13" transform="matrix(3.11356 0 0 3.12033 2926.08 1230)">-</text><text font-family="Times New Roman,Times New Roman_MSFontService,sans-serif" font-weight="400" font-size="13" transform="matrix(3.11356 0 0 3.12033 2938.53 1230)">1</text><text font-family="Times New Roman,Times New Roman_MSFontService,sans-serif" font-weight="400" font-size="13" transform="matrix(3.11356 0 0 3.12033 2957.21 1230)">) </text><text font-family="Times New Roman,Times New Roman_MSFontService,sans-serif" font-weight="400" font-size="13" transform="matrix(3.11356 0 0 3.12033 2979.01 1230)">H</text><text font-family="Times New Roman,Times New Roman_MSFontService,sans-serif" font-weight="400" font-size="8" transform="matrix(3.11356 0 0 3.12033 3007.03 1230)">2</text><text font-family="Times New Roman,Times New Roman_MSFontService,sans-serif" font-weight="400" font-size="13" transform="matrix(3.11356 0 0 3.12033 3019.48 1230)">O</text><text font-family="Times New Roman,Times New Roman_MSFontService,sans-serif" font-weight="400" font-size="13" transform="matrix(3.11356 0 0 3.12033 2812.95 1236)">+</text><text font-family="Times New Roman,Times New Roman_MSFontService,sans-serif" font-weight="400" font-size="13" transform="matrix(3.11356 0 0 3.12033 1337.18 1243)">n</text><text font-family="Times New Roman,Times New Roman_MSFontService,sans-serif" font-weight="400" font-size="13" transform="matrix(3.11356 0 0 3.12033 1677.38 1240)">n</text></g></g></g><text font-family="Source Han Serif SC SemiBold,Source Han Serif SC SemiBold_MSFontService,sans-serif" font-weight="600" font-size="50" transform="matrix(1 0 0 1 1071.75 1255)">总反应</text></g></svg>