<?xml version="1.0" standalone='no'?><!-- IBoard SVG File --><svg xmlns="http://www.w3.org/2000/svg" xmlns:xlink="http://www.w3.org/1999/xlink" viewBox="732.22 228.29 93.71 47.40" height="40.40" width="100.71" version="1.1"><!-- SVG File --><text xml:space="preserve" x="760.014771" y="265.130524" textLength="8.670000" lengthAdjust="spacingAndGlyphs"><tspan font-family="Times New Roman" font-weight="normal" baseline-shift="0" font-size="13" fill="#000000">C</tspan></text><polygon points="769.863953,259.426727 784.933899,259.426727 784.933899,260.016327 784.933899,260.605927 769.863953,260.605927 769.863953,260.016327 " style="fill:rgb(0,0,0);fill-opacity:1.000000"/><text xml:space="preserve" x="786.113098" y="265.130524" textLength="9.386666" lengthAdjust="spacingAndGlyphs"><tspan font-family="Times New Roman" font-weight="normal" baseline-shift="0" font-size="13" fill="#000000">O</tspan></text><polygon points="762.172791,253.564865 762.172791,240.011078 762.762390,240.011078 763.351990,240.011078 763.351990,253.564865 762.762390,253.564865 " style="fill:rgb(0,0,0);fill-opacity:1.000000"/><polygon points="765.347595,253.564865 765.347595,240.011078 765.937195,240.011078 766.526794,240.011078 766.526794,253.564865 765.937195,253.564865 " style="fill:rgb(0,0,0);fill-opacity:1.000000"/><text xml:space="preserve" x="759.656494" y="238.673828" textLength="9.386666" lengthAdjust="spacingAndGlyphs"><tspan font-family="Times New Roman" font-weight="normal" baseline-shift="0" font-size="13" fill="#000000">O</tspan></text><polygon points="758.835571,260.605927 737.893127,260.605927 737.893127,260.016327 737.893127,259.426727 758.835571,259.426727 758.835571,260.016327 " style="fill:rgb(0,0,0);fill-opacity:1.000000"/><polygon points="796.678955,259.426727 817.263123,259.426727 817.263123,260.016327 817.263123,260.605927 796.678955,260.605927 796.678955,260.016327 " style="fill:rgb(0,0,0);fill-opacity:1.000000"/></svg>