<svg width="385" height="230" xmlns="http://www.w3.org/2000/svg" xmlns:xlink="http://www.w3.org/1999/xlink" xml:space="preserve" overflow="hidden"><defs><clipPath id="clip0"><rect x="2007" y="1164" width="386" height="147"/></clipPath><clipPath id="clip1"><rect x="2007" y="1164" width="386" height="147"/></clipPath><clipPath id="clip2"><rect x="2007" y="1164" width="386" height="147"/></clipPath></defs><g transform="translate(-2008 -1097)"><g clip-path="url(#clip0)"><g clip-path="url(#clip1)"><g clip-path="url(#clip2)"><text font-family="Times New Roman,Times New Roman_MSFontService,sans-serif" font-weight="400" font-size="13" transform="matrix(2.9208 0 0 2.93344 2163.7 1273)">C</text><path d="M2570.21 871.28 2614.23 871.28 2614.23 873.003 2614.23 874.723 2570.21 874.723 2570.21 873.003Z" transform="matrix(1 0 0 1.00433 -377.746 381.301)"/><text font-family="Times New Roman,Times New Roman_MSFontService,sans-serif" font-weight="400" font-size="13" transform="matrix(2.9208 0 0 2.93344 2239.93 1273)">N</text><path d="M2648.53 871.28 2691.5 871.28 2691.5 873.003 2691.5 874.723 2648.53 874.723 2648.53 873.003Z" transform="matrix(1 0 0 1.00433 -377.746 381.301)"/><text font-family="Times New Roman,Times New Roman_MSFontService,sans-serif" font-weight="400" font-size="13" transform="matrix(2.9208 0 0 2.93344 2317.2 1273)">H</text><path d="M2629.66 854.158 2629.66 814.572 2631.38 814.572 2633.1 814.572 2633.1 854.158 2631.38 854.158Z" transform="matrix(1 0 0 1.00433 -377.746 381.301)"/><text font-family="Times New Roman,Times New Roman_MSFontService,sans-serif" font-weight="400" font-size="13" transform="matrix(2.9208 0 0 2.93344 2239.93 1195)">H</text><path d="M2547.75 854.158 2547.75 814.572 2549.47 814.572 2551.19 814.572 2551.19 854.158 2549.47 854.158Z" transform="matrix(1 0 0 1.00433 -377.746 381.301)"/><path d="M2557.02 854.158 2557.02 814.572 2558.74 814.572 2560.47 814.572 2560.47 854.158 2558.74 854.158Z" transform="matrix(1 0 0 1.00433 -377.746 381.301)"/><text font-family="Times New Roman,Times New Roman_MSFontService,sans-serif" font-weight="400" font-size="13" transform="matrix(2.9208 0 0 2.93344 2162.65 1195)">O</text><path d="M2538 874.723 2492.94 874.723 2492.94 873.003 2492.94 871.28 2538 871.28 2538 873.003Z" transform="matrix(1 0 0 1.00433 -377.746 381.301)"/><text font-family="Times New Roman,Times New Roman_MSFontService,sans-serif" font-weight="400" font-size="13" transform="matrix(2.9208 0 0 2.93344 2047.62 1268)">H</text><text font-family="Times New Roman,Times New Roman_MSFontService,sans-serif" font-weight="400" font-size="8" transform="matrix(2.9208 0 0 2.93344 2073.9 1268)">3</text><text font-family="Times New Roman,Times New Roman_MSFontService,sans-serif" font-weight="400" font-size="13" transform="matrix(2.9208 0 0 2.93344 2085.59 1268)">C</text></g></g></g><path d="M2034 1166.13C2034 1155.01 2043.01 1146 2054.13 1146L2179.87 1146C2190.99 1146 2200 1155.01 2200 1166.13L2200 1282.87C2200 1293.99 2190.99 1303 2179.87 1303L2054.13 1303C2043.01 1303 2034 1293.99 2034 1282.87Z" stroke="#595959" stroke-width="2.29167" stroke-miterlimit="8" stroke-dasharray="9.16667 6.875 2.29167 6.875" fill="none" fill-rule="evenodd"/><path d="M2153 1119.1C2153 1111.31 2159.31 1105 2167.1 1105L2269.9 1105C2277.69 1105 2284 1111.31 2284 1119.1L2284 1271.9C2284 1279.69 2277.69 1286 2269.9 1286L2167.1 1286C2159.31 1286 2153 1279.69 2153 1271.9Z" stroke="#0D0D0D" stroke-width="2.29167" stroke-miterlimit="8" stroke-dasharray="9.16667 6.875" fill="none" fill-rule="evenodd"/><text font-family="Source Han Serif SC Medium,Source Han Serif SC Medium_MSFontService,sans-serif" font-weight="500" font-size="18" transform="matrix(1 0 0 1 2049.97 1177)">乙酰基</text><text font-family="Source Han Serif SC Medium,Source Han Serif SC Medium_MSFontService,sans-serif" font-weight="500" font-size="18" transform="matrix(1 0 0 1 2213.11 1131)">酰胺基</text><path d="M2232 1161.1C2232 1153.31 2238.31 1147 2246.1 1147L2348.9 1147C2356.69 1147 2363 1153.31 2363 1161.1L2363 1308.9C2363 1316.69 2356.69 1323 2348.9 1323L2246.1 1323C2238.31 1323 2232 1316.69 2232 1308.9Z" stroke="#404040" stroke-width="2.29167" stroke-miterlimit="8" stroke-dasharray="18.3333 6.875 2.29167 6.875 2.29167 6.875" fill="none" fill-rule="evenodd"/><text font-family="Source Han Serif SC Medium,Source Han Serif SC Medium_MSFontService,sans-serif" font-weight="500" font-size="18" transform="matrix(1 0 0 1 2305.82 1306)">氨</text><text font-family="Source Han Serif SC Medium,Source Han Serif SC Medium_MSFontService,sans-serif" font-weight="500" font-size="18" transform="matrix(1 0 0 1 2324.15 1306)">基</text></g></svg>