<svg width="3320" height="220" xmlns="http://www.w3.org/2000/svg" xmlns:xlink="http://www.w3.org/1999/xlink" xml:space="preserve" overflow="hidden"><defs><clipPath id="clip0"><rect x="540" y="1128" width="3320" height="220"/></clipPath></defs><g clip-path="url(#clip0)" transform="translate(-540 -1128)"><path d="M1476.15 895.846 1516.99 967.348 1515.92 969.178 1513.8 969.169 1474.01 899.506 1475.08 897.676Z" transform="matrix(1 0 0 1.00019 -625.831 254.288)"/><path d="M1516.97 971.018 1475.47 1042.14 1474.42 1040.3 1473.37 1038.46 1513.8 969.169 1515.92 969.178Z" transform="matrix(1 0 0 1.00019 -625.831 254.288)"/><path d="M1506.1 970.051 1470.35 1031.32 1468.76 1030.39 1467.18 1029.47 1502.93 968.201 1504.51 969.126Z" transform="matrix(1 0 0 1.00019 -625.831 254.288)"/><path d="M1475.47 1042.14 1391.01 1041.75 1392.07 1039.92 1393.14 1038.09 1473.37 1038.46 1474.42 1040.3Z" transform="matrix(1 0 0 1.00019 -625.831 254.288)"/><path d="M1391.01 1041.75 1349.11 968.409 1351.23 968.419 1353.35 968.429 1393.14 1038.09 1392.07 1039.92Z" transform="matrix(1 0 0 1.00019 -625.831 254.288)"/><path d="M1396.23 1030.98 1361.05 969.381 1362.64 968.471 1364.23 967.561 1399.42 1029.16 1397.83 1030.07Z" transform="matrix(1 0 0 1.00019 -625.831 254.288)"/><path d="M1349.11 968.409 1391.68 895.456 1392.73 897.296 1393.78 899.136 1353.35 968.428 1351.23 968.419Z" transform="matrix(1 0 0 1.00019 -625.831 254.288)"/><path d="M1391.68 895.456 1476.15 895.846 1475.08 897.676 1474.01 899.506 1393.78 899.136 1392.73 897.296Z" transform="matrix(1 0 0 1.00019 -625.831 254.288)"/><path d="M1398.4 905.367 1469.34 905.696 1469.33 907.531 1469.32 909.366 1398.38 909.039 1398.39 907.203Z" transform="matrix(1 0 0 1.00019 -625.831 254.288)"/><path d="M1516.99 967.348 1580 967.614 1579.99 969.449 1579.98 971.284 1516.97 971.018 1515.92 969.178Z" transform="matrix(1 0 0 1.00019 -625.831 254.288)"/><text font-family="Times New Roman,Times New Roman_MSFontService,sans-serif" font-weight="400" font-size="13" transform="matrix(3.11247 0 0 3.11306 957.827 1235)">N</text><text font-family="Times New Roman,Times New Roman_MSFontService,sans-serif" font-weight="400" font-size="13" transform="matrix(3.11247 0 0 3.11306 985.84 1235)">H</text><text font-family="Times New Roman,Times New Roman_MSFontService,sans-serif" font-weight="400" font-size="8" transform="matrix(3.11247 0 0 3.11306 1013.85 1235)">2</text><path d="M1709.27 967.97 1913.34 967.97" stroke="#000000" stroke-width="3.67027" fill="none" transform="matrix(1 0 0 1.00019 -625.831 254.288)"/><path d="M1944.54 967.97 1907.84 958.794 1913.34 967.97 1907.84 977.145Z" transform="matrix(1 0 0 1.00019 -625.831 254.288)"/><text font-family="Times New Roman,Times New Roman_MSFontService,sans-serif" font-weight="400" font-size="13" transform="matrix(3.11247 0 0 3.11306 1610.75 1244)">N</text><text font-family="Times New Roman,Times New Roman_MSFontService,sans-serif" font-weight="400" font-size="13" transform="matrix(3.11247 0 0 3.11306 1610.75 1281)">H</text><path d="M2129.07 900.285 2169.91 971.787 2168.84 973.618 2166.72 973.608 2126.93 903.946 2128 902.116Z" transform="matrix(1 0 0 1.00019 -625.831 254.288)"/><path d="M2169.9 975.458 2128.39 1046.58 2127.34 1044.74 2126.29 1042.9 2166.72 973.608 2168.84 973.618Z" transform="matrix(1 0 0 1.00019 -625.831 254.288)"/><path d="M2159.02 974.49 2123.27 1035.76 2121.68 1034.83 2120.1 1033.91 2155.85 972.641 2157.43 973.565Z" transform="matrix(1 0 0 1.00019 -625.831 254.288)"/><path d="M2128.39 1046.58 2043.93 1046.19 2045 1044.36 2046.07 1042.53 2126.29 1042.9 2127.34 1044.74Z" transform="matrix(1 0 0 1.00019 -625.831 254.288)"/><path d="M2043.93 1046.19 2002.03 972.849 2004.15 972.859 2006.27 972.868 2046.07 1042.53 2045 1044.36Z" transform="matrix(1 0 0 1.00019 -625.831 254.288)"/><path d="M2049.15 1035.42 2013.97 973.821 2015.56 972.911 2017.16 972.001 2052.34 1033.6 2050.75 1034.51Z" transform="matrix(1 0 0 1.00019 -625.831 254.288)"/><path d="M2002.03 972.849 2044.6 899.895 2045.66 901.735 2046.71 903.575 2006.27 972.868 2004.15 972.859Z" transform="matrix(1 0 0 1.00019 -625.831 254.288)"/><path d="M2044.6 899.895 2129.07 900.285 2128 902.116 2126.93 903.946 2046.71 903.575 2045.66 901.735Z" transform="matrix(1 0 0 1.00019 -625.831 254.288)"/><path d="M2051.32 909.808 2122.26 910.136 2122.25 911.971 2122.24 913.806 2051.31 913.478 2051.32 911.643Z" transform="matrix(1 0 0 1.00019 -625.831 254.288)"/><path d="M2169.91 971.787 2232.92 972.054 2232.91 973.889 2232.9 975.724 2169.9 975.458 2168.84 973.618Z" transform="matrix(1 0 0 1.00019 -625.831 254.288)"/><path d="M2269.47 972.131 2316.37 972.131 2316.37 973.966 2316.37 975.801 2269.47 975.801 2269.47 973.966Z" transform="matrix(1 0 0 1.00019 -625.831 254.288)"/><text font-family="Times New Roman,Times New Roman_MSFontService,sans-serif" font-weight="400" font-size="13" transform="matrix(3.11247 0 0 3.11306 1694.21 1244)">C</text><path d="M2350.7 972.131 2398.72 972.131 2398.72 973.966 2398.72 975.801 2350.7 975.801 2350.7 973.966Z" transform="matrix(1 0 0 1.00019 -625.831 254.288)"/><text font-family="Times New Roman,Times New Roman_MSFontService,sans-serif" font-weight="400" font-size="13" transform="matrix(3.11247 0 0 3.11306 1776.56 1239)">C</text><text font-family="Times New Roman,Times New Roman_MSFontService,sans-serif" font-weight="400" font-size="13" transform="matrix(3.11247 0 0 3.11306 1801.46 1239)">H</text><text font-family="Times New Roman,Times New Roman_MSFontService,sans-serif" font-weight="400" font-size="8" transform="matrix(3.11247 0 0 3.11306 1829.47 1239)">3</text><path d="M2326.76 953.886 2326.76 911.7 2328.59 911.7 2330.43 911.7 2330.43 953.886 2328.59 953.886Z" transform="matrix(1 0 0 1.00019 -625.831 254.288)"/><path d="M2336.64 953.886 2336.64 911.7 2338.48 911.7 2340.31 911.7 2340.31 953.886 2338.48 953.886Z" transform="matrix(1 0 0 1.00019 -625.831 254.288)"/><text font-family="Times New Roman,Times New Roman_MSFontService,sans-serif" font-weight="400" font-size="13" transform="matrix(3.11247 0 0 3.11306 1693.1 1162)">O</text><path d="M2520.88 970.253 2802.46 970.253" stroke="#000000" stroke-width="3.67027" fill="none" transform="matrix(1 0 0 1.00019 -625.831 254.288)"/><path d="M2833.66 970.253 2796.96 961.078 2802.46 970.253 2796.96 979.429Z" transform="matrix(1 0 0 1.00019 -625.831 254.288)"/><text font-family="Times New Roman,Times New Roman_MSFontService,sans-serif" font-weight="400" font-size="13" transform="matrix(3.11247 0 0 3.11306 2689.46 1243)">C</text><text font-family="Times New Roman,Times New Roman_MSFontService,sans-serif" font-weight="400" font-size="13" transform="matrix(3.11247 0 0 3.11306 2771.8 1237)">C</text><text font-family="Times New Roman,Times New Roman_MSFontService,sans-serif" font-weight="400" font-size="13" transform="matrix(3.11247 0 0 3.11306 2796.7 1237)">H</text><text font-family="Times New Roman,Times New Roman_MSFontService,sans-serif" font-weight="400" font-size="8" transform="matrix(3.11247 0 0 3.11306 2824.72 1237)">3</text><text font-family="Times New Roman,Times New Roman_MSFontService,sans-serif" font-weight="400" font-size="13" transform="matrix(3.11247 0 0 3.11306 2688.34 1160)">O</text><text font-family="Times New Roman,Times New Roman_MSFontService,sans-serif" font-weight="400" font-size="13" transform="matrix(3.11247 0 0 3.11306 2606 1243)">N</text><text font-family="Times New Roman,Times New Roman_MSFontService,sans-serif" font-weight="400" font-size="13" transform="matrix(3.11247 0 0 3.11306 2606 1279)">H</text><path d="M3124.32 898.628 3165.16 970.13 3164.09 971.961 3161.97 971.951 3122.18 902.289 3123.25 900.459Z" transform="matrix(1 0 0 1.00019 -625.831 254.288)"/><path d="M3165.14 973.801 3123.64 1044.92 3122.59 1043.08 3121.54 1041.24 3161.97 971.951 3164.09 971.961Z" transform="matrix(1 0 0 1.00019 -625.831 254.288)"/><path d="M3154.27 972.833 3118.52 1034.1 3116.93 1033.18 3115.35 1032.25 3151.1 970.984 3152.68 971.909Z" transform="matrix(1 0 0 1.00019 -625.831 254.288)"/><path d="M3123.64 1044.92 3039.18 1044.53 3040.25 1042.7 3041.31 1040.87 3121.54 1041.24 3122.59 1043.08Z" transform="matrix(1 0 0 1.00019 -625.831 254.288)"/><path d="M3039.18 1044.53 2998.33 973.032 2999.4 971.202 3001.52 971.211 3041.31 1040.87 3040.25 1042.7Z" transform="matrix(1 0 0 1.00019 -625.831 254.288)"/><path d="M3044.4 1033.76 3009.22 972.164 3010.81 971.254 3012.41 970.344 3047.59 1031.94 3046 1032.85Z" transform="matrix(1 0 0 1.00019 -625.831 254.288)"/><path d="M2998.35 969.362 3039.85 898.238 3040.9 900.078 3041.95 901.918 3001.52 971.211 2999.4 971.202Z" transform="matrix(1 0 0 1.00019 -625.831 254.288)"/><path d="M3039.85 898.238 3124.32 898.628 3123.25 900.459 3122.18 902.289 3041.95 901.918 3040.9 900.078Z" transform="matrix(1 0 0 1.00019 -625.831 254.288)"/><path d="M3046.57 908.151 3117.51 908.479 3117.5 910.314 3117.49 912.149 3046.55 911.821 3046.56 909.986Z" transform="matrix(1 0 0 1.00019 -625.831 254.288)"/><path d="M3165.16 970.13 3228.17 970.397 3228.16 972.232 3228.15 974.067 3165.14 973.801 3164.09 971.961Z" transform="matrix(1 0 0 1.00019 -625.831 254.288)"/><path d="M3264.72 970.474 3311.62 970.474 3311.62 972.309 3311.62 974.144 3264.72 974.144 3264.72 972.309Z" transform="matrix(1 0 0 1.00019 -625.831 254.288)"/><path d="M3345.95 970.474 3393.97 970.474 3393.97 972.309 3393.97 974.144 3345.95 974.144 3345.95 972.309Z" transform="matrix(1 0 0 1.00019 -625.831 254.288)"/><path d="M3322.01 952.229 3322.01 910.043 3323.84 910.043 3325.68 910.043 3325.68 952.229 3323.84 952.229Z" transform="matrix(1 0 0 1.00019 -625.831 254.288)"/><path d="M3331.89 952.229 3331.89 910.043 3333.72 910.043 3335.56 910.043 3335.56 952.229 3333.72 952.229Z" transform="matrix(1 0 0 1.00019 -625.831 254.288)"/><path d="M2998.33 973.032 2935.33 972.766 2935.34 970.931 2935.34 969.096 2998.35 969.362 2999.4 971.202Z" transform="matrix(1 0 0 1.00019 -625.831 254.288)"/><text font-family="Times New Roman,Times New Roman_MSFontService,sans-serif" font-weight="400" font-size="13" transform="matrix(3.11247 0 0 3.11306 2235.26 1236)">O</text><text font-family="Times New Roman,Times New Roman_MSFontService,sans-serif" font-weight="400" font-size="8" transform="matrix(3.11247 0 0 3.11306 2263.28 1236)">2</text><text font-family="Times New Roman,Times New Roman_MSFontService,sans-serif" font-weight="400" font-size="13" transform="matrix(3.11247 0 0 3.11306 2275.73 1236)">N</text><path d="M3552.15 968.798 3756.22 968.798" stroke="#000000" stroke-width="3.67027" fill="none" transform="matrix(1 0 0 1.00019 -625.831 254.288)"/><path d="M3787.42 968.798 3750.72 959.622 3756.22 968.798 3750.72 977.974Z" transform="matrix(1 0 0 1.00019 -625.831 254.288)"/><text font-family="Times New Roman,Times New Roman_MSFontService,sans-serif" font-weight="400" font-size="13" transform="matrix(3.11247 0 0 3.11306 3241.63 1238)">O</text><text font-family="Times New Roman,Times New Roman_MSFontService,sans-serif" font-weight="400" font-size="8" transform="matrix(3.11247 0 0 3.11306 3269.64 1238)">2</text><text font-family="Times New Roman,Times New Roman_MSFontService,sans-serif" font-weight="400" font-size="13" transform="matrix(3.11247 0 0 3.11306 3282.09 1238)">N</text><text font-family="Times New Roman,Times New Roman_MSFontService,sans-serif" font-weight="400" font-size="13" transform="matrix(3.11247 0 0 3.11306 3612.36 1239)">N</text><text font-family="Times New Roman,Times New Roman_MSFontService,sans-serif" font-weight="400" font-size="13" transform="matrix(3.11247 0 0 3.11306 3640.38 1239)">H</text><text font-family="Times New Roman,Times New Roman_MSFontService,sans-serif" font-weight="400" font-size="8" transform="matrix(3.11247 0 0 3.11306 3668.39 1239)">2</text><path d="M4130.68 900.285 4171.53 971.787 4170.46 973.618 4168.34 973.608 4128.55 903.946 4129.61 902.116Z" transform="matrix(1 0 0 1.00019 -625.831 254.288)"/><path d="M4171.51 975.458 4130.01 1046.58 4128.96 1044.74 4127.91 1042.9 4168.34 973.608 4170.46 973.618Z" transform="matrix(1 0 0 1.00019 -625.831 254.288)"/><path d="M4160.63 974.49 4124.88 1035.76 4123.3 1034.83 4121.71 1033.91 4157.46 972.641 4159.05 973.565Z" transform="matrix(1 0 0 1.00019 -625.831 254.288)"/><path d="M4130.01 1046.58 4045.54 1046.19 4046.61 1044.36 4047.68 1042.53 4127.91 1042.9 4128.96 1044.74Z" transform="matrix(1 0 0 1.00019 -625.831 254.288)"/><path d="M4045.54 1046.19 4004.7 974.689 4005.77 972.859 4007.89 972.868 4047.68 1042.53 4046.61 1044.36Z" transform="matrix(1 0 0 1.00019 -625.831 254.288)"/><path d="M4050.77 1035.42 4015.59 973.821 4017.18 972.911 4018.77 972.001 4053.96 1033.6 4052.36 1034.51Z" transform="matrix(1 0 0 1.00019 -625.831 254.288)"/><path d="M4004.72 971.019 4046.22 899.895 4047.27 901.735 4048.32 903.575 4007.89 972.868 4005.77 972.859Z" transform="matrix(1 0 0 1.00019 -625.831 254.288)"/><path d="M4046.22 899.895 4130.68 900.285 4129.61 902.116 4128.55 903.946 4048.32 903.575 4047.27 901.735Z" transform="matrix(1 0 0 1.00019 -625.831 254.288)"/><path d="M4052.94 909.808 4123.87 910.136 4123.86 911.971 4123.85 913.806 4052.92 913.478 4052.93 911.643Z" transform="matrix(1 0 0 1.00019 -625.831 254.288)"/><path d="M4171.53 971.787 4234.53 972.054 4234.53 973.889 4234.52 975.724 4171.51 975.458 4170.46 973.618Z" transform="matrix(1 0 0 1.00019 -625.831 254.288)"/><path d="M4004.7 974.689 3941.69 974.423 3941.7 972.588 3941.71 970.753 4004.72 971.019 4005.77 972.859Z" transform="matrix(1 0 0 1.00019 -625.831 254.288)"/><text font-family="Source Han Serif SC Medium,Source Han Serif SC Medium_MSFontService,sans-serif" font-weight="500" font-size="41" transform="matrix(1 0 0 1 1130.25 1202)">乙酸酐</text><text font-family="Source Han Serif SC Medium,Source Han Serif SC Medium_MSFontService,sans-serif" font-weight="500" font-size="41" transform="matrix(1 0 0 1 1923.13 1208)">HNO</text><text font-family="Source Han Serif SC Medium,Source Han Serif SC Medium_MSFontService,sans-serif" font-weight="500" font-size="18" transform="matrix(1 0 0 1 2023.97 1208)">3</text><text font-family="Source Han Serif SC Medium,Source Han Serif SC Medium_MSFontService,sans-serif" font-weight="500" font-size="41" transform="matrix(1 0 0 1 2034.28 1208)">,H</text><text font-family="Source Han Serif SC Medium,Source Han Serif SC Medium_MSFontService,sans-serif" font-weight="500" font-size="18" transform="matrix(1 0 0 1 2083.55 1208)">2</text><text font-family="Source Han Serif SC Medium,Source Han Serif SC Medium_MSFontService,sans-serif" font-weight="500" font-size="41" transform="matrix(1 0 0 1 2093.86 1208)">SO</text><text font-family="Source Han Serif SC Medium,Source Han Serif SC Medium_MSFontService,sans-serif" font-weight="500" font-size="18" transform="matrix(1 0 0 1 2149.44 1208)">4</text><text font-family="Cambria Math,Cambria Math_MSFontService,sans-serif" font-weight="400" font-size="41" transform="matrix(1 0 0 1 2030.38 1273)">Δ</text><text font-family="Source Han Serif SC Medium,Source Han Serif SC Medium_MSFontService,sans-serif" font-weight="500" font-size="41" transform="matrix(1 0 0 1 2998.83 1202)">H</text><text font-family="Source Han Serif SC Medium,Source Han Serif SC Medium_MSFontService,sans-serif" font-weight="500" font-size="18" transform="matrix(1 0 0 1 3034.35 1202)">2</text><text font-family="Source Han Serif SC Medium,Source Han Serif SC Medium_MSFontService,sans-serif" font-weight="500" font-size="41" transform="matrix(1 0 0 1 3044.66 1202)">O</text><text font-family="Source Han Serif SC Medium,Source Han Serif SC Medium_MSFontService,sans-serif" font-weight="500" font-size="41" transform="matrix(1 0 0 1 2998.83 1282)">HO</text><text font-family="Source Han Serif SC Medium,Source Han Serif SC Medium_MSFontService,sans-serif" font-weight="500" font-size="48" transform="matrix(1 0 0 1 3071.49 1263)">-</text></g></svg>