<?xml version="1.0" encoding="utf-8"?>
<!-- Generator: Adobe Illustrator 27.6.1, SVG Export Plug-In . SVG Version: 6.00 Build 0)  -->
<svg version="1.1" id="图层_1" xmlns="http://www.w3.org/2000/svg" xmlns:xlink="http://www.w3.org/1999/xlink" x="0px" y="0px"
	 viewBox="0 0 446.2 67.2" style="enable-background:new 0 0 446.2 67.2;" xml:space="preserve">
<style type="text/css">
	.st0{font-family:'TimesNewRomanPSMT';}
	.st1{font-size:11.7744px;}
	.st2{font-size:7.2458px;}
	.st3{fill:none;stroke:#000000;stroke-width:1.068;stroke-miterlimit:3.6229;}
</style>
<polygon points="28.8,16.8 50.1,4.5 50.1,5.1 50.1,5.8 29.9,17.4 29.3,17.1 "/>
<polygon points="50.1,4.5 70.8,16.5 70.8,17.1 70.3,17.4 50.1,5.8 50.1,5.1 "/>
<polygon points="50.4,8 68.2,18.3 68,18.8 67.7,19.2 49.8,8.9 50.1,8.5 "/>
<polygon points="71.4,17.4 71.4,41.4 70.8,41.1 70.3,40.8 70.3,17.4 70.8,17.1 "/>
<polygon points="71.4,41.4 50.1,53.7 50.1,53.1 50.1,52.4 70.3,40.8 70.8,41.1 "/>
<polygon points="68.2,39.9 50.4,50.2 50.1,49.7 49.8,49.3 67.7,39 68,39.4 "/>
<polygon points="50.1,53.7 28.8,41.4 29.3,41.1 29.9,40.8 50.1,52.4 50.1,53.1 "/>
<polygon points="28.8,41.4 28.8,16.8 29.3,17.1 29.9,17.4 29.9,40.8 29.3,41.1 "/>
<polygon points="31.7,39.4 31.7,18.8 32.2,18.8 32.7,18.8 32.7,39.4 32.2,39.4 "/>
<polygon points="70.8,16.5 86,7.7 86.3,8.2 86.5,8.7 71.4,17.4 70.8,17.1 "/>
<text transform="matrix(1 0 0 1 87.3358 9.7623)" class="st0 st1">O</text>
<text transform="matrix(1 0 0 1 95.8388 9.7623)" class="st0 st1">H</text>
<text transform="matrix(1 0 0 1 136.6347 31.521)" class="st0 st1">N</text>
<text transform="matrix(1 0 0 1 145.1376 31.521)" class="st0 st1">a</text>
<text transform="matrix(1 0 0 1 150.3642 33.3326)" class="st0 st2">2</text>
<text transform="matrix(1 0 0 1 153.9862 31.521)" class="st0 st1">C</text>
<text transform="matrix(1 0 0 1 161.8398 31.521)" class="st0 st1">O</text>
<text transform="matrix(1 0 0 1 170.3437 33.3326)" class="st0 st2">3</text>
<text transform="matrix(1 0 0 1 116.7206 33.1539)" class="st0 st1">+</text>
<line class="st3" x1="190.5" y1="29.1" x2="249.9" y2="29.1"/>
<polygon points="259,29.1 248.3,26.4 249.9,29.1 248.3,31.8 "/>
<polygon points="274.3,16.8 295.5,4.5 295.5,5.1 295.5,5.8 275.3,17.4 274.8,17.1 "/>
<polygon points="295.5,4.5 316.3,16.5 316.3,17.1 315.8,17.4 295.5,5.8 295.5,5.1 "/>
<polygon points="295.8,8 313.7,18.3 313.4,18.8 313.2,19.2 295.3,8.9 295.5,8.5 "/>
<polygon points="316.8,17.4 316.8,41.4 316.3,41.1 315.8,40.8 315.8,17.4 316.3,17.1 "/>
<polygon points="316.8,41.4 295.5,53.7 295.5,53.1 295.5,52.4 315.8,40.8 316.3,41.1 "/>
<polygon points="313.7,39.9 295.8,50.2 295.5,49.7 295.3,49.3 313.2,39 313.4,39.4 "/>
<polygon points="295.5,53.7 274.3,41.4 274.8,41.1 275.3,40.8 295.5,52.4 295.5,53.1 "/>
<polygon points="274.3,41.4 274.3,16.8 274.8,17.1 275.3,17.4 275.3,40.8 274.8,41.1 "/>
<polygon points="277.1,39.4 277.1,18.8 277.7,18.8 278.2,18.8 278.2,39.4 277.7,39.4 "/>
<polygon points="316.3,16.5 331.5,7.7 331.7,8.2 332,8.7 316.8,17.4 316.3,17.1 "/>
<text transform="matrix(1 0 0 1 332.7968 9.7701)" class="st0 st1">O</text>
<text transform="matrix(1 0 0 1 341.2997 9.7701)" class="st0 st1">N</text>
<text transform="matrix(1 0 0 1 349.8026 9.7701)" class="st0 st1">a</text>
<text transform="matrix(1 0 0 1 382.0917 31.521)" class="st0 st1">N</text>
<text transform="matrix(1 0 0 1 390.5946 31.521)" class="st0 st1">a</text>
<text transform="matrix(1 0 0 1 405.3563 31.4358)" class="st0 st1">C</text>
<text transform="matrix(1 0 0 1 413.2098 31.4358)" class="st0 st1">O</text>
<text transform="matrix(1 0 0 1 421.7128 33.2473)" class="st0 st2">3</text>
<text transform="matrix(1 0 0 1 362.1776 33.1539)" class="st0 st1">+</text>
<text transform="matrix(1 0 0 1 396.3489 31.6468)" class="st0 st1">H</text>
</svg>
