<?xml version="1.0" standalone='no'?><!-- IBoard SVG File --><svg xmlns="http://www.w3.org/2000/svg" xmlns:xlink="http://www.w3.org/1999/xlink" viewBox="340.67 434.70 439.16 74.25" height="67.25" width="446.16" version="1.1"><!-- SVG File --><polygon points="345.748352,453.261261 369.250122,439.692535 369.250122,440.373352 369.250122,441.054169 346.927551,453.942108 346.337952,453.601715 " style="fill:rgb(0,0,0);fill-opacity:1.000000"/><polygon points="369.250122,439.692535 392.162170,452.920807 392.162292,453.601715 391.572693,453.942108 369.250122,441.054169 369.250122,440.373352 " style="fill:rgb(0,0,0);fill-opacity:1.000000"/><polygon points="369.544922,443.528687 389.282288,454.924042 388.987488,455.434692 388.692688,455.945313 368.955322,444.549927 369.250122,444.039307 " style="fill:rgb(0,0,0);fill-opacity:1.000000"/><polygon points="392.751892,453.941925 392.751892,480.398834 392.162292,480.058411 391.572693,479.717987 391.572693,453.942108 392.162292,453.601715 " style="fill:rgb(0,0,0);fill-opacity:1.000000"/><polygon points="392.751892,480.398834 369.250061,493.967529 369.250061,493.286743 369.250061,492.605957 391.572693,479.717987 392.162292,480.058411 " style="fill:rgb(0,0,0);fill-opacity:1.000000"/><polygon points="389.282288,478.736053 369.544861,490.131439 369.250061,489.620819 368.955261,489.110199 388.692688,477.714813 388.987488,478.225433 " style="fill:rgb(0,0,0);fill-opacity:1.000000"/><polygon points="369.250061,493.967529 345.748322,480.398773 346.337921,480.058350 346.927521,479.717926 369.250061,492.605957 369.250061,493.286743 " style="fill:rgb(0,0,0);fill-opacity:1.000000"/><polygon points="345.748322,480.398773 345.748352,453.261261 346.337952,453.601715 346.927551,453.942108 346.927521,479.717926 346.337921,480.058350 " style="fill:rgb(0,0,0);fill-opacity:1.000000"/><polygon points="348.923126,478.225372 348.923157,455.434692 349.512756,455.434692 350.102356,455.434692 350.102325,478.225372 349.512726,478.225372 " style="fill:rgb(0,0,0);fill-opacity:1.000000"/><polygon points="392.162170,452.920807 408.901672,443.247437 409.196655,443.757935 409.491638,444.268433 392.751892,453.941925 392.162292,453.601715 " style="fill:rgb(0,0,0);fill-opacity:1.000000"/><text xml:space="preserve" x="410.375854" y="445.478485" textLength="18.773333" lengthAdjust="spacingAndGlyphs"><tspan font-family="Times New Roman" font-weight="normal" baseline-shift="0" font-size="13" fill="#000000">O</tspan><tspan font-family="Times New Roman" font-weight="normal" baseline-shift="0" font-size="13" fill="#000000">H</tspan></text><text xml:space="preserve" x="464.806763" y="469.502075" textLength="41.013332" lengthAdjust="spacingAndGlyphs"><tspan font-family="Times New Roman" font-weight="normal" baseline-shift="0" font-size="13" fill="#000000">N</tspan><tspan font-family="Times New Roman" font-weight="normal" baseline-shift="0" font-size="13" fill="#000000">a</tspan><tspan font-family="Times New Roman" font-weight="normal" baseline-shift="-2" font-size="8" fill="#000000">2</tspan><tspan font-family="Times New Roman" font-weight="normal" baseline-shift="0" font-size="13" fill="#000000">C</tspan><tspan font-family="Times New Roman" font-weight="normal" baseline-shift="0" font-size="13" fill="#000000">O</tspan><tspan font-family="Times New Roman" font-weight="normal" baseline-shift="-2" font-size="8" fill="#000000">3</tspan></text><text xml:space="preserve" x="442.820068" y="471.305054" textLength="7.330000" lengthAdjust="spacingAndGlyphs"><tspan font-family="Times New Roman" font-weight="normal" baseline-shift="0" font-size="13" fill="#000000">+</tspan></text><line x1="524.3194" y1="466.83005" x2="589.88666" y2="466.83005" style="stroke:rgb(0,0,0);stroke-width:1.179213;stroke-opacity:1.000000" stroke-linecap="butt"/><polygon points="599.909973,466.830048 588.117859,463.882019 589.886658,466.830048 588.117859,469.778076 " style="fill:rgb(0,0,0);fill-opacity:1.000000"/><polygon points="616.754211,453.261292 640.255981,439.692535 640.255981,440.373352 640.255981,441.054169 617.933411,453.942139 617.343811,453.601715 " style="fill:rgb(0,0,0);fill-opacity:1.000000"/><polygon points="640.255981,439.692535 663.168152,452.920898 663.168152,453.601715 662.578552,453.942139 640.255981,441.054169 640.255981,440.373352 " style="fill:rgb(0,0,0);fill-opacity:1.000000"/><polygon points="640.550781,443.528656 660.288147,454.924072 659.993347,455.434692 659.698547,455.945313 639.961182,444.549896 640.255981,444.039276 " style="fill:rgb(0,0,0);fill-opacity:1.000000"/><polygon points="663.757751,453.942139 663.757751,480.398865 663.168152,480.058441 662.578552,479.718018 662.578552,453.942139 663.168152,453.601715 " style="fill:rgb(0,0,0);fill-opacity:1.000000"/><polygon points="663.757751,480.398865 640.255920,493.967560 640.255920,493.286743 640.255920,492.605927 662.578552,479.718018 663.168152,480.058441 " style="fill:rgb(0,0,0);fill-opacity:1.000000"/><polygon points="660.288147,478.736084 640.550720,490.131439 640.255920,489.620819 639.961121,489.110199 659.698547,477.714844 659.993347,478.225464 " style="fill:rgb(0,0,0);fill-opacity:1.000000"/><polygon points="640.255920,493.967560 616.754150,480.398773 617.343750,480.058350 617.933350,479.717926 640.255920,492.605927 640.255920,493.286743 " style="fill:rgb(0,0,0);fill-opacity:1.000000"/><polygon points="616.754150,480.398773 616.754211,453.261292 617.343811,453.601715 617.933411,453.942139 617.933350,479.717926 617.343750,480.058350 " style="fill:rgb(0,0,0);fill-opacity:1.000000"/><polygon points="619.928955,478.225372 619.929016,455.434692 620.518616,455.434692 621.108215,455.434692 621.108154,478.225372 620.518555,478.225372 " style="fill:rgb(0,0,0);fill-opacity:1.000000"/><polygon points="663.168152,452.920898 679.912964,443.253296 680.207764,443.763916 680.502563,444.274536 663.757751,453.942139 663.168152,453.601715 " style="fill:rgb(0,0,0);fill-opacity:1.000000"/><text xml:space="preserve" x="681.386963" y="445.487610" textLength="24.543333" lengthAdjust="spacingAndGlyphs"><tspan font-family="Times New Roman" font-weight="normal" baseline-shift="0" font-size="13" fill="#000000">O</tspan><tspan font-family="Times New Roman" font-weight="normal" baseline-shift="0" font-size="13" fill="#000000">N</tspan><tspan font-family="Times New Roman" font-weight="normal" baseline-shift="0" font-size="13" fill="#000000">a</tspan></text><text xml:space="preserve" x="735.812622" y="469.502075" textLength="41.013332" lengthAdjust="spacingAndGlyphs"><tspan font-family="Times New Roman" font-weight="normal" baseline-shift="0" font-size="13" fill="#000000">N</tspan><tspan font-family="Times New Roman" font-weight="normal" baseline-shift="0" font-size="13" fill="#000000">a</tspan><tspan font-family="Times New Roman" font-weight="normal" baseline-shift="-2" font-size="8" fill="#000000">2</tspan><tspan font-family="Times New Roman" font-weight="normal" baseline-shift="0" font-size="13" fill="#000000">C</tspan><tspan font-family="Times New Roman" font-weight="normal" baseline-shift="0" font-size="13" fill="#000000">O</tspan><tspan font-family="Times New Roman" font-weight="normal" baseline-shift="-2" font-size="8" fill="#000000">3</tspan></text><text xml:space="preserve" x="713.825928" y="471.305054" textLength="7.330000" lengthAdjust="spacingAndGlyphs"><tspan font-family="Times New Roman" font-weight="normal" baseline-shift="0" font-size="13" fill="#000000">+</tspan></text></svg>