<svg width="1521" height="288" xmlns="http://www.w3.org/2000/svg" xmlns:xlink="http://www.w3.org/1999/xlink" xml:space="preserve" overflow="hidden"><g transform="translate(-1521 -1033)"><text font-family="Source Han Serif SC Medium,Source Han Serif SC Medium_MSFontService,sans-serif" font-weight="500" font-size="45" transform="matrix(1 0 0 1 1726.11 1187)">C</text><path d="M1745 1189 1745 1240 1742.5 1240 1740 1240 1740 1189 1742.5 1189Z" fill-rule="evenodd"/><text font-family="Source Han Serif SC Medium,Source Han Serif SC Medium_MSFontService,sans-serif" font-weight="500" font-size="45" transform="matrix(1 0 0 1 1726.11 1283)">H</text><path d="M1722 1170 1651 1170 1651 1168 1651 1166 1722 1166 1722 1168Z" fill-rule="evenodd"/><text font-family="Source Han Serif SC Medium,Source Han Serif SC Medium_MSFontService,sans-serif" font-weight="500" font-size="45" transform="matrix(1 0 0 1 1599.09 1186)">R</text><text font-family="Source Han Serif SC Medium,Source Han Serif SC Medium_MSFontService,sans-serif" font-weight="500" font-size="28" transform="matrix(1 0 0 1 1631.75 1192)">2</text><path d="M1740 1148 1740 1096 1742.5 1096 1745 1096 1745 1148 1742.5 1148Z" fill-rule="evenodd"/><text font-family="Source Han Serif SC Medium,Source Han Serif SC Medium_MSFontService,sans-serif" font-weight="500" font-size="45" transform="matrix(1 0 0 1 1726.11 1092)">R</text><text font-family="Source Han Serif SC Medium,Source Han Serif SC Medium_MSFontService,sans-serif" font-weight="500" font-size="28" transform="matrix(1 0 0 1 1758.77 1098)">1</text><path d="M1763 1166 1824 1166 1824 1168 1824 1170 1763 1170 1763 1168Z" fill-rule="evenodd"/><text font-family="Source Han Serif SC Medium,Source Han Serif SC Medium_MSFontService,sans-serif" font-weight="500" font-size="45" transform="matrix(1 0 0 1 1827.88 1188)">O</text><path d="M1867 1166 1928 1166 1928 1168 1928 1170 1867 1170 1867 1168Z" fill-rule="evenodd"/><text font-family="Source Han Serif SC Medium,Source Han Serif SC Medium_MSFontService,sans-serif" font-weight="500" font-size="45" transform="matrix(1 0 0 1 1932.18 1190)">H</text><text font-family="Source Han Serif SC Medium,Source Han Serif SC Medium_MSFontService,sans-serif" font-weight="500" font-size="45" transform="matrix(1 0 0 1 1554.11 1186)">2</text><text font-family="Source Han Serif SC Medium,Source Han Serif SC Medium_MSFontService,sans-serif" font-weight="500" font-size="45" transform="matrix(1 0 0 1 2009.79 1186)">+</text><text font-family="Source Han Serif SC Medium,Source Han Serif SC Medium_MSFontService,sans-serif" font-weight="500" font-size="45" transform="matrix(1 0 0 1 2073.02 1187)">O</text><text font-family="Source Han Serif SC Medium,Source Han Serif SC Medium_MSFontService,sans-serif" font-weight="500" font-size="28" transform="matrix(1 0 0 1 2107.4 1193)">2</text><text font-family="Source Han Serif SC Medium,Source Han Serif SC Medium_MSFontService,sans-serif" font-weight="500" font-size="45" transform="matrix(1 0 0 1 2894.23 1186)">2H</text><text font-family="Source Han Serif SC Medium,Source Han Serif SC Medium_MSFontService,sans-serif" font-weight="500" font-size="28" transform="matrix(1 0 0 1 2957.83 1192)">2</text><text font-family="Source Han Serif SC Medium,Source Han Serif SC Medium_MSFontService,sans-serif" font-weight="500" font-size="45" transform="matrix(1 0 0 1 2973.3 1186)">O</text><path d="M2162 1167 2391 1167" stroke="#000000" stroke-width="4.12139" stroke-miterlimit="8" fill="none" fill-rule="evenodd"/><path d="M2426 1167 2385 1158 2391.15 1167 2385 1176Z" fill-rule="evenodd"/><text font-family="Source Han Serif SC Medium,Source Han Serif SC Medium_MSFontService,sans-serif" font-weight="500" font-size="45" transform="matrix(1 0 0 1 2506.96 1186)">R</text><text font-family="Source Han Serif SC Medium,Source Han Serif SC Medium_MSFontService,sans-serif" font-weight="500" font-size="28" transform="matrix(1 0 0 1 2539.61 1192)">2</text><text font-family="Source Han Serif SC Medium,Source Han Serif SC Medium_MSFontService,sans-serif" font-weight="500" font-size="45" transform="matrix(1 0 0 1 2633.98 1092)">R</text><text font-family="Source Han Serif SC Medium,Source Han Serif SC Medium_MSFontService,sans-serif" font-weight="500" font-size="28" transform="matrix(1 0 0 1 2666.63 1098)">1</text><text font-family="Source Han Serif SC Medium,Source Han Serif SC Medium_MSFontService,sans-serif" font-weight="500" font-size="45" transform="matrix(1 0 0 1 2735.74 1190)">O</text><text font-family="Source Han Serif SC Medium,Source Han Serif SC Medium_MSFontService,sans-serif" font-weight="500" font-size="45" transform="matrix(1 0 0 1 2633.98 1190)">C</text><path d="M2630 1170 2559 1170 2559 1168 2559 1166 2630 1166 2630 1168Z" fill-rule="evenodd"/><path d="M2648 1148 2648 1096 2650 1096 2652 1096 2652 1148 2650 1148Z" fill-rule="evenodd"/><path d="M2671 1161 2732 1161 2732 1163 2732 1165 2671 1165 2671 1163Z" fill-rule="evenodd"/><path d="M2671 1172 2732 1172 2732 1174 2732 1176 2671 1176 2671 1174Z" fill-rule="evenodd"/><text font-family="Source Han Serif SC Medium,Source Han Serif SC Medium_MSFontService,sans-serif" font-weight="500" font-size="45" transform="matrix(1 0 0 1 2461.97 1186)">2</text><text font-family="Source Han Serif SC Medium,Source Han Serif SC Medium_MSFontService,sans-serif" font-weight="500" font-size="45" transform="matrix(1 0 0 1 2820.84 1186)">+</text><text font-family="Source Han Serif SC Medium,Source Han Serif SC Medium_MSFontService,sans-serif" font-weight="500" font-size="45" transform="matrix(1 0 0 1 2258.42 1145)">Cu</text><text font-family="Source Han Serif SC Medium,Source Han Serif SC Medium_MSFontService,sans-serif" font-weight="500" font-size="45" transform="matrix(1 0 0 1 2266.95 1223)">△</text><path d="M1693.5 1218.5 1693.5 1311.08" stroke="#4472C4" stroke-width="4.58333" stroke-linecap="round" stroke-linejoin="round" stroke-miterlimit="10" stroke-dasharray="13.75 18.3333 0 18.3333" fill="none" fill-rule="evenodd"/><path d="M1693.5 1311.5 2146.53 1311.5" stroke="#4472C4" stroke-width="4.58333" stroke-linecap="round" stroke-linejoin="round" stroke-miterlimit="10" stroke-dasharray="13.75 18.3333 0 18.3333" fill="none" fill-rule="evenodd"/><path d="M1693.5 1218.5 1896.62 1218.5" stroke="#4472C4" stroke-width="4.58333" stroke-linecap="round" stroke-linejoin="round" stroke-miterlimit="10" stroke-dasharray="13.75 18.3333 0 18.3333" fill="none" fill-rule="evenodd"/><path d="M0 0 0.000360892 190.42" stroke="#4472C4" stroke-width="4.58333" stroke-linecap="round" stroke-linejoin="round" stroke-miterlimit="10" stroke-dasharray="13.75 18.3333 0 18.3333" fill="none" fill-rule="evenodd" transform="matrix(1 0 0 -1 2148.5 1310.92)"/><path d="M1896.5 1120.5 2148.7 1120.5" stroke="#4472C4" stroke-width="4.58333" stroke-linecap="round" stroke-linejoin="round" stroke-miterlimit="10" stroke-dasharray="13.75 18.3333 0 18.3333" fill="none" fill-rule="evenodd"/><path d="M1896.5 1120.5 1896.5 1218.34" stroke="#4472C4" stroke-width="4.58333" stroke-linecap="round" stroke-linejoin="round" stroke-miterlimit="10" stroke-dasharray="13.75 18.3333 0 18.3333" fill="none" fill-rule="evenodd"/></g></svg>