<?xml version="1.0" standalone='no'?><!-- IBoard SVG File --><svg xmlns="http://www.w3.org/2000/svg" xmlns:xlink="http://www.w3.org/1999/xlink" viewBox="167.00 164.61 394.40 85.06" height="78.06" width="401.40" version="1.1"><!-- SVG File --><polygon points="172.079697,188.482758 198.199997,173.402206 198.199997,174.083023 198.199997,174.763840 173.258896,189.163605 172.669296,188.823181 " style="fill:rgb(0,0,0);fill-opacity:1.000000"/><polygon points="198.199997,173.402206 223.730576,188.142288 223.730698,188.823181 223.141098,189.163605 198.199997,174.763840 198.199997,174.083023 " style="fill:rgb(0,0,0);fill-opacity:1.000000"/><polygon points="198.494797,177.657318 220.487854,190.355026 220.193054,190.865646 219.898254,191.376266 197.905197,178.678558 198.199997,178.167938 " style="fill:rgb(0,0,0);fill-opacity:1.000000"/><polygon points="224.320297,189.163437 224.320297,218.643936 223.730698,218.303513 223.141098,217.963089 223.141098,189.163605 223.730698,188.823181 " style="fill:rgb(0,0,0);fill-opacity:1.000000"/><polygon points="224.320297,218.643936 198.199982,233.724472 198.199982,233.043655 198.199982,232.362839 223.141098,217.963089 223.730698,218.303513 " style="fill:rgb(0,0,0);fill-opacity:1.000000"/><polygon points="220.487854,216.771667 198.494781,229.469360 198.199982,228.958740 197.905182,228.448120 219.898254,215.750427 220.193054,216.261047 " style="fill:rgb(0,0,0);fill-opacity:1.000000"/><polygon points="198.199982,233.724472 172.079697,218.643906 172.669296,218.303482 173.258896,217.963058 198.199982,232.362839 198.199982,233.043655 " style="fill:rgb(0,0,0);fill-opacity:1.000000"/><polygon points="172.079697,218.643906 172.079697,188.482758 172.669296,188.823181 173.258896,189.163605 173.258896,217.963058 172.669296,218.303482 " style="fill:rgb(0,0,0);fill-opacity:1.000000"/><polygon points="175.617340,216.261032 175.617340,190.865646 176.206940,190.865646 176.796539,190.865646 176.796539,216.261032 176.206940,216.261032 " style="fill:rgb(0,0,0);fill-opacity:1.000000"/><polygon points="223.730576,188.142288 241.209686,178.041504 241.504684,178.552002 241.799683,179.062500 224.320297,189.163437 223.730698,188.823181 " style="fill:rgb(0,0,0);fill-opacity:1.000000"/><text xml:space="preserve" x="242.683899" y="180.632813" textLength="26.286667" lengthAdjust="spacingAndGlyphs"><tspan font-family="Times New Roman" font-weight="normal" baseline-shift="0" font-size="18" fill="#000000">O</tspan><tspan font-family="Times New Roman" font-weight="normal" baseline-shift="0" font-size="18" fill="#000000">H</tspan></text><line x1="269.00485" y1="200.02995" x2="334.57208" y2="200.02995" style="stroke:rgb(0,0,0);stroke-width:1.179213;stroke-opacity:1.000000" stroke-linecap="butt"/><line x1="279.02817" y1="203.56758" x2="344.5954" y2="203.56758" style="stroke:rgb(0,0,0);stroke-width:1.179213;stroke-opacity:1.000000" stroke-linecap="butt"/><polygon points="269.004852,202.977982 280.796967,206.515610 279.028168,202.977982 " style="fill:rgb(0,0,0);fill-opacity:1.000000"/><polygon points="344.595398,200.619553 332.803284,197.081924 334.572083,200.619553 " style="fill:rgb(0,0,0);fill-opacity:1.000000"/><polygon points="384.613037,189.447311 410.733337,174.366760 410.733337,175.047577 410.733337,175.728394 385.792236,190.128159 385.202637,189.787735 " style="fill:rgb(0,0,0);fill-opacity:1.000000"/><polygon points="410.733337,174.366760 436.263916,189.106827 436.264038,189.787735 435.674438,190.128159 410.733337,175.728394 410.733337,175.047577 " style="fill:rgb(0,0,0);fill-opacity:1.000000"/><polygon points="411.028137,178.621887 433.021179,191.319580 432.726379,191.830200 432.431580,192.340820 410.438538,179.643127 410.733337,179.132507 " style="fill:rgb(0,0,0);fill-opacity:1.000000"/><polygon points="436.853638,190.128006 436.853638,219.608475 436.264038,219.268051 435.674438,218.927628 435.674438,190.128159 436.264038,189.787735 " style="fill:rgb(0,0,0);fill-opacity:1.000000"/><polygon points="436.853638,219.608475 410.733337,234.689026 410.733337,234.008209 410.733337,233.327393 435.674438,218.927628 436.264038,219.268051 " style="fill:rgb(0,0,0);fill-opacity:1.000000"/><polygon points="433.021179,217.736206 411.028137,230.433899 410.733337,229.923279 410.438538,229.412659 432.431580,216.714966 432.726379,217.225586 " style="fill:rgb(0,0,0);fill-opacity:1.000000"/><polygon points="410.733337,234.689026 384.613037,219.608475 385.202637,219.268051 385.792236,218.927628 410.733337,233.327393 410.733337,234.008209 " style="fill:rgb(0,0,0);fill-opacity:1.000000"/><polygon points="384.613037,219.608475 384.613037,189.447311 385.202637,189.787735 385.792236,190.128159 385.792236,218.927628 385.202637,219.268051 " style="fill:rgb(0,0,0);fill-opacity:1.000000"/><polygon points="388.150665,217.225601 388.150665,191.830185 388.740265,191.830185 389.329865,191.830185 389.329865,217.225601 388.740265,217.225601 " style="fill:rgb(0,0,0);fill-opacity:1.000000"/><polygon points="436.263916,189.106827 453.743042,179.006042 454.038055,179.516541 454.333069,180.027039 436.853638,190.128006 436.264038,189.787735 " style="fill:rgb(0,0,0);fill-opacity:1.000000"/><text xml:space="preserve" x="455.217255" y="182.487427" textLength="16.780001" lengthAdjust="spacingAndGlyphs"><tspan font-family="Times New Roman" font-weight="normal" baseline-shift="0" font-size="18" fill="#000000">O</tspan><tspan font-family="Times New Roman" font-weight="normal" baseline-shift="8" font-size="11" fill="#000000">-</tspan></text><text xml:space="preserve" x="539.094971" y="212.432358" textLength="19.303333" lengthAdjust="spacingAndGlyphs"><tspan font-family="Times New Roman" font-weight="normal" baseline-shift="0" font-size="18" fill="#000000">H</tspan><tspan font-family="Times New Roman" font-weight="normal" baseline-shift="8" font-size="11" fill="#000000">+</tspan></text><text xml:space="preserve" x="495.266602" y="214.014999" textLength="10.263333" lengthAdjust="spacingAndGlyphs"><tspan font-family="Times New Roman" font-weight="normal" baseline-shift="0" font-size="18" fill="#000000">+</tspan></text></svg>