<svg width="2424" height="627" xmlns="http://www.w3.org/2000/svg" xmlns:xlink="http://www.w3.org/1999/xlink" xml:space="preserve" overflow="hidden"><g transform="translate(-986 -790)"><text font-family="Source Han Serif SC Medium,Source Han Serif SC Medium_MSFontService,sans-serif" font-weight="500" font-size="83" transform="matrix(1 0 0 1 1035.96 894)">淀粉</text><text font-family="Source Han Serif SC Medium,Source Han Serif SC Medium_MSFontService,sans-serif" font-weight="500" font-size="83" transform="matrix(1 0 0 1 1035.96 993)">溶液</text><path d="M0.00878717-1.1458 385.419 1.80992 385.401 4.10152-0.00878717 1.1458ZM380.932-10.829 408.326 3.13146 380.721 16.6702Z" transform="matrix(1 0 0 -1 1243 915.131)"/><text font-family="Source Han Serif SC Medium,Source Han Serif SC Medium_MSFontService,sans-serif" font-weight="500" font-size="55" transform="matrix(1 0 0 1 1363.93 882)">稀硫酸</text><text font-family="Source Han Serif SC Medium,Source Han Serif SC Medium_MSFontService,sans-serif" font-weight="500" font-size="55" transform="matrix(1 0 0 1 1391.7 993)">微热</text><text font-family="Source Han Serif SC Medium,Source Han Serif SC Medium_MSFontService,sans-serif" font-weight="500" font-size="83" transform="matrix(1 0 0 1 1684.72 941)">水解液</text><path d="M1820.15 972.98 1824.08 1200.39 1821.79 1200.43 1817.85 973.02ZM1836.6 1195.59 1823.33 1223.33 1809.11 1196.07Z"/><text font-family="Source Han Serif SC Medium,Source Han Serif SC Medium_MSFontService,sans-serif" font-weight="500" font-size="83" transform="matrix(1 0 0 1 1696.57 1347)">现象</text><text font-family="Source Han Serif SC Medium,Source Han Serif SC Medium_MSFontService,sans-serif" font-weight="500" font-size="83" transform="matrix(1 0 0 1 1861.57 1347)">B</text><path d="M0.00878717-1.1458 385.419 1.80992 385.401 4.10152-0.00878717 1.1458ZM380.932-10.829 408.326 3.13146 380.721 16.6702Z" transform="matrix(1 0 0 -1 1959 914.131)"/><path d="M2088.93 856.692C2087.09 856.692 2085.43 857.435 2083.96 858.921 2082.5 860.407 2081.35 862.399 2080.53 864.896 2079.7 867.394 2079.29 869.887 2079.29 872.375 2079.29 874.237 2079.55 875.629 2080.06 876.551 2080.57 877.474 2081.42 877.935 2082.62 877.935 2083.8 877.935 2084.96 877.424 2086.1 876.404 2087.24 875.383 2088.41 873.929 2089.62 872.04 2090.82 870.151 2091.68 867.971 2092.18 865.5L2092.42 864.346C2092.58 863.612 2092.69 862.976 2092.75 862.439 2092.8 861.902 2092.83 861.32 2092.83 860.693 2092.83 859.315 2092.53 858.303 2091.94 857.659 2091.35 857.014 2090.35 856.692 2088.93 856.692ZM2088.39 854.57C2089.56 854.57 2090.65 854.7 2091.66 854.96 2092.67 855.219 2093.71 855.68 2094.79 856.343L2097.26 854.57 2098.98 855 2095.03 872.026C2094.63 873.727 2094.44 875.052 2094.44 876.001 2094.44 876.717 2094.55 877.236 2094.79 877.559 2095.02 877.881 2095.39 878.042 2095.89 878.042 2096.42 878.042 2097 877.823 2097.61 877.384 2098.21 876.945 2099.07 876.108 2100.18 874.873L2101.71 876.377C2100.1 878.096 2098.73 879.318 2097.59 880.043 2096.46 880.768 2095.22 881.13 2093.9 881.13 2092.79 881.13 2091.9 880.763 2091.24 880.029 2090.58 879.295 2090.25 878.319 2090.25 877.102 2090.25 876.117 2090.45 875.07 2090.87 873.96L2090.52 873.852C2088.8 876.359 2087.17 878.194 2085.63 879.358 2084.09 880.522 2082.46 881.103 2080.74 881.103 2078.77 881.103 2077.24 880.36 2076.16 878.874 2075.08 877.388 2074.54 875.303 2074.54 872.617 2074.54 869.538 2075.14 866.579 2076.35 863.741 2077.56 860.904 2079.22 858.666 2081.33 857.028 2083.44 855.389 2085.8 854.57 2088.39 854.57ZM2124.2 845.977C2122.26 845.977 2120.46 846.666 2118.78 848.044 2117.11 849.423 2115.64 851.392 2114.38 853.953 2113.12 856.513 2112.14 859.324 2111.44 862.385 2110.74 865.447 2110.39 868.15 2110.39 870.496 2110.39 876.028 2112.41 878.794 2116.43 878.794 2118.89 878.794 2121.14 877.666 2123.19 875.41 2125.24 873.154 2126.92 869.99 2128.22 865.917 2129.53 861.844 2130.18 857.936 2130.18 854.194 2130.18 848.716 2128.19 845.977 2124.2 845.977ZM2148.28 844.043 2159.03 844.043 2158.73 845.359C2158.05 845.502 2157.56 845.663 2157.27 845.842 2156.97 846.021 2156.71 846.29 2156.47 846.648 2156.24 847.006 2156 847.565 2155.75 848.326 2155.5 849.087 2155.19 850.327 2154.81 852.046L2152.98 860.264 2167.41 860.264 2169.23 852.019C2169.39 851.285 2169.53 850.502 2169.65 849.669 2169.76 848.837 2169.82 848.179 2169.82 847.695 2169.82 846.854 2169.61 846.267 2169.19 845.936 2168.77 845.605 2168.1 845.413 2167.19 845.359L2167.49 844.043 2178.23 844.043 2177.93 845.359C2177.25 845.502 2176.76 845.663 2176.47 845.842 2176.17 846.021 2175.91 846.29 2175.68 846.648 2175.44 847.006 2175.2 847.565 2174.95 848.326 2174.7 849.087 2174.39 850.327 2174.01 852.046L2169.42 872.886C2169.19 873.942 2169.03 874.779 2168.96 875.397 2168.89 876.014 2168.86 876.574 2168.86 877.075 2168.86 877.881 2169.06 878.449 2169.46 878.78 2169.86 879.112 2170.54 879.313 2171.49 879.385L2171.19 880.701 2160.45 880.701 2160.74 879.385C2161.43 879.277 2161.94 879.103 2162.28 878.861 2162.62 878.619 2162.9 878.284 2163.14 877.854 2163.37 877.424 2163.58 876.901 2163.78 876.283 2163.98 875.665 2164.27 874.47 2164.67 872.698L2166.87 862.734 2152.45 862.734 2150.22 872.886C2150.02 873.781 2149.88 874.519 2149.79 875.101 2149.7 875.683 2149.65 876.341 2149.65 877.075 2149.65 877.845 2149.83 878.4 2150.19 878.74 2150.55 879.08 2151.25 879.295 2152.29 879.385L2151.99 880.701 2141.25 880.701 2141.54 879.385C2142.22 879.277 2142.73 879.103 2143.07 878.861 2143.41 878.619 2143.7 878.284 2143.93 877.854 2144.17 877.424 2144.38 876.901 2144.58 876.283 2144.77 875.665 2145.07 874.47 2145.46 872.698L2150.03 852.019C2150.19 851.285 2150.33 850.502 2150.45 849.669 2150.56 848.837 2150.62 848.179 2150.62 847.695 2150.62 846.854 2150.41 846.267 2149.99 845.936 2149.57 845.605 2148.9 845.413 2147.99 845.359ZM2040.23 844.043 2048.8 844.043 2055.89 864.963C2056.91 867.971 2057.7 870.513 2058.25 872.59L2058.55 872.59C2058.69 871.498 2059.02 869.681 2059.53 867.139 2060.04 864.596 2060.51 862.376 2060.94 860.478L2062.82 852.019C2063.21 850.247 2063.41 848.805 2063.41 847.695 2063.41 846.854 2063.2 846.267 2062.78 845.936 2062.35 845.605 2061.69 845.413 2060.77 845.359L2061.07 844.043 2070.47 844.043 2070.17 845.359C2069.49 845.502 2069.01 845.663 2068.71 845.842 2068.42 846.021 2068.15 846.29 2067.92 846.648 2067.69 847.006 2067.44 847.565 2067.19 848.326 2066.94 849.087 2066.63 850.327 2066.25 852.046L2059.94 880.701 2056.29 880.701 2048.45 857.659C2047.5 854.901 2046.67 852.153 2045.95 849.414L2045.6 849.414C2045.49 850.327 2045.2 852.068 2044.72 854.637 2044.23 857.207 2043.72 859.718 2043.18 862.17L2040.82 872.886C2040.45 874.587 2040.26 875.983 2040.26 877.075 2040.26 877.881 2040.46 878.449 2040.86 878.78 2041.26 879.112 2041.94 879.313 2042.89 879.385L2042.59 880.701 2033.19 880.701 2033.49 879.385C2034.17 879.277 2034.68 879.103 2035.02 878.861 2035.36 878.619 2035.65 878.284 2035.88 877.854 2036.11 877.424 2036.33 876.901 2036.52 876.283 2036.72 875.665 2037.02 874.47 2037.41 872.698L2041.98 852.019C2042.16 851.249 2042.3 850.515 2042.41 849.817 2042.51 849.119 2042.57 848.411 2042.57 847.695 2042.57 846.854 2042.36 846.267 2041.94 845.936 2041.51 845.605 2040.85 845.413 2039.93 845.359ZM2124.49 843.613C2127.95 843.613 2130.61 844.616 2132.48 846.621 2134.35 848.626 2135.29 851.527 2135.29 855.322 2135.29 858.097 2134.81 861.217 2133.86 864.681 2132.91 868.146 2131.54 871.145 2129.74 873.678 2127.94 876.211 2125.89 878.091 2123.58 879.318 2121.27 880.544 2118.85 881.157 2116.33 881.157 2112.73 881.157 2110 880.155 2108.14 878.149 2106.27 876.144 2105.34 873.28 2105.34 869.556 2105.34 866.87 2105.79 863.835 2106.7 860.452 2107.6 857.068 2108.91 854.082 2110.62 851.495 2112.33 848.908 2114.37 846.948 2116.74 845.614 2119.11 844.28 2121.7 843.613 2124.49 843.613Z" fill-rule="evenodd"/><text fill="#000000" fill-opacity="0" font-family="Arial,Arial_MSFontService,sans-serif" font-size="37.5439" x="2033.19" y="876.464">𝑁𝑎𝑂𝐻</text><text font-family="Source Han Serif SC Medium,Source Han Serif SC Medium_MSFontService,sans-serif" font-weight="500" font-size="55" transform="matrix(1 0 0 1 2181.13 881)">溶液</text><text font-family="Source Han Serif SC Medium,Source Han Serif SC Medium_MSFontService,sans-serif" font-weight="500" font-size="83" transform="matrix(1 0 0 1 2397.81 936)">中和液</text><path d="M0.00878717-1.1458 385.419 1.80992 385.401 4.10152-0.00878717 1.1458ZM380.932-10.829 408.326 3.13146 380.721 16.6702Z" transform="matrix(1 0 0 -1 2647 914.131)"/><text font-family="Source Han Serif SC Medium,Source Han Serif SC Medium_MSFontService,sans-serif" font-weight="500" font-size="55" transform="matrix(1 0 0 1 2717.88 881)">银氨溶液</text><text font-family="Source Han Serif SC Medium,Source Han Serif SC Medium_MSFontService,sans-serif" font-weight="500" font-size="83" transform="matrix(1 0 0 1 3099.13 937)">现象</text><text font-family="Source Han Serif SC Medium,Source Han Serif SC Medium_MSFontService,sans-serif" font-weight="500" font-size="83" transform="matrix(1 0 0 1 3264.13 937)">A</text><text font-family="Source Han Serif SC Medium,Source Han Serif SC Medium_MSFontService,sans-serif" font-weight="500" font-size="55" transform="matrix(1 0 0 1 2720.24 981)">水浴加热</text><text font-family="Source Han Serif SC Medium,Source Han Serif SC Medium_MSFontService,sans-serif" font-weight="500" font-size="55" transform="matrix(1 0 0 1 1684.4 1101)">碘水</text><path d="M1881.47 1097.96 2055.39 1176.83 2054.45 1178.91 1880.53 1100.04ZM2056.43 1163.45 2075.79 1187.33 2045.07 1188.5Z" fill="#4472C4"/><text fill="#4472C4" font-family="Source Han Serif SC,Source Han Serif SC_MSFontService,sans-serif" font-weight="400" font-size="50" transform="matrix(1 0 0 1 2092.65 1236)">碘水检验淀粉不能在碱性环境中，因为</text><text fill="#4472C4" font-family="Cambria Math,Cambria Math_MSFontService,sans-serif" font-weight="400" font-size="50" transform="matrix(1 0 0 1 2962.91 1236)">I</text><text fill="#4472C4" font-family="Cambria Math,Cambria Math_MSFontService,sans-serif" font-weight="400" font-size="37" transform="matrix(1 0 0 1 2979.52 1247)">2</text><text fill="#4472C4" font-family="Source Han Serif SC,Source Han Serif SC_MSFontService,sans-serif" font-weight="400" font-size="50" transform="matrix(1 0 0 1 3002.81 1236)">与碱反应。</text><path d="M0.911818-0.693918 83.1654 107.389 81.3418 108.776-0.911818 0.693918ZM90.4198 96.1082 96.132 126.319 68.5361 112.762Z" fill="#4472C4" transform="matrix(-1 0 0 1 2687.13 961)"/><text fill="#4472C4" font-family="Source Han Serif SC,Source Han Serif SC_MSFontService,sans-serif" font-weight="400" font-size="50" transform="matrix(1 0 0 1 2232.38 1136)">检验</text><text fill="#4472C4" font-family="Cambria Math,Cambria Math_MSFontService,sans-serif" font-weight="400" font-size="50" transform="matrix(1 0 0 1 2333.21 1136)">−</text><text fill="#4472C4" font-family="Cambria Math,Cambria Math_MSFontService,sans-serif" font-weight="400" font-size="50" transform="matrix(1 0 0 1 2371.02 1136)">CHO</text><text fill="#4472C4" font-family="Source Han Serif SC,Source Han Serif SC_MSFontService,sans-serif" font-weight="400" font-size="50" transform="matrix(1 0 0 1 2466.7 1136)">必须在碱性环境中。</text></g></svg>