<svg width="2424" height="627" xmlns="http://www.w3.org/2000/svg" xmlns:xlink="http://www.w3.org/1999/xlink" xml:space="preserve" overflow="hidden"><g transform="translate(-986 -790)"><text font-family="Source Han Serif SC Medium,Source Han Serif SC Medium_MSFontService,sans-serif" font-weight="500" font-size="83" transform="matrix(1 0 0 1 1035.96 894)">淀粉</text><text font-family="Source Han Serif SC Medium,Source Han Serif SC Medium_MSFontService,sans-serif" font-weight="500" font-size="83" transform="matrix(1 0 0 1 1035.96 993)">溶液</text><path d="M0.00878717-1.1458 385.419 1.80992 385.401 4.10152-0.00878717 1.1458ZM380.932-10.829 408.326 3.13146 380.721 16.6702Z" transform="matrix(1 0 0 -1 1243 915.131)"/><text font-family="Source Han Serif SC Medium,Source Han Serif SC Medium_MSFontService,sans-serif" font-weight="500" font-size="55" transform="matrix(1 0 0 1 1363.93 882)">稀硫酸</text><text font-family="Source Han Serif SC Medium,Source Han Serif SC Medium_MSFontService,sans-serif" font-weight="500" font-size="55" transform="matrix(1 0 0 1 1391.7 993)">微热</text><text font-family="Source Han Serif SC Medium,Source Han Serif SC Medium_MSFontService,sans-serif" font-weight="500" font-size="83" transform="matrix(1 0 0 1 1684.72 941)">水解</text><text font-family="Source Han Serif SC Medium,Source Han Serif SC Medium_MSFontService,sans-serif" font-weight="500" font-size="83" transform="matrix(1 0 0 1 1849.72 941)">液</text><path d="M1820.15 972.98 1824.08 1200.39 1821.79 1200.43 1817.85 973.02ZM1836.6 1195.59 1823.33 1223.33 1809.11 1196.07Z"/><text font-family="Source Han Serif SC Medium,Source Han Serif SC Medium_MSFontService,sans-serif" font-weight="500" font-size="83" transform="matrix(1 0 0 1 1696.57 1347)">现象</text><text font-family="Source Han Serif SC Medium,Source Han Serif SC Medium_MSFontService,sans-serif" font-weight="500" font-size="83" transform="matrix(1 0 0 1 1861.57 1347)">B</text><path d="M0.00878717-1.1458 385.419 1.80992 385.401 4.10152-0.00878717 1.1458ZM380.932-10.829 408.326 3.13146 380.721 16.6702Z" transform="matrix(1 0 0 -1 1959 914.131)"/><path d="M2088.93 856.692C2087.09 856.692 2085.43 857.435 2083.96 858.921 2082.5 860.407 2081.35 862.399 2080.53 864.896 2079.7 867.394 2079.29 869.887 2079.29 872.375 2079.29 874.237 2079.55 875.629 2080.06 876.551 2080.57 877.474 2081.42 877.935 2082.62 877.935 2083.8 877.935 2084.96 877.424 2086.1 876.404 2087.24 875.383 2088.41 873.929 2089.62 872.04 2090.82 870.151 2091.68 867.971 2092.18 865.5L2092.42 864.346C2092.58 863.612 2092.69 862.976 2092.75 862.439 2092.8 861.902 2092.83 861.32 2092.83 860.693 2092.83 859.315 2092.53 858.303 2091.94 857.659 2091.35 857.014 2090.35 856.692 2088.93 856.692ZM2088.39 854.57C2089.56 854.57 2090.65 854.7 2091.66 854.96 2092.67 855.219 2093.71 855.68 2094.79 856.343L2097.26 854.57 2098.98 855 2095.03 872.026C2094.63 873.727 2094.44 875.052 2094.44 876.001 2094.44 876.717 2094.55 877.236 2094.79 877.559 2095.02 877.881 2095.39 878.042 2095.89 878.042 2096.42 878.042 2097 877.823 2097.61 877.384 2098.21 876.945 2099.07 876.108 2100.18 874.873L2101.71 876.377C2100.1 878.096 2098.73 879.318 2097.59 880.043 2096.46 880.768 2095.22 881.13 2093.9 881.13 2092.79 881.13 2091.9 880.763 2091.24 880.029 2090.58 879.295 2090.25 878.319 2090.25 877.102 2090.25 876.117 2090.45 875.07 2090.87 873.96L2090.52 873.852C2088.8 876.359 2087.17 878.194 2085.63 879.358 2084.09 880.522 2082.46 881.103 2080.74 881.103 2078.77 881.103 2077.24 880.36 2076.16 878.874 2075.08 877.388 2074.54 875.303 2074.54 872.617 2074.54 869.538 2075.14 866.579 2076.35 863.741 2077.56 860.904 2079.22 858.666 2081.33 857.028 2083.44 855.389 2085.8 854.57 2088.39 854.57ZM2124.2 845.977C2122.26 845.977 2120.46 846.666 2118.78 848.044 2117.11 849.423 2115.64 851.392 2114.38 853.953 2113.12 856.513 2112.14 859.324 2111.44 862.385 2110.74 865.447 2110.39 868.15 2110.39 870.496 2110.39 876.028 2112.41 878.794 2116.43 878.794 2118.89 878.794 2121.14 877.666 2123.19 875.41 2125.24 873.154 2126.92 869.99 2128.22 865.917 2129.53 861.844 2130.18 857.936 2130.18 854.194 2130.18 848.716 2128.19 845.977 2124.2 845.977ZM2148.28 844.043 2159.03 844.043 2158.73 845.359C2158.05 845.502 2157.56 845.663 2157.27 845.842 2156.97 846.021 2156.71 846.29 2156.47 846.648 2156.24 847.006 2156 847.565 2155.75 848.326 2155.5 849.087 2155.19 850.327 2154.81 852.046L2152.98 860.264 2167.41 860.264 2169.23 852.019C2169.39 851.285 2169.53 850.502 2169.65 849.669 2169.76 848.837 2169.82 848.179 2169.82 847.695 2169.82 846.854 2169.61 846.267 2169.19 845.936 2168.77 845.605 2168.1 845.413 2167.19 845.359L2167.49 844.043 2178.23 844.043 2177.93 845.359C2177.25 845.502 2176.76 845.663 2176.47 845.842 2176.17 846.021 2175.91 846.29 2175.68 846.648 2175.44 847.006 2175.2 847.565 2174.95 848.326 2174.7 849.087 2174.39 850.327 2174.01 852.046L2169.42 872.886C2169.19 873.942 2169.03 874.779 2168.96 875.397 2168.89 876.014 2168.86 876.574 2168.86 877.075 2168.86 877.881 2169.06 878.449 2169.46 878.78 2169.86 879.112 2170.54 879.313 2171.49 879.385L2171.19 880.701 2160.45 880.701 2160.74 879.385C2161.43 879.277 2161.94 879.103 2162.28 878.861 2162.62 878.619 2162.9 878.284 2163.14 877.854 2163.37 877.424 2163.58 876.901 2163.78 876.283 2163.98 875.665 2164.27 874.47 2164.67 872.698L2166.87 862.734 2152.45 862.734 2150.22 872.886C2150.02 873.781 2149.88 874.519 2149.79 875.101 2149.7 875.683 2149.65 876.341 2149.65 877.075 2149.65 877.845 2149.83 878.4 2150.19 878.74 2150.55 879.08 2151.25 879.295 2152.29 879.385L2151.99 880.701 2141.25 880.701 2141.54 879.385C2142.22 879.277 2142.73 879.103 2143.07 878.861 2143.41 878.619 2143.7 878.284 2143.93 877.854 2144.17 877.424 2144.38 876.901 2144.58 876.283 2144.77 875.665 2145.07 874.47 2145.46 872.698L2150.03 852.019C2150.19 851.285 2150.33 850.502 2150.45 849.669 2150.56 848.837 2150.62 848.179 2150.62 847.695 2150.62 846.854 2150.41 846.267 2149.99 845.936 2149.57 845.605 2148.9 845.413 2147.99 845.359ZM2040.23 844.043 2048.8 844.043 2055.89 864.963C2056.91 867.971 2057.7 870.513 2058.25 872.59L2058.55 872.59C2058.69 871.498 2059.02 869.681 2059.53 867.139 2060.04 864.596 2060.51 862.376 2060.94 860.478L2062.82 852.019C2063.21 850.247 2063.41 848.805 2063.41 847.695 2063.41 846.854 2063.2 846.267 2062.78 845.936 2062.35 845.605 2061.69 845.413 2060.77 845.359L2061.07 844.043 2070.47 844.043 2070.17 845.359C2069.49 845.502 2069.01 845.663 2068.71 845.842 2068.42 846.021 2068.15 846.29 2067.92 846.648 2067.69 847.006 2067.44 847.565 2067.19 848.326 2066.94 849.087 2066.63 850.327 2066.25 852.046L2059.94 880.701 2056.29 880.701 2048.45 857.659C2047.5 854.901 2046.67 852.153 2045.95 849.414L2045.6 849.414C2045.49 850.327 2045.2 852.068 2044.72 854.637 2044.23 857.207 2043.72 859.718 2043.18 862.17L2040.82 872.886C2040.45 874.587 2040.26 875.983 2040.26 877.075 2040.26 877.881 2040.46 878.449 2040.86 878.78 2041.26 879.112 2041.94 879.313 2042.89 879.385L2042.59 880.701 2033.19 880.701 2033.49 879.385C2034.17 879.277 2034.68 879.103 2035.02 878.861 2035.36 878.619 2035.65 878.284 2035.88 877.854 2036.11 877.424 2036.33 876.901 2036.52 876.283 2036.72 875.665 2037.02 874.47 2037.41 872.698L2041.98 852.019C2042.16 851.249 2042.3 850.515 2042.41 849.817 2042.51 849.119 2042.57 848.411 2042.57 847.695 2042.57 846.854 2042.36 846.267 2041.94 845.936 2041.51 845.605 2040.85 845.413 2039.93 845.359ZM2124.49 843.613C2127.95 843.613 2130.61 844.616 2132.48 846.621 2134.35 848.626 2135.29 851.527 2135.29 855.322 2135.29 858.097 2134.81 861.217 2133.86 864.681 2132.91 868.146 2131.54 871.145 2129.74 873.678 2127.94 876.211 2125.89 878.091 2123.58 879.318 2121.27 880.544 2118.85 881.157 2116.33 881.157 2112.73 881.157 2110 880.155 2108.14 878.149 2106.27 876.144 2105.34 873.28 2105.34 869.556 2105.34 866.87 2105.79 863.835 2106.7 860.452 2107.6 857.068 2108.91 854.082 2110.62 851.495 2112.33 848.908 2114.37 846.948 2116.74 845.614 2119.11 844.28 2121.7 843.613 2124.49 843.613Z" fill-rule="evenodd"/><text fill="#000000" fill-opacity="0" font-family="Arial,Arial_MSFontService,sans-serif" font-size="37.5439" x="2033.19" y="876.464">𝑁𝑎𝑂𝐻</text><text font-family="Source Han Serif SC Medium,Source Han Serif SC Medium_MSFontService,sans-serif" font-weight="500" font-size="55" transform="matrix(1 0 0 1 2181.13 881)">溶液</text><text font-family="Source Han Serif SC Medium,Source Han Serif SC Medium_MSFontService,sans-serif" font-weight="500" font-size="83" transform="matrix(1 0 0 1 2397.81 936)">中和液</text><path d="M0.00878717-1.1458 385.419 1.80992 385.401 4.10152-0.00878717 1.1458ZM380.932-10.829 408.326 3.13146 380.721 16.6702Z" transform="matrix(1 0 0 -1 2647 914.131)"/><path d="M2750.9 870.576 2754.77 870.576 2754.77 874.9 2750.9 874.9ZM2754.12 849.978C2755.37 849.978 2756.44 850.108 2757.33 850.367 2758.22 850.627 2758.94 850.985 2759.49 851.442 2760.05 851.898 2760.45 852.44 2760.7 853.066 2760.95 853.693 2761.08 854.373 2761.08 855.107 2761.08 855.788 2761.01 856.405 2760.88 856.96 2760.74 857.515 2760.51 858.066 2760.19 858.612 2759.87 859.158 2759.44 859.744 2758.9 860.371 2758.36 860.998 2757.7 861.714 2756.91 862.519 2756.34 863.11 2755.88 863.603 2755.54 863.997 2755.2 864.39 2754.94 864.762 2754.75 865.111 2754.56 865.46 2754.44 865.814 2754.38 866.172 2754.31 866.53 2754.28 866.96 2754.28 867.461L2754.28 867.622 2751.44 867.622 2751.44 867.031C2751.44 866.637 2751.46 866.275 2751.52 865.944 2751.57 865.612 2751.69 865.259 2751.89 864.883 2752.09 864.507 2752.38 864.082 2752.75 863.607 2753.13 863.133 2753.64 862.546 2754.28 861.848 2754.69 861.401 2755.07 860.966 2755.41 860.546 2755.75 860.125 2756.04 859.686 2756.28 859.23 2756.52 858.773 2756.71 858.29 2756.85 857.779 2756.98 857.269 2757.05 856.701 2757.05 856.074 2757.05 854.731 2756.76 853.693 2756.18 852.959 2755.59 852.225 2754.75 851.858 2753.64 851.858 2753.06 851.858 2752.56 851.947 2752.13 852.126 2751.7 852.305 2751.33 852.556 2751.01 852.878 2750.68 853.201 2750.41 853.586 2750.19 854.033 2749.96 854.481 2749.77 854.973 2749.61 855.51L2747.03 855.51 2747.03 852.019C2748.11 851.482 2749.26 851.007 2750.48 850.596 2751.71 850.184 2752.92 849.978 2754.12 849.978ZM2744.08 846.567 2744.08 878.203 2764.54 878.203 2764.54 846.567ZM2741.31 844.07 2767.31 844.07 2767.31 880.701 2741.31 880.701Z" fill-rule="evenodd"/><text fill="#000000" fill-opacity="0" font-family="Arial,Arial_MSFontService,sans-serif" font-size="36.6309" x="2741.31" y="876.122">银</text><path d="M2792.28 872.751 2789.92 875.544 2796.15 877.048C2797.73 875.759 2799.01 874.327 2800.02 872.751ZM2854.16 871.892 2854.16 879.412 2868.34 879.412 2868.34 871.892ZM2791.85 866.306 2795.51 866.521C2796.94 866.807 2796.94 867.237 2795.51 867.81L2794.22 869.314 2809.04 869.314 2809.04 872.751 2804.1 872.751C2802.95 875.043 2801.52 876.977 2799.8 878.552 2802.95 879.698 2805.96 880.772 2808.83 881.775L2806.89 884.997C2803.6 883.565 2800.3 882.276 2797.01 881.13 2792.86 883.422 2787.05 884.711 2779.61 884.997L2778.53 881.56C2785.55 881.274 2790.35 880.557 2792.93 879.412 2791.49 878.839 2789.92 878.337 2788.2 877.908L2787.34 879.197 2783.47 877.263 2787.56 872.751 2780.25 872.751 2780.25 869.314 2789.7 869.314ZM2837.4 865.662 2841.05 867.81C2839.33 873.969 2837.47 879.34 2835.47 883.923 2835.75 885.212 2835.47 885.642 2834.61 885.212L2830.52 881.99C2833.39 877.12 2835.68 871.677 2837.4 865.662ZM2892.61 865.447 2895.84 868.24C2893.69 874.685 2891.68 879.626 2889.82 883.064 2890.11 884.353 2889.89 884.854 2889.18 884.568L2885.52 880.915C2888.68 875.902 2891.04 870.746 2892.61 865.447ZM2860.82 859.001C2858.81 862.439 2855.59 865.59 2851.15 868.455L2871.56 868.455C2866.83 865.733 2863.25 862.582 2860.82 859.001ZM2920.11 858.572C2921.98 860.434 2923.27 862.081 2923.98 863.513L2920.76 866.306C2919.33 864.158 2918.11 862.439 2917.11 861.15ZM2791.85 858.572 2795.93 858.572C2797.08 858.715 2797.15 859.145 2796.15 859.861L2796.15 861.58 2808.4 861.58 2808.4 867.81 2804.1 867.81 2804.1 864.587 2784.98 864.587 2784.98 868.025 2780.68 868.025 2780.68 861.58 2791.85 861.58ZM2918.18 856.853C2917.46 858.715 2916.61 860.219 2915.6 861.365 2916.75 864.659 2918.47 867.81 2920.76 870.818 2923.77 866.951 2925.99 862.296 2927.42 856.853ZM2778.96 854.275 2816.13 854.275 2816.13 863.943C2816.13 869.958 2816.49 873.969 2817.2 875.974 2818.21 878.695 2819.07 880.056 2819.78 880.056 2820.36 880.056 2820.79 878.552 2821.07 875.544L2824.94 877.478C2824.22 882.634 2823.08 885.212 2821.5 885.212 2817.63 885.212 2814.91 882.491 2813.34 877.048 2812.33 873.611 2811.83 869.457 2811.83 864.587L2811.83 857.712 2778.96 857.712ZM2859.1 853.845 2863.83 855.134C2864.4 855.707 2864.18 856.065 2863.18 856.208 2867.76 861.365 2873.21 864.802 2879.51 866.521L2878.01 871.033C2876.14 870.603 2874.35 869.887 2872.63 868.884L2872.63 884.568 2868.34 884.568 2868.34 882.849 2854.16 882.849 2854.16 885.427 2849.86 885.427 2849.86 869.314C2847.57 870.746 2845.71 871.677 2844.27 872.107L2842.77 867.81C2850.22 865.089 2855.66 860.434 2859.1 853.845ZM2889.18 851.052C2891.76 852.341 2894.19 853.845 2896.48 855.564L2893.47 860.076C2891.18 858.214 2888.82 856.495 2886.38 854.919ZM2833.32 851.052C2836.61 852.628 2839.33 854.49 2841.48 856.638L2838.9 860.72C2836.61 858.572 2833.89 856.638 2830.74 854.919ZM2866.62 849.119C2869.63 852.126 2872.78 854.275 2876.07 855.564L2874.35 859.861C2870.77 858.572 2867.26 855.922 2863.83 851.912ZM2854.37 848.689 2857.81 851.052C2858.24 851.768 2858.02 852.055 2857.17 851.912 2854.16 855.635 2851.08 858.5 2847.93 860.505L2845.78 856.853C2849.07 854.705 2851.94 851.983 2854.37 848.689ZM2787.13 847.83 2813.34 847.83 2813.34 851.267 2787.13 851.267ZM2891.54 838.162C2894.4 839.737 2896.7 841.313 2898.42 842.888L2895.41 847.185C2893.12 845.18 2890.82 843.461 2888.53 842.029ZM2835.47 838.162C2838.47 839.88 2841.05 841.671 2843.2 843.533L2840.62 847.83C2838.47 845.968 2835.9 844.034 2832.89 842.029ZM2858.24 836.443 2862.97 836.443C2864.11 836.586 2864.18 837.016 2863.18 837.732L2863.18 842.458 2877.15 842.458 2877.15 851.267 2872.85 851.267 2872.85 845.896 2849 845.896 2849 852.126 2844.7 852.126 2844.7 842.458 2858.24 842.458ZM2913.67 835.798 2917.75 835.798C2918.9 835.942 2918.97 836.371 2917.97 837.087L2917.97 842.673 2933.65 842.673 2933.65 846.755 2918.61 846.755 2922.26 848.474C2922.69 848.76 2922.41 849.119 2921.4 849.548L2919.47 853.415 2928.71 853.415 2929.57 852.556 2932.79 854.919 2931.93 855.779C2929.93 863.656 2927.13 869.672 2923.55 873.826 2926.42 876.547 2930.14 878.552 2934.72 879.841L2932.79 884.568C2928.35 883.279 2924.41 880.772 2920.97 877.048 2916.82 880.915 2912.67 883.78 2908.51 885.642L2906.15 881.345C2911.02 879.34 2914.96 876.762 2917.97 873.611 2916.25 871.033 2914.74 868.096 2913.45 864.802 2912.02 866.807 2910.45 868.455 2908.73 869.744L2906.36 865.662C2911.66 860.935 2915.39 854.633 2917.54 846.755L2907.44 846.755 2911.31 848.689C2911.74 848.975 2911.45 849.262 2910.45 849.548 2909.3 852.699 2907.8 855.635 2905.93 858.357 2907.51 858.93 2907.44 859.431 2905.72 859.861L2905.72 885.427 2902.07 885.427 2902.07 863.728C2901.06 865.16 2900.06 866.378 2899.06 867.38L2896.27 863.513C2901.42 858.93 2905 853.344 2907.01 846.755L2899.7 846.755 2899.7 842.673 2913.67 842.673ZM2788.2 835.798 2792.07 836.658C2793.5 836.801 2793.57 837.231 2792.28 837.947L2789.92 841.814 2820.64 841.814 2820.64 845.251 2787.99 845.251C2785.41 848.832 2782.4 851.625 2778.96 853.63L2775.52 850.408C2781.25 846.54 2785.48 841.671 2788.2 835.798Z" fill-rule="evenodd"/><text fill="#000000" fill-opacity="0" font-family="Arial,Arial_MSFontService,sans-serif" font-size="49.8438" x="2775.52" y="879.412">氨溶液</text><text font-family="Source Han Serif SC Medium,Source Han Serif SC Medium_MSFontService,sans-serif" font-weight="500" font-size="83" transform="matrix(1 0 0 1 3099.13 937)">现象</text><text font-family="Source Han Serif SC Medium,Source Han Serif SC Medium_MSFontService,sans-serif" font-weight="500" font-size="83" transform="matrix(1 0 0 1 3264.13 937)">A</text><path d="M2820.21 968.636 2820.21 979.378 2835.68 979.378 2835.68 968.636ZM2815.92 965.199 2839.98 965.199 2839.98 984.32 2835.68 984.32 2835.68 982.816 2820.21 982.816 2820.21 985.179 2815.92 985.179ZM2804.75 964.984 2808.61 967.562C2806.46 973.864 2804.17 978.949 2801.74 982.816 2801.88 984.391 2801.59 984.893 2800.88 984.32L2796.8 981.097C2799.66 976.943 2802.31 971.572 2804.75 964.984ZM2800.66 951.234C2803.67 952.38 2806.18 953.955 2808.18 955.96L2805.39 960.257C2803.38 958.539 2800.95 956.891 2798.08 955.316ZM2883.81 948.441 2883.81 974.437 2894.12 974.437 2894.12 948.441ZM2757.91 947.367 2761.56 949.945C2762.56 950.518 2762.49 951.162 2761.35 951.878 2759.05 965.485 2753.11 975.368 2743.51 981.527L2741.15 977.015C2749.03 972.575 2754.19 964.626 2756.62 953.167L2744.16 953.167 2744.16 949.085 2756.62 949.085ZM2825.37 944.789 2829.88 946.292C2830.45 946.865 2830.24 947.223 2829.24 947.367 2831.96 953.239 2837.47 958.18 2845.78 962.191L2843.63 966.917C2835.18 962.191 2829.74 957.178 2827.3 951.878 2824.44 957.894 2819.35 963.193 2812.05 967.777L2809.69 963.695C2817.28 959.255 2822.51 952.953 2825.37 944.789ZM2879.51 944.359 2898.42 944.359 2898.42 981.097 2894.12 981.097 2894.12 978.519 2883.81 978.519 2883.81 981.956 2879.51 981.956ZM2803.24 937.699C2805.96 939.131 2808.4 940.85 2810.55 942.855L2807.75 947.152C2805.6 945.147 2803.17 943.356 2800.45 941.781ZM2833.96 937.484C2836.54 941.924 2840.05 945.505 2844.49 948.226L2841.7 952.093C2836.83 949.085 2832.89 944.789 2829.88 939.203ZM2819.57 937.484 2823.65 939.632C2824.37 940.205 2824.15 940.563 2823.01 940.706 2820.72 945.719 2817.42 950.016 2813.12 953.597L2810.33 949.945C2814.48 946.507 2817.56 942.354 2819.57 937.484ZM2860.82 937.054 2864.9 937.054C2866.05 937.197 2866.12 937.627 2865.12 938.343L2865.12 946.722 2875.86 946.722 2875.86 967.132C2875.86 972.861 2875.43 976.8 2874.57 978.949 2873.57 981.384 2871.49 982.601 2868.34 982.601L2864.9 982.601 2864.47 977.874 2867.91 977.874C2869.34 977.874 2870.27 977.23 2870.7 975.941 2871.28 974.509 2871.56 971.787 2871.56 967.777L2871.56 950.804 2865.12 950.804 2865.12 954.456C2865.12 966.488 2861.61 976.299 2854.59 983.89L2850.94 980.667C2857.53 973.219 2860.82 964.411 2860.82 954.242L2860.82 950.804 2852.87 950.804 2852.87 946.722 2860.82 946.722ZM2764.35 936.624 2768.44 936.624C2769.58 936.768 2769.65 937.197 2768.65 937.914L2768.65 944.144C2768.65 947.295 2769.87 951.019 2772.3 955.316 2775.6 953.024 2779.25 949.443 2783.26 944.574L2787.13 948.441C2787.84 949.587 2787.41 950.016 2785.84 949.73 2782.4 952.881 2778.53 955.96 2774.24 958.968 2778.39 966.273 2783.91 972.145 2790.78 976.585L2788.2 981.527C2779.75 975.798 2773.23 967.49 2768.65 956.605L2768.65 981.312C2768.65 983.604 2767.51 984.749 2765.21 984.749L2760.06 984.749 2759.2 980.667 2763.5 980.667C2764.07 980.667 2764.35 980.381 2764.35 979.808Z" fill-rule="evenodd"/><text fill="#000000" fill-opacity="0" font-family="Arial,Arial_MSFontService,sans-serif" font-size="48.5547" x="2741.15" y="979.11">水浴加</text><path d="M2918.26 970.543 2922.13 970.543 2922.13 974.867 2918.26 974.867ZM2921.49 949.945C2922.74 949.945 2923.81 950.075 2924.7 950.334 2925.58 950.594 2926.3 950.952 2926.86 951.408 2927.41 951.865 2927.81 952.406 2928.07 953.033 2928.32 953.66 2928.44 954.34 2928.44 955.074 2928.44 955.755 2928.37 956.372 2928.24 956.927 2928.11 957.482 2927.88 958.033 2927.56 958.579 2927.23 959.125 2926.8 959.711 2926.27 960.338 2925.73 960.964 2925.07 961.681 2924.28 962.486 2923.71 963.077 2923.25 963.569 2922.91 963.963 2922.57 964.357 2922.3 964.729 2922.12 965.078 2921.93 965.427 2921.8 965.781 2921.74 966.139 2921.68 966.497 2921.65 966.926 2921.65 967.428L2921.65 967.589 2918.8 967.589 2918.8 966.998C2918.8 966.604 2918.83 966.242 2918.88 965.91 2918.93 965.579 2919.06 965.226 2919.26 964.85 2919.45 964.474 2919.74 964.048 2920.12 963.574 2920.49 963.099 2921 962.513 2921.65 961.815 2922.06 961.367 2922.43 960.933 2922.77 960.512 2923.11 960.092 2923.41 959.653 2923.65 959.196 2923.89 958.74 2924.08 958.257 2924.21 957.746 2924.35 957.236 2924.41 956.668 2924.41 956.041 2924.41 954.698 2924.12 953.66 2923.54 952.926 2922.96 952.192 2922.11 951.825 2921 951.825 2920.43 951.825 2919.93 951.914 2919.5 952.093 2919.07 952.272 2918.69 952.523 2918.37 952.845 2918.05 953.167 2917.78 953.552 2917.55 954 2917.33 954.448 2917.14 954.94 2916.97 955.477L2914.4 955.477 2914.4 951.986C2915.47 951.449 2916.62 950.974 2917.85 950.562 2919.07 950.151 2920.29 949.945 2921.49 949.945ZM2911.44 946.534 2911.44 978.17 2931.91 978.17 2931.91 946.534ZM2908.68 944.037 2934.67 944.037 2934.67 980.667 2908.68 980.667Z" fill-rule="evenodd"/><text fill="#000000" fill-opacity="0" font-family="Arial,Arial_MSFontService,sans-serif" font-size="36.6309" x="2908.68" y="976.089">热</text><text font-family="Source Han Serif SC Medium,Source Han Serif SC Medium_MSFontService,sans-serif" font-weight="500" font-size="55" transform="matrix(1 0 0 1 1684.4 1101)">碘水</text><path d="M1881.47 1097.96 2055.39 1176.83 2054.45 1178.91 1880.53 1100.04ZM2056.43 1163.45 2075.79 1187.33 2045.07 1188.5Z" fill="#4472C4"/><text fill="#4472C4" font-family="瑞美加张清平硬笔行书,瑞美加张清平硬笔行书_MSFontService,sans-serif" font-weight="400" font-size="50" transform="matrix(1 0 0 1 2092.65 1238)">碘水检验淀粉不能在碱性环境中，因为</text><text fill="#4472C4" font-family="Cambria Math,Cambria Math_MSFontService,sans-serif" font-weight="400" font-size="50" transform="matrix(1 0 0 1 2924.52 1238)">𝐼</text><text fill="#4472C4" font-family="Cambria Math,Cambria Math_MSFontService,sans-serif" font-weight="400" font-size="37" transform="matrix(1 0 0 1 2940.47 1249)">2</text><text fill="#4472C4" font-family="瑞美加张清平硬笔行书,瑞美加张清平硬笔行书_MSFontService,sans-serif" font-weight="400" font-size="50" transform="matrix(1 0 0 1 2963.76 1238)">与碱反应。</text><path d="M0.858582-0.758796 145.367 162.754 143.65 164.272-0.858582 0.758796ZM151.777 150.973 159.685 180.684 131.171 169.184Z" fill="#4472C4" transform="matrix(-1 0 0 1 2750.68 907)"/><text fill="#4472C4" font-family="瑞美加张清平硬笔行书,瑞美加张清平硬笔行书_MSFontService,sans-serif" font-weight="400" font-size="50" transform="matrix(1 0 0 1 2232.38 1138)">检验</text><text fill="#4472C4" font-family="Cambria Math,Cambria Math_MSFontService,sans-serif" font-weight="400" font-size="50" transform="matrix(1 0 0 1 2333.21 1138)">−</text><text fill="#4472C4" font-family="Cambria Math,Cambria Math_MSFontService,sans-serif" font-weight="400" font-size="50" transform="matrix(1 0 0 1 2371.02 1138)">𝐶𝐻𝑂</text><text fill="#4472C4" font-family="瑞美加张清平硬笔行书,瑞美加张清平硬笔行书_MSFontService,sans-serif" font-weight="400" font-size="50" transform="matrix(1 0 0 1 2473.67 1138)">必须</text><text fill="#4472C4" font-family="瑞美加张清平硬笔行书,瑞美加张清平硬笔行书_MSFontService,sans-serif" font-weight="400" font-size="50" transform="matrix(1 0 0 1 2574.5 1138)">在碱性环境中。</text></g></svg>