<svg width="1970" height="228" xmlns="http://www.w3.org/2000/svg" xmlns:xlink="http://www.w3.org/1999/xlink" xml:space="preserve" overflow="hidden"><defs><clipPath id="clip0"><rect x="1215" y="1163" width="1970" height="228"/></clipPath></defs><g clip-path="url(#clip0)" transform="translate(-1215 -1163)"><g><g><g><text font-family="Times New Roman,Times New Roman_MSFontService,sans-serif" font-weight="400" font-size="13" transform="matrix(2.71829 0 0 2.70869 1337.51 1261)">H</text><text font-family="Times New Roman,Times New Roman_MSFontService,sans-serif" font-weight="400" font-size="8" transform="matrix(2.71829 0 0 2.70869 1361.97 1261)">2</text><text font-family="Times New Roman,Times New Roman_MSFontService,sans-serif" font-weight="400" font-size="13" transform="matrix(2.71829 0 0 2.70869 1372.84 1261)">N</text><path d="M-291.414 0.549688-250.594 0.549688-250.594 2.14675-250.594 3.74381-291.414 3.74381-291.414 2.14675Z" transform="matrix(1.00355 0 0 1 1694.79 1249.92)"/><text font-family="Times New Roman,Times New Roman_MSFontService,sans-serif" font-weight="400" font-size="13" transform="matrix(2.71829 0 0 2.70869 1446.51 1266)">C</text><text font-family="Times New Roman,Times New Roman_MSFontService,sans-serif" font-weight="400" font-size="13" transform="matrix(2.71829 0 0 2.70869 1446.51 1298)">H</text><path d="M-237.255-15.3283-237.255-52.0412-235.658-52.0412-234.061-52.0412-234.061-15.3283-235.658-15.3283Z" transform="matrix(1.00355 0 0 1 1694.79 1249.92)"/><text font-family="Times New Roman,Times New Roman_MSFontService,sans-serif" font-weight="400" font-size="13" transform="matrix(2.71829 0 0 2.70869 1446.51 1194)">R</text><path d="M-220.722 0.549688-178.931 0.549688-178.931 2.14675-178.931 3.74381-220.722 3.74381-220.722 2.14675Z" transform="matrix(1.00355 0 0 1 1694.79 1249.92)"/><text font-family="Times New Roman,Times New Roman_MSFontService,sans-serif" font-weight="400" font-size="13" transform="matrix(2.71829 0 0 2.70869 1518.43 1266)">C</text><path d="M-169.892-15.3283-169.892-52.0412-168.295-52.0412-166.698-52.0412-166.698-15.3283-168.295-15.3283Z" transform="matrix(1.00355 0 0 1 1694.79 1249.92)"/><path d="M-161.292-15.3283-161.292-52.0412-159.695-52.0412-158.098-52.0412-158.098-15.3283-159.695-15.3283Z" transform="matrix(1.00355 0 0 1 1694.79 1249.92)"/><text font-family="Times New Roman,Times New Roman_MSFontService,sans-serif" font-weight="400" font-size="13" transform="matrix(2.71829 0 0 2.70869 1517.46 1194)">O</text><path d="M-149.059 0.549688-108.239 0.549688-108.239 2.14675-108.239 3.74381-149.059 3.74381-149.059 2.14675Z" transform="matrix(1.00355 0 0 1 1694.79 1249.92)"/><text font-family="Times New Roman,Times New Roman_MSFontService,sans-serif" font-weight="400" font-size="13" transform="matrix(2.71829 0 0 2.70869 1589.37 1266)">O</text><text font-family="Times New Roman,Times New Roman_MSFontService,sans-serif" font-weight="400" font-size="13" transform="matrix(2.71829 0 0 2.70869 1613.84 1266)">H</text><text font-family="Times New Roman,Times New Roman_MSFontService,sans-serif" font-weight="400" font-size="13" transform="matrix(2.71829 0 0 2.70869 1837.81 1266)">N</text><text font-family="Times New Roman,Times New Roman_MSFontService,sans-serif" font-weight="400" font-size="13" transform="matrix(2.71829 0 0 2.70869 1910.7 1266)">C</text><text font-family="Times New Roman,Times New Roman_MSFontService,sans-serif" font-weight="400" font-size="13" transform="matrix(2.71829 0 0 2.70869 1910.7 1298)">H</text><text font-family="Times New Roman,Times New Roman_MSFontService,sans-serif" font-weight="400" font-size="13" transform="matrix(2.71829 0 0 2.70869 1982.62 1266)">C</text><text font-family="Times New Roman,Times New Roman_MSFontService,sans-serif" font-weight="400" font-size="13" transform="matrix(2.71829 0 0 2.70869 2004.37 1266)">O</text><text font-family="Times New Roman,Times New Roman_MSFontService,sans-serif" font-weight="400" font-size="13" transform="matrix(2.71829 0 0 2.70869 2028.83 1266)">O</text><text font-family="Times New Roman,Times New Roman_MSFontService,sans-serif" font-weight="400" font-size="13" transform="matrix(2.71829 0 0 2.70869 2053.3 1266)">H</text><path d="M171.135 0.549688 211.955 0.549688 211.955 2.14675 211.955 3.74381 171.135 3.74381 171.135 2.14675Z" transform="matrix(1.00355 0 0 1 1694.79 1249.92)"/><path d="M225.294-15.3283 225.294-52.0413 226.891-52.0413 228.489-52.0413 228.489-15.3283 226.891-15.3283Z" transform="matrix(1.00355 0 0 1 1694.79 1249.92)"/><text font-family="Times New Roman,Times New Roman_MSFontService,sans-serif" font-weight="400" font-size="13" transform="matrix(2.71829 0 0 2.70869 1910.7 1197)">R</text><text font-family="Times New Roman,Times New Roman_MSFontService,sans-serif" font-weight="400" font-size="13" transform="matrix(2.71829 0 0 2.70869 1932.45 1197)">'</text><path d="M241.828 0.549688 283.618 0.549688 283.618 2.14675 283.618 3.74381 241.828 3.74381 241.828 2.14675Z" transform="matrix(1.00355 0 0 1 1694.79 1249.92)"/><path d="M139.322 3.74381 99.4724 3.74382 99.4724 2.14675 99.4724 0.549694 139.322 0.549691 139.322 2.14675Z" transform="matrix(1.00355 0 0 1 1694.79 1249.92)"/><text font-family="Times New Roman,Times New Roman_MSFontService,sans-serif" font-weight="400" font-size="13" transform="matrix(2.71829 0 0 2.70869 1765.9 1266)">H</text><path d="M153.631-15.3283 153.631-52.0412 155.228-52.0412 156.826-52.0412 156.826-15.3283 155.228-15.3283Z" transform="matrix(1.00355 0 0 1 1694.79 1249.92)"/><text font-family="Times New Roman,Times New Roman_MSFontService,sans-serif" font-weight="400" font-size="13" transform="matrix(2.71829 0 0 2.70869 1837.81 1194)">H</text><text font-family="Times New Roman,Times New Roman_MSFontService,sans-serif" font-weight="400" font-size="13" transform="matrix(2.71829 0 0 2.70869 2695.61 1266)">C</text><text font-family="Times New Roman,Times New Roman_MSFontService,sans-serif" font-weight="400" font-size="13" transform="matrix(2.71829 0 0 2.70869 2695.61 1298)">H</text><text font-family="Times New Roman,Times New Roman_MSFontService,sans-serif" font-weight="400" font-size="13" transform="matrix(2.71829 0 0 2.70869 2370.85 1261)">H</text><text font-family="Times New Roman,Times New Roman_MSFontService,sans-serif" font-weight="400" font-size="8" transform="matrix(2.71829 0 0 2.70869 2395.32 1261)">2</text><text font-family="Times New Roman,Times New Roman_MSFontService,sans-serif" font-weight="400" font-size="13" transform="matrix(2.71829 0 0 2.70869 2406.19 1261)">N</text><text font-family="Times New Roman,Times New Roman_MSFontService,sans-serif" font-weight="400" font-size="13" transform="matrix(2.71829 0 0 2.70869 2479.86 1266)">C</text><text font-family="Times New Roman,Times New Roman_MSFontService,sans-serif" font-weight="400" font-size="13" transform="matrix(2.71829 0 0 2.70869 2479.86 1298)">H</text><text font-family="Times New Roman,Times New Roman_MSFontService,sans-serif" font-weight="400" font-size="13" transform="matrix(2.71829 0 0 2.70869 2551.78 1266)">C</text><text font-family="Times New Roman,Times New Roman_MSFontService,sans-serif" font-weight="400" font-size="13" transform="matrix(2.71829 0 0 2.70869 2550.81 1194)">O</text><text font-family="Times New Roman,Times New Roman_MSFontService,sans-serif" font-weight="400" font-size="13" transform="matrix(2.71829 0 0 2.70869 2622.72 1266)">N</text><path d="M738.284 0.549686 779.104 0.549686 779.104 2.14675 779.104 3.74381 738.284 3.74381 738.284 2.14675Z" transform="matrix(1.00355 0 0 1 1694.79 1249.92)"/><path d="M792.443-15.3283 792.443-52.0412 794.04-52.0412 795.637-52.0412 795.637-15.3283 794.04-15.3283Z" transform="matrix(1.00355 0 0 1 1694.79 1249.92)"/><text font-family="Times New Roman,Times New Roman_MSFontService,sans-serif" font-weight="400" font-size="13" transform="matrix(2.71829 0 0 2.70869 2479.86 1194)">R</text><path d="M808.976 0.549686 850.767 0.549686 850.767 2.14675 850.767 3.74381 808.976 3.74381 808.976 2.14675Z" transform="matrix(1.00355 0 0 1 1694.79 1249.92)"/><path d="M859.806-15.3283 859.806-52.0412 861.403-52.0412 863-52.0412 863-15.3283 861.403-15.3283Z" transform="matrix(1.00355 0 0 1 1694.79 1249.92)"/><path d="M868.406-15.3283 868.406-52.0412 870.003-52.0412 871.6-52.0412 871.6-15.3283 870.003-15.3283Z" transform="matrix(1.00355 0 0 1 1694.79 1249.92)"/><path d="M880.639 0.549686 921.459 0.549686 921.459 2.14675 921.459 3.74381 880.639 3.74381 880.639 2.14675Z" transform="matrix(1.00355 0 0 1 1694.79 1249.92)"/><path d="M935.769-15.3283 935.769-52.0412 937.366-52.0412 938.963-52.0412 938.963-15.3283 937.366-15.3283Z" transform="matrix(1.00355 0 0 1 1694.79 1249.92)"/><text font-family="Times New Roman,Times New Roman_MSFontService,sans-serif" font-weight="400" font-size="13" transform="matrix(2.71829 0 0 2.70869 2622.72 1194)">H</text><path d="M953.273 0.549686 994.093 0.549686 994.093 2.14675 994.093 3.74381 953.273 3.74381 953.273 2.14675Z" transform="matrix(1.00355 0 0 1 1694.79 1249.92)"/><path d="M1007.43-15.3283 1007.43-52.0412 1009.03-52.0412 1010.63-52.0412 1010.63-15.3283 1009.03-15.3283Z" transform="matrix(1.00355 0 0 1 1694.79 1249.92)"/><path d="M1023.97 0.549686 1065.76 0.549686 1065.76 2.14675 1065.76 3.74381 1023.97 3.74381 1023.97 2.14675Z" transform="matrix(1.00355 0 0 1 1694.79 1249.92)"/><text font-family="Times New Roman,Times New Roman_MSFontService,sans-serif" font-weight="400" font-size="13" transform="matrix(2.71829 0 0 2.70869 2695.61 1197)">R</text><text font-family="Times New Roman,Times New Roman_MSFontService,sans-serif" font-weight="400" font-size="13" transform="matrix(2.71829 0 0 2.70869 2717.36 1197)">'</text><text font-family="Times New Roman,Times New Roman_MSFontService,sans-serif" font-weight="400" font-size="13" transform="matrix(2.71829 0 0 2.70869 2767.53 1266)">C</text><text font-family="Times New Roman,Times New Roman_MSFontService,sans-serif" font-weight="400" font-size="13" transform="matrix(2.71829 0 0 2.70869 2789.28 1266)">O</text><text font-family="Times New Roman,Times New Roman_MSFontService,sans-serif" font-weight="400" font-size="13" transform="matrix(2.71829 0 0 2.70869 2813.74 1266)">O</text><text font-family="Times New Roman,Times New Roman_MSFontService,sans-serif" font-weight="400" font-size="13" transform="matrix(2.71829 0 0 2.70869 2838.21 1266)">H</text><text font-family="Times New Roman,Times New Roman_MSFontService,sans-serif" font-weight="400" font-size="13" transform="matrix(2.71829 0 0 2.70869 1686.75 1261)">+</text><path d="M442.309-1.45774 619.911-1.45774" stroke="#000000" stroke-width="3.19412" fill="none" transform="matrix(1.00355 0 0 1 1694.79 1249.92)"/><path d="M647.061-1.45774 615.119-9.44303 619.911-1.45774 615.119 6.52756Z" transform="matrix(1.00355 0 0 1 1694.79 1249.92)"/><text font-family="Times New Roman,Times New Roman_MSFontService,sans-serif" font-weight="400" font-size="13" transform="matrix(2.71829 0 0 2.70869 2917.91 1263)">+</text><text font-family="Times New Roman,Times New Roman_MSFontService,sans-serif" font-weight="400" font-size="13" transform="matrix(2.71829 0 0 2.70869 2992.72 1262)">H</text><text font-family="Times New Roman,Times New Roman_MSFontService,sans-serif" font-weight="400" font-size="8" transform="matrix(2.71829 0 0 2.70869 3017.19 1262)">2</text><text font-family="Times New Roman,Times New Roman_MSFontService,sans-serif" font-weight="400" font-size="13" transform="matrix(2.71829 0 0 2.70869 3028.06 1262)">O</text></g></g></g><text font-family="Source Han Serif SC Medium,Source Han Serif SC Medium_MSFontService,sans-serif" font-weight="500" font-size="32" transform="matrix(1 0 0 1 1445.47 1362)">氨基酸</text><text font-family="Source Han Serif SC Medium,Source Han Serif SC Medium_MSFontService,sans-serif" font-weight="500" font-size="32" transform="matrix(1 0 0 1 1878.59 1362)">氨基酸</text><text font-family="Source Han Serif SC Medium,Source Han Serif SC Medium_MSFontService,sans-serif" font-weight="500" font-size="32" transform="matrix(1 0 0 1 2590.41 1363)">二</text><text font-family="Source Han Serif SC Medium,Source Han Serif SC Medium_MSFontService,sans-serif" font-weight="500" font-size="32" transform="matrix(1 0 0 1 2622.5 1363)">肽</text></g></svg>