<?xml version="1.0" standalone='no'?><!-- IBoard SVG File --><svg xmlns="http://www.w3.org/2000/svg" xmlns:xlink="http://www.w3.org/1999/xlink" viewBox="466.65 130.66 93.71 47.40" height="40.40" width="100.71" version="1.1"><!-- SVG File --><text xml:space="preserve" x="520.535034" y="167.505875" textLength="9.386666" lengthAdjust="spacingAndGlyphs"><tspan font-family="Times New Roman" font-weight="normal" baseline-shift="0" font-size="13" fill="#000000">N</tspan></text><text xml:space="preserve" x="520.535095" y="141.049179" textLength="9.386666" lengthAdjust="spacingAndGlyphs"><tspan font-family="Times New Roman" font-weight="normal" baseline-shift="0" font-size="13" fill="#000000">H</tspan></text><text xml:space="preserve" x="494.436646" y="167.505875" textLength="8.670000" lengthAdjust="spacingAndGlyphs"><tspan font-family="Times New Roman" font-weight="normal" baseline-shift="0" font-size="13" fill="#000000">C</tspan></text><text xml:space="preserve" x="494.078308" y="141.049179" textLength="9.386666" lengthAdjust="spacingAndGlyphs"><tspan font-family="Times New Roman" font-weight="normal" baseline-shift="0" font-size="13" fill="#000000">O</tspan></text><polygon points="496.594635,155.940216 496.594635,142.386444 497.184235,142.386444 497.773834,142.386444 497.773834,155.940216 497.184235,155.940216 " style="fill:rgb(0,0,0);fill-opacity:1.000000"/><polygon points="499.769440,155.940216 499.769440,142.386444 500.359039,142.386444 500.948639,142.386444 500.948639,155.940216 500.359039,155.940216 " style="fill:rgb(0,0,0);fill-opacity:1.000000"/><polygon points="504.285858,161.802078 519.355835,161.802078 519.355835,162.391678 519.355835,162.981277 504.285858,162.981277 504.285858,162.391678 " style="fill:rgb(0,0,0);fill-opacity:1.000000"/><polygon points="524.638794,155.940216 524.638794,142.386444 525.228394,142.386444 525.817993,142.386444 525.817993,155.940216 525.228394,155.940216 " style="fill:rgb(0,0,0);fill-opacity:1.000000"/><polygon points="493.257446,162.981277 472.314941,162.981277 472.314941,162.391678 472.314941,161.802078 493.257446,161.802078 493.257446,162.391678 " style="fill:rgb(0,0,0);fill-opacity:1.000000"/><polygon points="531.100891,161.802078 551.685059,161.802078 551.685059,162.391678 551.685059,162.981277 531.100891,162.981277 531.100891,162.391678 " style="fill:rgb(0,0,0);fill-opacity:1.000000"/></svg>