<?xml version="1.0" standalone='no'?><!-- IBoard SVG File --><svg xmlns="http://www.w3.org/2000/svg" xmlns:xlink="http://www.w3.org/1999/xlink" viewBox="113.92 151.35 571.67 80.30" height="73.30" width="578.67" version="1.1"><!-- SVG File --><text xml:space="preserve" x="113.916664" y="190.087189" textLength="23.110001" lengthAdjust="spacingAndGlyphs"><tspan font-family="Arial" font-weight="normal" baseline-shift="0" font-size="13" fill="#000000">H</tspan><tspan font-family="Arial" font-weight="normal" baseline-shift="-2" font-size="8" fill="#000000">3</tspan><tspan font-family="Arial" font-weight="normal" baseline-shift="0" font-size="13" fill="#000000">C</tspan></text><polygon points="138.205887,185.907074 155.577759,185.907074 155.577759,186.496674 155.577759,187.086273 138.205887,187.086273 138.205887,186.496674 " style="fill:rgb(0,0,0);fill-opacity:1.000000"/><text xml:space="preserve" x="156.756973" y="191.761627" textLength="26.730000" lengthAdjust="spacingAndGlyphs"><tspan font-family="Arial" font-weight="normal" baseline-shift="0" font-size="13" fill="#000000">O</tspan><tspan font-family="Arial" font-weight="normal" baseline-shift="0" font-size="13" fill="#000000">N</tspan><tspan font-family="Arial" font-weight="normal" baseline-shift="0" font-size="13" fill="#000000">a</tspan></text><text xml:space="preserve" x="191.000000" y="190.971664" textLength="7.593333" lengthAdjust="spacingAndGlyphs"><tspan font-family="Arial" font-weight="normal" baseline-shift="0" font-size="13" fill="#000000">+</tspan></text><polygon points="247.666656,156.335541 273.197388,171.075699 273.197388,171.756516 272.607788,172.096939 247.666656,157.697174 247.666656,157.016357 " style="fill:rgb(0,0,0);fill-opacity:1.000000"/><polygon points="273.786987,172.096939 273.786987,201.577255 273.197388,201.236832 272.607788,200.896408 272.607788,172.096939 273.197388,171.756516 " style="fill:rgb(0,0,0);fill-opacity:1.000000"/><polygon points="270.249359,173.798965 270.249359,199.194382 269.659760,199.194382 269.070160,199.194382 269.070160,173.798965 269.659760,173.798965 " style="fill:rgb(0,0,0);fill-opacity:1.000000"/><polygon points="273.786987,201.577255 247.666687,216.657806 247.666687,215.976990 247.666687,215.296173 272.607788,200.896408 273.197388,201.236832 " style="fill:rgb(0,0,0);fill-opacity:1.000000"/><polygon points="247.666687,216.657806 221.546371,201.577255 222.135971,201.236832 222.725586,200.896423 247.666687,215.296173 247.666687,215.976990 " style="fill:rgb(0,0,0);fill-opacity:1.000000"/><polygon points="247.371887,212.402695 225.378815,199.704987 225.673615,199.194366 225.968414,198.683746 247.961487,211.381454 247.666687,211.892075 " style="fill:rgb(0,0,0);fill-opacity:1.000000"/><polygon points="221.546371,201.577240 221.546341,171.416138 222.135956,171.756516 222.725586,172.096924 222.725586,200.896439 222.135971,201.236832 " style="fill:rgb(0,0,0);fill-opacity:1.000000"/><polygon points="221.546341,171.416107 247.666656,156.335541 247.666656,157.016357 247.666656,157.697174 222.725586,172.096909 222.135956,171.756516 " style="fill:rgb(0,0,0);fill-opacity:1.000000"/><polygon points="225.378799,173.288345 247.371857,160.590652 247.666656,161.101273 247.961456,161.611893 225.968399,174.309586 225.673599,173.798965 " style="fill:rgb(0,0,0);fill-opacity:1.000000"/><polygon points="273.197388,171.075699 298.728088,156.335541 298.728088,157.016357 298.728088,157.697174 273.786987,172.096939 273.197388,171.756516 " style="fill:rgb(0,0,0);fill-opacity:1.000000"/><polygon points="298.728088,156.335541 316.874390,166.812317 316.579590,167.322937 316.284790,167.833557 298.728088,157.697174 298.728088,157.016357 " style="fill:rgb(0,0,0);fill-opacity:1.000000"/><text xml:space="preserve" x="317.758789" y="177.021484" textLength="13.000000" lengthAdjust="spacingAndGlyphs"><tspan font-family="Arial" font-weight="normal" baseline-shift="0" font-size="13" fill="#000000">Br</tspan></text><line x1="361" y1="192.49667" x2="419.64334" y2="192.49667" style="stroke:rgb(0,0,0);stroke-width:1.179213;stroke-opacity:1.000000" stroke-linecap="butt"/><polygon points="429.666656,192.496674 417.874542,189.548645 419.643341,192.496674 417.874542,195.444702 " style="fill:rgb(0,0,0);fill-opacity:1.000000"/><text xml:space="preserve" x="369.333313" y="176.021667" textLength="52.000000" lengthAdjust="spacingAndGlyphs"><tspan font-family="Arial" font-weight="normal" baseline-shift="0" font-size="13" fill="#000000">无水条件</tspan></text><text xml:space="preserve" x="585.403809" y="168.506104" textLength="23.110001" lengthAdjust="spacingAndGlyphs"><tspan font-family="Arial" font-weight="normal" baseline-shift="0" font-size="13" fill="#000000">C</tspan><tspan font-family="Arial" font-weight="normal" baseline-shift="0" font-size="13" fill="#000000">H</tspan><tspan font-family="Arial" font-weight="normal" baseline-shift="-2" font-size="8" fill="#000000">3</tspan></text><polygon points="584.224609,165.505188 566.852722,165.505188 566.852722,164.915588 566.852722,164.325989 584.224609,164.325989 584.224609,164.915588 " style="fill:rgb(0,0,0);fill-opacity:1.000000"/><text xml:space="preserve" x="555.560181" y="170.180542" textLength="10.113334" lengthAdjust="spacingAndGlyphs"><tspan font-family="Arial" font-weight="normal" baseline-shift="0" font-size="13" fill="#000000">O</tspan></text><polygon points="557.341797,171.767380 546.217102,191.035889 545.876709,190.446289 545.536316,189.856689 556.320557,171.177780 556.831177,171.472580 " style="fill:rgb(0,0,0);fill-opacity:1.000000"/><polygon points="546.217102,191.035889 516.736755,191.035889 516.396362,190.446289 516.736755,189.856689 545.536316,189.856689 545.876709,190.446289 " style="fill:rgb(0,0,0);fill-opacity:1.000000"/><polygon points="516.736755,191.035889 501.996674,216.566589 501.656250,215.976990 501.315826,215.387390 515.715515,190.446304 516.396362,190.446289 " style="fill:rgb(0,0,0);fill-opacity:1.000000"/><polygon points="474.218353,211.849747 499.613800,211.849747 499.613800,212.439346 499.613800,213.028946 474.218353,213.028946 474.218353,212.439346 " style="fill:rgb(0,0,0);fill-opacity:1.000000"/><polygon points="472.516327,215.387390 501.315826,215.387390 501.656250,215.976990 501.996674,216.566589 471.835480,216.566589 472.175903,215.976990 " style="fill:rgb(0,0,0);fill-opacity:1.000000"/><polygon points="471.835480,216.566589 456.754974,190.446274 457.435791,190.446274 458.116608,190.446274 472.516327,215.387390 472.175903,215.976990 " style="fill:rgb(0,0,0);fill-opacity:1.000000"/><polygon points="474.728973,168.748016 462.031311,190.741074 461.520691,190.446274 461.010071,190.151474 473.707733,168.158417 474.218353,168.453217 " style="fill:rgb(0,0,0);fill-opacity:1.000000"/><polygon points="472.516327,165.505173 458.116608,190.446274 457.435791,190.446274 456.754974,190.446274 471.835480,164.325974 472.175903,164.915573 " style="fill:rgb(0,0,0);fill-opacity:1.000000"/><polygon points="471.835480,164.325974 501.996674,164.325974 501.656250,164.915573 501.315826,165.505173 472.516327,165.505173 472.175903,164.915573 " style="fill:rgb(0,0,0);fill-opacity:1.000000"/><polygon points="511.800842,190.741089 499.103180,168.748016 499.613800,168.453217 500.124420,168.158417 512.822083,190.151489 512.311462,190.446289 " style="fill:rgb(0,0,0);fill-opacity:1.000000"/><polygon points="515.715515,190.446289 501.315826,165.505173 501.656250,164.915573 501.996674,164.325974 516.736755,189.856689 516.396362,190.446289 " style="fill:rgb(0,0,0);fill-opacity:1.000000"/><text xml:space="preserve" x="627.666687" y="191.257965" textLength="7.593333" lengthAdjust="spacingAndGlyphs"><tspan font-family="Arial" font-weight="normal" baseline-shift="0" font-size="13" fill="#000000">+</tspan></text><text xml:space="preserve" x="652.973328" y="190.533737" textLength="29.616667" lengthAdjust="spacingAndGlyphs"><tspan font-family="Arial" font-weight="normal" baseline-shift="0" font-size="13" fill="#000000">Na</tspan><tspan font-family="Arial" font-weight="normal" baseline-shift="0" font-size="13" fill="#000000">Br</tspan></text></svg>