<?xml version="1.0" standalone='no'?><!-- IBoard SVG File --><svg xmlns="http://www.w3.org/2000/svg" xmlns:xlink="http://www.w3.org/1999/xlink" viewBox="339.03 130.19 350.30 76.00" height="69.00" width="357.30" version="1.1"><!-- SVG File --><polygon points="391.117462,151.428650 391.117462,177.636169 390.527863,177.295746 389.938263,176.955322 389.938263,151.179474 390.527863,150.839050 " style="fill:rgb(0,0,0);fill-opacity:1.000000"/><text xml:space="preserve" x="412.291229" y="155.953247" textLength="9.386666" lengthAdjust="spacingAndGlyphs"><tspan font-family="Times New Roman" font-weight="normal" baseline-shift="0" font-size="13" fill="#000000">O</tspan></text><polygon points="344.113922,150.498627 367.615692,136.929886 367.615692,137.610703 367.615692,138.291519 345.293121,151.179474 344.703522,150.839050 " style="fill:rgb(0,0,0);fill-opacity:1.000000"/><polygon points="367.615692,136.929886 390.685852,150.249451 390.527863,150.839050 389.938263,151.179474 367.615692,138.291519 367.615692,137.610703 " style="fill:rgb(0,0,0);fill-opacity:1.000000"/><polygon points="367.910492,140.766037 387.647858,152.161407 387.353058,152.672028 387.058258,153.182648 367.320892,141.787277 367.615692,141.276657 " style="fill:rgb(0,0,0);fill-opacity:1.000000"/><polygon points="391.117462,177.636169 367.615692,191.204895 367.615692,190.524078 367.615692,189.843262 389.938263,176.955322 390.527863,177.295746 " style="fill:rgb(0,0,0);fill-opacity:1.000000"/><polygon points="387.647858,175.973389 367.910492,187.368744 367.615692,186.858124 367.320892,186.347504 387.058258,174.952148 387.353058,175.462769 " style="fill:rgb(0,0,0);fill-opacity:1.000000"/><polygon points="367.615692,191.204895 344.113922,177.636154 344.703522,177.295731 345.293121,176.955307 367.615692,189.843262 367.615692,190.524078 " style="fill:rgb(0,0,0);fill-opacity:1.000000"/><polygon points="344.113922,177.636154 344.113922,150.498627 344.703522,150.839050 345.293121,151.179474 345.293121,176.955307 344.703522,177.295731 " style="fill:rgb(0,0,0);fill-opacity:1.000000"/><polygon points="347.288727,175.462753 347.288727,152.672028 347.878326,152.672028 348.467926,152.672028 348.467926,175.462753 347.878326,175.462753 " style="fill:rgb(0,0,0);fill-opacity:1.000000"/><polygon points="390.685852,150.249451 411.112030,150.249451 411.112030,150.839050 411.112030,151.428650 391.117462,151.428650 390.527863,150.839050 " style="fill:rgb(0,0,0);fill-opacity:1.000000"/><polygon points="422.857086,150.249451 437.927063,150.249451 437.927063,150.839050 437.927063,151.428650 422.857086,151.428650 422.857086,150.839050 " style="fill:rgb(0,0,0);fill-opacity:1.000000"/><text xml:space="preserve" x="439.106262" y="145.408752" textLength="9.386666" lengthAdjust="spacingAndGlyphs"><tspan font-family="Times New Roman" font-weight="normal" baseline-shift="0" font-size="13" fill="#000000">H</tspan></text><text xml:space="preserve"/><text xml:space="preserve" x="439.106262" y="157.111298" textLength="8.670000" lengthAdjust="spacingAndGlyphs"><tspan font-family="Times New Roman" font-weight="normal" baseline-shift="0" font-size="13" fill="#000000">C</tspan></text><polygon points="448.955475,150.249451 464.383759,150.249451 464.383759,150.839050 464.383759,151.428650 448.955475,151.428650 448.955475,150.839050 " style="fill:rgb(0,0,0);fill-opacity:1.000000"/><text xml:space="preserve" x="465.562958" y="155.953247" textLength="8.670000" lengthAdjust="spacingAndGlyphs"><tspan font-family="Times New Roman" font-weight="normal" baseline-shift="0" font-size="13" fill="#000000">R</tspan></text><polygon points="444.030853,157.290512 444.030853,170.844284 443.441254,170.844284 442.851654,170.844284 442.851654,157.290512 443.441254,157.290512 " style="fill:rgb(0,0,0);fill-opacity:1.000000"/><text xml:space="preserve" x="439.106262" y="183.374985" textLength="11.013333" lengthAdjust="spacingAndGlyphs"><tspan font-family="Times New Roman" font-weight="normal" baseline-shift="0" font-size="13" fill="#000000">R</tspan><tspan font-family="Times New Roman" font-weight="normal" baseline-shift="0" font-size="13" fill="#000000">'</tspan></text><line x1="487.90225" y1="164.0674" x2="562.64429" y2="164.0674" style="stroke:rgb(0,0,0);stroke-width:1.179213;stroke-opacity:1.000000" stroke-linecap="butt"/><polygon points="572.667603,164.067398 560.875488,161.119370 562.644287,164.067398 560.875488,167.015427 " style="fill:rgb(0,0,0);fill-opacity:1.000000"/><text xml:space="preserve" x="498.694946" y="154.215317" textLength="63.180000" lengthAdjust="spacingAndGlyphs"><tspan font-family="Times New Roman" font-weight="normal" baseline-shift="0" font-size="13" fill="#000000">KMnO</tspan><tspan font-family="Times New Roman" font-weight="normal" baseline-shift="-2" font-size="8" fill="#000000">4</tspan><tspan font-family="Times New Roman" font-weight="normal" baseline-shift="0" font-size="13" fill="#000000">(</tspan><tspan font-family="Times New Roman" font-weight="normal" baseline-shift="0" font-size="13" fill="#000000">H</tspan><tspan font-family="Times New Roman" font-weight="normal" baseline-shift="6" font-size="8" fill="#000000">+</tspan><tspan font-family="Times New Roman" font-weight="normal" baseline-shift="0" font-size="13" fill="#000000">)</tspan></text><polygon points="627.969666,149.678635 627.969666,175.886154 627.380066,175.545731 626.790466,175.205307 626.790466,149.429459 627.380066,149.089035 " style="fill:rgb(0,0,0);fill-opacity:1.000000"/><text xml:space="preserve" x="649.501770" y="154.203232" textLength="36.830002" lengthAdjust="spacingAndGlyphs"><tspan font-family="Times New Roman" font-weight="normal" baseline-shift="0" font-size="13" fill="#000000">C</tspan><tspan font-family="Times New Roman" font-weight="normal" baseline-shift="0" font-size="13" fill="#000000">O</tspan><tspan font-family="Times New Roman" font-weight="normal" baseline-shift="0" font-size="13" fill="#000000">O</tspan><tspan font-family="Times New Roman" font-weight="normal" baseline-shift="0" font-size="13" fill="#000000">H</tspan></text><polygon points="580.966125,148.748611 604.467896,135.179871 604.467896,135.860687 604.467896,136.541504 582.145325,149.429459 581.555725,149.089035 " style="fill:rgb(0,0,0);fill-opacity:1.000000"/><polygon points="604.467896,135.179871 627.538086,148.499435 627.380066,149.089035 626.790466,149.429459 604.467896,136.541504 604.467896,135.860687 " style="fill:rgb(0,0,0);fill-opacity:1.000000"/><polygon points="604.762695,139.016022 624.500061,150.411392 624.205261,150.922012 623.910461,151.432632 604.173096,140.037262 604.467896,139.526642 " style="fill:rgb(0,0,0);fill-opacity:1.000000"/><polygon points="627.969666,175.886154 604.467896,189.454880 604.467896,188.774063 604.467896,188.093246 626.790466,175.205307 627.380066,175.545731 " style="fill:rgb(0,0,0);fill-opacity:1.000000"/><polygon points="624.500061,174.223373 604.762695,185.618729 604.467896,185.108109 604.173096,184.597488 623.910461,173.202133 624.205261,173.712753 " style="fill:rgb(0,0,0);fill-opacity:1.000000"/><polygon points="604.467896,189.454880 580.966125,175.886139 581.555725,175.545715 582.145325,175.205292 604.467896,188.093246 604.467896,188.774063 " style="fill:rgb(0,0,0);fill-opacity:1.000000"/><polygon points="580.966125,175.886139 580.966125,148.748611 581.555725,149.089035 582.145325,149.429459 582.145325,175.205292 581.555725,175.545715 " style="fill:rgb(0,0,0);fill-opacity:1.000000"/><polygon points="584.140930,173.712738 584.140930,150.922012 584.730530,150.922012 585.320129,150.922012 585.320129,173.712738 584.730530,173.712738 " style="fill:rgb(0,0,0);fill-opacity:1.000000"/><polygon points="627.538086,148.499435 648.322571,148.499435 648.322571,149.089035 648.322571,149.678635 627.969666,149.678635 627.380066,149.089035 " style="fill:rgb(0,0,0);fill-opacity:1.000000"/></svg>