<?xml version="1.0" standalone='no'?><!-- IBoard SVG File --><svg xmlns="http://www.w3.org/2000/svg" xmlns:xlink="http://www.w3.org/1999/xlink" viewBox="173.42 127.73 604.37 110.87" height="103.87" width="611.37" version="1.1"><!-- SVG File --><polygon points="178.498230,164.594559 202.000000,151.025818 202.000000,151.706635 202.000000,152.387451 179.677429,165.275406 179.087830,164.934982 " style="fill:rgb(0,0,0);fill-opacity:1.000000"/><polygon points="202.000000,151.025818 225.070175,164.345383 224.912170,164.934982 224.322571,165.275406 202.000000,152.387451 202.000000,151.706635 " style="fill:rgb(0,0,0);fill-opacity:1.000000"/><polygon points="202.294800,154.861969 222.032166,166.257339 221.737366,166.767960 221.442566,167.278580 201.705200,155.883209 202.000000,155.372589 " style="fill:rgb(0,0,0);fill-opacity:1.000000"/><polygon points="225.501770,165.524582 225.501755,191.732117 224.912155,191.391693 224.322556,191.051270 224.322571,165.275406 224.912170,164.934982 " style="fill:rgb(0,0,0);fill-opacity:1.000000"/><polygon points="225.501755,191.732117 201.999969,205.300842 201.999969,204.620026 201.999969,203.939209 224.322556,191.051270 224.912155,191.391693 " style="fill:rgb(0,0,0);fill-opacity:1.000000"/><polygon points="222.032150,190.069336 202.294769,201.464691 201.999969,200.954071 201.705170,200.443451 221.442551,189.048096 221.737350,189.558716 " style="fill:rgb(0,0,0);fill-opacity:1.000000"/><polygon points="201.999969,205.300842 178.498215,191.732071 179.087814,191.391647 179.677414,191.051224 201.999969,203.939209 201.999969,204.620026 " style="fill:rgb(0,0,0);fill-opacity:1.000000"/><polygon points="178.498215,191.732071 178.498230,164.594559 179.087830,164.934982 179.677429,165.275406 179.677414,191.051224 179.087814,191.391647 " style="fill:rgb(0,0,0);fill-opacity:1.000000"/><polygon points="181.673019,189.558670 181.673035,166.767960 182.262634,166.767960 182.852234,166.767960 182.852219,189.558670 182.262619,189.558670 " style="fill:rgb(0,0,0);fill-opacity:1.000000"/><polygon points="225.070175,164.345383 245.496323,164.345383 245.496323,164.934982 245.496323,165.524582 225.501770,165.524582 224.912170,164.934982 " style="fill:rgb(0,0,0);fill-opacity:1.000000"/><text xml:space="preserve" x="246.675537" y="170.049179" textLength="18.773333" lengthAdjust="spacingAndGlyphs"><tspan font-family="Times New Roman" font-weight="normal" baseline-shift="0" font-size="13" fill="#000000">O</tspan><tspan font-family="Times New Roman" font-weight="normal" baseline-shift="0" font-size="13" fill="#000000">H</tspan></text><text xml:space="preserve" x="377.223480" y="183.277527" textLength="9.386666" lengthAdjust="spacingAndGlyphs"><tspan font-family="Times New Roman" font-weight="normal" baseline-shift="0" font-size="13" fill="#000000">O</tspan></text><polygon points="376.461182,184.452774 369.140198,191.773758 368.723297,191.356842 368.306396,190.939926 375.627380,183.618942 376.044281,184.035858 " style="fill:rgb(0,0,0);fill-opacity:1.000000"/><text xml:space="preserve" x="358.874084" y="201.985229" textLength="8.670000" lengthAdjust="spacingAndGlyphs"><tspan font-family="Times New Roman" font-weight="normal" baseline-shift="0" font-size="13" fill="#000000">C</tspan></text><polygon points="375.627380,172.707718 368.306396,165.386734 368.723297,164.969818 369.140198,164.552902 376.461182,171.873886 376.044281,172.290802 " style="fill:rgb(0,0,0);fill-opacity:1.000000"/><text xml:space="preserve" x="358.874084" y="164.569824" textLength="8.670000" lengthAdjust="spacingAndGlyphs"><tspan font-family="Times New Roman" font-weight="normal" baseline-shift="0" font-size="13" fill="#000000">C</tspan></text><polygon points="357.694885,160.045227 342.266602,160.045227 342.266602,159.455627 342.266602,158.866028 357.694885,158.866028 357.694885,159.455627 " style="fill:rgb(0,0,0);fill-opacity:1.000000"/><text xml:space="preserve" x="319.130737" y="162.880310" textLength="21.956667" lengthAdjust="spacingAndGlyphs"><tspan font-family="Times New Roman" font-weight="normal" baseline-shift="0" font-size="13" fill="#000000">H</tspan><tspan font-family="Times New Roman" font-weight="normal" baseline-shift="-2" font-size="8" fill="#000000">3</tspan><tspan font-family="Times New Roman" font-weight="normal" baseline-shift="0" font-size="13" fill="#000000">C</tspan></text><polygon points="357.694885,197.460632 342.266602,197.460632 342.266602,196.871033 342.266602,196.281433 357.694885,196.281433 357.694885,196.871033 " style="fill:rgb(0,0,0);fill-opacity:1.000000"/><text xml:space="preserve" x="319.130737" y="200.295715" textLength="21.956667" lengthAdjust="spacingAndGlyphs"><tspan font-family="Times New Roman" font-weight="normal" baseline-shift="0" font-size="13" fill="#000000">H</tspan><tspan font-family="Times New Roman" font-weight="normal" baseline-shift="-2" font-size="8" fill="#000000">3</tspan><tspan font-family="Times New Roman" font-weight="normal" baseline-shift="0" font-size="13" fill="#000000">C</tspan></text><polygon points="361.032104,153.004166 361.032104,139.450394 361.621704,139.450394 362.211304,139.450394 362.211304,153.004166 361.621704,153.004166 " style="fill:rgb(0,0,0);fill-opacity:1.000000"/><polygon points="364.206909,153.004166 364.206909,139.450394 364.796509,139.450394 365.386108,139.450394 365.386108,153.004166 364.796509,153.004166 " style="fill:rgb(0,0,0);fill-opacity:1.000000"/><text xml:space="preserve" x="358.515778" y="138.113129" textLength="9.386666" lengthAdjust="spacingAndGlyphs"><tspan font-family="Times New Roman" font-weight="normal" baseline-shift="0" font-size="13" fill="#000000">O</tspan></text><polygon points="365.386108,203.322495 365.386108,216.876266 364.796509,216.876266 364.206909,216.876266 364.206909,203.322495 364.796509,203.322495 " style="fill:rgb(0,0,0);fill-opacity:1.000000"/><polygon points="362.211304,203.322495 362.211304,216.876266 361.621704,216.876266 361.032104,216.876266 361.032104,203.322495 361.621704,203.322495 " style="fill:rgb(0,0,0);fill-opacity:1.000000"/><text xml:space="preserve" x="358.515778" y="228.441925" textLength="9.386666" lengthAdjust="spacingAndGlyphs"><tspan font-family="Times New Roman" font-weight="normal" baseline-shift="0" font-size="13" fill="#000000">O</tspan></text><text xml:space="preserve" x="284.083527" y="182.638336" textLength="7.330000" lengthAdjust="spacingAndGlyphs"><tspan font-family="Times New Roman" font-weight="normal" baseline-shift="0" font-size="13" fill="#000000">+</tspan></text><line x1="411.41684" y1="178.68698" x2="476.98407" y2="178.68698" style="stroke:rgb(0,0,0);stroke-width:1.179213;stroke-opacity:1.000000" stroke-linecap="butt"/><polygon points="487.007385,178.686981 475.215271,175.738953 476.984070,178.686981 475.215271,181.635010 " style="fill:rgb(0,0,0);fill-opacity:1.000000"/><polygon points="560.067444,165.524597 560.067444,191.732117 559.477844,191.391693 558.888245,191.051270 558.888245,165.275421 559.477844,164.934998 " style="fill:rgb(0,0,0);fill-opacity:1.000000"/><text xml:space="preserve" x="581.241150" y="170.049194" textLength="9.386666" lengthAdjust="spacingAndGlyphs"><tspan font-family="Times New Roman" font-weight="normal" baseline-shift="0" font-size="13" fill="#000000">O</tspan></text><polygon points="513.063904,164.594574 536.565613,151.025833 536.565613,151.706650 536.565613,152.387466 514.243103,165.275421 513.653503,164.934998 " style="fill:rgb(0,0,0);fill-opacity:1.000000"/><polygon points="536.565613,151.025833 559.635864,164.345398 559.477844,164.934998 558.888245,165.275421 536.565613,152.387466 536.565613,151.706650 " style="fill:rgb(0,0,0);fill-opacity:1.000000"/><polygon points="536.860413,154.861984 556.597839,166.257355 556.303040,166.767975 556.008240,167.278595 536.270813,155.883224 536.565613,155.372604 " style="fill:rgb(0,0,0);fill-opacity:1.000000"/><polygon points="560.067444,191.732117 536.565613,205.300842 536.565613,204.620026 536.565613,203.939209 558.888245,191.051270 559.477844,191.391693 " style="fill:rgb(0,0,0);fill-opacity:1.000000"/><polygon points="556.597839,190.069336 536.860413,201.464691 536.565613,200.954071 536.270813,200.443451 556.008240,189.048096 556.303040,189.558716 " style="fill:rgb(0,0,0);fill-opacity:1.000000"/><polygon points="536.565613,205.300842 513.063904,191.732101 513.653503,191.391678 514.243103,191.051254 536.565613,203.939209 536.565613,204.620026 " style="fill:rgb(0,0,0);fill-opacity:1.000000"/><polygon points="513.063904,191.732101 513.063904,164.594574 513.653503,164.934998 514.243103,165.275421 514.243103,191.051254 513.653503,191.391678 " style="fill:rgb(0,0,0);fill-opacity:1.000000"/><polygon points="516.238708,189.558701 516.238708,166.767975 516.828308,166.767975 517.417908,166.767975 517.417908,189.558701 516.828308,189.558701 " style="fill:rgb(0,0,0);fill-opacity:1.000000"/><polygon points="559.635864,164.345398 580.061951,164.345398 580.061951,164.934998 580.061951,165.524597 560.067444,165.524597 559.477844,164.934998 " style="fill:rgb(0,0,0);fill-opacity:1.000000"/><polygon points="591.807007,164.345398 606.876953,164.345398 606.876953,164.934998 606.876953,165.524597 591.807007,165.524597 591.807007,164.934998 " style="fill:rgb(0,0,0);fill-opacity:1.000000"/><text xml:space="preserve" x="608.056152" y="170.049194" textLength="8.670000" lengthAdjust="spacingAndGlyphs"><tspan font-family="Times New Roman" font-weight="normal" baseline-shift="0" font-size="13" fill="#000000">C</tspan></text><polygon points="617.905334,164.345398 633.333679,164.345398 633.333679,164.934998 633.333679,165.524597 617.905334,165.524597 617.905334,164.934998 " style="fill:rgb(0,0,0);fill-opacity:1.000000"/><text xml:space="preserve" x="634.512878" y="168.359680" textLength="21.956667" lengthAdjust="spacingAndGlyphs"><tspan font-family="Times New Roman" font-weight="normal" baseline-shift="0" font-size="13" fill="#000000">C</tspan><tspan font-family="Times New Roman" font-weight="normal" baseline-shift="0" font-size="13" fill="#000000">H</tspan><tspan font-family="Times New Roman" font-weight="normal" baseline-shift="-2" font-size="8" fill="#000000">3</tspan></text><polygon points="610.212280,158.484177 610.208252,144.930405 610.797852,144.930237 611.387451,144.930069 611.391479,158.483841 610.801880,158.484009 " style="fill:rgb(0,0,0);fill-opacity:1.000000"/><polygon points="613.387085,158.483231 613.383057,144.929459 613.972656,144.929291 614.562256,144.929123 614.566284,158.482895 613.976685,158.483063 " style="fill:rgb(0,0,0);fill-opacity:1.000000"/><text xml:space="preserve" x="607.690063" y="143.592499" textLength="9.386666" lengthAdjust="spacingAndGlyphs"><tspan font-family="Times New Roman" font-weight="normal" baseline-shift="0" font-size="13" fill="#000000">O</tspan></text><text xml:space="preserve" x="687.000244" y="182.638321" textLength="7.330000" lengthAdjust="spacingAndGlyphs"><tspan font-family="Times New Roman" font-weight="normal" baseline-shift="0" font-size="13" fill="#000000">+</tspan></text><text xml:space="preserve" x="715.998535" y="181.359009" textLength="58.786667" lengthAdjust="spacingAndGlyphs"><tspan font-family="Times New Roman" font-weight="normal" baseline-shift="0" font-size="13" fill="#000000">C</tspan><tspan font-family="Times New Roman" font-weight="normal" baseline-shift="0" font-size="13" fill="#000000">H</tspan><tspan font-family="Times New Roman" font-weight="normal" baseline-shift="-2" font-size="8" fill="#000000">3</tspan><tspan font-family="Times New Roman" font-weight="normal" baseline-shift="0" font-size="13" fill="#000000">C</tspan><tspan font-family="Times New Roman" font-weight="normal" baseline-shift="0" font-size="13" fill="#000000">O</tspan><tspan font-family="Times New Roman" font-weight="normal" baseline-shift="0" font-size="13" fill="#000000">O</tspan><tspan font-family="Times New Roman" font-weight="normal" baseline-shift="0" font-size="13" fill="#000000">H</tspan></text></svg>