<svg width="1296" height="220" xmlns="http://www.w3.org/2000/svg" xmlns:xlink="http://www.w3.org/1999/xlink" xml:space="preserve" overflow="hidden"><g transform="translate(-1552 -1154)"><g><g><g><text font-family="Times New Roman,Times New Roman_MSFontService,sans-serif" font-weight="400" font-size="13" transform="matrix(2.48996 0 0 2.4866 1666.11 1238)">C</text><path d="M1559.19 1045.24 1535.56 1086.17 1534.29 1085.44 1533.02 1084.71 1556.65 1043.77 1557.92 1044.51Z" transform="matrix(1.00135 0 0 1 107.611 196.609)"/><path d="M1556.65 1013.16 1533.02 972.225 1534.29 971.492 1535.56 970.759 1559.19 1011.69 1557.92 1012.42Z" transform="matrix(1.00135 0 0 1 107.611 196.609)"/><path d="M1580.89 1023.05 1618.36 1023.05 1618.36 1024.52 1618.36 1025.98 1580.89 1025.98 1580.89 1024.52Z" transform="matrix(1.00135 0 0 1 107.611 196.609)"/><path d="M1580.89 1030.95 1618.36 1030.95 1618.36 1032.41 1618.36 1033.88 1580.89 1033.88 1580.89 1032.41Z" transform="matrix(1.00135 0 0 1 107.611 196.609)"/><text font-family="Times New Roman,Times New Roman_MSFontService,sans-serif" font-weight="400" font-size="13" transform="matrix(2.48996 0 0 2.4866 1731.1 1238)">O</text><text font-family="Times New Roman,Times New Roman_MSFontService,sans-serif" font-weight="400" font-size="13" transform="matrix(2.48996 0 0 2.4866 2116.8 1238)">C</text><path d="M2004.58 1043.21 1986.38 1061.42 1985.34 1060.38 1984.3 1059.35 2002.51 1041.14 2003.54 1042.18Z" transform="matrix(1.00135 0 0 1 107.611 196.609)"/><text font-family="Times New Roman,Times New Roman_MSFontService,sans-serif" font-weight="400" font-size="13" transform="matrix(2.48996 0 0 2.4866 2069.32 1284)">H</text><path d="M2002.51 1015.79 1983.41 996.695 1984.45 995.659 1985.48 994.622 2004.58 1013.72 2003.54 1014.75Z" transform="matrix(1.00135 0 0 1 107.611 196.609)"/><text font-family="Times New Roman,Times New Roman_MSFontService,sans-serif" font-weight="400" font-size="13" transform="matrix(2.48996 0 0 2.4866 2070.22 1191)">R</text><path d="M2032 1041.14 2051.1 1060.24 2050.06 1061.27 2049.02 1062.31 2029.93 1043.21 2030.97 1042.18Z" transform="matrix(1.00135 0 0 1 107.611 196.609)"/><text font-family="Times New Roman,Times New Roman_MSFontService,sans-serif" font-weight="400" font-size="13" transform="matrix(2.48996 0 0 2.4866 2163.38 1284)">C</text><text font-family="Times New Roman,Times New Roman_MSFontService,sans-serif" font-weight="400" font-size="13" transform="matrix(2.48996 0 0 2.4866 2183.3 1284)">N</text><path d="M2029.93 1013.72 2048.13 995.513 2049.17 996.55 2050.21 997.587 2032 1015.79 2030.97 1014.75Z" transform="matrix(1.00135 0 0 1 107.611 196.609)"/><text font-family="Times New Roman,Times New Roman_MSFontService,sans-serif" font-weight="400" font-size="13" transform="matrix(2.48996 0 0 2.4866 2162.49 1191)">O</text><text font-family="Times New Roman,Times New Roman_MSFontService,sans-serif" font-weight="400" font-size="13" transform="matrix(2.48996 0 0 2.4866 2184.9 1191)">H</text><path d="M2192.56 1028.47 2355.6 1028.47" stroke="#000000" stroke-width="2.93223" fill="none" transform="matrix(1.00135 0 0 1 107.611 196.609)"/><path d="M2380.52 1028.47 2351.2 1021.14 2355.6 1028.47 2351.2 1035.8Z" transform="matrix(1.00135 0 0 1 107.611 196.609)"/><text font-family="Times New Roman,Times New Roman_MSFontService,sans-serif" font-weight="400" font-size="13" transform="matrix(2.48996 0 0 2.4866 2604.97 1235)">C</text><path d="M2492.09 1040.19 2473.89 1058.4 2472.85 1057.36 2471.82 1056.32 2490.02 1038.12 2491.06 1039.15Z" transform="matrix(1.00135 0 0 1 107.611 196.609)"/><text font-family="Times New Roman,Times New Roman_MSFontService,sans-serif" font-weight="400" font-size="13" transform="matrix(2.48996 0 0 2.4866 2557.5 1281)">H</text><path d="M2490.02 1012.77 2470.93 993.672 2471.96 992.635 2473 991.599 2492.09 1010.69 2491.06 1011.73Z" transform="matrix(1.00135 0 0 1 107.611 196.609)"/><text font-family="Times New Roman,Times New Roman_MSFontService,sans-serif" font-weight="400" font-size="13" transform="matrix(2.48996 0 0 2.4866 2558.39 1188)">R</text><path d="M2519.52 1038.12 2538.61 1057.21 2537.58 1058.25 2536.54 1059.29 2517.44 1040.19 2518.48 1039.15Z" transform="matrix(1.00135 0 0 1 107.611 196.609)"/><text font-family="Times New Roman,Times New Roman_MSFontService,sans-serif" font-weight="400" font-size="13" transform="matrix(2.48996 0 0 2.4866 2651.55 1277)">C</text><text font-family="Times New Roman,Times New Roman_MSFontService,sans-serif" font-weight="400" font-size="13" transform="matrix(2.48996 0 0 2.4866 2671.47 1277)">H</text><text font-family="Times New Roman,Times New Roman_MSFontService,sans-serif" font-weight="400" font-size="8" transform="matrix(2.48996 0 0 2.4866 2693.88 1277)">2</text><text font-family="Times New Roman,Times New Roman_MSFontService,sans-serif" font-weight="400" font-size="13" transform="matrix(2.48996 0 0 2.4866 2703.84 1277)">N</text><text font-family="Times New Roman,Times New Roman_MSFontService,sans-serif" font-weight="400" font-size="13" transform="matrix(2.48996 0 0 2.4866 2726.25 1277)">H</text><text font-family="Times New Roman,Times New Roman_MSFontService,sans-serif" font-weight="400" font-size="8" transform="matrix(2.48996 0 0 2.4866 2748.66 1277)">2</text><path d="M2517.44 1010.69 2535.65 992.49 2536.68 993.526 2537.72 994.563 2519.52 1012.77 2518.48 1011.73Z" transform="matrix(1.00135 0 0 1 107.611 196.609)"/><text font-family="Times New Roman,Times New Roman_MSFontService,sans-serif" font-weight="400" font-size="13" transform="matrix(2.48996 0 0 2.4866 2650.66 1188)">O</text><text font-family="Times New Roman,Times New Roman_MSFontService,sans-serif" font-weight="400" font-size="13" transform="matrix(2.48996 0 0 2.4866 2673.07 1188)">H</text><path d="M1689.33 1028.47 1852.37 1028.47" stroke="#000000" stroke-width="2.93223" fill="none" transform="matrix(1.00135 0 0 1 107.611 196.609)"/><path d="M1877.29 1028.47 1847.97 1021.14 1852.37 1028.47 1847.97 1035.8Z" transform="matrix(1.00135 0 0 1 107.611 196.609)"/><text font-family="Times New Roman,Times New Roman_MSFontService,sans-serif" font-weight="400" font-size="13" transform="matrix(2.48996 0 0 2.4866 1859.16 1211)">H</text><text font-family="Times New Roman,Times New Roman_MSFontService,sans-serif" font-weight="400" font-size="13" transform="matrix(2.48996 0 0 2.4866 1881.57 1211)">C</text><text font-family="Times New Roman,Times New Roman_MSFontService,sans-serif" font-weight="400" font-size="13" transform="matrix(2.48996 0 0 2.4866 1901.49 1211)">N</text><text font-family="Times New Roman,Times New Roman_MSFontService,sans-serif" font-weight="400" font-size="13" transform="matrix(2.48996 0 0 2.4866 2380.7 1200)">H</text><text font-family="Times New Roman,Times New Roman_MSFontService,sans-serif" font-weight="400" font-size="8" transform="matrix(2.48996 0 0 2.4866 2403.11 1200)">2</text></g></g></g><text font-family="Source Han Serif SC Medium,Source Han Serif SC Medium_MSFontService,sans-serif" font-weight="500" font-size="28" transform="matrix(1 0 0 1 2083.05 1350)">羟基腈</text><text font-family="Source Han Serif SC Medium,Source Han Serif SC Medium_MSFontService,sans-serif" font-weight="500" font-size="28" transform="matrix(1 0 0 1 2581.07 1350)">氨基醇</text><text font-family="Source Han Serif SC Medium,Source Han Serif SC Medium_MSFontService,sans-serif" font-weight="500" font-size="28" transform="matrix(1 0 0 1 2351.9 1263)">催化剂</text><text font-family="Source Han Serif SC Medium,Source Han Serif SC Medium_MSFontService,sans-serif" font-weight="700" font-size="28" transform="matrix(1 0 0 1 1842.01 1263)">催化剂</text></g></svg>