<?xml version="1.0" standalone='no'?><!-- IBoard SVG File --><svg xmlns="http://www.w3.org/2000/svg" xmlns:xlink="http://www.w3.org/1999/xlink" viewBox="305.22 145.04 398.05 74.25" height="67.25" width="405.05" version="1.1"><!-- SVG File --><polygon points="310.298218,163.594559 333.799988,150.025818 333.799988,150.706635 333.799988,151.387451 311.477417,164.275406 310.887817,163.934982 " style="fill:rgb(0,0,0);fill-opacity:1.000000"/><polygon points="333.799988,150.025818 357.301758,163.594559 356.712158,163.934982 356.122559,164.275406 333.799988,151.387451 333.799988,150.706635 " style="fill:rgb(0,0,0);fill-opacity:1.000000"/><polygon points="334.094788,153.861969 353.832153,165.257339 353.537354,165.767960 353.242554,166.278580 333.505188,154.883209 333.799988,154.372589 " style="fill:rgb(0,0,0);fill-opacity:1.000000"/><polygon points="357.301758,163.594559 357.301758,190.732117 356.712158,190.391693 356.122559,190.051270 356.122559,164.275406 356.712158,163.934982 " style="fill:rgb(0,0,0);fill-opacity:1.000000"/><polygon points="357.301758,190.732117 333.799988,204.300842 333.799988,203.620026 333.799988,202.939209 356.122559,190.051270 356.712158,190.391693 " style="fill:rgb(0,0,0);fill-opacity:1.000000"/><polygon points="353.832153,189.069336 334.094788,200.464691 333.799988,199.954071 333.505188,199.443451 353.242554,188.048096 353.537354,188.558716 " style="fill:rgb(0,0,0);fill-opacity:1.000000"/><polygon points="333.799988,204.300842 310.298218,190.732101 310.887817,190.391678 311.477417,190.051254 333.799988,202.939209 333.799988,203.620026 " style="fill:rgb(0,0,0);fill-opacity:1.000000"/><polygon points="310.298218,190.732101 310.298218,163.594559 310.887817,163.934982 311.477417,164.275406 311.477417,190.051254 310.887817,190.391678 " style="fill:rgb(0,0,0);fill-opacity:1.000000"/><polygon points="313.473022,188.558701 313.473022,165.767960 314.062622,165.767960 314.652222,165.767960 314.652222,188.558701 314.062622,188.558701 " style="fill:rgb(0,0,0);fill-opacity:1.000000"/><text xml:space="preserve" x="422.858337" y="182.273010" textLength="12.283334" lengthAdjust="spacingAndGlyphs"><tspan font-family="Times New Roman" font-weight="normal" baseline-shift="0" font-size="13" fill="#000000">Cl</tspan></text><polygon points="421.679138,177.748413 408.057495,177.748413 408.057495,177.158813 408.057495,176.569214 421.679138,176.569214 421.679138,177.158813 " style="fill:rgb(0,0,0);fill-opacity:1.000000"/><text xml:space="preserve" x="398.208282" y="182.273010" textLength="8.670000" lengthAdjust="spacingAndGlyphs"><tspan font-family="Times New Roman" font-weight="normal" baseline-shift="0" font-size="13" fill="#000000">R</tspan></text><text xml:space="preserve" x="377.200012" y="181.633820" textLength="7.330000" lengthAdjust="spacingAndGlyphs"><tspan font-family="Times New Roman" font-weight="normal" baseline-shift="0" font-size="13" fill="#000000">+</tspan></text><polygon points="563.221313,163.594559 586.723145,150.025818 586.723145,150.706635 586.723145,151.387451 564.400513,164.275406 563.810913,163.934982 " style="fill:rgb(0,0,0);fill-opacity:1.000000"/><polygon points="586.723145,150.025818 609.793274,163.345383 609.635254,163.934982 609.045654,164.275406 586.723145,151.387451 586.723145,150.706635 " style="fill:rgb(0,0,0);fill-opacity:1.000000"/><polygon points="587.017944,153.861969 606.755249,165.257339 606.460449,165.767960 606.165649,166.278580 586.428345,154.883209 586.723145,154.372589 " style="fill:rgb(0,0,0);fill-opacity:1.000000"/><polygon points="610.224854,164.524582 610.224854,190.732117 609.635254,190.391693 609.045654,190.051270 609.045654,164.275406 609.635254,163.934982 " style="fill:rgb(0,0,0);fill-opacity:1.000000"/><polygon points="610.224854,190.732117 586.723206,204.300842 586.723145,203.620041 586.723145,202.939209 609.045654,190.051270 609.635254,190.391693 " style="fill:rgb(0,0,0);fill-opacity:1.000000"/><polygon points="606.755249,189.069336 587.017944,200.464706 586.723145,199.954086 586.428345,199.443466 606.165649,188.048096 606.460449,188.558716 " style="fill:rgb(0,0,0);fill-opacity:1.000000"/><polygon points="586.723145,204.300827 563.221313,190.732101 563.810913,190.391678 564.400513,190.051254 586.723145,202.939194 586.723145,203.620041 " style="fill:rgb(0,0,0);fill-opacity:1.000000"/><polygon points="563.221313,190.732101 563.221313,163.594559 563.810913,163.934982 564.400513,164.275406 564.400513,190.051254 563.810913,190.391678 " style="fill:rgb(0,0,0);fill-opacity:1.000000"/><polygon points="566.396118,188.558701 566.396118,165.767960 566.985718,165.767960 567.575317,165.767960 567.575317,188.558701 566.985718,188.558701 " style="fill:rgb(0,0,0);fill-opacity:1.000000"/><polygon points="609.793274,163.345383 630.577698,163.345383 630.577698,163.934982 630.577698,164.524582 610.224854,164.524582 609.635254,163.934982 " style="fill:rgb(0,0,0);fill-opacity:1.000000"/><text xml:space="preserve" x="631.756897" y="169.049179" textLength="8.670000" lengthAdjust="spacingAndGlyphs"><tspan font-family="Times New Roman" font-weight="normal" baseline-shift="0" font-size="13" fill="#000000">R</tspan></text><text xml:space="preserve" x="678.594910" y="182.277527" textLength="21.670000" lengthAdjust="spacingAndGlyphs"><tspan font-family="Times New Roman" font-weight="normal" baseline-shift="0" font-size="13" fill="#000000">H</tspan><tspan font-family="Times New Roman" font-weight="normal" baseline-shift="0" font-size="13" fill="#000000">Cl</tspan></text><text xml:space="preserve" x="653.123169" y="181.633820" textLength="7.330000" lengthAdjust="spacingAndGlyphs"><tspan font-family="Times New Roman" font-weight="normal" baseline-shift="0" font-size="13" fill="#000000">+</tspan></text><line x1="462.39999" y1="177.15881" x2="527.96716" y2="177.15881" style="stroke:rgb(0,0,0);stroke-width:1.179213;stroke-opacity:1.000000" stroke-linecap="butt"/><polygon points="537.990479,177.158813 526.198364,174.210785 527.967163,177.158813 526.198364,180.106842 " style="fill:rgb(0,0,0);fill-opacity:1.000000"/><text xml:space="preserve" x="485.603607" y="167.607239" textLength="29.183332" lengthAdjust="spacingAndGlyphs"><tspan font-family="Times New Roman" font-weight="normal" baseline-shift="0" font-size="13" fill="#000000">Al</tspan><tspan font-family="Times New Roman" font-weight="normal" baseline-shift="0" font-size="13" fill="#000000">Cl</tspan><tspan font-family="Times New Roman" font-weight="normal" baseline-shift="-2" font-size="8" fill="#000000">3</tspan></text></svg>