<?xml version="1.0" encoding="utf-8"?>
<!-- Generator: Adobe Illustrator 27.7.0, SVG Export Plug-In . SVG Version: 6.00 Build 0)  -->
<svg version="1.1" id="图层_1" xmlns="http://www.w3.org/2000/svg" xmlns:xlink="http://www.w3.org/1999/xlink" x="0px" y="0px"
	 viewBox="0 0 351.7 67.2" style="enable-background:new 0 0 351.7 67.2;" xml:space="preserve">
<style type="text/css">
	.st0{font-family:'SourceHanSerifSC-Medium-GBpc-EUC-H';}
	.st1{font-size:11.7744px;}
	.st2{font-family:'TimesNewRomanPSMT';}
	.st3{fill:none;stroke:#000000;stroke-width:1.068;stroke-miterlimit:3.6229;}
	.st4{font-family:'AdobeSongStd-Light-GBpc-EUC-H';}
</style>
<polygon points="24.4,41.4 24.4,16.8 24.9,17.1 25.4,17.4 25.4,40.8 24.9,41.1 "/>
<polygon points="28,39 47.3,50.1 47.1,50.6 46.8,51 27.5,39.9 27.8,39.4 "/>
<polygon points="25.4,40.8 45.9,52.6 45.6,53.1 45.4,53.5 24.4,41.4 24.9,41.1 "/>
<polygon points="24.4,16.8 45.4,4.7 45.6,5.1 45.9,5.6 25.4,17.4 24.9,17.1 "/>
<polygon points="27.5,18.3 46.8,7.2 47.1,7.6 47.3,8.1 28,19.2 27.8,18.8 "/>
<polygon points="99.9,41.1 99.9,16.8 100.5,17.1 101,17.4 101,41.1 100.5,41.1 "/>
<polygon points="99.9,16.8 115.9,7.6 116.2,8 116.5,8.5 101,17.4 100.5,17.1 "/>
<text transform="matrix(1 0 0 1 117.2764 9.7658)" class="st0 st1">C</text>
<text transform="matrix(1 0 0 1 125.1299 9.7658)" class="st0 st1">O</text>
<text transform="matrix(1 0 0 1 133.6328 9.7658)" class="st0 st1">O</text>
<text transform="matrix(1 0 0 1 142.1358 9.7658)" class="st0 st1">H</text>
<polygon points="237,16.8 258.3,4.5 258.3,5.1 258.3,5.8 238.1,17.4 237.5,17.1 "/>
<polygon points="279.6,17.4 279.6,41.4 279,41.1 278.5,40.8 278.5,17.4 279,17.1 "/>
<polygon points="258.3,53.7 237,41.4 237.5,41.1 238.1,40.8 258.3,52.4 258.3,53.1 "/>
<polygon points="237,41.4 237,16.8 237.5,17.1 238.1,17.4 238.1,40.8 237.5,41.1 "/>
<polygon points="239.9,39.4 239.9,18.8 240.4,18.8 240.9,18.8 240.9,39.4 240.4,39.4 "/>
<polygon points="258.3,4.5 279,16.5 279,17.1 278.5,17.4 258.3,5.8 258.3,5.1 "/>
<polygon points="279.6,41.4 258.3,53.7 258.3,53.1 258.3,52.4 278.5,40.8 279,41.1 "/>
<polygon points="279,16.5 294.5,7.5 294.8,8 295.1,8.5 279.6,17.4 279,17.1 "/>
<text transform="matrix(1 0 0 1 295.8516 9.7575)" class="st2 st1">C</text>
<text transform="matrix(1 0 0 1 303.7051 9.7575)" class="st2 st1">O</text>
<text transform="matrix(1 0 0 1 312.208 9.7575)" class="st2 st1">O</text>
<text transform="matrix(1 0 0 1 320.711 9.7575)" class="st2 st1">H</text>
<line class="st3" x1="163.4" y1="29.1" x2="222.7" y2="29.1"/>
<polygon points="231.8,29.1 221.1,26.4 222.7,29.1 221.1,31.8 "/>
<text transform="matrix(1 0 0 1 72.9678 33.1491)" class="st2 st1">+</text>
<text transform="matrix(1 0 0 1 194.0586 27.3386)" class="st4 st1">△</text>
<polygon points="102.9,39.4 102.9,18.8 103.4,18.8 103.9,18.8 103.9,39.4 103.4,39.4 "/>
</svg>
