<?xml version="1.0" standalone='no'?><!-- IBoard SVG File --><svg xmlns="http://www.w3.org/2000/svg" xmlns:xlink="http://www.w3.org/1999/xlink" viewBox="380.04 204.61 344.67 74.25" height="67.25" width="351.67" version="1.1"><!-- SVG File --><polygon points="385.122559,250.303741 385.122559,223.166199 385.712158,223.506622 386.301758,223.847046 386.301758,249.622894 385.712158,249.963318 " style="fill:rgb(0,0,0);fill-opacity:1.000000"/><polygon points="389.181763,247.619720 410.506531,259.931580 410.211731,260.442200 409.916931,260.952820 388.592163,248.640961 388.886963,248.130341 " style="fill:rgb(0,0,0);fill-opacity:1.000000"/><polygon points="386.301758,249.622894 408.919128,262.681030 408.624329,263.191650 408.329529,263.702271 385.122559,250.303741 385.712158,249.963318 " style="fill:rgb(0,0,0);fill-opacity:1.000000"/><polygon points="385.122559,223.166199 408.329529,209.767654 408.624329,210.278275 408.919128,210.788895 386.301758,223.847046 385.712158,223.506622 " style="fill:rgb(0,0,0);fill-opacity:1.000000"/><polygon points="388.592163,224.828979 409.916931,212.517120 410.211731,213.027740 410.506531,213.538361 389.181763,225.850220 388.886963,225.339600 " style="fill:rgb(0,0,0);fill-opacity:1.000000"/><polygon points="468.554382,249.963303 468.554382,223.166214 469.143982,223.506638 469.733582,223.847061 469.733582,249.963303 469.143982,249.963303 " style="fill:rgb(0,0,0);fill-opacity:1.000000"/><polygon points="468.554382,223.166214 486.247162,212.951279 486.541962,213.461899 486.836761,213.972519 469.733582,223.847061 469.143982,223.506638 " style="fill:rgb(0,0,0);fill-opacity:1.000000"/><text xml:space="preserve" x="487.721161" y="215.392471" textLength="36.830002" lengthAdjust="spacingAndGlyphs"><tspan font-family="Times New Roman" font-weight="normal" baseline-shift="0" font-size="13" fill="#000000">C</tspan><tspan font-family="Times New Roman" font-weight="normal" baseline-shift="0" font-size="13" fill="#000000">O</tspan><tspan font-family="Times New Roman" font-weight="normal" baseline-shift="0" font-size="13" fill="#000000">O</tspan><tspan font-family="Times New Roman" font-weight="normal" baseline-shift="0" font-size="13" fill="#000000">H</tspan></text><polygon points="619.898254,223.166245 643.400024,209.597519 643.400024,210.278336 643.400024,210.959152 621.077454,223.847092 620.487854,223.506668 " style="fill:rgb(0,0,0);fill-opacity:1.000000"/><polygon points="666.901733,223.846970 666.901733,250.303726 666.312134,249.963364 665.722534,249.622910 665.722534,223.847122 666.312134,223.506699 " style="fill:rgb(0,0,0);fill-opacity:1.000000"/><polygon points="643.400024,263.872467 619.898254,250.303726 620.487854,249.963303 621.077454,249.622910 643.400024,262.510834 643.400024,263.191681 " style="fill:rgb(0,0,0);fill-opacity:1.000000"/><polygon points="619.898254,250.303726 619.898254,223.166245 620.487854,223.506668 621.077454,223.847092 621.077454,249.622910 620.487854,249.963303 " style="fill:rgb(0,0,0);fill-opacity:1.000000"/><polygon points="623.073059,248.130402 623.073059,225.339645 623.662659,225.339645 624.252258,225.339645 624.252258,248.130402 623.662659,248.130402 " style="fill:rgb(0,0,0);fill-opacity:1.000000"/><polygon points="643.400024,209.597519 666.312012,222.825790 666.312134,223.506699 665.722534,223.847122 643.400024,210.959152 643.400024,210.278336 " style="fill:rgb(0,0,0);fill-opacity:1.000000"/><polygon points="666.901733,250.303726 643.400024,263.872467 643.400024,263.191681 643.400024,262.510834 665.722534,249.622910 666.312134,249.963364 " style="fill:rgb(0,0,0);fill-opacity:1.000000"/><polygon points="666.312012,222.825790 683.409912,212.945328 683.704956,213.455826 684.000000,213.966324 666.901733,223.846970 666.312134,223.506699 " style="fill:rgb(0,0,0);fill-opacity:1.000000"/><text xml:space="preserve" x="684.884155" y="215.383499" textLength="36.830002" lengthAdjust="spacingAndGlyphs"><tspan font-family="Times New Roman" font-weight="normal" baseline-shift="0" font-size="13" fill="#000000">C</tspan><tspan font-family="Times New Roman" font-weight="normal" baseline-shift="0" font-size="13" fill="#000000">O</tspan><tspan font-family="Times New Roman" font-weight="normal" baseline-shift="0" font-size="13" fill="#000000">O</tspan><tspan font-family="Times New Roman" font-weight="normal" baseline-shift="0" font-size="13" fill="#000000">H</tspan></text><line x1="538.6001" y1="236.73502" x2="604.16736" y2="236.73502" style="stroke:rgb(0,0,0);stroke-width:1.179213;stroke-opacity:1.000000" stroke-linecap="butt"/><polygon points="614.190674,236.735016 602.398560,233.786972 604.167358,236.735016 602.398560,239.682999 " style="fill:rgb(0,0,0);fill-opacity:1.000000"/><text xml:space="preserve" x="438.800049" y="241.209991" textLength="7.330000" lengthAdjust="spacingAndGlyphs"><tspan font-family="Times New Roman" font-weight="normal" baseline-shift="0" font-size="13" fill="#000000">+</tspan></text><text xml:space="preserve" x="572.495361" y="234.794296" textLength="7.800000" lengthAdjust="spacingAndGlyphs"><tspan font-family="Times New Roman" font-weight="normal" baseline-shift="0" font-size="13" fill="#000000">△</tspan></text></svg>