<?xml version="1.0" standalone='no'?><!-- IBoard SVG File --><svg xmlns="http://www.w3.org/2000/svg" xmlns:xlink="http://www.w3.org/1999/xlink" viewBox="11.02 134.41 105.52 75.18" height="68.18" width="112.52" version="1.1"><!-- SVG File --><text xml:space="preserve" x="44.650291" y="143.158798" textLength="13.286667" lengthAdjust="spacingAndGlyphs"><tspan font-family="Times New Roman" font-weight="normal" baseline-shift="0" font-size="13" fill="#000000">H</tspan><tspan font-family="Times New Roman" font-weight="normal" baseline-shift="-2" font-size="8" fill="#000000">2</tspan></text><text xml:space="preserve"/><text xml:space="preserve" x="44.650291" y="157.361343" textLength="8.670000" lengthAdjust="spacingAndGlyphs"><tspan font-family="Times New Roman" font-weight="normal" baseline-shift="0" font-size="13" fill="#000000">C</tspan></text><polygon points="54.498402,153.036880 69.926651,153.008011 69.927757,153.597610 69.928864,154.187210 54.500607,154.216080 54.499504,153.626480 " style="fill:rgb(0,0,0);fill-opacity:1.000000"/><text xml:space="preserve" x="71.106972" y="143.109268" textLength="13.286667" lengthAdjust="spacingAndGlyphs"><tspan font-family="Times New Roman" font-weight="normal" baseline-shift="0" font-size="13" fill="#000000">H</tspan><tspan font-family="Times New Roman" font-weight="normal" baseline-shift="-2" font-size="8" fill="#000000">2</tspan></text><text xml:space="preserve"/><text xml:space="preserve" x="71.106972" y="157.311813" textLength="8.670000" lengthAdjust="spacingAndGlyphs"><tspan font-family="Times New Roman" font-weight="normal" baseline-shift="0" font-size="13" fill="#000000">C</tspan></text><polygon points="47.463493,160.269424 43.500774,172.543411 42.939686,172.362259 42.378597,172.181107 46.341316,159.907120 46.902405,160.088272 " style="fill:rgb(0,0,0);fill-opacity:1.000000"/><text xml:space="preserve" x="36.521801" y="183.927917" textLength="8.670000" lengthAdjust="spacingAndGlyphs"><tspan font-family="Times New Roman" font-weight="normal" baseline-shift="0" font-size="13" fill="#000000">C</tspan></text><polygon points="78.111908,159.855499 82.115417,172.099197 81.555008,172.282440 80.994598,172.465683 76.991089,160.221985 77.551498,160.038742 " style="fill:rgb(0,0,0);fill-opacity:1.000000"/><text xml:space="preserve" x="79.329536" y="183.848099" textLength="8.670000" lengthAdjust="spacingAndGlyphs"><tspan font-family="Times New Roman" font-weight="normal" baseline-shift="0" font-size="13" fill="#000000">C</tspan></text><polygon points="46.716686,182.326660 56.762905,189.597015 56.417236,190.074661 56.071568,190.552307 46.025349,183.281952 46.371017,182.804306 " style="fill:rgb(0,0,0);fill-opacity:1.000000"/><text xml:space="preserve" x="57.596451" y="199.438766" textLength="9.386666" lengthAdjust="spacingAndGlyphs"><tspan font-family="Times New Roman" font-weight="normal" baseline-shift="0" font-size="13" fill="#000000">O</tspan></text><polygon points="36.019188,182.685989 22.259386,187.185242 22.076141,186.624832 21.892897,186.064423 35.652695,181.565170 35.835941,182.125580 " style="fill:rgb(0,0,0);fill-opacity:1.000000"/><polygon points="35.032486,179.668411 21.272680,184.167664 21.089436,183.607254 20.906191,183.046844 34.665993,178.547592 34.849239,179.108002 " style="fill:rgb(0,0,0);fill-opacity:1.000000"/><text xml:space="preserve" x="11.016909" y="192.150482" textLength="9.386666" lengthAdjust="spacingAndGlyphs"><tspan font-family="Times New Roman" font-weight="normal" baseline-shift="0" font-size="13" fill="#000000">O</tspan></text><polygon points="89.847626,178.442535 103.637863,182.894897 103.456711,183.455978 103.275558,184.017059 89.485321,179.564697 89.666473,179.003616 " style="fill:rgb(0,0,0);fill-opacity:1.000000"/><polygon points="88.872177,181.463776 102.662415,185.916138 102.481262,186.477219 102.300110,187.038300 88.509872,182.585938 88.691025,182.024857 " style="fill:rgb(0,0,0);fill-opacity:1.000000"/><text xml:space="preserve" x="104.148201" y="191.976822" textLength="9.386666" lengthAdjust="spacingAndGlyphs"><tspan font-family="Times New Roman" font-weight="normal" baseline-shift="0" font-size="13" fill="#000000">O</tspan></text><polygon points="78.497772,183.232300 68.509781,190.517502 68.162331,190.041153 67.814880,189.564804 77.802872,182.279602 78.150322,182.755951 " style="fill:rgb(0,0,0);fill-opacity:1.000000"/></svg>