<?xml version="1.0" standalone='no'?><!-- IBoard SVG File --><svg xmlns="http://www.w3.org/2000/svg" xmlns:xlink="http://www.w3.org/1999/xlink" viewBox="104.06 118.05 61.16 87.36" height="80.36" width="68.16" version="1.1"><!-- SVG File --><text xml:space="preserve" x="140.265106" y="154.889755" textLength="8.670000" lengthAdjust="spacingAndGlyphs"><tspan font-family="Times New Roman" font-weight="normal" baseline-shift="0" font-size="13" fill="#000000">C</tspan></text><polygon points="145.189697,156.227020 145.189697,169.780792 144.600098,169.780792 144.010498,169.780792 144.010498,156.227020 144.600098,156.227020 " style="fill:rgb(0,0,0);fill-opacity:1.000000"/><text xml:space="preserve" x="140.265091" y="179.656937" textLength="21.956667" lengthAdjust="spacingAndGlyphs"><tspan font-family="Times New Roman" font-weight="normal" baseline-shift="0" font-size="13" fill="#000000">C</tspan><tspan font-family="Times New Roman" font-weight="normal" baseline-shift="0" font-size="13" fill="#000000">H</tspan><tspan font-family="Times New Roman" font-weight="normal" baseline-shift="-2" font-size="8" fill="#000000">2</tspan></text><polygon points="139.085892,150.365158 124.015953,150.365158 124.015953,149.775558 124.015953,149.185959 139.085892,149.185959 139.085892,149.775558 " style="fill:rgb(0,0,0);fill-opacity:1.000000"/><text xml:space="preserve" x="104.063408" y="154.889755" textLength="18.773333" lengthAdjust="spacingAndGlyphs"><tspan font-family="Times New Roman" font-weight="normal" baseline-shift="0" font-size="13" fill="#000000">H</tspan><tspan font-family="Times New Roman" font-weight="normal" baseline-shift="0" font-size="13" fill="#000000">N</tspan></text><polygon points="142.420547,143.324951 142.415207,129.771194 143.004807,129.770966 143.594406,129.770737 143.599747,143.324493 143.010147,143.324722 " style="fill:rgb(0,0,0);fill-opacity:1.000000"/><polygon points="145.595352,143.323700 145.590012,129.769943 146.179611,129.769714 146.769211,129.769485 146.774551,143.323242 146.184952,143.323471 " style="fill:rgb(0,0,0);fill-opacity:1.000000"/><text xml:space="preserve" x="139.896317" y="128.433075" textLength="9.386666" lengthAdjust="spacingAndGlyphs"><tspan font-family="Times New Roman" font-weight="normal" baseline-shift="0" font-size="13" fill="#000000">O</tspan></text><polygon points="118.733009,156.227020 118.733009,169.780792 118.143402,169.780792 117.553795,169.780792 117.553795,156.227020 118.143402,156.227020 " style="fill:rgb(0,0,0);fill-opacity:1.000000"/><text xml:space="preserve" x="113.808403" y="181.346451" textLength="8.670000" lengthAdjust="spacingAndGlyphs"><tspan font-family="Times New Roman" font-weight="normal" baseline-shift="0" font-size="13" fill="#000000">C</tspan></text><text xml:space="preserve"/><text xml:space="preserve" x="113.808403" y="191.359482" textLength="13.286667" lengthAdjust="spacingAndGlyphs"><tspan font-family="Times New Roman" font-weight="normal" baseline-shift="0" font-size="13" fill="#000000">H</tspan><tspan font-family="Times New Roman" font-weight="normal" baseline-shift="-2" font-size="8" fill="#000000">2</tspan></text><polygon points="139.085876,176.821854 123.657616,176.821854 123.657616,176.232254 123.657616,175.642654 139.085876,175.642654 139.085876,176.232254 " style="fill:rgb(0,0,0);fill-opacity:1.000000"/></svg>