<?xml version="1.0" standalone='no'?><!-- IBoard SVG File --><svg xmlns="http://www.w3.org/2000/svg" xmlns:xlink="http://www.w3.org/1999/xlink" viewBox="-4.25 -50.44 584.53 90.56" height="83.56" width="591.53" version="1.1"><!-- SVG File --><polygon points="47.835365,-16.355143 47.835358,9.852358 47.245754,9.511948 46.656147,9.171537 46.656151,-16.604338 47.245758,-16.944748 " style="fill:rgb(0,0,0);fill-opacity:1.000000"/><text xml:space="preserve" x="69.009125" y="-11.830551" textLength="9.386666" lengthAdjust="spacingAndGlyphs"><tspan font-family="Times New Roman" font-weight="normal" baseline-shift="0" font-size="13" fill="#000000">O</tspan></text><polygon points="0.831814,-17.285162 24.333590,-30.853916 24.333590,-30.173098 24.333590,-29.492279 2.011024,-16.604342 1.421419,-16.944750 " style="fill:rgb(0,0,0);fill-opacity:1.000000"/><polygon points="24.333590,-30.853916 47.403744,-17.534353 47.245758,-16.944748 46.656151,-16.604338 24.333590,-29.492279 24.333590,-30.173098 " style="fill:rgb(0,0,0);fill-opacity:1.000000"/><polygon points="24.628393,-27.017765 44.365761,-15.622389 44.070953,-15.111774 43.776154,-14.601160 24.038786,-25.996536 24.333590,-26.507151 " style="fill:rgb(0,0,0);fill-opacity:1.000000"/><polygon points="47.835358,9.852358 24.333580,23.421108 24.333580,22.740288 24.333580,22.059471 46.656147,9.171537 47.245754,9.511948 " style="fill:rgb(0,0,0);fill-opacity:1.000000"/><polygon points="44.365753,8.189589 24.628386,19.584957 24.333582,19.074343 24.038778,18.563728 43.776150,7.168360 44.070953,7.678974 " style="fill:rgb(0,0,0);fill-opacity:1.000000"/><polygon points="24.333580,23.421108 0.831810,9.852345 1.421415,9.511936 2.011021,9.171524 24.333582,22.059471 24.333580,22.740288 " style="fill:rgb(0,0,0);fill-opacity:1.000000"/><polygon points="0.831810,9.852345 0.831814,-17.285162 1.421419,-16.944750 2.011024,-16.604342 2.011021,9.171524 1.421415,9.511936 " style="fill:rgb(0,0,0);fill-opacity:1.000000"/><polygon points="4.006613,7.678963 4.006617,-15.111777 4.596222,-15.111777 5.185827,-15.111777 5.185823,7.678963 4.596218,7.678963 " style="fill:rgb(0,0,0);fill-opacity:1.000000"/><polygon points="47.403744,-17.534353 67.829910,-17.534353 67.829910,-16.944748 67.829910,-16.355143 47.835365,-16.355143 47.245758,-16.944748 " style="fill:rgb(0,0,0);fill-opacity:1.000000"/><polygon points="79.574997,-17.534353 94.644936,-17.534353 94.644936,-16.944748 94.644936,-16.355143 79.574997,-16.355143 79.574997,-16.944748 " style="fill:rgb(0,0,0);fill-opacity:1.000000"/><text xml:space="preserve" x="95.824150" y="-13.520061" textLength="30.626667" lengthAdjust="spacingAndGlyphs"><tspan font-family="Times New Roman" font-weight="normal" baseline-shift="0" font-size="13" fill="#000000">C</tspan><tspan font-family="Times New Roman" font-weight="normal" baseline-shift="0" font-size="13" fill="#000000">C</tspan><tspan font-family="Times New Roman" font-weight="normal" baseline-shift="0" font-size="13" fill="#000000">H</tspan><tspan font-family="Times New Roman" font-weight="normal" baseline-shift="-2" font-size="8" fill="#000000">3</tspan></text><polygon points="98.406578,-22.716404 98.406578,-38.713684 98.996185,-38.713684 99.585793,-38.713684 99.585793,-22.716404 98.996185,-22.716404 " style="fill:rgb(0,0,0);fill-opacity:1.000000"/><polygon points="101.581383,-22.716404 101.581383,-38.713684 102.170990,-38.713684 102.760597,-38.713684 102.760597,-22.716404 102.170990,-22.716404 " style="fill:rgb(0,0,0);fill-opacity:1.000000"/><text xml:space="preserve" x="95.890259" y="-40.050949" textLength="9.386666" lengthAdjust="spacingAndGlyphs"><tspan font-family="Times New Roman" font-weight="normal" baseline-shift="0" font-size="13" fill="#000000">O</tspan></text><text xml:space="preserve" x="163.473602" y="4.863531" textLength="33.930000" lengthAdjust="spacingAndGlyphs"><tspan font-family="Times New Roman" font-weight="normal" baseline-shift="0" font-size="13" fill="#000000">Na</tspan><tspan font-family="Times New Roman" font-weight="normal" baseline-shift="0" font-size="13" fill="#000000">O</tspan><tspan font-family="Times New Roman" font-weight="normal" baseline-shift="0" font-size="13" fill="#000000">H</tspan></text><text xml:space="preserve" x="420.000305" y="4.747984" textLength="7.330000" lengthAdjust="spacingAndGlyphs"><tspan font-family="Times New Roman" font-weight="normal" baseline-shift="0" font-size="13" fill="#000000">+</tspan></text><text xml:space="preserve" x="135.250275" y="4.747984" textLength="7.330000" lengthAdjust="spacingAndGlyphs"><tspan font-family="Times New Roman" font-weight="normal" baseline-shift="0" font-size="13" fill="#000000">+</tspan></text><line x1="217.41699" y1="-0.2532959" x2="282.98422" y2="-0.2532959" style="stroke:rgb(0,0,0);stroke-width:1.179213;stroke-opacity:1.000000" stroke-linecap="butt"/><polygon points="293.007538,-0.253296 281.215424,-3.201327 282.984222,-0.253296 281.215424,2.694736 " style="fill:rgb(0,0,0);fill-opacity:1.000000"/><text xml:space="preserve" x="249.360580" y="-2.802240" textLength="11.703333" lengthAdjust="spacingAndGlyphs"><tspan font-family="Times New Roman" font-weight="normal" baseline-shift="0" font-size="19" fill="#000000">△</tspan></text><polygon points="365.484406,-14.642054 365.484406,11.565447 364.894806,11.225035 364.305206,10.884623 364.305206,-14.891249 364.894806,-15.231661 " style="fill:rgb(0,0,0);fill-opacity:1.000000"/><text xml:space="preserve" x="386.658173" y="-10.117464" textLength="24.543333" lengthAdjust="spacingAndGlyphs"><tspan font-family="Times New Roman" font-weight="normal" baseline-shift="0" font-size="13" fill="#000000">O</tspan><tspan font-family="Times New Roman" font-weight="normal" baseline-shift="0" font-size="13" fill="#000000">N</tspan><tspan font-family="Times New Roman" font-weight="normal" baseline-shift="0" font-size="13" fill="#000000">a</tspan></text><polygon points="318.480865,-15.572075 341.982635,-29.140827 341.982635,-28.460011 341.982635,-27.779194 319.660065,-14.891253 319.070465,-15.231665 " style="fill:rgb(0,0,0);fill-opacity:1.000000"/><polygon points="341.982635,-29.140827 365.052795,-15.821268 364.894806,-15.231661 364.305206,-14.891249 341.982635,-27.779194 341.982635,-28.460011 " style="fill:rgb(0,0,0);fill-opacity:1.000000"/><polygon points="342.277435,-25.304678 362.014801,-13.909301 361.720001,-13.398687 361.425201,-12.888074 341.687836,-24.283449 341.982635,-24.794064 " style="fill:rgb(0,0,0);fill-opacity:1.000000"/><polygon points="365.484406,11.565447 341.982635,25.134190 341.982635,24.453373 341.982635,23.772556 364.305206,10.884623 364.894806,11.225035 " style="fill:rgb(0,0,0);fill-opacity:1.000000"/><polygon points="362.014801,9.902676 342.277435,21.298042 341.982635,20.787426 341.687836,20.276814 361.425201,8.881447 361.720001,9.392059 " style="fill:rgb(0,0,0);fill-opacity:1.000000"/><polygon points="341.982635,25.134190 318.480865,11.565434 319.070465,11.225021 319.660065,10.884613 341.982635,23.772556 341.982635,24.453373 " style="fill:rgb(0,0,0);fill-opacity:1.000000"/><polygon points="318.480865,11.565434 318.480865,-15.572075 319.070465,-15.231665 319.660065,-14.891253 319.660065,10.884613 319.070465,11.225021 " style="fill:rgb(0,0,0);fill-opacity:1.000000"/><polygon points="321.655670,9.392048 321.655670,-13.398690 322.245270,-13.398690 322.834869,-13.398690 322.834869,9.392048 322.245270,9.392048 " style="fill:rgb(0,0,0);fill-opacity:1.000000"/><polygon points="365.052795,-15.821268 385.478973,-15.821268 385.478973,-15.231661 385.478973,-14.642054 365.484406,-14.642054 364.894806,-15.231661 " style="fill:rgb(0,0,0);fill-opacity:1.000000"/><text xml:space="preserve" x="444.665619" y="2.421359" textLength="64.556664" lengthAdjust="spacingAndGlyphs"><tspan font-family="Times New Roman" font-weight="normal" baseline-shift="0" font-size="13" fill="#000000">C</tspan><tspan font-family="Times New Roman" font-weight="normal" baseline-shift="0" font-size="13" fill="#000000">H</tspan><tspan font-family="Times New Roman" font-weight="normal" baseline-shift="-2" font-size="8" fill="#000000">3</tspan><tspan font-family="Times New Roman" font-weight="normal" baseline-shift="0" font-size="13" fill="#000000">C</tspan><tspan font-family="Times New Roman" font-weight="normal" baseline-shift="0" font-size="13" fill="#000000">O</tspan><tspan font-family="Times New Roman" font-weight="normal" baseline-shift="0" font-size="13" fill="#000000">O</tspan><tspan font-family="Times New Roman" font-weight="normal" baseline-shift="0" font-size="13" fill="#000000">Na</tspan></text><text xml:space="preserve" x="554.604004" y="2.423989" textLength="22.673334" lengthAdjust="spacingAndGlyphs"><tspan font-family="Times New Roman" font-weight="normal" baseline-shift="0" font-size="13" fill="#000000">H</tspan><tspan font-family="Times New Roman" font-weight="normal" baseline-shift="-2" font-size="8" fill="#000000">2</tspan><tspan font-family="Times New Roman" font-weight="normal" baseline-shift="0" font-size="13" fill="#000000">O</tspan></text><text xml:space="preserve" x="523.083984" y="4.224332" textLength="7.330000" lengthAdjust="spacingAndGlyphs"><tspan font-family="Times New Roman" font-weight="normal" baseline-shift="0" font-size="13" fill="#000000">+</tspan></text></svg>