<svg width="2214" height="195" xmlns="http://www.w3.org/2000/svg" xmlns:xlink="http://www.w3.org/1999/xlink" xml:space="preserve" overflow="hidden"><defs><clipPath id="clip0"><rect x="1093" y="1140" width="2214" height="195"/></clipPath></defs><g clip-path="url(#clip0)" transform="translate(-1093 -1140)"><text font-family="Times New Roman,Times New Roman_MSFontService,sans-serif" font-weight="400" font-size="13" transform="matrix(2.97089 0 0 2.97756 1260.2 1270)">H</text><text font-family="Times New Roman,Times New Roman_MSFontService,sans-serif" font-weight="400" font-size="13" transform="matrix(2.97089 0 0 2.97756 1286.94 1270)">O</text><text font-family="Times New Roman,Times New Roman_MSFontService,sans-serif" font-weight="400" font-size="13" transform="matrix(2.97089 0 0 2.97756 1313.68 1270)">C</text><text font-family="Times New Roman,Times New Roman_MSFontService,sans-serif" font-weight="400" font-size="13" transform="matrix(2.97089 0 0 2.97756 1337.45 1270)">H</text><text font-family="Times New Roman,Times New Roman_MSFontService,sans-serif" font-weight="400" font-size="8" transform="matrix(2.97089 0 0 2.97756 1364.18 1270)">2</text><text font-family="Times New Roman,Times New Roman_MSFontService,sans-serif" font-weight="400" font-size="13" transform="matrix(2.97089 0 0 2.97756 1376.07 1270)">C</text><text font-family="Times New Roman,Times New Roman_MSFontService,sans-serif" font-weight="400" font-size="13" transform="matrix(2.97089 0 0 2.97756 1399.84 1270)">H</text><text font-family="Times New Roman,Times New Roman_MSFontService,sans-serif" font-weight="400" font-size="8" transform="matrix(2.97089 0 0 2.97756 1426.57 1270)">2</text><text font-family="Times New Roman,Times New Roman_MSFontService,sans-serif" font-weight="400" font-size="13" transform="matrix(2.97089 0 0 2.97756 1438.46 1270)">O</text><text font-family="Times New Roman,Times New Roman_MSFontService,sans-serif" font-weight="400" font-size="13" transform="matrix(2.97089 0 0 2.97756 1465.19 1270)">H</text><text font-family="Times New Roman,Times New Roman_MSFontService,sans-serif" font-weight="400" font-size="13" transform="matrix(2.97089 0 0 2.97756 1749.29 1305)">C</text><path d="M353.281 941.836 399.117 941.836 399.117 943.588 399.117 945.339 353.281 945.339 353.281 943.588Z" transform="matrix(1 0 0 1.00224 1425.27 343.831)"/><text font-family="Times New Roman,Times New Roman_MSFontService,sans-serif" font-weight="400" font-size="13" transform="matrix(2.97089 0 0 2.97756 1827.89 1305)">C</text><path d="M320.517 945.339 275.746 945.339 275.746 943.588 275.746 941.836 320.517 941.836 320.517 943.588Z" transform="matrix(1 0 0 1.00224 1425.27 343.831)"/><text font-family="Times New Roman,Times New Roman_MSFontService,sans-serif" font-weight="400" font-size="13" transform="matrix(2.97089 0 0 2.97756 1641.73 1305)">H</text><text font-family="Times New Roman,Times New Roman_MSFontService,sans-serif" font-weight="400" font-size="13" transform="matrix(2.97089 0 0 2.97756 1668.47 1305)">O</text><path d="M330.424 924.424 330.408 884.157 332.159 884.156 333.911 884.155 333.927 924.422 332.175 924.423Z" transform="matrix(1 0 0 1.00224 1425.27 343.831)"/><path d="M339.856 924.42 339.84 884.153 341.591 884.152 343.343 884.152 343.359 924.419 341.607 924.419Z" transform="matrix(1 0 0 1.00224 1425.27 343.831)"/><text font-family="Times New Roman,Times New Roman_MSFontService,sans-serif" font-weight="400" font-size="13" transform="matrix(2.97089 0 0 2.97756 1748.19 1226)">O</text><path d="M409.031 924.421 409.031 884.154 410.783 884.154 412.535 884.154 412.535 924.421 410.783 924.421Z" transform="matrix(1 0 0 1.00224 1425.27 343.831)"/><path d="M418.463 924.421 418.463 884.154 420.215 884.154 421.967 884.154 421.967 924.421 420.215 924.421Z" transform="matrix(1 0 0 1.00224 1425.27 343.831)"/><text font-family="Times New Roman,Times New Roman_MSFontService,sans-serif" font-weight="400" font-size="13" transform="matrix(2.97089 0 0 2.97756 1826.82 1226)">O</text><path d="M431.881 941.836 476.652 941.836 476.652 943.588 476.652 945.339 431.881 945.339 431.881 943.588Z" transform="matrix(1 0 0 1.00224 1425.27 343.831)"/><text font-family="Times New Roman,Times New Roman_MSFontService,sans-serif" font-weight="400" font-size="13" transform="matrix(2.97089 0 0 2.97756 1905.42 1305)">O</text><text font-family="Times New Roman,Times New Roman_MSFontService,sans-serif" font-weight="400" font-size="13" transform="matrix(2.97089 0 0 2.97756 1932.16 1305)">H</text><text font-family="Times New Roman,Times New Roman_MSFontService,sans-serif" font-weight="400" font-size="13" transform="matrix(2.97089 0 0 2.97756 2406.69 1245)">O</text><text font-family="Times New Roman,Times New Roman_MSFontService,sans-serif" font-weight="400" font-size="13" transform="matrix(2.97089 0 0 2.97756 2433.43 1245)">H</text><text font-family="Times New Roman,Times New Roman_MSFontService,sans-serif" font-weight="400" font-size="8" transform="matrix(2.97089 0 0 2.97756 2460.17 1245)">2</text><text font-family="Times New Roman,Times New Roman_MSFontService,sans-serif" font-weight="400" font-size="13" transform="matrix(2.97089 0 0 2.97756 2472.05 1245)">C</text><text font-family="Times New Roman,Times New Roman_MSFontService,sans-serif" font-weight="400" font-size="13" transform="matrix(2.97089 0 0 2.97756 2495.82 1245)">H</text><text font-family="Times New Roman,Times New Roman_MSFontService,sans-serif" font-weight="400" font-size="8" transform="matrix(2.97089 0 0 2.97756 2522.55 1245)">2</text><text font-family="Times New Roman,Times New Roman_MSFontService,sans-serif" font-weight="400" font-size="13" transform="matrix(2.97089 0 0 2.97756 2534.44 1245)">C</text><text font-family="Times New Roman,Times New Roman_MSFontService,sans-serif" font-weight="400" font-size="13" transform="matrix(2.97089 0 0 2.97756 2558.21 1245)">O</text><path d="M1171.16 886.903 1215.93 886.903 1215.93 888.654 1215.93 890.406 1171.16 890.406 1171.16 888.654Z" transform="matrix(1 0 0 1.00224 1425.27 343.831)"/><text font-family="Times New Roman,Times New Roman_MSFontService,sans-serif" font-weight="400" font-size="13" transform="matrix(2.97089 0 0 2.97756 2644.7 1250)">C</text><path d="M1248.7 886.903 1294.53 886.903 1294.53 888.654 1294.53 890.406 1248.7 890.406 1248.7 888.654Z" transform="matrix(1 0 0 1.00224 1425.27 343.831)"/><text font-family="Times New Roman,Times New Roman_MSFontService,sans-serif" font-weight="400" font-size="13" transform="matrix(2.97089 0 0 2.97756 2723.3 1250)">C</text><path d="M1225.85 869.488 1225.85 829.221 1227.6 829.221 1229.35 829.221 1229.35 869.488 1227.6 869.488Z" transform="matrix(1 0 0 1.00224 1425.27 343.831)"/><path d="M1235.28 869.488 1235.28 829.221 1237.03 829.221 1238.78 829.221 1238.78 869.488 1237.03 869.488Z" transform="matrix(1 0 0 1.00224 1425.27 343.831)"/><text font-family="Times New Roman,Times New Roman_MSFontService,sans-serif" font-weight="400" font-size="13" transform="matrix(2.97089 0 0 2.97756 2643.64 1171)">O</text><path d="M1327.3 886.903 1372.07 886.903 1372.07 888.654 1372.07 890.406 1327.3 890.406 1327.3 888.654Z" transform="matrix(1 0 0 1.00224 1425.27 343.831)"/><text font-family="Times New Roman,Times New Roman_MSFontService,sans-serif" font-weight="400" font-size="13" transform="matrix(2.97089 0 0 2.97756 2800.84 1250)">O</text><text font-family="Times New Roman,Times New Roman_MSFontService,sans-serif" font-weight="400" font-size="13" transform="matrix(2.97089 0 0 2.97756 2827.58 1250)">H</text><path d="M1304.45 869.488 1304.45 829.221 1306.2 829.221 1307.95 829.221 1307.95 869.488 1306.2 869.488Z" transform="matrix(1 0 0 1.00224 1425.27 343.831)"/><path d="M1313.88 869.488 1313.88 829.221 1315.63 829.221 1317.38 829.221 1317.38 869.488 1315.63 869.488Z" transform="matrix(1 0 0 1.00224 1425.27 343.831)"/><text font-family="Times New Roman,Times New Roman_MSFontService,sans-serif" font-weight="400" font-size="13" transform="matrix(2.97089 0 0 2.97756 2722.24 1171)">O</text><text font-family="Times New Roman,Times New Roman_MSFontService,sans-serif" font-weight="400" font-size="13" transform="matrix(2.97089 0 0 2.97756 2337.47 1253)">H</text><path d="M943.573 889.678 979.176 889.279 979.196 891.031 979.216 892.782 943.612 893.181 943.592 891.43Z" transform="matrix(1 0 0 1.00224 1425.27 343.831)"/><text font-family="Times New Roman,Times New Roman_MSFontService,sans-serif" font-weight="400" font-size="13" transform="matrix(2.97089 0 0 2.97756 2780.29 1274)">n</text><path d="M958.856 862.51 966.372 862.51" stroke="#000000" stroke-width="3.50331" fill="none" transform="matrix(1 0 0 1.00224 1425.27 343.831)"/><path d="M960.608 862.51 960.608 920.146" stroke="#000000" stroke-width="3.50331" fill="none" transform="matrix(1 0 0 1.00224 1425.27 343.831)"/><path d="M958.856 920.146 966.372 920.146" stroke="#000000" stroke-width="3.50331" fill="none" transform="matrix(1 0 0 1.00224 1425.27 343.831)"/><path d="M1348.58 862.51 1341.06 862.51" stroke="#000000" stroke-width="3.50331" fill="none" transform="matrix(1 0 0 1.00224 1425.27 343.831)"/><path d="M1346.82 862.51 1346.82 920.146" stroke="#000000" stroke-width="3.50331" fill="none" transform="matrix(1 0 0 1.00224 1425.27 343.831)"/><path d="M1348.58 920.146 1341.06 920.146" stroke="#000000" stroke-width="3.50331" fill="none" transform="matrix(1 0 0 1.00224 1425.27 343.831)"/><text font-family="Times New Roman,Times New Roman_MSFontService,sans-serif" font-weight="400" font-size="13" transform="matrix(2.97089 0 0 2.97756 2988.15 1241)">(</text><text font-family="Times New Roman,Times New Roman_MSFontService,sans-serif" font-weight="400" font-size="13" transform="matrix(2.97089 0 0 2.97756 3000.04 1241)">2</text><text font-family="Times New Roman,Times New Roman_MSFontService,sans-serif" font-weight="400" font-size="13" transform="matrix(2.97089 0 0 2.97756 3017.86 1241)">n</text><text font-family="Times New Roman,Times New Roman_MSFontService,sans-serif" font-weight="400" font-size="13" transform="matrix(2.97089 0 0 2.97756 3038.66 1241)">-</text><text font-family="Times New Roman,Times New Roman_MSFontService,sans-serif" font-weight="400" font-size="13" transform="matrix(2.97089 0 0 2.97756 3050.54 1241)">1</text><text font-family="Times New Roman,Times New Roman_MSFontService,sans-serif" font-weight="400" font-size="13" transform="matrix(2.97089 0 0 2.97756 3068.37 1241)">) </text><text font-family="Times New Roman,Times New Roman_MSFontService,sans-serif" font-weight="400" font-size="13" transform="matrix(2.97089 0 0 2.97756 3089.16 1241)">H</text><text font-family="Times New Roman,Times New Roman_MSFontService,sans-serif" font-weight="400" font-size="8" transform="matrix(2.97089 0 0 2.97756 3115.9 1241)">2</text><text font-family="Times New Roman,Times New Roman_MSFontService,sans-serif" font-weight="400" font-size="13" transform="matrix(2.97089 0 0 2.97756 3127.78 1241)">O</text><text font-family="Times New Roman,Times New Roman_MSFontService,sans-serif" font-weight="400" font-size="13" transform="matrix(2.97089 0 0 2.97756 1558.96 1276)">+</text><path d="M596.569 887.404 791.362 887.404" stroke="#000000" stroke-width="3.50331" fill="none" transform="matrix(1 0 0 1.00224 1425.27 343.831)"/><path d="M626.347 897.914 821.14 897.914" stroke="#000000" stroke-width="3.50331" fill="none" transform="matrix(1 0 0 1.00224 1425.27 343.831)"/><path d="M596.569 896.162 631.602 906.672 626.347 896.162Z" transform="matrix(1 0 0 1.00224 1425.27 343.831)"/><path d="M821.14 889.156 786.107 878.646 791.362 889.156Z" transform="matrix(1 0 0 1.00224 1425.27 343.831)"/><text font-family="Cambria Math,Cambria Math_MSFontService,sans-serif" font-weight="400" font-size="13" transform="matrix(2.97089 0 0 2.97756 2122.53 1296)">△</text><text font-family="Times New Roman,Times New Roman_MSFontService,sans-serif" font-weight="400" font-size="13" transform="matrix(2.97089 0 0 2.97756 2908.93 1245)">+</text><text font-family="Times New Roman,Times New Roman_MSFontService,sans-serif" font-weight="400" font-size="13" transform="matrix(2.97089 0 0 2.97756 1229.39 1276)">n</text><text font-family="Times New Roman,Times New Roman_MSFontService,sans-serif" font-weight="400" font-size="13" transform="matrix(2.97089 0 0 2.97756 1608.08 1276)">n</text><text font-family="Source Han Serif SC SemiBold,Source Han Serif SC SemiBold_MSFontService,sans-serif" font-weight="600" font-size="32" transform="matrix(1 0 0 1 2082.94 1202)">催化剂</text></g></svg>