<svg width="1692" height="237" xmlns="http://www.w3.org/2000/svg" xmlns:xlink="http://www.w3.org/1999/xlink" xml:space="preserve" overflow="hidden"><defs><clipPath id="clip0"><rect x="1354" y="1119" width="1692" height="237"/></clipPath></defs><g clip-path="url(#clip0)" transform="translate(-1354 -1119)"><text font-family="Times New Roman,Times New Roman_MSFontService,sans-serif" font-weight="400" font-size="13" transform="matrix(3.1268 0 0 3.12294 1524.08 1290)">C</text><path d="M694.899 1001.13 741.962 1001.13 741.962 1002.97 741.962 1004.82 694.899 1004.82 694.899 1002.97Z" transform="matrix(1.00123 0 0 1 859.12 270.808)"/><text font-family="Times New Roman,Times New Roman_MSFontService,sans-serif" font-weight="400" font-size="13" transform="matrix(3.1268 0 0 3.12294 1605.68 1290)">H</text><path d="M660.458 1004.82 612.277 1004.82 612.277 1002.97 612.277 1001.13 660.458 1001.13 660.458 1002.97Z" transform="matrix(1.00123 0 0 1 859.12 270.808)"/><text font-family="Times New Roman,Times New Roman_MSFontService,sans-serif" font-weight="400" font-size="13" transform="matrix(3.1268 0 0 3.12294 1441.36 1290)">R</text><path d="M670.872 982.83 670.855 940.503 672.697 940.502 674.538 940.501 674.555 982.829 672.713 982.829Z" transform="matrix(1.00123 0 0 1 859.12 270.808)"/><path d="M680.787 982.826 680.77 940.498 682.611 940.498 684.453 940.497 684.469 982.825 682.628 982.826Z" transform="matrix(1.00123 0 0 1 859.12 270.808)"/><text font-family="Times New Roman,Times New Roman_MSFontService,sans-serif" font-weight="400" font-size="13" transform="matrix(3.1268 0 0 3.12294 1522.93 1207)">O</text><text font-family="Times New Roman,Times New Roman_MSFontService,sans-serif" font-weight="400" font-size="13" transform="matrix(3.1268 0 0 3.12294 1670.52 1236)">+</text><text font-family="Times New Roman,Times New Roman_MSFontService,sans-serif" font-weight="400" font-size="13" transform="matrix(3.1268 0 0 3.12294 1741.05 1238)">H</text><text font-family="Times New Roman,Times New Roman_MSFontService,sans-serif" font-weight="400" font-size="13" transform="matrix(3.1268 0 0 3.12294 1769.2 1238)">C</text><text font-family="Times New Roman,Times New Roman_MSFontService,sans-serif" font-weight="400" font-size="13" transform="matrix(3.1268 0 0 3.12294 1794.21 1238)">N</text><text font-family="Times New Roman,Times New Roman_MSFontService,sans-serif" font-weight="400" font-size="13" transform="matrix(3.1268 0 0 3.12294 2245.62 1238)">C</text><path d="M1400.17 971.238 1400.17 1013.57 1398.33 1013.57 1396.49 1013.57 1396.49 971.238 1398.33 971.238Z" transform="matrix(1.00123 0 0 1 859.12 270.808)"/><text font-family="Times New Roman,Times New Roman_MSFontService,sans-serif" font-weight="400" font-size="13" transform="matrix(3.1268 0 0 3.12294 2245.62 1320)">C</text><text font-family="Times New Roman,Times New Roman_MSFontService,sans-serif" font-weight="400" font-size="13" transform="matrix(3.1268 0 0 3.12294 2270.64 1320)">N</text><path d="M1415.55 949.249 1462.61 949.249 1462.61 951.09 1462.61 952.931 1415.55 952.931 1415.55 951.09Z" transform="matrix(1.00123 0 0 1 859.12 270.808)"/><text font-family="Times New Roman,Times New Roman_MSFontService,sans-serif" font-weight="400" font-size="13" transform="matrix(3.1268 0 0 3.12294 2327.23 1238)">H</text><path d="M1381.11 952.931 1332.93 952.931 1332.93 951.09 1332.93 949.249 1381.11 949.249 1381.11 951.09Z" transform="matrix(1.00123 0 0 1 859.12 270.808)"/><text font-family="Times New Roman,Times New Roman_MSFontService,sans-serif" font-weight="400" font-size="13" transform="matrix(3.1268 0 0 3.12294 2162.9 1238)">R</text><path d="M1396.49 930.943 1396.49 888.615 1398.33 888.615 1400.17 888.615 1400.17 930.943 1398.33 930.943Z" transform="matrix(1.00123 0 0 1 859.12 270.808)"/><text font-family="Times New Roman,Times New Roman_MSFontService,sans-serif" font-weight="400" font-size="13" transform="matrix(3.1268 0 0 3.12294 2244.5 1155)">O</text><text font-family="Times New Roman,Times New Roman_MSFontService,sans-serif" font-weight="400" font-size="13" transform="matrix(3.1268 0 0 3.12294 2272.64 1155)">H</text><text font-family="Times New Roman,Times New Roman_MSFontService,sans-serif" font-weight="400" font-size="13" transform="matrix(3.1268 0 0 3.12294 2809.7 1234)">C</text><path d="M1963.56 967.44 1963.56 1009.77 1961.72 1009.77 1959.88 1009.77 1959.88 967.44 1961.72 967.44Z" transform="matrix(1.00123 0 0 1 859.12 270.808)"/><text font-family="Times New Roman,Times New Roman_MSFontService,sans-serif" font-weight="400" font-size="13" transform="matrix(3.1268 0 0 3.12294 2809.7 1311)">C</text><text font-family="Times New Roman,Times New Roman_MSFontService,sans-serif" font-weight="400" font-size="13" transform="matrix(3.1268 0 0 3.12294 2834.72 1311)">H</text><text font-family="Times New Roman,Times New Roman_MSFontService,sans-serif" font-weight="400" font-size="8" transform="matrix(3.1268 0 0 3.12294 2862.86 1311)">2</text><text font-family="Times New Roman,Times New Roman_MSFontService,sans-serif" font-weight="400" font-size="13" transform="matrix(3.1268 0 0 3.12294 2875.37 1311)">N</text><text font-family="Times New Roman,Times New Roman_MSFontService,sans-serif" font-weight="400" font-size="13" transform="matrix(3.1268 0 0 3.12294 2903.51 1311)">H</text><text font-family="Times New Roman,Times New Roman_MSFontService,sans-serif" font-weight="400" font-size="8" transform="matrix(3.1268 0 0 3.12294 2931.65 1311)">2</text><path d="M1978.94 945.452 2026 945.452 2026 947.293 2026 949.134 1978.94 949.134 1978.94 947.293Z" transform="matrix(1.00123 0 0 1 859.12 270.808)"/><text font-family="Times New Roman,Times New Roman_MSFontService,sans-serif" font-weight="400" font-size="13" transform="matrix(3.1268 0 0 3.12294 2891.31 1234)">H</text><path d="M1944.5 949.134 1896.32 949.134 1896.32 947.293 1896.32 945.452 1944.5 945.452 1944.5 947.293Z" transform="matrix(1.00123 0 0 1 859.12 270.808)"/><text font-family="Times New Roman,Times New Roman_MSFontService,sans-serif" font-weight="400" font-size="13" transform="matrix(3.1268 0 0 3.12294 2726.98 1234)">R</text><path d="M1959.88 927.145 1959.88 884.818 1961.72 884.818 1963.56 884.818 1963.56 927.145 1961.72 927.145Z" transform="matrix(1.00123 0 0 1 859.12 270.808)"/><text font-family="Times New Roman,Times New Roman_MSFontService,sans-serif" font-weight="400" font-size="13" transform="matrix(3.1268 0 0 3.12294 2808.58 1151)">O</text><text font-family="Times New Roman,Times New Roman_MSFontService,sans-serif" font-weight="400" font-size="13" transform="matrix(3.1268 0 0 3.12294 2836.72 1151)">H</text><path d="M1008.71 951.09 1178.84 951.09" stroke="#000000" stroke-width="3.68262" fill="none" transform="matrix(1.00123 0 0 1 859.12 270.808)"/><path d="M1210.15 951.09 1173.32 941.884 1178.84 951.09 1173.32 960.297Z" transform="matrix(1.00123 0 0 1 859.12 270.808)"/><path d="M1585.67 951.09 1755.81 951.09" stroke="#000000" stroke-width="3.68262" fill="none" transform="matrix(1.00123 0 0 1 859.12 270.808)"/><path d="M1787.11 951.09 1750.28 941.884 1755.81 951.09 1750.28 960.297Z" transform="matrix(1.00123 0 0 1 859.12 270.808)"/><text font-family="Source Han Serif SC SemiBold,Source Han Serif SC SemiBold_MSFontService,sans-serif" font-weight="600" font-size="32" transform="matrix(1 0 0 1 2520.6 1202)">H</text><text font-family="Source Han Serif SC SemiBold,Source Han Serif SC SemiBold_MSFontService,sans-serif" font-weight="600" font-size="14" transform="matrix(1 0 0 1 2548.1 1202)">2</text><text font-family="Source Han Serif SC SemiBold,Source Han Serif SC SemiBold_MSFontService,sans-serif" font-weight="600" font-size="32" transform="matrix(1 0 0 1 2489.94 1267)">催化剂</text></g></svg>