<svg width="1720" height="161" xmlns="http://www.w3.org/2000/svg" xmlns:xlink="http://www.w3.org/1999/xlink" xml:space="preserve" overflow="hidden"><defs><clipPath id="clip0"><rect x="1340" y="1157" width="1720" height="161"/></clipPath></defs><g clip-path="url(#clip0)" transform="translate(-1340 -1157)"><text font-family="Times New Roman,Times New Roman_MSFontService,sans-serif" font-weight="400" font-size="13" transform="matrix(2.50306 0 0 2.51562 1493.67 1213)">C</text><text font-family="Times New Roman,Times New Roman_MSFontService,sans-serif" font-weight="400" font-size="13" transform="matrix(2.50306 0 0 2.51562 1513.7 1213)">H</text><text font-family="Times New Roman,Times New Roman_MSFontService,sans-serif" font-weight="400" font-size="8" transform="matrix(2.50306 0 0 2.51562 1536.22 1213)">2</text><text font-family="Times New Roman,Times New Roman_MSFontService,sans-serif" font-weight="400" font-size="13" transform="matrix(2.50306 0 0 2.51562 1546.24 1213)">C</text><text font-family="Times New Roman,Times New Roman_MSFontService,sans-serif" font-weight="400" font-size="13" transform="matrix(2.50306 0 0 2.51562 1566.26 1213)">O</text><text font-family="Times New Roman,Times New Roman_MSFontService,sans-serif" font-weight="400" font-size="13" transform="matrix(2.50306 0 0 2.51562 1588.79 1213)">O</text><text font-family="Times New Roman,Times New Roman_MSFontService,sans-serif" font-weight="400" font-size="13" transform="matrix(2.50306 0 0 2.51562 1611.32 1213)">H</text><path d="M65.0536 609.307 65.0536 643.233 63.5778 643.233 62.102 643.233 62.102 609.307 63.5778 609.307Z" transform="matrix(1 0 0 1.00502 1440.95 608.594)"/><text font-family="Times New Roman,Times New Roman_MSFontService,sans-serif" font-weight="400" font-size="13" transform="matrix(2.50306 0 0 2.51562 1492.78 1280)">N</text><text font-family="Times New Roman,Times New Roman_MSFontService,sans-serif" font-weight="400" font-size="13" transform="matrix(2.50306 0 0 2.51562 1515.3 1280)">H</text><text font-family="Times New Roman,Times New Roman_MSFontService,sans-serif" font-weight="400" font-size="8" transform="matrix(2.50306 0 0 2.51562 1537.83 1280)">2</text><text font-family="Times New Roman,Times New Roman_MSFontService,sans-serif" font-weight="400" font-size="13" transform="matrix(2.50306 0 0 2.51562 1822.74 1213)">C</text><text font-family="Times New Roman,Times New Roman_MSFontService,sans-serif" font-weight="400" font-size="13" transform="matrix(2.50306 0 0 2.51562 1842.76 1213)">H</text><text font-family="Times New Roman,Times New Roman_MSFontService,sans-serif" font-weight="400" font-size="8" transform="matrix(2.50306 0 0 2.51562 1865.29 1213)">3</text><text font-family="Times New Roman,Times New Roman_MSFontService,sans-serif" font-weight="400" font-size="13" transform="matrix(2.50306 0 0 2.51562 1875.3 1213)">C</text><text font-family="Times New Roman,Times New Roman_MSFontService,sans-serif" font-weight="400" font-size="13" transform="matrix(2.50306 0 0 2.51562 1895.33 1213)">H</text><text font-family="Times New Roman,Times New Roman_MSFontService,sans-serif" font-weight="400" font-size="13" transform="matrix(2.50306 0 0 2.51562 1917.86 1213)">C</text><text font-family="Times New Roman,Times New Roman_MSFontService,sans-serif" font-weight="400" font-size="13" transform="matrix(2.50306 0 0 2.51562 1937.88 1213)">O</text><text font-family="Times New Roman,Times New Roman_MSFontService,sans-serif" font-weight="400" font-size="13" transform="matrix(2.50306 0 0 2.51562 1960.41 1213)">O</text><text font-family="Times New Roman,Times New Roman_MSFontService,sans-serif" font-weight="400" font-size="13" transform="matrix(2.50306 0 0 2.51562 1982.94 1213)">H</text><path d="M450.888 608.949 450.888 645.394 449.412 645.394 447.936 645.394 447.936 608.949 449.412 608.949Z" transform="matrix(1 0 0 1.00502 1440.95 608.594)"/><text font-family="Times New Roman,Times New Roman_MSFontService,sans-serif" font-weight="400" font-size="13" transform="matrix(2.50306 0 0 2.51562 1878.61 1282)">N</text><text font-family="Times New Roman,Times New Roman_MSFontService,sans-serif" font-weight="400" font-size="13" transform="matrix(2.50306 0 0 2.51562 1901.14 1282)">H</text><text font-family="Times New Roman,Times New Roman_MSFontService,sans-serif" font-weight="400" font-size="8" transform="matrix(2.50306 0 0 2.51562 1923.67 1282)">2</text><text font-family="Times New Roman,Times New Roman_MSFontService,sans-serif" font-weight="400" font-size="13" transform="matrix(2.50306 0 0 2.51562 2803.38 1252)">(</text><text font-family="Times New Roman,Times New Roman_MSFontService,sans-serif" font-weight="400" font-size="13" transform="matrix(2.50306 0 0 2.51562 2813.39 1252)">2</text><text font-family="Times New Roman,Times New Roman_MSFontService,sans-serif" font-weight="400" font-size="13" transform="matrix(2.50306 0 0 2.51562 2828.41 1252)">n</text><text font-family="Times New Roman,Times New Roman_MSFontService,sans-serif" font-weight="400" font-size="13" transform="matrix(2.50306 0 0 2.51562 2845.93 1252)">-</text><text font-family="Times New Roman,Times New Roman_MSFontService,sans-serif" font-weight="400" font-size="13" transform="matrix(2.50306 0 0 2.51562 2855.94 1252)">1</text><text font-family="Times New Roman,Times New Roman_MSFontService,sans-serif" font-weight="400" font-size="13" transform="matrix(2.50306 0 0 2.51562 2870.96 1252)">) </text><text font-family="Times New Roman,Times New Roman_MSFontService,sans-serif" font-weight="400" font-size="13" transform="matrix(2.50306 0 0 2.51562 2888.48 1252)">H</text><text font-family="Times New Roman,Times New Roman_MSFontService,sans-serif" font-weight="400" font-size="8" transform="matrix(2.50306 0 0 2.51562 2911.01 1252)">2</text><text font-family="Times New Roman,Times New Roman_MSFontService,sans-serif" font-weight="400" font-size="13" transform="matrix(2.50306 0 0 2.51562 2921.02 1252)">O</text><path d="M588.328 626.15 752.447 626.15" stroke="#000000" stroke-width="2.95165" fill="none" transform="matrix(1 0 0 1.00502 1440.95 608.594)"/><path d="M613.417 635.005 777.536 635.005" stroke="#000000" stroke-width="2.95165" fill="none" transform="matrix(1 0 0 1.00502 1440.95 608.594)"/><path d="M588.328 633.529 617.845 642.384 613.417 633.529Z" transform="matrix(1 0 0 1.00502 1440.95 608.594)"/><path d="M777.536 627.626 748.02 618.771 752.447 627.626Z" transform="matrix(1 0 0 1.00502 1440.95 608.594)"/><text font-family="Times New Roman,Times New Roman_MSFontService,sans-serif" font-weight="400" font-size="13" transform="matrix(2.50306 0 0 2.51562 2744.14 1254)">+</text><text font-family="Times New Roman,Times New Roman_MSFontService,sans-serif" font-weight="400" font-size="13" transform="matrix(2.50306 0 0 2.51562 1442.9 1236)">n</text><text font-family="Times New Roman,Times New Roman_MSFontService,sans-serif" font-weight="400" font-size="13" transform="matrix(2.50306 0 0 2.51562 1772.71 1236)">n</text><text font-family="Times New Roman,Times New Roman_MSFontService,sans-serif" font-weight="400" font-size="13" transform="matrix(2.50306 0 0 2.51562 1688.25 1248)">+</text><path d="M986.632 632.382 1026.27 632.382 1026.27 633.858 1026.27 635.334 986.632 635.334 986.632 633.858Z" transform="matrix(1 0 0 1.00502 1440.95 608.594)"/><text font-family="Times New Roman,Times New Roman_MSFontService,sans-serif" font-weight="400" font-size="13" transform="matrix(2.50306 0 0 2.51562 2470.17 1232)">H</text><text font-family="Times New Roman,Times New Roman_MSFontService,sans-serif" font-weight="400" font-size="13" transform="matrix(2.50306 0 0 2.51562 2470.17 1261)">N</text><path d="M1055.67 632.382 1093.39 632.382 1093.39 633.858 1093.39 635.334 1055.67 635.334 1055.67 633.858Z" transform="matrix(1 0 0 1.00502 1440.95 608.594)"/><text font-family="Times New Roman,Times New Roman_MSFontService,sans-serif" font-weight="400" font-size="13" transform="matrix(2.50306 0 0 2.51562 2537.29 1258)">C</text><text font-family="Times New Roman,Times New Roman_MSFontService,sans-serif" font-weight="400" font-size="13" transform="matrix(2.50306 0 0 2.51562 2537.29 1288)">H</text><path d="M1121 632.382 1159.62 632.382 1159.62 633.858 1159.62 635.334 1121 635.334 1121 633.858Z" transform="matrix(1 0 0 1.00502 1440.95 608.594)"/><text font-family="Times New Roman,Times New Roman_MSFontService,sans-serif" font-weight="400" font-size="13" transform="matrix(2.50306 0 0 2.51562 2603.51 1258)">C</text><path d="M1105.71 617.71 1105.7 583.784 1107.18 583.784 1108.66 583.783 1108.67 617.709 1107.19 617.71Z" transform="matrix(1 0 0 1.00502 1440.95 608.594)"/><text font-family="Times New Roman,Times New Roman_MSFontService,sans-serif" font-weight="400" font-size="13" transform="matrix(2.50306 0 0 2.51562 2537.27 1188)">C</text><text font-family="Times New Roman,Times New Roman_MSFontService,sans-serif" font-weight="400" font-size="13" transform="matrix(2.50306 0 0 2.51562 2557.3 1188)">H</text><text font-family="Times New Roman,Times New Roman_MSFontService,sans-serif" font-weight="400" font-size="8" transform="matrix(2.50306 0 0 2.51562 2579.82 1188)">3</text><path d="M1187.22 632.382 1224.94 632.382 1224.94 633.858 1224.94 635.334 1187.22 635.334 1187.22 633.858Z" transform="matrix(1 0 0 1.00502 1440.95 608.594)"/><text font-family="Times New Roman,Times New Roman_MSFontService,sans-serif" font-weight="400" font-size="13" transform="matrix(2.50306 0 0 2.51562 2668.84 1258)">O</text><text font-family="Times New Roman,Times New Roman_MSFontService,sans-serif" font-weight="400" font-size="13" transform="matrix(2.50306 0 0 2.51562 2691.37 1258)">H</text><path d="M1167.97 617.71 1167.97 583.784 1169.44 583.784 1170.92 583.784 1170.92 617.71 1169.44 617.71Z" transform="matrix(1 0 0 1.00502 1440.95 608.594)"/><path d="M1175.92 617.71 1175.92 583.784 1177.39 583.784 1178.87 583.784 1178.87 617.71 1177.39 617.71Z" transform="matrix(1 0 0 1.00502 1440.95 608.594)"/><text font-family="Times New Roman,Times New Roman_MSFontService,sans-serif" font-weight="400" font-size="13" transform="matrix(2.50306 0 0 2.51562 2602.62 1192)">O</text><text font-family="Times New Roman,Times New Roman_MSFontService,sans-serif" font-weight="400" font-size="13" transform="matrix(2.50306 0 0 2.51562 2404.09 1183)">O</text><path d="M980.338 575.014 980.338 620.054 978.862 620.054 977.386 620.054 977.386 575.014 978.862 575.014Z" transform="matrix(1 0 0 1.00502 1440.95 608.594)"/><path d="M972.391 575.014 972.391 620.054 970.915 620.054 969.439 620.054 969.439 575.014 970.915 575.014Z" transform="matrix(1 0 0 1.00502 1440.95 608.594)"/><text font-family="Times New Roman,Times New Roman_MSFontService,sans-serif" font-weight="400" font-size="13" transform="matrix(2.50306 0 0 2.51562 2299.75 1253)">N</text><text font-family="Times New Roman,Times New Roman_MSFontService,sans-serif" font-weight="400" font-size="13" transform="matrix(2.50306 0 0 2.51562 2322.28 1253)">H</text><text font-family="Times New Roman,Times New Roman_MSFontService,sans-serif" font-weight="400" font-size="13" transform="matrix(2.50306 0 0 2.51562 2344.8 1253)">C</text><text font-family="Times New Roman,Times New Roman_MSFontService,sans-serif" font-weight="400" font-size="13" transform="matrix(2.50306 0 0 2.51562 2364.83 1253)">H</text><text font-family="Times New Roman,Times New Roman_MSFontService,sans-serif" font-weight="400" font-size="8" transform="matrix(2.50306 0 0 2.51562 2387.35 1253)">2</text><text font-family="Times New Roman,Times New Roman_MSFontService,sans-serif" font-weight="400" font-size="13" transform="matrix(2.50306 0 0 2.51562 2397.37 1253)">C</text><text font-family="Times New Roman,Times New Roman_MSFontService,sans-serif" font-weight="400" font-size="13" transform="matrix(2.50306 0 0 2.51562 2232.67 1257)">H</text><path d="M818.174 630.584 855.68 630.584 855.68 632.06 855.68 633.536 818.174 633.536 818.174 632.06Z" transform="matrix(1 0 0 1.00502 1440.95 608.594)"/><text font-family="Times New Roman,Times New Roman_MSFontService,sans-serif" font-weight="400" font-size="13" transform="matrix(2.50306 0 0 2.51562 2657.14 1283)">n</text><path d="M831.1 607.326 838.082 607.326" stroke="#000000" stroke-width="2.95165" fill="none" transform="matrix(1 0 0 1.00502 1440.95 608.594)"/><path d="M832.576 607.326 832.576 662.393" stroke="#000000" stroke-width="2.95165" fill="none" transform="matrix(1 0 0 1.00502 1440.95 608.594)"/><path d="M831.1 662.393 838.082 662.393" stroke="#000000" stroke-width="2.95165" fill="none" transform="matrix(1 0 0 1.00502 1440.95 608.594)"/><path d="M1209.51 607.326 1202.53 607.326" stroke="#000000" stroke-width="2.95165" fill="none" transform="matrix(1 0 0 1.00502 1440.95 608.594)"/><path d="M1208.04 607.326 1208.04 662.393" stroke="#000000" stroke-width="2.95165" fill="none" transform="matrix(1 0 0 1.00502 1440.95 608.594)"/><path d="M1209.51 662.393 1202.53 662.393" stroke="#000000" stroke-width="2.95165" fill="none" transform="matrix(1 0 0 1.00502 1440.95 608.594)"/><text font-family="Source Han Serif SC SemiBold,Source Han Serif SC SemiBold_MSFontService,sans-serif" font-weight="600" font-size="32" transform="matrix(1 0 0 1 2051.43 1214)">一定条件</text></g></svg>