<?xml version="1.0" standalone='no'?><!-- IBoard SVG File --><svg xmlns="http://www.w3.org/2000/svg" xmlns:xlink="http://www.w3.org/1999/xlink" viewBox="226.50 210.54 91.48 74.25" height="67.25" width="98.48" version="1.1"><!-- SVG File --><polygon points="231.584290,229.093155 255.086060,215.524414 255.086060,216.205231 255.086060,216.886047 232.763489,229.774002 232.173889,229.433578 " style="fill:rgb(0,0,0);fill-opacity:1.000000"/><polygon points="255.086060,215.524414 277.998108,228.752670 277.998230,229.433578 277.408630,229.774002 255.086060,216.886047 255.086060,216.205231 " style="fill:rgb(0,0,0);fill-opacity:1.000000"/><polygon points="255.380859,219.360565 275.118225,230.755936 274.823425,231.266556 274.528625,231.777176 254.791260,220.381805 255.086060,219.871185 " style="fill:rgb(0,0,0);fill-opacity:1.000000"/><polygon points="278.587830,229.773849 278.587830,256.230713 277.998230,255.890289 277.408630,255.549866 277.408630,229.774002 277.998230,229.433578 " style="fill:rgb(0,0,0);fill-opacity:1.000000"/><polygon points="278.587830,256.230713 255.086044,269.799438 255.086044,269.118622 255.086044,268.437805 277.408630,255.549866 277.998230,255.890289 " style="fill:rgb(0,0,0);fill-opacity:1.000000"/><polygon points="275.118225,254.567932 255.380844,265.963287 255.086044,265.452667 254.791245,264.942047 274.528625,253.546692 274.823425,254.057312 " style="fill:rgb(0,0,0);fill-opacity:1.000000"/><polygon points="255.086044,269.799438 231.584290,256.230682 232.173889,255.890259 232.763489,255.549835 255.086044,268.437805 255.086044,269.118622 " style="fill:rgb(0,0,0);fill-opacity:1.000000"/><polygon points="231.584290,256.230682 231.584290,229.093155 232.173889,229.433578 232.763489,229.774002 232.763489,255.549835 232.173889,255.890259 " style="fill:rgb(0,0,0);fill-opacity:1.000000"/><polygon points="234.759094,254.057281 234.759094,231.266556 235.348694,231.266556 235.938293,231.266556 235.938293,254.057281 235.348694,254.057281 " style="fill:rgb(0,0,0);fill-opacity:1.000000"/><polygon points="277.998108,228.752670 294.737640,219.079285 295.032654,219.589783 295.327667,220.100281 278.587830,229.773849 277.998230,229.433578 " style="fill:rgb(0,0,0);fill-opacity:1.000000"/><text xml:space="preserve" x="296.211853" y="221.310379" textLength="18.773333" lengthAdjust="spacingAndGlyphs"><tspan font-family="Times New Roman" font-weight="normal" baseline-shift="0" font-size="13" fill="#000000">O</tspan><tspan font-family="Times New Roman" font-weight="normal" baseline-shift="0" font-size="13" fill="#000000">H</tspan></text></svg>