<svg width="1720" height="197" xmlns="http://www.w3.org/2000/svg" xmlns:xlink="http://www.w3.org/1999/xlink" xml:space="preserve" overflow="hidden"><defs><clipPath id="clip0"><rect x="1340" y="1139" width="1720" height="197"/></clipPath></defs><g clip-path="url(#clip0)" transform="translate(-1340 -1139)"><text font-family="Times New Roman,Times New Roman_MSFontService,sans-serif" font-weight="400" font-size="13" transform="matrix(3.36491 0 0 3.37792 1514.41 1263)">H</text><text font-family="Times New Roman,Times New Roman_MSFontService,sans-serif" font-weight="400" font-size="8" transform="matrix(3.36491 0 0 3.37792 1544.69 1263)">2</text><text font-family="Times New Roman,Times New Roman_MSFontService,sans-serif" font-weight="400" font-size="13" transform="matrix(3.36491 0 0 3.37792 1558.15 1263)">N</text><text font-family="Times New Roman,Times New Roman_MSFontService,sans-serif" font-weight="400" font-size="13" transform="matrix(3.36491 0 0 3.37792 1588.44 1263)">(</text><text font-family="Times New Roman,Times New Roman_MSFontService,sans-serif" font-weight="400" font-size="13" transform="matrix(3.36491 0 0 3.37792 1601.9 1263)">C</text><text font-family="Times New Roman,Times New Roman_MSFontService,sans-serif" font-weight="400" font-size="13" transform="matrix(3.36491 0 0 3.37792 1628.82 1263)">H</text><text font-family="Times New Roman,Times New Roman_MSFontService,sans-serif" font-weight="400" font-size="8" transform="matrix(3.36491 0 0 3.37792 1659.1 1263)">2</text><text font-family="Times New Roman,Times New Roman_MSFontService,sans-serif" font-weight="400" font-size="13" transform="matrix(3.36491 0 0 3.37792 1672.56 1263)">)</text><text font-family="Times New Roman,Times New Roman_MSFontService,sans-serif" font-weight="400" font-size="8" transform="matrix(3.36491 0 0 3.37792 1686.02 1263)">5</text><text font-family="Times New Roman,Times New Roman_MSFontService,sans-serif" font-weight="400" font-size="13" transform="matrix(3.36491 0 0 3.37792 1699.48 1263)">C</text><text font-family="Times New Roman,Times New Roman_MSFontService,sans-serif" font-weight="400" font-size="13" transform="matrix(3.36491 0 0 3.37792 1726.4 1263)">O</text><text font-family="Times New Roman,Times New Roman_MSFontService,sans-serif" font-weight="400" font-size="13" transform="matrix(3.36491 0 0 3.37792 1756.68 1263)">O</text><text font-family="Times New Roman,Times New Roman_MSFontService,sans-serif" font-weight="400" font-size="13" transform="matrix(3.36491 0 0 3.37792 1786.97 1263)">H</text><text font-family="Times New Roman,Times New Roman_MSFontService,sans-serif" font-weight="400" font-size="13" transform="matrix(3.36491 0 0 3.37792 2559.48 1265)">O</text><text font-family="Times New Roman,Times New Roman_MSFontService,sans-serif" font-weight="400" font-size="13" transform="matrix(3.36491 0 0 3.37792 2589.76 1265)">H</text><text font-family="Times New Roman,Times New Roman_MSFontService,sans-serif" font-weight="400" font-size="13" transform="matrix(3.36491 0 0 3.37792 2293.55 1260)">N</text><text font-family="Times New Roman,Times New Roman_MSFontService,sans-serif" font-weight="400" font-size="13" transform="matrix(3.36491 0 0 3.37792 2323.83 1260)">H</text><text font-family="Times New Roman,Times New Roman_MSFontService,sans-serif" font-weight="400" font-size="13" transform="matrix(3.36491 0 0 3.37792 2354.12 1260)">(</text><text font-family="Times New Roman,Times New Roman_MSFontService,sans-serif" font-weight="400" font-size="13" transform="matrix(3.36491 0 0 3.37792 2367.58 1260)">C</text><text font-family="Times New Roman,Times New Roman_MSFontService,sans-serif" font-weight="400" font-size="13" transform="matrix(3.36491 0 0 3.37792 2394.5 1260)">H</text><text font-family="Times New Roman,Times New Roman_MSFontService,sans-serif" font-weight="400" font-size="8" transform="matrix(3.36491 0 0 3.37792 2424.78 1260)">2</text><text font-family="Times New Roman,Times New Roman_MSFontService,sans-serif" font-weight="400" font-size="13" transform="matrix(3.36491 0 0 3.37792 2438.24 1260)">)</text><text font-family="Times New Roman,Times New Roman_MSFontService,sans-serif" font-weight="400" font-size="8" transform="matrix(3.36491 0 0 3.37792 2451.7 1260)">5</text><text font-family="Times New Roman,Times New Roman_MSFontService,sans-serif" font-weight="400" font-size="13" transform="matrix(3.36491 0 0 3.37792 2465.16 1260)">C</text><path d="M2646.37 1675.85 2695.87 1675.85 2695.87 1677.83 2695.87 1679.82 2646.37 1679.82 2646.37 1677.83Z" transform="matrix(1 0 0 1.00387 -140.363 -437.07)"/><text font-family="Times New Roman,Times New Roman_MSFontService,sans-serif" font-weight="400" font-size="13" transform="matrix(3.36491 0 0 3.37792 2212.7 1268)">H</text><path d="M2388.6 1678.99 2428.92 1678.54 2428.94 1680.53 2428.97 1682.51 2388.64 1682.96 2388.62 1680.98Z" transform="matrix(1 0 0 1.00387 -140.363 -437.07)"/><text font-family="Times New Roman,Times New Roman_MSFontService,sans-serif" font-weight="400" font-size="13" transform="matrix(3.36491 0 0 3.37792 2542.64 1292)">n</text><path d="M2405.91 1648.22 2414.42 1648.22" stroke="#000000" stroke-width="3.96795" fill="none" transform="matrix(1 0 0 1.00387 -140.363 -437.07)"/><path d="M2407.89 1648.22 2407.89 1713.5" stroke="#000000" stroke-width="3.96795" fill="none" transform="matrix(1 0 0 1.00387 -140.363 -437.07)"/><path d="M2405.91 1713.5 2414.42 1713.5" stroke="#000000" stroke-width="3.96795" fill="none" transform="matrix(1 0 0 1.00387 -140.363 -437.07)"/><path d="M2675.7 1648.22 2667.19 1648.22" stroke="#000000" stroke-width="3.96795" fill="none" transform="matrix(1 0 0 1.00387 -140.363 -437.07)"/><path d="M2673.72 1648.22 2673.72 1713.5" stroke="#000000" stroke-width="3.96795" fill="none" transform="matrix(1 0 0 1.00387 -140.363 -437.07)"/><path d="M2675.7 1713.5 2667.19 1713.5" stroke="#000000" stroke-width="3.96795" fill="none" transform="matrix(1 0 0 1.00387 -140.363 -437.07)"/><path d="M2622.95 1657.37 2622.95 1609.43 2624.94 1609.43 2626.92 1609.43 2626.92 1657.37 2624.94 1657.37Z" transform="matrix(1 0 0 1.00387 -140.363 -437.07)"/><path d="M2633.64 1657.37 2633.64 1609.43 2635.62 1609.43 2637.61 1609.43 2637.61 1657.37 2635.62 1657.37Z" transform="matrix(1 0 0 1.00387 -140.363 -437.07)"/><text font-family="Times New Roman,Times New Roman_MSFontService,sans-serif" font-weight="400" font-size="13" transform="matrix(3.36491 0 0 3.37792 2474.12 1174)">O</text><text font-family="Times New Roman,Times New Roman_MSFontService,sans-serif" font-weight="400" font-size="13" transform="matrix(3.36491 0 0 3.37792 2755.9 1256)">(</text><text font-family="Times New Roman,Times New Roman_MSFontService,sans-serif" font-weight="400" font-size="13" transform="matrix(3.36491 0 0 3.37792 2769.35 1256)">n</text><text font-family="Times New Roman,Times New Roman_MSFontService,sans-serif" font-weight="400" font-size="13" transform="matrix(3.36491 0 0 3.37792 2792.91 1256)">-</text><text font-family="Times New Roman,Times New Roman_MSFontService,sans-serif" font-weight="400" font-size="13" transform="matrix(3.36491 0 0 3.37792 2806.37 1256)">1</text><text font-family="Times New Roman,Times New Roman_MSFontService,sans-serif" font-weight="400" font-size="13" transform="matrix(3.36491 0 0 3.37792 2826.56 1256)">) </text><text font-family="Times New Roman,Times New Roman_MSFontService,sans-serif" font-weight="400" font-size="13" transform="matrix(3.36491 0 0 3.37792 2850.11 1256)">H</text><text font-family="Times New Roman,Times New Roman_MSFontService,sans-serif" font-weight="400" font-size="8" transform="matrix(3.36491 0 0 3.37792 2880.4 1256)">2</text><text font-family="Times New Roman,Times New Roman_MSFontService,sans-serif" font-weight="400" font-size="13" transform="matrix(3.36491 0 0 3.37792 2893.86 1256)">O</text><path d="M2017.14 1678.17 2237.76 1678.17" stroke="#000000" stroke-width="3.96795" fill="none" transform="matrix(1 0 0 1.00387 -140.363 -437.07)"/><path d="M2050.86 1690.07 2271.49 1690.07" stroke="#000000" stroke-width="3.96795" fill="none" transform="matrix(1 0 0 1.00387 -140.363 -437.07)"/><path d="M2017.14 1688.09 2056.81 1699.99 2050.86 1688.09Z" transform="matrix(1 0 0 1.00387 -140.363 -437.07)"/><path d="M2271.49 1680.15 2231.81 1668.25 2237.76 1680.15Z" transform="matrix(1 0 0 1.00387 -140.363 -437.07)"/><text font-family="Times New Roman,Times New Roman_MSFontService,sans-serif" font-weight="400" font-size="13" transform="matrix(3.36491 0 0 3.37792 2666.16 1261)">+</text><text font-family="Times New Roman,Times New Roman_MSFontService,sans-serif" font-weight="400" font-size="13" transform="matrix(3.36491 0 0 3.37792 1459.32 1266)">n</text><text font-family="Source Han Serif SC SemiBold,Source Han Serif SC SemiBold_MSFontService,sans-serif" font-weight="600" font-size="32" transform="matrix(1 0 0 1 1926.65 1227)">一定条件</text></g></svg>