<svg width="1468" height="237" xmlns="http://www.w3.org/2000/svg" xmlns:xlink="http://www.w3.org/1999/xlink" xml:space="preserve" overflow="hidden"><defs><clipPath id="clip0"><rect x="1466" y="1119" width="1468" height="237"/></clipPath></defs><g clip-path="url(#clip0)" transform="translate(-1466 -1119)"><text font-family="Times New Roman,Times New Roman_MSFontService,sans-serif" font-weight="400" font-size="13" transform="matrix(3.12581 0 0 3.12294 1605.49 1202)">C</text><text font-family="Times New Roman,Times New Roman_MSFontService,sans-serif" font-weight="400" font-size="13" transform="matrix(3.12581 0 0 3.12294 1630.5 1202)">H</text><text font-family="Times New Roman,Times New Roman_MSFontService,sans-serif" font-weight="400" font-size="8" transform="matrix(3.12581 0 0 3.12294 1658.63 1202)">3</text><text font-family="Times New Roman,Times New Roman_MSFontService,sans-serif" font-weight="400" font-size="13" transform="matrix(3.12581 0 0 3.12294 1671.13 1202)">C</text><text font-family="Times New Roman,Times New Roman_MSFontService,sans-serif" font-weight="400" font-size="13" transform="matrix(3.12581 0 0 3.12294 1696.14 1202)">H</text><text font-family="Times New Roman,Times New Roman_MSFontService,sans-serif" font-weight="400" font-size="13" transform="matrix(3.12581 0 0 3.12294 1724.27 1202)">C</text><text font-family="Times New Roman,Times New Roman_MSFontService,sans-serif" font-weight="400" font-size="13" transform="matrix(3.12581 0 0 3.12294 1749.28 1202)">O</text><text font-family="Times New Roman,Times New Roman_MSFontService,sans-serif" font-weight="400" font-size="13" transform="matrix(3.12581 0 0 3.12294 1777.41 1202)">O</text><text font-family="Times New Roman,Times New Roman_MSFontService,sans-serif" font-weight="400" font-size="13" transform="matrix(3.12581 0 0 3.12294 1805.54 1202)">H</text><path d="M524.831 844.205 524.831 885.694 522.989 885.694 521.148 885.694 521.148 844.205 522.989 844.205Z" transform="matrix(1.00092 0 0 1 1164.97 366.933)"/><text font-family="Times New Roman,Times New Roman_MSFontService,sans-serif" font-weight="400" font-size="13" transform="matrix(3.12581 0 0 3.12294 1673.77 1289)">O</text><text font-family="Times New Roman,Times New Roman_MSFontService,sans-serif" font-weight="400" font-size="13" transform="matrix(3.12581 0 0 3.12294 1701.9 1289)">H</text><path d="M747.217 849.424 951.98 849.424" stroke="#000000" stroke-width="3.68262" fill="none" transform="matrix(1.00092 0 0 1 1164.97 366.933)"/><path d="M778.519 860.471 983.282 860.471" stroke="#000000" stroke-width="3.68262" fill="none" transform="matrix(1.00092 0 0 1 1164.97 366.933)"/><path d="M747.217 858.63 784.043 869.678 778.519 858.63Z" transform="matrix(1.00092 0 0 1 1164.97 366.933)"/><path d="M983.282 851.265 946.456 840.217 951.98 851.265Z" transform="matrix(1.00092 0 0 1 1164.97 366.933)"/><text font-family="Times New Roman,Times New Roman_MSFontService,sans-serif" font-weight="400" font-size="13" transform="matrix(3.12581 0 0 3.12294 2265.32 1234)">O</text><path d="M1132.34 849.309 1179.4 849.309 1179.4 851.15 1179.4 852.992 1132.34 852.992 1132.34 851.15Z" transform="matrix(1.00092 0 0 1 1164.97 366.933)"/><text font-family="Times New Roman,Times New Roman_MSFontService,sans-serif" font-weight="400" font-size="13" transform="matrix(3.12581 0 0 3.12294 2349.14 1201)">H</text><text font-family="Times New Roman,Times New Roman_MSFontService,sans-serif" font-weight="400" font-size="13" transform="matrix(3.12581 0 0 3.12294 2349.14 1238)">C</text><path d="M1095.66 852.992 1049.72 852.992 1049.72 851.15 1049.72 849.309 1095.66 849.309 1095.66 851.15Z" transform="matrix(1.00092 0 0 1 1164.97 366.933)"/><text font-family="Times New Roman,Times New Roman_MSFontService,sans-serif" font-weight="400" font-size="13" transform="matrix(3.12581 0 0 3.12294 2182.62 1234)">H</text><path d="M1213.84 849.309 1262.03 849.309 1262.03 851.15 1262.03 852.992 1213.84 852.992 1213.84 851.15Z" transform="matrix(1.00092 0 0 1 1164.97 366.933)"/><text font-family="Times New Roman,Times New Roman_MSFontService,sans-serif" font-weight="400" font-size="13" transform="matrix(3.12581 0 0 3.12294 2431.84 1234)">C</text><path d="M1198.47 871.298 1198.47 913.626 1196.62 913.626 1194.78 913.626 1194.78 871.298 1196.62 871.298Z" transform="matrix(1.00092 0 0 1 1164.97 366.933)"/><text font-family="Times New Roman,Times New Roman_MSFontService,sans-serif" font-weight="400" font-size="13" transform="matrix(3.12581 0 0 3.12294 2349.14 1311)">C</text><text font-family="Times New Roman,Times New Roman_MSFontService,sans-serif" font-weight="400" font-size="13" transform="matrix(3.12581 0 0 3.12294 2374.14 1311)">H</text><text font-family="Times New Roman,Times New Roman_MSFontService,sans-serif" font-weight="400" font-size="8" transform="matrix(3.12581 0 0 3.12294 2402.28 1311)">3</text><path d="M1272.45 831.003 1272.45 788.675 1274.29 788.675 1276.13 788.675 1276.13 831.003 1274.29 831.003Z" transform="matrix(1.00092 0 0 1 1164.97 366.933)"/><path d="M1282.36 831.003 1282.36 788.675 1284.2 788.675 1286.05 788.675 1286.05 831.003 1284.2 831.003Z" transform="matrix(1.00092 0 0 1 1164.97 366.933)"/><text font-family="Times New Roman,Times New Roman_MSFontService,sans-serif" font-weight="400" font-size="13" transform="matrix(3.12581 0 0 3.12294 2430.72 1151)">O</text><path d="M1296.47 849.309 1343.53 849.309 1343.53 851.15 1343.53 852.992 1296.47 852.992 1296.47 851.15Z" transform="matrix(1.00092 0 0 1 1164.97 366.933)"/><text font-family="Times New Roman,Times New Roman_MSFontService,sans-serif" font-weight="400" font-size="13" transform="matrix(3.12581 0 0 3.12294 2513.42 1234)">O</text><text font-family="Times New Roman,Times New Roman_MSFontService,sans-serif" font-weight="400" font-size="13" transform="matrix(3.12581 0 0 3.12294 2541.55 1234)">H</text><text font-family="Times New Roman,Times New Roman_MSFontService,sans-serif" font-weight="400" font-size="13" transform="matrix(3.12581 0 0 3.12294 2493.04 1258)">n</text><path d="M1070.94 824.918 1078.28 824.918" stroke="#000000" stroke-width="3.68262" fill="none" transform="matrix(1.00092 0 0 1 1164.97 366.933)"/><path d="M1072.78 824.918 1072.78 879.881" stroke="#000000" stroke-width="3.68262" fill="none" transform="matrix(1.00092 0 0 1 1164.97 366.933)"/><path d="M1070.94 879.881 1078.28 879.881" stroke="#000000" stroke-width="3.68262" fill="none" transform="matrix(1.00092 0 0 1 1164.97 366.933)"/><path d="M1323.21 824.918 1315.87 824.918" stroke="#000000" stroke-width="3.68262" fill="none" transform="matrix(1.00092 0 0 1 1164.97 366.933)"/><path d="M1321.36 824.918 1321.36 879.881" stroke="#000000" stroke-width="3.68262" fill="none" transform="matrix(1.00092 0 0 1 1164.97 366.933)"/><path d="M1323.21 879.881 1315.87 879.881" stroke="#000000" stroke-width="3.68262" fill="none" transform="matrix(1.00092 0 0 1 1164.97 366.933)"/><text font-family="Times New Roman,Times New Roman_MSFontService,sans-serif" font-weight="400" font-size="13" transform="matrix(3.12581 0 0 3.12294 2684.32 1222)">(</text><text font-family="Times New Roman,Times New Roman_MSFontService,sans-serif" font-weight="400" font-size="13" transform="matrix(3.12581 0 0 3.12294 2696.82 1222)">n</text><text font-family="Times New Roman,Times New Roman_MSFontService,sans-serif" font-weight="400" font-size="13" transform="matrix(3.12581 0 0 3.12294 2718.7 1222)">-</text><text font-family="Times New Roman,Times New Roman_MSFontService,sans-serif" font-weight="400" font-size="13" transform="matrix(3.12581 0 0 3.12294 2731.21 1222)">1</text><text font-family="Times New Roman,Times New Roman_MSFontService,sans-serif" font-weight="400" font-size="13" transform="matrix(3.12581 0 0 3.12294 2749.96 1222)">) </text><text font-family="Times New Roman,Times New Roman_MSFontService,sans-serif" font-weight="400" font-size="13" transform="matrix(3.12581 0 0 3.12294 2771.84 1222)">H</text><text font-family="Times New Roman,Times New Roman_MSFontService,sans-serif" font-weight="400" font-size="8" transform="matrix(3.12581 0 0 3.12294 2799.97 1222)">2</text><text font-family="Times New Roman,Times New Roman_MSFontService,sans-serif" font-weight="400" font-size="13" transform="matrix(3.12581 0 0 3.12294 2812.48 1222)">O</text><text font-family="Times New Roman,Times New Roman_MSFontService,sans-serif" font-weight="400" font-size="13" transform="matrix(3.12581 0 0 3.12294 2616.38 1233)">+</text><text font-family="Times New Roman,Times New Roman_MSFontService,sans-serif" font-weight="400" font-size="13" transform="matrix(3.12581 0 0 3.12294 1544.02 1231)">n</text><text font-family="Times New Roman,Times New Roman_MSFontService,sans-serif" font-weight="400" font-size="13" transform="matrix(3.12581 0 0 3.12294 2009.46 1286)">H</text><text font-family="Times New Roman,Times New Roman_MSFontService,sans-serif" font-weight="400" font-size="8" transform="matrix(3.12581 0 0 3.12294 2037.59 1286)">+</text><text font-family="Source Han Serif SC SemiBold,Source Han Serif SC SemiBold_MSFontService,sans-serif" font-weight="600" font-size="37" transform="matrix(1 0 0 1 1970.37 1189)">催化剂</text></g></svg>