<?xml version="1.0" standalone='no'?><!-- IBoard SVG File --><svg xmlns="http://www.w3.org/2000/svg" xmlns:xlink="http://www.w3.org/1999/xlink" viewBox="177.27 164.45 287.32 135.11" height="128.11" width="294.32" version="1.1"><!-- SVG File --><polygon points="217.470840,214.954285 230.358780,192.631699 231.039597,192.631699 231.380020,193.221298 218.492081,215.543884 217.811264,215.543884 " style="fill:rgb(0,0,0);fill-opacity:1.000000"/><polygon points="217.470840,216.133484 197.227066,216.133484 197.227066,215.543884 197.227066,214.954285 217.470840,214.954285 217.811264,215.543884 " style="fill:rgb(0,0,0);fill-opacity:1.000000"/><text xml:space="preserve" x="177.274521" y="220.658081" textLength="18.773333" lengthAdjust="spacingAndGlyphs"><tspan font-family="Times New Roman" font-weight="normal" baseline-shift="0" font-size="13" fill="#000000">H</tspan><tspan font-family="Times New Roman" font-weight="normal" baseline-shift="0" font-size="13" fill="#000000">O</tspan></text><polygon points="218.492081,215.543884 231.380020,237.866455 231.039597,238.456055 230.358780,238.456055 217.470840,216.133484 217.811264,215.543884 " style="fill:rgb(0,0,0);fill-opacity:1.000000"/><polygon points="216.488907,218.423889 227.884262,238.161255 227.373642,238.456055 226.863022,238.750854 215.467667,219.013489 215.978287,218.718689 " style="fill:rgb(0,0,0);fill-opacity:1.000000"/><polygon points="231.380020,237.866455 257.155853,237.866455 257.496277,238.456055 257.836700,239.045654 231.380020,239.045654 231.039597,238.456055 " style="fill:rgb(0,0,0);fill-opacity:1.000000"/><polygon points="255.152679,234.986450 266.548096,215.249084 267.058716,215.543884 267.569336,215.838684 256.173920,235.576050 255.663300,235.281250 " style="fill:rgb(0,0,0);fill-opacity:1.000000"/><polygon points="257.155853,237.866455 270.043823,215.543884 270.724640,215.543884 271.065063,216.133484 257.836700,239.045654 257.496277,238.456055 " style="fill:rgb(0,0,0);fill-opacity:1.000000"/><polygon points="257.836700,192.042099 271.065063,214.954285 270.724640,215.543884 270.043823,215.543884 257.155853,193.221298 257.496277,192.631699 " style="fill:rgb(0,0,0);fill-opacity:1.000000"/><polygon points="231.380020,192.042099 257.836700,192.042099 257.496277,192.631699 257.155853,193.221298 231.380020,193.221298 231.039597,192.631699 " style="fill:rgb(0,0,0);fill-opacity:1.000000"/><polygon points="232.872574,195.216904 255.663300,195.216904 255.663300,195.806503 255.663300,196.396103 232.872574,196.396103 232.872574,195.806503 " style="fill:rgb(0,0,0);fill-opacity:1.000000"/><polygon points="271.065063,214.954285 291.308807,214.954285 291.308807,215.543884 291.308807,216.133484 271.065063,216.133484 270.724640,215.543884 " style="fill:rgb(0,0,0);fill-opacity:1.000000"/><text xml:space="preserve" x="292.488007" y="220.658081" textLength="9.386666" lengthAdjust="spacingAndGlyphs"><tspan font-family="Times New Roman" font-weight="normal" baseline-shift="0" font-size="13" fill="#000000">O</tspan></text><polygon points="306.174286,232.299393 300.395477,222.290146 300.906097,221.995346 301.416718,221.700546 307.195526,231.709793 306.684906,232.004593 " style="fill:rgb(0,0,0);fill-opacity:1.000000"/><text xml:space="preserve" x="306.074677" y="243.570251" textLength="8.670000" lengthAdjust="spacingAndGlyphs"><tspan font-family="Times New Roman" font-weight="normal" baseline-shift="0" font-size="13" fill="#000000">C</tspan></text><polygon points="336.525940,239.045654 315.923889,239.045654 315.923889,238.456055 315.923889,237.866455 336.525940,237.866455 336.866364,238.456055 " style="fill:rgb(0,0,0);fill-opacity:1.000000"/><polygon points="337.547180,238.456055 350.435150,260.778625 350.094727,261.368225 349.754303,261.957825 336.525940,239.045654 336.866364,238.456055 " style="fill:rgb(0,0,0);fill-opacity:1.000000"/><polygon points="351.927704,257.603821 374.718414,257.603821 374.718414,258.193420 374.718414,258.783020 351.927704,258.783020 351.927704,258.193420 " style="fill:rgb(0,0,0);fill-opacity:1.000000"/><polygon points="350.435150,260.778625 376.210968,260.778625 376.551392,261.368225 376.210968,261.957825 349.754303,261.957825 350.094727,261.368225 " style="fill:rgb(0,0,0);fill-opacity:1.000000"/><polygon points="376.210968,260.778625 389.098938,238.456055 389.779755,238.456055 390.120178,239.045654 377.232208,261.368225 376.551392,261.368225 " style="fill:rgb(0,0,0);fill-opacity:1.000000"/><polygon points="390.120178,237.866455 416.576874,237.866455 416.236450,238.456055 415.896027,239.045654 390.120178,239.045654 389.779755,238.456055 " style="fill:rgb(0,0,0);fill-opacity:1.000000"/><polygon points="416.576874,237.866455 429.805206,260.778625 429.464783,261.368225 429.124359,261.957825 415.896027,239.045654 416.236450,238.456055 " style="fill:rgb(0,0,0);fill-opacity:1.000000"/><polygon points="431.297760,257.603821 455.921478,257.603821 455.921478,258.193420 455.921478,258.783020 431.297760,258.783020 431.297760,258.193420 " style="fill:rgb(0,0,0);fill-opacity:1.000000"/><polygon points="429.805206,260.778625 455.921478,260.778625 455.921478,261.368225 455.921478,261.957825 429.124359,261.957825 429.464783,261.368225 " style="fill:rgb(0,0,0);fill-opacity:1.000000"/><polygon points="376.891815,214.954285 390.120178,237.866455 389.779755,238.456055 389.098938,238.456055 376.210968,216.133484 376.551392,215.543884 " style="fill:rgb(0,0,0);fill-opacity:1.000000"/><polygon points="375.229034,218.423874 386.624451,238.161255 386.113831,238.456055 385.603210,238.750854 374.207794,219.013474 374.718414,218.718674 " style="fill:rgb(0,0,0);fill-opacity:1.000000"/><polygon points="349.754303,214.954285 376.891815,214.954285 376.551392,215.543884 376.210968,216.133484 350.435150,216.133484 350.094727,215.543884 " style="fill:rgb(0,0,0);fill-opacity:1.000000"/><polygon points="336.525940,237.866455 349.754303,214.954285 350.094727,215.543884 350.435150,216.133484 337.547180,238.456055 336.866364,238.456055 " style="fill:rgb(0,0,0);fill-opacity:1.000000"/><polygon points="340.021667,238.161255 351.417084,218.423874 351.927704,218.718674 352.438324,219.013474 341.042908,238.750854 340.532288,238.456055 " style="fill:rgb(0,0,0);fill-opacity:1.000000"/><polygon points="377.232208,261.368225 386.565613,277.534149 386.054993,277.828949 385.544373,278.123749 376.210968,261.957825 376.551392,261.368225 " style="fill:rgb(0,0,0);fill-opacity:1.000000"/><text xml:space="preserve" x="385.086426" y="289.394592" textLength="18.773333" lengthAdjust="spacingAndGlyphs"><tspan font-family="Times New Roman" font-weight="normal" baseline-shift="0" font-size="13" fill="#000000">O</tspan><tspan font-family="Times New Roman" font-weight="normal" baseline-shift="0" font-size="13" fill="#000000">H</tspan></text><polygon points="308.570251,245.996017 302.791443,256.005280 302.280823,255.710464 301.770203,255.415665 307.549011,245.406418 308.059631,245.701218 " style="fill:rgb(0,0,0);fill-opacity:1.000000"/><polygon points="305.820801,244.408615 300.041992,254.417862 299.531372,254.123062 299.020752,253.828262 304.799561,243.819016 305.310181,244.113815 " style="fill:rgb(0,0,0);fill-opacity:1.000000"/><text xml:space="preserve" x="292.488007" y="266.482422" textLength="9.386666" lengthAdjust="spacingAndGlyphs"><tspan font-family="Times New Roman" font-weight="normal" baseline-shift="0" font-size="13" fill="#000000">O</tspan></text><polygon points="231.380020,239.045654 222.046616,255.211563 221.535995,254.916763 221.025375,254.621964 230.358780,238.456055 231.039597,238.456055 " style="fill:rgb(0,0,0);fill-opacity:1.000000"/><text xml:space="preserve" x="203.731247" y="266.482422" textLength="18.773333" lengthAdjust="spacingAndGlyphs"><tspan font-family="Times New Roman" font-weight="normal" baseline-shift="0" font-size="13" fill="#000000">H</tspan><tspan font-family="Times New Roman" font-weight="normal" baseline-shift="0" font-size="13" fill="#000000">O</tspan></text><polygon points="230.358780,192.631699 221.025391,176.465836 221.536011,176.171036 222.046631,175.876236 231.380020,192.042099 231.039597,192.631699 " style="fill:rgb(0,0,0);fill-opacity:1.000000"/><text xml:space="preserve" x="203.731247" y="174.833771" textLength="18.773333" lengthAdjust="spacingAndGlyphs"><tspan font-family="Times New Roman" font-weight="normal" baseline-shift="0" font-size="13" fill="#000000">H</tspan><tspan font-family="Times New Roman" font-weight="normal" baseline-shift="0" font-size="13" fill="#000000">O</tspan></text></svg>