<?xml version="1.0" standalone='no'?><!-- IBoard SVG File --><svg xmlns="http://www.w3.org/2000/svg" xmlns:xlink="http://www.w3.org/1999/xlink" viewBox="494.07 250.91 118.94 116.41" height="109.41" width="125.94" version="1.1"><!-- SVG File --><line x1="564.61377" y1="269.78772" x2="597.08618" y2="326.74905" style="stroke:rgb(0,0,0);stroke-width:1.179213;stroke-opacity:1.000000" stroke-linecap="butt"/><line x1="566.50452" y1="280.24747" x2="598.97693" y2="337.2088" style="stroke:rgb(0,0,0);stroke-width:1.179213;stroke-opacity:1.000000" stroke-linecap="butt"/><polygon points="562.052612,271.247742 564.819397,283.244141 567.016724,279.955475 " style="fill:rgb(0,0,0);fill-opacity:1.000000"/><polygon points="601.538086,335.748779 598.771301,323.752380 596.573975,327.041046 " style="fill:rgb(0,0,0);fill-opacity:1.000000"/><line x1="535.57092" y1="280.02457" x2="503.15671" y2="337.20508" style="stroke:rgb(0,0,0);stroke-width:1.179213;stroke-opacity:1.000000" stroke-linecap="butt"/><line x1="537.4364" y1="269.56027" x2="505.02213" y2="326.74078" style="stroke:rgb(0,0,0);stroke-width:1.179213;stroke-opacity:1.000000" stroke-linecap="butt"/><polygon points="540.000977,271.014069 535.057983,279.733795 537.263245,283.017151 " style="fill:rgb(0,0,0);fill-opacity:1.000000"/><polygon points="500.592072,335.751282 505.535065,327.031555 503.329773,323.748199 " style="fill:rgb(0,0,0);fill-opacity:1.000000"/><line x1="512.75006" y1="347.11304" x2="578.31732" y2="347.11304" style="stroke:rgb(0,0,0);stroke-width:1.179213;stroke-opacity:1.000000" stroke-linecap="butt"/><line x1="522.77338" y1="350.6507" x2="588.34064" y2="350.6507" style="stroke:rgb(0,0,0);stroke-width:1.179213;stroke-opacity:1.000000" stroke-linecap="butt"/><polygon points="512.750061,350.061096 524.542175,353.598724 522.773376,350.061096 " style="fill:rgb(0,0,0);fill-opacity:1.000000"/><polygon points="588.340637,347.702637 576.548523,344.165009 578.317322,347.702637 " style="fill:rgb(0,0,0);fill-opacity:1.000000"/><text xml:space="preserve" x="543.503723" y="270.336670" textLength="14.083333" lengthAdjust="spacingAndGlyphs"><tspan font-family="Times New Roman" font-weight="normal" baseline-shift="0" font-size="19" fill="#000000">A</tspan></text><text xml:space="preserve" x="494.074097" y="356.581726" textLength="13.006667" lengthAdjust="spacingAndGlyphs"><tspan font-family="Times New Roman" font-weight="normal" baseline-shift="0" font-size="19" fill="#000000">B</tspan></text><text xml:space="preserve" x="597.009949" y="355.792236" textLength="13.006667" lengthAdjust="spacingAndGlyphs"><tspan font-family="Times New Roman" font-weight="normal" baseline-shift="0" font-size="19" fill="#000000">C</tspan></text></svg>