<?xml version="1.0" standalone='no'?><!-- IBoard SVG File --><svg xmlns="http://www.w3.org/2000/svg" xmlns:xlink="http://www.w3.org/1999/xlink" viewBox="229.51 219.64 127.92 74.25" height="67.25" width="134.92" version="1.1"><!-- SVG File --><polygon points="281.595978,238.865173 281.606720,264.641022 281.017273,264.981689 280.427521,264.641510 280.416779,238.865692 281.006226,238.525024 " style="fill:rgb(0,0,0);fill-opacity:1.000000"/><polygon points="281.606720,264.641022 303.934784,277.519318 303.935089,278.200134 303.935394,278.880951 281.017578,265.662506 281.017273,264.981689 " style="fill:rgb(0,0,0);fill-opacity:1.000000"/><polygon points="327.431702,265.302032 303.935394,278.880951 303.935089,278.200134 303.934784,277.519318 326.252197,264.621674 326.841949,264.961853 " style="fill:rgb(0,0,0);fill-opacity:1.000000"/><polygon points="323.961365,263.640747 304.228546,275.044708 303.933533,274.534210 303.638519,274.023712 323.371338,262.619751 323.666351,263.130249 " style="fill:rgb(0,0,0);fill-opacity:1.000000"/><polygon points="326.252197,264.621674 326.240997,238.846222 326.830444,238.505554 327.419891,238.164886 327.431702,265.302032 326.841949,264.961853 " style="fill:rgb(0,0,0);fill-opacity:1.000000"/><polygon points="326.240997,238.846222 309.853912,229.394348 310.148499,228.883606 310.443085,228.372864 327.419891,238.164886 326.830444,238.505554 " style="fill:rgb(0,0,0);fill-opacity:1.000000"/><text xml:space="preserve" x="298.855957" y="230.551788" textLength="10.113334" lengthAdjust="spacingAndGlyphs"><tspan font-family="Arial" font-weight="normal" baseline-shift="0" font-size="13" fill="#000000">O</tspan></text><polygon points="281.005951,237.844208 297.381744,228.380219 297.676758,228.890701 297.971771,229.401184 281.595978,238.865173 281.006226,238.525024 " style="fill:rgb(0,0,0);fill-opacity:1.000000"/><polygon points="281.017578,265.662506 258.111359,278.900513 258.111053,278.219696 258.110748,277.538879 280.427521,264.641510 281.017273,264.981689 " style="fill:rgb(0,0,0);fill-opacity:1.000000"/><polygon points="278.136719,263.660553 258.404480,275.064240 258.109467,274.553741 257.814453,274.043243 277.546692,262.639557 277.841705,263.150055 " style="fill:rgb(0,0,0);fill-opacity:1.000000"/><polygon points="235.782700,264.660889 258.110748,277.538879 258.111053,278.219696 258.111359,278.900513 234.603806,265.342224 235.193253,265.001556 " style="fill:rgb(0,0,0);fill-opacity:1.000000"/><polygon points="238.947098,240.375977 238.956879,263.166962 238.367279,263.167206 237.777679,263.167450 237.767899,240.376495 238.357498,240.376236 " style="fill:rgb(0,0,0);fill-opacity:1.000000"/><polygon points="235.771667,238.884796 235.782700,264.660889 235.193253,265.001556 234.603806,265.342224 234.592163,238.204498 235.181915,238.544647 " style="fill:rgb(0,0,0);fill-opacity:1.000000"/><polygon points="234.592163,238.204498 258.087769,224.625534 258.088043,225.306351 258.088318,225.987167 235.771667,238.884796 235.181915,238.544647 " style="fill:rgb(0,0,0);fill-opacity:1.000000"/><polygon points="277.537598,240.870087 257.795044,229.483047 258.089630,228.972305 258.384216,228.461563 278.126770,239.848602 277.832184,240.359344 " style="fill:rgb(0,0,0);fill-opacity:1.000000"/><polygon points="280.416779,238.865692 258.088318,225.987167 258.088043,225.306351 258.087769,224.625534 281.005951,237.844208 281.006226,238.525024 " style="fill:rgb(0,0,0);fill-opacity:1.000000"/><polygon points="344.953735,230.545898 327.126251,240.848999 326.831238,240.338516 326.536224,239.828033 344.363708,229.524933 344.658722,230.035416 " style="fill:rgb(0,0,0);fill-opacity:1.000000"/><polygon points="343.365112,227.797119 325.537689,238.100235 325.242676,237.589752 324.947662,237.079269 342.775085,226.776154 343.070099,227.286636 " style="fill:rgb(0,0,0);fill-opacity:1.000000"/><text xml:space="preserve" x="345.043610" y="230.381287" textLength="9.386666" lengthAdjust="spacingAndGlyphs"><tspan font-family="Times New Roman" font-weight="normal" baseline-shift="0" font-size="13" fill="#000000">O</tspan></text></svg>