<svg width="385" height="146" xmlns="http://www.w3.org/2000/svg" xmlns:xlink="http://www.w3.org/1999/xlink" xml:space="preserve" overflow="hidden"><g transform="translate(-1928 -1031)"><text font-family="Times New Roman,Times New Roman_MSFontService,sans-serif" font-weight="400" font-size="45" transform="matrix(1 0 0 1 1961.45 1120)">Na</text><text font-family="Times New Roman,Times New Roman_MSFontService,sans-serif" font-weight="400" font-size="28" transform="matrix(1 0 0 1 2013.59 1099)">+</text><text font-family="Times New Roman,Times New Roman_MSFontService,sans-serif" font-weight="400" font-size="45" transform="matrix(1 0 0 1 2063.21 1117)">O</text><text font-family="Times New Roman,Times New Roman_MSFontService,sans-serif" font-weight="400" font-size="45" transform="matrix(1 0 0 1 2204.66 1120)">Na</text><text font-family="Times New Roman,Times New Roman_MSFontService,sans-serif" font-weight="400" font-size="28" transform="matrix(1 0 0 1 2256.8 1099)">+</text><path d="M2034 1085 2041 1085" stroke="#000000" stroke-width="4.43681" stroke-miterlimit="8" fill="none" fill-rule="evenodd"/><path d="M2036 1085 2036 1120" stroke="#000000" stroke-width="4.43681" stroke-miterlimit="8" fill="none" fill-rule="evenodd"/><path d="M2034 1120 2041 1120" stroke="#000000" stroke-width="4.43681" stroke-miterlimit="8" fill="none" fill-rule="evenodd"/><path d="M2167 1085 2160 1085" stroke="#000000" stroke-width="4.43681" stroke-miterlimit="8" fill="none" fill-rule="evenodd"/><path d="M2165 1085 2165 1120" stroke="#000000" stroke-width="4.43681" stroke-miterlimit="8" fill="none" fill-rule="evenodd"/><path d="M2167 1120 2160 1120" stroke="#000000" stroke-width="4.43681" stroke-miterlimit="8" fill="none" fill-rule="evenodd"/><text font-family="Times New Roman,Times New Roman_MSFontService,sans-serif" font-weight="400" font-size="28" transform="matrix(1 0 0 1 2172.06 1091)">2</text><text font-family="Times New Roman,Times New Roman_MSFontService,sans-serif" font-weight="400" font-size="28" transform="matrix(1 0 0 1 2185.81 1091)">-</text><text font-family="DengXian,DengXian_MSFontService,sans-serif" font-weight="400" font-size="48" transform="matrix(1 0 0 1 2066.43 1092)">·</text><text font-family="DengXian,DengXian_MSFontService,sans-serif" font-weight="400" font-size="48" transform="matrix(1 0 0 1 2080.11 1092)">·</text><text font-family="DengXian,DengXian_MSFontService,sans-serif" font-weight="400" font-size="48" transform="matrix(1 0 0 1 2066.24 1135)">·</text><text font-family="DengXian,DengXian_MSFontService,sans-serif" font-weight="400" font-size="48" transform="matrix(1 0 0 1 2079.91 1135)">·</text><text font-family="DengXian,DengXian_MSFontService,sans-serif" font-weight="400" font-size="48" transform="matrix(6.12323e-17 1 -1 6.12323e-17 2044.11 1091)">·</text><text font-family="DengXian,DengXian_MSFontService,sans-serif" font-weight="400" font-size="48" transform="matrix(6.12323e-17 1 -1 6.12323e-17 2044.11 1104)">·</text><text font-family="DengXian,DengXian_MSFontService,sans-serif" font-weight="400" font-size="48" transform="matrix(6.12323e-17 1 -1 6.12323e-17 2091.58 1091)">·</text><text font-family="DengXian,DengXian_MSFontService,sans-serif" font-weight="400" font-size="48" transform="matrix(6.12323e-17 1 -1 6.12323e-17 2091.58 1104)">·</text><text font-family="Times New Roman,Times New Roman_MSFontService,sans-serif" font-weight="400" font-size="45" transform="matrix(1 0 0 1 2110.41 1117)">O</text><text font-family="DengXian,DengXian_MSFontService,sans-serif" font-weight="400" font-size="48" transform="matrix(1 0 0 1 2113.63 1092)">·</text><text font-family="DengXian,DengXian_MSFontService,sans-serif" font-weight="400" font-size="48" transform="matrix(1 0 0 1 2127.31 1092)">·</text><text font-family="DengXian,DengXian_MSFontService,sans-serif" font-weight="400" font-size="48" transform="matrix(1 0 0 1 2113.43 1135)">·</text><text font-family="DengXian,DengXian_MSFontService,sans-serif" font-weight="400" font-size="48" transform="matrix(1 0 0 1 2127.11 1135)">·</text><text font-family="DengXian,DengXian_MSFontService,sans-serif" font-weight="400" font-size="48" transform="matrix(6.12323e-17 1 -1 6.12323e-17 2091.31 1091)">·</text><text font-family="DengXian,DengXian_MSFontService,sans-serif" font-weight="400" font-size="48" transform="matrix(6.12323e-17 1 -1 6.12323e-17 2091.31 1104)">·</text><text font-family="DengXian,DengXian_MSFontService,sans-serif" font-weight="400" font-size="48" transform="matrix(6.12323e-17 1 -1 6.12323e-17 2138.78 1091)">·</text><text font-family="DengXian,DengXian_MSFontService,sans-serif" font-weight="400" font-size="48" transform="matrix(6.12323e-17 1 -1 6.12323e-17 2138.78 1104)">·</text></g></svg>