<svg width="3117" height="1438" xmlns="http://www.w3.org/2000/svg" xmlns:xlink="http://www.w3.org/1999/xlink" xml:space="preserve" overflow="hidden"><g transform="translate(-682 -626)"><text font-family="Times New Roman,Times New Roman_MSFontService,sans-serif" font-weight="400" font-size="83" transform="matrix(1 0 0 1 2085.8 762)">Fe</text><text font-family="Times New Roman,Times New Roman_MSFontService,sans-serif" font-weight="400" font-size="50" transform="matrix(1 0 0 1 2114.73 692)">0</text><text font-family="Times New Roman,Times New Roman_MSFontService,sans-serif" font-weight="400" font-size="64" transform="matrix(1 0 0 1 2186.98 755)">(Fe </text><text font-family="Source Han Serif SC Medium,Source Han Serif SC Medium_MSFontService,sans-serif" font-weight="500" font-size="64" transform="matrix(1 0 0 1 2288.38 755)">单质</text><text font-family="Times New Roman,Times New Roman_MSFontService,sans-serif" font-weight="400" font-size="64" transform="matrix(1 0 0 1 2416.72 755)">)</text><path d="M0.991181-0.574885 634.06 1090.92 632.078 1092.07-0.991181 0.574885ZM642.663 1080.63 644.566 1111.32 618.875 1094.43Z" transform="matrix(-0.98937 -0.145418 -0.145418 0.98937 2087.28 790.458)"/><path d="M12.4884 19.248 645.557 1110.75 643.575 1111.9 10.5061 20.3977ZM1.90306 30.687 0 0 25.6914 16.8897Z" transform="matrix(-0.98937 -0.145418 -0.145418 0.98937 2108.56 806.474)"/><path d="M1309 1907.85 3095.14 1908.96 3095.14 1911.25 1309 1910.15ZM3090.57 1896.36 3118.06 1910.12 3090.55 1923.86Z"/><path d="M1331.92 1878.88 3118.06 1881.28 3118.06 1883.57 1331.91 1881.18ZM1336.48 1893.79 1309 1880 1336.52 1866.29Z"/><path d="M2364.76 790.352 3148.14 1779.53 3146.34 1780.95 2362.97 791.775ZM3155.17 1768.11 3161.47 1798.21 3133.61 1785.18Z"/><path d="M2362.32 822.51 3145.69 1811.69 3143.9 1813.11 2360.53 823.933ZM2353.49 835.352 2347.2 805.257 2375.05 818.279Z"/><text font-family="Times New Roman,Times New Roman_MSFontService,sans-serif" font-weight="400" font-size="83" transform="matrix(1 0 0 1 1186.27 1936)">Fe</text><text font-family="Times New Roman,Times New Roman_MSFontService,sans-serif" font-weight="400" font-size="50" transform="matrix(1 0 0 1 1203.48 1858)">+2</text><text font-family="Times New Roman,Times New Roman_MSFontService,sans-serif" font-weight="400" font-size="64" transform="matrix(1 0 0 1 720.939 2007)">( </text><text font-family="Times New Roman,Times New Roman_MSFontService,sans-serif" font-weight="400" font-size="64" transform="matrix(1 0 0 1 758.178 2007)">FeO</text><text font-family="Times New Roman,Times New Roman_MSFontService,sans-serif" font-weight="400" font-size="64" transform="matrix(1 0 0 1 868.751 2007)">/Fe(OH)</text><text font-family="Times New Roman,Times New Roman_MSFontService,sans-serif" font-weight="400" font-size="43" transform="matrix(1 0 0 1 1085.89 2022)">2</text><text font-family="Times New Roman,Times New Roman_MSFontService,sans-serif" font-weight="400" font-size="64" transform="matrix(1 0 0 1 1115.11 2007)">/Fe</text><text font-family="Times New Roman,Times New Roman_MSFontService,sans-serif" font-weight="400" font-size="43" transform="matrix(1 0 0 1 1197.03 1988)">2+ </text><text font-family="Times New Roman,Times New Roman_MSFontService,sans-serif" font-weight="400" font-size="64" transform="matrix(1 0 0 1 1253.18 2007)">)</text><text font-family="Times New Roman,Times New Roman_MSFontService,sans-serif" font-weight="400" font-size="83" transform="matrix(1 0 0 1 3172.45 1940)">Fe</text><text font-family="Times New Roman,Times New Roman_MSFontService,sans-serif" font-weight="400" font-size="50" transform="matrix(1 0 0 1 3186.92 1861)">+3</text><text font-family="Times New Roman,Times New Roman_MSFontService,sans-serif" font-weight="400" font-size="64" transform="matrix(1 0 0 1 3172.43 2010)">( Fe</text><text font-family="Times New Roman,Times New Roman_MSFontService,sans-serif" font-weight="400" font-size="43" transform="matrix(1 0 0 1 3273.83 2025)">2</text><text font-family="Times New Roman,Times New Roman_MSFontService,sans-serif" font-weight="400" font-size="64" transform="matrix(1 0 0 1 3295.03 2010)">O</text><text font-family="Times New Roman,Times New Roman_MSFontService,sans-serif" font-weight="400" font-size="43" transform="matrix(1 0 0 1 3341.44 2025)">3</text><text font-family="Times New Roman,Times New Roman_MSFontService,sans-serif" font-weight="400" font-size="64" transform="matrix(1 0 0 1 3362.64 2010)">/Fe(OH)</text><text font-family="Times New Roman,Times New Roman_MSFontService,sans-serif" font-weight="400" font-size="43" transform="matrix(1 0 0 1 3579.77 2025)">3</text><text font-family="Times New Roman,Times New Roman_MSFontService,sans-serif" font-weight="400" font-size="64" transform="matrix(1 0 0 1 3600.97 2010)">/Fe</text><text font-family="Times New Roman,Times New Roman_MSFontService,sans-serif" font-weight="400" font-size="43" transform="matrix(1 0 0 1 3682.9 1991)">3+ </text><text font-family="Times New Roman,Times New Roman_MSFontService,sans-serif" font-weight="400" font-size="64" transform="matrix(1 0 0 1 3739.04 2010)">)</text><text font-family="Source Han Serif SC Medium,Source Han Serif SC Medium_MSFontService,sans-serif" font-weight="500" font-size="50" transform="matrix(1 0 0 1 2805.88 1294)">浓</text><text font-family="Times New Roman,Times New Roman_MSFontService,sans-serif" font-weight="400" font-size="50" transform="matrix(1 0 0 1 2856.29 1294)">H</text><text font-family="Times New Roman,Times New Roman_MSFontService,sans-serif" font-weight="400" font-size="34" transform="matrix(1 0 0 1 2892.96 1306)">2</text><text font-family="Times New Roman,Times New Roman_MSFontService,sans-serif" font-weight="400" font-size="50" transform="matrix(1 0 0 1 2909.57 1294)">SO</text><text font-family="Times New Roman,Times New Roman_MSFontService,sans-serif" font-weight="400" font-size="34" transform="matrix(1 0 0 1 2974.31 1306)">4</text><text font-family="Times New Roman,Times New Roman_MSFontService,sans-serif" font-weight="400" font-size="50" transform="matrix(1 0 0 1 2523.28 938)">Cl</text><text font-family="Times New Roman,Times New Roman_MSFontService,sans-serif" font-weight="400" font-size="34" transform="matrix(1 0 0 1 2570.83 950)">2</text><text font-family="Times New Roman,Times New Roman_MSFontService,sans-serif" font-weight="400" font-size="50" transform="matrix(1 0 0 1 2636.81 1059)">Br</text><text font-family="Times New Roman,Times New Roman_MSFontService,sans-serif" font-weight="400" font-size="34" transform="matrix(1 0 0 1 2687.23 1071)">2</text><text font-family="Source Han Serif SC Medium,Source Han Serif SC Medium_MSFontService,sans-serif" font-weight="500" font-size="50" transform="matrix(1 0 0 1 2713.68 1179)">过量稀</text><text font-family="Times New Roman,Times New Roman_MSFontService,sans-serif" font-weight="400" font-size="50" transform="matrix(1 0 0 1 2864.93 1179)">HNO</text><text font-family="Times New Roman,Times New Roman_MSFontService,sans-serif" font-weight="400" font-size="34" transform="matrix(1 0 0 1 2974.93 1191)">3</text><text font-family="Source Han Serif SC Medium,Source Han Serif SC Medium_MSFontService,sans-serif" font-weight="500" font-size="50" transform="matrix(1 0 0 1 2880.24 1402)">浓</text><text font-family="Times New Roman,Times New Roman_MSFontService,sans-serif" font-weight="400" font-size="50" transform="matrix(1 0 0 1 2930.65 1402)">HNO</text><text font-family="Times New Roman,Times New Roman_MSFontService,sans-serif" font-weight="400" font-size="34" transform="matrix(1 0 0 1 3040.65 1414)">3</text><path d="M3059 1229C3071.98 1229 3082.5 1230.75 3082.5 1232.92L3082.5 1326.08C3082.5 1328.25 3093.02 1330 3106 1330 3093.02 1330 3082.5 1331.75 3082.5 1333.92L3082.5 1427.08C3082.5 1429.25 3071.98 1431 3059 1431" stroke="#000000" stroke-width="2.29167" stroke-miterlimit="8" fill="none" fill-rule="evenodd"/><text font-family="Source Han Serif SC Medium,Source Han Serif SC Medium_MSFontService,sans-serif" font-weight="500" font-size="41" transform="matrix(1 0 0 1 3130.88 1313)">常温</text><text font-family="Source Han Serif SC Medium,Source Han Serif SC Medium_MSFontService,sans-serif" font-weight="500" font-size="41" transform="matrix(1 0 0 1 3213.38 1313)">/</text><text font-family="Source Han Serif SC Medium,Source Han Serif SC Medium_MSFontService,sans-serif" font-weight="500" font-size="41" transform="matrix(1 0 0 1 3228.27 1313)">冷</text><text font-family="Source Han Serif SC Medium,Source Han Serif SC Medium_MSFontService,sans-serif" font-weight="500" font-size="41" transform="matrix(1 0 0 1 3279.83 1313)">下</text><text font-family="Source Han Serif SC Medium,Source Han Serif SC Medium_MSFontService,sans-serif" font-weight="500" font-size="41" transform="matrix(1 0 0 1 3331.4 1313)">发生钝化</text><text font-family="Source Han Serif SC Medium,Source Han Serif SC Medium_MSFontService,sans-serif" font-weight="500" font-size="41" transform="matrix(1 0 0 1 3130.88 1362)">加热下</text><text font-family="Source Han Serif SC Medium,Source Han Serif SC Medium_MSFontService,sans-serif" font-weight="500" font-size="41" transform="matrix(1 0 0 1 3264.94 1362)">不发生钝化</text><text font-family="Times New Roman,Times New Roman_MSFontService,sans-serif" font-weight="400" font-size="50" transform="matrix(1 0 0 1 1346.18 1982)">O</text><text font-family="Times New Roman,Times New Roman_MSFontService,sans-serif" font-weight="400" font-size="34" transform="matrix(1 0 0 1 1382.85 1994)">2</text><text font-family="Times New Roman,Times New Roman_MSFontService,sans-serif" font-weight="400" font-size="50" transform="matrix(1 0 0 1 1425.24 1982)">Cl</text><text font-family="Times New Roman,Times New Roman_MSFontService,sans-serif" font-weight="400" font-size="34" transform="matrix(1 0 0 1 1472.8 1994)">2   </text><text font-family="Times New Roman,Times New Roman_MSFontService,sans-serif" font-weight="400" font-size="50" transform="matrix(1 0 0 1 1515.19 1982)">Br</text><text font-family="Times New Roman,Times New Roman_MSFontService,sans-serif" font-weight="400" font-size="34" transform="matrix(1 0 0 1 1565.61 1994)">2   </text><text font-family="Source Han Serif SC Medium,Source Han Serif SC Medium_MSFontService,sans-serif" font-weight="500" font-size="50" transform="matrix(1 0 0 1 1608.01 1982)">稀</text><text font-family="Times New Roman,Times New Roman_MSFontService,sans-serif" font-weight="400" font-size="50" transform="matrix(1 0 0 1 1671.03 1982)">HNO</text><text font-family="Times New Roman,Times New Roman_MSFontService,sans-serif" font-weight="400" font-size="34" transform="matrix(1 0 0 1 1781.03 1994)">3   </text><text font-family="Source Han Serif SC Medium,Source Han Serif SC Medium_MSFontService,sans-serif" font-weight="500" font-size="50" transform="matrix(1 0 0 1 1823.42 1982)">浓</text><text font-family="Times New Roman,Times New Roman_MSFontService,sans-serif" font-weight="400" font-size="50" transform="matrix(1 0 0 1 1886.44 1982)">HNO</text><text font-family="Times New Roman,Times New Roman_MSFontService,sans-serif" font-weight="400" font-size="34" transform="matrix(1 0 0 1 1996.44 1994)">3   </text><text font-family="Source Han Serif SC Medium,Source Han Serif SC Medium_MSFontService,sans-serif" font-weight="500" font-size="50" transform="matrix(1 0 0 1 2038.84 1982)">浓</text><text font-family="Times New Roman,Times New Roman_MSFontService,sans-serif" font-weight="400" font-size="50" transform="matrix(1 0 0 1 2101.86 1982)">H</text><text font-family="Times New Roman,Times New Roman_MSFontService,sans-serif" font-weight="400" font-size="34" transform="matrix(1 0 0 1 2138.53 1994)">2</text><text font-family="Times New Roman,Times New Roman_MSFontService,sans-serif" font-weight="400" font-size="50" transform="matrix(1 0 0 1 2155.14 1982)">SO</text><text font-family="Times New Roman,Times New Roman_MSFontService,sans-serif" font-weight="400" font-size="34" transform="matrix(1 0 0 1 2219.88 1994)">4   </text><text font-family="Times New Roman,Times New Roman_MSFontService,sans-serif" font-weight="400" font-size="50" transform="matrix(1 0 0 1 2262.28 1982)">H</text><text font-family="Times New Roman,Times New Roman_MSFontService,sans-serif" font-weight="400" font-size="34" transform="matrix(1 0 0 1 2298.94 1994)">2</text><text font-family="Times New Roman,Times New Roman_MSFontService,sans-serif" font-weight="400" font-size="50" transform="matrix(1 0 0 1 2315.56 1982)">O</text><text font-family="Times New Roman,Times New Roman_MSFontService,sans-serif" font-weight="400" font-size="34" transform="matrix(1 0 0 1 2352.22 1994)">2</text><text font-family="Times New Roman,Times New Roman_MSFontService,sans-serif" font-weight="400" font-size="50" transform="matrix(1 0 0 1 2368.84 1982)">(H</text><text font-family="Times New Roman,Times New Roman_MSFontService,sans-serif" font-weight="400" font-size="34" transform="matrix(1 0 0 1 2422.12 1967)">+</text><text font-family="Times New Roman,Times New Roman_MSFontService,sans-serif" font-weight="400" font-size="50" transform="matrix(1 0 0 1 2441.03 1982)">)</text><text font-family="Times New Roman,Times New Roman_MSFontService,sans-serif" font-weight="400" font-size="50" transform="matrix(1 0 0 1 2483.42 1982)">HClO</text><text font-family="Times New Roman,Times New Roman_MSFontService,sans-serif" font-weight="400" font-size="50" transform="matrix(1 0 0 1 2630.09 1982)">KMnO</text><text font-family="Times New Roman,Times New Roman_MSFontService,sans-serif" font-weight="400" font-size="34" transform="matrix(1 0 0 1 2761.86 1994)">4</text><text font-family="Times New Roman,Times New Roman_MSFontService,sans-serif" font-weight="400" font-size="50" transform="matrix(1 0 0 1 2778.47 1982)">(H</text><text font-family="Times New Roman,Times New Roman_MSFontService,sans-serif" font-weight="400" font-size="34" transform="matrix(1 0 0 1 2831.76 1967)">+</text><text font-family="Times New Roman,Times New Roman_MSFontService,sans-serif" font-weight="400" font-size="50" transform="matrix(1 0 0 1 2850.66 1982)">)</text><text font-family="Times New Roman,Times New Roman_MSFontService,sans-serif" font-weight="400" font-size="50" transform="matrix(1 0 0 1 2879.88 1982)">K</text><text font-family="Times New Roman,Times New Roman_MSFontService,sans-serif" font-weight="400" font-size="34" transform="matrix(1 0 0 1 2905.09 1994)">2</text><text font-family="Times New Roman,Times New Roman_MSFontService,sans-serif" font-weight="400" font-size="50" transform="matrix(1 0 0 1 2921.7 1982)">Cr</text><text font-family="Times New Roman,Times New Roman_MSFontService,sans-serif" font-weight="400" font-size="34" transform="matrix(1 0 0 1 2972.12 1994)">2</text><text font-family="Times New Roman,Times New Roman_MSFontService,sans-serif" font-weight="400" font-size="50" transform="matrix(1 0 0 1 2988.73 1982)">O</text><text font-family="Times New Roman,Times New Roman_MSFontService,sans-serif" font-weight="400" font-size="34" transform="matrix(1 0 0 1 3025.4 1994)">7</text><text font-family="Times New Roman,Times New Roman_MSFontService,sans-serif" font-weight="400" font-size="50" transform="matrix(1 0 0 1 3042.02 1982)">(H</text><text font-family="Times New Roman,Times New Roman_MSFontService,sans-serif" font-weight="400" font-size="34" transform="matrix(1 0 0 1 3095.3 1967)">+</text><text font-family="Times New Roman,Times New Roman_MSFontService,sans-serif" font-weight="400" font-size="50" transform="matrix(1 0 0 1 3114.2 1982)">)</text><path d="M1.14583-1.48035e-06 1.14616 256.424-1.1455 256.424-1.14583 1.48035e-06ZM13.7503 251.841 0.000360892 279.341-13.7497 251.841Z" transform="matrix(1 0 0 -1 3202 1786.34)"/><text font-family="Times New Roman,Times New Roman_MSFontService,sans-serif" font-weight="400" font-size="28" transform="matrix(1 0 0 1 3159.11 1442)">+</text><text font-family="Times New Roman,Times New Roman_MSFontService,sans-serif" font-weight="400" font-size="28" transform="matrix(1 0 0 1 3174.58 1442)">6</text><text font-family="Times New Roman,Times New Roman_MSFontService,sans-serif" font-weight="400" font-size="50" transform="matrix(1 0 0 1 3151.47 1487)">FeO</text><text font-family="Times New Roman,Times New Roman_MSFontService,sans-serif" font-weight="400" font-size="34" transform="matrix(1 0 0 1 3238.55 1472)">2</text><text font-family="Times New Roman,Times New Roman_MSFontService,sans-serif" font-weight="400" font-size="34" transform="matrix(1 0 0 1 3255.17 1472)">-</text><text font-family="Times New Roman,Times New Roman_MSFontService,sans-serif" font-weight="400" font-size="31" transform="matrix(1 0 0 1 3236.88 1498)">4</text><text font-family="Times New Roman,Times New Roman_MSFontService,sans-serif" font-weight="400" font-size="46" transform="matrix(1 0 0 1 3227.26 1628)">OH</text><text font-family="Times New Roman,Times New Roman_MSFontService,sans-serif" font-weight="400" font-size="31" transform="matrix(1 0 0 1 3293.72 1614)">-</text><text font-family="Times New Roman,Times New Roman_MSFontService,sans-serif" font-weight="400" font-size="46" transform="matrix(1 0 0 1 3231.5 1694)">ClO</text><text font-family="Times New Roman,Times New Roman_MSFontService,sans-serif" font-weight="400" font-size="31" transform="matrix(1 0 0 1 3307.7 1680)">-</text><text font-family="Times New Roman,Times New Roman_MSFontService,sans-serif" font-weight="400" font-size="50" transform="matrix(1 0 0 1 1190.89 1349)">H</text><text font-family="Times New Roman,Times New Roman_MSFontService,sans-serif" font-weight="400" font-size="34" transform="matrix(1 0 0 1 1227.56 1361)">2</text><text font-family="Times New Roman,Times New Roman_MSFontService,sans-serif" font-weight="400" font-size="50" transform="matrix(1 0 0 1 1244.17 1349)">(</text><text font-family="Source Han Serif SC Medium,Source Han Serif SC Medium_MSFontService,sans-serif" font-weight="500" font-size="50" transform="matrix(1 0 0 1 1260.78 1349)">稀</text><text font-family="Times New Roman,Times New Roman_MSFontService,sans-serif" font-weight="400" font-size="50" transform="matrix(1 0 0 1 1323.81 1349)">H</text><text font-family="Times New Roman,Times New Roman_MSFontService,sans-serif" font-weight="400" font-size="34" transform="matrix(1 0 0 1 1360.47 1361)">2</text><text font-family="Times New Roman,Times New Roman_MSFontService,sans-serif" font-weight="400" font-size="50" transform="matrix(1 0 0 1 1377.09 1349)">SO</text><text font-family="Times New Roman,Times New Roman_MSFontService,sans-serif" font-weight="400" font-size="34" transform="matrix(1 0 0 1 1441.83 1361)">4</text><text font-family="Source Han Serif SC Medium,Source Han Serif SC Medium_MSFontService,sans-serif" font-weight="500" font-size="50" transform="matrix(1 0 0 1 1458.44 1349)">、</text><text font-family="Times New Roman,Times New Roman_MSFontService,sans-serif" font-weight="400" font-size="50" transform="matrix(1 0 0 1 1508.86 1349)">HCl)</text><text font-family="Times New Roman,Times New Roman_MSFontService,sans-serif" font-weight="400" font-size="50" transform="matrix(1 0 0 1 1917.47 917)">I</text><text font-family="Times New Roman,Times New Roman_MSFontService,sans-serif" font-weight="400" font-size="34" transform="matrix(1 0 0 1 1934.08 929)">2</text><text font-family="Times New Roman,Times New Roman_MSFontService,sans-serif" font-weight="400" font-size="50" transform="matrix(1 0 0 1 1830.24 1024)">S</text><text font-family="Times New Roman,Times New Roman_MSFontService,sans-serif" font-weight="400" font-size="50" transform="matrix(1 0 0 1 1714.47 1129)">Fe</text><text font-family="Times New Roman,Times New Roman_MSFontService,sans-serif" font-weight="400" font-size="34" transform="matrix(1 0 0 1 1764.88 1114)">3+</text><text font-family="Times New Roman,Times New Roman_MSFontService,sans-serif" font-weight="400" font-size="50" transform="matrix(1 0 0 1 1618.04 1243)">Cu</text><text font-family="Times New Roman,Times New Roman_MSFontService,sans-serif" font-weight="400" font-size="34" transform="matrix(1 0 0 1 1677.05 1228)">2+</text><text font-family="Source Han Serif SC Medium,Source Han Serif SC Medium_MSFontService,sans-serif" font-weight="500" font-size="50" transform="matrix(1 0 0 1 1237.37 1482)">少量稀</text><text font-family="Times New Roman,Times New Roman_MSFontService,sans-serif" font-weight="400" font-size="50" transform="matrix(1 0 0 1 1401.22 1482)">HNO</text><text font-family="Times New Roman,Times New Roman_MSFontService,sans-serif" font-weight="400" font-size="34" transform="matrix(1 0 0 1 1511.22 1494)">3</text><text font-family="Times New Roman,Times New Roman_MSFontService,sans-serif" font-weight="400" font-size="50" transform="matrix(1 0 0 1 1973.35 1072)">Zn</text><text font-family="Times New Roman,Times New Roman_MSFontService,sans-serif" font-weight="400" font-size="50" transform="matrix(1 0 0 1 1832.06 1288)">H</text><text font-family="Times New Roman,Times New Roman_MSFontService,sans-serif" font-weight="400" font-size="34" transform="matrix(1 0 0 1 1868.73 1300)">2</text><text font-family="Times New Roman,Times New Roman_MSFontService,sans-serif" font-weight="400" font-size="50" transform="matrix(1 0 0 1 1742.41 1411)">C</text><text font-family="Times New Roman,Times New Roman_MSFontService,sans-serif" font-weight="400" font-size="50" transform="matrix(1 0 0 1 1629.76 1520)">CO</text><text font-family="Times New Roman,Times New Roman_MSFontService,sans-serif" font-weight="400" font-size="50" transform="matrix(1 0 0 1 1902.49 1173)">Al</text><text font-family="Times New Roman,Times New Roman_MSFontService,sans-serif" font-weight="400" font-size="50" transform="matrix(1 0 0 1 2436.08 1075)">Zn</text><text font-family="Times New Roman,Times New Roman_MSFontService,sans-serif" font-weight="400" font-size="50" transform="matrix(1 0 0 1 2499.71 1169)">Al</text><text font-family="Times New Roman,Times New Roman_MSFontService,sans-serif" font-weight="400" font-size="50" transform="matrix(1 0 0 1 2589 1287)">H</text><text font-family="Times New Roman,Times New Roman_MSFontService,sans-serif" font-weight="400" font-size="34" transform="matrix(1 0 0 1 2625.66 1299)">2</text><text font-family="Times New Roman,Times New Roman_MSFontService,sans-serif" font-weight="400" font-size="50" transform="matrix(1 0 0 1 2694.89 1412)">C</text><text font-family="Times New Roman,Times New Roman_MSFontService,sans-serif" font-weight="400" font-size="50" transform="matrix(1 0 0 1 2773.22 1542)">CO</text><text font-family="Times New Roman,Times New Roman_MSFontService,sans-serif" font-weight="400" font-size="50" transform="matrix(1 0 0 1 1678.16 1843)">Cu Fe</text><text font-family="Times New Roman,Times New Roman_MSFontService,sans-serif" font-weight="400" font-size="50" transform="matrix(1 0 0 1 1825.97 1843)">I</text><text font-family="Times New Roman,Times New Roman_MSFontService,sans-serif" font-weight="400" font-size="34" transform="matrix(1 0 0 1 1842.59 1828)">-</text><text font-family="Times New Roman,Times New Roman_MSFontService,sans-serif" font-weight="400" font-size="50" transform="matrix(1 0 0 1 1879.83 1843)">S(S</text><text font-family="Times New Roman,Times New Roman_MSFontService,sans-serif" font-weight="400" font-size="34" transform="matrix(1 0 0 1 1952.59 1828)">2</text><text font-family="Times New Roman,Times New Roman_MSFontService,sans-serif" font-weight="400" font-size="34" transform="matrix(1 0 0 1 1969.2 1828)">-</text><text font-family="Times New Roman,Times New Roman_MSFontService,sans-serif" font-weight="400" font-size="50" transform="matrix(1 0 0 1 1980.66 1843)">/HS</text><text font-family="Times New Roman,Times New Roman_MSFontService,sans-serif" font-weight="400" font-size="34" transform="matrix(1 0 0 1 2059.15 1828)">-</text><text font-family="Times New Roman,Times New Roman_MSFontService,sans-serif" font-weight="400" font-size="50" transform="matrix(1 0 0 1 2070.61 1843)">/H</text><text font-family="Times New Roman,Times New Roman_MSFontService,sans-serif" font-weight="400" font-size="34" transform="matrix(1 0 0 1 2121.03 1855)">2</text><text font-family="Times New Roman,Times New Roman_MSFontService,sans-serif" font-weight="400" font-size="50" transform="matrix(1 0 0 1 2137.64 1843)">S) S(SO</text><text font-family="Times New Roman,Times New Roman_MSFontService,sans-serif" font-weight="400" font-size="34" transform="matrix(1 0 0 1 2304.36 1855)">2</text><text font-family="Times New Roman,Times New Roman_MSFontService,sans-serif" font-weight="400" font-size="50" transform="matrix(1 0 0 1 2320.97 1843)">/H</text><text font-family="Times New Roman,Times New Roman_MSFontService,sans-serif" font-weight="400" font-size="34" transform="matrix(1 0 0 1 2371.39 1855)">2</text><text font-family="Times New Roman,Times New Roman_MSFontService,sans-serif" font-weight="400" font-size="50" transform="matrix(1 0 0 1 2388 1843)">SO</text><text font-family="Times New Roman,Times New Roman_MSFontService,sans-serif" font-weight="400" font-size="34" transform="matrix(1 0 0 1 2452.74 1855)">3</text><text font-family="Times New Roman,Times New Roman_MSFontService,sans-serif" font-weight="400" font-size="50" transform="matrix(1 0 0 1 2469.36 1843)">/HSO</text><text font-family="Times New Roman,Times New Roman_MSFontService,sans-serif" font-weight="400" font-size="34" transform="matrix(1 0 0 1 2584.51 1855)">3</text><text font-family="Times New Roman,Times New Roman_MSFontService,sans-serif" font-weight="400" font-size="50" transform="matrix(1 0 0 1 2601.13 1843)">/SO</text><text font-family="Times New Roman,Times New Roman_MSFontService,sans-serif" font-weight="400" font-size="34" transform="matrix(1 0 0 1 2679.62 1855)">3 </text><text font-family="Times New Roman,Times New Roman_MSFontService,sans-serif" font-weight="400" font-size="50" transform="matrix(1 0 0 1 2704.83 1843)">)</text><text font-family="Times New Roman,Times New Roman_MSFontService,sans-serif" font-weight="400" font-size="23" transform="matrix(1 0 0 1 1884.84 1797)">-</text><text font-family="Times New Roman,Times New Roman_MSFontService,sans-serif" font-weight="400" font-size="23" transform="matrix(1 0 0 1 1892.29 1797)">2</text><text font-family="Times New Roman,Times New Roman_MSFontService,sans-serif" font-weight="400" font-size="23" transform="matrix(1 0 0 1 2187.24 1797)">+4</text><text font-family="Times New Roman,Times New Roman_MSFontService,sans-serif" font-weight="400" font-size="28" transform="matrix(1 0 0 1 2680 1819)">2</text><text font-family="Times New Roman,Times New Roman_MSFontService,sans-serif" font-weight="400" font-size="28" transform="matrix(1 0 0 1 2693.75 1819)">-</text><text font-family="Times New Roman,Times New Roman_MSFontService,sans-serif" font-weight="400" font-size="37" transform="matrix(1 0 0 1 2454.3 1821)">-</text><text font-family="Times New Roman,Times New Roman_MSFontService,sans-serif" font-weight="400" font-size="83" transform="matrix(1 0 0 1 937.831 1056)">Fe</text><text font-family="Times New Roman,Times New Roman_MSFontService,sans-serif" font-weight="400" font-size="55" transform="matrix(1 0 0 1 1020.33 1076)">3</text><text font-family="Times New Roman,Times New Roman_MSFontService,sans-serif" font-weight="400" font-size="83" transform="matrix(1 0 0 1 1047.83 1056)">O</text><text font-family="Times New Roman,Times New Roman_MSFontService,sans-serif" font-weight="400" font-size="55" transform="matrix(1 0 0 1 1107.41 1076)">4</text><path d="M1188.93 1806.39 1047.75 1157.64 1049.99 1157.15 1191.17 1805.9ZM1036.41 1164.79 1044 1135 1063.28 1158.95Z"/><path d="M0.292847-1.10778 882.811 232.191 882.225 234.406-0.292847 1.10778ZM881.6 218.833 904.672 239.155 874.572 245.42Z" transform="matrix(-1 0 0 1 2052.67 732)"/><path d="M22.4476 4.74894 904.965 238.047 904.38 240.263 21.8619 6.9645ZM23.0725 20.3217 0 0 30.1009-6.26502Z" transform="matrix(-1 0 0 1 2071.67 747)"/><text font-family="Times New Roman,Times New Roman_MSFontService,sans-serif" font-weight="400" font-size="50" transform="matrix(1 0 0 1 1283.84 1005)">H</text><text font-family="Times New Roman,Times New Roman_MSFontService,sans-serif" font-weight="400" font-size="34" transform="matrix(1 0 0 1 1320.5 1018)">2</text><text font-family="Times New Roman,Times New Roman_MSFontService,sans-serif" font-weight="400" font-size="50" transform="matrix(1 0 0 1 1639.24 914)">C</text><text font-family="Times New Roman,Times New Roman_MSFontService,sans-serif" font-weight="400" font-size="50" transform="matrix(1 0 0 1 1453.16 960)">CO</text><text font-family="Times New Roman,Times New Roman_MSFontService,sans-serif" font-weight="400" font-size="50" transform="matrix(1 0 0 1 1761.17 876)">Al</text><text font-family="Times New Roman,Times New Roman_MSFontService,sans-serif" font-weight="400" font-size="50" transform="matrix(1 0 0 1 1251.03 848)">O</text><text font-family="Times New Roman,Times New Roman_MSFontService,sans-serif" font-weight="400" font-size="34" transform="matrix(1 0 0 1 1287.7 860)">2 </text><text font-family="Source Han Serif SC Medium,Source Han Serif SC Medium_MSFontService,sans-serif" font-weight="500" font-size="50" transform="matrix(1 0 0 1 1312.91 848)">点燃</text><text font-family="Times New Roman,Times New Roman_MSFontService,sans-serif" font-weight="400" font-size="50" transform="matrix(1 0 0 1 1521.71 749)">H</text><text font-family="Times New Roman,Times New Roman_MSFontService,sans-serif" font-weight="400" font-size="34" transform="matrix(1 0 0 1 1558.38 761)">2</text><text font-family="Times New Roman,Times New Roman_MSFontService,sans-serif" font-weight="400" font-size="50" transform="matrix(1 0 0 1 1575 749)">O(g)</text><text font-family="Source Han Serif SC Medium,Source Han Serif SC Medium_MSFontService,sans-serif" font-weight="500" font-size="50" transform="matrix(1 0 0 1 1678.69 749)">高温</text><text font-family="Times New Roman,Times New Roman_MSFontService,sans-serif" font-weight="400" font-size="50" transform="matrix(1 0 0 1 917.037 1464)">O</text><text font-family="Times New Roman,Times New Roman_MSFontService,sans-serif" font-weight="400" font-size="34" transform="matrix(1 0 0 1 953.704 1476)">2 </text><text font-family="Source Han Serif SC Medium,Source Han Serif SC Medium_MSFontService,sans-serif" font-weight="500" font-size="50" transform="matrix(1 0 0 1 978.912 1464)">加热</text></g></svg>