<svg width="2063" height="1484" xmlns="http://www.w3.org/2000/svg" xmlns:xlink="http://www.w3.org/1999/xlink" xml:space="preserve" overflow="hidden"><g transform="translate(-1135 -421)"><text font-family="Times New Roman,Times New Roman_MSFontService,sans-serif" font-weight="400" font-size="83" transform="matrix(1 0 0 1 2979.43 527)">Al</text><text font-family="Times New Roman,Times New Roman_MSFontService,sans-serif" font-weight="400" font-size="55" transform="matrix(1 0 0 1 3061.93 502)">3+</text><text font-family="Times New Roman,Times New Roman_MSFontService,sans-serif" font-weight="400" font-size="83" transform="matrix(1 0 0 1 2964.97 1466)">AlO</text><text font-family="Times New Roman,Times New Roman_MSFontService,sans-serif" font-weight="400" font-size="55" transform="matrix(1 0 0 1 3107.05 1486)">2</text><text font-family="Times New Roman,Times New Roman_MSFontService,sans-serif" font-weight="400" font-size="83" transform="matrix(1 0 0 1 3108.44 1423)">-</text><path d="M3050.15 570 3050.15 1342.57 3047.85 1342.57 3047.85 570ZM3062.75 1337.99 3049 1365.49 3035.25 1337.99Z"/><path d="M3004.15 592.917 3004.15 1365.49 3001.85 1365.49 3001.85 592.917ZM2989.25 597.5 3003 570 3016.75 597.5Z"/><text font-family="Times New Roman,Times New Roman_MSFontService,sans-serif" font-weight="400" font-size="83" transform="matrix(1 0 0 1 1185.18 991)">Al</text><path d="M22.4735 4.59404 1644.59 421.581 1644.02 423.801 21.903 6.81354ZM23.2107 20.1637 0 0 30.0574-6.47039Z" transform="matrix(-1 0 0 1 2946.3 497)"/><path d="M1302.29 1009.89 2909.97 1429.56 2909.39 1431.78 1301.71 1012.11ZM2908.7 1416.2 2931.84 1436.45 2901.76 1442.81Z"/><text font-family="Times New Roman,Times New Roman_MSFontService,sans-serif" font-weight="400" font-size="83" transform="matrix(1 0 0 1 1852.12 991)">Al</text><text font-family="Times New Roman,Times New Roman_MSFontService,sans-serif" font-weight="400" font-size="55" transform="matrix(1 0 0 1 1934.62 1011)">2</text><text font-family="Times New Roman,Times New Roman_MSFontService,sans-serif" font-weight="400" font-size="83" transform="matrix(1 0 0 1 1962.12 991)">O</text><text font-family="Times New Roman,Times New Roman_MSFontService,sans-serif" font-weight="400" font-size="55" transform="matrix(1 0 0 1 2021.7 1011)">3</text><path d="M2046.48 1026.96 2911.17 1425.59 2910.22 1427.67 2045.52 1029.04ZM2912.29 1412.22 2931.51 1436.22 2900.78 1437.2Z"/><path d="M21.2098 8.75939 900.46 424.418 899.48 426.49 20.2304 10.8312ZM18.9852 24.1842 0 0 30.7385-0.677647Z" transform="matrix(-1 0 0 1 2945.97 497)"/><text font-family="Times New Roman,Times New Roman_MSFontService,sans-serif" font-weight="400" font-size="83" transform="matrix(1 0 0 1 2519.82 991)">Al(OH)</text><text font-family="Times New Roman,Times New Roman_MSFontService,sans-serif" font-weight="400" font-size="55" transform="matrix(1 0 0 1 2776.48 1011)">3</text><path d="M2677.55 1046.52 2933.31 1435.28 2931.4 1436.54 2675.64 1047.78ZM2667.63 1058.53 2664 1028 2690.6 1043.42Z"/><path d="M14.2074 18.0181 283.754 397.396 281.885 398.724 12.3392 19.3454ZM4.71882 30.3817 0 0 27.1366 14.4539Z" transform="matrix(-1 0 0 1 2946.82 497)"/><path d="M2487.04 962.461 2107.92 962.164 2107.92 959.872 2487.05 960.169ZM2112.49 974.772 2085 961 2112.51 947.272Z"/><path d="M1818.61 950.719 1309.99 944.146 1310.01 941.854 1818.64 948.428ZM1814.22 935.765 1841.54 949.87 1813.87 963.263Z"/><path d="M1842.53 980.015 1333.9 973.442 1333.93 971.151 1842.56 977.724ZM1338.32 986.104 1311 972 1338.68 958.607Z"/><text font-family="DengXian,DengXian_MSFontService,sans-serif" font-weight="400" font-size="48" transform="matrix(0.971766 -0.235945 0.235945 0.971766 1830.02 750)">①</text><text font-family="Times New Roman,Times New Roman_MSFontService,sans-serif" font-weight="400" font-size="48" transform="matrix(0.971766 -0.235945 0.235945 0.971766 1888.48 736)">3H</text><text font-family="Times New Roman,Times New Roman_MSFontService,sans-serif" font-weight="400" font-size="32" transform="matrix(0.971766 -0.235945 0.235945 0.971766 1942.52 709)">+</text><text font-family="DengXian,DengXian_MSFontService,sans-serif" font-weight="400" font-size="48" transform="matrix(0.9664 0.257044 -0.257044 0.9664 1814.75 1203)">②</text><text font-family="Times New Roman,Times New Roman_MSFontService,sans-serif" font-weight="400" font-size="48" transform="matrix(0.9664 0.257044 -0.257044 0.9664 1872.88 1218)">OH</text><text font-family="Times New Roman,Times New Roman_MSFontService,sans-serif" font-weight="400" font-size="32" transform="matrix(0.9664 0.257044 -0.257044 0.9664 1944.03 1223)">-</text><text font-family="DengXian,DengXian_MSFontService,sans-serif" font-weight="400" font-size="48" transform="matrix(1 0 0 1 1462.96 933)">③</text><text font-family="Times New Roman,Times New Roman_MSFontService,sans-serif" font-weight="400" font-size="48" transform="matrix(1 0 0 1 1523.11 933)">O</text><text font-family="Times New Roman,Times New Roman_MSFontService,sans-serif" font-weight="400" font-size="32" transform="matrix(1 0 0 1 1558.06 944)">2</text><text font-family="Times New Roman,Times New Roman_MSFontService,sans-serif" font-weight="400" font-size="48" transform="matrix(1 0 0 1 1574.1 933)">/</text><text font-family="DengXian,DengXian_MSFontService,sans-serif" font-weight="400" font-size="48" transform="matrix(1 0 0 1 1587.28 933)">铝热剂</text><text font-family="DengXian,DengXian_MSFontService,sans-serif" font-weight="400" font-size="48" transform="matrix(1 0 0 1 1581.05 1033)">④</text><text font-family="DengXian,DengXian_MSFontService,sans-serif" font-weight="400" font-size="48" transform="matrix(1 0 0 1 2290.61 1023)">⑤</text><text font-family="Cambria Math,Cambria Math_MSFontService,sans-serif" font-weight="400" font-size="48" transform="matrix(1 0 0 1 2300.67 940)">Δ</text><text font-family="DengXian,DengXian_MSFontService,sans-serif" font-weight="400" font-size="48" transform="matrix(1 0 0 1 2318.62 743)">⑥</text><text font-family="Times New Roman,Times New Roman_MSFontService,sans-serif" font-weight="400" font-size="48" transform="matrix(1 0 0 1 2378.77 743)">H</text><text font-family="Times New Roman,Times New Roman_MSFontService,sans-serif" font-weight="400" font-size="32" transform="matrix(1 0 0 1 2413.72 729)">+</text><path d="M0.934075-0.663655 245.401 343.416 243.533 344.743-0.934075 0.663655ZM253.02 332.379 257.739 362.76 230.603 348.306Z" transform="matrix(-1 0 0 1 2957.74 538)"/><path d="M2700.96 1025.37 2941.72 1391.34 2939.81 1392.6 2699.04 1026.63ZM2949.73 1380.58 2953.36 1411.11 2926.76 1395.7Z"/><text font-family="DengXian,DengXian_MSFontService,sans-serif" font-weight="400" font-size="48" transform="matrix(1 0 0 1 2336.77 1151)">⑦</text><text font-family="Times New Roman,Times New Roman_MSFontService,sans-serif" font-weight="400" font-size="48" transform="matrix(1 0 0 1 2396.93 1151)">OH</text><text font-family="Times New Roman,Times New Roman_MSFontService,sans-serif" font-weight="400" font-size="32" transform="matrix(1 0 0 1 2466.82 1137)">-</text><text font-family="DengXian,DengXian_MSFontService,sans-serif" font-weight="400" font-size="48" transform="matrix(1 0 0 1 2624.4 753)">⑧</text><text font-family="Times New Roman,Times New Roman_MSFontService,sans-serif" font-weight="400" font-size="48" transform="matrix(1 0 0 1 2684.56 753)">3H</text><text font-family="Times New Roman,Times New Roman_MSFontService,sans-serif" font-weight="400" font-size="32" transform="matrix(1 0 0 1 2743.57 739)">+</text><text font-family="DengXian,DengXian_MSFontService,sans-serif" font-weight="400" font-size="48" transform="matrix(1 0 0 1 2600.39 1208)">⑩</text><text font-family="Times New Roman,Times New Roman_MSFontService,sans-serif" font-weight="400" font-size="48" transform="matrix(1 0 0 1 2660.55 1208)">3H</text><text font-family="Times New Roman,Times New Roman_MSFontService,sans-serif" font-weight="400" font-size="32" transform="matrix(1 0 0 1 2719.56 1194)">+</text><text font-family="DengXian,DengXian_MSFontService,sans-serif" font-weight="400" font-size="48" transform="matrix(1 0 0 1 2804.47 802)">⑨</text><text font-family="Times New Roman,Times New Roman_MSFontService,sans-serif" font-weight="400" font-size="48" transform="matrix(1 0 0 1 2864.63 802)">3OH</text><text font-family="Times New Roman,Times New Roman_MSFontService,sans-serif" font-weight="400" font-size="32" transform="matrix(1 0 0 1 2958.58 788)">-</text><text font-family="Cambria Math,Cambria Math_MSFontService,sans-serif" font-weight="400" font-size="48" transform="matrix(1 0 0 1 3083.22 934)">⑬</text><text font-family="Times New Roman,Times New Roman_MSFontService,sans-serif" font-weight="400" font-size="48" transform="matrix(1 0 0 1 3059.73 991)">4OH</text><text font-family="Times New Roman,Times New Roman_MSFontService,sans-serif" font-weight="400" font-size="32" transform="matrix(1 0 0 1 3153.69 977)">-</text><text font-family="Cambria Math,Cambria Math_MSFontService,sans-serif" font-weight="400" font-size="48" transform="matrix(1 0 0 1 2834.91 1179)">⑪</text><text font-family="Times New Roman,Times New Roman_MSFontService,sans-serif" font-weight="400" font-size="48" transform="matrix(1 0 0 1 2904.81 1179)">OH</text><text font-family="Times New Roman,Times New Roman_MSFontService,sans-serif" font-weight="400" font-size="32" transform="matrix(1 0 0 1 2974.7 1165)">-</text><text fill="#333333" font-family="Cambria Math,Cambria Math_MSFontService,sans-serif" font-weight="400" font-size="48" transform="matrix(1 0 0 1 2906.37 933)">⑫</text><text font-family="Times New Roman,Times New Roman_MSFontService,sans-serif" font-weight="400" font-size="48" transform="matrix(1 0 0 1 2896.63 992)">4H</text><text font-family="Times New Roman,Times New Roman_MSFontService,sans-serif" font-weight="400" font-size="32" transform="matrix(1 0 0 1 2955.64 978)">+</text><text font-family="Times New Roman,Times New Roman_MSFontService,sans-serif" font-weight="400" font-size="83" transform="matrix(1 0 0 1 1744.39 1756)">Al</text><text font-family="Times New Roman,Times New Roman_MSFontService,sans-serif" font-weight="400" font-size="55" transform="matrix(1 0 0 1 1826.89 1731)">3+</text><text font-family="Times New Roman,Times New Roman_MSFontService,sans-serif" font-weight="400" font-size="83" transform="matrix(1 0 0 1 2192.14 1755)">Al(OH)</text><text font-family="Times New Roman,Times New Roman_MSFontService,sans-serif" font-weight="400" font-size="55" transform="matrix(1 0 0 1 2448.81 1775)">3</text><text font-family="Times New Roman,Times New Roman_MSFontService,sans-serif" font-weight="400" font-size="83" transform="matrix(1 0 0 1 2771.18 1759)">AlO</text><text font-family="Times New Roman,Times New Roman_MSFontService,sans-serif" font-weight="400" font-size="55" transform="matrix(1 0 0 1 2913.27 1779)">2</text><text font-family="Times New Roman,Times New Roman_MSFontService,sans-serif" font-weight="400" font-size="83" transform="matrix(1 0 0 1 2914.65 1716)">-</text><path d="M2491 1711.85 2744.79 1711.85 2744.79 1714.15 2491 1714.15ZM2740.2 1699.25 2767.7 1713 2740.2 1726.75Z"/><path d="M2513.92 1742.85 2767.7 1742.85 2767.7 1745.15 2513.92 1745.15ZM2518.5 1757.75 2491 1744 2518.5 1730.25Z"/><path d="M1897 1710.85 2150.79 1710.85 2150.79 1713.15 1897 1713.15ZM2146.2 1698.25 2173.7 1712 2146.2 1725.75Z"/><path d="M1919.92 1741.85 2173.7 1741.85 2173.7 1744.15 1919.92 1744.15ZM1924.5 1756.75 1897 1743 1924.5 1729.25Z"/><text font-family="Times New Roman,Times New Roman_MSFontService,sans-serif" font-weight="400" font-size="48" transform="matrix(1 0 0 1 1979.82 1698)">3OH</text><text font-family="Times New Roman,Times New Roman_MSFontService,sans-serif" font-weight="400" font-size="32" transform="matrix(1 0 0 1 2073.78 1684)">-</text><text font-family="Times New Roman,Times New Roman_MSFontService,sans-serif" font-weight="400" font-size="48" transform="matrix(1 0 0 1 2597.49 1696)">OH</text><text font-family="Times New Roman,Times New Roman_MSFontService,sans-serif" font-weight="400" font-size="32" transform="matrix(1 0 0 1 2667.39 1682)">-</text><text font-family="Times New Roman,Times New Roman_MSFontService,sans-serif" font-weight="400" font-size="48" transform="matrix(1 0 0 1 1996.03 1797)">3H</text><text font-family="Times New Roman,Times New Roman_MSFontService,sans-serif" font-weight="400" font-size="32" transform="matrix(1 0 0 1 2055.04 1783)">+</text><text font-family="Times New Roman,Times New Roman_MSFontService,sans-serif" font-weight="400" font-size="48" transform="matrix(1 0 0 1 2611.38 1797)">H</text><text font-family="Times New Roman,Times New Roman_MSFontService,sans-serif" font-weight="400" font-size="32" transform="matrix(1 0 0 1 2646.32 1783)">+</text><text font-family="Source Han Serif SC,Source Han Serif SC_MSFontService,sans-serif" font-weight="400" font-size="48" transform="matrix(1 0 0 1 1912.15 1646)">强碱、弱碱</text><text font-family="Source Han Serif SC,Source Han Serif SC_MSFontService,sans-serif" font-weight="400" font-size="48" transform="matrix(1 0 0 1 1981.46 1855)">强酸</text><text font-family="Source Han Serif SC,Source Han Serif SC_MSFontService,sans-serif" font-weight="400" font-size="48" transform="matrix(1 0 0 1 2515.54 1863)">强酸、弱酸</text><text font-family="Source Han Serif SC,Source Han Serif SC_MSFontService,sans-serif" font-weight="400" font-size="48" transform="matrix(1 0 0 1 2588.43 1639)">强碱</text><text font-family="Source Han Serif SC Heavy,Source Han Serif SC Heavy_MSFontService,sans-serif" font-weight="900" font-size="48" transform="matrix(1 0 0 1 1482.31 1744)">其中</text></g></svg>