<svg width="2540" height="1243" xmlns="http://www.w3.org/2000/svg" xmlns:xlink="http://www.w3.org/1999/xlink" xml:space="preserve" overflow="hidden"><g transform="translate(-741 -531)"><path d="M1904.92 883.157C1906.97 883.157 1908.98 883.265 1910.94 883.481 1912.89 883.697 1915.35 884.183 1918.29 884.94L1918.29 895.882 1914.28 895.882C1913.66 893.505 1912.87 891.654 1911.93 890.33 1910.98 889.006 1909.87 888.081 1908.6 887.554 1907.33 887.027 1905.69 886.764 1903.66 886.764 1901.9 886.764 1900.33 887.088 1898.94 887.736 1897.55 888.385 1896.45 889.364 1895.64 890.674 1894.83 891.985 1894.42 893.545 1894.42 895.355 1894.42 897.274 1894.76 898.895 1895.45 900.219 1896.14 901.543 1897.22 902.772 1898.68 903.907 1900.13 905.041 1902.3 906.311 1905.16 907.716 1908.62 909.445 1911.3 911.053 1913.2 912.539 1915.11 914.025 1916.6 915.72 1917.66 917.625 1918.73 919.53 1919.26 921.752 1919.26 924.292 1919.26 927.129 1918.82 929.527 1917.93 931.486 1917.03 933.444 1915.8 935.038 1914.22 936.268 1912.64 937.497 1910.75 938.389 1908.54 938.943 1906.34 939.496 1903.93 939.773 1901.31 939.773 1897.07 939.773 1892.18 939.057 1886.64 937.625L1886.64 926.521 1890.69 926.521C1891.23 928.899 1891.96 930.776 1892.88 932.154 1893.8 933.532 1894.99 934.552 1896.45 935.214 1897.91 935.876 1899.78 936.207 1902.08 936.207 1905.24 936.207 1907.67 935.383 1909.35 933.735 1911.04 932.087 1911.89 929.682 1911.89 926.521 1911.89 924.495 1911.54 922.792 1910.83 921.414 1910.13 920.037 1908.98 918.74 1907.39 917.524 1905.79 916.308 1903.36 914.89 1900.09 913.268 1896.93 911.701 1894.43 910.168 1892.6 908.669 1890.76 907.169 1889.39 905.541 1888.48 903.785 1887.58 902.029 1887.13 900.111 1887.13 898.03 1887.13 895.004 1887.83 892.377 1889.25 890.148 1890.67 887.919 1892.75 886.196 1895.49 884.98 1898.24 883.765 1901.38 883.157 1904.92 883.157Z" fill-rule="evenodd"/><text fill="#000000" fill-opacity="0" font-family="Arial,Arial_MSFontService,sans-serif" font-size="56.6167" x="1886.64" y="932.696">S</text><path d="M1949.85 886.723C1947.42 886.723 1945.33 887.29 1943.59 888.425 1941.85 889.56 1940.4 891.174 1939.25 893.268 1938.1 895.362 1937.27 897.895 1936.74 900.867 1936.21 903.839 1935.95 907.149 1935.95 910.796 1935.95 919.091 1937.16 925.4 1939.58 929.723 1941.99 934.046 1945.53 936.207 1950.17 936.207 1953.12 936.207 1955.62 935.268 1957.67 933.39 1959.72 931.513 1961.26 928.763 1962.29 925.143 1963.32 921.523 1963.83 917.294 1963.83 912.458 1963.83 906.568 1963.23 901.684 1962.03 897.807 1960.83 893.93 1959.18 891.114 1957.1 889.357 1955.02 887.601 1952.61 886.723 1949.85 886.723ZM1950.13 883.157C1954.94 883.157 1958.99 884.217 1962.27 886.338 1965.55 888.459 1968.03 891.58 1969.69 895.7 1971.35 899.82 1972.18 904.839 1972.18 910.756 1972.18 917.078 1971.23 922.414 1969.34 926.764 1967.45 931.114 1964.78 934.37 1961.34 936.531 1957.89 938.693 1953.88 939.773 1949.28 939.773 1946.04 939.773 1943.09 939.24 1940.43 938.173 1937.77 937.105 1935.48 935.444 1933.58 933.188 1931.67 930.932 1930.2 928.047 1929.16 924.535 1928.12 921.023 1927.6 916.821 1927.6 911.931 1927.6 905.906 1928.52 900.732 1930.36 896.409 1932.19 892.086 1934.82 888.797 1938.24 886.541 1941.66 884.285 1945.62 883.157 1950.13 883.157Z" fill-rule="evenodd"/><text fill="#000000" fill-opacity="0" font-family="Arial,Arial_MSFontService,sans-serif" font-size="56.6167" x="1927.6" y="932.696">O</text><path d="M1994.41 917.397C1996.48 917.397 1998.24 917.63 1999.7 918.097 2001.16 918.563 2002.35 919.194 2003.26 919.988 2004.17 920.782 2004.83 921.736 2005.24 922.848 2005.65 923.96 2005.85 925.161 2005.85 926.452 2005.85 927.226 2005.8 927.946 2005.69 928.611 2005.58 929.276 2005.39 929.932 2005.12 930.577 2004.85 931.222 2004.5 931.872 2004.06 932.528 2003.63 933.183 2003.08 933.878 2002.43 934.613 2001.93 935.248 2001.28 935.983 2000.49 936.817 1999.69 937.651 1998.83 938.544 1997.88 939.497 1996.94 940.451 1995.95 941.443 1994.92 942.476 1993.89 943.509 1992.88 944.531 1991.91 945.544 1990.94 946.557 1990.04 947.539 1989.23 948.493 1988.42 949.446 1987.75 950.319 1987.23 951.114L1998.26 951.114C1999.19 951.114 1999.93 951.079 2000.49 951.009 2001.05 950.94 2001.51 950.786 2001.87 950.548 2002.24 950.31 2002.55 949.947 2002.81 949.461 2003.07 948.974 2003.37 948.304 2003.71 947.45L2006.48 947.45C2006.38 948.86 2006.28 950.28 2006.19 951.709 2006.1 953.139 2006.01 954.559 2005.91 955.969L1980.68 955.969 1980.68 954.42C1981.16 953.348 1981.71 952.29 1982.35 951.248 1982.99 950.205 1983.7 949.148 1984.49 948.076 1985.29 947.003 1986.19 945.896 1987.2 944.755 1988.22 943.613 1989.34 942.426 1990.57 941.195 1992.44 939.329 1993.96 937.735 1995.13 936.415 1996.3 935.094 1997.22 933.918 1997.9 932.885 1998.57 931.853 1999.03 930.9 1999.28 930.026 1999.53 929.152 1999.66 928.219 1999.66 927.226 1999.66 926.213 1999.51 925.28 1999.22 924.426 1998.94 923.572 1998.52 922.848 1997.99 922.252 1997.45 921.656 1996.77 921.19 1995.95 920.852 1995.12 920.514 1994.17 920.346 1993.1 920.346 1991.26 920.346 1989.71 920.847 1988.46 921.85 1987.2 922.853 1986.23 924.307 1985.54 926.213L1981.64 926.213 1981.64 920.405C1984.18 919.353 1986.51 918.588 1988.65 918.112 1990.78 917.635 1992.71 917.397 1994.41 917.397Z" fill-rule="evenodd"/><text fill="#000000" fill-opacity="0" font-family="Arial,Arial_MSFontService,sans-serif" font-size="38.5718" x="1980.68" y="951.147">2</text><path d="M844.564 883.805 861.626 883.805 861.626 885.791C860.437 886.088 859.579 886.385 859.053 886.683 858.526 886.98 858.107 887.351 857.796 887.797 857.486 888.243 857.256 888.912 857.107 889.803 856.959 890.695 856.884 892.073 856.884 893.937L856.884 908.284 879.418 908.284 879.418 893.937C879.418 891.586 879.303 889.979 879.073 889.114 878.843 888.25 878.458 887.588 877.918 887.128 877.378 886.669 876.31 886.223 874.716 885.791L874.716 883.805 891.697 883.805 891.697 885.791C890.184 886.169 889.131 886.595 888.536 887.068 887.942 887.54 887.537 888.25 887.32 889.195 887.104 890.141 886.996 891.721 886.996 893.937L886.996 928.993C886.996 930.56 887.037 931.735 887.118 932.519 887.199 933.302 887.334 933.931 887.523 934.404 887.712 934.876 887.942 935.261 888.212 935.559 888.482 935.856 888.867 936.126 889.367 936.369 889.867 936.612 890.644 936.869 891.697 937.139L891.697 939.125 874.716 939.125 874.716 937.139C876.202 936.761 877.243 936.342 877.837 935.883 878.431 935.423 878.843 934.721 879.073 933.775 879.303 932.83 879.418 931.236 879.418 928.993L879.418 912.012 856.884 912.012 856.884 928.993C856.884 930.803 856.945 932.127 857.067 932.965 857.188 933.802 857.391 934.464 857.675 934.951 857.958 935.437 858.377 935.842 858.931 936.166 859.485 936.491 860.383 936.815 861.626 937.139L861.626 939.125 844.564 939.125 844.564 937.139C846.239 936.707 847.36 936.227 847.928 935.7 848.495 935.174 848.867 934.424 849.042 933.451 849.218 932.478 849.306 930.992 849.306 928.993L849.306 893.937C849.306 892.073 849.238 890.715 849.103 889.864 848.968 889.013 848.745 888.351 848.434 887.878 848.124 887.405 847.712 887.027 847.198 886.743 846.685 886.46 845.807 886.142 844.564 885.791Z" fill-rule="evenodd"/><text fill="#000000" fill-opacity="0" font-family="Arial,Arial_MSFontService,sans-serif" font-size="55.3198" x="844.564" y="932.21">H</text><path d="M914.161 917.397C916.226 917.397 917.988 917.63 919.448 918.097 920.907 918.563 922.094 919.194 923.007 919.988 923.92 920.782 924.581 921.736 924.988 922.848 925.395 923.96 925.598 925.161 925.598 926.452 925.598 927.226 925.544 927.946 925.434 928.611 925.325 929.276 925.137 929.932 924.869 930.577 924.6 931.222 924.248 931.872 923.811 932.528 923.374 933.183 922.828 933.878 922.173 934.613 921.677 935.248 921.031 935.983 920.237 936.817 919.443 937.651 918.574 938.544 917.631 939.497 916.688 940.451 915.7 941.443 914.667 942.476 913.635 943.509 912.632 944.531 911.659 945.544 910.686 946.557 909.792 947.539 908.978 948.493 908.164 949.446 907.499 950.319 906.983 951.114L918.003 951.114C918.936 951.114 919.681 951.079 920.237 951.009 920.793 950.94 921.255 950.786 921.622 950.548 921.989 950.31 922.302 949.947 922.56 949.461 922.818 948.974 923.116 948.304 923.454 947.45L926.224 947.45C926.124 948.86 926.03 950.28 925.941 951.709 925.851 953.139 925.757 954.559 925.658 955.969L900.43 955.969 900.43 954.42C900.906 953.348 901.462 952.29 902.098 951.248 902.733 950.205 903.448 949.148 904.242 948.076 905.037 947.003 905.94 945.896 906.953 944.755 907.965 943.613 909.087 942.426 910.318 941.195 912.185 939.329 913.704 937.735 914.876 936.415 916.047 935.094 916.971 933.918 917.646 932.885 918.321 931.853 918.782 930.9 919.031 930.026 919.279 929.152 919.403 928.219 919.403 927.226 919.403 926.213 919.259 925.28 918.971 924.426 918.683 923.572 918.271 922.848 917.735 922.252 917.199 921.656 916.519 921.19 915.695 920.852 914.871 920.514 913.922 920.346 912.85 920.346 911.004 920.346 909.455 920.847 908.204 921.85 906.953 922.853 905.98 924.307 905.285 926.213L901.383 926.213 901.383 920.405C903.925 919.353 906.263 918.588 908.397 918.112 910.532 917.635 912.453 917.397 914.161 917.397Z" fill-rule="evenodd"/><text fill="#000000" fill-opacity="0" font-family="Arial,Arial_MSFontService,sans-serif" font-size="38.5718" x="900.43" y="951.147">2</text><path d="M957.558 883.157C959.612 883.157 961.618 883.265 963.577 883.481 965.536 883.697 967.987 884.183 970.932 884.94L970.932 895.882 966.92 895.882C966.299 893.505 965.515 891.654 964.57 890.33 963.624 889.006 962.516 888.081 961.246 887.554 959.977 887.027 958.328 886.764 956.302 886.764 954.546 886.764 952.972 887.088 951.581 887.736 950.189 888.385 949.088 889.364 948.278 890.674 947.467 891.985 947.062 893.545 947.062 895.355 947.062 897.274 947.406 898.895 948.095 900.219 948.784 901.543 949.858 902.772 951.317 903.907 952.776 905.041 954.938 906.311 957.802 907.716 961.26 909.445 963.942 911.053 965.846 912.539 967.751 914.025 969.237 915.72 970.304 917.625 971.372 919.53 971.905 921.752 971.905 924.292 971.905 927.129 971.459 929.527 970.568 931.486 969.676 933.444 968.44 935.038 966.859 936.268 965.279 937.497 963.388 938.389 961.186 938.943 958.984 939.496 956.572 939.773 953.952 939.773 949.71 939.773 944.819 939.057 939.281 937.625L939.281 926.521 943.333 926.521C943.874 928.899 944.603 930.776 945.522 932.154 946.44 933.532 947.629 934.552 949.088 935.214 950.547 935.876 952.425 936.207 954.722 936.207 957.883 936.207 960.308 935.383 961.996 933.735 963.685 932.087 964.529 929.682 964.529 926.521 964.529 924.495 964.178 922.792 963.475 921.414 962.773 920.037 961.625 918.74 960.031 917.524 958.437 916.308 956.005 914.89 952.736 913.268 949.575 911.701 947.075 910.168 945.238 908.669 943.401 907.169 942.03 905.541 941.125 903.785 940.22 902.029 939.767 900.111 939.767 898.03 939.767 895.004 940.476 892.377 941.895 890.148 943.313 887.919 945.393 886.196 948.136 884.98 950.878 883.765 954.019 883.157 957.558 883.157Z" fill-rule="evenodd"/><text fill="#000000" fill-opacity="0" font-family="Arial,Arial_MSFontService,sans-serif" font-size="56.6167" x="939.281" y="932.696">S</text><path d="M2470.37 884.98C2472.42 884.98 2474.43 885.088 2476.39 885.304 2478.35 885.52 2480.8 886.007 2483.74 886.763L2483.74 897.706 2479.73 897.706C2479.11 895.328 2478.33 893.477 2477.38 892.153 2476.44 890.829 2475.33 889.904 2474.06 889.377 2472.79 888.85 2471.14 888.587 2469.11 888.587 2467.36 888.587 2465.78 888.911 2464.39 889.56 2463 890.208 2461.9 891.187 2461.09 892.498 2460.28 893.808 2459.87 895.368 2459.87 897.179 2459.87 899.097 2460.22 900.718 2460.91 902.042 2461.6 903.366 2462.67 904.595 2464.13 905.73 2465.59 906.865 2467.75 908.135 2470.61 909.539 2474.07 911.269 2476.75 912.876 2478.66 914.362 2480.56 915.848 2482.05 917.544 2483.12 919.448 2484.18 921.353 2484.72 923.575 2484.72 926.115 2484.72 928.952 2484.27 931.35 2483.38 933.309 2482.49 935.268 2481.25 936.862 2479.67 938.091 2478.09 939.32 2476.2 940.212 2474 940.766 2471.79 941.32 2469.38 941.597 2466.76 941.597 2462.52 941.597 2457.63 940.881 2452.09 939.449L2452.09 928.344 2456.14 928.344C2456.68 930.722 2457.41 932.6 2458.33 933.977 2459.25 935.355 2460.44 936.375 2461.9 937.037 2463.36 937.699 2465.24 938.03 2467.53 938.03 2470.69 938.03 2473.12 937.206 2474.81 935.558 2476.5 933.91 2477.34 931.505 2477.34 928.344 2477.34 926.318 2476.99 924.616 2476.29 923.238 2475.58 921.86 2474.44 920.563 2472.84 919.347 2471.25 918.131 2468.82 916.713 2465.55 915.092 2462.39 913.525 2459.89 911.991 2458.05 910.492 2456.21 908.992 2454.84 907.365 2453.94 905.608 2453.03 903.852 2452.58 901.934 2452.58 899.853 2452.58 896.827 2453.29 894.2 2454.71 891.971 2456.12 889.742 2458.2 888.019 2460.95 886.804 2463.69 885.588 2466.83 884.98 2470.37 884.98Z" fill-rule="evenodd"/><text fill="#000000" fill-opacity="0" font-family="Arial,Arial_MSFontService,sans-serif" font-size="56.6167" x="2452.09" y="934.52">S</text><path d="M2515.3 888.546C2512.87 888.546 2510.78 889.114 2509.04 890.248 2507.3 891.383 2505.85 892.998 2504.7 895.091 2503.56 897.185 2502.72 899.718 2502.19 902.69 2501.66 905.662 2501.4 908.972 2501.4 912.62 2501.4 920.914 2502.61 927.223 2505.03 931.546 2507.45 935.869 2510.98 938.03 2515.63 938.03 2518.57 938.03 2521.07 937.091 2523.12 935.214 2525.18 933.336 2526.72 930.587 2527.74 926.966 2528.77 923.346 2529.28 919.117 2529.28 914.281 2529.28 908.391 2528.68 903.508 2527.48 899.631 2526.28 895.753 2524.64 892.937 2522.56 891.181 2520.48 889.424 2518.06 888.546 2515.3 888.546ZM2515.59 884.98C2520.4 884.98 2524.44 886.04 2527.72 888.161 2531.01 890.282 2533.48 893.403 2535.14 897.523 2536.8 901.643 2537.63 906.662 2537.63 912.579 2537.63 918.901 2536.69 924.237 2534.8 928.587 2532.9 932.937 2530.24 936.193 2526.79 938.354 2523.35 940.516 2519.33 941.597 2514.73 941.597 2511.49 941.597 2508.54 941.063 2505.88 939.996 2503.22 938.929 2500.94 937.267 2499.03 935.011 2497.13 932.755 2495.65 929.871 2494.61 926.358 2493.57 922.846 2493.05 918.645 2493.05 913.754 2493.05 907.729 2493.97 902.555 2495.81 898.232 2497.65 893.909 2500.27 890.62 2503.69 888.364 2507.11 886.108 2511.07 884.98 2515.59 884.98Z" fill-rule="evenodd"/><text fill="#000000" fill-opacity="0" font-family="Arial,Arial_MSFontService,sans-serif" font-size="56.6167" x="2493.05" y="934.52">O</text><path d="M2559.81 919.22C2561.39 919.22 2562.88 919.389 2564.26 919.727 2565.64 920.064 2566.84 920.575 2567.85 921.26 2568.86 921.945 2569.65 922.799 2570.22 923.822 2570.78 924.845 2571.06 926.031 2571.06 927.381 2571.06 928.652 2570.89 929.774 2570.53 930.747 2570.17 931.72 2569.62 932.604 2568.88 933.398 2568.13 934.192 2567.22 934.912 2566.14 935.557 2565.05 936.203 2563.81 936.823 2562.4 937.419L2562.4 937.776C2563.73 938.015 2564.97 938.397 2566.12 938.923 2567.27 939.449 2568.28 940.114 2569.14 940.919 2570.01 941.723 2570.69 942.651 2571.18 943.704 2571.68 944.756 2571.93 945.918 2571.93 947.188 2571.93 948.777 2571.63 950.251 2571.04 951.612 2570.44 952.972 2569.55 954.148 2568.35 955.141 2567.16 956.134 2565.69 956.908 2563.95 957.464 2562.2 958.02 2560.15 958.298 2557.81 958.298 2555.96 958.298 2554.09 958.115 2552.18 957.747 2550.27 957.38 2548.47 956.898 2546.76 956.303L2546.76 949.869 2550.6 949.869C2550.92 950.862 2551.3 951.711 2551.73 952.416 2552.17 953.121 2552.68 953.696 2553.27 954.143 2553.85 954.59 2554.53 954.913 2555.29 955.111 2556.06 955.31 2556.93 955.409 2557.9 955.409 2560.46 955.409 2562.4 954.799 2563.72 953.577 2565.04 952.356 2565.7 950.505 2565.7 948.022 2565.7 945.381 2564.83 943.381 2563.1 942.021 2561.36 940.661 2558.78 939.98 2555.37 939.98L2552.75 939.98 2552.75 937.121C2554.83 937.022 2556.63 936.729 2558.15 936.242 2559.67 935.756 2560.94 935.125 2561.95 934.351 2562.96 933.577 2563.72 932.673 2564.21 931.641 2564.71 930.608 2564.96 929.506 2564.96 928.334 2564.96 926.428 2564.39 924.924 2563.26 923.822 2562.13 922.72 2560.49 922.169 2558.35 922.169 2556.54 922.169 2555.03 922.665 2553.8 923.658 2552.58 924.651 2551.65 926.13 2550.99 928.096L2547.21 928.096 2547.21 922.228C2549.55 921.236 2551.76 920.486 2553.83 919.98 2555.91 919.473 2557.9 919.22 2559.81 919.22Z" fill-rule="evenodd"/><text fill="#000000" fill-opacity="0" font-family="Arial,Arial_MSFontService,sans-serif" font-size="39.0781" x="2546.76" y="953.414">3</text><path d="M3085.1 920.644C3079.61 920.698 3075.51 921.428 3072.78 922.833 3070.05 924.238 3068.68 926.359 3068.68 929.196 3068.68 930.736 3068.99 931.952 3069.62 932.843 3070.24 933.735 3071.02 934.349 3071.97 934.687 3072.91 935.025 3074.03 935.194 3075.33 935.194 3077.17 935.194 3078.84 934.748 3080.34 933.856 3081.84 932.965 3083 931.83 3083.84 930.452 3084.68 929.074 3085.1 927.71 3085.1 926.359ZM3080.72 899.692C3083.4 899.692 3085.54 900.117 3087.16 900.968 3088.79 901.82 3090 903.123 3090.81 904.879 3091.62 906.635 3092.03 909.283 3092.03 912.823L3092.03 926.926C3092.03 928.926 3092.04 930.337 3092.07 931.161 3092.1 931.985 3092.18 932.749 3092.31 933.451 3092.45 934.154 3092.65 934.714 3092.92 935.133 3093.19 935.552 3093.59 935.91 3094.11 936.207 3094.64 936.504 3095.5 936.815 3096.69 937.139L3096.69 939.125 3085.58 939.125 3085.79 933.33 3085.18 933.167C3082.83 935.572 3080.62 937.274 3078.55 938.274 3076.49 939.274 3074.29 939.773 3071.97 939.773 3069.91 939.773 3068.1 939.375 3066.54 938.578 3064.97 937.781 3063.77 936.66 3062.93 935.214 3062.09 933.769 3061.67 932.1 3061.67 930.209 3061.67 926.264 3063.62 923.218 3067.53 921.07 3071.43 918.922 3077.29 917.672 3085.1 917.321L3085.1 914.687C3085.1 911.877 3084.83 909.662 3084.29 908.04 3083.75 906.419 3082.9 905.231 3081.73 904.474 3080.57 903.718 3079.02 903.339 3077.07 903.339 3074.97 903.339 3073.27 903.893 3071.99 905.001 3070.7 906.109 3069.74 907.77 3069.09 909.986L3063.78 909.986 3063.78 904.717C3066.37 903.366 3068.54 902.373 3070.26 901.738 3071.99 901.104 3073.72 900.604 3075.45 900.239 3077.18 899.874 3078.94 899.692 3080.72 899.692ZM3122.25 883.157C3124.3 883.157 3126.31 883.265 3128.27 883.481 3130.22 883.697 3132.68 884.183 3135.62 884.94L3135.62 895.882 3131.61 895.882C3130.99 893.505 3130.2 891.654 3129.26 890.33 3128.31 889.006 3127.21 888.081 3125.94 887.554 3124.67 887.027 3123.02 886.764 3120.99 886.764 3119.24 886.764 3117.66 887.088 3116.27 887.736 3114.88 888.385 3113.78 889.364 3112.97 890.674 3112.16 891.985 3111.75 893.545 3111.75 895.355 3111.75 897.274 3112.1 898.895 3112.78 900.219 3113.47 901.543 3114.55 902.772 3116.01 903.907 3117.47 905.041 3119.63 906.311 3122.49 907.716 3125.95 909.445 3128.63 911.053 3130.54 912.539 3132.44 914.025 3133.93 915.72 3134.99 917.625 3136.06 919.53 3136.59 921.752 3136.59 924.292 3136.59 927.129 3136.15 929.527 3135.26 931.486 3134.37 933.444 3133.13 935.038 3131.55 936.268 3129.97 937.497 3128.08 938.389 3125.87 938.943 3123.67 939.496 3121.26 939.773 3118.64 939.773 3114.4 939.773 3109.51 939.057 3103.97 937.625L3103.97 926.521 3108.02 926.521C3108.56 928.899 3109.29 930.776 3110.21 932.154 3111.13 933.532 3112.32 934.552 3113.78 935.214 3115.24 935.876 3117.11 936.207 3119.41 936.207 3122.57 936.207 3125 935.383 3126.69 933.735 3128.37 932.087 3129.22 929.682 3129.22 926.521 3129.22 924.495 3128.87 922.792 3128.16 921.414 3127.46 920.037 3126.31 918.74 3124.72 917.524 3123.13 916.308 3120.69 914.89 3117.42 913.268 3114.26 911.701 3111.76 910.168 3109.93 908.669 3108.09 907.169 3106.72 905.541 3105.81 903.785 3104.91 902.029 3104.46 900.111 3104.46 898.03 3104.46 895.004 3105.17 892.377 3106.58 890.148 3108 887.919 3110.08 886.196 3112.82 884.98 3115.57 883.765 3118.71 883.157 3122.25 883.157ZM3040.72 883.157C3043.18 883.157 3045.45 883.285 3047.53 883.542 3049.61 883.798 3051.99 884.278 3054.66 884.98L3054.66 896.206 3050.65 896.206C3050 893.856 3049.18 891.985 3048.18 890.593 3047.18 889.202 3046.01 888.209 3044.69 887.615 3043.37 887.02 3041.77 886.723 3039.91 886.723 3037.13 886.723 3034.65 887.648 3032.47 889.499 3030.3 891.35 3028.59 894.133 3027.34 897.848 3026.1 901.563 3025.48 906.055 3025.48 911.323 3025.48 916.619 3025.99 921.138 3027.02 924.88 3028.05 928.622 3029.56 931.445 3031.56 933.35 3033.56 935.255 3036.02 936.207 3038.94 936.207 3041.15 936.207 3042.96 935.89 3044.37 935.255 3045.77 934.62 3046.95 933.613 3047.91 932.235 3048.87 930.857 3049.78 928.831 3050.65 926.156L3054.66 926.156 3054.66 937.747C3052.12 938.422 3049.52 938.929 3046.86 939.267 3044.2 939.604 3041.27 939.773 3038.08 939.773 3031.22 939.773 3026.03 937.45 3022.52 932.803 3019.01 928.156 3017.25 921.225 3017.25 912.012 3017.25 906.23 3018.17 901.164 3019.99 896.814 3021.81 892.464 3024.49 889.101 3028.03 886.723 3031.57 884.345 3035.8 883.157 3040.72 883.157Z" fill-rule="evenodd"/><text fill="#000000" fill-opacity="0" font-family="Arial,Arial_MSFontService,sans-serif" font-size="56.6167" x="3017.25" y="932.696">CaS</text><path d="M3166.69 886.723C3164.26 886.723 3162.17 887.29 3160.43 888.425 3158.69 889.56 3157.24 891.174 3156.09 893.268 3154.94 895.362 3154.11 897.895 3153.58 900.867 3153.05 903.839 3152.79 907.149 3152.79 910.796 3152.79 919.091 3154 925.4 3156.42 929.723 3158.83 934.046 3162.37 936.207 3167.01 936.207 3169.96 936.207 3172.46 935.268 3174.51 933.39 3176.57 931.513 3178.11 928.763 3179.13 925.143 3180.16 921.523 3180.67 917.294 3180.67 912.458 3180.67 906.568 3180.07 901.684 3178.87 897.807 3177.67 893.93 3176.03 891.114 3173.94 889.357 3171.86 887.601 3169.45 886.723 3166.69 886.723ZM3166.97 883.157C3171.78 883.157 3175.83 884.217 3179.11 886.338 3182.39 888.459 3184.87 891.58 3186.53 895.7 3188.19 899.82 3189.02 904.839 3189.02 910.756 3189.02 917.078 3188.08 922.414 3186.18 926.764 3184.29 931.114 3181.62 934.37 3178.18 936.531 3174.74 938.693 3170.72 939.773 3166.12 939.773 3162.88 939.773 3159.93 939.24 3157.27 938.173 3154.61 937.105 3152.32 935.444 3150.42 933.188 3148.51 930.932 3147.04 928.047 3146 924.535 3144.96 921.023 3144.44 916.821 3144.44 911.931 3144.44 905.906 3145.36 900.732 3147.2 896.409 3149.03 892.086 3151.66 888.797 3155.08 886.541 3158.5 884.285 3162.46 883.157 3166.97 883.157Z" fill-rule="evenodd"/><text fill="#000000" fill-opacity="0" font-family="Arial,Arial_MSFontService,sans-serif" font-size="56.6167" x="3144.44" y="932.696">O</text><path d="M3212.65 924.784C3210.75 927.544 3208.85 930.284 3206.95 933.004 3205.05 935.725 3203.14 938.455 3201.22 941.195L3201.22 941.553 3212.65 941.553 3212.65 935.566C3212.65 934.891 3212.66 934.057 3212.68 933.064 3212.7 932.071 3212.73 931.063 3212.76 930.041 3212.79 929.018 3212.82 928.045 3212.86 927.122 3212.9 926.198 3212.94 925.419 3212.98 924.784ZM3213.52 917.814 3218.25 917.814 3218.25 941.553 3218.79 941.553C3219.6 941.553 3220.26 941.513 3220.77 941.434 3221.28 941.354 3221.68 941.19 3221.99 940.942 3222.3 940.694 3222.56 940.346 3222.77 939.9 3222.97 939.453 3223.2 938.872 3223.44 938.157L3225.97 938.157C3225.91 939.249 3225.84 940.331 3225.77 941.404 3225.7 942.476 3225.64 943.568 3225.58 944.68L3218.25 944.68 3218.25 948.582C3218.25 949.734 3218.28 950.627 3218.33 951.263 3218.38 951.898 3218.53 952.394 3218.77 952.752 3219.02 953.109 3219.39 953.377 3219.88 953.556 3220.36 953.735 3221.04 953.943 3221.92 954.182L3221.92 955.969 3209.05 955.969 3209.05 954.182C3209.65 954.023 3210.15 953.879 3210.57 953.75 3210.99 953.621 3211.33 953.472 3211.61 953.303 3211.89 953.134 3212.09 952.936 3212.22 952.707 3212.35 952.479 3212.45 952.191 3212.52 951.843 3212.59 951.496 3212.63 951.059 3212.64 950.533 3212.65 950.007 3212.65 949.356 3212.65 948.582L3212.65 944.68 3195.89 944.68 3195.89 942.327C3198.84 938.217 3201.78 934.131 3204.7 930.07 3207.62 926.01 3210.56 921.924 3213.52 917.814Z" fill-rule="evenodd"/><text fill="#000000" fill-opacity="0" font-family="Arial,Arial_MSFontService,sans-serif" font-size="38.1548" x="3195.89" y="951.199">4</text><path d="M2477.11 606.218C2471.63 606.272 2467.52 607.002 2464.79 608.407 2462.07 609.812 2460.7 611.932 2460.7 614.769 2460.7 616.309 2461.01 617.525 2461.63 618.417 2462.25 619.308 2463.04 619.923 2463.98 620.261 2464.93 620.599 2466.05 620.767 2467.35 620.767 2469.19 620.767 2470.85 620.322 2472.35 619.43 2473.85 618.538 2475.02 617.404 2475.86 616.026 2476.7 614.648 2477.11 613.283 2477.11 611.932ZM2472.74 585.265C2475.41 585.265 2477.56 585.691 2479.18 586.542 2480.8 587.393 2482.02 588.697 2482.83 590.453 2483.64 592.209 2484.05 594.857 2484.05 598.396L2484.05 612.5C2484.05 614.499 2484.06 615.911 2484.09 616.735 2484.11 617.559 2484.19 618.322 2484.33 619.025 2484.46 619.727 2484.67 620.288 2484.94 620.707 2485.21 621.125 2485.61 621.483 2486.13 621.781 2486.66 622.078 2487.52 622.388 2488.71 622.713L2488.71 624.699 2477.6 624.699 2477.8 618.903 2477.2 618.741C2474.85 621.146 2472.64 622.848 2470.57 623.847 2468.5 624.847 2466.31 625.347 2463.98 625.347 2461.93 625.347 2460.12 624.948 2458.55 624.151 2456.99 623.354 2455.78 622.233 2454.95 620.788 2454.11 619.342 2453.69 617.674 2453.69 615.783 2453.69 611.838 2455.64 608.792 2459.55 606.644 2463.45 604.496 2469.31 603.246 2477.11 602.895L2477.11 600.261C2477.11 597.451 2476.84 595.235 2476.3 593.614 2475.76 591.993 2474.91 590.804 2473.75 590.048 2472.59 589.291 2471.04 588.913 2469.09 588.913 2466.98 588.913 2465.29 589.467 2464 590.575 2462.72 591.682 2461.76 593.344 2461.11 595.559L2455.8 595.559 2455.8 590.291C2458.39 588.94 2460.55 587.947 2462.28 587.312 2464.01 586.677 2465.74 586.177 2467.47 585.813 2469.2 585.448 2470.95 585.265 2472.74 585.265ZM2514.26 568.73C2516.32 568.73 2518.32 568.838 2520.28 569.055 2522.24 569.271 2524.69 569.757 2527.64 570.513L2527.64 581.456 2523.63 581.456C2523.01 579.078 2522.22 577.228 2521.28 575.904 2520.33 574.58 2519.22 573.654 2517.95 573.128 2516.68 572.601 2515.03 572.337 2513.01 572.337 2511.25 572.337 2509.68 572.661 2508.29 573.31 2506.9 573.958 2505.79 574.938 2504.98 576.248 2504.17 577.558 2503.77 579.119 2503.77 580.929 2503.77 582.847 2504.11 584.468 2504.8 585.792 2505.49 587.116 2506.56 588.346 2508.02 589.48 2509.48 590.615 2511.64 591.885 2514.51 593.29 2517.97 595.019 2520.65 596.627 2522.55 598.113 2524.46 599.599 2525.94 601.294 2527.01 603.199 2528.08 605.104 2528.61 607.326 2528.61 609.866 2528.61 612.702 2528.17 615.1 2527.27 617.059 2526.38 619.018 2525.15 620.612 2523.57 621.841 2521.99 623.071 2520.09 623.962 2517.89 624.516 2515.69 625.07 2513.28 625.347 2510.66 625.347 2506.42 625.347 2501.53 624.631 2495.99 623.199L2495.99 612.095 2500.04 612.095C2500.58 614.472 2501.31 616.35 2502.23 617.728 2503.15 619.106 2504.34 620.126 2505.79 620.788 2507.25 621.45 2509.13 621.781 2511.43 621.781 2514.59 621.781 2517.01 620.957 2518.7 619.308 2520.39 617.66 2521.24 615.256 2521.24 612.095 2521.24 610.068 2520.88 608.366 2520.18 606.988 2519.48 605.61 2518.33 604.313 2516.74 603.097 2515.14 601.882 2512.71 600.463 2509.44 598.842 2506.28 597.275 2503.78 595.742 2501.94 594.242 2500.11 592.743 2498.74 591.115 2497.83 589.359 2496.93 587.603 2496.47 585.684 2496.47 583.604 2496.47 580.578 2497.18 577.95 2498.6 575.721 2500.02 573.492 2502.1 571.77 2504.84 570.554 2507.58 569.338 2510.73 568.73 2514.26 568.73ZM2432.74 568.73C2435.19 568.73 2437.46 568.859 2439.54 569.115 2441.62 569.372 2444 569.852 2446.68 570.554L2446.68 581.78 2442.67 581.78C2442.02 579.43 2441.19 577.558 2440.19 576.167 2439.19 574.776 2438.03 573.783 2436.71 573.188 2435.38 572.594 2433.79 572.297 2431.93 572.297 2429.14 572.297 2426.66 573.222 2424.49 575.073 2422.31 576.924 2420.6 579.706 2419.36 583.421 2418.12 587.136 2417.5 591.628 2417.5 596.897 2417.5 602.192 2418.01 606.711 2419.04 610.453 2420.06 614.195 2421.58 617.019 2423.58 618.923 2425.58 620.828 2428.03 621.781 2430.95 621.781 2433.17 621.781 2434.98 621.463 2436.38 620.828 2437.79 620.193 2438.97 619.187 2439.93 617.809 2440.89 616.431 2441.8 614.405 2442.67 611.73L2446.68 611.73 2446.68 623.321C2444.14 623.996 2441.54 624.503 2438.88 624.84 2436.21 625.178 2433.29 625.347 2430.1 625.347 2423.24 625.347 2418.05 623.023 2414.54 618.376 2411.03 613.729 2409.27 606.799 2409.27 597.586 2409.27 591.804 2410.18 586.738 2412.01 582.388 2413.83 578.038 2416.51 574.674 2420.05 572.297 2423.59 569.919 2427.82 568.73 2432.74 568.73Z" fill-rule="evenodd"/><text fill="#000000" fill-opacity="0" font-family="Arial,Arial_MSFontService,sans-serif" font-size="56.6167" x="2409.27" y="618.27">CaS</text><path d="M2558.71 572.297C2556.28 572.297 2554.19 572.864 2552.45 573.999 2550.7 575.134 2549.26 576.748 2548.11 578.842 2546.96 580.936 2546.12 583.469 2545.6 586.441 2545.07 589.413 2544.81 592.722 2544.81 596.37 2544.81 604.665 2546.02 610.973 2548.43 615.296 2550.85 619.619 2554.38 621.781 2559.03 621.781 2561.98 621.781 2564.48 620.842 2566.53 618.964 2568.58 617.086 2570.12 614.337 2571.15 610.717 2572.18 607.096 2572.69 602.868 2572.69 598.032 2572.69 592.142 2572.09 587.258 2570.89 583.381 2569.68 579.504 2568.04 576.687 2565.96 574.931 2563.88 573.175 2561.46 572.297 2558.71 572.297ZM2558.99 568.73C2563.8 568.73 2567.85 569.791 2571.13 571.912 2574.41 574.033 2576.88 577.153 2578.55 581.273 2580.21 585.394 2581.04 590.412 2581.04 596.329 2581.04 602.652 2580.09 607.988 2578.2 612.338 2576.31 616.688 2573.64 619.943 2570.2 622.105 2566.75 624.266 2562.73 625.347 2558.14 625.347 2554.9 625.347 2551.95 624.813 2549.29 623.746 2546.62 622.679 2544.34 621.017 2542.44 618.761 2540.53 616.505 2539.06 613.621 2538.02 610.109 2536.98 606.596 2536.46 602.395 2536.46 597.505 2536.46 591.48 2537.38 586.306 2539.21 581.983 2541.05 577.66 2543.68 574.37 2547.1 572.114 2550.51 569.858 2554.48 568.73 2558.99 568.73Z" fill-rule="evenodd"/><text fill="#000000" fill-opacity="0" font-family="Arial,Arial_MSFontService,sans-serif" font-size="56.6167" x="2536.46" y="618.27">O</text><path d="M2603.21 602.971C2604.8 602.971 2606.28 603.139 2607.66 603.477 2609.04 603.814 2610.24 604.326 2611.25 605.011 2612.27 605.696 2613.06 606.55 2613.62 607.572 2614.19 608.595 2614.47 609.781 2614.47 611.132 2614.47 612.402 2614.29 613.524 2613.93 614.497 2613.58 615.47 2613.03 616.354 2612.28 617.148 2611.54 617.943 2610.62 618.662 2609.54 619.308 2608.46 619.953 2607.21 620.574 2605.8 621.169L2605.8 621.527C2607.13 621.765 2608.37 622.147 2609.53 622.673 2610.68 623.2 2611.69 623.865 2612.55 624.669 2613.41 625.473 2614.09 626.401 2614.59 627.454 2615.09 628.506 2615.33 629.668 2615.33 630.939 2615.33 632.527 2615.04 634.002 2614.44 635.362 2613.84 636.722 2612.95 637.899 2611.76 638.891 2610.57 639.884 2609.1 640.659 2607.35 641.215 2605.6 641.771 2603.56 642.049 2601.22 642.049 2599.37 642.049 2597.49 641.865 2595.59 641.498 2593.68 641.13 2591.87 640.649 2590.17 640.053L2590.17 633.619 2594.01 633.619C2594.33 634.612 2594.7 635.461 2595.14 636.166 2595.58 636.871 2596.09 637.447 2596.67 637.894 2597.26 638.34 2597.93 638.663 2598.7 638.862 2599.46 639.06 2600.33 639.159 2601.31 639.159 2603.87 639.159 2605.81 638.549 2607.13 637.328 2608.45 636.107 2609.11 634.255 2609.11 631.773 2609.11 629.132 2608.24 627.131 2606.5 625.771 2604.77 624.411 2602.19 623.731 2598.77 623.731L2596.15 623.731 2596.15 620.871C2598.24 620.772 2600.04 620.479 2601.56 619.993 2603.08 619.506 2604.34 618.876 2605.36 618.101 2606.37 617.327 2607.12 616.423 2607.62 615.391 2608.12 614.358 2608.36 613.256 2608.36 612.085 2608.36 610.179 2607.8 608.674 2606.67 607.572 2605.53 606.47 2603.9 605.919 2601.75 605.919 2599.95 605.919 2598.43 606.416 2597.21 607.409 2595.99 608.401 2595.05 609.881 2594.4 611.846L2590.61 611.846 2590.61 605.979C2592.96 604.986 2595.16 604.236 2597.24 603.73 2599.31 603.224 2601.31 602.971 2603.21 602.971Z" fill-rule="evenodd"/><text fill="#000000" fill-opacity="0" font-family="Arial,Arial_MSFontService,sans-serif" font-size="39.0781" x="2590.17" y="637.164">3</text><path d="M2405.05 1679.2 2422.11 1679.2 2422.11 1681.19C2420.92 1681.48 2420.06 1681.78 2419.54 1682.08 2419.01 1682.37 2418.59 1682.75 2418.28 1683.19 2417.97 1683.64 2417.74 1684.31 2417.59 1685.2 2417.44 1686.09 2417.37 1687.47 2417.37 1689.33L2417.37 1703.68 2439.9 1703.68 2439.9 1689.33C2439.9 1686.98 2439.79 1685.37 2439.56 1684.51 2439.33 1683.64 2438.94 1682.98 2438.4 1682.52 2437.86 1682.06 2436.79 1681.62 2435.2 1681.19L2435.2 1679.2 2452.18 1679.2 2452.18 1681.19C2450.67 1681.56 2449.61 1681.99 2449.02 1682.46 2448.43 1682.94 2448.02 1683.64 2447.8 1684.59 2447.59 1685.54 2447.48 1687.12 2447.48 1689.33L2447.48 1724.39C2447.48 1725.95 2447.52 1727.13 2447.6 1727.91 2447.68 1728.7 2447.82 1729.33 2448.01 1729.8 2448.2 1730.27 2448.43 1730.66 2448.7 1730.95 2448.97 1731.25 2449.35 1731.52 2449.85 1731.76 2450.35 1732.01 2451.13 1732.26 2452.18 1732.53L2452.18 1734.52 2435.2 1734.52 2435.2 1732.53C2436.69 1732.16 2437.73 1731.74 2438.32 1731.28 2438.92 1730.82 2439.33 1730.12 2439.56 1729.17 2439.79 1728.22 2439.9 1726.63 2439.9 1724.39L2439.9 1707.41 2417.37 1707.41 2417.37 1724.39C2417.37 1726.2 2417.43 1727.52 2417.55 1728.36 2417.67 1729.2 2417.87 1729.86 2418.16 1730.35 2418.44 1730.83 2418.86 1731.24 2419.41 1731.56 2419.97 1731.89 2420.87 1732.21 2422.11 1732.53L2422.11 1734.52 2405.05 1734.52 2405.05 1732.53C2406.72 1732.1 2407.84 1731.62 2408.41 1731.1 2408.98 1730.57 2409.35 1729.82 2409.53 1728.85 2409.7 1727.87 2409.79 1726.39 2409.79 1724.39L2409.79 1689.33C2409.79 1687.47 2409.72 1686.11 2409.59 1685.26 2409.45 1684.41 2409.23 1683.75 2408.92 1683.27 2408.61 1682.8 2408.2 1682.42 2407.68 1682.14 2407.17 1681.85 2406.29 1681.54 2405.05 1681.19Z" fill-rule="evenodd"/><text fill="#000000" fill-opacity="0" font-family="Arial,Arial_MSFontService,sans-serif" font-size="55.3198" x="2405.05" y="1727.6">H</text><path d="M2474.64 1712.79C2476.71 1712.79 2478.47 1713.03 2479.93 1713.49 2481.39 1713.96 2482.58 1714.59 2483.49 1715.38 2484.4 1716.18 2485.06 1717.13 2485.47 1718.24 2485.88 1719.35 2486.08 1720.56 2486.08 1721.85 2486.08 1722.62 2486.03 1723.34 2485.92 1724.01 2485.81 1724.67 2485.62 1725.33 2485.35 1725.97 2485.08 1726.62 2484.73 1727.27 2484.29 1727.92 2483.86 1728.58 2483.31 1729.27 2482.66 1730.01 2482.16 1730.64 2481.51 1731.38 2480.72 1732.21 2479.93 1733.05 2479.06 1733.94 2478.11 1734.89 2477.17 1735.85 2476.18 1736.84 2475.15 1737.87 2474.12 1738.9 2473.12 1739.93 2472.14 1740.94 2471.17 1741.95 2470.28 1742.93 2469.46 1743.89 2468.65 1744.84 2467.98 1745.71 2467.47 1746.51L2478.49 1746.51C2479.42 1746.51 2480.16 1746.47 2480.72 1746.4 2481.28 1746.33 2481.74 1746.18 2482.11 1745.94 2482.47 1745.7 2482.79 1745.34 2483.04 1744.86 2483.3 1744.37 2483.6 1743.7 2483.94 1742.84L2486.71 1742.84C2486.61 1744.25 2486.51 1745.67 2486.42 1747.1 2486.33 1748.53 2486.24 1749.95 2486.14 1751.36L2460.91 1751.36 2460.91 1749.81C2461.39 1748.74 2461.95 1747.69 2462.58 1746.64 2463.22 1745.6 2463.93 1744.54 2464.73 1743.47 2465.52 1742.4 2466.42 1741.29 2467.44 1740.15 2468.45 1739.01 2469.57 1737.82 2470.8 1736.59 2472.67 1734.72 2474.19 1733.13 2475.36 1731.81 2476.53 1730.49 2477.45 1729.31 2478.13 1728.28 2478.8 1727.25 2479.27 1726.29 2479.51 1725.42 2479.76 1724.55 2479.89 1723.61 2479.89 1722.62 2479.89 1721.61 2479.74 1720.67 2479.45 1719.82 2479.17 1718.97 2478.75 1718.24 2478.22 1717.65 2477.68 1717.05 2477 1716.58 2476.18 1716.25 2475.35 1715.91 2474.41 1715.74 2473.33 1715.74 2471.49 1715.74 2469.94 1716.24 2468.69 1717.24 2467.44 1718.25 2466.46 1719.7 2465.77 1721.61L2461.87 1721.61 2461.87 1715.8C2464.41 1714.75 2466.75 1713.98 2468.88 1713.51 2471.02 1713.03 2472.94 1712.79 2474.64 1712.79Z" fill-rule="evenodd"/><text fill="#000000" fill-opacity="0" font-family="Arial,Arial_MSFontService,sans-serif" font-size="38.5718" x="2460.91" y="1746.54">2</text><path d="M2518.04 1678.55C2520.1 1678.55 2522.1 1678.66 2524.06 1678.88 2526.02 1679.09 2528.47 1679.58 2531.42 1680.33L2531.42 1691.28 2527.4 1691.28C2526.78 1688.9 2526 1687.05 2525.05 1685.72 2524.11 1684.4 2523 1683.48 2521.73 1682.95 2520.46 1682.42 2518.81 1682.16 2516.79 1682.16 2515.03 1682.16 2513.46 1682.48 2512.06 1683.13 2510.67 1683.78 2509.57 1684.76 2508.76 1686.07 2507.95 1687.38 2507.55 1688.94 2507.55 1690.75 2507.55 1692.67 2507.89 1694.29 2508.58 1695.61 2509.27 1696.94 2510.34 1698.17 2511.8 1699.3 2513.26 1700.44 2515.42 1701.71 2518.29 1703.11 2521.74 1704.84 2524.43 1706.45 2526.33 1707.93 2528.23 1709.42 2529.72 1711.12 2530.79 1713.02 2531.85 1714.92 2532.39 1717.15 2532.39 1719.69 2532.39 1722.52 2531.94 1724.92 2531.05 1726.88 2530.16 1728.84 2528.92 1730.43 2527.34 1731.66 2525.76 1732.89 2523.87 1733.78 2521.67 1734.34 2519.47 1734.89 2517.06 1735.17 2514.44 1735.17 2510.19 1735.17 2505.3 1734.45 2499.76 1733.02L2499.76 1721.92 2503.82 1721.92C2504.36 1724.29 2505.09 1726.17 2506.01 1727.55 2506.92 1728.93 2508.11 1729.95 2509.57 1730.61 2511.03 1731.27 2512.91 1731.6 2515.21 1731.6 2518.37 1731.6 2520.79 1730.78 2522.48 1729.13 2524.17 1727.48 2525.01 1725.08 2525.01 1721.92 2525.01 1719.89 2524.66 1718.19 2523.96 1716.81 2523.26 1715.43 2522.11 1714.13 2520.51 1712.92 2518.92 1711.7 2516.49 1710.28 2513.22 1708.66 2510.06 1707.1 2507.56 1705.56 2505.72 1704.06 2503.88 1702.56 2502.51 1700.94 2501.61 1699.18 2500.7 1697.42 2500.25 1695.51 2500.25 1693.43 2500.25 1690.4 2500.96 1687.77 2502.38 1685.54 2503.8 1683.31 2505.88 1681.59 2508.62 1680.38 2511.36 1679.16 2514.5 1678.55 2518.04 1678.55Z" fill-rule="evenodd"/><text fill="#000000" fill-opacity="0" font-family="Arial,Arial_MSFontService,sans-serif" font-size="56.6167" x="2499.76" y="1728.09">S</text><path d="M2562.97 1682.12C2560.54 1682.12 2558.46 1682.69 2556.71 1683.82 2554.97 1684.95 2553.52 1686.57 2552.38 1688.66 2551.23 1690.76 2550.39 1693.29 2549.86 1696.26 2549.34 1699.23 2549.07 1702.54 2549.07 1706.19 2549.07 1714.49 2550.28 1720.79 2552.7 1725.12 2555.12 1729.44 2558.65 1731.6 2563.3 1731.6 2566.24 1731.6 2568.74 1730.66 2570.8 1728.79 2572.85 1726.91 2574.39 1724.16 2575.42 1720.54 2576.44 1716.92 2576.96 1712.69 2576.96 1707.85 2576.96 1701.96 2576.36 1697.08 2575.15 1693.2 2573.95 1689.33 2572.31 1686.51 2570.23 1684.75 2568.15 1683 2565.73 1682.12 2562.97 1682.12ZM2563.26 1678.55C2568.07 1678.55 2572.11 1679.61 2575.4 1681.73 2578.68 1683.85 2581.15 1686.97 2582.81 1691.09 2584.47 1695.21 2585.3 1700.23 2585.3 1706.15 2585.3 1712.47 2584.36 1717.81 2582.47 1722.16 2580.58 1726.51 2577.91 1729.76 2574.46 1731.93 2571.02 1734.09 2567 1735.17 2562.41 1735.17 2559.16 1735.17 2556.21 1734.63 2553.55 1733.57 2550.89 1732.5 2548.61 1730.84 2546.7 1728.58 2544.8 1726.33 2543.33 1723.44 2542.29 1719.93 2541.24 1716.42 2540.72 1712.22 2540.72 1707.33 2540.72 1701.3 2541.64 1696.13 2543.48 1691.8 2545.32 1687.48 2547.95 1684.19 2551.36 1681.94 2554.78 1679.68 2558.75 1678.55 2563.26 1678.55Z" fill-rule="evenodd"/><text fill="#000000" fill-opacity="0" font-family="Arial,Arial_MSFontService,sans-serif" font-size="56.6167" x="2540.72" y="1728.09">O</text><path d="M2608.94 1720.18C2607.03 1722.94 2605.13 1725.68 2603.23 1728.4 2601.34 1731.12 2599.43 1733.85 2597.5 1736.59L2597.5 1736.95 2608.94 1736.95 2608.94 1730.96C2608.94 1730.29 2608.95 1729.45 2608.97 1728.46 2608.99 1727.47 2609.01 1726.46 2609.04 1725.44 2609.07 1724.41 2609.11 1723.44 2609.15 1722.52 2609.19 1721.59 2609.23 1720.81 2609.27 1720.18ZM2609.8 1713.21 2614.54 1713.21 2614.54 1736.95 2615.07 1736.95C2615.89 1736.95 2616.55 1736.91 2617.05 1736.83 2617.56 1736.75 2617.97 1736.59 2618.28 1736.34 2618.58 1736.09 2618.84 1735.74 2619.05 1735.29 2619.26 1734.85 2619.48 1734.27 2619.72 1733.55L2622.25 1733.55C2622.19 1734.64 2622.13 1735.73 2622.06 1736.8 2621.99 1737.87 2621.92 1738.96 2621.86 1740.07L2614.54 1740.07 2614.54 1743.98C2614.54 1745.13 2614.56 1746.02 2614.61 1746.66 2614.66 1747.29 2614.81 1747.79 2615.06 1748.15 2615.31 1748.5 2615.67 1748.77 2616.16 1748.95 2616.65 1749.13 2617.33 1749.34 2618.2 1749.58L2618.2 1751.36 2605.33 1751.36 2605.33 1749.58C2605.93 1749.42 2606.44 1749.27 2606.85 1749.14 2607.27 1749.02 2607.62 1748.87 2607.9 1748.7 2608.17 1748.53 2608.38 1748.33 2608.51 1748.1 2608.64 1747.87 2608.73 1747.59 2608.8 1747.24 2608.87 1746.89 2608.91 1746.45 2608.92 1745.93 2608.93 1745.4 2608.94 1744.75 2608.94 1743.98L2608.94 1740.07 2592.17 1740.07 2592.17 1737.72C2595.13 1733.61 2598.07 1729.53 2600.99 1725.47 2603.9 1721.4 2606.84 1717.32 2609.8 1713.21Z" fill-rule="evenodd"/><text fill="#000000" fill-opacity="0" font-family="Arial,Arial_MSFontService,sans-serif" font-size="38.1548" x="2592.17" y="1746.59">4</text><path d="M3087.99 1716.04C3082.51 1716.09 3078.4 1716.82 3075.67 1718.23 3072.95 1719.63 3071.58 1721.75 3071.58 1724.59 3071.58 1726.13 3071.89 1727.35 3072.51 1728.24 3073.13 1729.13 3073.92 1729.74 3074.86 1730.08 3075.81 1730.42 3076.93 1730.59 3078.23 1730.59 3080.06 1730.59 3081.73 1730.14 3083.23 1729.25 3084.73 1728.36 3085.9 1727.22 3086.74 1725.85 3087.58 1724.47 3087.99 1723.1 3087.99 1721.75ZM3028.55 1707.57 3028.55 1730.67C3030.52 1730.86 3032.73 1730.95 3035.16 1730.95 3038.7 1730.95 3041.45 1730.51 3043.41 1729.62 3045.36 1728.72 3046.78 1727.41 3047.66 1725.66 3048.54 1723.92 3048.98 1721.74 3048.98 1719.12 3048.98 1716.5 3048.5 1714.34 3047.54 1712.64 3046.58 1710.93 3045.1 1709.66 3043.1 1708.83 3041.1 1707.99 3038.35 1707.57 3034.83 1707.57ZM3083.62 1695.09C3086.29 1695.09 3088.44 1695.51 3090.06 1696.36 3091.68 1697.21 3092.9 1698.52 3093.71 1700.27 3094.52 1702.03 3094.93 1704.68 3094.93 1708.22L3094.93 1722.32C3094.93 1724.32 3094.94 1725.73 3094.97 1726.56 3094.99 1727.38 3095.07 1728.14 3095.21 1728.85 3095.34 1729.55 3095.55 1730.11 3095.82 1730.53 3096.09 1730.95 3096.49 1731.3 3097.01 1731.6 3097.54 1731.9 3098.4 1732.21 3099.59 1732.53L3099.59 1734.52 3088.48 1734.52 3088.68 1728.72 3088.08 1728.56C3085.73 1730.97 3083.52 1732.67 3081.45 1733.67 3079.38 1734.67 3077.19 1735.17 3074.86 1735.17 3072.81 1735.17 3071 1734.77 3069.43 1733.97 3067.87 1733.18 3066.66 1732.05 3065.83 1730.61 3064.99 1729.16 3064.57 1727.49 3064.57 1725.6 3064.57 1721.66 3066.52 1718.61 3070.43 1716.46 3074.33 1714.32 3080.19 1713.07 3087.99 1712.72L3087.99 1710.08C3087.99 1707.27 3087.72 1705.06 3087.18 1703.44 3086.64 1701.81 3085.79 1700.63 3084.63 1699.87 3083.47 1699.11 3081.92 1698.73 3079.97 1698.73 3077.86 1698.73 3076.17 1699.29 3074.88 1700.4 3073.6 1701.5 3072.64 1703.17 3071.99 1705.38L3066.68 1705.38 3066.68 1700.11C3069.27 1698.76 3071.43 1697.77 3073.16 1697.13 3074.89 1696.5 3076.62 1696 3078.35 1695.63 3080.08 1695.27 3081.83 1695.09 3083.62 1695.09ZM3036.37 1682.77C3035.35 1682.77 3034 1682.79 3032.32 1682.85 3030.65 1682.9 3029.39 1682.96 3028.55 1683.01L3028.55 1704 3035.64 1704C3039.75 1704 3042.89 1703.01 3045.07 1701.02 3047.24 1699.04 3048.33 1696.15 3048.33 1692.37 3048.33 1690.51 3048.03 1688.96 3047.42 1687.73 3046.81 1686.5 3045.97 1685.52 3044.9 1684.79 3043.84 1684.06 3042.57 1683.54 3041.12 1683.23 3039.66 1682.92 3038.08 1682.77 3036.37 1682.77ZM3016.23 1679.2 3038.4 1679.2C3042.7 1679.2 3046.15 1679.66 3048.75 1680.58 3051.36 1681.5 3053.3 1682.85 3054.57 1684.65 3055.84 1686.45 3056.48 1688.76 3056.48 1691.6 3056.48 1693.95 3056.02 1695.99 3055.12 1697.72 3054.21 1699.45 3053.03 1700.88 3051.57 1702.02 3050.11 1703.15 3048.23 1704.21 3045.94 1705.18L3045.94 1705.54C3049.61 1706.65 3052.4 1708.36 3054.29 1710.67 3056.18 1712.98 3057.12 1715.73 3057.12 1718.92 3057.12 1722.59 3056.31 1725.59 3054.67 1727.91 3053.04 1730.24 3050.75 1731.92 3047.8 1732.96 3044.86 1734 3041.29 1734.52 3037.1 1734.52L3016.23 1734.52 3016.23 1732.53C3017.91 1732.1 3019.03 1731.62 3019.6 1731.1 3020.16 1730.57 3020.53 1729.82 3020.71 1728.85 3020.89 1727.87 3020.97 1726.39 3020.97 1724.39L3020.97 1689.33C3020.97 1687.47 3020.91 1686.11 3020.77 1685.26 3020.64 1684.41 3020.41 1683.75 3020.1 1683.27 3019.79 1682.8 3019.38 1682.42 3018.87 1682.14 3018.35 1681.85 3017.47 1681.54 3016.23 1681.19ZM3125.14 1678.55C3127.2 1678.55 3129.2 1678.66 3131.16 1678.88 3133.12 1679.09 3135.57 1679.58 3138.52 1680.33L3138.52 1691.28 3134.51 1691.28C3133.89 1688.9 3133.1 1687.05 3132.16 1685.72 3131.21 1684.4 3130.1 1683.48 3128.83 1682.95 3127.56 1682.42 3125.91 1682.16 3123.89 1682.16 3122.13 1682.16 3120.56 1682.48 3119.17 1683.13 3117.78 1683.78 3116.67 1684.76 3115.86 1686.07 3115.05 1687.38 3114.65 1688.94 3114.65 1690.75 3114.65 1692.67 3114.99 1694.29 3115.68 1695.61 3116.37 1696.94 3117.44 1698.17 3118.9 1699.3 3120.36 1700.44 3122.52 1701.71 3125.39 1703.11 3128.85 1704.84 3131.53 1706.45 3133.43 1707.93 3135.34 1709.42 3136.82 1711.12 3137.89 1713.02 3138.96 1714.92 3139.49 1717.15 3139.49 1719.69 3139.49 1722.52 3139.05 1724.92 3138.15 1726.88 3137.26 1728.84 3136.03 1730.43 3134.45 1731.66 3132.87 1732.89 3130.97 1733.78 3128.77 1734.34 3126.57 1734.89 3124.16 1735.17 3121.54 1735.17 3117.3 1735.17 3112.41 1734.45 3106.87 1733.02L3106.87 1721.92 3110.92 1721.92C3111.46 1724.29 3112.19 1726.17 3113.11 1727.55 3114.03 1728.93 3115.22 1729.95 3116.67 1730.61 3118.13 1731.27 3120.01 1731.6 3122.31 1731.6 3125.47 1731.6 3127.89 1730.78 3129.58 1729.13 3131.27 1727.48 3132.12 1725.08 3132.12 1721.92 3132.12 1719.89 3131.76 1718.19 3131.06 1716.81 3130.36 1715.43 3129.21 1714.13 3127.62 1712.92 3126.02 1711.7 3123.59 1710.28 3120.32 1708.66 3117.16 1707.1 3114.66 1705.56 3112.82 1704.06 3110.99 1702.56 3109.62 1700.94 3108.71 1699.18 3107.81 1697.42 3107.35 1695.51 3107.35 1693.43 3107.35 1690.4 3108.06 1687.77 3109.48 1685.54 3110.9 1683.31 3112.98 1681.59 3115.72 1680.38 3118.46 1679.16 3121.61 1678.55 3125.14 1678.55Z" fill-rule="evenodd"/><text fill="#000000" fill-opacity="0" font-family="Arial,Arial_MSFontService,sans-serif" font-size="56.6167" x="3016.23" y="1728.09">BaS</text><path d="M3169.6 1682.12C3167.17 1682.12 3165.08 1682.69 3163.34 1683.82 3161.59 1684.95 3160.15 1686.57 3159 1688.66 3157.85 1690.76 3157.01 1693.29 3156.49 1696.26 3155.96 1699.23 3155.7 1702.54 3155.7 1706.19 3155.7 1714.49 3156.91 1720.79 3159.32 1725.12 3161.74 1729.44 3165.27 1731.6 3169.92 1731.6 3172.87 1731.6 3175.37 1730.66 3177.42 1728.79 3179.47 1726.91 3181.01 1724.16 3182.04 1720.54 3183.07 1716.92 3183.58 1712.69 3183.58 1707.85 3183.58 1701.96 3182.98 1697.08 3181.78 1693.2 3180.57 1689.33 3178.93 1686.51 3176.85 1684.75 3174.77 1683 3172.35 1682.12 3169.6 1682.12ZM3169.88 1678.55C3174.69 1678.55 3178.74 1679.61 3182.02 1681.73 3185.3 1683.85 3187.77 1686.97 3189.44 1691.09 3191.1 1695.21 3191.93 1700.23 3191.93 1706.15 3191.93 1712.47 3190.98 1717.81 3189.09 1722.16 3187.2 1726.51 3184.53 1729.76 3181.09 1731.93 3177.64 1734.09 3173.62 1735.17 3169.03 1735.17 3165.79 1735.17 3162.84 1734.63 3160.18 1733.57 3157.51 1732.5 3155.23 1730.84 3153.33 1728.58 3151.42 1726.33 3149.95 1723.44 3148.91 1719.93 3147.87 1716.42 3147.35 1712.22 3147.35 1707.33 3147.35 1701.3 3148.27 1696.13 3150.1 1691.8 3151.94 1687.48 3154.57 1684.19 3157.99 1681.94 3161.4 1679.68 3165.37 1678.55 3169.88 1678.55Z" fill-rule="evenodd"/><text fill="#000000" fill-opacity="0" font-family="Arial,Arial_MSFontService,sans-serif" font-size="56.6167" x="3147.35" y="1728.09">O</text><path d="M3215.56 1720.18C3213.66 1722.94 3211.75 1725.68 3209.86 1728.4 3207.96 1731.12 3206.05 1733.85 3204.12 1736.59L3204.12 1736.95 3215.56 1736.95 3215.56 1730.96C3215.56 1730.29 3215.57 1729.45 3215.59 1728.46 3215.61 1727.47 3215.64 1726.46 3215.67 1725.44 3215.7 1724.41 3215.73 1723.44 3215.77 1722.52 3215.81 1721.59 3215.85 1720.81 3215.89 1720.18ZM3216.43 1713.21 3221.16 1713.21 3221.16 1736.95 3221.7 1736.95C3222.51 1736.95 3223.17 1736.91 3223.68 1736.83 3224.18 1736.75 3224.59 1736.59 3224.9 1736.34 3225.21 1736.09 3225.47 1735.74 3225.67 1735.29 3225.88 1734.85 3226.11 1734.27 3226.34 1733.55L3228.88 1733.55C3228.82 1734.64 3228.75 1735.73 3228.68 1736.8 3228.61 1737.87 3228.55 1738.96 3228.49 1740.07L3221.16 1740.07 3221.16 1743.98C3221.16 1745.13 3221.19 1746.02 3221.24 1746.66 3221.29 1747.29 3221.43 1747.79 3221.68 1748.15 3221.93 1748.5 3222.3 1748.77 3222.78 1748.95 3223.27 1749.13 3223.95 1749.34 3224.82 1749.58L3224.82 1751.36 3211.96 1751.36 3211.96 1749.58C3212.55 1749.42 3213.06 1749.27 3213.48 1749.14 3213.89 1749.02 3214.24 1748.87 3214.52 1748.7 3214.8 1748.53 3215 1748.33 3215.13 1748.1 3215.26 1747.87 3215.36 1747.59 3215.43 1747.24 3215.5 1746.89 3215.54 1746.45 3215.55 1745.93 3215.56 1745.4 3215.56 1744.75 3215.56 1743.98L3215.56 1740.07 3198.79 1740.07 3198.79 1737.72C3201.75 1733.61 3204.69 1729.53 3207.61 1725.47 3210.53 1721.4 3213.47 1717.32 3216.43 1713.21Z" fill-rule="evenodd"/><text fill="#000000" fill-opacity="0" font-family="Arial,Arial_MSFontService,sans-serif" font-size="38.1548" x="3198.79" y="1746.59">4</text><path d="M1839.45 1679.2 1856.51 1679.2 1856.51 1681.19C1855.32 1681.48 1854.46 1681.78 1853.94 1682.08 1853.41 1682.37 1852.99 1682.75 1852.68 1683.19 1852.37 1683.64 1852.14 1684.31 1851.99 1685.2 1851.84 1686.09 1851.77 1687.47 1851.77 1689.33L1851.77 1703.68 1874.3 1703.68 1874.3 1689.33C1874.3 1686.98 1874.19 1685.37 1873.96 1684.51 1873.73 1683.64 1873.34 1682.98 1872.8 1682.52 1872.26 1682.06 1871.19 1681.62 1869.6 1681.19L1869.6 1679.2 1886.58 1679.2 1886.58 1681.19C1885.07 1681.56 1884.01 1681.99 1883.42 1682.46 1882.82 1682.94 1882.42 1683.64 1882.2 1684.59 1881.99 1685.54 1881.88 1687.12 1881.88 1689.33L1881.88 1724.39C1881.88 1725.95 1881.92 1727.13 1882 1727.91 1882.08 1728.7 1882.22 1729.33 1882.41 1729.8 1882.59 1730.27 1882.82 1730.66 1883.09 1730.95 1883.36 1731.25 1883.75 1731.52 1884.25 1731.76 1884.75 1732.01 1885.53 1732.26 1886.58 1732.53L1886.58 1734.52 1869.6 1734.52 1869.6 1732.53C1871.08 1732.16 1872.13 1731.74 1872.72 1731.28 1873.31 1730.82 1873.73 1730.12 1873.96 1729.17 1874.19 1728.22 1874.3 1726.63 1874.3 1724.39L1874.3 1707.41 1851.77 1707.41 1851.77 1724.39C1851.77 1726.2 1851.83 1727.52 1851.95 1728.36 1852.07 1729.2 1852.27 1729.86 1852.56 1730.35 1852.84 1730.83 1853.26 1731.24 1853.81 1731.56 1854.37 1731.89 1855.27 1732.21 1856.51 1732.53L1856.51 1734.52 1839.45 1734.52 1839.45 1732.53C1841.12 1732.1 1842.24 1731.62 1842.81 1731.1 1843.38 1730.57 1843.75 1729.82 1843.92 1728.85 1844.1 1727.87 1844.19 1726.39 1844.19 1724.39L1844.19 1689.33C1844.19 1687.47 1844.12 1686.11 1843.99 1685.26 1843.85 1684.41 1843.63 1683.75 1843.32 1683.27 1843.01 1682.8 1842.59 1682.42 1842.08 1682.14 1841.57 1681.85 1840.69 1681.54 1839.45 1681.19Z" fill-rule="evenodd"/><text fill="#000000" fill-opacity="0" font-family="Arial,Arial_MSFontService,sans-serif" font-size="55.3198" x="1839.45" y="1727.6">H</text><path d="M1909.04 1712.79C1911.11 1712.79 1912.87 1713.03 1914.33 1713.49 1915.79 1713.96 1916.98 1714.59 1917.89 1715.38 1918.8 1716.18 1919.46 1717.13 1919.87 1718.24 1920.28 1719.35 1920.48 1720.56 1920.48 1721.85 1920.48 1722.62 1920.43 1723.34 1920.32 1724.01 1920.21 1724.67 1920.02 1725.33 1919.75 1725.97 1919.48 1726.62 1919.13 1727.27 1918.69 1727.92 1918.26 1728.58 1917.71 1729.27 1917.06 1730.01 1916.56 1730.64 1915.91 1731.38 1915.12 1732.21 1914.33 1733.05 1913.46 1733.94 1912.51 1734.89 1911.57 1735.85 1910.58 1736.84 1909.55 1737.87 1908.52 1738.9 1907.51 1739.93 1906.54 1740.94 1905.57 1741.95 1904.67 1742.93 1903.86 1743.89 1903.05 1744.84 1902.38 1745.71 1901.86 1746.51L1912.89 1746.51C1913.82 1746.51 1914.56 1746.47 1915.12 1746.4 1915.68 1746.33 1916.14 1746.18 1916.5 1745.94 1916.87 1745.7 1917.18 1745.34 1917.44 1744.86 1917.7 1744.37 1918 1743.7 1918.34 1742.84L1921.11 1742.84C1921.01 1744.25 1920.91 1745.67 1920.82 1747.1 1920.73 1748.53 1920.64 1749.95 1920.54 1751.36L1895.31 1751.36 1895.31 1749.81C1895.79 1748.74 1896.34 1747.69 1896.98 1746.64 1897.62 1745.6 1898.33 1744.54 1899.12 1743.47 1899.92 1742.4 1900.82 1741.29 1901.84 1740.15 1902.85 1739.01 1903.97 1737.82 1905.2 1736.59 1907.07 1734.72 1908.59 1733.13 1909.76 1731.81 1910.93 1730.49 1911.85 1729.31 1912.53 1728.28 1913.2 1727.25 1913.66 1726.29 1913.91 1725.42 1914.16 1724.55 1914.29 1723.61 1914.29 1722.62 1914.29 1721.61 1914.14 1720.67 1913.85 1719.82 1913.57 1718.97 1913.15 1718.24 1912.62 1717.65 1912.08 1717.05 1911.4 1716.58 1910.58 1716.25 1909.75 1715.91 1908.8 1715.74 1907.73 1715.74 1905.89 1715.74 1904.34 1716.24 1903.09 1717.24 1901.84 1718.25 1900.86 1719.7 1900.17 1721.61L1896.27 1721.61 1896.27 1715.8C1898.81 1714.75 1901.15 1713.98 1903.28 1713.51 1905.41 1713.03 1907.34 1712.79 1909.04 1712.79Z" fill-rule="evenodd"/><text fill="#000000" fill-opacity="0" font-family="Arial,Arial_MSFontService,sans-serif" font-size="38.5718" x="1895.31" y="1746.54">2</text><path d="M1952.44 1678.55C1954.49 1678.55 1956.5 1678.66 1958.46 1678.88 1960.42 1679.09 1962.87 1679.58 1965.81 1680.33L1965.81 1691.28 1961.8 1691.28C1961.18 1688.9 1960.4 1687.05 1959.45 1685.72 1958.51 1684.4 1957.4 1683.48 1956.13 1682.95 1954.86 1682.42 1953.21 1682.16 1951.18 1682.16 1949.43 1682.16 1947.85 1682.48 1946.46 1683.13 1945.07 1683.78 1943.97 1684.76 1943.16 1686.07 1942.35 1687.38 1941.94 1688.94 1941.94 1690.75 1941.94 1692.67 1942.29 1694.29 1942.98 1695.61 1943.67 1696.94 1944.74 1698.17 1946.2 1699.3 1947.66 1700.44 1949.82 1701.71 1952.68 1703.11 1956.14 1704.84 1958.82 1706.45 1960.73 1707.93 1962.63 1709.42 1964.12 1711.12 1965.19 1713.02 1966.25 1714.92 1966.79 1717.15 1966.79 1719.69 1966.79 1722.52 1966.34 1724.92 1965.45 1726.88 1964.56 1728.84 1963.32 1730.43 1961.74 1731.66 1960.16 1732.89 1958.27 1733.78 1956.07 1734.34 1953.87 1734.89 1951.45 1735.17 1948.83 1735.17 1944.59 1735.17 1939.7 1734.45 1934.16 1733.02L1934.16 1721.92 1938.22 1721.92C1938.76 1724.29 1939.49 1726.17 1940.4 1727.55 1941.32 1728.93 1942.51 1729.95 1943.97 1730.61 1945.43 1731.27 1947.31 1731.6 1949.6 1731.6 1952.77 1731.6 1955.19 1730.78 1956.88 1729.13 1958.57 1727.48 1959.41 1725.08 1959.41 1721.92 1959.41 1719.89 1959.06 1718.19 1958.36 1716.81 1957.66 1715.43 1956.51 1714.13 1954.91 1712.92 1953.32 1711.7 1950.89 1710.28 1947.62 1708.66 1944.46 1707.1 1941.96 1705.56 1940.12 1704.06 1938.28 1702.56 1936.91 1700.94 1936.01 1699.18 1935.1 1697.42 1934.65 1695.51 1934.65 1693.43 1934.65 1690.4 1935.36 1687.77 1936.78 1685.54 1938.2 1683.31 1940.28 1681.59 1943.02 1680.38 1945.76 1679.16 1948.9 1678.55 1952.44 1678.55Z" fill-rule="evenodd"/><text fill="#000000" fill-opacity="0" font-family="Arial,Arial_MSFontService,sans-serif" font-size="56.6167" x="1934.16" y="1728.09">S</text><path d="M1997.37 1682.12C1994.94 1682.12 1992.85 1682.69 1991.11 1683.82 1989.37 1684.95 1987.92 1686.57 1986.78 1688.66 1985.63 1690.76 1984.79 1693.29 1984.26 1696.26 1983.74 1699.23 1983.47 1702.54 1983.47 1706.19 1983.47 1714.49 1984.68 1720.79 1987.1 1725.12 1989.52 1729.44 1993.05 1731.6 1997.7 1731.6 2000.64 1731.6 2003.14 1730.66 2005.2 1728.79 2007.25 1726.91 2008.79 1724.16 2009.82 1720.54 2010.84 1716.92 2011.36 1712.69 2011.36 1707.85 2011.36 1701.96 2010.75 1697.08 2009.55 1693.2 2008.35 1689.33 2006.71 1686.51 2004.63 1684.75 2002.55 1683 2000.13 1682.12 1997.37 1682.12ZM1997.66 1678.55C2002.47 1678.55 2006.51 1679.61 2009.8 1681.73 2013.08 1683.85 2015.55 1686.97 2017.21 1691.09 2018.87 1695.21 2019.7 1700.23 2019.7 1706.15 2019.7 1712.47 2018.76 1717.81 2016.87 1722.16 2014.98 1726.51 2012.31 1729.76 2008.86 1731.93 2005.42 1734.09 2001.4 1735.17 1996.81 1735.17 1993.56 1735.17 1990.61 1734.63 1987.95 1733.57 1985.29 1732.5 1983.01 1730.84 1981.1 1728.58 1979.2 1726.33 1977.72 1723.44 1976.68 1719.93 1975.64 1716.42 1975.12 1712.22 1975.12 1707.33 1975.12 1701.3 1976.04 1696.13 1977.88 1691.8 1979.72 1687.48 1982.34 1684.19 1985.76 1681.94 1989.18 1679.68 1993.15 1678.55 1997.66 1678.55Z" fill-rule="evenodd"/><text fill="#000000" fill-opacity="0" font-family="Arial,Arial_MSFontService,sans-serif" font-size="56.6167" x="1975.12" y="1728.09">O</text><path d="M2041.88 1712.79C2043.47 1712.79 2044.95 1712.96 2046.33 1713.3 2047.71 1713.64 2048.91 1714.15 2049.92 1714.83 2050.93 1715.52 2051.72 1716.37 2052.29 1717.39 2052.85 1718.42 2053.14 1719.6 2053.14 1720.95 2053.14 1722.22 2052.96 1723.35 2052.6 1724.32 2052.24 1725.29 2051.69 1726.18 2050.95 1726.97 2050.2 1727.76 2049.29 1728.48 2048.21 1729.13 2047.12 1729.77 2045.88 1730.39 2044.47 1730.99L2044.47 1731.35C2045.8 1731.59 2047.04 1731.97 2048.19 1732.49 2049.34 1733.02 2050.35 1733.69 2051.22 1734.49 2052.08 1735.29 2052.76 1736.22 2053.26 1737.28 2053.75 1738.33 2054 1739.49 2054 1740.76 2054 1742.35 2053.7 1743.82 2053.11 1745.18 2052.51 1746.54 2051.62 1747.72 2050.43 1748.71 2049.23 1749.71 2047.77 1750.48 2046.02 1751.04 2044.27 1751.59 2042.22 1751.87 2039.88 1751.87 2038.04 1751.87 2036.16 1751.69 2034.25 1751.32 2032.35 1750.95 2030.54 1750.47 2028.83 1749.87L2028.83 1743.44 2032.67 1743.44C2032.99 1744.43 2033.37 1745.28 2033.81 1745.99 2034.24 1746.69 2034.75 1747.27 2035.34 1747.71 2035.93 1748.16 2036.6 1748.48 2037.36 1748.68 2038.13 1748.88 2039 1748.98 2039.97 1748.98 2042.53 1748.98 2044.47 1748.37 2045.79 1747.15 2047.11 1745.93 2047.77 1744.08 2047.77 1741.59 2047.77 1738.95 2046.91 1736.95 2045.17 1735.59 2043.43 1734.23 2040.85 1733.55 2037.44 1733.55L2034.82 1733.55 2034.82 1730.69C2036.9 1730.59 2038.71 1730.3 2040.22 1729.81 2041.74 1729.33 2043.01 1728.7 2044.02 1727.92 2045.03 1727.15 2045.79 1726.24 2046.29 1725.21 2046.78 1724.18 2047.03 1723.08 2047.03 1721.91 2047.03 1720 2046.46 1718.5 2045.33 1717.39 2044.2 1716.29 2042.56 1715.74 2040.42 1715.74 2038.61 1715.74 2037.1 1716.24 2035.88 1717.23 2034.65 1718.22 2033.72 1719.7 2033.06 1721.67L2029.28 1721.67 2029.28 1715.8C2031.62 1714.81 2033.83 1714.06 2035.91 1713.55 2037.98 1713.04 2039.97 1712.79 2041.88 1712.79Z" fill-rule="evenodd"/><text fill="#000000" fill-opacity="0" font-family="Arial,Arial_MSFontService,sans-serif" font-size="39.0781" x="2028.83" y="1746.99">3</text><path d="M1299.35 1679.2 1312.04 1679.2 1332.06 1712.59C1333.03 1714.22 1333.85 1715.63 1334.51 1716.85 1335.17 1718.07 1335.86 1719.43 1336.56 1720.94L1337.09 1720.94C1336.95 1719.3 1336.83 1716.02 1336.72 1711.12 1336.61 1706.21 1336.56 1701.79 1336.56 1697.84L1336.56 1689.33C1336.56 1687.47 1336.51 1686.1 1336.4 1685.24 1336.29 1684.37 1336.09 1683.71 1335.81 1683.25 1335.53 1682.79 1335.13 1682.42 1334.63 1682.14 1334.13 1681.85 1333.26 1681.54 1332.02 1681.19L1332.02 1679.2 1346.61 1679.2 1346.61 1681.19C1345.39 1681.51 1344.54 1681.81 1344.04 1682.08 1343.54 1682.35 1343.13 1682.7 1342.82 1683.13 1342.51 1683.56 1342.27 1684.21 1342.11 1685.08 1341.95 1685.94 1341.87 1687.36 1341.87 1689.33L1341.87 1734.76 1336.8 1734.76 1314.23 1696.91C1312.82 1694.56 1311.82 1692.84 1311.23 1691.76 1310.64 1690.68 1310.08 1689.62 1309.57 1688.56L1308.88 1688.56C1309.07 1690.64 1309.2 1694.4 1309.28 1699.85 1309.37 1705.29 1309.41 1710.72 1309.41 1716.12L1309.41 1724.39C1309.41 1726.2 1309.47 1727.52 1309.59 1728.36 1309.71 1729.2 1309.91 1729.86 1310.2 1730.35 1310.48 1730.83 1310.9 1731.24 1311.45 1731.56 1312.01 1731.89 1312.9 1732.21 1314.15 1732.53L1314.15 1734.52 1299.35 1734.52 1299.35 1732.53C1301.03 1732.1 1302.15 1731.62 1302.72 1731.1 1303.29 1730.57 1303.66 1729.82 1303.83 1728.85 1304.01 1727.87 1304.1 1726.39 1304.1 1724.39L1304.1 1689.33C1304.1 1687.47 1304.03 1686.11 1303.89 1685.26 1303.76 1684.41 1303.54 1683.75 1303.23 1683.27 1302.91 1682.8 1302.5 1682.42 1301.99 1682.14 1301.48 1681.85 1300.6 1681.54 1299.35 1681.19Z" fill-rule="evenodd"/><text fill="#000000" fill-opacity="0" font-family="Arial,Arial_MSFontService,sans-serif" font-size="55.563" x="1299.35" y="1727.82">N</text><path d="M1377.43 1716.04C1371.94 1716.09 1367.83 1716.82 1365.11 1718.23 1362.38 1719.63 1361.01 1721.75 1361.01 1724.59 1361.01 1726.13 1361.32 1727.35 1361.94 1728.24 1362.57 1729.13 1363.35 1729.74 1364.3 1730.08 1365.24 1730.42 1366.36 1730.59 1367.66 1730.59 1369.5 1730.59 1371.16 1730.14 1372.66 1729.25 1374.16 1728.36 1375.33 1727.22 1376.17 1725.85 1377.01 1724.47 1377.43 1723.1 1377.43 1721.75ZM1373.05 1695.09C1375.72 1695.09 1377.87 1695.51 1379.49 1696.36 1381.11 1697.21 1382.33 1698.52 1383.14 1700.27 1383.95 1702.03 1384.36 1704.68 1384.36 1708.22L1384.36 1722.32C1384.36 1724.32 1384.37 1725.73 1384.4 1726.56 1384.42 1727.38 1384.5 1728.14 1384.64 1728.85 1384.78 1729.55 1384.98 1730.11 1385.25 1730.53 1385.52 1730.95 1385.92 1731.3 1386.44 1731.6 1386.97 1731.9 1387.83 1732.21 1389.02 1732.53L1389.02 1734.52 1377.91 1734.52 1378.12 1728.72 1377.51 1728.56C1375.16 1730.97 1372.95 1732.67 1370.88 1733.67 1368.81 1734.67 1366.62 1735.17 1364.3 1735.17 1362.24 1735.17 1360.43 1734.77 1358.86 1733.97 1357.3 1733.18 1356.1 1732.05 1355.26 1730.61 1354.42 1729.16 1354 1727.49 1354 1725.6 1354 1721.66 1355.95 1718.61 1359.86 1716.46 1363.76 1714.32 1369.62 1713.07 1377.43 1712.72L1377.43 1710.08C1377.43 1707.27 1377.16 1705.06 1376.62 1703.44 1376.08 1701.81 1375.22 1700.63 1374.06 1699.87 1372.9 1699.11 1371.35 1698.73 1369.4 1698.73 1367.29 1698.73 1365.6 1699.29 1364.32 1700.4 1363.03 1701.5 1362.07 1703.17 1361.42 1705.38L1356.11 1705.38 1356.11 1700.11C1358.7 1698.76 1360.86 1697.77 1362.59 1697.13 1364.32 1696.5 1366.05 1696 1367.78 1695.63 1369.51 1695.27 1371.27 1695.09 1373.05 1695.09Z" fill-rule="evenodd"/><text fill="#000000" fill-opacity="0" font-family="Arial,Arial_MSFontService,sans-serif" font-size="40.0815" x="1354" y="1730.16">a</text><path d="M1410.25 1712.79C1412.31 1712.79 1414.08 1713.03 1415.54 1713.49 1417 1713.96 1418.18 1714.59 1419.1 1715.38 1420.01 1716.18 1420.67 1717.13 1421.08 1718.24 1421.48 1719.35 1421.69 1720.56 1421.69 1721.85 1421.69 1722.62 1421.63 1723.34 1421.52 1724.01 1421.41 1724.67 1421.23 1725.33 1420.96 1725.97 1420.69 1726.62 1420.34 1727.27 1419.9 1727.92 1419.46 1728.58 1418.92 1729.27 1418.26 1730.01 1417.77 1730.64 1417.12 1731.38 1416.33 1732.21 1415.53 1733.05 1414.66 1733.94 1413.72 1734.89 1412.78 1735.85 1411.79 1736.84 1410.76 1737.87 1409.72 1738.9 1408.72 1739.93 1407.75 1740.94 1406.77 1741.95 1405.88 1742.93 1405.07 1743.89 1404.25 1744.84 1403.59 1745.71 1403.07 1746.51L1414.09 1746.51C1415.02 1746.51 1415.77 1746.47 1416.33 1746.4 1416.88 1746.33 1417.34 1746.18 1417.71 1745.94 1418.08 1745.7 1418.39 1745.34 1418.65 1744.86 1418.91 1744.37 1419.2 1743.7 1419.54 1742.84L1422.31 1742.84C1422.21 1744.25 1422.12 1745.67 1422.03 1747.1 1421.94 1748.53 1421.85 1749.95 1421.75 1751.36L1396.52 1751.36 1396.52 1749.81C1396.99 1748.74 1397.55 1747.69 1398.19 1746.64 1398.82 1745.6 1399.54 1744.54 1400.33 1743.47 1401.13 1742.4 1402.03 1741.29 1403.04 1740.15 1404.05 1739.01 1405.18 1737.82 1406.41 1736.59 1408.27 1734.72 1409.79 1733.13 1410.96 1731.81 1412.14 1730.49 1413.06 1729.31 1413.73 1728.28 1414.41 1727.25 1414.87 1726.29 1415.12 1725.42 1415.37 1724.55 1415.49 1723.61 1415.49 1722.62 1415.49 1721.61 1415.35 1720.67 1415.06 1719.82 1414.77 1718.97 1414.36 1718.24 1413.82 1717.65 1413.29 1717.05 1412.61 1716.58 1411.78 1716.25 1410.96 1715.91 1410.01 1715.74 1408.94 1715.74 1407.09 1715.74 1405.54 1716.24 1404.29 1717.24 1403.04 1718.25 1402.07 1719.7 1401.37 1721.61L1397.47 1721.61 1397.47 1715.8C1400.01 1714.75 1402.35 1713.98 1404.49 1713.51 1406.62 1713.03 1408.54 1712.79 1410.25 1712.79Z" fill-rule="evenodd"/><text fill="#000000" fill-opacity="0" font-family="Arial,Arial_MSFontService,sans-serif" font-size="38.5718" x="1396.52" y="1746.54">2</text><path d="M1453.65 1678.55C1455.7 1678.55 1457.71 1678.66 1459.67 1678.88 1461.62 1679.09 1464.08 1679.58 1467.02 1680.33L1467.02 1691.28 1463.01 1691.28C1462.39 1688.9 1461.6 1687.05 1460.66 1685.72 1459.71 1684.4 1458.6 1683.48 1457.33 1682.95 1456.06 1682.42 1454.42 1682.16 1452.39 1682.16 1450.63 1682.16 1449.06 1682.48 1447.67 1683.13 1446.28 1683.78 1445.18 1684.76 1444.37 1686.07 1443.56 1687.38 1443.15 1688.94 1443.15 1690.75 1443.15 1692.67 1443.49 1694.29 1444.18 1695.61 1444.87 1696.94 1445.95 1698.17 1447.41 1699.3 1448.86 1700.44 1451.03 1701.71 1453.89 1703.11 1457.35 1704.84 1460.03 1706.45 1461.93 1707.93 1463.84 1709.42 1465.33 1711.12 1466.39 1713.02 1467.46 1714.92 1467.99 1717.15 1467.99 1719.69 1467.99 1722.52 1467.55 1724.92 1466.66 1726.88 1465.76 1728.84 1464.53 1730.43 1462.95 1731.66 1461.37 1732.89 1459.48 1733.78 1457.27 1734.34 1455.07 1734.89 1452.66 1735.17 1450.04 1735.17 1445.8 1735.17 1440.91 1734.45 1435.37 1733.02L1435.37 1721.92 1439.42 1721.92C1439.96 1724.29 1440.69 1726.17 1441.61 1727.55 1442.53 1728.93 1443.72 1729.95 1445.18 1730.61 1446.64 1731.27 1448.51 1731.6 1450.81 1731.6 1453.97 1731.6 1456.4 1730.78 1458.08 1729.13 1459.77 1727.48 1460.62 1725.08 1460.62 1721.92 1460.62 1719.89 1460.27 1718.19 1459.56 1716.81 1458.86 1715.43 1457.71 1714.13 1456.12 1712.92 1454.52 1711.7 1452.09 1710.28 1448.82 1708.66 1445.66 1707.1 1443.16 1705.56 1441.33 1704.06 1439.49 1702.56 1438.12 1700.94 1437.21 1699.18 1436.31 1697.42 1435.86 1695.51 1435.86 1693.43 1435.86 1690.4 1436.56 1687.77 1437.98 1685.54 1439.4 1683.31 1441.48 1681.59 1444.22 1680.38 1446.97 1679.16 1450.11 1678.55 1453.65 1678.55Z" fill-rule="evenodd"/><text fill="#000000" fill-opacity="0" font-family="Arial,Arial_MSFontService,sans-serif" font-size="56.6167" x="1435.37" y="1728.09">S</text><path d="M1498.58 1682.12C1496.15 1682.12 1494.06 1682.69 1492.32 1683.82 1490.58 1684.95 1489.13 1686.57 1487.98 1688.66 1486.83 1690.76 1486 1693.29 1485.47 1696.26 1484.94 1699.23 1484.68 1702.54 1484.68 1706.19 1484.68 1714.49 1485.89 1720.79 1488.31 1725.12 1490.72 1729.44 1494.26 1731.6 1498.9 1731.6 1501.85 1731.6 1504.35 1730.66 1506.4 1728.79 1508.45 1726.91 1509.99 1724.16 1511.02 1720.54 1512.05 1716.92 1512.56 1712.69 1512.56 1707.85 1512.56 1701.96 1511.96 1697.08 1510.76 1693.2 1509.56 1689.33 1507.91 1686.51 1505.83 1684.75 1503.75 1683 1501.34 1682.12 1498.58 1682.12ZM1498.86 1678.55C1503.67 1678.55 1507.72 1679.61 1511 1681.73 1514.28 1683.85 1516.76 1686.97 1518.42 1691.09 1520.08 1695.21 1520.91 1700.23 1520.91 1706.15 1520.91 1712.47 1519.96 1717.81 1518.07 1722.16 1516.18 1726.51 1513.51 1729.76 1510.07 1731.93 1506.62 1734.09 1502.61 1735.17 1498.01 1735.17 1494.77 1735.17 1491.82 1734.63 1489.16 1733.57 1486.5 1732.5 1484.21 1730.84 1482.31 1728.58 1480.4 1726.33 1478.93 1723.44 1477.89 1719.93 1476.85 1716.42 1476.33 1712.22 1476.33 1707.33 1476.33 1701.3 1477.25 1696.13 1479.09 1691.8 1480.92 1687.48 1483.55 1684.19 1486.97 1681.94 1490.39 1679.68 1494.35 1678.55 1498.86 1678.55Z" fill-rule="evenodd"/><text fill="#000000" fill-opacity="0" font-family="Arial,Arial_MSFontService,sans-serif" font-size="56.6167" x="1476.33" y="1728.09">O</text><path d="M1543.08 1712.79C1544.67 1712.79 1546.16 1712.96 1547.54 1713.3 1548.92 1713.64 1550.11 1714.15 1551.13 1714.83 1552.14 1715.52 1552.93 1716.37 1553.49 1717.39 1554.06 1718.42 1554.34 1719.6 1554.34 1720.95 1554.34 1722.22 1554.16 1723.35 1553.81 1724.32 1553.45 1725.29 1552.9 1726.18 1552.15 1726.97 1551.41 1727.76 1550.49 1728.48 1549.41 1729.13 1548.33 1729.77 1547.08 1730.39 1545.67 1730.99L1545.67 1731.35C1547.01 1731.59 1548.25 1731.97 1549.4 1732.49 1550.55 1733.02 1551.56 1733.69 1552.42 1734.49 1553.28 1735.29 1553.96 1736.22 1554.46 1737.28 1554.96 1738.33 1555.21 1739.49 1555.21 1740.76 1555.21 1742.35 1554.91 1743.82 1554.31 1745.18 1553.72 1746.54 1552.82 1747.72 1551.63 1748.71 1550.44 1749.71 1548.97 1750.48 1547.22 1751.04 1545.48 1751.59 1543.43 1751.87 1541.09 1751.87 1539.24 1751.87 1537.36 1751.69 1535.46 1751.32 1533.55 1750.95 1531.75 1750.47 1530.04 1749.87L1530.04 1743.44 1533.88 1743.44C1534.2 1744.43 1534.57 1745.28 1535.01 1745.99 1535.45 1746.69 1535.96 1747.27 1536.55 1747.71 1537.13 1748.16 1537.81 1748.48 1538.57 1748.68 1539.34 1748.88 1540.2 1748.98 1541.18 1748.98 1543.74 1748.98 1545.68 1748.37 1547 1747.15 1548.32 1745.93 1548.98 1744.08 1548.98 1741.59 1548.98 1738.95 1548.11 1736.95 1546.37 1735.59 1544.64 1734.23 1542.06 1733.55 1538.65 1733.55L1536.02 1733.55 1536.02 1730.69C1538.11 1730.59 1539.91 1730.3 1541.43 1729.81 1542.95 1729.33 1544.22 1728.7 1545.23 1727.92 1546.24 1727.15 1547 1726.24 1547.49 1725.21 1547.99 1724.18 1548.24 1723.08 1548.24 1721.91 1548.24 1720 1547.67 1718.5 1546.54 1717.39 1545.41 1716.29 1543.77 1715.74 1541.62 1715.74 1539.82 1715.74 1538.3 1716.24 1537.08 1717.23 1535.86 1718.22 1534.92 1719.7 1534.27 1721.67L1530.48 1721.67 1530.48 1715.8C1532.83 1714.81 1535.04 1714.06 1537.11 1713.55 1539.19 1713.04 1541.18 1712.79 1543.08 1712.79Z" fill-rule="evenodd"/><text fill="#000000" fill-opacity="0" font-family="Arial,Arial_MSFontService,sans-serif" font-size="39.0781" x="1530.04" y="1746.99">3</text><path d="M910.508 1698.29C907.725 1698.29 905.502 1699.4 903.841 1701.63 902.179 1703.86 901.2 1707.04 900.903 1711.18L918.613 1711.18C918.451 1708.26 918.086 1705.87 917.519 1704.02 916.951 1702.17 916.1 1700.75 914.966 1699.77 913.831 1698.78 912.345 1698.29 910.508 1698.29ZM910.913 1695.09C913.642 1695.09 915.965 1695.52 917.883 1696.38 919.802 1697.25 921.335 1698.43 922.483 1699.93 923.632 1701.43 924.523 1703.32 925.158 1705.6 925.793 1707.89 926.151 1710.87 926.232 1714.54L900.7 1714.54 900.7 1715.27C900.7 1718.46 901.058 1721.14 901.774 1723.31 902.49 1725.49 903.665 1727.19 905.3 1728.42 906.934 1729.65 909.062 1730.26 911.683 1730.26 913.898 1730.26 915.891 1729.85 917.661 1729.03 919.43 1728.2 921.193 1726.86 922.949 1725L925.422 1727.63C923.692 1729.44 922.105 1730.86 920.66 1731.89 919.214 1732.91 917.627 1733.72 915.898 1734.3 914.168 1734.88 912.264 1735.17 910.183 1735.17 904.618 1735.17 900.416 1733.5 897.579 1730.16 894.742 1726.83 893.324 1721.9 893.324 1715.39 893.324 1711.37 894.047 1707.81 895.492 1704.73 896.938 1701.65 898.998 1699.27 901.673 1697.6 904.347 1695.92 907.427 1695.09 910.913 1695.09ZM850.013 1679.2 886.974 1679.2 886.974 1691.44 883.002 1691.44C882.408 1689.6 881.834 1688.12 881.28 1686.98 880.726 1685.85 880.145 1684.98 879.537 1684.39 878.929 1683.79 878.22 1683.37 877.409 1683.13 876.599 1682.89 875.532 1682.77 874.208 1682.77L862.333 1682.77 862.333 1704.81 870.682 1704.81C871.871 1704.81 872.803 1704.62 873.478 1704.23 874.154 1703.83 874.714 1703.18 875.16 1702.26 875.606 1701.34 876.031 1699.92 876.437 1698L880.246 1698 880.246 1715.11 876.437 1715.11C876.031 1713.27 875.599 1711.89 875.14 1710.95 874.681 1710.02 874.133 1709.36 873.498 1708.97 872.864 1708.58 871.925 1708.38 870.682 1708.38L862.333 1708.38 862.333 1724.27C862.333 1725.89 862.428 1727.18 862.617 1728.16 862.806 1729.13 863.117 1729.9 863.549 1730.47 863.981 1731.03 864.562 1731.46 865.292 1731.74 866.021 1732.03 866.926 1732.29 868.007 1732.53L868.007 1734.52 850.013 1734.52 850.013 1732.53C851.688 1732.1 852.809 1731.62 853.377 1731.1 853.944 1730.57 854.316 1729.82 854.491 1728.85 854.667 1727.87 854.755 1726.39 854.755 1724.39L854.755 1689.33C854.755 1687.47 854.687 1686.11 854.552 1685.26 854.417 1684.41 854.194 1683.75 853.883 1683.27 853.573 1682.8 853.161 1682.42 852.647 1682.14 852.134 1681.85 851.256 1681.54 850.013 1681.19ZM951.926 1678.55C953.979 1678.55 955.985 1678.66 957.944 1678.88 959.903 1679.09 962.355 1679.58 965.3 1680.33L965.3 1691.28 961.288 1691.28C960.666 1688.9 959.883 1687.05 958.937 1685.72 957.992 1684.4 956.884 1683.48 955.614 1682.95 954.344 1682.42 952.696 1682.16 950.67 1682.16 948.913 1682.16 947.34 1682.48 945.948 1683.13 944.557 1683.78 943.456 1684.76 942.645 1686.07 941.835 1687.38 941.429 1688.94 941.429 1690.75 941.429 1692.67 941.774 1694.29 942.463 1695.61 943.152 1696.94 944.226 1698.17 945.685 1699.3 947.144 1700.44 949.305 1701.71 952.169 1703.11 955.627 1704.84 958.309 1706.45 960.214 1707.93 962.119 1709.42 963.605 1711.12 964.672 1713.02 965.739 1714.92 966.273 1717.15 966.273 1719.69 966.273 1722.52 965.827 1724.92 964.935 1726.88 964.044 1728.84 962.808 1730.43 961.227 1731.66 959.646 1732.89 957.755 1733.78 955.553 1734.34 953.351 1734.89 950.94 1735.17 948.319 1735.17 944.077 1735.17 939.187 1734.45 933.648 1733.02L933.648 1721.92 937.701 1721.92C938.241 1724.29 938.971 1726.17 939.889 1727.55 940.808 1728.93 941.997 1729.95 943.456 1730.61 944.915 1731.27 946.792 1731.6 949.089 1731.6 952.25 1731.6 954.675 1730.78 956.364 1729.13 958.052 1727.48 958.897 1725.08 958.897 1721.92 958.897 1719.89 958.545 1718.19 957.843 1716.81 957.141 1715.43 955.992 1714.13 954.398 1712.92 952.804 1711.7 950.372 1710.28 947.103 1708.66 943.942 1707.1 941.443 1705.56 939.606 1704.06 937.768 1702.56 936.397 1700.94 935.492 1699.18 934.587 1697.42 934.134 1695.51 934.134 1693.43 934.134 1690.4 934.844 1687.77 936.262 1685.54 937.681 1683.31 939.761 1681.59 942.503 1680.38 945.246 1679.16 948.387 1678.55 951.926 1678.55Z" fill-rule="evenodd"/><text fill="#000000" fill-opacity="0" font-family="Arial,Arial_MSFontService,sans-serif" font-size="56.6167" x="850.013" y="1728.09">FeS</text><path d="M2108 1706.85 2351.92 1706.85 2351.92 1709.15 2108 1709.15ZM2325 1690.97 2354.2 1708 2325 1725.03C2324.46 1725.35 2323.75 1725.17 2323.43 1724.62 2323.12 1724.07 2323.3 1723.37 2323.85 1723.05L2351.35 1707.01 2351.35 1708.99 2323.85 1692.95C2323.3 1692.63 2323.12 1691.93 2323.43 1691.38 2323.75 1690.83 2324.46 1690.65 2325 1690.97Z"/><path d="M2674 1706.85 2963.53 1706.85 2963.53 1709.15 2674 1709.15ZM2936.61 1690.97 2965.8 1708 2936.61 1725.03C2936.06 1725.35 2935.36 1725.17 2935.04 1724.62 2934.72 1724.07 2934.91 1723.37 2935.45 1723.05L2962.95 1707.01 2962.95 1708.99 2935.45 1692.95C2934.91 1692.63 2934.72 1691.93 2935.04 1691.38 2935.36 1690.83 2936.06 1690.65 2936.61 1690.97Z"/><path d="M0.59242-0.980802 408.873 245.627 407.688 247.589-0.59242 0.980802ZM394.042 218.111 410.228 247.785 376.431 247.268C375.798 247.258 375.293 246.737 375.303 246.105 375.313 245.472 375.833 244.967 376.466 244.977L408.299 245.463 407.276 247.158 392.03 219.208C391.727 218.653 391.932 217.957 392.488 217.654 393.043 217.351 393.739 217.555 394.042 218.111Z" transform="matrix(1 0 0 -1 1949 845.782)"/><path d="M1.14583-6.24557e-07 1.14619 659.835-1.14547 659.835-1.14583 6.24557e-07ZM17.0318 632.914 0.000360597 662.111-17.0311 632.914C-17.3499 632.368-17.1653 631.666-16.6187 631.347-16.0721 631.028-15.3704 631.213-15.0516 631.76L0.990106 659.26-0.989387 659.26 15.0523 631.76C15.3711 631.213 16.0727 631.028 16.6194 631.347 17.166 631.666 17.3506 632.368 17.0318 632.914Z" transform="matrix(-1 0 0 1 1949 979)"/><path d="M1949.87 978.256 2513.99 1638.63 2512.25 1640.12 1948.13 979.744ZM2508.59 1607.85 2514.6 1641.11 2482.69 1629.97C2482.09 1629.76 2481.78 1629.11 2481.99 1628.51 2482.19 1627.92 2482.85 1627.6 2483.45 1627.81L2513.5 1638.3 2512 1639.58 2506.33 1608.26C2506.22 1607.63 2506.64 1607.04 2507.26 1606.92 2507.88 1606.81 2508.48 1607.23 2508.59 1607.85Z"/><path d="M0.901643-0.707088 518.752 659.63 516.949 661.044-0.901643 0.707088ZM514.626 628.625 519.241 662.11 487.822 649.645C487.234 649.412 486.946 648.746 487.179 648.158 487.413 647.57 488.079 647.282 488.667 647.515L518.26 659.255 516.702 660.477 512.355 628.938C512.269 628.311 512.707 627.733 513.334 627.647 513.961 627.56 514.539 627.998 514.626 628.625Z" transform="matrix(-1 0 0 1 1948.24 979)"/><path d="M2.37745e-06-1.14583 171.667-1.14548 171.667 1.14619-2.37745e-06 1.14583ZM144.744-17.0311 173.941 0.000360971 144.744 17.0317C144.197 17.3506 143.496 17.1659 143.177 16.6193 142.858 16.0727 143.043 15.3711 143.589 15.0522L171.089-0.989392 171.089 0.990102 143.589-15.0516C143.043-15.3705 142.858-16.0721 143.177-16.6187 143.496-17.1653 144.197-17.35 144.744-17.0311Z" transform="matrix(-1 0 0 1 1788.94 1708)"/><path d="M0.789017-0.830895 450.366 426.087 448.788 427.749-0.789017 0.830895ZM441.789 396.035 451.233 428.49 418.333 420.735C417.717 420.59 417.336 419.973 417.481 419.357 417.626 418.741 418.243 418.36 418.859 418.505L449.846 425.809 448.483 427.244 439.589 396.675C439.412 396.068 439.761 395.432 440.368 395.255 440.976 395.078 441.612 395.427 441.789 396.035Z" transform="matrix(-1 0 0 1 1359.23 1213)"/><path d="M1.14583-6.24557e-07 1.14619 659.835-1.14547 659.835-1.14583 6.24557e-07ZM17.0318 632.914 0.000360597 662.111-17.0311 632.914C-17.3499 632.368-17.1653 631.666-16.6187 631.347-16.0721 631.028-15.3704 631.213-15.0516 631.76L0.990106 659.26-0.989387 659.26 15.0523 631.76C15.3711 631.213 16.0727 631.028 16.6194 631.347 17.166 631.666 17.3506 632.368 17.0318 632.914Z" transform="matrix(1 0 0 -1 908 1641.11)"/><path d="M2670.55 596.995 3121.17 843.688 3120.07 845.698 2669.45 599.005ZM3105.18 816.825 3122.61 845.785 3088.82 846.703C3088.19 846.721 3087.66 846.222 3087.65 845.589 3087.63 844.957 3088.13 844.43 3088.76 844.413L3120.58 843.547 3119.63 845.283 3103.22 818.007C3102.89 817.465 3103.06 816.761 3103.61 816.434 3104.15 816.108 3104.85 816.283 3105.18 816.825Z"/><path d="M2515.15 981 2515.15 1639.02 2512.85 1639.02 2512.85 981ZM2531.03 1612.09 2514 1641.29 2496.97 1612.09C2496.65 1611.54 2496.83 1610.84 2497.38 1610.52 2497.93 1610.21 2498.63 1610.39 2498.95 1610.94L2514.99 1638.44 2513.01 1638.44 2529.05 1610.94C2529.37 1610.39 2530.07 1610.21 2530.62 1610.52 2531.17 1610.84 2531.35 1611.54 2531.03 1612.09Z"/><path d="M3123.15 978.998 3124.06 1638.86 3121.77 1638.86 3120.85 979.002ZM3139.91 1611.89 3122.92 1641.11 3105.85 1611.94C3105.53 1611.39 3105.71 1610.69 3106.26 1610.37 3106.81 1610.05 3107.51 1610.23 3107.83 1610.78L3123.91 1638.26 3121.93 1638.26 3137.93 1610.74C3138.25 1610.19 3138.95 1610.01 3139.5 1610.32 3140.04 1610.64 3140.23 1611.34 3139.91 1611.89Z"/><path d="M1361.41 1116.78C1363.47 1116.78 1365.47 1116.88 1367.43 1117.1 1369.39 1117.32 1371.84 1117.8 1374.79 1118.56L1374.79 1129.5 1370.77 1129.5C1370.15 1127.12 1369.37 1125.27 1368.42 1123.95 1367.48 1122.63 1366.37 1121.7 1365.1 1121.17 1363.83 1120.65 1362.18 1120.38 1360.16 1120.38 1358.4 1120.38 1356.83 1120.71 1355.44 1121.36 1354.04 1122 1352.94 1122.98 1352.13 1124.29 1351.32 1125.6 1350.92 1127.16 1350.92 1128.97 1350.92 1130.89 1351.26 1132.51 1351.95 1133.84 1352.64 1135.16 1353.71 1136.39 1355.17 1137.53 1356.63 1138.66 1358.79 1139.93 1361.66 1141.34 1365.11 1143.06 1367.8 1144.67 1369.7 1146.16 1371.61 1147.64 1373.09 1149.34 1374.16 1151.24 1375.23 1153.15 1375.76 1155.37 1375.76 1157.91 1375.76 1160.75 1375.31 1163.15 1374.42 1165.1 1373.53 1167.06 1372.29 1168.66 1370.71 1169.89 1369.13 1171.12 1367.24 1172.01 1365.04 1172.56 1362.84 1173.12 1360.43 1173.39 1357.81 1173.39 1353.56 1173.39 1348.67 1172.68 1343.14 1171.24L1343.14 1160.14 1347.19 1160.14C1347.73 1162.52 1348.46 1164.4 1349.38 1165.77 1350.29 1167.15 1351.48 1168.17 1352.94 1168.83 1354.4 1169.5 1356.28 1169.83 1358.58 1169.83 1361.74 1169.83 1364.16 1169 1365.85 1167.35 1367.54 1165.71 1368.38 1163.3 1368.38 1160.14 1368.38 1158.11 1368.03 1156.41 1367.33 1155.03 1366.63 1153.66 1365.48 1152.36 1363.89 1151.14 1362.29 1149.93 1359.86 1148.51 1356.59 1146.89 1353.43 1145.32 1350.93 1143.79 1349.09 1142.29 1347.26 1140.79 1345.88 1139.16 1344.98 1137.4 1344.07 1135.65 1343.62 1133.73 1343.62 1131.65 1343.62 1128.62 1344.33 1126 1345.75 1123.77 1347.17 1121.54 1349.25 1119.82 1351.99 1118.6 1354.73 1117.38 1357.87 1116.78 1361.41 1116.78Z" fill-rule="evenodd"/><text fill="#000000" fill-opacity="0" font-family="Arial,Arial_MSFontService,sans-serif" font-size="56.6167" x="1343.14" y="1166.32">S</text><path d="M1009.98 936.169 1305.19 1097.82 1304.09 1099.83 1008.88 938.179ZM1289.21 1070.96 1306.64 1099.92 1272.85 1100.83C1272.22 1100.85 1271.69 1100.35 1271.67 1099.72 1271.66 1099.09 1272.15 1098.56 1272.79 1098.54L1304.61 1097.68 1303.66 1099.42 1287.25 1072.14C1286.92 1071.6 1287.09 1070.89 1287.64 1070.57 1288.18 1070.24 1288.88 1070.41 1289.21 1070.96Z"/><path d="M1000.43 958.327 1295.65 1119.98 1294.55 1121.99 999.331 960.337ZM1015.32 987.201 997.887 958.24 1031.68 957.324C1032.31 957.307 1032.83 957.806 1032.85 958.438 1032.87 959.071 1032.37 959.598 1031.74 959.615L999.912 960.477 1000.86 958.741 1017.28 986.019C1017.61 986.561 1017.43 987.266 1016.89 987.592 1016.35 987.918 1015.64 987.743 1015.32 987.201Z"/><path d="M1440.73 1114.9 1809.52 937.128 1810.51 939.192 1441.72 1116.96ZM1778.37 934.508 1812.06 937.172 1793.16 965.192C1792.81 965.716 1792.09 965.855 1791.57 965.501 1791.04 965.147 1790.91 964.435 1791.26 963.91L1809.07 937.518 1809.93 939.302 1778.19 936.792C1777.56 936.742 1777.09 936.191 1777.14 935.56 1777.19 934.929 1777.74 934.458 1778.37 934.508Z"/><path d="M1453.2 1135.55 1821.99 957.779 1822.99 959.843 1454.2 1137.62ZM1485.34 1140.24 1451.65 1137.57 1470.55 1109.55C1470.91 1109.03 1471.62 1108.89 1472.14 1109.24 1472.67 1109.6 1472.81 1110.31 1472.45 1110.83L1454.65 1137.22 1453.79 1135.44 1485.52 1137.95C1486.16 1138 1486.63 1138.55 1486.58 1139.18 1486.53 1139.81 1485.97 1140.29 1485.34 1140.24Z"/><path d="M2064 899.854 2400.58 899.854 2400.58 902.146 2064 902.146ZM2373.65 883.969 2402.85 901 2373.65 918.032C2373.11 918.351 2372.41 918.166 2372.09 917.619 2371.77 917.073 2371.95 916.371 2372.5 916.052L2400 900.011 2400 901.99 2372.5 885.948C2371.95 885.629 2371.77 884.928 2372.09 884.381 2372.41 883.835 2373.11 883.65 2373.65 883.969Z"/><path d="M2066.27 923.854 2402.85 923.855 2402.85 926.146 2066.27 926.146ZM2093.19 942.031 2063.99 925 2093.19 907.969C2093.74 907.65 2094.44 907.834 2094.76 908.381 2095.08 908.928 2094.89 909.629 2094.35 909.948L2066.85 925.99 2066.85 924.01 2094.35 940.052C2094.89 940.371 2095.08 941.073 2094.76 941.619 2094.44 942.166 2093.74 942.35 2093.19 942.031Z"/><path d="M0.00612803-1.14582 338.641 0.665258 338.628 2.95689-0.00612803 1.14582ZM311.807-15.3641 340.912 1.82326 311.625 18.6983C311.077 19.0142 310.376 18.8258 310.06 18.2775 309.744 17.7292 309.932 17.0286 310.481 16.7126L338.066 0.818274 338.056 2.79774 310.642-13.3908C310.097-13.7126 309.916-14.4151 310.238-14.9601 310.56-15.505 311.262-15.6858 311.807-15.3641Z" transform="matrix(1 0 0 -1 2626 913.823)"/><path d="M0.905647-0.701953 512.698 659.603 510.886 661.007-0.905647 0.701953ZM508.766 628.6 513.191 662.11 481.843 649.467C481.256 649.23 480.972 648.563 481.209 647.976 481.446 647.389 482.114 647.105 482.7 647.342L512.226 659.25 510.662 660.463 506.494 628.9C506.411 628.272 506.853 627.697 507.48 627.614 508.107 627.531 508.683 627.972 508.766 628.6Z" transform="matrix(1 0 0 -1 1382 1641.11)"/><path d="M1908.7 1642.34 1903.87 981.279 1906.16 981.262 1910.99 1642.32ZM1888.18 1008.32 1905 978.995 1922.24 1008.07C1922.57 1008.61 1922.39 1009.31 1921.84 1009.64 1921.3 1009.96 1920.6 1009.78 1920.27 1009.24L1904.03 981.853 1906.01 981.839 1890.17 1009.46C1889.86 1010 1889.16 1010.19 1888.61 1009.88 1888.06 1009.56 1887.87 1008.86 1888.18 1008.32Z"/><path d="M2490.44 1563.94 1995.58 979.456 1997.33 977.975 2492.19 1562.46ZM2000.86 1010.28 1995 976.996 2026.86 988.274C2027.46 988.485 2027.77 989.14 2027.56 989.736 2027.35 990.333 2026.69 990.645 2026.1 990.434L1996.08 979.812 1997.59 978.533 2003.12 1009.89C2003.23 1010.51 2002.81 1011.1 2002.19 1011.21 2001.57 1011.32 2000.97 1010.91 2000.86 1010.28Z"/><text font-family="Source Han Serif SC,Source Han Serif SC_MSFontService,sans-serif" font-weight="400" font-size="50" transform="matrix(1 0 0 1 1818.96 613)"></text><path d="M1947.91 845.548 1945.88 645.279 1948.17 645.255 1950.21 845.525ZM1930.27 672.363 1947 642.995 1964.33 672.017C1964.65 672.56 1964.47 673.264 1963.93 673.588 1963.39 673.912 1962.68 673.735 1962.36 673.192L1946.04 645.856 1948.02 645.836 1932.26 673.498C1931.94 674.048 1931.24 674.239 1930.69 673.926 1930.14 673.613 1929.95 672.913 1930.27 672.363Z"/><path d="M5.0896e-07-1.14583 810.222-1.14547 810.222 1.14619-5.0896e-07 1.14583ZM783.293-17.0311 812.49 0.000360512 783.293 17.0318C782.747 17.3506 782.045 17.166 781.726 16.6194 781.407 16.0727 781.592 15.3711 782.139 15.0523L809.639-0.989387 809.639 0.990106 782.139-15.0516C781.592-15.3704 781.407-16.0721 781.726-16.6187 782.045-17.1653 782.747-17.3499 783.293-17.0311Z" transform="matrix(-1 0 0 1 1839.48 896)"/><text font-family="Cambria Math,Cambria Math_MSFontService,sans-serif" font-weight="400" font-size="50" transform="matrix(1 0 0 1 1146.37 1004)">S</text><text font-family="Cambria Math,Cambria Math_MSFontService,sans-serif" font-weight="400" font-size="50" transform="matrix(1 0 0 1 1171.57 1004)">O</text><text font-family="Cambria Math,Cambria Math_MSFontService,sans-serif" font-weight="400" font-size="37" transform="matrix(1 0 0 1 1204.23 1014)">2</text><text font-family="Cambria Math,Cambria Math_MSFontService,sans-serif" font-weight="400" font-size="50" transform="matrix(1 0 0 1 1045.97 1093)">H</text><text font-family="Cambria Math,Cambria Math_MSFontService,sans-serif" font-weight="400" font-size="37" transform="matrix(1 0 0 1 1080.35 1103)">2</text><text font-family="Cambria Math,Cambria Math_MSFontService,sans-serif" font-weight="400" font-size="50" transform="matrix(1 0 0 1 1103.63 1093)">,</text><text font-family="Cambria Math,Cambria Math_MSFontService,sans-serif" font-weight="400" font-size="50" transform="matrix(1 0 0 1 1122.36 1093)"></text><text font-family="Cambria Math,Cambria Math_MSFontService,sans-serif" font-weight="400" font-size="50" transform="matrix(1 0 0 1 1353.37 871)">O</text><text font-family="Cambria Math,Cambria Math_MSFontService,sans-serif" font-weight="400" font-size="37" transform="matrix(1 0 0 1 1386.03 881)">2</text><text font-family="Cambria Math,Cambria Math_MSFontService,sans-serif" font-weight="400" font-size="50" transform="matrix(1 0 0 1 1409.31 871)">,</text><text font-family="Source Han Serif SC,Source Han Serif SC_MSFontService,sans-serif" font-weight="400" font-size="50" transform="matrix(1 0 0 1 1419.62 871)"></text><text font-family="Cambria Math,Cambria Math_MSFontService,sans-serif" font-weight="400" font-size="50" transform="matrix(1 0 0 1 1464.19 1012)">O</text><text font-family="Cambria Math,Cambria Math_MSFontService,sans-serif" font-weight="400" font-size="37" transform="matrix(1 0 0 1 1496.85 1022)">2</text><text font-family="Cambria Math,Cambria Math_MSFontService,sans-serif" font-weight="400" font-size="50" transform="matrix(1 0 0 1 1520.13 1012)">,</text><text font-family="Source Han Serif SC,Source Han Serif SC_MSFontService,sans-serif" font-weight="400" font-size="50" transform="matrix(1 0 0 1 1530.44 1012)"></text><text font-family="Cambria Math,Cambria Math_MSFontService,sans-serif" font-weight="400" font-size="50" transform="matrix(1 0 0 1 2125.65 875)">O</text><text font-family="Cambria Math,Cambria Math_MSFontService,sans-serif" font-weight="400" font-size="37" transform="matrix(1 0 0 1 2158.31 885)">2</text><text font-family="Cambria Math,Cambria Math_MSFontService,sans-serif" font-weight="400" font-size="50" transform="matrix(1 0 0 1 2181.59 875)">,</text><text font-family="SimSun,SimSun_MSFontService,sans-serif" font-weight="400" font-size="50" transform="matrix(1 0 0 1 2200.31 875)"></text><text font-family="Cambria Math,Cambria Math_MSFontService,sans-serif" font-weight="400" font-size="50" transform="matrix(1 0 0 1 2883.88 681)">O</text><text font-family="Cambria Math,Cambria Math_MSFontService,sans-serif" font-weight="400" font-size="37" transform="matrix(1 0 0 1 2916.54 691)">2</text><text font-family="Cambria Math,Cambria Math_MSFontService,sans-serif" font-weight="400" font-size="50" transform="matrix(1 0 0 1 2203.17 1678)">O</text><text font-family="Cambria Math,Cambria Math_MSFontService,sans-serif" font-weight="400" font-size="37" transform="matrix(1 0 0 1 2235.82 1688)">2</text><text font-family="Cambria Math,Cambria Math_MSFontService,sans-serif" font-weight="400" font-size="50" transform="matrix(1 0 0 1 2115.95 684)">CaO</text><text font-family="Cambria Math,Cambria Math_MSFontService,sans-serif" font-weight="400" font-size="50" transform="matrix(1 0 0 1 2703.59 892)">Ca</text><path d="M2846.41 854.275C2851.16 855.528 2854.81 858.234 2857.36 862.392 2859.91 866.551 2861.18 871.568 2861.18 877.444 2861.18 883.336 2859.91 888.353 2857.37 892.495 2854.83 896.637 2851.18 899.335 2846.41 900.588L2845.82 898.708C2849.58 897.455 2852.38 894.981 2854.21 891.286 2856.04 887.592 2856.96 882.896 2856.96 877.2 2856.96 871.698 2856.04 867.129 2854.22 863.491 2852.4 859.853 2849.57 857.408 2845.75 856.155ZM2776.03 854.275 2776.69 856.155C2772.88 857.408 2770.06 859.853 2768.23 863.491 2766.4 867.129 2765.49 871.698 2765.49 877.2 2765.49 882.896 2766.4 887.592 2768.23 891.286 2770.06 894.981 2772.86 897.455 2776.62 898.708L2776.03 900.588C2771.26 899.335 2767.61 896.637 2765.07 892.495 2762.53 888.353 2761.26 883.336 2761.26 877.444 2761.26 871.568 2762.54 866.551 2765.08 862.392 2767.63 858.234 2771.28 855.528 2776.03 854.275Z" fill-rule="evenodd"/><text font-family="Cambria Math,Cambria Math_MSFontService,sans-serif" font-weight="400" font-size="50" transform="matrix(1 0 0 1 2777.79 892)">OH</text><text font-family="Cambria Math,Cambria Math_MSFontService,sans-serif" font-weight="400" font-size="37" transform="matrix(1 0 0 1 2865.74 902)">2</text><text font-family="Cambria Math,Cambria Math_MSFontService,sans-serif" font-weight="400" font-size="50" transform="matrix(1 0 0 1 2535.82 1276)">H</text><text font-family="Cambria Math,Cambria Math_MSFontService,sans-serif" font-weight="400" font-size="37" transform="matrix(1 0 0 1 2570.2 1286)">2</text><text font-family="Cambria Math,Cambria Math_MSFontService,sans-serif" font-weight="400" font-size="50" transform="matrix(1 0 0 1 2593.48 1276)">O</text><text font-family="Cambria Math,Cambria Math_MSFontService,sans-serif" font-weight="400" font-size="50" transform="matrix(1 0 0 1 780.971 1323)">HCl</text><text font-family="Cambria Math,Cambria Math_MSFontService,sans-serif" font-weight="400" font-size="50" transform="matrix(1 0 0 1 1098.19 1349)">Fe</text><text font-family="Cambria Math,Cambria Math_MSFontService,sans-serif" font-weight="400" font-size="50" transform="matrix(1 0 0 1 1149.75 1349)">,</text><text font-family="Cambria Math,Cambria Math_MSFontService,sans-serif" font-weight="400" font-size="50" transform="matrix(1 0 0 1 1168.47 1349)"></text><text font-family="Cambria Math,Cambria Math_MSFontService,sans-serif" font-weight="400" font-size="50" transform="matrix(1 0 0 1 1972.56 1503)">H</text><text font-family="Cambria Math,Cambria Math_MSFontService,sans-serif" font-weight="400" font-size="37" transform="matrix(1 0 0 1 2006.93 1514)">2</text><text font-family="Cambria Math,Cambria Math_MSFontService,sans-serif" font-weight="400" font-size="50" transform="matrix(1 0 0 1 2030.21 1503)">O</text><text font-family="Cambria Math,Cambria Math_MSFontService,sans-serif" font-weight="400" font-size="50" transform="matrix(1 0 0 1 2118.74 1342)">C</text><text font-family="Cambria Math,Cambria Math_MSFontService,sans-serif" font-weight="400" font-size="50" transform="matrix(1 0 0 1 2147.39 1342)">l</text><text font-family="Cambria Math,Cambria Math_MSFontService,sans-serif" font-weight="400" font-size="37" transform="matrix(1 0 0 1 2161.14 1353)">2</text><text font-family="Cambria Math,Cambria Math_MSFontService,sans-serif" font-weight="400" font-size="50" transform="matrix(1 0 0 1 2727.04 1678)">Ba</text><path d="M2872.15 1640.31C2876.9 1641.56 2880.55 1644.27 2883.1 1648.42 2885.65 1652.58 2886.92 1657.6 2886.92 1663.48 2886.92 1669.37 2885.65 1674.38 2883.11 1678.53 2880.57 1682.67 2876.92 1685.37 2872.15 1686.62L2871.57 1684.74C2875.32 1683.49 2878.12 1681.01 2879.95 1677.32 2881.78 1673.62 2882.7 1668.93 2882.7 1663.23 2882.7 1657.73 2881.79 1653.16 2879.96 1649.52 2878.14 1645.89 2875.32 1643.44 2871.49 1642.19ZM2801.78 1640.31 2802.43 1642.19C2798.63 1643.44 2795.81 1645.89 2793.97 1649.52 2792.14 1653.16 2791.23 1657.73 2791.23 1663.23 2791.23 1668.93 2792.14 1673.62 2793.97 1677.32 2795.81 1681.01 2798.6 1683.49 2802.36 1684.74L2801.78 1686.62C2797.01 1685.37 2793.35 1682.67 2790.81 1678.53 2788.27 1674.38 2787 1669.37 2787 1663.48 2787 1657.6 2788.28 1652.58 2790.83 1648.42 2793.37 1644.27 2797.02 1641.56 2801.78 1640.31Z" fill-rule="evenodd"/><text font-family="Cambria Math,Cambria Math_MSFontService,sans-serif" font-weight="400" font-size="50" transform="matrix(1 0 0 1 2803.53 1678)">OH</text><text font-family="Cambria Math,Cambria Math_MSFontService,sans-serif" font-weight="400" font-size="37" transform="matrix(1 0 0 1 2891.49 1688)">2</text><text font-family="Cambria Math,Cambria Math_MSFontService,sans-serif" font-weight="400" font-size="50" transform="matrix(1 0 0 1 1654.4 1684)">NaOH</text><text font-family="Cambria Math,Cambria Math_MSFontService,sans-serif" font-weight="400" font-size="50" transform="matrix(1 0 0 1 1617.89 1450)">NaOH</text><text font-family="Cambria Math,Cambria Math_MSFontService,sans-serif" font-weight="400" font-size="50" transform="matrix(1 0 0 1 1466.45 1317)">H</text><text font-family="Cambria Math,Cambria Math_MSFontService,sans-serif" font-weight="400" font-size="37" transform="matrix(1 0 0 1 1500.82 1328)">2</text><text font-family="Cambria Math,Cambria Math_MSFontService,sans-serif" font-weight="400" font-size="50" transform="matrix(1 0 0 1 1524.1 1317)">S</text><text font-family="Cambria Math,Cambria Math_MSFontService,sans-serif" font-weight="400" font-size="50" transform="matrix(1 0 0 1 1549.31 1317)">O</text><text font-family="Cambria Math,Cambria Math_MSFontService,sans-serif" font-weight="400" font-size="37" transform="matrix(1 0 0 1 1581.97 1328)">4</text><text font-family="Cambria Math,Cambria Math_MSFontService,sans-serif" font-weight="400" font-size="50" transform="matrix(1 0 0 1 1598.29 1108)">H</text><text font-family="Cambria Math,Cambria Math_MSFontService,sans-serif" font-weight="400" font-size="37" transform="matrix(1 0 0 1 1632.67 1118)">2</text><text font-family="Cambria Math,Cambria Math_MSFontService,sans-serif" font-weight="400" font-size="50" transform="matrix(1 0 0 1 1655.95 1108)">S</text><text font-family="Cambria Math,Cambria Math_MSFontService,sans-serif" font-weight="400" font-size="50" transform="matrix(1 0 0 1 2168.8 1127)">a</text><text font-family="Cambria Math,Cambria Math_MSFontService,sans-serif" font-weight="400" font-size="50" transform="matrix(1 0 0 1 2193.44 1127)">.</text><text font-family="Source Han Serif SC,Source Han Serif SC_MSFontService,sans-serif" font-weight="400" font-size="50" transform="matrix(1 0 0 1 2212.16 1127)"></text><text font-family="Cambria Math,Cambria Math_MSFontService,sans-serif" font-weight="400" font-size="50" transform="matrix(1 0 0 1 2313 1127)">,</text><text font-family="Cambria Math,Cambria Math_MSFontService,sans-serif" font-weight="400" font-size="50" transform="matrix(1 0 0 1 2331.72 1127)">Cu</text><text font-family="Cambria Math,Cambria Math_MSFontService,sans-serif" font-weight="400" font-size="50" transform="matrix(1 0 0 1 2388.44 1127)">,</text><text font-family="Cambria Math,Cambria Math_MSFontService,sans-serif" font-weight="400" font-size="50" transform="matrix(1 0 0 1 2407.16 1127)"></text><text font-family="Cambria Math,Cambria Math_MSFontService,sans-serif" font-weight="400" font-size="50" transform="matrix(1 0 0 1 2181.41 1189)">b</text><text font-family="Cambria Math,Cambria Math_MSFontService,sans-serif" font-weight="400" font-size="50" transform="matrix(1 0 0 1 2208.91 1189)">.</text><text font-family="Source Han Serif SC,Source Han Serif SC_MSFontService,sans-serif" font-weight="400" font-size="50" transform="matrix(1 0 0 1 2227.63 1189)"></text><text font-family="Cambria Math,Cambria Math_MSFontService,sans-serif" font-weight="400" font-size="50" transform="matrix(1 0 0 1 2328.46 1189)">,</text><text font-family="Cambria Math,Cambria Math_MSFontService,sans-serif" font-weight="400" font-size="50" transform="matrix(1 0 0 1 2347.19 1189)">C</text><text font-family="Cambria Math,Cambria Math_MSFontService,sans-serif" font-weight="400" font-size="50" transform="matrix(1 0 0 1 2375.83 1189)">,</text><text font-family="Cambria Math,Cambria Math_MSFontService,sans-serif" font-weight="400" font-size="50" transform="matrix(1 0 0 1 2394.56 1189)"></text><text font-family="Cambria Math,Cambria Math_MSFontService,sans-serif" font-weight="400" font-size="50" transform="matrix(1 0 0 1 2938.5 1291)">Ba</text><text font-family="Cambria Math,Cambria Math_MSFontService,sans-serif" font-weight="400" font-size="50" transform="matrix(1 0 0 1 2994.07 1291)">Cl</text><text font-family="Cambria Math,Cambria Math_MSFontService,sans-serif" font-weight="400" font-size="37" transform="matrix(1 0 0 1 3036.47 1301)">2</text><text font-family="Cambria Math,Cambria Math_MSFontService,sans-serif" font-weight="400" font-size="37" transform="matrix(1 0 0 1 923.712 1666)"></text><text font-family="Cambria Math,Cambria Math_MSFontService,sans-serif" font-weight="400" font-size="37" transform="matrix(1 0 0 1 951.212 1666)">2</text><text font-family="Cambria Math,Cambria Math_MSFontService,sans-serif" font-weight="400" font-size="37" transform="matrix(1 0 0 1 929.055 864)"></text><text font-family="Cambria Math,Cambria Math_MSFontService,sans-serif" font-weight="400" font-size="37" transform="matrix(1 0 0 1 956.555 864)">2</text><text font-family="Cambria Math,Cambria Math_MSFontService,sans-serif" font-weight="400" font-size="37" transform="matrix(1 0 0 1 1349.31 1101)">0</text><text font-family="Cambria Math,Cambria Math_MSFontService,sans-serif" font-weight="400" font-size="37" transform="matrix(1 0 0 1 1878.4 871)">+</text><text font-family="Cambria Math,Cambria Math_MSFontService,sans-serif" font-weight="400" font-size="37" transform="matrix(1 0 0 1 1905.9 871)">4</text><text font-family="Cambria Math,Cambria Math_MSFontService,sans-serif" font-weight="400" font-size="37" transform="matrix(1 0 0 1 1426.79 1670)">+</text><text font-family="Cambria Math,Cambria Math_MSFontService,sans-serif" font-weight="400" font-size="37" transform="matrix(1 0 0 1 1454.29 1670)">4</text><text font-family="Cambria Math,Cambria Math_MSFontService,sans-serif" font-weight="400" font-size="37" transform="matrix(1 0 0 1 1921.61 1669)">+</text><text font-family="Cambria Math,Cambria Math_MSFontService,sans-serif" font-weight="400" font-size="37" transform="matrix(1 0 0 1 1949.11 1669)">4</text><text font-family="Cambria Math,Cambria Math_MSFontService,sans-serif" font-weight="400" font-size="37" transform="matrix(1 0 0 1 2442.55 866)">+</text><text font-family="Cambria Math,Cambria Math_MSFontService,sans-serif" font-weight="400" font-size="37" transform="matrix(1 0 0 1 2470.05 866)">6</text><text font-family="Cambria Math,Cambria Math_MSFontService,sans-serif" font-weight="400" font-size="37" transform="matrix(1 0 0 1 2490.41 1666)">+</text><text font-family="Cambria Math,Cambria Math_MSFontService,sans-serif" font-weight="400" font-size="37" transform="matrix(1 0 0 1 2517.91 1666)">6</text><text font-family="Cambria Math,Cambria Math_MSFontService,sans-serif" font-weight="400" font-size="37" transform="matrix(1 0 0 1 3098.4 1666)">+</text><text font-family="Cambria Math,Cambria Math_MSFontService,sans-serif" font-weight="400" font-size="37" transform="matrix(1 0 0 1 3125.9 1666)">6</text><text font-family="Cambria Math,Cambria Math_MSFontService,sans-serif" font-weight="400" font-size="37" transform="matrix(1 0 0 1 3093.24 874)">+</text><text font-family="Cambria Math,Cambria Math_MSFontService,sans-serif" font-weight="400" font-size="37" transform="matrix(1 0 0 1 3120.74 874)">6</text></g></svg>